ISO-10303-21;
HEADER;
/* Generated by software containing ST-Developer
 * from STEP Tools, Inc. (www.steptools.com) 
 */

FILE_DESCRIPTION(
/* description */ (''),
/* implementation_level */ '2;1');

FILE_NAME(
/* name */ 'ModB_Hat.step',
/* time_stamp */ '2026-05-14T22:24:45+08:00',
/* author */ (''),
/* organization */ (''),
/* preprocessor_version */ 'ST-DEVELOPER v20.1',
/* originating_system */ 'Autodesk Translation Framework v15.8.0.0',
/* authorisation */ '');

FILE_SCHEMA (('AUTOMOTIVE_DESIGN { 1 0 10303 214 3 1 1 }'));
ENDSEC;

DATA;
#10=MECHANICAL_DESIGN_GEOMETRIC_PRESENTATION_REPRESENTATION('',(#13),#1496);
#11=SHAPE_REPRESENTATION_RELATIONSHIP('SRR','None',#1503,#12);
#12=ADVANCED_BREP_SHAPE_REPRESENTATION('',(#14),#1495);
#13=STYLED_ITEM('',(#1513),#14);
#14=MANIFOLD_SOLID_BREP('\X2\5B9E4F53\X0\1',#901);
#15=FACE_BOUND('',#111,.T.);
#16=CYLINDRICAL_SURFACE('',#981,21.75);
#17=CYLINDRICAL_SURFACE('',#983,20.);
#18=CONICAL_SURFACE('',#935,20.75,0.785398163397448);
#19=FACE_OUTER_BOUND('',#65,.T.);
#20=FACE_OUTER_BOUND('',#66,.T.);
#21=FACE_OUTER_BOUND('',#67,.T.);
#22=FACE_OUTER_BOUND('',#68,.T.);
#23=FACE_OUTER_BOUND('',#69,.T.);
#24=FACE_OUTER_BOUND('',#70,.T.);
#25=FACE_OUTER_BOUND('',#71,.T.);
#26=FACE_OUTER_BOUND('',#72,.T.);
#27=FACE_OUTER_BOUND('',#73,.T.);
#28=FACE_OUTER_BOUND('',#74,.T.);
#29=FACE_OUTER_BOUND('',#75,.T.);
#30=FACE_OUTER_BOUND('',#76,.T.);
#31=FACE_OUTER_BOUND('',#77,.T.);
#32=FACE_OUTER_BOUND('',#78,.T.);
#33=FACE_OUTER_BOUND('',#79,.T.);
#34=FACE_OUTER_BOUND('',#80,.T.);
#35=FACE_OUTER_BOUND('',#81,.T.);
#36=FACE_OUTER_BOUND('',#82,.T.);
#37=FACE_OUTER_BOUND('',#83,.T.);
#38=FACE_OUTER_BOUND('',#84,.T.);
#39=FACE_OUTER_BOUND('',#85,.T.);
#40=FACE_OUTER_BOUND('',#86,.T.);
#41=FACE_OUTER_BOUND('',#87,.T.);
#42=FACE_OUTER_BOUND('',#88,.T.);
#43=FACE_OUTER_BOUND('',#89,.T.);
#44=FACE_OUTER_BOUND('',#90,.T.);
#45=FACE_OUTER_BOUND('',#91,.T.);
#46=FACE_OUTER_BOUND('',#92,.T.);
#47=FACE_OUTER_BOUND('',#93,.T.);
#48=FACE_OUTER_BOUND('',#94,.T.);
#49=FACE_OUTER_BOUND('',#95,.T.);
#50=FACE_OUTER_BOUND('',#96,.T.);
#51=FACE_OUTER_BOUND('',#97,.T.);
#52=FACE_OUTER_BOUND('',#98,.T.);
#53=FACE_OUTER_BOUND('',#99,.T.);
#54=FACE_OUTER_BOUND('',#100,.T.);
#55=FACE_OUTER_BOUND('',#101,.T.);
#56=FACE_OUTER_BOUND('',#102,.T.);
#57=FACE_OUTER_BOUND('',#103,.T.);
#58=FACE_OUTER_BOUND('',#104,.T.);
#59=FACE_OUTER_BOUND('',#105,.T.);
#60=FACE_OUTER_BOUND('',#106,.T.);
#61=FACE_OUTER_BOUND('',#107,.T.);
#62=FACE_OUTER_BOUND('',#108,.T.);
#63=FACE_OUTER_BOUND('',#109,.T.);
#64=FACE_OUTER_BOUND('',#110,.T.);
#65=EDGE_LOOP('',(#556,#557,#558,#559));
#66=EDGE_LOOP('',(#560,#561,#562,#563));
#67=EDGE_LOOP('',(#564,#565,#566,#567,#568,#569,#570,#571));
#68=EDGE_LOOP('',(#572,#573,#574,#575));
#69=EDGE_LOOP('',(#576,#577,#578,#579));
#70=EDGE_LOOP('',(#580,#581,#582,#583));
#71=EDGE_LOOP('',(#584,#585,#586,#587));
#72=EDGE_LOOP('',(#588,#589,#590,#591));
#73=EDGE_LOOP('',(#592,#593,#594,#595,#596,#597,#598,#599,#600,#601,#602,
#603,#604,#605,#606,#607,#608,#609,#610,#611,#612));
#74=EDGE_LOOP('',(#613));
#75=EDGE_LOOP('',(#614,#615,#616,#617));
#76=EDGE_LOOP('',(#618,#619,#620,#621));
#77=EDGE_LOOP('',(#622,#623,#624,#625));
#78=EDGE_LOOP('',(#626,#627,#628,#629,#630,#631,#632,#633));
#79=EDGE_LOOP('',(#634,#635,#636,#637));
#80=EDGE_LOOP('',(#638,#639,#640,#641));
#81=EDGE_LOOP('',(#642,#643,#644,#645));
#82=EDGE_LOOP('',(#646,#647,#648,#649));
#83=EDGE_LOOP('',(#650,#651,#652,#653));
#84=EDGE_LOOP('',(#654,#655,#656,#657));
#85=EDGE_LOOP('',(#658,#659,#660,#661));
#86=EDGE_LOOP('',(#662,#663,#664,#665,#666,#667,#668,#669));
#87=EDGE_LOOP('',(#670,#671,#672,#673));
#88=EDGE_LOOP('',(#674,#675,#676,#677));
#89=EDGE_LOOP('',(#678,#679,#680,#681));
#90=EDGE_LOOP('',(#682,#683,#684,#685));
#91=EDGE_LOOP('',(#686,#687,#688,#689));
#92=EDGE_LOOP('',(#690,#691,#692,#693));
#93=EDGE_LOOP('',(#694,#695,#696,#697));
#94=EDGE_LOOP('',(#698,#699,#700,#701,#702,#703,#704,#705));
#95=EDGE_LOOP('',(#706,#707,#708,#709));
#96=EDGE_LOOP('',(#710,#711,#712,#713));
#97=EDGE_LOOP('',(#714,#715,#716,#717));
#98=EDGE_LOOP('',(#718,#719,#720,#721));
#99=EDGE_LOOP('',(#722,#723,#724,#725));
#100=EDGE_LOOP('',(#726,#727,#728,#729));
#101=EDGE_LOOP('',(#730,#731,#732,#733));
#102=EDGE_LOOP('',(#734,#735,#736,#737,#738,#739,#740,#741));
#103=EDGE_LOOP('',(#742,#743,#744,#745));
#104=EDGE_LOOP('',(#746,#747,#748,#749));
#105=EDGE_LOOP('',(#750,#751,#752,#753));
#106=EDGE_LOOP('',(#754,#755,#756,#757));
#107=EDGE_LOOP('',(#758,#759,#760,#761));
#108=EDGE_LOOP('',(#762,#763,#764,#765));
#109=EDGE_LOOP('',(#766,#767,#768,#769,#770,#771,#772,#773,#774,#775,#776,
#777,#778,#779,#780,#781,#782,#783,#784,#785,#786,#787,#788,#789,#790,#791,
#792,#793,#794,#795,#796,#797,#798,#799,#800,#801,#802,#803,#804,#805,#806,
#807,#808,#809));
#110=EDGE_LOOP('',(#810));
#111=EDGE_LOOP('',(#811));
#112=CIRCLE('',#916,20.);
#113=CIRCLE('',#918,20.);
#114=CIRCLE('',#923,20.);
#115=CIRCLE('',#927,20.);
#116=CIRCLE('',#928,20.);
#117=CIRCLE('',#929,20.);
#118=CIRCLE('',#930,20.);
#119=CIRCLE('',#931,20.);
#120=CIRCLE('',#932,20.);
#121=CIRCLE('',#934,19.75);
#122=CIRCLE('',#936,21.75);
#123=CIRCLE('',#938,20.);
#124=CIRCLE('',#940,20.);
#125=CIRCLE('',#945,20.);
#126=CIRCLE('',#949,20.);
#127=CIRCLE('',#951,20.);
#128=CIRCLE('',#956,20.);
#129=CIRCLE('',#960,20.);
#130=CIRCLE('',#962,20.);
#131=CIRCLE('',#967,20.);
#132=CIRCLE('',#971,20.);
#133=CIRCLE('',#973,20.);
#134=CIRCLE('',#978,20.);
#135=CIRCLE('',#982,21.75);
#136=CIRCLE('',#984,20.);
#137=LINE('',#1237,#240);
#138=LINE('',#1241,#241);
#139=LINE('',#1242,#242);
#140=LINE('',#1246,#243);
#141=LINE('',#1248,#244);
#142=LINE('',#1250,#245);
#143=LINE('',#1253,#246);
#144=LINE('',#1255,#247);
#145=LINE('',#1257,#248);
#146=LINE('',#1259,#249);
#147=LINE('',#1261,#250);
#148=LINE('',#1262,#251);
#149=LINE('',#1264,#252);
#150=LINE('',#1267,#253);
#151=LINE('',#1268,#254);
#152=LINE('',#1271,#255);
#153=LINE('',#1273,#256);
#154=LINE('',#1277,#257);
#155=LINE('',#1278,#258);
#156=LINE('',#1280,#259);
#157=LINE('',#1287,#260);
#158=LINE('',#1289,#261);
#159=LINE('',#1291,#262);
#160=LINE('',#1295,#263);
#161=LINE('',#1297,#264);
#162=LINE('',#1299,#265);
#163=LINE('',#1303,#266);
#164=LINE('',#1305,#267);
#165=LINE('',#1307,#268);
#166=LINE('',#1311,#269);
#167=LINE('',#1313,#270);
#168=LINE('',#1315,#271);
#169=LINE('',#1322,#272);
#170=LINE('',#1327,#273);
#171=LINE('',#1331,#274);
#172=LINE('',#1332,#275);
#173=LINE('',#1336,#276);
#174=LINE('',#1338,#277);
#175=LINE('',#1340,#278);
#176=LINE('',#1343,#279);
#177=LINE('',#1345,#280);
#178=LINE('',#1347,#281);
#179=LINE('',#1348,#282);
#180=LINE('',#1349,#283);
#181=LINE('',#1351,#284);
#182=LINE('',#1353,#285);
#183=LINE('',#1356,#286);
#184=LINE('',#1358,#287);
#185=LINE('',#1361,#288);
#186=LINE('',#1363,#289);
#187=LINE('',#1367,#290);
#188=LINE('',#1371,#291);
#189=LINE('',#1372,#292);
#190=LINE('',#1376,#293);
#191=LINE('',#1378,#294);
#192=LINE('',#1380,#295);
#193=LINE('',#1383,#296);
#194=LINE('',#1385,#297);
#195=LINE('',#1387,#298);
#196=LINE('',#1388,#299);
#197=LINE('',#1389,#300);
#198=LINE('',#1391,#301);
#199=LINE('',#1393,#302);
#200=LINE('',#1396,#303);
#201=LINE('',#1398,#304);
#202=LINE('',#1401,#305);
#203=LINE('',#1403,#306);
#204=LINE('',#1407,#307);
#205=LINE('',#1411,#308);
#206=LINE('',#1412,#309);
#207=LINE('',#1416,#310);
#208=LINE('',#1418,#311);
#209=LINE('',#1420,#312);
#210=LINE('',#1423,#313);
#211=LINE('',#1425,#314);
#212=LINE('',#1427,#315);
#213=LINE('',#1428,#316);
#214=LINE('',#1429,#317);
#215=LINE('',#1431,#318);
#216=LINE('',#1433,#319);
#217=LINE('',#1436,#320);
#218=LINE('',#1438,#321);
#219=LINE('',#1441,#322);
#220=LINE('',#1443,#323);
#221=LINE('',#1447,#324);
#222=LINE('',#1451,#325);
#223=LINE('',#1452,#326);
#224=LINE('',#1456,#327);
#225=LINE('',#1458,#328);
#226=LINE('',#1460,#329);
#227=LINE('',#1463,#330);
#228=LINE('',#1465,#331);
#229=LINE('',#1467,#332);
#230=LINE('',#1468,#333);
#231=LINE('',#1469,#334);
#232=LINE('',#1471,#335);
#233=LINE('',#1473,#336);
#234=LINE('',#1476,#337);
#235=LINE('',#1478,#338);
#236=LINE('',#1481,#339);
#237=LINE('',#1483,#340);
#238=LINE('',#1486,#341);
#239=LINE('',#1491,#342);
#240=VECTOR('',#990,10.);
#241=VECTOR('',#993,10.);
#242=VECTOR('',#994,10.);
#243=VECTOR('',#997,10.);
#244=VECTOR('',#998,10.);
#245=VECTOR('',#999,10.);
#246=VECTOR('',#1004,10.);
#247=VECTOR('',#1005,10.);
#248=VECTOR('',#1006,10.);
#249=VECTOR('',#1007,10.);
#250=VECTOR('',#1008,10.);
#251=VECTOR('',#1009,10.);
#252=VECTOR('',#1012,10.);
#253=VECTOR('',#1015,10.);
#254=VECTOR('',#1016,10.);
#255=VECTOR('',#1019,10.);
#256=VECTOR('',#1020,10.);
#257=VECTOR('',#1025,10.);
#258=VECTOR('',#1026,10.);
#259=VECTOR('',#1029,10.);
#260=VECTOR('',#1036,10.);
#261=VECTOR('',#1037,10.);
#262=VECTOR('',#1038,10.);
#263=VECTOR('',#1041,10.);
#264=VECTOR('',#1042,10.);
#265=VECTOR('',#1043,10.);
#266=VECTOR('',#1046,10.);
#267=VECTOR('',#1047,10.);
#268=VECTOR('',#1048,10.);
#269=VECTOR('',#1051,10.);
#270=VECTOR('',#1052,10.);
#271=VECTOR('',#1053,10.);
#272=VECTOR('',#1062,20.75);
#273=VECTOR('',#1067,10.);
#274=VECTOR('',#1070,10.);
#275=VECTOR('',#1071,10.);
#276=VECTOR('',#1074,10.);
#277=VECTOR('',#1075,10.);
#278=VECTOR('',#1076,10.);
#279=VECTOR('',#1081,10.);
#280=VECTOR('',#1082,10.);
#281=VECTOR('',#1083,10.);
#282=VECTOR('',#1084,10.);
#283=VECTOR('',#1085,10.);
#284=VECTOR('',#1088,10.);
#285=VECTOR('',#1091,10.);
#286=VECTOR('',#1094,10.);
#287=VECTOR('',#1095,10.);
#288=VECTOR('',#1100,10.);
#289=VECTOR('',#1103,10.);
#290=VECTOR('',#1106,10.);
#291=VECTOR('',#1109,10.);
#292=VECTOR('',#1110,10.);
#293=VECTOR('',#1113,10.);
#294=VECTOR('',#1114,10.);
#295=VECTOR('',#1115,10.);
#296=VECTOR('',#1120,10.);
#297=VECTOR('',#1121,10.);
#298=VECTOR('',#1122,10.);
#299=VECTOR('',#1123,10.);
#300=VECTOR('',#1124,10.);
#301=VECTOR('',#1127,10.);
#302=VECTOR('',#1130,10.);
#303=VECTOR('',#1133,10.);
#304=VECTOR('',#1134,10.);
#305=VECTOR('',#1139,10.);
#306=VECTOR('',#1142,10.);
#307=VECTOR('',#1145,10.);
#308=VECTOR('',#1148,10.);
#309=VECTOR('',#1149,10.);
#310=VECTOR('',#1152,10.);
#311=VECTOR('',#1153,10.);
#312=VECTOR('',#1154,10.);
#313=VECTOR('',#1159,10.);
#314=VECTOR('',#1160,10.);
#315=VECTOR('',#1161,10.);
#316=VECTOR('',#1162,10.);
#317=VECTOR('',#1163,10.);
#318=VECTOR('',#1166,10.);
#319=VECTOR('',#1169,10.);
#320=VECTOR('',#1172,10.);
#321=VECTOR('',#1173,10.);
#322=VECTOR('',#1178,10.);
#323=VECTOR('',#1181,10.);
#324=VECTOR('',#1184,10.);
#325=VECTOR('',#1187,10.);
#326=VECTOR('',#1188,10.);
#327=VECTOR('',#1191,10.);
#328=VECTOR('',#1192,10.);
#329=VECTOR('',#1193,10.);
#330=VECTOR('',#1198,10.);
#331=VECTOR('',#1199,10.);
#332=VECTOR('',#1200,10.);
#333=VECTOR('',#1201,10.);
#334=VECTOR('',#1202,10.);
#335=VECTOR('',#1205,10.);
#336=VECTOR('',#1208,10.);
#337=VECTOR('',#1211,10.);
#338=VECTOR('',#1212,10.);
#339=VECTOR('',#1217,10.);
#340=VECTOR('',#1220,10.);
#341=VECTOR('',#1223,21.75);
#342=VECTOR('',#1230,20.);
#343=VERTEX_POINT('',#1235);
#344=VERTEX_POINT('',#1236);
#345=VERTEX_POINT('',#1238);
#346=VERTEX_POINT('',#1240);
#347=VERTEX_POINT('',#1244);
#348=VERTEX_POINT('',#1245);
#349=VERTEX_POINT('',#1247);
#350=VERTEX_POINT('',#1249);
#351=VERTEX_POINT('',#1254);
#352=VERTEX_POINT('',#1256);
#353=VERTEX_POINT('',#1258);
#354=VERTEX_POINT('',#1260);
#355=VERTEX_POINT('',#1266);
#356=VERTEX_POINT('',#1270);
#357=VERTEX_POINT('',#1272);
#358=VERTEX_POINT('',#1276);
#359=VERTEX_POINT('',#1282);
#360=VERTEX_POINT('',#1284);
#361=VERTEX_POINT('',#1286);
#362=VERTEX_POINT('',#1288);
#363=VERTEX_POINT('',#1290);
#364=VERTEX_POINT('',#1292);
#365=VERTEX_POINT('',#1294);
#366=VERTEX_POINT('',#1296);
#367=VERTEX_POINT('',#1298);
#368=VERTEX_POINT('',#1300);
#369=VERTEX_POINT('',#1302);
#370=VERTEX_POINT('',#1304);
#371=VERTEX_POINT('',#1306);
#372=VERTEX_POINT('',#1308);
#373=VERTEX_POINT('',#1310);
#374=VERTEX_POINT('',#1312);
#375=VERTEX_POINT('',#1314);
#376=VERTEX_POINT('',#1318);
#377=VERTEX_POINT('',#1321);
#378=VERTEX_POINT('',#1325);
#379=VERTEX_POINT('',#1326);
#380=VERTEX_POINT('',#1328);
#381=VERTEX_POINT('',#1330);
#382=VERTEX_POINT('',#1334);
#383=VERTEX_POINT('',#1335);
#384=VERTEX_POINT('',#1337);
#385=VERTEX_POINT('',#1339);
#386=VERTEX_POINT('',#1344);
#387=VERTEX_POINT('',#1346);
#388=VERTEX_POINT('',#1355);
#389=VERTEX_POINT('',#1357);
#390=VERTEX_POINT('',#1365);
#391=VERTEX_POINT('',#1366);
#392=VERTEX_POINT('',#1368);
#393=VERTEX_POINT('',#1370);
#394=VERTEX_POINT('',#1374);
#395=VERTEX_POINT('',#1375);
#396=VERTEX_POINT('',#1377);
#397=VERTEX_POINT('',#1379);
#398=VERTEX_POINT('',#1384);
#399=VERTEX_POINT('',#1386);
#400=VERTEX_POINT('',#1395);
#401=VERTEX_POINT('',#1397);
#402=VERTEX_POINT('',#1405);
#403=VERTEX_POINT('',#1406);
#404=VERTEX_POINT('',#1408);
#405=VERTEX_POINT('',#1410);
#406=VERTEX_POINT('',#1414);
#407=VERTEX_POINT('',#1415);
#408=VERTEX_POINT('',#1417);
#409=VERTEX_POINT('',#1419);
#410=VERTEX_POINT('',#1424);
#411=VERTEX_POINT('',#1426);
#412=VERTEX_POINT('',#1435);
#413=VERTEX_POINT('',#1437);
#414=VERTEX_POINT('',#1445);
#415=VERTEX_POINT('',#1446);
#416=VERTEX_POINT('',#1448);
#417=VERTEX_POINT('',#1450);
#418=VERTEX_POINT('',#1454);
#419=VERTEX_POINT('',#1455);
#420=VERTEX_POINT('',#1457);
#421=VERTEX_POINT('',#1459);
#422=VERTEX_POINT('',#1464);
#423=VERTEX_POINT('',#1466);
#424=VERTEX_POINT('',#1475);
#425=VERTEX_POINT('',#1477);
#426=VERTEX_POINT('',#1485);
#427=VERTEX_POINT('',#1489);
#428=EDGE_CURVE('',#343,#344,#137,.T.);
#429=EDGE_CURVE('',#345,#344,#112,.T.);
#430=EDGE_CURVE('',#345,#346,#138,.T.);
#431=EDGE_CURVE('',#343,#346,#139,.T.);
#432=EDGE_CURVE('',#347,#348,#140,.T.);
#433=EDGE_CURVE('',#349,#347,#141,.T.);
#434=EDGE_CURVE('',#350,#349,#142,.T.);
#435=EDGE_CURVE('',#348,#350,#113,.T.);
#436=EDGE_CURVE('',#347,#343,#143,.T.);
#437=EDGE_CURVE('',#351,#346,#144,.T.);
#438=EDGE_CURVE('',#351,#352,#145,.T.);
#439=EDGE_CURVE('',#352,#353,#146,.T.);
#440=EDGE_CURVE('',#354,#353,#147,.T.);
#441=EDGE_CURVE('',#349,#354,#148,.T.);
#442=EDGE_CURVE('',#344,#348,#149,.T.);
#443=EDGE_CURVE('',#355,#354,#150,.T.);
#444=EDGE_CURVE('',#350,#355,#151,.T.);
#445=EDGE_CURVE('',#352,#356,#152,.T.);
#446=EDGE_CURVE('',#357,#351,#153,.T.);
#447=EDGE_CURVE('',#356,#357,#114,.T.);
#448=EDGE_CURVE('',#358,#356,#154,.T.);
#449=EDGE_CURVE('',#353,#358,#155,.T.);
#450=EDGE_CURVE('',#357,#345,#156,.T.);
#451=EDGE_CURVE('',#359,#358,#115,.T.);
#452=EDGE_CURVE('',#360,#359,#116,.T.);
#453=EDGE_CURVE('',#360,#361,#157,.T.);
#454=EDGE_CURVE('',#361,#362,#158,.T.);
#455=EDGE_CURVE('',#362,#363,#159,.T.);
#456=EDGE_CURVE('',#364,#363,#117,.T.);
#457=EDGE_CURVE('',#364,#365,#160,.T.);
#458=EDGE_CURVE('',#365,#366,#161,.T.);
#459=EDGE_CURVE('',#366,#367,#162,.T.);
#460=EDGE_CURVE('',#368,#367,#118,.T.);
#461=EDGE_CURVE('',#368,#369,#163,.T.);
#462=EDGE_CURVE('',#369,#370,#164,.T.);
#463=EDGE_CURVE('',#370,#371,#165,.T.);
#464=EDGE_CURVE('',#372,#371,#119,.T.);
#465=EDGE_CURVE('',#372,#373,#166,.T.);
#466=EDGE_CURVE('',#373,#374,#167,.T.);
#467=EDGE_CURVE('',#374,#375,#168,.T.);
#468=EDGE_CURVE('',#355,#375,#120,.T.);
#469=EDGE_CURVE('',#376,#376,#121,.T.);
#470=EDGE_CURVE('',#376,#377,#169,.T.);
#471=EDGE_CURVE('',#377,#377,#122,.T.);
#472=EDGE_CURVE('',#378,#379,#170,.T.);
#473=EDGE_CURVE('',#380,#379,#123,.T.);
#474=EDGE_CURVE('',#380,#381,#171,.T.);
#475=EDGE_CURVE('',#378,#381,#172,.T.);
#476=EDGE_CURVE('',#382,#383,#173,.T.);
#477=EDGE_CURVE('',#384,#382,#174,.T.);
#478=EDGE_CURVE('',#385,#384,#175,.T.);
#479=EDGE_CURVE('',#383,#385,#124,.T.);
#480=EDGE_CURVE('',#382,#378,#176,.T.);
#481=EDGE_CURVE('',#386,#381,#177,.T.);
#482=EDGE_CURVE('',#386,#387,#178,.T.);
#483=EDGE_CURVE('',#387,#362,#179,.T.);
#484=EDGE_CURVE('',#384,#361,#180,.T.);
#485=EDGE_CURVE('',#379,#383,#181,.T.);
#486=EDGE_CURVE('',#385,#360,#182,.T.);
#487=EDGE_CURVE('',#387,#388,#183,.T.);
#488=EDGE_CURVE('',#389,#386,#184,.T.);
#489=EDGE_CURVE('',#388,#389,#125,.T.);
#490=EDGE_CURVE('',#363,#388,#185,.T.);
#491=EDGE_CURVE('',#389,#380,#186,.T.);
#492=EDGE_CURVE('',#390,#391,#187,.T.);
#493=EDGE_CURVE('',#392,#391,#126,.T.);
#494=EDGE_CURVE('',#392,#393,#188,.T.);
#495=EDGE_CURVE('',#390,#393,#189,.T.);
#496=EDGE_CURVE('',#394,#395,#190,.T.);
#497=EDGE_CURVE('',#396,#394,#191,.T.);
#498=EDGE_CURVE('',#397,#396,#192,.T.);
#499=EDGE_CURVE('',#395,#397,#127,.T.);
#500=EDGE_CURVE('',#394,#390,#193,.T.);
#501=EDGE_CURVE('',#398,#393,#194,.T.);
#502=EDGE_CURVE('',#398,#399,#195,.T.);
#503=EDGE_CURVE('',#399,#366,#196,.T.);
#504=EDGE_CURVE('',#396,#365,#197,.T.);
#505=EDGE_CURVE('',#391,#395,#198,.T.);
#506=EDGE_CURVE('',#397,#364,#199,.T.);
#507=EDGE_CURVE('',#399,#400,#200,.T.);
#508=EDGE_CURVE('',#401,#398,#201,.T.);
#509=EDGE_CURVE('',#400,#401,#128,.T.);
#510=EDGE_CURVE('',#367,#400,#202,.T.);
#511=EDGE_CURVE('',#401,#392,#203,.T.);
#512=EDGE_CURVE('',#402,#403,#204,.T.);
#513=EDGE_CURVE('',#404,#403,#129,.T.);
#514=EDGE_CURVE('',#404,#405,#205,.T.);
#515=EDGE_CURVE('',#402,#405,#206,.T.);
#516=EDGE_CURVE('',#406,#407,#207,.T.);
#517=EDGE_CURVE('',#408,#406,#208,.T.);
#518=EDGE_CURVE('',#409,#408,#209,.T.);
#519=EDGE_CURVE('',#407,#409,#130,.T.);
#520=EDGE_CURVE('',#406,#402,#210,.T.);
#521=EDGE_CURVE('',#410,#405,#211,.T.);
#522=EDGE_CURVE('',#410,#411,#212,.T.);
#523=EDGE_CURVE('',#411,#370,#213,.T.);
#524=EDGE_CURVE('',#408,#369,#214,.T.);
#525=EDGE_CURVE('',#403,#407,#215,.T.);
#526=EDGE_CURVE('',#409,#368,#216,.T.);
#527=EDGE_CURVE('',#411,#412,#217,.T.);
#528=EDGE_CURVE('',#413,#410,#218,.T.);
#529=EDGE_CURVE('',#412,#413,#131,.T.);
#530=EDGE_CURVE('',#371,#412,#219,.T.);
#531=EDGE_CURVE('',#413,#404,#220,.T.);
#532=EDGE_CURVE('',#414,#415,#221,.T.);
#533=EDGE_CURVE('',#416,#415,#132,.T.);
#534=EDGE_CURVE('',#416,#417,#222,.T.);
#535=EDGE_CURVE('',#414,#417,#223,.T.);
#536=EDGE_CURVE('',#418,#419,#224,.T.);
#537=EDGE_CURVE('',#420,#418,#225,.T.);
#538=EDGE_CURVE('',#421,#420,#226,.T.);
#539=EDGE_CURVE('',#419,#421,#133,.T.);
#540=EDGE_CURVE('',#418,#414,#227,.T.);
#541=EDGE_CURVE('',#422,#417,#228,.T.);
#542=EDGE_CURVE('',#422,#423,#229,.T.);
#543=EDGE_CURVE('',#423,#374,#230,.T.);
#544=EDGE_CURVE('',#420,#373,#231,.T.);
#545=EDGE_CURVE('',#415,#419,#232,.T.);
#546=EDGE_CURVE('',#421,#372,#233,.T.);
#547=EDGE_CURVE('',#423,#424,#234,.T.);
#548=EDGE_CURVE('',#425,#422,#235,.T.);
#549=EDGE_CURVE('',#424,#425,#134,.T.);
#550=EDGE_CURVE('',#375,#424,#236,.T.);
#551=EDGE_CURVE('',#425,#416,#237,.T.);
#552=EDGE_CURVE('',#377,#426,#238,.T.);
#553=EDGE_CURVE('',#426,#426,#135,.T.);
#554=EDGE_CURVE('',#427,#427,#136,.T.);
#555=EDGE_CURVE('',#427,#359,#239,.T.);
#556=ORIENTED_EDGE('',*,*,#428,.T.);
#557=ORIENTED_EDGE('',*,*,#429,.F.);
#558=ORIENTED_EDGE('',*,*,#430,.T.);
#559=ORIENTED_EDGE('',*,*,#431,.F.);
#560=ORIENTED_EDGE('',*,*,#432,.F.);
#561=ORIENTED_EDGE('',*,*,#433,.F.);
#562=ORIENTED_EDGE('',*,*,#434,.F.);
#563=ORIENTED_EDGE('',*,*,#435,.F.);
#564=ORIENTED_EDGE('',*,*,#433,.T.);
#565=ORIENTED_EDGE('',*,*,#436,.T.);
#566=ORIENTED_EDGE('',*,*,#431,.T.);
#567=ORIENTED_EDGE('',*,*,#437,.F.);
#568=ORIENTED_EDGE('',*,*,#438,.T.);
#569=ORIENTED_EDGE('',*,*,#439,.T.);
#570=ORIENTED_EDGE('',*,*,#440,.F.);
#571=ORIENTED_EDGE('',*,*,#441,.F.);
#572=ORIENTED_EDGE('',*,*,#432,.T.);
#573=ORIENTED_EDGE('',*,*,#442,.F.);
#574=ORIENTED_EDGE('',*,*,#428,.F.);
#575=ORIENTED_EDGE('',*,*,#436,.F.);
#576=ORIENTED_EDGE('',*,*,#434,.T.);
#577=ORIENTED_EDGE('',*,*,#441,.T.);
#578=ORIENTED_EDGE('',*,*,#443,.F.);
#579=ORIENTED_EDGE('',*,*,#444,.F.);
#580=ORIENTED_EDGE('',*,*,#445,.F.);
#581=ORIENTED_EDGE('',*,*,#438,.F.);
#582=ORIENTED_EDGE('',*,*,#446,.F.);
#583=ORIENTED_EDGE('',*,*,#447,.F.);
#584=ORIENTED_EDGE('',*,*,#445,.T.);
#585=ORIENTED_EDGE('',*,*,#448,.F.);
#586=ORIENTED_EDGE('',*,*,#449,.F.);
#587=ORIENTED_EDGE('',*,*,#439,.F.);
#588=ORIENTED_EDGE('',*,*,#446,.T.);
#589=ORIENTED_EDGE('',*,*,#437,.T.);
#590=ORIENTED_EDGE('',*,*,#430,.F.);
#591=ORIENTED_EDGE('',*,*,#450,.F.);
#592=ORIENTED_EDGE('',*,*,#443,.T.);
#593=ORIENTED_EDGE('',*,*,#440,.T.);
#594=ORIENTED_EDGE('',*,*,#449,.T.);
#595=ORIENTED_EDGE('',*,*,#451,.F.);
#596=ORIENTED_EDGE('',*,*,#452,.F.);
#597=ORIENTED_EDGE('',*,*,#453,.T.);
#598=ORIENTED_EDGE('',*,*,#454,.T.);
#599=ORIENTED_EDGE('',*,*,#455,.T.);
#600=ORIENTED_EDGE('',*,*,#456,.F.);
#601=ORIENTED_EDGE('',*,*,#457,.T.);
#602=ORIENTED_EDGE('',*,*,#458,.T.);
#603=ORIENTED_EDGE('',*,*,#459,.T.);
#604=ORIENTED_EDGE('',*,*,#460,.F.);
#605=ORIENTED_EDGE('',*,*,#461,.T.);
#606=ORIENTED_EDGE('',*,*,#462,.T.);
#607=ORIENTED_EDGE('',*,*,#463,.T.);
#608=ORIENTED_EDGE('',*,*,#464,.F.);
#609=ORIENTED_EDGE('',*,*,#465,.T.);
#610=ORIENTED_EDGE('',*,*,#466,.T.);
#611=ORIENTED_EDGE('',*,*,#467,.T.);
#612=ORIENTED_EDGE('',*,*,#468,.F.);
#613=ORIENTED_EDGE('',*,*,#469,.F.);
#614=ORIENTED_EDGE('',*,*,#469,.T.);
#615=ORIENTED_EDGE('',*,*,#470,.T.);
#616=ORIENTED_EDGE('',*,*,#471,.T.);
#617=ORIENTED_EDGE('',*,*,#470,.F.);
#618=ORIENTED_EDGE('',*,*,#472,.T.);
#619=ORIENTED_EDGE('',*,*,#473,.F.);
#620=ORIENTED_EDGE('',*,*,#474,.T.);
#621=ORIENTED_EDGE('',*,*,#475,.F.);
#622=ORIENTED_EDGE('',*,*,#476,.F.);
#623=ORIENTED_EDGE('',*,*,#477,.F.);
#624=ORIENTED_EDGE('',*,*,#478,.F.);
#625=ORIENTED_EDGE('',*,*,#479,.F.);
#626=ORIENTED_EDGE('',*,*,#477,.T.);
#627=ORIENTED_EDGE('',*,*,#480,.T.);
#628=ORIENTED_EDGE('',*,*,#475,.T.);
#629=ORIENTED_EDGE('',*,*,#481,.F.);
#630=ORIENTED_EDGE('',*,*,#482,.T.);
#631=ORIENTED_EDGE('',*,*,#483,.T.);
#632=ORIENTED_EDGE('',*,*,#454,.F.);
#633=ORIENTED_EDGE('',*,*,#484,.F.);
#634=ORIENTED_EDGE('',*,*,#476,.T.);
#635=ORIENTED_EDGE('',*,*,#485,.F.);
#636=ORIENTED_EDGE('',*,*,#472,.F.);
#637=ORIENTED_EDGE('',*,*,#480,.F.);
#638=ORIENTED_EDGE('',*,*,#478,.T.);
#639=ORIENTED_EDGE('',*,*,#484,.T.);
#640=ORIENTED_EDGE('',*,*,#453,.F.);
#641=ORIENTED_EDGE('',*,*,#486,.F.);
#642=ORIENTED_EDGE('',*,*,#487,.F.);
#643=ORIENTED_EDGE('',*,*,#482,.F.);
#644=ORIENTED_EDGE('',*,*,#488,.F.);
#645=ORIENTED_EDGE('',*,*,#489,.F.);
#646=ORIENTED_EDGE('',*,*,#487,.T.);
#647=ORIENTED_EDGE('',*,*,#490,.F.);
#648=ORIENTED_EDGE('',*,*,#455,.F.);
#649=ORIENTED_EDGE('',*,*,#483,.F.);
#650=ORIENTED_EDGE('',*,*,#488,.T.);
#651=ORIENTED_EDGE('',*,*,#481,.T.);
#652=ORIENTED_EDGE('',*,*,#474,.F.);
#653=ORIENTED_EDGE('',*,*,#491,.F.);
#654=ORIENTED_EDGE('',*,*,#492,.T.);
#655=ORIENTED_EDGE('',*,*,#493,.F.);
#656=ORIENTED_EDGE('',*,*,#494,.T.);
#657=ORIENTED_EDGE('',*,*,#495,.F.);
#658=ORIENTED_EDGE('',*,*,#496,.F.);
#659=ORIENTED_EDGE('',*,*,#497,.F.);
#660=ORIENTED_EDGE('',*,*,#498,.F.);
#661=ORIENTED_EDGE('',*,*,#499,.F.);
#662=ORIENTED_EDGE('',*,*,#497,.T.);
#663=ORIENTED_EDGE('',*,*,#500,.T.);
#664=ORIENTED_EDGE('',*,*,#495,.T.);
#665=ORIENTED_EDGE('',*,*,#501,.F.);
#666=ORIENTED_EDGE('',*,*,#502,.T.);
#667=ORIENTED_EDGE('',*,*,#503,.T.);
#668=ORIENTED_EDGE('',*,*,#458,.F.);
#669=ORIENTED_EDGE('',*,*,#504,.F.);
#670=ORIENTED_EDGE('',*,*,#496,.T.);
#671=ORIENTED_EDGE('',*,*,#505,.F.);
#672=ORIENTED_EDGE('',*,*,#492,.F.);
#673=ORIENTED_EDGE('',*,*,#500,.F.);
#674=ORIENTED_EDGE('',*,*,#498,.T.);
#675=ORIENTED_EDGE('',*,*,#504,.T.);
#676=ORIENTED_EDGE('',*,*,#457,.F.);
#677=ORIENTED_EDGE('',*,*,#506,.F.);
#678=ORIENTED_EDGE('',*,*,#507,.F.);
#679=ORIENTED_EDGE('',*,*,#502,.F.);
#680=ORIENTED_EDGE('',*,*,#508,.F.);
#681=ORIENTED_EDGE('',*,*,#509,.F.);
#682=ORIENTED_EDGE('',*,*,#507,.T.);
#683=ORIENTED_EDGE('',*,*,#510,.F.);
#684=ORIENTED_EDGE('',*,*,#459,.F.);
#685=ORIENTED_EDGE('',*,*,#503,.F.);
#686=ORIENTED_EDGE('',*,*,#508,.T.);
#687=ORIENTED_EDGE('',*,*,#501,.T.);
#688=ORIENTED_EDGE('',*,*,#494,.F.);
#689=ORIENTED_EDGE('',*,*,#511,.F.);
#690=ORIENTED_EDGE('',*,*,#512,.T.);
#691=ORIENTED_EDGE('',*,*,#513,.F.);
#692=ORIENTED_EDGE('',*,*,#514,.T.);
#693=ORIENTED_EDGE('',*,*,#515,.F.);
#694=ORIENTED_EDGE('',*,*,#516,.F.);
#695=ORIENTED_EDGE('',*,*,#517,.F.);
#696=ORIENTED_EDGE('',*,*,#518,.F.);
#697=ORIENTED_EDGE('',*,*,#519,.F.);
#698=ORIENTED_EDGE('',*,*,#517,.T.);
#699=ORIENTED_EDGE('',*,*,#520,.T.);
#700=ORIENTED_EDGE('',*,*,#515,.T.);
#701=ORIENTED_EDGE('',*,*,#521,.F.);
#702=ORIENTED_EDGE('',*,*,#522,.T.);
#703=ORIENTED_EDGE('',*,*,#523,.T.);
#704=ORIENTED_EDGE('',*,*,#462,.F.);
#705=ORIENTED_EDGE('',*,*,#524,.F.);
#706=ORIENTED_EDGE('',*,*,#516,.T.);
#707=ORIENTED_EDGE('',*,*,#525,.F.);
#708=ORIENTED_EDGE('',*,*,#512,.F.);
#709=ORIENTED_EDGE('',*,*,#520,.F.);
#710=ORIENTED_EDGE('',*,*,#518,.T.);
#711=ORIENTED_EDGE('',*,*,#524,.T.);
#712=ORIENTED_EDGE('',*,*,#461,.F.);
#713=ORIENTED_EDGE('',*,*,#526,.F.);
#714=ORIENTED_EDGE('',*,*,#527,.F.);
#715=ORIENTED_EDGE('',*,*,#522,.F.);
#716=ORIENTED_EDGE('',*,*,#528,.F.);
#717=ORIENTED_EDGE('',*,*,#529,.F.);
#718=ORIENTED_EDGE('',*,*,#527,.T.);
#719=ORIENTED_EDGE('',*,*,#530,.F.);
#720=ORIENTED_EDGE('',*,*,#463,.F.);
#721=ORIENTED_EDGE('',*,*,#523,.F.);
#722=ORIENTED_EDGE('',*,*,#528,.T.);
#723=ORIENTED_EDGE('',*,*,#521,.T.);
#724=ORIENTED_EDGE('',*,*,#514,.F.);
#725=ORIENTED_EDGE('',*,*,#531,.F.);
#726=ORIENTED_EDGE('',*,*,#532,.T.);
#727=ORIENTED_EDGE('',*,*,#533,.F.);
#728=ORIENTED_EDGE('',*,*,#534,.T.);
#729=ORIENTED_EDGE('',*,*,#535,.F.);
#730=ORIENTED_EDGE('',*,*,#536,.F.);
#731=ORIENTED_EDGE('',*,*,#537,.F.);
#732=ORIENTED_EDGE('',*,*,#538,.F.);
#733=ORIENTED_EDGE('',*,*,#539,.F.);
#734=ORIENTED_EDGE('',*,*,#537,.T.);
#735=ORIENTED_EDGE('',*,*,#540,.T.);
#736=ORIENTED_EDGE('',*,*,#535,.T.);
#737=ORIENTED_EDGE('',*,*,#541,.F.);
#738=ORIENTED_EDGE('',*,*,#542,.T.);
#739=ORIENTED_EDGE('',*,*,#543,.T.);
#740=ORIENTED_EDGE('',*,*,#466,.F.);
#741=ORIENTED_EDGE('',*,*,#544,.F.);
#742=ORIENTED_EDGE('',*,*,#536,.T.);
#743=ORIENTED_EDGE('',*,*,#545,.F.);
#744=ORIENTED_EDGE('',*,*,#532,.F.);
#745=ORIENTED_EDGE('',*,*,#540,.F.);
#746=ORIENTED_EDGE('',*,*,#538,.T.);
#747=ORIENTED_EDGE('',*,*,#544,.T.);
#748=ORIENTED_EDGE('',*,*,#465,.F.);
#749=ORIENTED_EDGE('',*,*,#546,.F.);
#750=ORIENTED_EDGE('',*,*,#547,.F.);
#751=ORIENTED_EDGE('',*,*,#542,.F.);
#752=ORIENTED_EDGE('',*,*,#548,.F.);
#753=ORIENTED_EDGE('',*,*,#549,.F.);
#754=ORIENTED_EDGE('',*,*,#547,.T.);
#755=ORIENTED_EDGE('',*,*,#550,.F.);
#756=ORIENTED_EDGE('',*,*,#467,.F.);
#757=ORIENTED_EDGE('',*,*,#543,.F.);
#758=ORIENTED_EDGE('',*,*,#548,.T.);
#759=ORIENTED_EDGE('',*,*,#541,.T.);
#760=ORIENTED_EDGE('',*,*,#534,.F.);
#761=ORIENTED_EDGE('',*,*,#551,.F.);
#762=ORIENTED_EDGE('',*,*,#471,.F.);
#763=ORIENTED_EDGE('',*,*,#552,.T.);
#764=ORIENTED_EDGE('',*,*,#553,.T.);
#765=ORIENTED_EDGE('',*,*,#552,.F.);
#766=ORIENTED_EDGE('',*,*,#554,.F.);
#767=ORIENTED_EDGE('',*,*,#555,.T.);
#768=ORIENTED_EDGE('',*,*,#451,.T.);
#769=ORIENTED_EDGE('',*,*,#448,.T.);
#770=ORIENTED_EDGE('',*,*,#447,.T.);
#771=ORIENTED_EDGE('',*,*,#450,.T.);
#772=ORIENTED_EDGE('',*,*,#429,.T.);
#773=ORIENTED_EDGE('',*,*,#442,.T.);
#774=ORIENTED_EDGE('',*,*,#435,.T.);
#775=ORIENTED_EDGE('',*,*,#444,.T.);
#776=ORIENTED_EDGE('',*,*,#468,.T.);
#777=ORIENTED_EDGE('',*,*,#550,.T.);
#778=ORIENTED_EDGE('',*,*,#549,.T.);
#779=ORIENTED_EDGE('',*,*,#551,.T.);
#780=ORIENTED_EDGE('',*,*,#533,.T.);
#781=ORIENTED_EDGE('',*,*,#545,.T.);
#782=ORIENTED_EDGE('',*,*,#539,.T.);
#783=ORIENTED_EDGE('',*,*,#546,.T.);
#784=ORIENTED_EDGE('',*,*,#464,.T.);
#785=ORIENTED_EDGE('',*,*,#530,.T.);
#786=ORIENTED_EDGE('',*,*,#529,.T.);
#787=ORIENTED_EDGE('',*,*,#531,.T.);
#788=ORIENTED_EDGE('',*,*,#513,.T.);
#789=ORIENTED_EDGE('',*,*,#525,.T.);
#790=ORIENTED_EDGE('',*,*,#519,.T.);
#791=ORIENTED_EDGE('',*,*,#526,.T.);
#792=ORIENTED_EDGE('',*,*,#460,.T.);
#793=ORIENTED_EDGE('',*,*,#510,.T.);
#794=ORIENTED_EDGE('',*,*,#509,.T.);
#795=ORIENTED_EDGE('',*,*,#511,.T.);
#796=ORIENTED_EDGE('',*,*,#493,.T.);
#797=ORIENTED_EDGE('',*,*,#505,.T.);
#798=ORIENTED_EDGE('',*,*,#499,.T.);
#799=ORIENTED_EDGE('',*,*,#506,.T.);
#800=ORIENTED_EDGE('',*,*,#456,.T.);
#801=ORIENTED_EDGE('',*,*,#490,.T.);
#802=ORIENTED_EDGE('',*,*,#489,.T.);
#803=ORIENTED_EDGE('',*,*,#491,.T.);
#804=ORIENTED_EDGE('',*,*,#473,.T.);
#805=ORIENTED_EDGE('',*,*,#485,.T.);
#806=ORIENTED_EDGE('',*,*,#479,.T.);
#807=ORIENTED_EDGE('',*,*,#486,.T.);
#808=ORIENTED_EDGE('',*,*,#452,.T.);
#809=ORIENTED_EDGE('',*,*,#555,.F.);
#810=ORIENTED_EDGE('',*,*,#553,.F.);
#811=ORIENTED_EDGE('',*,*,#554,.T.);
#812=PLANE('',#915);
#813=PLANE('',#917);
#814=PLANE('',#919);
#815=PLANE('',#920);
#816=PLANE('',#921);
#817=PLANE('',#922);
#818=PLANE('',#924);
#819=PLANE('',#925);
#820=PLANE('',#926);
#821=PLANE('',#933);
#822=PLANE('',#937);
#823=PLANE('',#939);
#824=PLANE('',#941);
#825=PLANE('',#942);
#826=PLANE('',#943);
#827=PLANE('',#944);
#828=PLANE('',#946);
#829=PLANE('',#947);
#830=PLANE('',#948);
#831=PLANE('',#950);
#832=PLANE('',#952);
#833=PLANE('',#953);
#834=PLANE('',#954);
#835=PLANE('',#955);
#836=PLANE('',#957);
#837=PLANE('',#958);
#838=PLANE('',#959);
#839=PLANE('',#961);
#840=PLANE('',#963);
#841=PLANE('',#964);
#842=PLANE('',#965);
#843=PLANE('',#966);
#844=PLANE('',#968);
#845=PLANE('',#969);
#846=PLANE('',#970);
#847=PLANE('',#972);
#848=PLANE('',#974);
#849=PLANE('',#975);
#850=PLANE('',#976);
#851=PLANE('',#977);
#852=PLANE('',#979);
#853=PLANE('',#980);
#854=PLANE('',#985);
#855=ADVANCED_FACE('',(#19),#812,.F.);
#856=ADVANCED_FACE('',(#20),#813,.F.);
#857=ADVANCED_FACE('',(#21),#814,.T.);
#858=ADVANCED_FACE('',(#22),#815,.T.);
#859=ADVANCED_FACE('',(#23),#816,.T.);
#860=ADVANCED_FACE('',(#24),#817,.F.);
#861=ADVANCED_FACE('',(#25),#818,.T.);
#862=ADVANCED_FACE('',(#26),#819,.T.);
#863=ADVANCED_FACE('',(#27),#820,.F.);
#864=ADVANCED_FACE('',(#28),#821,.T.);
#865=ADVANCED_FACE('',(#29),#18,.T.);
#866=ADVANCED_FACE('',(#30),#822,.F.);
#867=ADVANCED_FACE('',(#31),#823,.F.);
#868=ADVANCED_FACE('',(#32),#824,.T.);
#869=ADVANCED_FACE('',(#33),#825,.T.);
#870=ADVANCED_FACE('',(#34),#826,.T.);
#871=ADVANCED_FACE('',(#35),#827,.F.);
#872=ADVANCED_FACE('',(#36),#828,.T.);
#873=ADVANCED_FACE('',(#37),#829,.T.);
#874=ADVANCED_FACE('',(#38),#830,.F.);
#875=ADVANCED_FACE('',(#39),#831,.F.);
#876=ADVANCED_FACE('',(#40),#832,.T.);
#877=ADVANCED_FACE('',(#41),#833,.T.);
#878=ADVANCED_FACE('',(#42),#834,.T.);
#879=ADVANCED_FACE('',(#43),#835,.F.);
#880=ADVANCED_FACE('',(#44),#836,.T.);
#881=ADVANCED_FACE('',(#45),#837,.T.);
#882=ADVANCED_FACE('',(#46),#838,.F.);
#883=ADVANCED_FACE('',(#47),#839,.F.);
#884=ADVANCED_FACE('',(#48),#840,.T.);
#885=ADVANCED_FACE('',(#49),#841,.T.);
#886=ADVANCED_FACE('',(#50),#842,.T.);
#887=ADVANCED_FACE('',(#51),#843,.F.);
#888=ADVANCED_FACE('',(#52),#844,.T.);
#889=ADVANCED_FACE('',(#53),#845,.T.);
#890=ADVANCED_FACE('',(#54),#846,.F.);
#891=ADVANCED_FACE('',(#55),#847,.F.);
#892=ADVANCED_FACE('',(#56),#848,.T.);
#893=ADVANCED_FACE('',(#57),#849,.T.);
#894=ADVANCED_FACE('',(#58),#850,.T.);
#895=ADVANCED_FACE('',(#59),#851,.F.);
#896=ADVANCED_FACE('',(#60),#852,.T.);
#897=ADVANCED_FACE('',(#61),#853,.T.);
#898=ADVANCED_FACE('',(#62),#16,.T.);
#899=ADVANCED_FACE('',(#63),#17,.F.);
#900=ADVANCED_FACE('',(#64,#15),#854,.F.);
#901=CLOSED_SHELL('',(#855,#856,#857,#858,#859,#860,#861,#862,#863,#864,
#865,#866,#867,#868,#869,#870,#871,#872,#873,#874,#875,#876,#877,#878,#879,
#880,#881,#882,#883,#884,#885,#886,#887,#888,#889,#890,#891,#892,#893,#894,
#895,#896,#897,#898,#899,#900));
#902=DERIVED_UNIT_ELEMENT(#904,1.);
#903=DERIVED_UNIT_ELEMENT(#1498,-3.);
#904=(
MASS_UNIT()
NAMED_UNIT(*)
SI_UNIT(.KILO.,.GRAM.)
);
#905=DERIVED_UNIT((#902,#903));
#906=MEASURE_REPRESENTATION_ITEM('density measure',
POSITIVE_RATIO_MEASURE(7850.),#905);
#907=PROPERTY_DEFINITION_REPRESENTATION(#912,#909);
#908=PROPERTY_DEFINITION_REPRESENTATION(#913,#910);
#909=REPRESENTATION('material name',(#911),#1495);
#910=REPRESENTATION('density',(#906),#1495);
#911=DESCRIPTIVE_REPRESENTATION_ITEM('\X2\94A2\X0\','\X2\94A2\X0\');
#912=PROPERTY_DEFINITION('material property','material name',#1505);
#913=PROPERTY_DEFINITION('material property','density of part',#1505);
#914=AXIS2_PLACEMENT_3D('',#1233,#986,#987);
#915=AXIS2_PLACEMENT_3D('',#1234,#988,#989);
#916=AXIS2_PLACEMENT_3D('',#1239,#991,#992);
#917=AXIS2_PLACEMENT_3D('',#1243,#995,#996);
#918=AXIS2_PLACEMENT_3D('',#1251,#1000,#1001);
#919=AXIS2_PLACEMENT_3D('',#1252,#1002,#1003);
#920=AXIS2_PLACEMENT_3D('',#1263,#1010,#1011);
#921=AXIS2_PLACEMENT_3D('',#1265,#1013,#1014);
#922=AXIS2_PLACEMENT_3D('',#1269,#1017,#1018);
#923=AXIS2_PLACEMENT_3D('',#1274,#1021,#1022);
#924=AXIS2_PLACEMENT_3D('',#1275,#1023,#1024);
#925=AXIS2_PLACEMENT_3D('',#1279,#1027,#1028);
#926=AXIS2_PLACEMENT_3D('',#1281,#1030,#1031);
#927=AXIS2_PLACEMENT_3D('',#1283,#1032,#1033);
#928=AXIS2_PLACEMENT_3D('',#1285,#1034,#1035);
#929=AXIS2_PLACEMENT_3D('',#1293,#1039,#1040);
#930=AXIS2_PLACEMENT_3D('',#1301,#1044,#1045);
#931=AXIS2_PLACEMENT_3D('',#1309,#1049,#1050);
#932=AXIS2_PLACEMENT_3D('',#1316,#1054,#1055);
#933=AXIS2_PLACEMENT_3D('',#1317,#1056,#1057);
#934=AXIS2_PLACEMENT_3D('',#1319,#1058,#1059);
#935=AXIS2_PLACEMENT_3D('',#1320,#1060,#1061);
#936=AXIS2_PLACEMENT_3D('',#1323,#1063,#1064);
#937=AXIS2_PLACEMENT_3D('',#1324,#1065,#1066);
#938=AXIS2_PLACEMENT_3D('',#1329,#1068,#1069);
#939=AXIS2_PLACEMENT_3D('',#1333,#1072,#1073);
#940=AXIS2_PLACEMENT_3D('',#1341,#1077,#1078);
#941=AXIS2_PLACEMENT_3D('',#1342,#1079,#1080);
#942=AXIS2_PLACEMENT_3D('',#1350,#1086,#1087);
#943=AXIS2_PLACEMENT_3D('',#1352,#1089,#1090);
#944=AXIS2_PLACEMENT_3D('',#1354,#1092,#1093);
#945=AXIS2_PLACEMENT_3D('',#1359,#1096,#1097);
#946=AXIS2_PLACEMENT_3D('',#1360,#1098,#1099);
#947=AXIS2_PLACEMENT_3D('',#1362,#1101,#1102);
#948=AXIS2_PLACEMENT_3D('',#1364,#1104,#1105);
#949=AXIS2_PLACEMENT_3D('',#1369,#1107,#1108);
#950=AXIS2_PLACEMENT_3D('',#1373,#1111,#1112);
#951=AXIS2_PLACEMENT_3D('',#1381,#1116,#1117);
#952=AXIS2_PLACEMENT_3D('',#1382,#1118,#1119);
#953=AXIS2_PLACEMENT_3D('',#1390,#1125,#1126);
#954=AXIS2_PLACEMENT_3D('',#1392,#1128,#1129);
#955=AXIS2_PLACEMENT_3D('',#1394,#1131,#1132);
#956=AXIS2_PLACEMENT_3D('',#1399,#1135,#1136);
#957=AXIS2_PLACEMENT_3D('',#1400,#1137,#1138);
#958=AXIS2_PLACEMENT_3D('',#1402,#1140,#1141);
#959=AXIS2_PLACEMENT_3D('',#1404,#1143,#1144);
#960=AXIS2_PLACEMENT_3D('',#1409,#1146,#1147);
#961=AXIS2_PLACEMENT_3D('',#1413,#1150,#1151);
#962=AXIS2_PLACEMENT_3D('',#1421,#1155,#1156);
#963=AXIS2_PLACEMENT_3D('',#1422,#1157,#1158);
#964=AXIS2_PLACEMENT_3D('',#1430,#1164,#1165);
#965=AXIS2_PLACEMENT_3D('',#1432,#1167,#1168);
#966=AXIS2_PLACEMENT_3D('',#1434,#1170,#1171);
#967=AXIS2_PLACEMENT_3D('',#1439,#1174,#1175);
#968=AXIS2_PLACEMENT_3D('',#1440,#1176,#1177);
#969=AXIS2_PLACEMENT_3D('',#1442,#1179,#1180);
#970=AXIS2_PLACEMENT_3D('',#1444,#1182,#1183);
#971=AXIS2_PLACEMENT_3D('',#1449,#1185,#1186);
#972=AXIS2_PLACEMENT_3D('',#1453,#1189,#1190);
#973=AXIS2_PLACEMENT_3D('',#1461,#1194,#1195);
#974=AXIS2_PLACEMENT_3D('',#1462,#1196,#1197);
#975=AXIS2_PLACEMENT_3D('',#1470,#1203,#1204);
#976=AXIS2_PLACEMENT_3D('',#1472,#1206,#1207);
#977=AXIS2_PLACEMENT_3D('',#1474,#1209,#1210);
#978=AXIS2_PLACEMENT_3D('',#1479,#1213,#1214);
#979=AXIS2_PLACEMENT_3D('',#1480,#1215,#1216);
#980=AXIS2_PLACEMENT_3D('',#1482,#1218,#1219);
#981=AXIS2_PLACEMENT_3D('',#1484,#1221,#1222);
#982=AXIS2_PLACEMENT_3D('',#1487,#1224,#1225);
#983=AXIS2_PLACEMENT_3D('',#1488,#1226,#1227);
#984=AXIS2_PLACEMENT_3D('',#1490,#1228,#1229);
#985=AXIS2_PLACEMENT_3D('',#1492,#1231,#1232);
#986=DIRECTION('axis',(0.,0.,1.));
#987=DIRECTION('refdir',(1.,0.,0.));
#988=DIRECTION('center_axis',(0.,1.,0.));
#989=DIRECTION('ref_axis',(0.309016994374947,0.,0.951056516295154));
#990=DIRECTION('',(-0.951056516295154,0.,0.309016994374947));
#991=DIRECTION('center_axis',(0.,1.,0.));
#992=DIRECTION('ref_axis',(1.,0.,0.));
#993=DIRECTION('',(0.951056516295154,0.,-0.309016994374947));
#994=DIRECTION('',(-0.309016994374947,0.,-0.951056516295154));
#995=DIRECTION('center_axis',(0.,1.,0.));
#996=DIRECTION('ref_axis',(0.309016994374947,0.,0.951056516295154));
#997=DIRECTION('',(-0.951056516295154,0.,0.309016994374947));
#998=DIRECTION('',(-0.309016994374947,0.,-0.951056516295154));
#999=DIRECTION('',(0.951056516295154,0.,-0.309016994374947));
#1000=DIRECTION('center_axis',(0.,1.,0.));
#1001=DIRECTION('ref_axis',(1.,0.,0.));
#1002=DIRECTION('center_axis',(0.951056516295154,0.,-0.309016994374947));
#1003=DIRECTION('ref_axis',(-0.309016994374947,0.,-0.951056516295154));
#1004=DIRECTION('',(0.,1.,0.));
#1005=DIRECTION('',(0.,1.,0.));
#1006=DIRECTION('',(-0.309016994374947,0.,-0.951056516295154));
#1007=DIRECTION('',(0.,1.,0.));
#1008=DIRECTION('',(-0.309016994374947,0.,-0.951056516295154));
#1009=DIRECTION('',(0.,1.,0.));
#1010=DIRECTION('center_axis',(-0.309016994374947,0.,-0.951056516295154));
#1011=DIRECTION('ref_axis',(-0.951056516295154,0.,0.309016994374947));
#1012=DIRECTION('',(0.,-1.,0.));
#1013=DIRECTION('center_axis',(0.309016994374947,0.,0.951056516295154));
#1014=DIRECTION('ref_axis',(0.951056516295154,0.,-0.309016994374947));
#1015=DIRECTION('',(0.951056516295154,0.,-0.309016994374947));
#1016=DIRECTION('',(0.,1.,0.));
#1017=DIRECTION('center_axis',(0.,1.,0.));
#1018=DIRECTION('ref_axis',(0.309016994374947,0.,0.951056516295154));
#1019=DIRECTION('',(-0.951056516295154,0.,0.309016994374946));
#1020=DIRECTION('',(0.951056516295154,0.,-0.309016994374947));
#1021=DIRECTION('center_axis',(0.,1.,0.));
#1022=DIRECTION('ref_axis',(1.,0.,0.));
#1023=DIRECTION('center_axis',(-0.309016994374946,0.,-0.951056516295154));
#1024=DIRECTION('ref_axis',(-0.951056516295154,0.,0.309016994374946));
#1025=DIRECTION('',(0.,-1.,0.));
#1026=DIRECTION('',(-0.951056516295154,0.,0.309016994374946));
#1027=DIRECTION('center_axis',(0.309016994374947,0.,0.951056516295154));
#1028=DIRECTION('ref_axis',(0.951056516295154,0.,-0.309016994374947));
#1029=DIRECTION('',(0.,1.,0.));
#1030=DIRECTION('center_axis',(0.,1.,0.));
#1031=DIRECTION('ref_axis',(1.,0.,0.));
#1032=DIRECTION('center_axis',(0.,1.,0.));
#1033=DIRECTION('ref_axis',(1.,0.,0.));
#1034=DIRECTION('center_axis',(0.,1.,0.));
#1035=DIRECTION('ref_axis',(1.,0.,0.));
#1036=DIRECTION('',(0.587785252292473,0.,0.809016994374947));
#1037=DIRECTION('',(0.809016994374947,0.,-0.587785252292473));
#1038=DIRECTION('',(-0.587785252292472,0.,-0.809016994374948));
#1039=DIRECTION('center_axis',(0.,1.,0.));
#1040=DIRECTION('ref_axis',(1.,0.,0.));
#1041=DIRECTION('',(-0.587785252292473,0.,0.809016994374947));
#1042=DIRECTION('',(0.809016994374947,0.,0.587785252292473));
#1043=DIRECTION('',(0.587785252292474,0.,-0.809016994374947));
#1044=DIRECTION('center_axis',(0.,1.,0.));
#1045=DIRECTION('ref_axis',(1.,0.,0.));
#1046=DIRECTION('',(-0.951056516295154,0.,-0.309016994374948));
#1047=DIRECTION('',(-0.309016994374948,0.,0.951056516295154));
#1048=DIRECTION('',(0.951056516295153,0.,0.309016994374949));
#1049=DIRECTION('center_axis',(0.,1.,0.));
#1050=DIRECTION('ref_axis',(1.,0.,0.));
#1051=DIRECTION('',(0.,0.,-1.));
#1052=DIRECTION('',(-1.,0.,0.));
#1053=DIRECTION('',(-1.2339256201614E-15,0.,1.));
#1054=DIRECTION('center_axis',(0.,1.,0.));
#1055=DIRECTION('ref_axis',(1.,0.,0.));
#1056=DIRECTION('center_axis',(0.,1.,0.));
#1057=DIRECTION('ref_axis',(1.,0.,0.));
#1058=DIRECTION('center_axis',(0.,-1.,0.));
#1059=DIRECTION('ref_axis',(1.,0.,0.));
#1060=DIRECTION('center_axis',(0.,-1.,0.));
#1061=DIRECTION('ref_axis',(1.,0.,0.));
#1062=DIRECTION('',(-0.707106781186547,-0.707106781186547,8.65956056235493E-17));
#1063=DIRECTION('center_axis',(0.,1.,0.));
#1064=DIRECTION('ref_axis',(1.,0.,0.));
#1065=DIRECTION('center_axis',(0.,1.,0.));
#1066=DIRECTION('ref_axis',(-0.809016994374947,0.,0.587785252292473));
#1067=DIRECTION('',(-0.587785252292473,0.,-0.809016994374947));
#1068=DIRECTION('center_axis',(0.,1.,0.));
#1069=DIRECTION('ref_axis',(1.,0.,0.));
#1070=DIRECTION('',(0.587785252292473,0.,0.809016994374947));
#1071=DIRECTION('',(0.809016994374947,0.,-0.587785252292473));
#1072=DIRECTION('center_axis',(0.,1.,0.));
#1073=DIRECTION('ref_axis',(-0.809016994374947,0.,0.587785252292473));
#1074=DIRECTION('',(-0.587785252292473,0.,-0.809016994374947));
#1075=DIRECTION('',(0.809016994374947,0.,-0.587785252292473));
#1076=DIRECTION('',(0.587785252292473,0.,0.809016994374947));
#1077=DIRECTION('center_axis',(0.,1.,0.));
#1078=DIRECTION('ref_axis',(1.,0.,0.));
#1079=DIRECTION('center_axis',(0.587785252292473,0.,0.809016994374948));
#1080=DIRECTION('ref_axis',(0.809016994374947,0.,-0.587785252292473));
#1081=DIRECTION('',(0.,1.,0.));
#1082=DIRECTION('',(0.,1.,0.));
#1083=DIRECTION('',(0.809016994374947,0.,-0.587785252292473));
#1084=DIRECTION('',(0.,1.,0.));
#1085=DIRECTION('',(0.,1.,0.));
#1086=DIRECTION('center_axis',(0.809016994374948,0.,-0.587785252292473));
#1087=DIRECTION('ref_axis',(-0.587785252292473,0.,-0.809016994374947));
#1088=DIRECTION('',(0.,-1.,0.));
#1089=DIRECTION('center_axis',(-0.809016994374948,0.,0.587785252292473));
#1090=DIRECTION('ref_axis',(0.587785252292473,0.,0.809016994374947));
#1091=DIRECTION('',(0.,1.,0.));
#1092=DIRECTION('center_axis',(0.,1.,0.));
#1093=DIRECTION('ref_axis',(-0.809016994374947,0.,0.587785252292473));
#1094=DIRECTION('',(-0.587785252292472,0.,-0.809016994374948));
#1095=DIRECTION('',(0.587785252292473,0.,0.809016994374947));
#1096=DIRECTION('center_axis',(0.,1.,0.));
#1097=DIRECTION('ref_axis',(1.,0.,0.));
#1098=DIRECTION('center_axis',(0.809016994374948,0.,-0.587785252292472));
#1099=DIRECTION('ref_axis',(-0.587785252292472,0.,-0.809016994374948));
#1100=DIRECTION('',(0.,-1.,0.));
#1101=DIRECTION('center_axis',(-0.809016994374948,0.,0.587785252292473));
#1102=DIRECTION('ref_axis',(0.587785252292473,0.,0.809016994374947));
#1103=DIRECTION('',(0.,1.,0.));
#1104=DIRECTION('center_axis',(0.,1.,0.));
#1105=DIRECTION('ref_axis',(-0.809016994374947,0.,-0.587785252292473));
#1106=DIRECTION('',(0.587785252292473,0.,-0.809016994374947));
#1107=DIRECTION('center_axis',(0.,1.,0.));
#1108=DIRECTION('ref_axis',(1.,0.,0.));
#1109=DIRECTION('',(-0.587785252292473,0.,0.809016994374947));
#1110=DIRECTION('',(0.809016994374947,0.,0.587785252292473));
#1111=DIRECTION('center_axis',(0.,1.,0.));
#1112=DIRECTION('ref_axis',(-0.809016994374947,0.,-0.587785252292473));
#1113=DIRECTION('',(0.587785252292473,0.,-0.809016994374947));
#1114=DIRECTION('',(0.809016994374947,0.,0.587785252292473));
#1115=DIRECTION('',(-0.587785252292473,0.,0.809016994374947));
#1116=DIRECTION('center_axis',(0.,1.,0.));
#1117=DIRECTION('ref_axis',(1.,0.,0.));
#1118=DIRECTION('center_axis',(-0.587785252292473,0.,0.809016994374947));
#1119=DIRECTION('ref_axis',(0.809016994374947,0.,0.587785252292473));
#1120=DIRECTION('',(0.,1.,0.));
#1121=DIRECTION('',(0.,1.,0.));
#1122=DIRECTION('',(0.809016994374947,0.,0.587785252292473));
#1123=DIRECTION('',(0.,1.,0.));
#1124=DIRECTION('',(0.,1.,0.));
#1125=DIRECTION('center_axis',(0.809016994374947,0.,0.587785252292473));
#1126=DIRECTION('ref_axis',(0.587785252292473,0.,-0.809016994374947));
#1127=DIRECTION('',(0.,-1.,0.));
#1128=DIRECTION('center_axis',(-0.809016994374947,0.,-0.587785252292473));
#1129=DIRECTION('ref_axis',(-0.587785252292473,0.,0.809016994374947));
#1130=DIRECTION('',(0.,1.,0.));
#1131=DIRECTION('center_axis',(0.,1.,0.));
#1132=DIRECTION('ref_axis',(-0.809016994374947,0.,-0.587785252292473));
#1133=DIRECTION('',(0.587785252292474,0.,-0.809016994374947));
#1134=DIRECTION('',(-0.587785252292473,0.,0.809016994374947));
#1135=DIRECTION('center_axis',(0.,1.,0.));
#1136=DIRECTION('ref_axis',(1.,0.,0.));
#1137=DIRECTION('center_axis',(0.809016994374947,0.,0.587785252292474));
#1138=DIRECTION('ref_axis',(0.587785252292474,0.,-0.809016994374947));
#1139=DIRECTION('',(0.,-1.,0.));
#1140=DIRECTION('center_axis',(-0.809016994374947,0.,-0.587785252292473));
#1141=DIRECTION('ref_axis',(-0.587785252292473,0.,0.809016994374947));
#1142=DIRECTION('',(0.,1.,0.));
#1143=DIRECTION('center_axis',(0.,1.,0.));
#1144=DIRECTION('ref_axis',(0.309016994374948,0.,-0.951056516295154));
#1145=DIRECTION('',(0.951056516295154,0.,0.309016994374948));
#1146=DIRECTION('center_axis',(0.,1.,0.));
#1147=DIRECTION('ref_axis',(1.,0.,0.));
#1148=DIRECTION('',(-0.951056516295154,0.,-0.309016994374948));
#1149=DIRECTION('',(-0.309016994374948,0.,0.951056516295154));
#1150=DIRECTION('center_axis',(0.,1.,0.));
#1151=DIRECTION('ref_axis',(0.309016994374948,0.,-0.951056516295154));
#1152=DIRECTION('',(0.951056516295154,0.,0.309016994374948));
#1153=DIRECTION('',(-0.309016994374948,0.,0.951056516295154));
#1154=DIRECTION('',(-0.951056516295154,0.,-0.309016994374948));
#1155=DIRECTION('center_axis',(0.,1.,0.));
#1156=DIRECTION('ref_axis',(1.,0.,0.));
#1157=DIRECTION('center_axis',(-0.951056516295154,0.,-0.309016994374948));
#1158=DIRECTION('ref_axis',(-0.309016994374948,0.,0.951056516295154));
#1159=DIRECTION('',(0.,1.,0.));
#1160=DIRECTION('',(0.,1.,0.));
#1161=DIRECTION('',(-0.309016994374948,0.,0.951056516295154));
#1162=DIRECTION('',(0.,1.,0.));
#1163=DIRECTION('',(0.,1.,0.));
#1164=DIRECTION('center_axis',(-0.309016994374948,0.,0.951056516295154));
#1165=DIRECTION('ref_axis',(0.951056516295154,0.,0.309016994374948));
#1166=DIRECTION('',(0.,-1.,0.));
#1167=DIRECTION('center_axis',(0.309016994374948,0.,-0.951056516295154));
#1168=DIRECTION('ref_axis',(-0.951056516295154,0.,-0.309016994374948));
#1169=DIRECTION('',(0.,1.,0.));
#1170=DIRECTION('center_axis',(0.,1.,0.));
#1171=DIRECTION('ref_axis',(0.309016994374948,0.,-0.951056516295154));
#1172=DIRECTION('',(0.951056516295153,0.,0.309016994374949));
#1173=DIRECTION('',(-0.951056516295154,0.,-0.309016994374948));
#1174=DIRECTION('center_axis',(0.,1.,0.));
#1175=DIRECTION('ref_axis',(1.,0.,0.));
#1176=DIRECTION('center_axis',(-0.309016994374949,0.,0.951056516295153));
#1177=DIRECTION('ref_axis',(0.951056516295153,0.,0.309016994374949));
#1178=DIRECTION('',(0.,-1.,0.));
#1179=DIRECTION('center_axis',(0.309016994374948,0.,-0.951056516295154));
#1180=DIRECTION('ref_axis',(-0.951056516295154,0.,-0.309016994374948));
#1181=DIRECTION('',(0.,1.,0.));
#1182=DIRECTION('center_axis',(0.,1.,0.));
#1183=DIRECTION('ref_axis',(1.,0.,0.));
#1184=DIRECTION('',(0.,0.,1.));
#1185=DIRECTION('center_axis',(0.,1.,0.));
#1186=DIRECTION('ref_axis',(1.,0.,0.));
#1187=DIRECTION('',(0.,0.,-1.));
#1188=DIRECTION('',(-1.,0.,0.));
#1189=DIRECTION('center_axis',(0.,1.,0.));
#1190=DIRECTION('ref_axis',(1.,0.,0.));
#1191=DIRECTION('',(0.,0.,1.));
#1192=DIRECTION('',(-1.,0.,0.));
#1193=DIRECTION('',(0.,0.,-1.));
#1194=DIRECTION('center_axis',(0.,1.,0.));
#1195=DIRECTION('ref_axis',(1.,0.,0.));
#1196=DIRECTION('center_axis',(0.,0.,-1.));
#1197=DIRECTION('ref_axis',(-1.,0.,0.));
#1198=DIRECTION('',(0.,1.,0.));
#1199=DIRECTION('',(0.,1.,0.));
#1200=DIRECTION('',(-1.,0.,0.));
#1201=DIRECTION('',(0.,1.,0.));
#1202=DIRECTION('',(0.,1.,0.));
#1203=DIRECTION('center_axis',(-1.,0.,0.));
#1204=DIRECTION('ref_axis',(0.,0.,1.));
#1205=DIRECTION('',(0.,-1.,0.));
#1206=DIRECTION('center_axis',(1.,0.,0.));
#1207=DIRECTION('ref_axis',(0.,0.,-1.));
#1208=DIRECTION('',(0.,1.,0.));
#1209=DIRECTION('center_axis',(0.,1.,0.));
#1210=DIRECTION('ref_axis',(1.,0.,0.));
#1211=DIRECTION('',(-1.2339256201614E-15,0.,1.));
#1212=DIRECTION('',(0.,0.,-1.));
#1213=DIRECTION('center_axis',(0.,1.,0.));
#1214=DIRECTION('ref_axis',(1.,0.,0.));
#1215=DIRECTION('center_axis',(-1.,0.,-1.2339256201614E-15));
#1216=DIRECTION('ref_axis',(-1.2339256201614E-15,0.,1.));
#1217=DIRECTION('',(0.,-1.,0.));
#1218=DIRECTION('center_axis',(1.,0.,0.));
#1219=DIRECTION('ref_axis',(0.,0.,-1.));
#1220=DIRECTION('',(0.,1.,0.));
#1221=DIRECTION('center_axis',(0.,1.,0.));
#1222=DIRECTION('ref_axis',(1.,0.,0.));
#1223=DIRECTION('',(0.,-1.,0.));
#1224=DIRECTION('center_axis',(0.,1.,0.));
#1225=DIRECTION('ref_axis',(1.,0.,0.));
#1226=DIRECTION('center_axis',(0.,1.,0.));
#1227=DIRECTION('ref_axis',(1.,0.,0.));
#1228=DIRECTION('center_axis',(0.,1.,0.));
#1229=DIRECTION('ref_axis',(1.,0.,0.));
#1230=DIRECTION('',(0.,1.,0.));
#1231=DIRECTION('center_axis',(0.,1.,0.));
#1232=DIRECTION('ref_axis',(1.,0.,0.));
#1233=CARTESIAN_POINT('',(0.,0.,0.));
#1234=CARTESIAN_POINT('Origin',(-18.5456020677555,16.5,6.02583139031147));
#1235=CARTESIAN_POINT('',(-17.761056815233,16.5,6.82237940941915));
#1236=CARTESIAN_POINT('',(-18.6883220397583,16.5,7.12366614449925));
#1237=CARTESIAN_POINT('',(-17.761056815233,16.5,6.82237940941915));
#1238=CARTESIAN_POINT('',(-19.3063560285082,16.5,5.22155311190895));
#1239=CARTESIAN_POINT('Origin',(0.,16.5,0.));
#1240=CARTESIAN_POINT('',(-18.3790908039829,16.5,4.92026637682884));
#1241=CARTESIAN_POINT('',(-18.3790908039829,16.5,4.92026637682884));
#1242=CARTESIAN_POINT('',(-17.761056815233,16.5,6.82237940941915));
#1243=CARTESIAN_POINT('Origin',(-18.0701809303082,5.5,7.44855103510678));
#1244=CARTESIAN_POINT('',(-17.761056815233,5.5,6.82237940941915));
#1245=CARTESIAN_POINT('',(-18.6883220397583,5.5,7.12366614449925));
#1246=CARTESIAN_POINT('',(-17.9928731213643,5.5,6.89770109318918));
#1247=CARTESIAN_POINT('',(-17.452039820858,5.5,7.7734359257143));
#1248=CARTESIAN_POINT('',(-17.5292940694518,5.5,7.53567179664052));
#1249=CARTESIAN_POINT('',(-18.3077517250914,5.5,8.0514735777007));
#1250=CARTESIAN_POINT('',(-18.111712079106,5.5,7.98777643547753));
#1251=CARTESIAN_POINT('Origin',(0.,5.5,0.));
#1252=CARTESIAN_POINT('Origin',(-17.452039820858,0.,7.7734359257143));
#1253=CARTESIAN_POINT('',(-17.761056815233,0.,6.82237940941915));
#1254=CARTESIAN_POINT('',(-18.3790908039829,5.5,4.92026637682884));
#1255=CARTESIAN_POINT('',(-18.3790908039829,0.,4.92026637682884));
#1256=CARTESIAN_POINT('',(-18.6881077983578,5.5,3.96920986053369));
#1257=CARTESIAN_POINT('',(-18.4563450525766,5.5,4.68250224775506));
#1258=CARTESIAN_POINT('',(-18.6881077983578,17.5,3.96920986053369));
#1259=CARTESIAN_POINT('',(-18.6881077983578,0.,3.96920986053369));
#1260=CARTESIAN_POINT('',(-17.452039820858,17.5,7.7734359257143));
#1261=CARTESIAN_POINT('',(-17.761056815233,17.5,6.82237940941915));
#1262=CARTESIAN_POINT('',(-17.452039820858,0.,7.7734359257143));
#1263=CARTESIAN_POINT('Origin',(-17.761056815233,0.,6.82237940941915));
#1264=CARTESIAN_POINT('',(-18.6883220397583,0.,7.12366614449925));
#1265=CARTESIAN_POINT('Origin',(-18.3077517250914,0.,8.0514735777007));
#1266=CARTESIAN_POINT('',(-18.3077517250914,17.5,8.0514735777007));
#1267=CARTESIAN_POINT('',(-8.84485886817076,17.5,4.9767933051455));
#1268=CARTESIAN_POINT('',(-18.3077517250914,0.,8.0514735777007));
#1269=CARTESIAN_POINT('Origin',(-18.997231913433,5.5,4.59538148622132));
#1270=CARTESIAN_POINT('',(-19.5438197025912,5.5,4.24724751252008));
#1271=CARTESIAN_POINT('',(-18.9199241044891,5.5,4.04453154430372));
#1272=CARTESIAN_POINT('',(-19.3063560285082,5.5,5.22155311190895));
#1273=CARTESIAN_POINT('',(-19.0745397223768,5.5,5.14623142813892));
#1274=CARTESIAN_POINT('Origin',(0.,5.5,0.));
#1275=CARTESIAN_POINT('Origin',(-18.6881077983578,0.,3.96920986053369));
#1276=CARTESIAN_POINT('',(-19.5438197025912,17.5,4.24724751252008));
#1277=CARTESIAN_POINT('',(-19.5438197025912,0.,4.24724751252008));
#1278=CARTESIAN_POINT('',(-9.65307089355385,17.5,1.0335484139717));
#1279=CARTESIAN_POINT('Origin',(-19.3063560285082,0.,5.22155311190895));
#1280=CARTESIAN_POINT('',(-19.3063560285082,0.,5.22155311190895));
#1281=CARTESIAN_POINT('Origin',(0.,17.5,0.));
#1282=CARTESIAN_POINT('',(-20.,17.5,2.44929359829471E-15));
#1283=CARTESIAN_POINT('Origin',(0.,17.5,0.));
#1284=CARTESIAN_POINT('',(-13.314812823701,17.5,-14.9236644115916));
#1285=CARTESIAN_POINT('Origin',(0.,17.5,0.));
#1286=CARTESIAN_POINT('',(-12.7859537823069,17.5,-14.1957523885391));
#1287=CARTESIAN_POINT('',(-7.46642340622546,17.5,-6.87404695350335));
#1288=CARTESIAN_POINT('',(-9.5498858048071,17.5,-16.5468933977089));
#1289=CARTESIAN_POINT('',(-11.9769367879319,17.5,-14.7835376408315));
#1290=CARTESIAN_POINT('',(-10.0787448462012,17.5,-17.2748054207615));
#1291=CARTESIAN_POINT('',(-3.96592590802861,17.5,-8.86123195114694));
#1292=CARTESIAN_POINT('',(10.0787448462012,17.5,-17.2748054207615));
#1293=CARTESIAN_POINT('Origin',(0.,17.5,0.));
#1294=CARTESIAN_POINT('',(9.5498858048071,17.5,-16.5468933977089));
#1295=CARTESIAN_POINT('',(4.23035542872567,17.5,-9.22518796267324));
#1296=CARTESIAN_POINT('',(12.7859537823069,17.5,-14.1957523885391));
#1297=CARTESIAN_POINT('',(10.358902799182,17.5,-15.9591081454165));
#1298=CARTESIAN_POINT('',(13.314812823701,17.5,-14.9236644115916));
#1299=CARTESIAN_POINT('',(7.20199388552838,17.5,-6.51009094197706));
#1300=CARTESIAN_POINT('',(19.5438197025912,17.5,4.24724751252009));
#1301=CARTESIAN_POINT('Origin',(0.,17.5,0.));
#1302=CARTESIAN_POINT('',(18.6881077983578,17.5,3.9692098605337));
#1303=CARTESIAN_POINT('',(10.0809268456705,17.5,1.17256723996489));
#1304=CARTESIAN_POINT('',(17.452039820858,17.5,7.77343592571431));
#1305=CARTESIAN_POINT('',(18.3790908039829,17.5,4.92026637682885));
#1306=CARTESIAN_POINT('',(18.3077517250914,17.5,8.0514735777007));
#1307=CARTESIAN_POINT('',(8.41700291605407,17.5,4.8377744791523));
#1308=CARTESIAN_POINT('',(2.,17.5,19.8997487421324));
#1309=CARTESIAN_POINT('Origin',(0.,17.5,0.));
#1310=CARTESIAN_POINT('',(2.,17.5,19.));
#1311=CARTESIAN_POINT('',(2.,17.5,9.9498743710662));
#1312=CARTESIAN_POINT('',(-2.,17.5,19.));
#1313=CARTESIAN_POINT('',(1.,17.5,19.));
#1314=CARTESIAN_POINT('',(-2.,17.5,19.8997487421324));
#1315=CARTESIAN_POINT('',(-1.99999999999999,17.5,9.5));
#1316=CARTESIAN_POINT('Origin',(0.,17.5,0.));
#1317=CARTESIAN_POINT('Origin',(0.,20.,0.));
#1318=CARTESIAN_POINT('',(-19.75,20.,-2.41867742831602E-15));
#1319=CARTESIAN_POINT('Origin',(0.,20.,0.));
#1320=CARTESIAN_POINT('Origin',(0.,19.,0.));
#1321=CARTESIAN_POINT('',(-21.75,18.,2.66360678814549E-15));
#1322=CARTESIAN_POINT('',(-20.75,19.,2.54114210823076E-15));
#1323=CARTESIAN_POINT('Origin',(0.,18.,0.));
#1324=CARTESIAN_POINT('Origin',(-11.4618124197032,16.5,-15.7758313903115));
#1325=CARTESIAN_POINT('',(-11.9769367879319,16.5,-14.7835376408315));
#1326=CARTESIAN_POINT('',(-12.5500182132744,16.5,-15.5723165536307));
#1327=CARTESIAN_POINT('',(-11.9769367879319,16.5,-14.7835376408315));
#1328=CARTESIAN_POINT('',(-10.9319842245245,16.5,-16.7478870582157));
#1329=CARTESIAN_POINT('Origin',(0.,16.5,0.));
#1330=CARTESIAN_POINT('',(-10.358902799182,16.5,-15.9591081454165));
#1331=CARTESIAN_POINT('',(-10.358902799182,16.5,-15.9591081454165));
#1332=CARTESIAN_POINT('',(-11.9769367879319,16.5,-14.7835376408315));
#1333=CARTESIAN_POINT('Origin',(-12.6679859977906,5.5,-14.8840344710849));
#1334=CARTESIAN_POINT('',(-11.9769367879319,5.5,-14.7835376408315));
#1335=CARTESIAN_POINT('',(-12.5500182132744,5.5,-15.5723165536307));
#1336=CARTESIAN_POINT('',(-12.1202071442675,5.5,-14.9807323690313));
#1337=CARTESIAN_POINT('',(-12.7859537823069,5.5,-14.1957523885391));
#1338=CARTESIAN_POINT('',(-12.5836995337131,5.5,-14.3426987016122));
#1339=CARTESIAN_POINT('',(-13.314812823701,5.5,-14.9236644115916));
#1340=CARTESIAN_POINT('',(-13.1936536593396,5.5,-14.7569031282652));
#1341=CARTESIAN_POINT('Origin',(0.,5.5,0.));
#1342=CARTESIAN_POINT('Origin',(-12.7859537823069,0.,-14.1957523885391));
#1343=CARTESIAN_POINT('',(-11.9769367879319,0.,-14.7835376408315));
#1344=CARTESIAN_POINT('',(-10.358902799182,5.5,-15.9591081454165));
#1345=CARTESIAN_POINT('',(-10.358902799182,0.,-15.9591081454165));
#1346=CARTESIAN_POINT('',(-9.5498858048071,5.5,-16.5468933977089));
#1347=CARTESIAN_POINT('',(-10.1566485505883,5.5,-16.1060544584896));
#1348=CARTESIAN_POINT('',(-9.5498858048071,0.,-16.5468933977089));
#1349=CARTESIAN_POINT('',(-12.7859537823069,0.,-14.1957523885391));
#1350=CARTESIAN_POINT('Origin',(-11.9769367879319,0.,-14.7835376408315));
#1351=CARTESIAN_POINT('',(-12.5500182132744,0.,-15.5723165536307));
#1352=CARTESIAN_POINT('Origin',(-13.314812823701,0.,-14.9236644115916));
#1353=CARTESIAN_POINT('',(-13.314812823701,0.,-14.9236644115916));
#1354=CARTESIAN_POINT('Origin',(-10.2409350146658,5.5,-16.6473902279623));
#1355=CARTESIAN_POINT('',(-10.0787448462012,5.5,-17.2748054207615));
#1356=CARTESIAN_POINT('',(-9.6931561611427,5.5,-16.7440881259087));
#1357=CARTESIAN_POINT('',(-10.9319842245245,5.5,-16.7478870582157));
#1358=CARTESIAN_POINT('',(-10.7887138681889,5.5,-16.5506923300159));
#1359=CARTESIAN_POINT('Origin',(0.,5.5,0.));
#1360=CARTESIAN_POINT('Origin',(-9.5498858048071,0.,-16.5468933977089));
#1361=CARTESIAN_POINT('',(-10.0787448462012,0.,-17.2748054207615));
#1362=CARTESIAN_POINT('Origin',(-10.9319842245245,0.,-16.7478870582157));
#1363=CARTESIAN_POINT('',(-10.9319842245245,0.,-16.7478870582157));
#1364=CARTESIAN_POINT('Origin',(11.4618124197032,16.5,-15.7758313903115));
#1365=CARTESIAN_POINT('',(10.358902799182,16.5,-15.9591081454165));
#1366=CARTESIAN_POINT('',(10.9319842245245,16.5,-16.7478870582157));
#1367=CARTESIAN_POINT('',(10.358902799182,16.5,-15.9591081454165));
#1368=CARTESIAN_POINT('',(12.5500182132744,16.5,-15.5723165536307));
#1369=CARTESIAN_POINT('Origin',(0.,16.5,0.));
#1370=CARTESIAN_POINT('',(11.9769367879319,16.5,-14.7835376408315));
#1371=CARTESIAN_POINT('',(11.9769367879319,16.5,-14.7835376408315));
#1372=CARTESIAN_POINT('',(10.358902799182,16.5,-15.9591081454165));
#1373=CARTESIAN_POINT('Origin',(10.2409350146658,5.5,-16.6473902279623));
#1374=CARTESIAN_POINT('',(10.358902799182,5.5,-15.9591081454165));
#1375=CARTESIAN_POINT('',(10.9319842245245,5.5,-16.7478870582157));
#1376=CARTESIAN_POINT('',(10.5021731555177,5.5,-16.1563028736163));
#1377=CARTESIAN_POINT('',(9.5498858048071,5.5,-16.5468933977089));
#1378=CARTESIAN_POINT('',(9.75214005340083,5.5,-16.3999470846358));
#1379=CARTESIAN_POINT('',(10.0787448462012,5.5,-17.2748054207615));
#1380=CARTESIAN_POINT('',(9.95758568183977,5.5,-17.108044137435));
#1381=CARTESIAN_POINT('Origin',(0.,5.5,0.));
#1382=CARTESIAN_POINT('Origin',(9.5498858048071,0.,-16.5468933977089));
#1383=CARTESIAN_POINT('',(10.358902799182,0.,-15.9591081454165));
#1384=CARTESIAN_POINT('',(11.9769367879319,5.5,-14.7835376408315));
#1385=CARTESIAN_POINT('',(11.9769367879319,0.,-14.7835376408315));
#1386=CARTESIAN_POINT('',(12.7859537823069,5.5,-14.1957523885391));
#1387=CARTESIAN_POINT('',(12.1791910365257,5.5,-14.6365913277584));
#1388=CARTESIAN_POINT('',(12.7859537823069,0.,-14.1957523885391));
#1389=CARTESIAN_POINT('',(9.5498858048071,0.,-16.5468933977089));
#1390=CARTESIAN_POINT('Origin',(10.358902799182,0.,-15.9591081454165));
#1391=CARTESIAN_POINT('',(10.9319842245245,0.,-16.7478870582157));
#1392=CARTESIAN_POINT('Origin',(10.0787448462012,0.,-17.2748054207615));
#1393=CARTESIAN_POINT('',(10.0787448462012,0.,-17.2748054207615));
#1394=CARTESIAN_POINT('Origin',(12.6679859977906,5.5,-14.8840344710849));
#1395=CARTESIAN_POINT('',(13.314812823701,5.5,-14.9236644115916));
#1396=CARTESIAN_POINT('',(12.9292241386425,5.5,-14.3929471167388));
#1397=CARTESIAN_POINT('',(12.5500182132744,5.5,-15.5723165536307));
#1398=CARTESIAN_POINT('',(12.4067478569388,5.5,-15.3751218254309));
#1399=CARTESIAN_POINT('Origin',(0.,5.5,0.));
#1400=CARTESIAN_POINT('Origin',(12.7859537823069,0.,-14.1957523885391));
#1401=CARTESIAN_POINT('',(13.314812823701,0.,-14.9236644115916));
#1402=CARTESIAN_POINT('Origin',(12.5500182132744,0.,-15.5723165536307));
#1403=CARTESIAN_POINT('',(12.5500182132744,0.,-15.5723165536307));
#1404=CARTESIAN_POINT('Origin',(18.5456020677555,16.5,6.02583139031148));
#1405=CARTESIAN_POINT('',(18.3790908039829,16.5,4.92026637682885));
#1406=CARTESIAN_POINT('',(19.3063560285082,16.5,5.22155311190895));
#1407=CARTESIAN_POINT('',(18.3790908039829,16.5,4.92026637682885));
#1408=CARTESIAN_POINT('',(18.6883220397583,16.5,7.12366614449926));
#1409=CARTESIAN_POINT('Origin',(0.,16.5,0.));
#1410=CARTESIAN_POINT('',(17.761056815233,16.5,6.82237940941915));
#1411=CARTESIAN_POINT('',(17.761056815233,16.5,6.82237940941915));
#1412=CARTESIAN_POINT('',(18.3790908039829,16.5,4.92026637682885));
#1413=CARTESIAN_POINT('Origin',(18.997231913433,5.5,4.59538148622132));
#1414=CARTESIAN_POINT('',(18.3790908039829,5.5,4.92026637682885));
#1415=CARTESIAN_POINT('',(19.3063560285082,5.5,5.22155311190895));
#1416=CARTESIAN_POINT('',(18.6109071101142,5.5,4.99558806059887));
#1417=CARTESIAN_POINT('',(18.6881077983578,5.5,3.9692098605337));
#1418=CARTESIAN_POINT('',(18.6108535497641,5.5,4.20697398960748));
#1419=CARTESIAN_POINT('',(19.5438197025912,5.5,4.24724751252009));
#1420=CARTESIAN_POINT('',(19.3477800566058,5.5,4.18355037029692));
#1421=CARTESIAN_POINT('Origin',(0.,5.5,0.));
#1422=CARTESIAN_POINT('Origin',(18.6881077983578,0.,3.9692098605337));
#1423=CARTESIAN_POINT('',(18.3790908039829,0.,4.92026637682885));
#1424=CARTESIAN_POINT('',(17.761056815233,5.5,6.82237940941915));
#1425=CARTESIAN_POINT('',(17.761056815233,0.,6.82237940941915));
#1426=CARTESIAN_POINT('',(17.452039820858,5.5,7.77343592571431));
#1427=CARTESIAN_POINT('',(17.6838025666392,5.5,7.06014353849295));
#1428=CARTESIAN_POINT('',(17.452039820858,0.,7.77343592571431));
#1429=CARTESIAN_POINT('',(18.6881077983578,0.,3.9692098605337));
#1430=CARTESIAN_POINT('Origin',(18.3790908039829,0.,4.92026637682885));
#1431=CARTESIAN_POINT('',(19.3063560285082,0.,5.22155311190895));
#1432=CARTESIAN_POINT('Origin',(19.5438197025912,0.,4.24724751252009));
#1433=CARTESIAN_POINT('',(19.5438197025912,0.,4.24724751252009));
#1434=CARTESIAN_POINT('Origin',(18.0701809303082,5.5,7.44855103510679));
#1435=CARTESIAN_POINT('',(18.3077517250914,5.5,8.0514735777007));
#1436=CARTESIAN_POINT('',(17.6838561269894,5.5,7.84875760948434));
#1437=CARTESIAN_POINT('',(18.6883220397583,5.5,7.12366614449926));
#1438=CARTESIAN_POINT('',(18.456505733627,5.5,7.04834446072923));
#1439=CARTESIAN_POINT('Origin',(0.,5.5,0.));
#1440=CARTESIAN_POINT('Origin',(17.452039820858,0.,7.77343592571431));
#1441=CARTESIAN_POINT('',(18.3077517250914,0.,8.0514735777007));
#1442=CARTESIAN_POINT('Origin',(18.6883220397583,0.,7.12366614449926));
#1443=CARTESIAN_POINT('',(18.6883220397583,0.,7.12366614449926));
#1444=CARTESIAN_POINT('Origin',(-8.32667268468867E-16,16.5,19.5));
#1445=CARTESIAN_POINT('',(1.,16.5,19.));
#1446=CARTESIAN_POINT('',(1.,16.5,19.9749843554382));
#1447=CARTESIAN_POINT('',(1.,16.5,19.));
#1448=CARTESIAN_POINT('',(-1.,16.5,19.9749843554382));
#1449=CARTESIAN_POINT('Origin',(0.,16.5,0.));
#1450=CARTESIAN_POINT('',(-1.,16.5,19.));
#1451=CARTESIAN_POINT('',(-1.,16.5,19.));
#1452=CARTESIAN_POINT('',(1.,16.5,19.));
#1453=CARTESIAN_POINT('Origin',(1.5,5.5,19.4874921777191));
#1454=CARTESIAN_POINT('',(1.,5.5,19.));
#1455=CARTESIAN_POINT('',(1.,5.5,19.9749843554382));
#1456=CARTESIAN_POINT('',(1.,5.5,19.2437460888595));
#1457=CARTESIAN_POINT('',(2.,5.5,19.));
#1458=CARTESIAN_POINT('',(1.75,5.5,19.));
#1459=CARTESIAN_POINT('',(2.,5.5,19.8997487421324));
#1460=CARTESIAN_POINT('',(2.,5.5,19.6936204599257));
#1461=CARTESIAN_POINT('Origin',(0.,5.5,0.));
#1462=CARTESIAN_POINT('Origin',(2.,0.,19.));
#1463=CARTESIAN_POINT('',(1.,0.,19.));
#1464=CARTESIAN_POINT('',(-1.,5.5,19.));
#1465=CARTESIAN_POINT('',(-1.,0.,19.));
#1466=CARTESIAN_POINT('',(-2.,5.5,19.));
#1467=CARTESIAN_POINT('',(-1.25,5.5,19.));
#1468=CARTESIAN_POINT('',(-2.,0.,19.));
#1469=CARTESIAN_POINT('',(2.,0.,19.));
#1470=CARTESIAN_POINT('Origin',(1.,0.,19.));
#1471=CARTESIAN_POINT('',(1.,0.,19.9749843554382));
#1472=CARTESIAN_POINT('Origin',(2.,0.,19.8997487421324));
#1473=CARTESIAN_POINT('',(2.,0.,19.8997487421324));
#1474=CARTESIAN_POINT('Origin',(-1.5,5.5,19.4874921777191));
#1475=CARTESIAN_POINT('',(-2.,5.5,19.8997487421324));
#1476=CARTESIAN_POINT('',(-2.,5.5,19.2437460888595));
#1477=CARTESIAN_POINT('',(-1.,5.5,19.9749843554382));
#1478=CARTESIAN_POINT('',(-1.,5.5,19.7312382665786));
#1479=CARTESIAN_POINT('Origin',(0.,5.5,0.));
#1480=CARTESIAN_POINT('Origin',(-2.,0.,19.));
#1481=CARTESIAN_POINT('',(-2.,0.,19.8997487421324));
#1482=CARTESIAN_POINT('Origin',(-1.,0.,19.9749843554382));
#1483=CARTESIAN_POINT('',(-1.,0.,19.9749843554382));
#1484=CARTESIAN_POINT('Origin',(0.,0.,0.));
#1485=CARTESIAN_POINT('',(-21.75,0.,2.66360678814549E-15));
#1486=CARTESIAN_POINT('',(-21.75,0.,2.66360678814549E-15));
#1487=CARTESIAN_POINT('Origin',(0.,0.,0.));
#1488=CARTESIAN_POINT('Origin',(0.,0.,0.));
#1489=CARTESIAN_POINT('',(-20.,0.,2.44929359829471E-15));
#1490=CARTESIAN_POINT('Origin',(0.,0.,0.));
#1491=CARTESIAN_POINT('',(-20.,0.,2.44929359829471E-15));
#1492=CARTESIAN_POINT('Origin',(0.,0.,0.));
#1493=UNCERTAINTY_MEASURE_WITH_UNIT(LENGTH_MEASURE(0.01),#1497,
'DISTANCE_ACCURACY_VALUE',
'Maximum model space distance between geometric entities at asserted c
onnectivities');
#1494=UNCERTAINTY_MEASURE_WITH_UNIT(LENGTH_MEASURE(0.01),#1497,
'DISTANCE_ACCURACY_VALUE',
'Maximum model space distance between geometric entities at asserted c
onnectivities');
#1495=(
GEOMETRIC_REPRESENTATION_CONTEXT(3)
GLOBAL_UNCERTAINTY_ASSIGNED_CONTEXT((#1493))
GLOBAL_UNIT_ASSIGNED_CONTEXT((#1497,#1499,#1500))
REPRESENTATION_CONTEXT('','3D')
);
#1496=(
GEOMETRIC_REPRESENTATION_CONTEXT(3)
GLOBAL_UNCERTAINTY_ASSIGNED_CONTEXT((#1494))
GLOBAL_UNIT_ASSIGNED_CONTEXT((#1497,#1499,#1500))
REPRESENTATION_CONTEXT('','3D')
);
#1497=(
LENGTH_UNIT()
NAMED_UNIT(*)
SI_UNIT(.MILLI.,.METRE.)
);
#1498=(
LENGTH_UNIT()
NAMED_UNIT(*)
SI_UNIT($,.METRE.)
);
#1499=(
NAMED_UNIT(*)
PLANE_ANGLE_UNIT()
SI_UNIT($,.RADIAN.)
);
#1500=(
NAMED_UNIT(*)
SI_UNIT($,.STERADIAN.)
SOLID_ANGLE_UNIT()
);
#1501=SHAPE_DEFINITION_REPRESENTATION(#1502,#1503);
#1502=PRODUCT_DEFINITION_SHAPE('',$,#1505);
#1503=SHAPE_REPRESENTATION('',(#914),#1495);
#1504=PRODUCT_DEFINITION_CONTEXT('part definition',#1509,'design');
#1505=PRODUCT_DEFINITION('ModB_Hat','ModB_Hat v22',#1506,#1504);
#1506=PRODUCT_DEFINITION_FORMATION('',$,#1511);
#1507=PRODUCT_RELATED_PRODUCT_CATEGORY('ModB_Hat v22','ModB_Hat v22',(#1511));
#1508=APPLICATION_PROTOCOL_DEFINITION('international standard',
'automotive_design',2009,#1509);
#1509=APPLICATION_CONTEXT(
'Core Data for Automotive Mechanical Design Process');
#1510=PRODUCT_CONTEXT('part definition',#1509,'mechanical');
#1511=PRODUCT('ModB_Hat','ModB_Hat v22',$,(#1510));
#1512=PRESENTATION_STYLE_ASSIGNMENT((#1514));
#1513=PRESENTATION_STYLE_ASSIGNMENT((#1515));
#1514=SURFACE_STYLE_USAGE(.BOTH.,#1516);
#1515=SURFACE_STYLE_USAGE(.BOTH.,#1517);
#1516=SURFACE_SIDE_STYLE('',(#1518));
#1517=SURFACE_SIDE_STYLE('',(#1519));
#1518=SURFACE_STYLE_FILL_AREA(#1520);
#1519=SURFACE_STYLE_FILL_AREA(#1521);
#1520=FILL_AREA_STYLE('\X2\94A2\X0\ - \X2\7F0E5149\X0\',(#1522));
#1521=FILL_AREA_STYLE('ABS(\X2\767D8272\X0\)',(#1523));
#1522=FILL_AREA_STYLE_COLOUR('\X2\94A2\X0\ - \X2\7F0E5149\X0\',#1524);
#1523=FILL_AREA_STYLE_COLOUR('ABS(\X2\767D8272\X0\)',#1525);
#1524=COLOUR_RGB('\X2\94A2\X0\ - \X2\7F0E5149\X0\',0.627450980392157,0.627450980392157,
0.627450980392157);
#1525=COLOUR_RGB('ABS(\X2\767D8272\X0\)',0.964705882352941,0.964705882352941,
0.952941176470588);
ENDSEC;
END-ISO-10303-21;
