ISO-10303-21;
HEADER;
/* Generated by software containing ST-Developer
 * from STEP Tools, Inc. (www.steptools.com) 
 */

FILE_DESCRIPTION(
/* description */ (''),
/* implementation_level */ '2;1');

FILE_NAME(
/* name */ 'ModB_Bottom v17.step',
/* time_stamp */ '2025-10-19T17:58:46+08:00',
/* author */ (''),
/* organization */ (''),
/* preprocessor_version */ 'ST-DEVELOPER v20.1',
/* originating_system */ 'Autodesk Translation Framework v14.17.0.0',
/* authorisation */ '');

FILE_SCHEMA (('AUTOMOTIVE_DESIGN { 1 0 10303 214 3 1 1 }'));
ENDSEC;

DATA;
#10=MECHANICAL_DESIGN_GEOMETRIC_PRESENTATION_REPRESENTATION('',(#13),#1717);
#11=SHAPE_REPRESENTATION_RELATIONSHIP('SRR','None',#1724,#12);
#12=ADVANCED_BREP_SHAPE_REPRESENTATION('',(#14),#1716);
#13=STYLED_ITEM('',(#1734),#14);
#14=MANIFOLD_SOLID_BREP('\X2\5B9E4F53\X0\1',#901);
#15=FACE_BOUND('',#182,.T.);
#16=FACE_BOUND('',#185,.T.);
#17=FACE_BOUND('',#188,.T.);
#18=FACE_BOUND('',#191,.T.);
#19=FACE_BOUND('',#200,.T.);
#20=FACE_BOUND('',#208,.T.);
#21=FACE_BOUND('',#213,.T.);
#22=FACE_BOUND('',#217,.T.);
#23=FACE_BOUND('',#223,.T.);
#24=CIRCLE('',#920,6.);
#25=CIRCLE('',#923,5.99999999999999);
#26=CIRCLE('',#927,5.99999999999999);
#27=CIRCLE('',#929,1.65);
#28=CIRCLE('',#930,1.65);
#29=CIRCLE('',#932,1.25);
#30=CIRCLE('',#934,1.65);
#31=CIRCLE('',#935,1.65);
#32=CIRCLE('',#937,1.25);
#33=CIRCLE('',#939,1.65);
#34=CIRCLE('',#940,1.65);
#35=CIRCLE('',#942,1.25);
#36=CIRCLE('',#944,1.65);
#37=CIRCLE('',#945,1.65);
#38=CIRCLE('',#947,1.25);
#39=CIRCLE('',#949,1.25);
#40=CIRCLE('',#951,1.25);
#41=CIRCLE('',#953,1.25);
#42=CIRCLE('',#955,1.25);
#43=CIRCLE('',#958,5.99999999999999);
#44=CIRCLE('',#961,3.99999999999999);
#45=CIRCLE('',#962,4.);
#46=CIRCLE('',#963,4.);
#47=CIRCLE('',#964,4.);
#48=CIRCLE('',#966,4.);
#49=CIRCLE('',#969,3.99999999999999);
#50=CIRCLE('',#973,4.);
#51=CIRCLE('',#974,4.);
#52=CIRCLE('',#977,4.);
#53=CIRCLE('',#978,4.);
#54=CIRCLE('',#979,4.);
#55=CIRCLE('',#982,4.);
#56=CIRCLE('',#984,4.);
#57=CIRCLE('',#986,4.);
#58=CIRCLE('',#989,4.);
#59=CIRCLE('',#994,4.);
#60=CYLINDRICAL_SURFACE('',#919,6.);
#61=CYLINDRICAL_SURFACE('',#922,5.99999999999999);
#62=CYLINDRICAL_SURFACE('',#926,5.99999999999999);
#63=CYLINDRICAL_SURFACE('',#928,1.65);
#64=CYLINDRICAL_SURFACE('',#933,1.65);
#65=CYLINDRICAL_SURFACE('',#938,1.65);
#66=CYLINDRICAL_SURFACE('',#943,1.65);
#67=CYLINDRICAL_SURFACE('',#957,5.99999999999999);
#68=CYLINDRICAL_SURFACE('',#965,4.);
#69=CYLINDRICAL_SURFACE('',#968,3.99999999999999);
#70=CYLINDRICAL_SURFACE('',#971,1.25);
#71=CYLINDRICAL_SURFACE('',#972,4.);
#72=CYLINDRICAL_SURFACE('',#980,1.25);
#73=CYLINDRICAL_SURFACE('',#981,4.);
#74=CYLINDRICAL_SURFACE('',#985,4.);
#75=CYLINDRICAL_SURFACE('',#987,1.25);
#76=CYLINDRICAL_SURFACE('',#990,4.);
#77=CYLINDRICAL_SURFACE('',#992,1.25);
#78=CYLINDRICAL_SURFACE('',#993,4.);
#79=CYLINDRICAL_SURFACE('',#997,4.);
#80=PLANE('',#915);
#81=PLANE('',#916);
#82=PLANE('',#917);
#83=PLANE('',#918);
#84=PLANE('',#921);
#85=PLANE('',#924);
#86=PLANE('',#925);
#87=PLANE('',#931);
#88=PLANE('',#936);
#89=PLANE('',#941);
#90=PLANE('',#946);
#91=PLANE('',#948);
#92=PLANE('',#950);
#93=PLANE('',#952);
#94=PLANE('',#954);
#95=PLANE('',#956);
#96=PLANE('',#959);
#97=PLANE('',#960);
#98=PLANE('',#967);
#99=PLANE('',#970);
#100=PLANE('',#975);
#101=PLANE('',#976);
#102=PLANE('',#983);
#103=PLANE('',#988);
#104=PLANE('',#991);
#105=PLANE('',#995);
#106=PLANE('',#996);
#107=FACE_OUTER_BOUND('',#162,.T.);
#108=FACE_OUTER_BOUND('',#163,.T.);
#109=FACE_OUTER_BOUND('',#164,.T.);
#110=FACE_OUTER_BOUND('',#165,.T.);
#111=FACE_OUTER_BOUND('',#166,.T.);
#112=FACE_OUTER_BOUND('',#167,.T.);
#113=FACE_OUTER_BOUND('',#168,.T.);
#114=FACE_OUTER_BOUND('',#169,.T.);
#115=FACE_OUTER_BOUND('',#170,.T.);
#116=FACE_OUTER_BOUND('',#171,.T.);
#117=FACE_OUTER_BOUND('',#172,.T.);
#118=FACE_OUTER_BOUND('',#173,.T.);
#119=FACE_OUTER_BOUND('',#174,.T.);
#120=FACE_OUTER_BOUND('',#175,.T.);
#121=FACE_OUTER_BOUND('',#176,.T.);
#122=FACE_OUTER_BOUND('',#177,.T.);
#123=FACE_OUTER_BOUND('',#178,.T.);
#124=FACE_OUTER_BOUND('',#179,.T.);
#125=FACE_OUTER_BOUND('',#180,.T.);
#126=FACE_OUTER_BOUND('',#181,.T.);
#127=FACE_OUTER_BOUND('',#183,.T.);
#128=FACE_OUTER_BOUND('',#184,.T.);
#129=FACE_OUTER_BOUND('',#186,.T.);
#130=FACE_OUTER_BOUND('',#187,.T.);
#131=FACE_OUTER_BOUND('',#189,.T.);
#132=FACE_OUTER_BOUND('',#190,.T.);
#133=FACE_OUTER_BOUND('',#192,.T.);
#134=FACE_OUTER_BOUND('',#193,.T.);
#135=FACE_OUTER_BOUND('',#194,.T.);
#136=FACE_OUTER_BOUND('',#195,.T.);
#137=FACE_OUTER_BOUND('',#196,.T.);
#138=FACE_OUTER_BOUND('',#197,.T.);
#139=FACE_OUTER_BOUND('',#198,.T.);
#140=FACE_OUTER_BOUND('',#199,.T.);
#141=FACE_OUTER_BOUND('',#201,.T.);
#142=FACE_OUTER_BOUND('',#202,.T.);
#143=FACE_OUTER_BOUND('',#203,.T.);
#144=FACE_OUTER_BOUND('',#204,.T.);
#145=FACE_OUTER_BOUND('',#205,.T.);
#146=FACE_OUTER_BOUND('',#206,.T.);
#147=FACE_OUTER_BOUND('',#207,.T.);
#148=FACE_OUTER_BOUND('',#209,.T.);
#149=FACE_OUTER_BOUND('',#210,.T.);
#150=FACE_OUTER_BOUND('',#211,.T.);
#151=FACE_OUTER_BOUND('',#212,.T.);
#152=FACE_OUTER_BOUND('',#214,.T.);
#153=FACE_OUTER_BOUND('',#215,.T.);
#154=FACE_OUTER_BOUND('',#216,.T.);
#155=FACE_OUTER_BOUND('',#218,.T.);
#156=FACE_OUTER_BOUND('',#219,.T.);
#157=FACE_OUTER_BOUND('',#220,.T.);
#158=FACE_OUTER_BOUND('',#221,.T.);
#159=FACE_OUTER_BOUND('',#222,.T.);
#160=FACE_OUTER_BOUND('',#224,.T.);
#161=FACE_OUTER_BOUND('',#225,.T.);
#162=EDGE_LOOP('',(#590,#591,#592,#593));
#163=EDGE_LOOP('',(#594,#595,#596,#597));
#164=EDGE_LOOP('',(#598,#599,#600,#601));
#165=EDGE_LOOP('',(#602,#603,#604,#605));
#166=EDGE_LOOP('',(#606,#607,#608,#609));
#167=EDGE_LOOP('',(#610,#611,#612,#613));
#168=EDGE_LOOP('',(#614,#615,#616,#617));
#169=EDGE_LOOP('',(#618,#619,#620,#621));
#170=EDGE_LOOP('',(#622,#623,#624,#625));
#171=EDGE_LOOP('',(#626,#627,#628,#629));
#172=EDGE_LOOP('',(#630,#631,#632,#633));
#173=EDGE_LOOP('',(#634,#635,#636,#637));
#174=EDGE_LOOP('',(#638,#639,#640,#641,#642));
#175=EDGE_LOOP('',(#643,#644,#645,#646));
#176=EDGE_LOOP('',(#647,#648,#649,#650,#651));
#177=EDGE_LOOP('',(#652,#653,#654,#655,#656,#657,#658,#659,#660,#661,#662,
#663));
#178=EDGE_LOOP('',(#664,#665,#666,#667,#668));
#179=EDGE_LOOP('',(#669,#670,#671,#672));
#180=EDGE_LOOP('',(#673,#674,#675,#676));
#181=EDGE_LOOP('',(#677));
#182=EDGE_LOOP('',(#678));
#183=EDGE_LOOP('',(#679,#680,#681,#682));
#184=EDGE_LOOP('',(#683));
#185=EDGE_LOOP('',(#684));
#186=EDGE_LOOP('',(#685,#686,#687,#688));
#187=EDGE_LOOP('',(#689));
#188=EDGE_LOOP('',(#690));
#189=EDGE_LOOP('',(#691,#692,#693,#694));
#190=EDGE_LOOP('',(#695));
#191=EDGE_LOOP('',(#696));
#192=EDGE_LOOP('',(#697));
#193=EDGE_LOOP('',(#698));
#194=EDGE_LOOP('',(#699));
#195=EDGE_LOOP('',(#700));
#196=EDGE_LOOP('',(#701,#702,#703,#704));
#197=EDGE_LOOP('',(#705,#706,#707,#708));
#198=EDGE_LOOP('',(#709,#710,#711,#712,#713));
#199=EDGE_LOOP('',(#714,#715,#716,#717,#718,#719,#720,#721));
#200=EDGE_LOOP('',(#722,#723,#724,#725,#726,#727,#728,#729));
#201=EDGE_LOOP('',(#730,#731,#732,#733));
#202=EDGE_LOOP('',(#734,#735,#736,#737,#738,#739,#740,#741));
#203=EDGE_LOOP('',(#742,#743,#744,#745));
#204=EDGE_LOOP('',(#746,#747,#748,#749,#750,#751,#752,#753));
#205=EDGE_LOOP('',(#754,#755,#756,#757));
#206=EDGE_LOOP('',(#758,#759,#760,#761));
#207=EDGE_LOOP('',(#762,#763,#764,#765));
#208=EDGE_LOOP('',(#766));
#209=EDGE_LOOP('',(#767,#768,#769,#770,#771,#772,#773,#774));
#210=EDGE_LOOP('',(#775,#776,#777,#778));
#211=EDGE_LOOP('',(#779,#780,#781,#782));
#212=EDGE_LOOP('',(#783,#784,#785,#786));
#213=EDGE_LOOP('',(#787));
#214=EDGE_LOOP('',(#788,#789,#790,#791));
#215=EDGE_LOOP('',(#792,#793,#794,#795));
#216=EDGE_LOOP('',(#796,#797,#798,#799));
#217=EDGE_LOOP('',(#800));
#218=EDGE_LOOP('',(#801,#802,#803,#804));
#219=EDGE_LOOP('',(#805,#806,#807,#808,#809,#810,#811,#812));
#220=EDGE_LOOP('',(#813,#814,#815,#816));
#221=EDGE_LOOP('',(#817,#818,#819,#820));
#222=EDGE_LOOP('',(#821,#822,#823,#824));
#223=EDGE_LOOP('',(#825));
#224=EDGE_LOOP('',(#826,#827,#828,#829,#830,#831,#832,#833));
#225=EDGE_LOOP('',(#834,#835,#836,#837));
#226=B_SPLINE_CURVE_WITH_KNOTS('',3,(#1267,#1268,#1269,#1270,#1271,#1272),
 .UNSPECIFIED.,.F.,.F.,(4,1,1,4),(1.58242188471226,2.0278992472487,2.47337660978514,
3.14159265358979),.UNSPECIFIED.);
#227=B_SPLINE_CURVE_WITH_KNOTS('',3,(#1275,#1276,#1277,#1278,#1279,#1280),
 .UNSPECIFIED.,.F.,.F.,(4,1,1,4),(-3.14159265358979,-2.47337660978514,-2.0278992472487,
-1.58242188471226),.UNSPECIFIED.);
#228=B_SPLINE_CURVE_WITH_KNOTS('',3,(#1314,#1315,#1316,#1317,#1318,#1319),
 .UNSPECIFIED.,.F.,.F.,(4,1,1,4),(-1.55917076887753,-1.11369340634109,-0.668216043804657,
1.14703425780403E-31),.UNSPECIFIED.);
#229=B_SPLINE_CURVE_WITH_KNOTS('',3,(#1320,#1321,#1322,#1323,#1324,#1325),
 .UNSPECIFIED.,.F.,.F.,(4,1,1,4),(-1.14703425780403E-31,0.668216043804657,
1.11369340634109,1.55917076887753),.UNSPECIFIED.);
#230=B_SPLINE_CURVE_WITH_KNOTS('',3,(#1351,#1352,#1353,#1354),
 .UNSPECIFIED.,.F.,.F.,(4,4),(-1.5707963267949,-1.55917076887753),
 .UNSPECIFIED.);
#231=B_SPLINE_CURVE_WITH_KNOTS('',3,(#1355,#1356,#1357,#1358),
 .UNSPECIFIED.,.F.,.F.,(4,4),(1.55917076887753,1.5707963267949),
 .UNSPECIFIED.);
#232=B_SPLINE_CURVE_WITH_KNOTS('',3,(#1387,#1388,#1389,#1390,#1391,#1392),
 .UNSPECIFIED.,.F.,.F.,(4,1,1,4),(-3.14159265358979,-2.46839422782055,-2.01959527730772,
-1.5707963267949),.UNSPECIFIED.);
#233=B_SPLINE_CURVE_WITH_KNOTS('',3,(#1395,#1396,#1397,#1398,#1399,#1400),
 .UNSPECIFIED.,.F.,.F.,(4,1,1,4),(1.5707963267949,2.01959527730772,2.46839422782055,
3.14159265358979),.UNSPECIFIED.);
#234=B_SPLINE_CURVE_WITH_KNOTS('',3,(#1434,#1435,#1436,#1437,#1438,#1439),
 .UNSPECIFIED.,.F.,.F.,(4,1,1,4),(-1.5707963267949,-0.897597901025656,-0.448798950512828,
8.39547499031813E-17),.UNSPECIFIED.);
#235=B_SPLINE_CURVE_WITH_KNOTS('',3,(#1440,#1441,#1442,#1443,#1444,#1445),
 .UNSPECIFIED.,.F.,.F.,(4,1,1,4),(-8.39547499031813E-17,0.448798950512828,
0.897597901025656,1.5707963267949),.UNSPECIFIED.);
#236=B_SPLINE_CURVE_WITH_KNOTS('',3,(#1462,#1463,#1464,#1465),
 .UNSPECIFIED.,.F.,.F.,(4,4),(-3.17828893512375,-3.1712962539294),
 .UNSPECIFIED.);
#237=B_SPLINE_CURVE_WITH_KNOTS('',3,(#1466,#1467,#1468,#1469),
 .UNSPECIFIED.,.F.,.F.,(4,4),(3.1712962539294,3.17828893512375),
 .UNSPECIFIED.);
#238=B_SPLINE_CURVE_WITH_KNOTS('',3,(#1495,#1496,#1497,#1498),
 .UNSPECIFIED.,.F.,.F.,(4,4),(6.0143537971699,6.02134647836425),
 .UNSPECIFIED.);
#239=B_SPLINE_CURVE_WITH_KNOTS('',3,(#1499,#1500,#1501,#1502),
 .UNSPECIFIED.,.F.,.F.,(4,4),(-6.02134647836425,-6.0143537971699),
 .UNSPECIFIED.);
#240=B_SPLINE_CURVE_WITH_KNOTS('',3,(#1519,#1520,#1521,#1522),
 .UNSPECIFIED.,.F.,.F.,(4,4),(-1.58242188471226,-1.5707963267949),
 .UNSPECIFIED.);
#241=B_SPLINE_CURVE_WITH_KNOTS('',3,(#1523,#1524,#1525,#1526),
 .UNSPECIFIED.,.F.,.F.,(4,4),(1.5707963267949,1.58242188471226),
 .UNSPECIFIED.);
#242=LINE('',#1265,#314);
#243=LINE('',#1274,#315);
#244=LINE('',#1284,#316);
#245=LINE('',#1285,#317);
#246=LINE('',#1286,#318);
#247=LINE('',#1313,#319);
#248=LINE('',#1329,#320);
#249=LINE('',#1331,#321);
#250=LINE('',#1333,#322);
#251=LINE('',#1334,#323);
#252=LINE('',#1385,#324);
#253=LINE('',#1394,#325);
#254=LINE('',#1404,#326);
#255=LINE('',#1405,#327);
#256=LINE('',#1406,#328);
#257=LINE('',#1433,#329);
#258=LINE('',#1473,#330);
#259=LINE('',#1475,#331);
#260=LINE('',#1477,#332);
#261=LINE('',#1478,#333);
#262=LINE('',#1529,#334);
#263=LINE('',#1532,#335);
#264=LINE('',#1535,#336);
#265=LINE('',#1536,#337);
#266=LINE('',#1539,#338);
#267=LINE('',#1544,#339);
#268=LINE('',#1545,#340);
#269=LINE('',#1548,#341);
#270=LINE('',#1554,#342);
#271=LINE('',#1563,#343);
#272=LINE('',#1572,#344);
#273=LINE('',#1581,#345);
#274=LINE('',#1600,#346);
#275=LINE('',#1601,#347);
#276=LINE('',#1604,#348);
#277=LINE('',#1607,#349);
#278=LINE('',#1611,#350);
#279=LINE('',#1615,#351);
#280=LINE('',#1619,#352);
#281=LINE('',#1623,#353);
#282=LINE('',#1627,#354);
#283=LINE('',#1630,#355);
#284=LINE('',#1633,#356);
#285=LINE('',#1635,#357);
#286=LINE('',#1637,#358);
#287=LINE('',#1639,#359);
#288=LINE('',#1641,#360);
#289=LINE('',#1642,#361);
#290=LINE('',#1645,#362);
#291=LINE('',#1649,#363);
#292=LINE('',#1651,#364);
#293=LINE('',#1653,#365);
#294=LINE('',#1655,#366);
#295=LINE('',#1657,#367);
#296=LINE('',#1658,#368);
#297=LINE('',#1660,#369);
#298=LINE('',#1669,#370);
#299=LINE('',#1673,#371);
#300=LINE('',#1676,#372);
#301=LINE('',#1680,#373);
#302=LINE('',#1684,#374);
#303=LINE('',#1687,#375);
#304=LINE('',#1690,#376);
#305=LINE('',#1692,#377);
#306=LINE('',#1697,#378);
#307=LINE('',#1698,#379);
#308=LINE('',#1700,#380);
#309=LINE('',#1701,#381);
#310=LINE('',#1703,#382);
#311=LINE('',#1705,#383);
#312=LINE('',#1708,#384);
#313=LINE('',#1711,#385);
#314=VECTOR('',#1000,10.);
#315=VECTOR('',#1001,10.);
#316=VECTOR('',#1004,10.);
#317=VECTOR('',#1005,10.);
#318=VECTOR('',#1006,10.);
#319=VECTOR('',#1007,10.);
#320=VECTOR('',#1010,10.);
#321=VECTOR('',#1011,10.);
#322=VECTOR('',#1012,10.);
#323=VECTOR('',#1013,10.);
#324=VECTOR('',#1014,10.);
#325=VECTOR('',#1015,10.);
#326=VECTOR('',#1018,10.);
#327=VECTOR('',#1019,10.);
#328=VECTOR('',#1020,10.);
#329=VECTOR('',#1021,10.);
#330=VECTOR('',#1024,10.);
#331=VECTOR('',#1025,10.);
#332=VECTOR('',#1026,10.);
#333=VECTOR('',#1027,10.);
#334=VECTOR('',#1030,10.);
#335=VECTOR('',#1033,10.);
#336=VECTOR('',#1036,10.);
#337=VECTOR('',#1037,10.);
#338=VECTOR('',#1040,10.);
#339=VECTOR('',#1047,10.);
#340=VECTOR('',#1048,10.);
#341=VECTOR('',#1051,10.);
#342=VECTOR('',#1058,1.65);
#343=VECTOR('',#1069,1.65);
#344=VECTOR('',#1080,1.65);
#345=VECTOR('',#1091,1.65);
#346=VECTOR('',#1116,10.);
#347=VECTOR('',#1117,10.);
#348=VECTOR('',#1120,10.);
#349=VECTOR('',#1125,10.);
#350=VECTOR('',#1128,10.);
#351=VECTOR('',#1131,10.);
#352=VECTOR('',#1134,10.);
#353=VECTOR('',#1137,10.);
#354=VECTOR('',#1142,10.);
#355=VECTOR('',#1145,10.);
#356=VECTOR('',#1148,10.);
#357=VECTOR('',#1149,10.);
#358=VECTOR('',#1150,10.);
#359=VECTOR('',#1151,10.);
#360=VECTOR('',#1152,10.);
#361=VECTOR('',#1153,10.);
#362=VECTOR('',#1156,10.);
#363=VECTOR('',#1161,10.);
#364=VECTOR('',#1162,10.);
#365=VECTOR('',#1163,10.);
#366=VECTOR('',#1164,10.);
#367=VECTOR('',#1165,10.);
#368=VECTOR('',#1166,10.);
#369=VECTOR('',#1169,1.25);
#370=VECTOR('',#1182,10.);
#371=VECTOR('',#1185,10.);
#372=VECTOR('',#1190,1.25);
#373=VECTOR('',#1195,10.);
#374=VECTOR('',#1200,10.);
#375=VECTOR('',#1203,10.);
#376=VECTOR('',#1206,10.);
#377=VECTOR('',#1209,1.25);
#378=VECTOR('',#1214,10.);
#379=VECTOR('',#1215,10.);
#380=VECTOR('',#1218,10.);
#381=VECTOR('',#1219,10.);
#382=VECTOR('',#1222,10.);
#383=VECTOR('',#1225,1.25);
#384=VECTOR('',#1228,10.);
#385=VECTOR('',#1233,10.);
#386=VERTEX_POINT('',#1263);
#387=VERTEX_POINT('',#1264);
#388=VERTEX_POINT('',#1266);
#389=VERTEX_POINT('',#1273);
#390=VERTEX_POINT('',#1282);
#391=VERTEX_POINT('',#1283);
#392=VERTEX_POINT('',#1311);
#393=VERTEX_POINT('',#1312);
#394=VERTEX_POINT('',#1327);
#395=VERTEX_POINT('',#1328);
#396=VERTEX_POINT('',#1330);
#397=VERTEX_POINT('',#1332);
#398=VERTEX_POINT('',#1383);
#399=VERTEX_POINT('',#1384);
#400=VERTEX_POINT('',#1386);
#401=VERTEX_POINT('',#1393);
#402=VERTEX_POINT('',#1402);
#403=VERTEX_POINT('',#1403);
#404=VERTEX_POINT('',#1431);
#405=VERTEX_POINT('',#1432);
#406=VERTEX_POINT('',#1471);
#407=VERTEX_POINT('',#1472);
#408=VERTEX_POINT('',#1474);
#409=VERTEX_POINT('',#1476);
#410=VERTEX_POINT('',#1528);
#411=VERTEX_POINT('',#1530);
#412=VERTEX_POINT('',#1534);
#413=VERTEX_POINT('',#1538);
#414=VERTEX_POINT('',#1543);
#415=VERTEX_POINT('',#1547);
#416=VERTEX_POINT('',#1551);
#417=VERTEX_POINT('',#1553);
#418=VERTEX_POINT('',#1557);
#419=VERTEX_POINT('',#1560);
#420=VERTEX_POINT('',#1562);
#421=VERTEX_POINT('',#1566);
#422=VERTEX_POINT('',#1569);
#423=VERTEX_POINT('',#1571);
#424=VERTEX_POINT('',#1575);
#425=VERTEX_POINT('',#1578);
#426=VERTEX_POINT('',#1580);
#427=VERTEX_POINT('',#1584);
#428=VERTEX_POINT('',#1587);
#429=VERTEX_POINT('',#1590);
#430=VERTEX_POINT('',#1593);
#431=VERTEX_POINT('',#1596);
#432=VERTEX_POINT('',#1599);
#433=VERTEX_POINT('',#1603);
#434=VERTEX_POINT('',#1609);
#435=VERTEX_POINT('',#1610);
#436=VERTEX_POINT('',#1612);
#437=VERTEX_POINT('',#1614);
#438=VERTEX_POINT('',#1616);
#439=VERTEX_POINT('',#1618);
#440=VERTEX_POINT('',#1620);
#441=VERTEX_POINT('',#1622);
#442=VERTEX_POINT('',#1626);
#443=VERTEX_POINT('',#1628);
#444=VERTEX_POINT('',#1632);
#445=VERTEX_POINT('',#1634);
#446=VERTEX_POINT('',#1636);
#447=VERTEX_POINT('',#1638);
#448=VERTEX_POINT('',#1640);
#449=VERTEX_POINT('',#1644);
#450=VERTEX_POINT('',#1648);
#451=VERTEX_POINT('',#1650);
#452=VERTEX_POINT('',#1652);
#453=VERTEX_POINT('',#1654);
#454=VERTEX_POINT('',#1656);
#455=VERTEX_POINT('',#1666);
#456=VERTEX_POINT('',#1668);
#457=VERTEX_POINT('',#1670);
#458=VERTEX_POINT('',#1672);
#459=VERTEX_POINT('',#1678);
#460=VERTEX_POINT('',#1682);
#461=VERTEX_POINT('',#1686);
#462=VERTEX_POINT('',#1688);
#463=VERTEX_POINT('',#1694);
#464=VERTEX_POINT('',#1695);
#465=VERTEX_POINT('',#1707);
#466=EDGE_CURVE('',#386,#387,#242,.T.);
#467=EDGE_CURVE('',#387,#388,#226,.T.);
#468=EDGE_CURVE('',#388,#389,#243,.T.);
#469=EDGE_CURVE('',#389,#386,#227,.T.);
#470=EDGE_CURVE('',#390,#391,#244,.T.);
#471=EDGE_CURVE('',#391,#389,#245,.T.);
#472=EDGE_CURVE('',#388,#390,#246,.T.);
#473=EDGE_CURVE('',#392,#393,#247,.T.);
#474=EDGE_CURVE('',#393,#391,#228,.T.);
#475=EDGE_CURVE('',#390,#392,#229,.T.);
#476=EDGE_CURVE('',#394,#395,#248,.T.);
#477=EDGE_CURVE('',#395,#396,#249,.T.);
#478=EDGE_CURVE('',#396,#397,#250,.T.);
#479=EDGE_CURVE('',#397,#394,#251,.T.);
#480=EDGE_CURVE('',#396,#393,#230,.T.);
#481=EDGE_CURVE('',#392,#397,#231,.T.);
#482=EDGE_CURVE('',#398,#399,#252,.T.);
#483=EDGE_CURVE('',#399,#400,#232,.T.);
#484=EDGE_CURVE('',#400,#401,#253,.T.);
#485=EDGE_CURVE('',#401,#398,#233,.T.);
#486=EDGE_CURVE('',#402,#403,#254,.T.);
#487=EDGE_CURVE('',#403,#399,#255,.T.);
#488=EDGE_CURVE('',#398,#402,#256,.T.);
#489=EDGE_CURVE('',#404,#405,#257,.T.);
#490=EDGE_CURVE('',#405,#403,#234,.T.);
#491=EDGE_CURVE('',#402,#404,#235,.T.);
#492=EDGE_CURVE('',#400,#395,#236,.T.);
#493=EDGE_CURVE('',#394,#401,#237,.T.);
#494=EDGE_CURVE('',#406,#407,#258,.T.);
#495=EDGE_CURVE('',#407,#408,#259,.T.);
#496=EDGE_CURVE('',#408,#409,#260,.T.);
#497=EDGE_CURVE('',#409,#406,#261,.T.);
#498=EDGE_CURVE('',#406,#405,#238,.T.);
#499=EDGE_CURVE('',#404,#407,#239,.T.);
#500=EDGE_CURVE('',#386,#409,#240,.T.);
#501=EDGE_CURVE('',#408,#387,#241,.T.);
#502=EDGE_CURVE('',#410,#399,#262,.T.);
#503=EDGE_CURVE('',#411,#410,#24,.T.);
#504=EDGE_CURVE('',#411,#395,#263,.T.);
#505=EDGE_CURVE('',#412,#403,#264,.T.);
#506=EDGE_CURVE('',#410,#412,#265,.T.);
#507=EDGE_CURVE('',#413,#406,#266,.T.);
#508=EDGE_CURVE('',#412,#413,#25,.T.);
#509=EDGE_CURVE('',#414,#386,#267,.T.);
#510=EDGE_CURVE('',#413,#414,#268,.T.);
#511=EDGE_CURVE('',#415,#389,#269,.T.);
#512=EDGE_CURVE('',#414,#415,#26,.T.);
#513=EDGE_CURVE('',#416,#416,#27,.T.);
#514=EDGE_CURVE('',#416,#417,#270,.T.);
#515=EDGE_CURVE('',#417,#417,#28,.T.);
#516=EDGE_CURVE('',#418,#418,#29,.T.);
#517=EDGE_CURVE('',#419,#419,#30,.T.);
#518=EDGE_CURVE('',#419,#420,#271,.T.);
#519=EDGE_CURVE('',#420,#420,#31,.T.);
#520=EDGE_CURVE('',#421,#421,#32,.T.);
#521=EDGE_CURVE('',#422,#422,#33,.T.);
#522=EDGE_CURVE('',#422,#423,#272,.T.);
#523=EDGE_CURVE('',#423,#423,#34,.T.);
#524=EDGE_CURVE('',#424,#424,#35,.T.);
#525=EDGE_CURVE('',#425,#425,#36,.T.);
#526=EDGE_CURVE('',#425,#426,#273,.T.);
#527=EDGE_CURVE('',#426,#426,#37,.T.);
#528=EDGE_CURVE('',#427,#427,#38,.T.);
#529=EDGE_CURVE('',#428,#428,#39,.T.);
#530=EDGE_CURVE('',#429,#429,#40,.T.);
#531=EDGE_CURVE('',#430,#430,#41,.T.);
#532=EDGE_CURVE('',#431,#431,#42,.T.);
#533=EDGE_CURVE('',#432,#391,#274,.T.);
#534=EDGE_CURVE('',#415,#432,#275,.T.);
#535=EDGE_CURVE('',#433,#393,#276,.T.);
#536=EDGE_CURVE('',#432,#433,#43,.T.);
#537=EDGE_CURVE('',#433,#411,#277,.T.);
#538=EDGE_CURVE('',#434,#435,#278,.T.);
#539=EDGE_CURVE('',#436,#434,#44,.T.);
#540=EDGE_CURVE('',#437,#436,#279,.T.);
#541=EDGE_CURVE('',#438,#437,#45,.T.);
#542=EDGE_CURVE('',#439,#438,#280,.T.);
#543=EDGE_CURVE('',#440,#439,#46,.T.);
#544=EDGE_CURVE('',#441,#440,#281,.T.);
#545=EDGE_CURVE('',#435,#441,#47,.T.);
#546=EDGE_CURVE('',#437,#442,#282,.T.);
#547=EDGE_CURVE('',#443,#442,#48,.T.);
#548=EDGE_CURVE('',#438,#443,#283,.T.);
#549=EDGE_CURVE('',#436,#444,#284,.T.);
#550=EDGE_CURVE('',#445,#444,#285,.T.);
#551=EDGE_CURVE('',#446,#445,#286,.T.);
#552=EDGE_CURVE('',#447,#446,#287,.T.);
#553=EDGE_CURVE('',#447,#448,#288,.T.);
#554=EDGE_CURVE('',#442,#448,#289,.T.);
#555=EDGE_CURVE('',#449,#434,#290,.T.);
#556=EDGE_CURVE('',#444,#449,#49,.T.);
#557=EDGE_CURVE('',#435,#450,#291,.T.);
#558=EDGE_CURVE('',#451,#450,#292,.T.);
#559=EDGE_CURVE('',#452,#451,#293,.T.);
#560=EDGE_CURVE('',#453,#452,#294,.T.);
#561=EDGE_CURVE('',#453,#454,#295,.T.);
#562=EDGE_CURVE('',#449,#454,#296,.T.);
#563=EDGE_CURVE('',#427,#430,#297,.T.);
#564=EDGE_CURVE('',#446,#453,#50,.T.);
#565=EDGE_CURVE('',#454,#445,#51,.T.);
#566=EDGE_CURVE('',#452,#455,#52,.T.);
#567=EDGE_CURVE('',#455,#456,#298,.T.);
#568=EDGE_CURVE('',#456,#457,#53,.T.);
#569=EDGE_CURVE('',#457,#458,#299,.T.);
#570=EDGE_CURVE('',#458,#447,#54,.T.);
#571=EDGE_CURVE('',#421,#428,#300,.T.);
#572=EDGE_CURVE('',#459,#451,#55,.T.);
#573=EDGE_CURVE('',#455,#459,#301,.T.);
#574=EDGE_CURVE('',#450,#460,#56,.T.);
#575=EDGE_CURVE('',#460,#459,#302,.T.);
#576=EDGE_CURVE('',#456,#461,#303,.T.);
#577=EDGE_CURVE('',#462,#461,#57,.T.);
#578=EDGE_CURVE('',#457,#462,#304,.T.);
#579=EDGE_CURVE('',#418,#431,#305,.T.);
#580=EDGE_CURVE('',#463,#464,#58,.T.);
#581=EDGE_CURVE('',#464,#462,#306,.T.);
#582=EDGE_CURVE('',#461,#463,#307,.T.);
#583=EDGE_CURVE('',#439,#464,#308,.T.);
#584=EDGE_CURVE('',#440,#463,#309,.T.);
#585=EDGE_CURVE('',#441,#460,#310,.T.);
#586=EDGE_CURVE('',#424,#429,#311,.T.);
#587=EDGE_CURVE('',#458,#465,#312,.T.);
#588=EDGE_CURVE('',#448,#465,#59,.T.);
#589=EDGE_CURVE('',#465,#443,#313,.T.);
#590=ORIENTED_EDGE('',*,*,#466,.T.);
#591=ORIENTED_EDGE('',*,*,#467,.T.);
#592=ORIENTED_EDGE('',*,*,#468,.T.);
#593=ORIENTED_EDGE('',*,*,#469,.T.);
#594=ORIENTED_EDGE('',*,*,#470,.T.);
#595=ORIENTED_EDGE('',*,*,#471,.T.);
#596=ORIENTED_EDGE('',*,*,#468,.F.);
#597=ORIENTED_EDGE('',*,*,#472,.T.);
#598=ORIENTED_EDGE('',*,*,#473,.T.);
#599=ORIENTED_EDGE('',*,*,#474,.T.);
#600=ORIENTED_EDGE('',*,*,#470,.F.);
#601=ORIENTED_EDGE('',*,*,#475,.T.);
#602=ORIENTED_EDGE('',*,*,#476,.T.);
#603=ORIENTED_EDGE('',*,*,#477,.T.);
#604=ORIENTED_EDGE('',*,*,#478,.T.);
#605=ORIENTED_EDGE('',*,*,#479,.T.);
#606=ORIENTED_EDGE('',*,*,#478,.F.);
#607=ORIENTED_EDGE('',*,*,#480,.T.);
#608=ORIENTED_EDGE('',*,*,#473,.F.);
#609=ORIENTED_EDGE('',*,*,#481,.T.);
#610=ORIENTED_EDGE('',*,*,#482,.T.);
#611=ORIENTED_EDGE('',*,*,#483,.T.);
#612=ORIENTED_EDGE('',*,*,#484,.T.);
#613=ORIENTED_EDGE('',*,*,#485,.T.);
#614=ORIENTED_EDGE('',*,*,#486,.T.);
#615=ORIENTED_EDGE('',*,*,#487,.T.);
#616=ORIENTED_EDGE('',*,*,#482,.F.);
#617=ORIENTED_EDGE('',*,*,#488,.T.);
#618=ORIENTED_EDGE('',*,*,#489,.T.);
#619=ORIENTED_EDGE('',*,*,#490,.T.);
#620=ORIENTED_EDGE('',*,*,#486,.F.);
#621=ORIENTED_EDGE('',*,*,#491,.T.);
#622=ORIENTED_EDGE('',*,*,#484,.F.);
#623=ORIENTED_EDGE('',*,*,#492,.T.);
#624=ORIENTED_EDGE('',*,*,#476,.F.);
#625=ORIENTED_EDGE('',*,*,#493,.T.);
#626=ORIENTED_EDGE('',*,*,#494,.T.);
#627=ORIENTED_EDGE('',*,*,#495,.T.);
#628=ORIENTED_EDGE('',*,*,#496,.T.);
#629=ORIENTED_EDGE('',*,*,#497,.T.);
#630=ORIENTED_EDGE('',*,*,#494,.F.);
#631=ORIENTED_EDGE('',*,*,#498,.T.);
#632=ORIENTED_EDGE('',*,*,#489,.F.);
#633=ORIENTED_EDGE('',*,*,#499,.T.);
#634=ORIENTED_EDGE('',*,*,#466,.F.);
#635=ORIENTED_EDGE('',*,*,#500,.T.);
#636=ORIENTED_EDGE('',*,*,#496,.F.);
#637=ORIENTED_EDGE('',*,*,#501,.T.);
#638=ORIENTED_EDGE('',*,*,#492,.F.);
#639=ORIENTED_EDGE('',*,*,#483,.F.);
#640=ORIENTED_EDGE('',*,*,#502,.F.);
#641=ORIENTED_EDGE('',*,*,#503,.F.);
#642=ORIENTED_EDGE('',*,*,#504,.T.);
#643=ORIENTED_EDGE('',*,*,#487,.F.);
#644=ORIENTED_EDGE('',*,*,#505,.F.);
#645=ORIENTED_EDGE('',*,*,#506,.F.);
#646=ORIENTED_EDGE('',*,*,#502,.T.);
#647=ORIENTED_EDGE('',*,*,#490,.F.);
#648=ORIENTED_EDGE('',*,*,#498,.F.);
#649=ORIENTED_EDGE('',*,*,#507,.F.);
#650=ORIENTED_EDGE('',*,*,#508,.F.);
#651=ORIENTED_EDGE('',*,*,#505,.T.);
#652=ORIENTED_EDGE('',*,*,#495,.F.);
#653=ORIENTED_EDGE('',*,*,#499,.F.);
#654=ORIENTED_EDGE('',*,*,#491,.F.);
#655=ORIENTED_EDGE('',*,*,#488,.F.);
#656=ORIENTED_EDGE('',*,*,#485,.F.);
#657=ORIENTED_EDGE('',*,*,#493,.F.);
#658=ORIENTED_EDGE('',*,*,#479,.F.);
#659=ORIENTED_EDGE('',*,*,#481,.F.);
#660=ORIENTED_EDGE('',*,*,#475,.F.);
#661=ORIENTED_EDGE('',*,*,#472,.F.);
#662=ORIENTED_EDGE('',*,*,#467,.F.);
#663=ORIENTED_EDGE('',*,*,#501,.F.);
#664=ORIENTED_EDGE('',*,*,#500,.F.);
#665=ORIENTED_EDGE('',*,*,#509,.F.);
#666=ORIENTED_EDGE('',*,*,#510,.F.);
#667=ORIENTED_EDGE('',*,*,#507,.T.);
#668=ORIENTED_EDGE('',*,*,#497,.F.);
#669=ORIENTED_EDGE('',*,*,#469,.F.);
#670=ORIENTED_EDGE('',*,*,#511,.F.);
#671=ORIENTED_EDGE('',*,*,#512,.F.);
#672=ORIENTED_EDGE('',*,*,#509,.T.);
#673=ORIENTED_EDGE('',*,*,#513,.F.);
#674=ORIENTED_EDGE('',*,*,#514,.T.);
#675=ORIENTED_EDGE('',*,*,#515,.F.);
#676=ORIENTED_EDGE('',*,*,#514,.F.);
#677=ORIENTED_EDGE('',*,*,#513,.T.);
#678=ORIENTED_EDGE('',*,*,#516,.F.);
#679=ORIENTED_EDGE('',*,*,#517,.F.);
#680=ORIENTED_EDGE('',*,*,#518,.T.);
#681=ORIENTED_EDGE('',*,*,#519,.F.);
#682=ORIENTED_EDGE('',*,*,#518,.F.);
#683=ORIENTED_EDGE('',*,*,#517,.T.);
#684=ORIENTED_EDGE('',*,*,#520,.F.);
#685=ORIENTED_EDGE('',*,*,#521,.F.);
#686=ORIENTED_EDGE('',*,*,#522,.T.);
#687=ORIENTED_EDGE('',*,*,#523,.F.);
#688=ORIENTED_EDGE('',*,*,#522,.F.);
#689=ORIENTED_EDGE('',*,*,#521,.T.);
#690=ORIENTED_EDGE('',*,*,#524,.F.);
#691=ORIENTED_EDGE('',*,*,#525,.F.);
#692=ORIENTED_EDGE('',*,*,#526,.T.);
#693=ORIENTED_EDGE('',*,*,#527,.F.);
#694=ORIENTED_EDGE('',*,*,#526,.F.);
#695=ORIENTED_EDGE('',*,*,#525,.T.);
#696=ORIENTED_EDGE('',*,*,#528,.F.);
#697=ORIENTED_EDGE('',*,*,#529,.F.);
#698=ORIENTED_EDGE('',*,*,#530,.F.);
#699=ORIENTED_EDGE('',*,*,#531,.F.);
#700=ORIENTED_EDGE('',*,*,#532,.F.);
#701=ORIENTED_EDGE('',*,*,#471,.F.);
#702=ORIENTED_EDGE('',*,*,#533,.F.);
#703=ORIENTED_EDGE('',*,*,#534,.F.);
#704=ORIENTED_EDGE('',*,*,#511,.T.);
#705=ORIENTED_EDGE('',*,*,#474,.F.);
#706=ORIENTED_EDGE('',*,*,#535,.F.);
#707=ORIENTED_EDGE('',*,*,#536,.F.);
#708=ORIENTED_EDGE('',*,*,#533,.T.);
#709=ORIENTED_EDGE('',*,*,#477,.F.);
#710=ORIENTED_EDGE('',*,*,#504,.F.);
#711=ORIENTED_EDGE('',*,*,#537,.F.);
#712=ORIENTED_EDGE('',*,*,#535,.T.);
#713=ORIENTED_EDGE('',*,*,#480,.F.);
#714=ORIENTED_EDGE('',*,*,#512,.T.);
#715=ORIENTED_EDGE('',*,*,#534,.T.);
#716=ORIENTED_EDGE('',*,*,#536,.T.);
#717=ORIENTED_EDGE('',*,*,#537,.T.);
#718=ORIENTED_EDGE('',*,*,#503,.T.);
#719=ORIENTED_EDGE('',*,*,#506,.T.);
#720=ORIENTED_EDGE('',*,*,#508,.T.);
#721=ORIENTED_EDGE('',*,*,#510,.T.);
#722=ORIENTED_EDGE('',*,*,#538,.F.);
#723=ORIENTED_EDGE('',*,*,#539,.F.);
#724=ORIENTED_EDGE('',*,*,#540,.F.);
#725=ORIENTED_EDGE('',*,*,#541,.F.);
#726=ORIENTED_EDGE('',*,*,#542,.F.);
#727=ORIENTED_EDGE('',*,*,#543,.F.);
#728=ORIENTED_EDGE('',*,*,#544,.F.);
#729=ORIENTED_EDGE('',*,*,#545,.F.);
#730=ORIENTED_EDGE('',*,*,#541,.T.);
#731=ORIENTED_EDGE('',*,*,#546,.T.);
#732=ORIENTED_EDGE('',*,*,#547,.F.);
#733=ORIENTED_EDGE('',*,*,#548,.F.);
#734=ORIENTED_EDGE('',*,*,#540,.T.);
#735=ORIENTED_EDGE('',*,*,#549,.T.);
#736=ORIENTED_EDGE('',*,*,#550,.F.);
#737=ORIENTED_EDGE('',*,*,#551,.F.);
#738=ORIENTED_EDGE('',*,*,#552,.F.);
#739=ORIENTED_EDGE('',*,*,#553,.T.);
#740=ORIENTED_EDGE('',*,*,#554,.F.);
#741=ORIENTED_EDGE('',*,*,#546,.F.);
#742=ORIENTED_EDGE('',*,*,#539,.T.);
#743=ORIENTED_EDGE('',*,*,#555,.F.);
#744=ORIENTED_EDGE('',*,*,#556,.F.);
#745=ORIENTED_EDGE('',*,*,#549,.F.);
#746=ORIENTED_EDGE('',*,*,#538,.T.);
#747=ORIENTED_EDGE('',*,*,#557,.T.);
#748=ORIENTED_EDGE('',*,*,#558,.F.);
#749=ORIENTED_EDGE('',*,*,#559,.F.);
#750=ORIENTED_EDGE('',*,*,#560,.F.);
#751=ORIENTED_EDGE('',*,*,#561,.T.);
#752=ORIENTED_EDGE('',*,*,#562,.F.);
#753=ORIENTED_EDGE('',*,*,#555,.T.);
#754=ORIENTED_EDGE('',*,*,#528,.T.);
#755=ORIENTED_EDGE('',*,*,#563,.T.);
#756=ORIENTED_EDGE('',*,*,#531,.T.);
#757=ORIENTED_EDGE('',*,*,#563,.F.);
#758=ORIENTED_EDGE('',*,*,#564,.F.);
#759=ORIENTED_EDGE('',*,*,#551,.T.);
#760=ORIENTED_EDGE('',*,*,#565,.F.);
#761=ORIENTED_EDGE('',*,*,#561,.F.);
#762=ORIENTED_EDGE('',*,*,#562,.T.);
#763=ORIENTED_EDGE('',*,*,#565,.T.);
#764=ORIENTED_EDGE('',*,*,#550,.T.);
#765=ORIENTED_EDGE('',*,*,#556,.T.);
#766=ORIENTED_EDGE('',*,*,#527,.T.);
#767=ORIENTED_EDGE('',*,*,#564,.T.);
#768=ORIENTED_EDGE('',*,*,#560,.T.);
#769=ORIENTED_EDGE('',*,*,#566,.T.);
#770=ORIENTED_EDGE('',*,*,#567,.T.);
#771=ORIENTED_EDGE('',*,*,#568,.T.);
#772=ORIENTED_EDGE('',*,*,#569,.T.);
#773=ORIENTED_EDGE('',*,*,#570,.T.);
#774=ORIENTED_EDGE('',*,*,#552,.T.);
#775=ORIENTED_EDGE('',*,*,#520,.T.);
#776=ORIENTED_EDGE('',*,*,#571,.T.);
#777=ORIENTED_EDGE('',*,*,#529,.T.);
#778=ORIENTED_EDGE('',*,*,#571,.F.);
#779=ORIENTED_EDGE('',*,*,#566,.F.);
#780=ORIENTED_EDGE('',*,*,#559,.T.);
#781=ORIENTED_EDGE('',*,*,#572,.F.);
#782=ORIENTED_EDGE('',*,*,#573,.F.);
#783=ORIENTED_EDGE('',*,*,#572,.T.);
#784=ORIENTED_EDGE('',*,*,#558,.T.);
#785=ORIENTED_EDGE('',*,*,#574,.T.);
#786=ORIENTED_EDGE('',*,*,#575,.T.);
#787=ORIENTED_EDGE('',*,*,#519,.T.);
#788=ORIENTED_EDGE('',*,*,#568,.F.);
#789=ORIENTED_EDGE('',*,*,#576,.T.);
#790=ORIENTED_EDGE('',*,*,#577,.F.);
#791=ORIENTED_EDGE('',*,*,#578,.F.);
#792=ORIENTED_EDGE('',*,*,#516,.T.);
#793=ORIENTED_EDGE('',*,*,#579,.T.);
#794=ORIENTED_EDGE('',*,*,#532,.T.);
#795=ORIENTED_EDGE('',*,*,#579,.F.);
#796=ORIENTED_EDGE('',*,*,#580,.T.);
#797=ORIENTED_EDGE('',*,*,#581,.T.);
#798=ORIENTED_EDGE('',*,*,#577,.T.);
#799=ORIENTED_EDGE('',*,*,#582,.T.);
#800=ORIENTED_EDGE('',*,*,#515,.T.);
#801=ORIENTED_EDGE('',*,*,#543,.T.);
#802=ORIENTED_EDGE('',*,*,#583,.T.);
#803=ORIENTED_EDGE('',*,*,#580,.F.);
#804=ORIENTED_EDGE('',*,*,#584,.F.);
#805=ORIENTED_EDGE('',*,*,#544,.T.);
#806=ORIENTED_EDGE('',*,*,#584,.T.);
#807=ORIENTED_EDGE('',*,*,#582,.F.);
#808=ORIENTED_EDGE('',*,*,#576,.F.);
#809=ORIENTED_EDGE('',*,*,#567,.F.);
#810=ORIENTED_EDGE('',*,*,#573,.T.);
#811=ORIENTED_EDGE('',*,*,#575,.F.);
#812=ORIENTED_EDGE('',*,*,#585,.F.);
#813=ORIENTED_EDGE('',*,*,#524,.T.);
#814=ORIENTED_EDGE('',*,*,#586,.T.);
#815=ORIENTED_EDGE('',*,*,#530,.T.);
#816=ORIENTED_EDGE('',*,*,#586,.F.);
#817=ORIENTED_EDGE('',*,*,#570,.F.);
#818=ORIENTED_EDGE('',*,*,#587,.T.);
#819=ORIENTED_EDGE('',*,*,#588,.F.);
#820=ORIENTED_EDGE('',*,*,#553,.F.);
#821=ORIENTED_EDGE('',*,*,#547,.T.);
#822=ORIENTED_EDGE('',*,*,#554,.T.);
#823=ORIENTED_EDGE('',*,*,#588,.T.);
#824=ORIENTED_EDGE('',*,*,#589,.T.);
#825=ORIENTED_EDGE('',*,*,#523,.T.);
#826=ORIENTED_EDGE('',*,*,#542,.T.);
#827=ORIENTED_EDGE('',*,*,#548,.T.);
#828=ORIENTED_EDGE('',*,*,#589,.F.);
#829=ORIENTED_EDGE('',*,*,#587,.F.);
#830=ORIENTED_EDGE('',*,*,#569,.F.);
#831=ORIENTED_EDGE('',*,*,#578,.T.);
#832=ORIENTED_EDGE('',*,*,#581,.F.);
#833=ORIENTED_EDGE('',*,*,#583,.F.);
#834=ORIENTED_EDGE('',*,*,#545,.T.);
#835=ORIENTED_EDGE('',*,*,#585,.T.);
#836=ORIENTED_EDGE('',*,*,#574,.F.);
#837=ORIENTED_EDGE('',*,*,#557,.F.);
#838=B_SPLINE_SURFACE_WITH_KNOTS('',3,3,((#1239,#1240,#1241,#1242,#1243,
#1244),(#1245,#1246,#1247,#1248,#1249,#1250),(#1251,#1252,#1253,#1254,#1255,
#1256),(#1257,#1258,#1259,#1260,#1261,#1262)),.UNSPECIFIED.,.F.,.F.,.F.,
(4,4),(4,1,1,4),(0.,1.),(1.58242188471226,2.0278992472487,2.47337660978514,
3.14159265358979),.UNSPECIFIED.);
#839=B_SPLINE_SURFACE_WITH_KNOTS('',3,3,((#1287,#1288,#1289,#1290,#1291,
#1292),(#1293,#1294,#1295,#1296,#1297,#1298),(#1299,#1300,#1301,#1302,#1303,
#1304),(#1305,#1306,#1307,#1308,#1309,#1310)),.UNSPECIFIED.,.F.,.F.,.F.,
(4,4),(4,1,1,4),(0.,1.),(-1.14703425780403E-31,0.668216043804657,1.11369340634109,
1.55917076887753),.UNSPECIFIED.);
#840=B_SPLINE_SURFACE_WITH_KNOTS('',3,3,((#1335,#1336,#1337,#1338),(#1339,
#1340,#1341,#1342),(#1343,#1344,#1345,#1346),(#1347,#1348,#1349,#1350)),
 .UNSPECIFIED.,.F.,.F.,.F.,(4,4),(4,4),(0.,1.),(1.55917076887753,1.5707963267949),
 .UNSPECIFIED.);
#841=B_SPLINE_SURFACE_WITH_KNOTS('',3,3,((#1359,#1360,#1361,#1362,#1363,
#1364),(#1365,#1366,#1367,#1368,#1369,#1370),(#1371,#1372,#1373,#1374,#1375,
#1376),(#1377,#1378,#1379,#1380,#1381,#1382)),.UNSPECIFIED.,.F.,.F.,.F.,
(4,4),(4,1,1,4),(0.,1.),(1.5707963267949,2.01959527730772,2.46839422782055,
3.14159265358979),.UNSPECIFIED.);
#842=B_SPLINE_SURFACE_WITH_KNOTS('',3,3,((#1407,#1408,#1409,#1410,#1411,
#1412),(#1413,#1414,#1415,#1416,#1417,#1418),(#1419,#1420,#1421,#1422,#1423,
#1424),(#1425,#1426,#1427,#1428,#1429,#1430)),.UNSPECIFIED.,.F.,.F.,.F.,
(4,4),(4,1,1,4),(0.,1.),(-8.39547499031813E-17,0.448798950512828,0.897597901025656,
1.5707963267949),.UNSPECIFIED.);
#843=B_SPLINE_SURFACE_WITH_KNOTS('',3,3,((#1446,#1447,#1448,#1449),(#1450,
#1451,#1452,#1453),(#1454,#1455,#1456,#1457),(#1458,#1459,#1460,#1461)),
 .UNSPECIFIED.,.F.,.F.,.F.,(4,4),(4,4),(0.,1.),(3.1712962539294,3.17828893512375),
 .UNSPECIFIED.);
#844=B_SPLINE_SURFACE_WITH_KNOTS('',3,3,((#1479,#1480,#1481,#1482),(#1483,
#1484,#1485,#1486),(#1487,#1488,#1489,#1490),(#1491,#1492,#1493,#1494)),
 .UNSPECIFIED.,.F.,.F.,.F.,(4,4),(4,4),(0.,1.),(-6.02134647836425,-6.0143537971699),
 .UNSPECIFIED.);
#845=B_SPLINE_SURFACE_WITH_KNOTS('',3,3,((#1503,#1504,#1505,#1506),(#1507,
#1508,#1509,#1510),(#1511,#1512,#1513,#1514),(#1515,#1516,#1517,#1518)),
 .UNSPECIFIED.,.F.,.F.,.F.,(4,4),(4,4),(0.,1.),(1.5707963267949,1.58242188471226),
 .UNSPECIFIED.);
#846=ADVANCED_FACE('',(#107),#838,.T.);
#847=ADVANCED_FACE('',(#108),#80,.T.);
#848=ADVANCED_FACE('',(#109),#839,.T.);
#849=ADVANCED_FACE('',(#110),#81,.T.);
#850=ADVANCED_FACE('',(#111),#840,.T.);
#851=ADVANCED_FACE('',(#112),#841,.T.);
#852=ADVANCED_FACE('',(#113),#82,.T.);
#853=ADVANCED_FACE('',(#114),#842,.T.);
#854=ADVANCED_FACE('',(#115),#843,.T.);
#855=ADVANCED_FACE('',(#116),#83,.T.);
#856=ADVANCED_FACE('',(#117),#844,.T.);
#857=ADVANCED_FACE('',(#118),#845,.T.);
#858=ADVANCED_FACE('',(#119),#60,.T.);
#859=ADVANCED_FACE('',(#120),#84,.T.);
#860=ADVANCED_FACE('',(#121),#61,.T.);
#861=ADVANCED_FACE('',(#122),#85,.F.);
#862=ADVANCED_FACE('',(#123),#86,.T.);
#863=ADVANCED_FACE('',(#124),#62,.T.);
#864=ADVANCED_FACE('',(#125),#63,.F.);
#865=ADVANCED_FACE('',(#126,#15),#87,.T.);
#866=ADVANCED_FACE('',(#127),#64,.F.);
#867=ADVANCED_FACE('',(#128,#16),#88,.T.);
#868=ADVANCED_FACE('',(#129),#65,.F.);
#869=ADVANCED_FACE('',(#130,#17),#89,.T.);
#870=ADVANCED_FACE('',(#131),#66,.F.);
#871=ADVANCED_FACE('',(#132,#18),#90,.T.);
#872=ADVANCED_FACE('',(#133),#91,.T.);
#873=ADVANCED_FACE('',(#134),#92,.T.);
#874=ADVANCED_FACE('',(#135),#93,.T.);
#875=ADVANCED_FACE('',(#136),#94,.T.);
#876=ADVANCED_FACE('',(#137),#95,.T.);
#877=ADVANCED_FACE('',(#138),#67,.T.);
#878=ADVANCED_FACE('',(#139),#96,.T.);
#879=ADVANCED_FACE('',(#140,#19),#97,.T.);
#880=ADVANCED_FACE('',(#141),#68,.T.);
#881=ADVANCED_FACE('',(#142),#98,.T.);
#882=ADVANCED_FACE('',(#143),#69,.T.);
#883=ADVANCED_FACE('',(#144),#99,.T.);
#884=ADVANCED_FACE('',(#145),#70,.F.);
#885=ADVANCED_FACE('',(#146),#71,.T.);
#886=ADVANCED_FACE('',(#147,#20),#100,.T.);
#887=ADVANCED_FACE('',(#148),#101,.T.);
#888=ADVANCED_FACE('',(#149),#72,.F.);
#889=ADVANCED_FACE('',(#150),#73,.T.);
#890=ADVANCED_FACE('',(#151,#21),#102,.T.);
#891=ADVANCED_FACE('',(#152),#74,.T.);
#892=ADVANCED_FACE('',(#153),#75,.F.);
#893=ADVANCED_FACE('',(#154,#22),#103,.T.);
#894=ADVANCED_FACE('',(#155),#76,.T.);
#895=ADVANCED_FACE('',(#156),#104,.T.);
#896=ADVANCED_FACE('',(#157),#77,.F.);
#897=ADVANCED_FACE('',(#158),#78,.T.);
#898=ADVANCED_FACE('',(#159,#23),#105,.T.);
#899=ADVANCED_FACE('',(#160),#106,.T.);
#900=ADVANCED_FACE('',(#161),#79,.T.);
#901=CLOSED_SHELL('',(#846,#847,#848,#849,#850,#851,#852,#853,#854,#855,
#856,#857,#858,#859,#860,#861,#862,#863,#864,#865,#866,#867,#868,#869,#870,
#871,#872,#873,#874,#875,#876,#877,#878,#879,#880,#881,#882,#883,#884,#885,
#886,#887,#888,#889,#890,#891,#892,#893,#894,#895,#896,#897,#898,#899,#900));
#902=DERIVED_UNIT_ELEMENT(#904,1.);
#903=DERIVED_UNIT_ELEMENT(#1719,-3.);
#904=(
MASS_UNIT()
NAMED_UNIT(*)
SI_UNIT(.KILO.,.GRAM.)
);
#905=DERIVED_UNIT((#902,#903));
#906=MEASURE_REPRESENTATION_ITEM('density measure',
POSITIVE_RATIO_MEASURE(7850.),#905);
#907=PROPERTY_DEFINITION_REPRESENTATION(#912,#909);
#908=PROPERTY_DEFINITION_REPRESENTATION(#913,#910);
#909=REPRESENTATION('material name',(#911),#1716);
#910=REPRESENTATION('density',(#906),#1716);
#911=DESCRIPTIVE_REPRESENTATION_ITEM('\X2\94A2\X0\','\X2\94A2\X0\');
#912=PROPERTY_DEFINITION('material property','material name',#1726);
#913=PROPERTY_DEFINITION('material property','density of part',#1726);
#914=AXIS2_PLACEMENT_3D('',#1238,#998,#999);
#915=AXIS2_PLACEMENT_3D('',#1281,#1002,#1003);
#916=AXIS2_PLACEMENT_3D('',#1326,#1008,#1009);
#917=AXIS2_PLACEMENT_3D('',#1401,#1016,#1017);
#918=AXIS2_PLACEMENT_3D('',#1470,#1022,#1023);
#919=AXIS2_PLACEMENT_3D('',#1527,#1028,#1029);
#920=AXIS2_PLACEMENT_3D('',#1531,#1031,#1032);
#921=AXIS2_PLACEMENT_3D('',#1533,#1034,#1035);
#922=AXIS2_PLACEMENT_3D('',#1537,#1038,#1039);
#923=AXIS2_PLACEMENT_3D('',#1540,#1041,#1042);
#924=AXIS2_PLACEMENT_3D('',#1541,#1043,#1044);
#925=AXIS2_PLACEMENT_3D('',#1542,#1045,#1046);
#926=AXIS2_PLACEMENT_3D('',#1546,#1049,#1050);
#927=AXIS2_PLACEMENT_3D('',#1549,#1052,#1053);
#928=AXIS2_PLACEMENT_3D('',#1550,#1054,#1055);
#929=AXIS2_PLACEMENT_3D('',#1552,#1056,#1057);
#930=AXIS2_PLACEMENT_3D('',#1555,#1059,#1060);
#931=AXIS2_PLACEMENT_3D('',#1556,#1061,#1062);
#932=AXIS2_PLACEMENT_3D('',#1558,#1063,#1064);
#933=AXIS2_PLACEMENT_3D('',#1559,#1065,#1066);
#934=AXIS2_PLACEMENT_3D('',#1561,#1067,#1068);
#935=AXIS2_PLACEMENT_3D('',#1564,#1070,#1071);
#936=AXIS2_PLACEMENT_3D('',#1565,#1072,#1073);
#937=AXIS2_PLACEMENT_3D('',#1567,#1074,#1075);
#938=AXIS2_PLACEMENT_3D('',#1568,#1076,#1077);
#939=AXIS2_PLACEMENT_3D('',#1570,#1078,#1079);
#940=AXIS2_PLACEMENT_3D('',#1573,#1081,#1082);
#941=AXIS2_PLACEMENT_3D('',#1574,#1083,#1084);
#942=AXIS2_PLACEMENT_3D('',#1576,#1085,#1086);
#943=AXIS2_PLACEMENT_3D('',#1577,#1087,#1088);
#944=AXIS2_PLACEMENT_3D('',#1579,#1089,#1090);
#945=AXIS2_PLACEMENT_3D('',#1582,#1092,#1093);
#946=AXIS2_PLACEMENT_3D('',#1583,#1094,#1095);
#947=AXIS2_PLACEMENT_3D('',#1585,#1096,#1097);
#948=AXIS2_PLACEMENT_3D('',#1586,#1098,#1099);
#949=AXIS2_PLACEMENT_3D('',#1588,#1100,#1101);
#950=AXIS2_PLACEMENT_3D('',#1589,#1102,#1103);
#951=AXIS2_PLACEMENT_3D('',#1591,#1104,#1105);
#952=AXIS2_PLACEMENT_3D('',#1592,#1106,#1107);
#953=AXIS2_PLACEMENT_3D('',#1594,#1108,#1109);
#954=AXIS2_PLACEMENT_3D('',#1595,#1110,#1111);
#955=AXIS2_PLACEMENT_3D('',#1597,#1112,#1113);
#956=AXIS2_PLACEMENT_3D('',#1598,#1114,#1115);
#957=AXIS2_PLACEMENT_3D('',#1602,#1118,#1119);
#958=AXIS2_PLACEMENT_3D('',#1605,#1121,#1122);
#959=AXIS2_PLACEMENT_3D('',#1606,#1123,#1124);
#960=AXIS2_PLACEMENT_3D('',#1608,#1126,#1127);
#961=AXIS2_PLACEMENT_3D('',#1613,#1129,#1130);
#962=AXIS2_PLACEMENT_3D('',#1617,#1132,#1133);
#963=AXIS2_PLACEMENT_3D('',#1621,#1135,#1136);
#964=AXIS2_PLACEMENT_3D('',#1624,#1138,#1139);
#965=AXIS2_PLACEMENT_3D('',#1625,#1140,#1141);
#966=AXIS2_PLACEMENT_3D('',#1629,#1143,#1144);
#967=AXIS2_PLACEMENT_3D('',#1631,#1146,#1147);
#968=AXIS2_PLACEMENT_3D('',#1643,#1154,#1155);
#969=AXIS2_PLACEMENT_3D('',#1646,#1157,#1158);
#970=AXIS2_PLACEMENT_3D('',#1647,#1159,#1160);
#971=AXIS2_PLACEMENT_3D('',#1659,#1167,#1168);
#972=AXIS2_PLACEMENT_3D('',#1661,#1170,#1171);
#973=AXIS2_PLACEMENT_3D('',#1662,#1172,#1173);
#974=AXIS2_PLACEMENT_3D('',#1663,#1174,#1175);
#975=AXIS2_PLACEMENT_3D('',#1664,#1176,#1177);
#976=AXIS2_PLACEMENT_3D('',#1665,#1178,#1179);
#977=AXIS2_PLACEMENT_3D('',#1667,#1180,#1181);
#978=AXIS2_PLACEMENT_3D('',#1671,#1183,#1184);
#979=AXIS2_PLACEMENT_3D('',#1674,#1186,#1187);
#980=AXIS2_PLACEMENT_3D('',#1675,#1188,#1189);
#981=AXIS2_PLACEMENT_3D('',#1677,#1191,#1192);
#982=AXIS2_PLACEMENT_3D('',#1679,#1193,#1194);
#983=AXIS2_PLACEMENT_3D('',#1681,#1196,#1197);
#984=AXIS2_PLACEMENT_3D('',#1683,#1198,#1199);
#985=AXIS2_PLACEMENT_3D('',#1685,#1201,#1202);
#986=AXIS2_PLACEMENT_3D('',#1689,#1204,#1205);
#987=AXIS2_PLACEMENT_3D('',#1691,#1207,#1208);
#988=AXIS2_PLACEMENT_3D('',#1693,#1210,#1211);
#989=AXIS2_PLACEMENT_3D('',#1696,#1212,#1213);
#990=AXIS2_PLACEMENT_3D('',#1699,#1216,#1217);
#991=AXIS2_PLACEMENT_3D('',#1702,#1220,#1221);
#992=AXIS2_PLACEMENT_3D('',#1704,#1223,#1224);
#993=AXIS2_PLACEMENT_3D('',#1706,#1226,#1227);
#994=AXIS2_PLACEMENT_3D('',#1709,#1229,#1230);
#995=AXIS2_PLACEMENT_3D('',#1710,#1231,#1232);
#996=AXIS2_PLACEMENT_3D('',#1712,#1234,#1235);
#997=AXIS2_PLACEMENT_3D('',#1713,#1236,#1237);
#998=DIRECTION('axis',(0.,0.,1.));
#999=DIRECTION('refdir',(1.,0.,0.));
#1000=DIRECTION('',(-0.707202566115382,-0.705813419498131,-0.0411332874467082));
#1001=DIRECTION('',(0.,0.731353701619171,-0.681998360062498));
#1002=DIRECTION('center_axis',(0.,-0.681998360062498,-0.731353701619171));
#1003=DIRECTION('ref_axis',(-1.,0.,0.));
#1004=DIRECTION('',(0.,0.731353701619171,-0.681998360062498));
#1005=DIRECTION('',(1.,0.,0.));
#1006=DIRECTION('',(-1.,0.,0.));
#1007=DIRECTION('',(-0.707202566115382,0.705813419498131,0.0411332874467114));
#1008=DIRECTION('center_axis',(-0.707106781186552,-0.705384304606635,-0.049325275616132));
#1009=DIRECTION('ref_axis',(-0.0695873743166638,0.,0.997575860441557));
#1010=DIRECTION('',(-0.707106781186544,0.705384304606644,0.0493252756161323));
#1011=DIRECTION('',(0.,0.0697564737441253,-0.997564050259824));
#1012=DIRECTION('',(0.707106781186543,-0.705384304606644,-0.0493252756161323));
#1013=DIRECTION('',(0.,-0.0697564737441253,0.997564050259824));
#1014=DIRECTION('',(3.25579382485148E-15,0.681998360062499,0.73135370161917));
#1015=DIRECTION('',(0.706963396940629,-0.70552731057757,-0.0493352755677688));
#1016=DIRECTION('center_axis',(0.,-0.731353701619169,0.6819983600625));
#1017=DIRECTION('ref_axis',(1.,0.,0.));
#1018=DIRECTION('',(0.,0.6819983600625,0.731353701619169));
#1019=DIRECTION('',(-1.,0.,0.));
#1020=DIRECTION('',(1.,0.,0.));
#1021=DIRECTION('',(0.706963396940626,0.705527310577573,0.049335275567769));
#1022=DIRECTION('center_axis',(0.707106781186545,-0.705384304606642,-0.0493252756161325));
#1023=DIRECTION('ref_axis',(-0.0695873743166651,0.,-0.997575860441557));
#1024=DIRECTION('',(-0.70710678118655,-0.705384304606638,-0.0493252756161256));
#1025=DIRECTION('',(0.,0.0697564737441253,-0.997564050259824));
#1026=DIRECTION('',(0.70710678118655,0.705384304606637,0.0493252756161319));
#1027=DIRECTION('',(0.,-0.0697564737441253,0.997564050259824));
#1028=DIRECTION('center_axis',(0.,-1.,0.));
#1029=DIRECTION('ref_axis',(-1.,0.,0.));
#1030=DIRECTION('',(0.,-1.,0.));
#1031=DIRECTION('center_axis',(0.,1.,0.));
#1032=DIRECTION('ref_axis',(-1.,0.,0.));
#1033=DIRECTION('',(0.,-1.,0.));
#1034=DIRECTION('center_axis',(0.,0.,1.));
#1035=DIRECTION('ref_axis',(-1.,0.,0.));
#1036=DIRECTION('',(0.,-1.,0.));
#1037=DIRECTION('',(1.,0.,0.));
#1038=DIRECTION('center_axis',(0.,-1.,0.));
#1039=DIRECTION('ref_axis',(0.,0.,1.));
#1040=DIRECTION('',(0.,-1.,0.));
#1041=DIRECTION('center_axis',(0.,1.,0.));
#1042=DIRECTION('ref_axis',(0.,0.,1.));
#1043=DIRECTION('center_axis',(0.,0.997564050259824,0.0697564737441253));
#1044=DIRECTION('ref_axis',(0.,-0.0697564737441253,0.997564050259824));
#1045=DIRECTION('center_axis',(1.,0.,0.));
#1046=DIRECTION('ref_axis',(0.,0.,1.));
#1047=DIRECTION('',(0.,-1.,0.));
#1048=DIRECTION('',(0.,0.,-1.));
#1049=DIRECTION('center_axis',(0.,-1.,0.));
#1050=DIRECTION('ref_axis',(1.,0.,0.));
#1051=DIRECTION('',(0.,-1.,0.));
#1052=DIRECTION('center_axis',(0.,1.,0.));
#1053=DIRECTION('ref_axis',(1.,0.,0.));
#1054=DIRECTION('center_axis',(0.,1.,0.));
#1055=DIRECTION('ref_axis',(1.,0.,0.));
#1056=DIRECTION('center_axis',(0.,1.,0.));
#1057=DIRECTION('ref_axis',(1.,0.,0.));
#1058=DIRECTION('',(0.,1.,0.));
#1059=DIRECTION('center_axis',(0.,-1.,0.));
#1060=DIRECTION('ref_axis',(1.,0.,0.));
#1061=DIRECTION('center_axis',(0.,1.,0.));
#1062=DIRECTION('ref_axis',(1.,0.,0.));
#1063=DIRECTION('center_axis',(0.,1.,0.));
#1064=DIRECTION('ref_axis',(1.,0.,0.));
#1065=DIRECTION('center_axis',(0.,1.,0.));
#1066=DIRECTION('ref_axis',(1.,0.,0.));
#1067=DIRECTION('center_axis',(0.,1.,0.));
#1068=DIRECTION('ref_axis',(1.,0.,0.));
#1069=DIRECTION('',(0.,1.,0.));
#1070=DIRECTION('center_axis',(0.,-1.,0.));
#1071=DIRECTION('ref_axis',(1.,0.,0.));
#1072=DIRECTION('center_axis',(0.,1.,0.));
#1073=DIRECTION('ref_axis',(1.,0.,0.));
#1074=DIRECTION('center_axis',(0.,1.,0.));
#1075=DIRECTION('ref_axis',(1.,0.,0.));
#1076=DIRECTION('center_axis',(0.,1.,0.));
#1077=DIRECTION('ref_axis',(1.,0.,0.));
#1078=DIRECTION('center_axis',(0.,1.,0.));
#1079=DIRECTION('ref_axis',(1.,0.,0.));
#1080=DIRECTION('',(0.,1.,0.));
#1081=DIRECTION('center_axis',(0.,-1.,0.));
#1082=DIRECTION('ref_axis',(1.,0.,0.));
#1083=DIRECTION('center_axis',(0.,1.,0.));
#1084=DIRECTION('ref_axis',(1.,0.,0.));
#1085=DIRECTION('center_axis',(0.,1.,0.));
#1086=DIRECTION('ref_axis',(1.,0.,0.));
#1087=DIRECTION('center_axis',(0.,1.,0.));
#1088=DIRECTION('ref_axis',(1.,0.,0.));
#1089=DIRECTION('center_axis',(0.,1.,0.));
#1090=DIRECTION('ref_axis',(1.,0.,0.));
#1091=DIRECTION('',(0.,1.,0.));
#1092=DIRECTION('center_axis',(0.,-1.,0.));
#1093=DIRECTION('ref_axis',(1.,0.,0.));
#1094=DIRECTION('center_axis',(0.,1.,0.));
#1095=DIRECTION('ref_axis',(1.,0.,0.));
#1096=DIRECTION('center_axis',(0.,1.,0.));
#1097=DIRECTION('ref_axis',(1.,0.,0.));
#1098=DIRECTION('center_axis',(0.,1.,0.));
#1099=DIRECTION('ref_axis',(1.,0.,0.));
#1100=DIRECTION('center_axis',(0.,-1.,0.));
#1101=DIRECTION('ref_axis',(1.,0.,0.));
#1102=DIRECTION('center_axis',(0.,1.,0.));
#1103=DIRECTION('ref_axis',(1.,0.,0.));
#1104=DIRECTION('center_axis',(0.,-1.,0.));
#1105=DIRECTION('ref_axis',(1.,0.,0.));
#1106=DIRECTION('center_axis',(0.,1.,0.));
#1107=DIRECTION('ref_axis',(1.,0.,0.));
#1108=DIRECTION('center_axis',(0.,-1.,0.));
#1109=DIRECTION('ref_axis',(1.,0.,0.));
#1110=DIRECTION('center_axis',(0.,1.,0.));
#1111=DIRECTION('ref_axis',(1.,0.,0.));
#1112=DIRECTION('center_axis',(0.,-1.,0.));
#1113=DIRECTION('ref_axis',(1.,0.,0.));
#1114=DIRECTION('center_axis',(0.,0.,-1.));
#1115=DIRECTION('ref_axis',(1.,0.,0.));
#1116=DIRECTION('',(0.,-1.,0.));
#1117=DIRECTION('',(-1.,0.,0.));
#1118=DIRECTION('center_axis',(0.,-1.,0.));
#1119=DIRECTION('ref_axis',(0.,0.,-1.));
#1120=DIRECTION('',(0.,-1.,0.));
#1121=DIRECTION('center_axis',(0.,1.,0.));
#1122=DIRECTION('ref_axis',(0.,0.,-1.));
#1123=DIRECTION('center_axis',(-1.,0.,0.));
#1124=DIRECTION('ref_axis',(0.,0.,-1.));
#1125=DIRECTION('',(0.,0.,1.));
#1126=DIRECTION('center_axis',(0.,1.,0.));
#1127=DIRECTION('ref_axis',(1.,0.,0.));
#1128=DIRECTION('',(0.,0.,1.));
#1129=DIRECTION('center_axis',(0.,1.,0.));
#1130=DIRECTION('ref_axis',(0.,0.,-1.));
#1131=DIRECTION('',(-1.,0.,-6.03382078600628E-17));
#1132=DIRECTION('center_axis',(0.,1.,0.));
#1133=DIRECTION('ref_axis',(1.,0.,0.));
#1134=DIRECTION('',(0.,0.,-1.));
#1135=DIRECTION('center_axis',(0.,1.,0.));
#1136=DIRECTION('ref_axis',(0.,0.,1.));
#1137=DIRECTION('',(1.,0.,0.));
#1138=DIRECTION('center_axis',(0.,1.,0.));
#1139=DIRECTION('ref_axis',(-1.,0.,0.));
#1140=DIRECTION('center_axis',(0.,1.,0.));
#1141=DIRECTION('ref_axis',(1.,0.,0.));
#1142=DIRECTION('',(0.,1.,0.));
#1143=DIRECTION('center_axis',(0.,1.,0.));
#1144=DIRECTION('ref_axis',(1.,0.,0.));
#1145=DIRECTION('',(0.,1.,0.));
#1146=DIRECTION('center_axis',(6.03382078600628E-17,0.,-1.));
#1147=DIRECTION('ref_axis',(-1.,0.,-6.03382078600628E-17));
#1148=DIRECTION('',(0.,1.,0.));
#1149=DIRECTION('',(-1.,0.,-6.03382078600628E-17));
#1150=DIRECTION('',(0.,1.,0.));
#1151=DIRECTION('',(-1.,0.,-6.03382078600628E-17));
#1152=DIRECTION('',(0.,1.,0.));
#1153=DIRECTION('',(-1.,0.,-6.03382078600628E-17));
#1154=DIRECTION('center_axis',(0.,1.,0.));
#1155=DIRECTION('ref_axis',(0.,0.,-1.));
#1156=DIRECTION('',(0.,-1.,0.));
#1157=DIRECTION('center_axis',(0.,1.,0.));
#1158=DIRECTION('ref_axis',(0.,0.,-1.));
#1159=DIRECTION('center_axis',(-1.,0.,0.));
#1160=DIRECTION('ref_axis',(0.,0.,1.));
#1161=DIRECTION('',(0.,1.,0.));
#1162=DIRECTION('',(0.,0.,1.));
#1163=DIRECTION('',(0.,1.,0.));
#1164=DIRECTION('',(0.,0.,1.));
#1165=DIRECTION('',(0.,1.,0.));
#1166=DIRECTION('',(0.,0.,1.));
#1167=DIRECTION('center_axis',(0.,1.,0.));
#1168=DIRECTION('ref_axis',(1.,0.,0.));
#1169=DIRECTION('',(0.,-1.,0.));
#1170=DIRECTION('center_axis',(0.,1.,0.));
#1171=DIRECTION('ref_axis',(1.,0.,0.));
#1172=DIRECTION('center_axis',(0.,-1.,0.));
#1173=DIRECTION('ref_axis',(1.,0.,0.));
#1174=DIRECTION('center_axis',(0.,1.,0.));
#1175=DIRECTION('ref_axis',(1.,0.,0.));
#1176=DIRECTION('center_axis',(0.,1.,0.));
#1177=DIRECTION('ref_axis',(1.,0.,0.));
#1178=DIRECTION('center_axis',(0.,1.,0.));
#1179=DIRECTION('ref_axis',(1.,0.,0.));
#1180=DIRECTION('center_axis',(0.,-1.,0.));
#1181=DIRECTION('ref_axis',(1.,0.,0.));
#1182=DIRECTION('',(1.,0.,0.));
#1183=DIRECTION('center_axis',(0.,-1.,0.));
#1184=DIRECTION('ref_axis',(1.,0.,0.));
#1185=DIRECTION('',(0.,0.,-1.));
#1186=DIRECTION('center_axis',(0.,-1.,0.));
#1187=DIRECTION('ref_axis',(1.,0.,0.));
#1188=DIRECTION('center_axis',(0.,1.,0.));
#1189=DIRECTION('ref_axis',(1.,0.,0.));
#1190=DIRECTION('',(0.,-1.,0.));
#1191=DIRECTION('center_axis',(0.,1.,0.));
#1192=DIRECTION('ref_axis',(1.,0.,0.));
#1193=DIRECTION('center_axis',(0.,1.,0.));
#1194=DIRECTION('ref_axis',(1.,0.,0.));
#1195=DIRECTION('',(0.,1.,0.));
#1196=DIRECTION('center_axis',(0.,1.,0.));
#1197=DIRECTION('ref_axis',(1.,0.,0.));
#1198=DIRECTION('center_axis',(0.,1.,0.));
#1199=DIRECTION('ref_axis',(-1.,0.,0.));
#1200=DIRECTION('',(1.,0.,0.));
#1201=DIRECTION('center_axis',(0.,1.,0.));
#1202=DIRECTION('ref_axis',(-0.707106781186546,0.,-0.707106781186549));
#1203=DIRECTION('',(0.,1.,0.));
#1204=DIRECTION('center_axis',(0.,1.,0.));
#1205=DIRECTION('ref_axis',(1.,0.,0.));
#1206=DIRECTION('',(0.,1.,0.));
#1207=DIRECTION('center_axis',(0.,1.,0.));
#1208=DIRECTION('ref_axis',(1.,0.,0.));
#1209=DIRECTION('',(0.,-1.,0.));
#1210=DIRECTION('center_axis',(0.,1.,0.));
#1211=DIRECTION('ref_axis',(1.,0.,0.));
#1212=DIRECTION('center_axis',(0.,1.,0.));
#1213=DIRECTION('ref_axis',(0.,0.,1.));
#1214=DIRECTION('',(0.,0.,-1.));
#1215=DIRECTION('',(1.,0.,0.));
#1216=DIRECTION('center_axis',(0.,1.,0.));
#1217=DIRECTION('ref_axis',(0.,0.,1.));
#1218=DIRECTION('',(0.,1.,0.));
#1219=DIRECTION('',(0.,1.,0.));
#1220=DIRECTION('center_axis',(0.,0.,1.));
#1221=DIRECTION('ref_axis',(1.,0.,0.));
#1222=DIRECTION('',(0.,1.,0.));
#1223=DIRECTION('center_axis',(0.,1.,0.));
#1224=DIRECTION('ref_axis',(1.,0.,0.));
#1225=DIRECTION('',(0.,-1.,0.));
#1226=DIRECTION('center_axis',(0.,1.,0.));
#1227=DIRECTION('ref_axis',(-0.707106781186546,0.,0.707106781186549));
#1228=DIRECTION('',(0.,1.,0.));
#1229=DIRECTION('center_axis',(0.,1.,0.));
#1230=DIRECTION('ref_axis',(1.,0.,0.));
#1231=DIRECTION('center_axis',(0.,1.,0.));
#1232=DIRECTION('ref_axis',(1.,0.,0.));
#1233=DIRECTION('',(0.,0.,-1.));
#1234=DIRECTION('center_axis',(1.,0.,0.));
#1235=DIRECTION('ref_axis',(0.,0.,-1.));
#1236=DIRECTION('center_axis',(0.,1.,0.));
#1237=DIRECTION('ref_axis',(-1.,0.,0.));
#1238=CARTESIAN_POINT('',(0.,0.,0.));
#1239=CARTESIAN_POINT('Ctrl Pts',(43.,-0.917119056045084,-29.499999999199));
#1240=CARTESIAN_POINT('Ctrl Pts',(43.000000000119,-0.854813263124279,-30.3910745649073));
#1241=CARTESIAN_POINT('Ctrl Pts',(42.5953071269965,-0.730406557030904,-32.1751270982929));
#1242=CARTESIAN_POINT('Ctrl Pts',(40.5960710454284,-0.554861473731118,-34.705362667714));
#1243=CARTESIAN_POINT('Ctrl Pts',(38.3520074934869,-0.5,-35.5));
#1244=CARTESIAN_POINT('Ctrl Pts',(37.,-0.5,-35.5));
#1245=CARTESIAN_POINT('Ctrl Pts',(42.6665539303413,-1.24991014297494,-29.5193943477058));
#1246=CARTESIAN_POINT('Ctrl Pts',(42.6636740164298,-1.19105127308404,-30.3611555457883));
#1247=CARTESIAN_POINT('Ctrl Pts',(42.2756852177896,-1.07362080220406,-32.043792017843));
#1248=CARTESIAN_POINT('Ctrl Pts',(40.3847278051197,-0.908194700665357,-34.4227114328597));
#1249=CARTESIAN_POINT('Ctrl Pts',(38.2723881627188,-0.856585491248042,-35.1674786499134));
#1250=CARTESIAN_POINT('Ctrl Pts',(37.,-0.856585491248042,-35.1674786499134));
#1251=CARTESIAN_POINT('Ctrl Pts',(42.3331078606825,-1.5827012299048,-29.5387886962126));
#1252=CARTESIAN_POINT('Ctrl Pts',(42.3273480327407,-1.52728928304379,-30.3312365266693));
#1253=CARTESIAN_POINT('Ctrl Pts',(41.9560633085828,-1.41683504737721,-31.9124569373931));
#1254=CARTESIAN_POINT('Ctrl Pts',(40.1733845648109,-1.2615279275996,-34.1400601980053));
#1255=CARTESIAN_POINT('Ctrl Pts',(38.1927688319508,-1.21317098249608,-34.8349572998268));
#1256=CARTESIAN_POINT('Ctrl Pts',(37.,-1.21317098249608,-34.8349572998268));
#1257=CARTESIAN_POINT('Ctrl Pts',(41.9996617910238,-1.91549231683467,-29.5581830447194));
#1258=CARTESIAN_POINT('Ctrl Pts',(41.9910220490515,-1.86352729300355,-30.3013175075503));
#1259=CARTESIAN_POINT('Ctrl Pts',(41.636441399376,-1.76004929255037,-31.7811218569432));
#1260=CARTESIAN_POINT('Ctrl Pts',(39.9620413245022,-1.61486115453384,-33.857408963151));
#1261=CARTESIAN_POINT('Ctrl Pts',(38.1131495011827,-1.56975647374413,-34.5024359497402));
#1262=CARTESIAN_POINT('Ctrl Pts',(37.,-1.56975647374413,-34.5024359497402));
#1263=CARTESIAN_POINT('',(43.,-0.917119056100552,-29.4999999992028));
#1264=CARTESIAN_POINT('',(41.9996617910238,-1.91549231683467,-29.5581830447194));
#1265=CARTESIAN_POINT('',(43.,-0.917119056100552,-29.4999999992028));
#1266=CARTESIAN_POINT('',(37.,-1.56975647374413,-34.5024359497402));
#1267=CARTESIAN_POINT('Ctrl Pts',(41.9996617910238,-1.91549231683467,-29.5581830447194));
#1268=CARTESIAN_POINT('Ctrl Pts',(41.9910220490515,-1.86352729300355,-30.3013175075503));
#1269=CARTESIAN_POINT('Ctrl Pts',(41.636441399376,-1.76004929255037,-31.7811218569432));
#1270=CARTESIAN_POINT('Ctrl Pts',(39.9620413245022,-1.61486115453384,-33.857408963151));
#1271=CARTESIAN_POINT('Ctrl Pts',(38.1131495011827,-1.56975647374413,-34.5024359497402));
#1272=CARTESIAN_POINT('Ctrl Pts',(37.,-1.56975647374413,-34.5024359497402));
#1273=CARTESIAN_POINT('',(37.,-0.5,-35.5));
#1274=CARTESIAN_POINT('',(37.,-1.56975647374413,-34.5024359497402));
#1275=CARTESIAN_POINT('Ctrl Pts',(37.,-0.5,-35.5));
#1276=CARTESIAN_POINT('Ctrl Pts',(38.3520074934869,-0.5,-35.5));
#1277=CARTESIAN_POINT('Ctrl Pts',(40.5960710454284,-0.554861473731118,-34.705362667714));
#1278=CARTESIAN_POINT('Ctrl Pts',(42.5953071269965,-0.730406557030904,-32.1751270982929));
#1279=CARTESIAN_POINT('Ctrl Pts',(43.000000000119,-0.854813263124279,-30.3910745649073));
#1280=CARTESIAN_POINT('Ctrl Pts',(43.,-0.917119056045084,-29.499999999199));
#1281=CARTESIAN_POINT('Origin',(-38.9,-1.03487823687206,-35.0012179748701));
#1282=CARTESIAN_POINT('',(-37.,-1.56975647374413,-34.5024359497402));
#1283=CARTESIAN_POINT('',(-37.,-0.5,-35.5));
#1284=CARTESIAN_POINT('',(-37.,-1.56975647374413,-34.5024359497402));
#1285=CARTESIAN_POINT('',(-38.9,-0.5,-35.5));
#1286=CARTESIAN_POINT('',(-38.9,-1.56975647374413,-34.5024359497402));
#1287=CARTESIAN_POINT('Ctrl Pts',(-37.,-0.5,-35.5));
#1288=CARTESIAN_POINT('Ctrl Pts',(-38.3520074934869,-0.5,-35.5));
#1289=CARTESIAN_POINT('Ctrl Pts',(-40.5960710454284,-0.554861473731118,
-34.705362667714));
#1290=CARTESIAN_POINT('Ctrl Pts',(-42.5953071269965,-0.730406557030905,
-32.1751270982929));
#1291=CARTESIAN_POINT('Ctrl Pts',(-43.000000000119,-0.854813263124279,-30.3910745649073));
#1292=CARTESIAN_POINT('Ctrl Pts',(-43.,-0.917119056045083,-29.499999999199));
#1293=CARTESIAN_POINT('Ctrl Pts',(-37.,-0.856585491248041,-35.1674786499134));
#1294=CARTESIAN_POINT('Ctrl Pts',(-38.2723881627188,-0.856585491248041,
-35.1674786499134));
#1295=CARTESIAN_POINT('Ctrl Pts',(-40.3847278051197,-0.908194700665357,
-34.4227114328596));
#1296=CARTESIAN_POINT('Ctrl Pts',(-42.2756852177896,-1.07362080220406,-32.043792017843));
#1297=CARTESIAN_POINT('Ctrl Pts',(-42.6636740164298,-1.19105127308404,-30.3611555457883));
#1298=CARTESIAN_POINT('Ctrl Pts',(-42.6665539303413,-1.24991014297494,-29.5193943477058));
#1299=CARTESIAN_POINT('Ctrl Pts',(-37.,-1.21317098249608,-34.8349572998268));
#1300=CARTESIAN_POINT('Ctrl Pts',(-38.1927688319508,-1.21317098249608,-34.8349572998268));
#1301=CARTESIAN_POINT('Ctrl Pts',(-40.1733845648109,-1.2615279275996,-34.1400601980053));
#1302=CARTESIAN_POINT('Ctrl Pts',(-41.9560633085828,-1.41683504737721,-31.9124569373931));
#1303=CARTESIAN_POINT('Ctrl Pts',(-42.3273480327407,-1.52728928304379,-30.3312365266693));
#1304=CARTESIAN_POINT('Ctrl Pts',(-42.3331078606825,-1.5827012299048,-29.5387886962126));
#1305=CARTESIAN_POINT('Ctrl Pts',(-37.,-1.56975647374412,-34.5024359497402));
#1306=CARTESIAN_POINT('Ctrl Pts',(-38.1131495011827,-1.56975647374412,-34.5024359497402));
#1307=CARTESIAN_POINT('Ctrl Pts',(-39.9620413245022,-1.61486115453383,-33.857408963151));
#1308=CARTESIAN_POINT('Ctrl Pts',(-41.636441399376,-1.76004929255037,-31.7811218569432));
#1309=CARTESIAN_POINT('Ctrl Pts',(-41.9910220490515,-1.86352729300355,-30.3013175075503));
#1310=CARTESIAN_POINT('Ctrl Pts',(-41.9996617910238,-1.91549231683467,-29.5581830447194));
#1311=CARTESIAN_POINT('',(-41.9996617910238,-1.91549231683467,-29.5581830447194));
#1312=CARTESIAN_POINT('',(-43.,-0.917119056100552,-29.4999999992028));
#1313=CARTESIAN_POINT('',(-41.9996617910238,-1.91549231683467,-29.5581830447194));
#1314=CARTESIAN_POINT('Ctrl Pts',(-43.,-0.917119056045083,-29.499999999199));
#1315=CARTESIAN_POINT('Ctrl Pts',(-43.000000000119,-0.854813263124279,-30.3910745649073));
#1316=CARTESIAN_POINT('Ctrl Pts',(-42.5953071269965,-0.730406557030905,
-32.1751270982929));
#1317=CARTESIAN_POINT('Ctrl Pts',(-40.5960710454284,-0.554861473731118,
-34.705362667714));
#1318=CARTESIAN_POINT('Ctrl Pts',(-38.3520074934869,-0.5,-35.5));
#1319=CARTESIAN_POINT('Ctrl Pts',(-37.,-0.5,-35.5));
#1320=CARTESIAN_POINT('Ctrl Pts',(-37.,-1.56975647374412,-34.5024359497402));
#1321=CARTESIAN_POINT('Ctrl Pts',(-38.1131495011827,-1.56975647374412,-34.5024359497402));
#1322=CARTESIAN_POINT('Ctrl Pts',(-39.9620413245022,-1.61486115453383,-33.857408963151));
#1323=CARTESIAN_POINT('Ctrl Pts',(-41.636441399376,-1.76004929255037,-31.7811218569432));
#1324=CARTESIAN_POINT('Ctrl Pts',(-41.9910220490515,-1.86352729300355,-30.3013175075503));
#1325=CARTESIAN_POINT('Ctrl Pts',(-41.9996617910238,-1.91549231683467,-29.5581830447194));
#1326=CARTESIAN_POINT('Origin',(-42.5,-3.18954484076921,-4.17058959330822));
#1327=CARTESIAN_POINT('',(-42.,-5.90051130461981,27.4302435262559));
#1328=CARTESIAN_POINT('',(-43.,-4.90294725435998,27.5));
#1329=CARTESIAN_POINT('',(-42.,-5.90051130461981,27.4302435262559));
#1330=CARTESIAN_POINT('',(-43.,-0.921996821401238,-29.4302435262559));
#1331=CARTESIAN_POINT('',(-43.,-2.6907628156393,-4.13571135643616));
#1332=CARTESIAN_POINT('',(-42.,-1.91956087166106,-29.5));
#1333=CARTESIAN_POINT('',(-43.,-0.921996821401238,-29.4302435262559));
#1334=CARTESIAN_POINT('',(-42.,-3.68832686589912,-4.20546783018029));
#1335=CARTESIAN_POINT('Ctrl Pts',(-43.,-0.917119056045083,-29.499999999199));
#1336=CARTESIAN_POINT('Ctrl Pts',(-43.,-0.918745041258032,-29.4767457559006));
#1337=CARTESIAN_POINT('Ctrl Pts',(-43.,-0.920370944996785,-29.4534946420906));
#1338=CARTESIAN_POINT('Ctrl Pts',(-43.,-0.921996821401237,-29.4302435262559));
#1339=CARTESIAN_POINT('Ctrl Pts',(-42.6665539303413,-1.24991014297494,-29.5193943477058));
#1340=CARTESIAN_POINT('Ctrl Pts',(-42.6666290870377,-1.25144617433908,-29.4974270281878));
#1341=CARTESIAN_POINT('Ctrl Pts',(-42.6666666666667,-1.25298218202482,-29.4754613568551));
#1342=CARTESIAN_POINT('Ctrl Pts',(-42.6666666666667,-1.25451817148785,-29.4534956841706));
#1343=CARTESIAN_POINT('Ctrl Pts',(-42.3331078606825,-1.5827012299048,-29.5387886962126));
#1344=CARTESIAN_POINT('Ctrl Pts',(-42.3332581740753,-1.58414730742012,-29.5181083004749));
#1345=CARTESIAN_POINT('Ctrl Pts',(-42.3333333333333,-1.58559341905286,-29.4974280716196));
#1346=CARTESIAN_POINT('Ctrl Pts',(-42.3333333333333,-1.58703952157445,-29.4767478420853));
#1347=CARTESIAN_POINT('Ctrl Pts',(-41.9996617910238,-1.91549231683467,-29.5581830447194));
#1348=CARTESIAN_POINT('Ctrl Pts',(-41.999887261113,-1.91684844050117,-29.538789572762));
#1349=CARTESIAN_POINT('Ctrl Pts',(-42.,-1.9182046560809,-29.519394786384));
#1350=CARTESIAN_POINT('Ctrl Pts',(-42.,-1.91956087166106,-29.5));
#1351=CARTESIAN_POINT('Ctrl Pts',(-43.,-0.921996821401237,-29.4302435262559));
#1352=CARTESIAN_POINT('Ctrl Pts',(-43.,-0.920370944996785,-29.4534946420906));
#1353=CARTESIAN_POINT('Ctrl Pts',(-43.,-0.918745041258032,-29.4767457559006));
#1354=CARTESIAN_POINT('Ctrl Pts',(-43.,-0.917119056045083,-29.499999999199));
#1355=CARTESIAN_POINT('Ctrl Pts',(-41.9996617910238,-1.91549231683467,-29.5581830447194));
#1356=CARTESIAN_POINT('Ctrl Pts',(-41.999887261113,-1.91684844050117,-29.538789572762));
#1357=CARTESIAN_POINT('Ctrl Pts',(-42.,-1.9182046560809,-29.519394786384));
#1358=CARTESIAN_POINT('Ctrl Pts',(-42.,-1.91956087166106,-29.5));
#1359=CARTESIAN_POINT('Ctrl Pts',(-42.9995944892277,-4.90782518420054,27.5697564680088));
#1360=CARTESIAN_POINT('Ctrl Pts',(-42.9891589460164,-4.97059134382645,28.4672937047648));
#1361=CARTESIAN_POINT('Ctrl Pts',(-42.5580831797227,-5.09556257091904,30.2494352179957));
#1362=CARTESIAN_POINT('Ctrl Pts',(-40.5418389269367,-5.27064950073693,32.73344814989));
#1363=CARTESIAN_POINT('Ctrl Pts',(-38.330705311632,-5.32495002410222,33.5));
#1364=CARTESIAN_POINT('Ctrl Pts',(-37.,-5.32495002410222,33.5));
#1365=CARTESIAN_POINT('Ctrl Pts',(-42.6663963261518,-5.24034650694741,27.5465043120059));
#1366=CARTESIAN_POINT('Ctrl Pts',(-42.6594392973443,-5.29964262537052,28.3944378690467));
#1367=CARTESIAN_POINT('Ctrl Pts',(-42.2578946362308,-5.41779971354986,30.0808094215565));
#1368=CARTESIAN_POINT('Ctrl Pts',(-40.3558698684179,-5.58356206782178,32.4380903163635));
#1369=CARTESIAN_POINT('Ctrl Pts',(-38.2609533462993,-5.63503119952084,33.1674786499134));
#1370=CARTESIAN_POINT('Ctrl Pts',(-37.,-5.63503119952084,33.1674786499134));
#1371=CARTESIAN_POINT('Ctrl Pts',(-42.3331981630759,-5.57286782969428,27.5232521560029));
#1372=CARTESIAN_POINT('Ctrl Pts',(-42.3297196486721,-5.62869390691458,28.3215820333286));
#1373=CARTESIAN_POINT('Ctrl Pts',(-41.9577060927388,-5.74003685618068,29.9121836251172));
#1374=CARTESIAN_POINT('Ctrl Pts',(-40.1699008098991,-5.89647463490662,32.142732482837));
#1375=CARTESIAN_POINT('Ctrl Pts',(-38.1912013809667,-5.94511237493947,32.8349572998268));
#1376=CARTESIAN_POINT('Ctrl Pts',(-37.,-5.94511237493947,32.8349572998268));
#1377=CARTESIAN_POINT('Ctrl Pts',(-42.,-5.90538915244115,27.5));
#1378=CARTESIAN_POINT('Ctrl Pts',(-42.,-5.95774518845865,28.2487261976106));
#1379=CARTESIAN_POINT('Ctrl Pts',(-41.6575175492469,-6.0622739988115,29.7435578286779));
#1380=CARTESIAN_POINT('Ctrl Pts',(-39.9839317513803,-6.20938720199147,31.8473746493105));
#1381=CARTESIAN_POINT('Ctrl Pts',(-38.121449415634,-6.25519355035809,32.5024359497402));
#1382=CARTESIAN_POINT('Ctrl Pts',(-37.,-6.25519355035809,32.5024359497402));
#1383=CARTESIAN_POINT('',(-37.,-6.25519355035809,32.5024359497402));
#1384=CARTESIAN_POINT('',(-37.,-5.32495002410222,33.5));
#1385=CARTESIAN_POINT('',(-37.,-6.25519355035809,32.5024359497402));
#1386=CARTESIAN_POINT('',(-42.9995944892277,-4.90782518420054,27.5697564680088));
#1387=CARTESIAN_POINT('Ctrl Pts',(-37.,-5.32495002410222,33.5));
#1388=CARTESIAN_POINT('Ctrl Pts',(-38.330705311632,-5.32495002410222,33.5));
#1389=CARTESIAN_POINT('Ctrl Pts',(-40.5418389269367,-5.27064950073693,32.73344814989));
#1390=CARTESIAN_POINT('Ctrl Pts',(-42.5580831797227,-5.09556257091904,30.2494352179957));
#1391=CARTESIAN_POINT('Ctrl Pts',(-42.9891589460164,-4.97059134382645,28.4672937047648));
#1392=CARTESIAN_POINT('Ctrl Pts',(-42.9995944892277,-4.90782518420054,27.5697564680088));
#1393=CARTESIAN_POINT('',(-42.,-5.90538915244115,27.5));
#1394=CARTESIAN_POINT('',(-42.9995944892277,-4.90782518420054,27.5697564680088));
#1395=CARTESIAN_POINT('Ctrl Pts',(-42.,-5.90538915244115,27.5));
#1396=CARTESIAN_POINT('Ctrl Pts',(-42.,-5.95774518845865,28.2487261976106));
#1397=CARTESIAN_POINT('Ctrl Pts',(-41.6575175492469,-6.0622739988115,29.7435578286779));
#1398=CARTESIAN_POINT('Ctrl Pts',(-39.9839317513803,-6.20938720199147,31.8473746493105));
#1399=CARTESIAN_POINT('Ctrl Pts',(-38.121449415634,-6.25519355035809,32.5024359497402));
#1400=CARTESIAN_POINT('Ctrl Pts',(-37.,-6.25519355035809,32.5024359497402));
#1401=CARTESIAN_POINT('Origin',(-1.9,-5.79007178723015,33.0012179748701));
#1402=CARTESIAN_POINT('',(37.,-6.25519355035809,32.5024359497402));
#1403=CARTESIAN_POINT('',(37.,-5.32495002410222,33.5));
#1404=CARTESIAN_POINT('',(37.,-6.25519355035809,32.5024359497402));
#1405=CARTESIAN_POINT('',(-1.9,-5.32495002410222,33.5));
#1406=CARTESIAN_POINT('',(-1.9,-6.25519355035809,32.5024359497402));
#1407=CARTESIAN_POINT('Ctrl Pts',(37.,-5.32495002410222,33.5));
#1408=CARTESIAN_POINT('Ctrl Pts',(37.8871368744213,-5.32495002410222,33.5));
#1409=CARTESIAN_POINT('Ctrl Pts',(39.6585088762669,-5.29658748489132,33.0992596437978));
#1410=CARTESIAN_POINT('Ctrl Pts',(42.1727974236416,-5.15761879894442,31.1316725685134));
#1411=CARTESIAN_POINT('Ctrl Pts',(42.9839411744107,-5.00197442363941,28.9160623231428));
#1412=CARTESIAN_POINT('Ctrl Pts',(42.9995944892277,-4.90782518420054,27.5697564680088));
#1413=CARTESIAN_POINT('Ctrl Pts',(37.,-5.63503119952084,33.1674786499134));
#1414=CARTESIAN_POINT('Ctrl Pts',(37.8406355641996,-5.63503119952084,33.1674786499134));
#1415=CARTESIAN_POINT('Ctrl Pts',(39.5191002280077,-5.60815345057588,32.7863508333503));
#1416=CARTESIAN_POINT('Ctrl Pts',(41.8964164047283,-5.47652119732933,30.9170937261031));
#1417=CARTESIAN_POINT('Ctrl Pts',(42.6559607829405,-5.32929068458207,28.8184046475671));
#1418=CARTESIAN_POINT('Ctrl Pts',(42.6663963261518,-5.24034650694741,27.5465043120059));
#1419=CARTESIAN_POINT('Ctrl Pts',(37.,-5.94511237493947,32.8349572998268));
#1420=CARTESIAN_POINT('Ctrl Pts',(37.7941342539778,-5.94511237493947,32.8349572998268));
#1421=CARTESIAN_POINT('Ctrl Pts',(39.3796915797486,-5.91971941626044,32.4734420229029));
#1422=CARTESIAN_POINT('Ctrl Pts',(41.620035385815,-5.79542359571424,30.7025148836927));
#1423=CARTESIAN_POINT('Ctrl Pts',(42.3279803914702,-5.65660694552473,28.7207469719915));
#1424=CARTESIAN_POINT('Ctrl Pts',(42.3331981630759,-5.57286782969428,27.5232521560029));
#1425=CARTESIAN_POINT('Ctrl Pts',(37.,-6.25519355035809,32.5024359497402));
#1426=CARTESIAN_POINT('Ctrl Pts',(37.747632943756,-6.25519355035809,32.5024359497402));
#1427=CARTESIAN_POINT('Ctrl Pts',(39.2402829314894,-6.23128538194501,32.1605332124554));
#1428=CARTESIAN_POINT('Ctrl Pts',(41.3436543669017,-6.11432599409915,30.4879360412824));
#1429=CARTESIAN_POINT('Ctrl Pts',(42.,-5.9839232064674,28.6230892964159));
#1430=CARTESIAN_POINT('Ctrl Pts',(42.,-5.90538915244115,27.5));
#1431=CARTESIAN_POINT('',(42.,-5.90538915244115,27.5));
#1432=CARTESIAN_POINT('',(42.9995944892277,-4.90782518420054,27.5697564680088));
#1433=CARTESIAN_POINT('',(42.,-5.90538915244115,27.5));
#1434=CARTESIAN_POINT('Ctrl Pts',(42.9995944892277,-4.90782518420054,27.5697564680088));
#1435=CARTESIAN_POINT('Ctrl Pts',(42.9839411744107,-5.00197442363941,28.9160623231428));
#1436=CARTESIAN_POINT('Ctrl Pts',(42.1727974236416,-5.15761879894442,31.1316725685134));
#1437=CARTESIAN_POINT('Ctrl Pts',(39.6585088762669,-5.29658748489132,33.0992596437978));
#1438=CARTESIAN_POINT('Ctrl Pts',(37.8871368744213,-5.32495002410222,33.5));
#1439=CARTESIAN_POINT('Ctrl Pts',(37.,-5.32495002410222,33.5));
#1440=CARTESIAN_POINT('Ctrl Pts',(37.,-6.25519355035809,32.5024359497402));
#1441=CARTESIAN_POINT('Ctrl Pts',(37.747632943756,-6.25519355035809,32.5024359497402));
#1442=CARTESIAN_POINT('Ctrl Pts',(39.2402829314894,-6.23128538194501,32.1605332124554));
#1443=CARTESIAN_POINT('Ctrl Pts',(41.3436543669017,-6.11432599409915,30.4879360412824));
#1444=CARTESIAN_POINT('Ctrl Pts',(42.,-5.9839232064674,28.6230892964159));
#1445=CARTESIAN_POINT('Ctrl Pts',(42.,-5.90538915244115,27.5));
#1446=CARTESIAN_POINT('Ctrl Pts',(-43.,-4.90294725435998,27.5));
#1447=CARTESIAN_POINT('Ctrl Pts',(-43.,-4.90457320363376,27.5232521579147));
#1448=CARTESIAN_POINT('Ctrl Pts',(-42.999864838812,-4.90619912556414,27.5465043177415));
#1449=CARTESIAN_POINT('Ctrl Pts',(-42.9995944892277,-4.90782518420054,27.5697564680088));
#1450=CARTESIAN_POINT('Ctrl Pts',(-42.6666666666667,-5.23546860444659,27.4767478420853));
#1451=CARTESIAN_POINT('Ctrl Pts',(-42.6666666666667,-5.23709455372037,27.5));
#1452=CARTESIAN_POINT('Ctrl Pts',(-42.666576559208,-5.23872048476521,27.5232521591894));
#1453=CARTESIAN_POINT('Ctrl Pts',(-42.6663963261518,-5.24034650694741,27.5465043120059));
#1454=CARTESIAN_POINT('Ctrl Pts',(-42.3333333333333,-5.5679899545332,27.4534956841706));
#1455=CARTESIAN_POINT('Ctrl Pts',(-42.3333333333333,-5.56961590380698,27.4767478420853));
#1456=CARTESIAN_POINT('Ctrl Pts',(-42.333288279604,-5.57124184396629,27.5000000006373));
#1457=CARTESIAN_POINT('Ctrl Pts',(-42.3331981630759,-5.57286782969428,27.5232521560029));
#1458=CARTESIAN_POINT('Ctrl Pts',(-42.,-5.9005113046198,27.4302435262559));
#1459=CARTESIAN_POINT('Ctrl Pts',(-42.,-5.90213725389359,27.4534956841706));
#1460=CARTESIAN_POINT('Ctrl Pts',(-42.,-5.90376320316737,27.4767478420853));
#1461=CARTESIAN_POINT('Ctrl Pts',(-42.,-5.90538915244115,27.5));
#1462=CARTESIAN_POINT('Ctrl Pts',(-42.9995944892277,-4.90782518420054,27.5697564680088));
#1463=CARTESIAN_POINT('Ctrl Pts',(-42.999864838812,-4.90619912556414,27.5465043177415));
#1464=CARTESIAN_POINT('Ctrl Pts',(-43.,-4.90457320363376,27.5232521579147));
#1465=CARTESIAN_POINT('Ctrl Pts',(-43.,-4.90294725435998,27.5));
#1466=CARTESIAN_POINT('Ctrl Pts',(-42.,-5.9005113046198,27.4302435262559));
#1467=CARTESIAN_POINT('Ctrl Pts',(-42.,-5.90213725389359,27.4534956841706));
#1468=CARTESIAN_POINT('Ctrl Pts',(-42.,-5.90376320316737,27.4767478420853));
#1469=CARTESIAN_POINT('Ctrl Pts',(-42.,-5.90538915244115,27.5));
#1470=CARTESIAN_POINT('Origin',(42.5,-1.20632815208827,-32.5319095728756));
#1471=CARTESIAN_POINT('',(43.,-4.90294725435998,27.5));
#1472=CARTESIAN_POINT('',(42.,-5.90051130461981,27.4302435262559));
#1473=CARTESIAN_POINT('',(43.,-4.90294725435998,27.5));
#1474=CARTESIAN_POINT('',(42.,-1.91956087166106,-29.5));
#1475=CARTESIAN_POINT('',(42.,-1.70511017721819,-32.5667878097477));
#1476=CARTESIAN_POINT('',(43.,-0.921996821401238,-29.4302435262559));
#1477=CARTESIAN_POINT('',(42.,-1.91956087166106,-29.5));
#1478=CARTESIAN_POINT('',(43.,-0.707546126958363,-32.4970313360035));
#1479=CARTESIAN_POINT('Ctrl Pts',(42.9995944892277,-4.90782518420054,27.5697564680088));
#1480=CARTESIAN_POINT('Ctrl Pts',(42.999864838812,-4.90619912556414,27.5465043177415));
#1481=CARTESIAN_POINT('Ctrl Pts',(43.,-4.90457320363377,27.5232521579147));
#1482=CARTESIAN_POINT('Ctrl Pts',(43.,-4.90294725435998,27.5));
#1483=CARTESIAN_POINT('Ctrl Pts',(42.6663963261518,-5.24034650694741,27.5465043120059));
#1484=CARTESIAN_POINT('Ctrl Pts',(42.666576559208,-5.23872048476521,27.5232521591894));
#1485=CARTESIAN_POINT('Ctrl Pts',(42.6666666666667,-5.23709455372037,27.5));
#1486=CARTESIAN_POINT('Ctrl Pts',(42.6666666666667,-5.23546860444659,27.4767478420853));
#1487=CARTESIAN_POINT('Ctrl Pts',(42.3331981630759,-5.57286782969428,27.5232521560029));
#1488=CARTESIAN_POINT('Ctrl Pts',(42.333288279604,-5.57124184396629,27.5000000006374));
#1489=CARTESIAN_POINT('Ctrl Pts',(42.3333333333333,-5.56961590380698,27.4767478420853));
#1490=CARTESIAN_POINT('Ctrl Pts',(42.3333333333333,-5.5679899545332,27.4534956841706));
#1491=CARTESIAN_POINT('Ctrl Pts',(42.,-5.90538915244115,27.5));
#1492=CARTESIAN_POINT('Ctrl Pts',(42.,-5.90376320316737,27.4767478420853));
#1493=CARTESIAN_POINT('Ctrl Pts',(42.,-5.90213725389359,27.4534956841706));
#1494=CARTESIAN_POINT('Ctrl Pts',(42.,-5.90051130461981,27.4302435262559));
#1495=CARTESIAN_POINT('Ctrl Pts',(43.,-4.90294725435998,27.5));
#1496=CARTESIAN_POINT('Ctrl Pts',(43.,-4.90457320363377,27.5232521579147));
#1497=CARTESIAN_POINT('Ctrl Pts',(42.999864838812,-4.90619912556414,27.5465043177415));
#1498=CARTESIAN_POINT('Ctrl Pts',(42.9995944892277,-4.90782518420054,27.5697564680088));
#1499=CARTESIAN_POINT('Ctrl Pts',(42.,-5.90538915244115,27.5));
#1500=CARTESIAN_POINT('Ctrl Pts',(42.,-5.90376320316737,27.4767478420853));
#1501=CARTESIAN_POINT('Ctrl Pts',(42.,-5.90213725389359,27.4534956841706));
#1502=CARTESIAN_POINT('Ctrl Pts',(42.,-5.90051130461981,27.4302435262559));
#1503=CARTESIAN_POINT('Ctrl Pts',(43.,-0.921996821401237,-29.4302435262559));
#1504=CARTESIAN_POINT('Ctrl Pts',(43.,-0.920370944996785,-29.4534946420906));
#1505=CARTESIAN_POINT('Ctrl Pts',(43.,-0.918745041258032,-29.4767457559006));
#1506=CARTESIAN_POINT('Ctrl Pts',(43.,-0.917119056045083,-29.499999999199));
#1507=CARTESIAN_POINT('Ctrl Pts',(42.6666666666667,-1.25451817148785,-29.4534956841706));
#1508=CARTESIAN_POINT('Ctrl Pts',(42.6666666666667,-1.25298218202482,-29.4754613568551));
#1509=CARTESIAN_POINT('Ctrl Pts',(42.6666290870377,-1.25144617433908,-29.4974270281877));
#1510=CARTESIAN_POINT('Ctrl Pts',(42.6665539303413,-1.24991014297494,-29.5193943477058));
#1511=CARTESIAN_POINT('Ctrl Pts',(42.3333333333333,-1.58703952157445,-29.4767478420853));
#1512=CARTESIAN_POINT('Ctrl Pts',(42.3333333333333,-1.58559341905286,-29.4974280716196));
#1513=CARTESIAN_POINT('Ctrl Pts',(42.3332581740754,-1.58414730742012,-29.5181083004749));
#1514=CARTESIAN_POINT('Ctrl Pts',(42.3331078606825,-1.5827012299048,-29.5387886962126));
#1515=CARTESIAN_POINT('Ctrl Pts',(42.,-1.91956087166106,-29.5));
#1516=CARTESIAN_POINT('Ctrl Pts',(42.,-1.9182046560809,-29.519394786384));
#1517=CARTESIAN_POINT('Ctrl Pts',(41.999887261113,-1.91684844050117,-29.538789572762));
#1518=CARTESIAN_POINT('Ctrl Pts',(41.9996617910238,-1.91549231683467,-29.5581830447194));
#1519=CARTESIAN_POINT('Ctrl Pts',(43.,-0.917119056045083,-29.499999999199));
#1520=CARTESIAN_POINT('Ctrl Pts',(43.,-0.918745041258032,-29.4767457559006));
#1521=CARTESIAN_POINT('Ctrl Pts',(43.,-0.920370944996785,-29.4534946420906));
#1522=CARTESIAN_POINT('Ctrl Pts',(43.,-0.921996821401237,-29.4302435262559));
#1523=CARTESIAN_POINT('Ctrl Pts',(42.,-1.91956087166106,-29.5));
#1524=CARTESIAN_POINT('Ctrl Pts',(42.,-1.9182046560809,-29.519394786384));
#1525=CARTESIAN_POINT('Ctrl Pts',(41.999887261113,-1.91684844050117,-29.538789572762));
#1526=CARTESIAN_POINT('Ctrl Pts',(41.9996617910238,-1.91549231683467,-29.5581830447194));
#1527=CARTESIAN_POINT('Origin',(-37.,0.,27.5));
#1528=CARTESIAN_POINT('',(-37.,0.,33.5));
#1529=CARTESIAN_POINT('',(-37.,0.,33.5));
#1530=CARTESIAN_POINT('',(-43.,0.,27.5));
#1531=CARTESIAN_POINT('Origin',(-37.,0.,27.5));
#1532=CARTESIAN_POINT('',(-43.,0.,27.5));
#1533=CARTESIAN_POINT('Origin',(37.,0.,33.5));
#1534=CARTESIAN_POINT('',(37.,0.,33.5));
#1535=CARTESIAN_POINT('',(37.,0.,33.5));
#1536=CARTESIAN_POINT('',(-37.,0.,33.5));
#1537=CARTESIAN_POINT('Origin',(37.,0.,27.5));
#1538=CARTESIAN_POINT('',(43.,0.,27.5));
#1539=CARTESIAN_POINT('',(43.,0.,27.5));
#1540=CARTESIAN_POINT('Origin',(37.,0.,27.5));
#1541=CARTESIAN_POINT('Origin',(-40.8,-1.5,-35.5));
#1542=CARTESIAN_POINT('Origin',(43.,0.,-29.5));
#1543=CARTESIAN_POINT('',(43.,0.,-29.5));
#1544=CARTESIAN_POINT('',(43.,0.,-29.5));
#1545=CARTESIAN_POINT('',(43.,0.,27.5));
#1546=CARTESIAN_POINT('Origin',(37.,0.,-29.5));
#1547=CARTESIAN_POINT('',(37.,0.,-35.5));
#1548=CARTESIAN_POINT('',(37.,0.,-35.5));
#1549=CARTESIAN_POINT('Origin',(37.,0.,-29.5));
#1550=CARTESIAN_POINT('Origin',(37.,0.,27.5));
#1551=CARTESIAN_POINT('',(35.35,0.,27.5));
#1552=CARTESIAN_POINT('Origin',(37.,0.,27.5));
#1553=CARTESIAN_POINT('',(35.35,4.,27.5));
#1554=CARTESIAN_POINT('',(35.35,0.,27.5));
#1555=CARTESIAN_POINT('Origin',(37.,4.,27.5));
#1556=CARTESIAN_POINT('Origin',(37.,0.,27.5));
#1557=CARTESIAN_POINT('',(35.75,0.,27.5));
#1558=CARTESIAN_POINT('Origin',(37.,0.,27.5));
#1559=CARTESIAN_POINT('Origin',(-37.,0.,27.5));
#1560=CARTESIAN_POINT('',(-38.65,0.,27.5));
#1561=CARTESIAN_POINT('Origin',(-37.,0.,27.5));
#1562=CARTESIAN_POINT('',(-38.65,4.,27.5));
#1563=CARTESIAN_POINT('',(-38.65,0.,27.5));
#1564=CARTESIAN_POINT('Origin',(-37.,4.,27.5));
#1565=CARTESIAN_POINT('Origin',(-37.,0.,27.5));
#1566=CARTESIAN_POINT('',(-38.25,0.,27.5));
#1567=CARTESIAN_POINT('Origin',(-37.,0.,27.5));
#1568=CARTESIAN_POINT('Origin',(37.,0.,-29.5));
#1569=CARTESIAN_POINT('',(35.35,0.,-29.5));
#1570=CARTESIAN_POINT('Origin',(37.,0.,-29.5));
#1571=CARTESIAN_POINT('',(35.35,4.,-29.5));
#1572=CARTESIAN_POINT('',(35.35,0.,-29.5));
#1573=CARTESIAN_POINT('Origin',(37.,4.,-29.5));
#1574=CARTESIAN_POINT('Origin',(37.,0.,-29.5));
#1575=CARTESIAN_POINT('',(35.75,0.,-29.5));
#1576=CARTESIAN_POINT('Origin',(37.,0.,-29.5));
#1577=CARTESIAN_POINT('Origin',(-37.,0.,-29.5));
#1578=CARTESIAN_POINT('',(-38.65,0.,-29.5));
#1579=CARTESIAN_POINT('Origin',(-37.,0.,-29.5));
#1580=CARTESIAN_POINT('',(-38.65,4.,-29.5));
#1581=CARTESIAN_POINT('',(-38.65,0.,-29.5));
#1582=CARTESIAN_POINT('Origin',(-37.,4.,-29.5));
#1583=CARTESIAN_POINT('Origin',(-37.,0.,-29.5));
#1584=CARTESIAN_POINT('',(-38.25,0.,-29.5));
#1585=CARTESIAN_POINT('Origin',(-37.,0.,-29.5));
#1586=CARTESIAN_POINT('Origin',(-37.,-1.,27.5));
#1587=CARTESIAN_POINT('',(-38.25,-1.,27.5));
#1588=CARTESIAN_POINT('Origin',(-37.,-1.,27.5));
#1589=CARTESIAN_POINT('Origin',(37.,-1.,-29.5));
#1590=CARTESIAN_POINT('',(35.75,-1.,-29.5));
#1591=CARTESIAN_POINT('Origin',(37.,-1.,-29.5));
#1592=CARTESIAN_POINT('Origin',(-37.,-1.,-29.5));
#1593=CARTESIAN_POINT('',(-38.25,-1.,-29.5));
#1594=CARTESIAN_POINT('Origin',(-37.,-1.,-29.5));
#1595=CARTESIAN_POINT('Origin',(37.,-1.,27.5));
#1596=CARTESIAN_POINT('',(35.75,-1.,27.5));
#1597=CARTESIAN_POINT('Origin',(37.,-1.,27.5));
#1598=CARTESIAN_POINT('Origin',(-37.,0.,-35.5));
#1599=CARTESIAN_POINT('',(-37.,0.,-35.5));
#1600=CARTESIAN_POINT('',(-37.,0.,-35.5));
#1601=CARTESIAN_POINT('',(37.,0.,-35.5));
#1602=CARTESIAN_POINT('Origin',(-37.,0.,-29.5));
#1603=CARTESIAN_POINT('',(-43.,0.,-29.5));
#1604=CARTESIAN_POINT('',(-43.,0.,-29.5));
#1605=CARTESIAN_POINT('Origin',(-37.,0.,-29.5));
#1606=CARTESIAN_POINT('Origin',(-43.,0.,27.5));
#1607=CARTESIAN_POINT('',(-43.,0.,-29.5));
#1608=CARTESIAN_POINT('Origin',(0.,0.,-0.999999999999996));
#1609=CARTESIAN_POINT('',(-40.8,0.,-29.3));
#1610=CARTESIAN_POINT('',(-40.8,0.,27.3));
#1611=CARTESIAN_POINT('',(-40.8,0.,-15.15));
#1612=CARTESIAN_POINT('',(-36.8,0.,-33.3));
#1613=CARTESIAN_POINT('Origin',(-36.8,0.,-29.3));
#1614=CARTESIAN_POINT('',(36.8,0.,-33.3));
#1615=CARTESIAN_POINT('',(18.4,0.,-33.3));
#1616=CARTESIAN_POINT('',(40.8,0.,-29.3));
#1617=CARTESIAN_POINT('Origin',(36.8,0.,-29.3));
#1618=CARTESIAN_POINT('',(40.8,0.,27.3));
#1619=CARTESIAN_POINT('',(40.8,0.,13.15));
#1620=CARTESIAN_POINT('',(36.8,0.,31.3));
#1621=CARTESIAN_POINT('Origin',(36.8,0.,27.3));
#1622=CARTESIAN_POINT('',(-36.8,0.,31.3));
#1623=CARTESIAN_POINT('',(-18.4,0.,31.3));
#1624=CARTESIAN_POINT('Origin',(-36.8,0.,27.3));
#1625=CARTESIAN_POINT('Origin',(36.8,0.,-29.3));
#1626=CARTESIAN_POINT('',(36.8,4.,-33.3));
#1627=CARTESIAN_POINT('',(36.8,0.,-33.3));
#1628=CARTESIAN_POINT('',(40.8,4.,-29.3));
#1629=CARTESIAN_POINT('Origin',(36.8,4.,-29.3));
#1630=CARTESIAN_POINT('',(40.8,0.,-29.3));
#1631=CARTESIAN_POINT('Origin',(36.8,0.,-33.3));
#1632=CARTESIAN_POINT('',(-36.8,4.,-33.3));
#1633=CARTESIAN_POINT('',(-36.8,0.,-33.3));
#1634=CARTESIAN_POINT('',(-35.7510004003203,4.,-33.3));
#1635=CARTESIAN_POINT('',(36.8,4.,-33.3));
#1636=CARTESIAN_POINT('',(-35.7510004003203,0.5,-33.3));
#1637=CARTESIAN_POINT('',(-35.7510004003203,0.,-33.3));
#1638=CARTESIAN_POINT('',(35.7510004003203,0.5,-33.3));
#1639=CARTESIAN_POINT('',(36.8,0.5,-33.3));
#1640=CARTESIAN_POINT('',(35.7510004003203,4.,-33.3));
#1641=CARTESIAN_POINT('',(35.7510004003203,0.,-33.3));
#1642=CARTESIAN_POINT('',(36.8,4.,-33.3));
#1643=CARTESIAN_POINT('Origin',(-36.8,0.,-29.3));
#1644=CARTESIAN_POINT('',(-40.8,4.,-29.3));
#1645=CARTESIAN_POINT('',(-40.8,0.,-29.3));
#1646=CARTESIAN_POINT('Origin',(-36.8,4.,-29.3));
#1647=CARTESIAN_POINT('Origin',(-40.8,0.,-29.3));
#1648=CARTESIAN_POINT('',(-40.8,4.,27.3));
#1649=CARTESIAN_POINT('',(-40.8,0.,27.3));
#1650=CARTESIAN_POINT('',(-40.8,4.,26.2510004003203));
#1651=CARTESIAN_POINT('',(-40.8,4.,-29.3));
#1652=CARTESIAN_POINT('',(-40.8,0.5,26.2510004003203));
#1653=CARTESIAN_POINT('',(-40.8,0.,26.2510004003203));
#1654=CARTESIAN_POINT('',(-40.8,0.5,-28.2510004003203));
#1655=CARTESIAN_POINT('',(-40.8,0.5,-29.3));
#1656=CARTESIAN_POINT('',(-40.8,4.,-28.2510004003203));
#1657=CARTESIAN_POINT('',(-40.8,0.,-28.2510004003203));
#1658=CARTESIAN_POINT('',(-40.8,4.,-29.3));
#1659=CARTESIAN_POINT('Origin',(-37.,0.,-29.5));
#1660=CARTESIAN_POINT('',(-38.25,0.,-29.5));
#1661=CARTESIAN_POINT('Origin',(-37.,0.,-29.5));
#1662=CARTESIAN_POINT('Origin',(-37.,0.5,-29.5));
#1663=CARTESIAN_POINT('Origin',(-37.,4.,-29.5));
#1664=CARTESIAN_POINT('Origin',(-36.9,4.,-29.4));
#1665=CARTESIAN_POINT('Origin',(0.,0.5,-0.999999999999996));
#1666=CARTESIAN_POINT('',(-35.7510004003203,0.5,31.3));
#1667=CARTESIAN_POINT('Origin',(-37.,0.5,27.5));
#1668=CARTESIAN_POINT('',(35.7510004003203,0.5,31.3));
#1669=CARTESIAN_POINT('',(-36.8,0.5,31.3));
#1670=CARTESIAN_POINT('',(40.8,0.5,26.2510004003203));
#1671=CARTESIAN_POINT('Origin',(37.,0.5,27.5));
#1672=CARTESIAN_POINT('',(40.8,0.5,-28.2510004003203));
#1673=CARTESIAN_POINT('',(40.8,0.5,27.3));
#1674=CARTESIAN_POINT('Origin',(37.,0.5,-29.5));
#1675=CARTESIAN_POINT('Origin',(-37.,0.,27.5));
#1676=CARTESIAN_POINT('',(-38.25,0.,27.5));
#1677=CARTESIAN_POINT('Origin',(-37.,0.,27.5));
#1678=CARTESIAN_POINT('',(-35.7510004003203,4.,31.3));
#1679=CARTESIAN_POINT('Origin',(-37.,4.,27.5));
#1680=CARTESIAN_POINT('',(-35.7510004003203,0.,31.3));
#1681=CARTESIAN_POINT('Origin',(-36.9,4.,27.4));
#1682=CARTESIAN_POINT('',(-36.8,4.,31.3));
#1683=CARTESIAN_POINT('Origin',(-36.8,4.,27.3));
#1684=CARTESIAN_POINT('',(-36.8,4.,31.3));
#1685=CARTESIAN_POINT('Origin',(37.,0.,27.5));
#1686=CARTESIAN_POINT('',(35.7510004003203,4.,31.3));
#1687=CARTESIAN_POINT('',(35.7510004003203,0.,31.3));
#1688=CARTESIAN_POINT('',(40.8,4.,26.2510004003203));
#1689=CARTESIAN_POINT('Origin',(37.,4.,27.5));
#1690=CARTESIAN_POINT('',(40.8,0.,26.2510004003203));
#1691=CARTESIAN_POINT('Origin',(37.,0.,27.5));
#1692=CARTESIAN_POINT('',(35.75,0.,27.5));
#1693=CARTESIAN_POINT('Origin',(36.9,4.,27.4));
#1694=CARTESIAN_POINT('',(36.8,4.,31.3));
#1695=CARTESIAN_POINT('',(40.8,4.,27.3));
#1696=CARTESIAN_POINT('Origin',(36.8,4.,27.3));
#1697=CARTESIAN_POINT('',(40.8,4.,27.3));
#1698=CARTESIAN_POINT('',(-36.8,4.,31.3));
#1699=CARTESIAN_POINT('Origin',(36.8,0.,27.3));
#1700=CARTESIAN_POINT('',(40.8,0.,27.3));
#1701=CARTESIAN_POINT('',(36.8,0.,31.3));
#1702=CARTESIAN_POINT('Origin',(-36.8,0.,31.3));
#1703=CARTESIAN_POINT('',(-36.8,0.,31.3));
#1704=CARTESIAN_POINT('Origin',(37.,0.,-29.5));
#1705=CARTESIAN_POINT('',(35.75,0.,-29.5));
#1706=CARTESIAN_POINT('Origin',(37.,0.,-29.5));
#1707=CARTESIAN_POINT('',(40.8,4.,-28.2510004003203));
#1708=CARTESIAN_POINT('',(40.8,0.,-28.2510004003203));
#1709=CARTESIAN_POINT('Origin',(37.,4.,-29.5));
#1710=CARTESIAN_POINT('Origin',(36.9,4.,-29.4));
#1711=CARTESIAN_POINT('',(40.8,4.,27.3));
#1712=CARTESIAN_POINT('Origin',(40.8,0.,27.3));
#1713=CARTESIAN_POINT('Origin',(-36.8,0.,27.3));
#1714=UNCERTAINTY_MEASURE_WITH_UNIT(LENGTH_MEASURE(0.01),#1718,
'DISTANCE_ACCURACY_VALUE',
'Maximum model space distance between geometric entities at asserted c
onnectivities');
#1715=UNCERTAINTY_MEASURE_WITH_UNIT(LENGTH_MEASURE(0.01),#1718,
'DISTANCE_ACCURACY_VALUE',
'Maximum model space distance between geometric entities at asserted c
onnectivities');
#1716=(
GEOMETRIC_REPRESENTATION_CONTEXT(3)
GLOBAL_UNCERTAINTY_ASSIGNED_CONTEXT((#1714))
GLOBAL_UNIT_ASSIGNED_CONTEXT((#1718,#1720,#1721))
REPRESENTATION_CONTEXT('','3D')
);
#1717=(
GEOMETRIC_REPRESENTATION_CONTEXT(3)
GLOBAL_UNCERTAINTY_ASSIGNED_CONTEXT((#1715))
GLOBAL_UNIT_ASSIGNED_CONTEXT((#1718,#1720,#1721))
REPRESENTATION_CONTEXT('','3D')
);
#1718=(
LENGTH_UNIT()
NAMED_UNIT(*)
SI_UNIT(.MILLI.,.METRE.)
);
#1719=(
LENGTH_UNIT()
NAMED_UNIT(*)
SI_UNIT($,.METRE.)
);
#1720=(
NAMED_UNIT(*)
PLANE_ANGLE_UNIT()
SI_UNIT($,.RADIAN.)
);
#1721=(
NAMED_UNIT(*)
SI_UNIT($,.STERADIAN.)
SOLID_ANGLE_UNIT()
);
#1722=SHAPE_DEFINITION_REPRESENTATION(#1723,#1724);
#1723=PRODUCT_DEFINITION_SHAPE('',$,#1726);
#1724=SHAPE_REPRESENTATION('',(#914),#1716);
#1725=PRODUCT_DEFINITION_CONTEXT('part definition',#1730,'design');
#1726=PRODUCT_DEFINITION('ModB_Bottom','ModB_Bottom v17',#1727,#1725);
#1727=PRODUCT_DEFINITION_FORMATION('',$,#1732);
#1728=PRODUCT_RELATED_PRODUCT_CATEGORY('ModB_Bottom v17',
'ModB_Bottom v17',(#1732));
#1729=APPLICATION_PROTOCOL_DEFINITION('international standard',
'automotive_design',2009,#1730);
#1730=APPLICATION_CONTEXT(
'Core Data for Automotive Mechanical Design Process');
#1731=PRODUCT_CONTEXT('part definition',#1730,'mechanical');
#1732=PRODUCT('ModB_Bottom','ModB_Bottom v17',$,(#1731));
#1733=PRESENTATION_STYLE_ASSIGNMENT((#1735));
#1734=PRESENTATION_STYLE_ASSIGNMENT((#1736));
#1735=SURFACE_STYLE_USAGE(.BOTH.,#1737);
#1736=SURFACE_STYLE_USAGE(.BOTH.,#1738);
#1737=SURFACE_SIDE_STYLE('',(#1739));
#1738=SURFACE_SIDE_STYLE('',(#1740));
#1739=SURFACE_STYLE_FILL_AREA(#1741);
#1740=SURFACE_STYLE_FILL_AREA(#1742);
#1741=FILL_AREA_STYLE('\X2\94A2\X0\ - \X2\7F0E5149\X0\',(#1743));
#1742=FILL_AREA_STYLE('ABS(\X2\767D8272\X0\)',(#1744));
#1743=FILL_AREA_STYLE_COLOUR('\X2\94A2\X0\ - \X2\7F0E5149\X0\',#1745);
#1744=FILL_AREA_STYLE_COLOUR('ABS(\X2\767D8272\X0\)',#1746);
#1745=COLOUR_RGB('\X2\94A2\X0\ - \X2\7F0E5149\X0\',0.627450980392157,0.627450980392157,
0.627450980392157);
#1746=COLOUR_RGB('ABS(\X2\767D8272\X0\)',0.964705882352941,0.964705882352941,
0.952941176470588);
ENDSEC;
END-ISO-10303-21;
