ISO-10303-21;
HEADER;
/* Generated by software containing ST-Developer
 * from STEP Tools, Inc. (www.steptools.com) 
 */

FILE_DESCRIPTION(
/* description */ (''),
/* implementation_level */ '2;1');

FILE_NAME(
/* name */ 'ModB_Top v21.step',
/* time_stamp */ '2025-09-21T20:52:56+08:00',
/* author */ (''),
/* organization */ (''),
/* preprocessor_version */ 'ST-DEVELOPER v20.1',
/* originating_system */ 'Autodesk Translation Framework v14.17.0.0',
/* authorisation */ '');

FILE_SCHEMA (('AUTOMOTIVE_DESIGN { 1 0 10303 214 3 1 1 }'));
ENDSEC;

DATA;
#10=MECHANICAL_DESIGN_GEOMETRIC_PRESENTATION_REPRESENTATION('',(#13),#2384);
#11=SHAPE_REPRESENTATION_RELATIONSHIP('SRR','None',#2391,#12);
#12=ADVANCED_BREP_SHAPE_REPRESENTATION('',(#14),#2383);
#13=STYLED_ITEM('',(#2401),#14);
#14=MANIFOLD_SOLID_BREP('\X2\5B9E4F53\X0\1',#1384);
#15=CONICAL_SURFACE('',#1435,4.99999999999999,0.785398163397449);
#16=CONICAL_SURFACE('',#1439,4.99999999999999,0.785398163397449);
#17=CONICAL_SURFACE('',#1443,4.99999999999999,0.785398163397449);
#18=CONICAL_SURFACE('',#1447,4.99999999999999,0.785398163397449);
#19=FACE_BOUND('',#165,.T.);
#20=FACE_BOUND('',#168,.T.);
#21=FACE_BOUND('',#171,.T.);
#22=FACE_BOUND('',#174,.T.);
#23=FACE_BOUND('',#195,.T.);
#24=FACE_BOUND('',#197,.T.);
#25=FACE_BOUND('',#198,.T.);
#26=FACE_BOUND('',#199,.T.);
#27=FACE_BOUND('',#200,.T.);
#28=FACE_BOUND('',#201,.T.);
#29=FACE_BOUND('',#205,.T.);
#30=FACE_BOUND('',#208,.T.);
#31=FACE_BOUND('',#211,.T.);
#32=FACE_BOUND('',#214,.T.);
#33=FACE_BOUND('',#218,.T.);
#34=FACE_BOUND('',#220,.T.);
#35=FACE_BOUND('',#224,.T.);
#36=FACE_BOUND('',#229,.T.);
#37=FACE_BOUND('',#234,.T.);
#38=FACE_BOUND('',#252,.T.);
#39=FACE_BOUND('',#254,.T.);
#40=FACE_BOUND('',#259,.T.);
#41=FACE_BOUND('',#261,.T.);
#42=FACE_BOUND('',#264,.T.);
#43=FACE_BOUND('',#267,.T.);
#44=PLANE('',#1401);
#45=PLANE('',#1406);
#46=PLANE('',#1411);
#47=PLANE('',#1416);
#48=PLANE('',#1418);
#49=PLANE('',#1422);
#50=PLANE('',#1426);
#51=PLANE('',#1430);
#52=PLANE('',#1434);
#53=PLANE('',#1438);
#54=PLANE('',#1442);
#55=PLANE('',#1446);
#56=PLANE('',#1452);
#57=PLANE('',#1455);
#58=PLANE('',#1460);
#59=PLANE('',#1466);
#60=PLANE('',#1470);
#61=PLANE('',#1474);
#62=PLANE('',#1478);
#63=PLANE('',#1485);
#64=PLANE('',#1487);
#65=PLANE('',#1495);
#66=PLANE('',#1503);
#67=PLANE('',#1511);
#68=PLANE('',#1513);
#69=PLANE('',#1514);
#70=PLANE('',#1523);
#71=PLANE('',#1524);
#72=PLANE('',#1525);
#73=PLANE('',#1534);
#74=PLANE('',#1535);
#75=PLANE('',#1538);
#76=PLANE('',#1541);
#77=PLANE('',#1542);
#78=PLANE('',#1545);
#79=PLANE('',#1548);
#80=PLANE('',#1549);
#81=PLANE('',#1552);
#82=PLANE('',#1555);
#83=FACE_OUTER_BOUND('',#163,.T.);
#84=FACE_OUTER_BOUND('',#164,.T.);
#85=FACE_OUTER_BOUND('',#166,.T.);
#86=FACE_OUTER_BOUND('',#167,.T.);
#87=FACE_OUTER_BOUND('',#169,.T.);
#88=FACE_OUTER_BOUND('',#170,.T.);
#89=FACE_OUTER_BOUND('',#172,.T.);
#90=FACE_OUTER_BOUND('',#173,.T.);
#91=FACE_OUTER_BOUND('',#175,.T.);
#92=FACE_OUTER_BOUND('',#176,.T.);
#93=FACE_OUTER_BOUND('',#177,.T.);
#94=FACE_OUTER_BOUND('',#178,.T.);
#95=FACE_OUTER_BOUND('',#179,.T.);
#96=FACE_OUTER_BOUND('',#180,.T.);
#97=FACE_OUTER_BOUND('',#181,.T.);
#98=FACE_OUTER_BOUND('',#182,.T.);
#99=FACE_OUTER_BOUND('',#183,.T.);
#100=FACE_OUTER_BOUND('',#184,.T.);
#101=FACE_OUTER_BOUND('',#185,.T.);
#102=FACE_OUTER_BOUND('',#186,.T.);
#103=FACE_OUTER_BOUND('',#187,.T.);
#104=FACE_OUTER_BOUND('',#188,.T.);
#105=FACE_OUTER_BOUND('',#189,.T.);
#106=FACE_OUTER_BOUND('',#190,.T.);
#107=FACE_OUTER_BOUND('',#191,.T.);
#108=FACE_OUTER_BOUND('',#192,.T.);
#109=FACE_OUTER_BOUND('',#193,.T.);
#110=FACE_OUTER_BOUND('',#194,.T.);
#111=FACE_OUTER_BOUND('',#196,.T.);
#112=FACE_OUTER_BOUND('',#202,.T.);
#113=FACE_OUTER_BOUND('',#203,.T.);
#114=FACE_OUTER_BOUND('',#204,.T.);
#115=FACE_OUTER_BOUND('',#206,.T.);
#116=FACE_OUTER_BOUND('',#207,.T.);
#117=FACE_OUTER_BOUND('',#209,.T.);
#118=FACE_OUTER_BOUND('',#210,.T.);
#119=FACE_OUTER_BOUND('',#212,.T.);
#120=FACE_OUTER_BOUND('',#213,.T.);
#121=FACE_OUTER_BOUND('',#215,.T.);
#122=FACE_OUTER_BOUND('',#216,.T.);
#123=FACE_OUTER_BOUND('',#217,.T.);
#124=FACE_OUTER_BOUND('',#219,.T.);
#125=FACE_OUTER_BOUND('',#221,.T.);
#126=FACE_OUTER_BOUND('',#222,.T.);
#127=FACE_OUTER_BOUND('',#223,.T.);
#128=FACE_OUTER_BOUND('',#225,.T.);
#129=FACE_OUTER_BOUND('',#226,.T.);
#130=FACE_OUTER_BOUND('',#227,.T.);
#131=FACE_OUTER_BOUND('',#228,.T.);
#132=FACE_OUTER_BOUND('',#230,.T.);
#133=FACE_OUTER_BOUND('',#231,.T.);
#134=FACE_OUTER_BOUND('',#232,.T.);
#135=FACE_OUTER_BOUND('',#233,.T.);
#136=FACE_OUTER_BOUND('',#235,.T.);
#137=FACE_OUTER_BOUND('',#236,.T.);
#138=FACE_OUTER_BOUND('',#237,.T.);
#139=FACE_OUTER_BOUND('',#238,.T.);
#140=FACE_OUTER_BOUND('',#239,.T.);
#141=FACE_OUTER_BOUND('',#240,.T.);
#142=FACE_OUTER_BOUND('',#241,.T.);
#143=FACE_OUTER_BOUND('',#242,.T.);
#144=FACE_OUTER_BOUND('',#243,.T.);
#145=FACE_OUTER_BOUND('',#244,.T.);
#146=FACE_OUTER_BOUND('',#245,.T.);
#147=FACE_OUTER_BOUND('',#246,.T.);
#148=FACE_OUTER_BOUND('',#247,.T.);
#149=FACE_OUTER_BOUND('',#248,.T.);
#150=FACE_OUTER_BOUND('',#249,.T.);
#151=FACE_OUTER_BOUND('',#250,.T.);
#152=FACE_OUTER_BOUND('',#251,.T.);
#153=FACE_OUTER_BOUND('',#253,.T.);
#154=FACE_OUTER_BOUND('',#255,.T.);
#155=FACE_OUTER_BOUND('',#256,.T.);
#156=FACE_OUTER_BOUND('',#257,.T.);
#157=FACE_OUTER_BOUND('',#258,.T.);
#158=FACE_OUTER_BOUND('',#260,.T.);
#159=FACE_OUTER_BOUND('',#262,.T.);
#160=FACE_OUTER_BOUND('',#263,.T.);
#161=FACE_OUTER_BOUND('',#265,.T.);
#162=FACE_OUTER_BOUND('',#266,.T.);
#163=EDGE_LOOP('',(#885,#886,#887,#888));
#164=EDGE_LOOP('',(#889));
#165=EDGE_LOOP('',(#890));
#166=EDGE_LOOP('',(#891,#892,#893,#894));
#167=EDGE_LOOP('',(#895));
#168=EDGE_LOOP('',(#896));
#169=EDGE_LOOP('',(#897,#898,#899,#900));
#170=EDGE_LOOP('',(#901));
#171=EDGE_LOOP('',(#902));
#172=EDGE_LOOP('',(#903,#904,#905,#906));
#173=EDGE_LOOP('',(#907));
#174=EDGE_LOOP('',(#908));
#175=EDGE_LOOP('',(#909,#910,#911,#912));
#176=EDGE_LOOP('',(#913,#914,#915,#916));
#177=EDGE_LOOP('',(#917,#918,#919,#920));
#178=EDGE_LOOP('',(#921,#922,#923,#924));
#179=EDGE_LOOP('',(#925,#926,#927,#928));
#180=EDGE_LOOP('',(#929,#930,#931,#932));
#181=EDGE_LOOP('',(#933,#934,#935,#936));
#182=EDGE_LOOP('',(#937,#938,#939,#940));
#183=EDGE_LOOP('',(#941,#942,#943,#944));
#184=EDGE_LOOP('',(#945,#946,#947,#948));
#185=EDGE_LOOP('',(#949,#950,#951,#952));
#186=EDGE_LOOP('',(#953,#954,#955,#956));
#187=EDGE_LOOP('',(#957,#958,#959,#960));
#188=EDGE_LOOP('',(#961,#962,#963,#964));
#189=EDGE_LOOP('',(#965,#966,#967,#968));
#190=EDGE_LOOP('',(#969,#970,#971,#972));
#191=EDGE_LOOP('',(#973,#974,#975,#976));
#192=EDGE_LOOP('',(#977,#978,#979,#980));
#193=EDGE_LOOP('',(#981,#982,#983,#984));
#194=EDGE_LOOP('',(#985,#986,#987,#988));
#195=EDGE_LOOP('',(#989,#990,#991,#992,#993,#994,#995,#996));
#196=EDGE_LOOP('',(#997,#998,#999,#1000,#1001,#1002,#1003,#1004));
#197=EDGE_LOOP('',(#1005));
#198=EDGE_LOOP('',(#1006));
#199=EDGE_LOOP('',(#1007));
#200=EDGE_LOOP('',(#1008));
#201=EDGE_LOOP('',(#1009));
#202=EDGE_LOOP('',(#1010,#1011,#1012,#1013));
#203=EDGE_LOOP('',(#1014,#1015,#1016,#1017));
#204=EDGE_LOOP('',(#1018));
#205=EDGE_LOOP('',(#1019));
#206=EDGE_LOOP('',(#1020,#1021,#1022,#1023));
#207=EDGE_LOOP('',(#1024));
#208=EDGE_LOOP('',(#1025));
#209=EDGE_LOOP('',(#1026,#1027,#1028,#1029));
#210=EDGE_LOOP('',(#1030));
#211=EDGE_LOOP('',(#1031));
#212=EDGE_LOOP('',(#1032,#1033,#1034,#1035));
#213=EDGE_LOOP('',(#1036));
#214=EDGE_LOOP('',(#1037));
#215=EDGE_LOOP('',(#1038,#1039,#1040,#1041));
#216=EDGE_LOOP('',(#1042,#1043,#1044,#1045));
#217=EDGE_LOOP('',(#1046,#1047));
#218=EDGE_LOOP('',(#1048));
#219=EDGE_LOOP('',(#1049,#1050,#1051,#1052,#1053,#1054,#1055,#1056));
#220=EDGE_LOOP('',(#1057));
#221=EDGE_LOOP('',(#1058,#1059,#1060,#1061));
#222=EDGE_LOOP('',(#1062,#1063,#1064,#1065));
#223=EDGE_LOOP('',(#1066,#1067));
#224=EDGE_LOOP('',(#1068));
#225=EDGE_LOOP('',(#1069,#1070,#1071,#1072));
#226=EDGE_LOOP('',(#1073,#1074,#1075,#1076));
#227=EDGE_LOOP('',(#1077,#1078,#1079,#1080));
#228=EDGE_LOOP('',(#1081,#1082));
#229=EDGE_LOOP('',(#1083));
#230=EDGE_LOOP('',(#1084,#1085,#1086,#1087));
#231=EDGE_LOOP('',(#1088,#1089,#1090,#1091));
#232=EDGE_LOOP('',(#1092,#1093,#1094,#1095));
#233=EDGE_LOOP('',(#1096,#1097));
#234=EDGE_LOOP('',(#1098));
#235=EDGE_LOOP('',(#1099,#1100,#1101,#1102));
#236=EDGE_LOOP('',(#1103,#1104,#1105,#1106));
#237=EDGE_LOOP('',(#1107,#1108,#1109,#1110));
#238=EDGE_LOOP('',(#1111,#1112,#1113,#1114));
#239=EDGE_LOOP('',(#1115,#1116,#1117,#1118));
#240=EDGE_LOOP('',(#1119,#1120,#1121,#1122));
#241=EDGE_LOOP('',(#1123,#1124,#1125,#1126));
#242=EDGE_LOOP('',(#1127,#1128,#1129,#1130));
#243=EDGE_LOOP('',(#1131,#1132,#1133,#1134));
#244=EDGE_LOOP('',(#1135,#1136,#1137,#1138));
#245=EDGE_LOOP('',(#1139,#1140,#1141,#1142));
#246=EDGE_LOOP('',(#1143,#1144,#1145,#1146));
#247=EDGE_LOOP('',(#1147,#1148,#1149,#1150));
#248=EDGE_LOOP('',(#1151,#1152,#1153,#1154));
#249=EDGE_LOOP('',(#1155,#1156,#1157,#1158));
#250=EDGE_LOOP('',(#1159,#1160,#1161,#1162));
#251=EDGE_LOOP('',(#1163,#1164,#1165,#1166,#1167,#1168));
#252=EDGE_LOOP('',(#1169,#1170,#1171,#1172,#1173,#1174,#1175,#1176));
#253=EDGE_LOOP('',(#1177,#1178,#1179,#1180,#1181,#1182));
#254=EDGE_LOOP('',(#1183,#1184,#1185,#1186,#1187,#1188,#1189,#1190));
#255=EDGE_LOOP('',(#1191,#1192,#1193,#1194));
#256=EDGE_LOOP('',(#1195,#1196,#1197,#1198,#1199,#1200));
#257=EDGE_LOOP('',(#1201,#1202,#1203,#1204));
#258=EDGE_LOOP('',(#1205,#1206,#1207,#1208,#1209,#1210));
#259=EDGE_LOOP('',(#1211,#1212,#1213,#1214,#1215,#1216,#1217,#1218));
#260=EDGE_LOOP('',(#1219,#1220,#1221,#1222));
#261=EDGE_LOOP('',(#1223,#1224,#1225,#1226,#1227,#1228,#1229,#1230));
#262=EDGE_LOOP('',(#1231,#1232,#1233,#1234));
#263=EDGE_LOOP('',(#1235,#1236,#1237,#1238));
#264=EDGE_LOOP('',(#1239,#1240,#1241,#1242,#1243,#1244,#1245,#1246));
#265=EDGE_LOOP('',(#1247,#1248,#1249,#1250));
#266=EDGE_LOOP('',(#1251,#1252,#1253,#1254,#1255,#1256,#1257,#1258));
#267=EDGE_LOOP('',(#1259,#1260,#1261,#1262,#1263,#1264,#1265,#1266));
#268=LINE('',#1992,#381);
#269=LINE('',#2001,#382);
#270=LINE('',#2010,#383);
#271=LINE('',#2019,#384);
#272=LINE('',#2027,#385);
#273=LINE('',#2029,#386);
#274=LINE('',#2031,#387);
#275=LINE('',#2032,#388);
#276=LINE('',#2038,#389);
#277=LINE('',#2041,#390);
#278=LINE('',#2043,#391);
#279=LINE('',#2044,#392);
#280=LINE('',#2050,#393);
#281=LINE('',#2053,#394);
#282=LINE('',#2055,#395);
#283=LINE('',#2056,#396);
#284=LINE('',#2062,#397);
#285=LINE('',#2065,#398);
#286=LINE('',#2067,#399);
#287=LINE('',#2068,#400);
#288=LINE('',#2075,#401);
#289=LINE('',#2077,#402);
#290=LINE('',#2079,#403);
#291=LINE('',#2080,#404);
#292=LINE('',#2084,#405);
#293=LINE('',#2090,#406);
#294=LINE('',#2091,#407);
#295=LINE('',#2092,#408);
#296=LINE('',#2096,#409);
#297=LINE('',#2102,#410);
#298=LINE('',#2103,#411);
#299=LINE('',#2104,#412);
#300=LINE('',#2108,#413);
#301=LINE('',#2114,#414);
#302=LINE('',#2115,#415);
#303=LINE('',#2116,#416);
#304=LINE('',#2122,#417);
#305=LINE('',#2125,#418);
#306=LINE('',#2128,#419);
#307=LINE('',#2129,#420);
#308=LINE('',#2132,#421);
#309=LINE('',#2136,#422);
#310=LINE('',#2137,#423);
#311=LINE('',#2140,#424);
#312=LINE('',#2144,#425);
#313=LINE('',#2148,#426);
#314=LINE('',#2152,#427);
#315=LINE('',#2159,#428);
#316=LINE('',#2163,#429);
#317=LINE('',#2170,#430);
#318=LINE('',#2177,#431);
#319=LINE('',#2184,#432);
#320=LINE('',#2192,#433);
#321=LINE('',#2196,#434);
#322=LINE('',#2201,#435);
#323=LINE('',#2206,#436);
#324=LINE('',#2210,#437);
#325=LINE('',#2214,#438);
#326=LINE('',#2217,#439);
#327=LINE('',#2220,#440);
#328=LINE('',#2222,#441);
#329=LINE('',#2227,#442);
#330=LINE('',#2232,#443);
#331=LINE('',#2235,#444);
#332=LINE('',#2238,#445);
#333=LINE('',#2240,#446);
#334=LINE('',#2245,#447);
#335=LINE('',#2250,#448);
#336=LINE('',#2253,#449);
#337=LINE('',#2256,#450);
#338=LINE('',#2259,#451);
#339=LINE('',#2263,#452);
#340=LINE('',#2269,#453);
#341=LINE('',#2271,#454);
#342=LINE('',#2273,#455);
#343=LINE('',#2274,#456);
#344=LINE('',#2278,#457);
#345=LINE('',#2279,#458);
#346=LINE('',#2280,#459);
#347=LINE('',#2285,#460);
#348=LINE('',#2290,#461);
#349=LINE('',#2296,#462);
#350=LINE('',#2299,#463);
#351=LINE('',#2301,#464);
#352=LINE('',#2302,#465);
#353=LINE('',#2305,#466);
#354=LINE('',#2306,#467);
#355=LINE('',#2309,#468);
#356=LINE('',#2311,#469);
#357=LINE('',#2312,#470);
#358=LINE('',#2317,#471);
#359=LINE('',#2322,#472);
#360=LINE('',#2328,#473);
#361=LINE('',#2330,#474);
#362=LINE('',#2331,#475);
#363=LINE('',#2334,#476);
#364=LINE('',#2335,#477);
#365=LINE('',#2339,#478);
#366=LINE('',#2342,#479);
#367=LINE('',#2343,#480);
#368=LINE('',#2347,#481);
#369=LINE('',#2350,#482);
#370=LINE('',#2351,#483);
#371=LINE('',#2354,#484);
#372=LINE('',#2358,#485);
#373=LINE('',#2359,#486);
#374=LINE('',#2362,#487);
#375=LINE('',#2365,#488);
#376=LINE('',#2368,#489);
#377=LINE('',#2369,#490);
#378=LINE('',#2373,#491);
#379=LINE('',#2376,#492);
#380=LINE('',#2377,#493);
#381=VECTOR('',#1562,2.3);
#382=VECTOR('',#1573,2.3);
#383=VECTOR('',#1584,2.3);
#384=VECTOR('',#1595,2.3);
#385=VECTOR('',#1604,10.);
#386=VECTOR('',#1605,10.);
#387=VECTOR('',#1606,10.);
#388=VECTOR('',#1607,10.);
#389=VECTOR('',#1614,10.);
#390=VECTOR('',#1617,10.);
#391=VECTOR('',#1618,10.);
#392=VECTOR('',#1619,10.);
#393=VECTOR('',#1626,10.);
#394=VECTOR('',#1629,10.);
#395=VECTOR('',#1630,10.);
#396=VECTOR('',#1631,10.);
#397=VECTOR('',#1638,10.);
#398=VECTOR('',#1641,10.);
#399=VECTOR('',#1642,10.);
#400=VECTOR('',#1643,10.);
#401=VECTOR('',#1652,10.);
#402=VECTOR('',#1653,10.);
#403=VECTOR('',#1654,10.);
#404=VECTOR('',#1655,10.);
#405=VECTOR('',#1658,10.);
#406=VECTOR('',#1665,10.);
#407=VECTOR('',#1666,10.);
#408=VECTOR('',#1667,10.);
#409=VECTOR('',#1670,10.);
#410=VECTOR('',#1677,10.);
#411=VECTOR('',#1678,10.);
#412=VECTOR('',#1679,10.);
#413=VECTOR('',#1682,10.);
#414=VECTOR('',#1689,10.);
#415=VECTOR('',#1690,10.);
#416=VECTOR('',#1691,10.);
#417=VECTOR('',#1700,10.);
#418=VECTOR('',#1703,10.);
#419=VECTOR('',#1706,10.);
#420=VECTOR('',#1707,10.);
#421=VECTOR('',#1710,10.);
#422=VECTOR('',#1715,10.);
#423=VECTOR('',#1716,10.);
#424=VECTOR('',#1717,10.);
#425=VECTOR('',#1720,10.);
#426=VECTOR('',#1723,10.);
#427=VECTOR('',#1726,10.);
#428=VECTOR('',#1735,22.5);
#429=VECTOR('',#1740,1.65);
#430=VECTOR('',#1749,1.65);
#431=VECTOR('',#1758,1.65);
#432=VECTOR('',#1767,1.65);
#433=VECTOR('',#1776,10.);
#434=VECTOR('',#1779,10.);
#435=VECTOR('',#1786,1.25);
#436=VECTOR('',#1793,10.);
#437=VECTOR('',#1796,10.);
#438=VECTOR('',#1799,10.);
#439=VECTOR('',#1802,10.);
#440=VECTOR('',#1805,10.);
#441=VECTOR('',#1806,10.);
#442=VECTOR('',#1813,1.25);
#443=VECTOR('',#1820,10.);
#444=VECTOR('',#1823,10.);
#445=VECTOR('',#1826,10.);
#446=VECTOR('',#1827,10.);
#447=VECTOR('',#1834,1.25);
#448=VECTOR('',#1841,10.);
#449=VECTOR('',#1844,10.);
#450=VECTOR('',#1847,10.);
#451=VECTOR('',#1850,10.);
#452=VECTOR('',#1855,1.25);
#453=VECTOR('',#1862,10.);
#454=VECTOR('',#1863,10.);
#455=VECTOR('',#1864,10.);
#456=VECTOR('',#1865,10.);
#457=VECTOR('',#1868,10.);
#458=VECTOR('',#1869,10.);
#459=VECTOR('',#1870,10.);
#460=VECTOR('',#1875,10.);
#461=VECTOR('',#1882,10.);
#462=VECTOR('',#1889,10.);
#463=VECTOR('',#1892,10.);
#464=VECTOR('',#1893,10.);
#465=VECTOR('',#1894,10.);
#466=VECTOR('',#1897,10.);
#467=VECTOR('',#1898,10.);
#468=VECTOR('',#1901,10.);
#469=VECTOR('',#1902,10.);
#470=VECTOR('',#1903,10.);
#471=VECTOR('',#1908,10.);
#472=VECTOR('',#1915,10.);
#473=VECTOR('',#1922,10.);
#474=VECTOR('',#1925,10.);
#475=VECTOR('',#1926,10.);
#476=VECTOR('',#1929,10.);
#477=VECTOR('',#1930,10.);
#478=VECTOR('',#1935,10.);
#479=VECTOR('',#1938,10.);
#480=VECTOR('',#1939,10.);
#481=VECTOR('',#1946,10.);
#482=VECTOR('',#1949,10.);
#483=VECTOR('',#1950,10.);
#484=VECTOR('',#1953,10.);
#485=VECTOR('',#1958,10.);
#486=VECTOR('',#1959,10.);
#487=VECTOR('',#1962,10.);
#488=VECTOR('',#1967,10.);
#489=VECTOR('',#1970,10.);
#490=VECTOR('',#1971,10.);
#491=VECTOR('',#1976,10.);
#492=VECTOR('',#1979,10.);
#493=VECTOR('',#1980,10.);
#494=CIRCLE('',#1399,2.3);
#495=CIRCLE('',#1400,2.3);
#496=CIRCLE('',#1402,1.65);
#497=CIRCLE('',#1404,2.3);
#498=CIRCLE('',#1405,2.3);
#499=CIRCLE('',#1407,1.65);
#500=CIRCLE('',#1409,2.3);
#501=CIRCLE('',#1410,2.3);
#502=CIRCLE('',#1412,1.65);
#503=CIRCLE('',#1414,2.3);
#504=CIRCLE('',#1415,2.3);
#505=CIRCLE('',#1417,1.65);
#506=CIRCLE('',#1420,0.800000000000001);
#507=CIRCLE('',#1421,0.800000000000001);
#508=CIRCLE('',#1424,0.8);
#509=CIRCLE('',#1425,0.8);
#510=CIRCLE('',#1428,0.800000000000001);
#511=CIRCLE('',#1429,0.800000000000001);
#512=CIRCLE('',#1432,0.800000000000001);
#513=CIRCLE('',#1433,0.800000000000001);
#514=CIRCLE('',#1436,5.99999999999999);
#515=CIRCLE('',#1437,3.99999999999999);
#516=CIRCLE('',#1440,5.99999999999999);
#517=CIRCLE('',#1441,3.99999999999999);
#518=CIRCLE('',#1444,6.);
#519=CIRCLE('',#1445,3.99999999999999);
#520=CIRCLE('',#1448,5.99999999999999);
#521=CIRCLE('',#1449,3.99999999999999);
#522=CIRCLE('',#1451,6.);
#523=CIRCLE('',#1454,5.99999999999999);
#524=CIRCLE('',#1456,2.00000000000001);
#525=CIRCLE('',#1457,2.00000000000001);
#526=CIRCLE('',#1458,2.00000000000001);
#527=CIRCLE('',#1459,2.);
#528=CIRCLE('',#1461,22.5);
#529=CIRCLE('',#1463,22.5);
#530=CIRCLE('',#1465,1.65);
#531=CIRCLE('',#1467,1.25);
#532=CIRCLE('',#1469,1.65);
#533=CIRCLE('',#1471,1.25);
#534=CIRCLE('',#1473,1.65);
#535=CIRCLE('',#1475,1.25);
#536=CIRCLE('',#1477,1.65);
#537=CIRCLE('',#1479,1.25);
#538=CIRCLE('',#1481,4.);
#539=CIRCLE('',#1482,4.);
#540=CIRCLE('',#1484,1.25);
#541=CIRCLE('',#1486,4.);
#542=CIRCLE('',#1488,4.);
#543=CIRCLE('',#1489,4.);
#544=CIRCLE('',#1490,4.);
#545=CIRCLE('',#1492,4.);
#546=CIRCLE('',#1494,1.25);
#547=CIRCLE('',#1496,4.);
#548=CIRCLE('',#1498,4.);
#549=CIRCLE('',#1500,4.);
#550=CIRCLE('',#1502,1.25);
#551=CIRCLE('',#1504,4.);
#552=CIRCLE('',#1506,4.);
#553=CIRCLE('',#1508,4.);
#554=CIRCLE('',#1510,1.25);
#555=CIRCLE('',#1512,4.);
#556=CIRCLE('',#1516,2.00000000000001);
#557=CIRCLE('',#1517,2.00000000000001);
#558=CIRCLE('',#1519,2.00000000000001);
#559=CIRCLE('',#1521,2.00000000000001);
#560=CIRCLE('',#1522,2.00000000000001);
#561=CIRCLE('',#1527,2.00000000000001);
#562=CIRCLE('',#1528,2.00000000000001);
#563=CIRCLE('',#1530,2.00000000000001);
#564=CIRCLE('',#1532,2.);
#565=CIRCLE('',#1533,2.);
#566=CIRCLE('',#1537,2.00000000000001);
#567=CIRCLE('',#1540,2.);
#568=CIRCLE('',#1544,4.);
#569=CIRCLE('',#1547,4.);
#570=CIRCLE('',#1551,5.99999999999999);
#571=CIRCLE('',#1554,5.99999999999999);
#572=VERTEX_POINT('',#1989);
#573=VERTEX_POINT('',#1991);
#574=VERTEX_POINT('',#1995);
#575=VERTEX_POINT('',#1998);
#576=VERTEX_POINT('',#2000);
#577=VERTEX_POINT('',#2004);
#578=VERTEX_POINT('',#2007);
#579=VERTEX_POINT('',#2009);
#580=VERTEX_POINT('',#2013);
#581=VERTEX_POINT('',#2016);
#582=VERTEX_POINT('',#2018);
#583=VERTEX_POINT('',#2022);
#584=VERTEX_POINT('',#2025);
#585=VERTEX_POINT('',#2026);
#586=VERTEX_POINT('',#2028);
#587=VERTEX_POINT('',#2030);
#588=VERTEX_POINT('',#2034);
#589=VERTEX_POINT('',#2036);
#590=VERTEX_POINT('',#2040);
#591=VERTEX_POINT('',#2042);
#592=VERTEX_POINT('',#2046);
#593=VERTEX_POINT('',#2048);
#594=VERTEX_POINT('',#2052);
#595=VERTEX_POINT('',#2054);
#596=VERTEX_POINT('',#2058);
#597=VERTEX_POINT('',#2060);
#598=VERTEX_POINT('',#2064);
#599=VERTEX_POINT('',#2066);
#600=VERTEX_POINT('',#2073);
#601=VERTEX_POINT('',#2074);
#602=VERTEX_POINT('',#2076);
#603=VERTEX_POINT('',#2078);
#604=VERTEX_POINT('',#2082);
#605=VERTEX_POINT('',#2083);
#606=VERTEX_POINT('',#2088);
#607=VERTEX_POINT('',#2089);
#608=VERTEX_POINT('',#2094);
#609=VERTEX_POINT('',#2095);
#610=VERTEX_POINT('',#2100);
#611=VERTEX_POINT('',#2101);
#612=VERTEX_POINT('',#2106);
#613=VERTEX_POINT('',#2107);
#614=VERTEX_POINT('',#2112);
#615=VERTEX_POINT('',#2113);
#616=VERTEX_POINT('',#2121);
#617=VERTEX_POINT('',#2123);
#618=VERTEX_POINT('',#2127);
#619=VERTEX_POINT('',#2131);
#620=VERTEX_POINT('',#2135);
#621=VERTEX_POINT('',#2138);
#622=VERTEX_POINT('',#2139);
#623=VERTEX_POINT('',#2141);
#624=VERTEX_POINT('',#2143);
#625=VERTEX_POINT('',#2145);
#626=VERTEX_POINT('',#2147);
#627=VERTEX_POINT('',#2149);
#628=VERTEX_POINT('',#2151);
#629=VERTEX_POINT('',#2155);
#630=VERTEX_POINT('',#2158);
#631=VERTEX_POINT('',#2162);
#632=VERTEX_POINT('',#2166);
#633=VERTEX_POINT('',#2169);
#634=VERTEX_POINT('',#2173);
#635=VERTEX_POINT('',#2176);
#636=VERTEX_POINT('',#2180);
#637=VERTEX_POINT('',#2183);
#638=VERTEX_POINT('',#2187);
#639=VERTEX_POINT('',#2190);
#640=VERTEX_POINT('',#2191);
#641=VERTEX_POINT('',#2193);
#642=VERTEX_POINT('',#2195);
#643=VERTEX_POINT('',#2199);
#644=VERTEX_POINT('',#2205);
#645=VERTEX_POINT('',#2207);
#646=VERTEX_POINT('',#2209);
#647=VERTEX_POINT('',#2211);
#648=VERTEX_POINT('',#2213);
#649=VERTEX_POINT('',#2215);
#650=VERTEX_POINT('',#2219);
#651=VERTEX_POINT('',#2221);
#652=VERTEX_POINT('',#2225);
#653=VERTEX_POINT('',#2231);
#654=VERTEX_POINT('',#2233);
#655=VERTEX_POINT('',#2237);
#656=VERTEX_POINT('',#2239);
#657=VERTEX_POINT('',#2243);
#658=VERTEX_POINT('',#2249);
#659=VERTEX_POINT('',#2251);
#660=VERTEX_POINT('',#2255);
#661=VERTEX_POINT('',#2257);
#662=VERTEX_POINT('',#2261);
#663=VERTEX_POINT('',#2267);
#664=VERTEX_POINT('',#2268);
#665=VERTEX_POINT('',#2270);
#666=VERTEX_POINT('',#2272);
#667=VERTEX_POINT('',#2276);
#668=VERTEX_POINT('',#2277);
#669=VERTEX_POINT('',#2282);
#670=VERTEX_POINT('',#2284);
#671=VERTEX_POINT('',#2288);
#672=VERTEX_POINT('',#2292);
#673=VERTEX_POINT('',#2294);
#674=VERTEX_POINT('',#2298);
#675=VERTEX_POINT('',#2300);
#676=VERTEX_POINT('',#2304);
#677=VERTEX_POINT('',#2308);
#678=VERTEX_POINT('',#2310);
#679=VERTEX_POINT('',#2314);
#680=VERTEX_POINT('',#2316);
#681=VERTEX_POINT('',#2320);
#682=VERTEX_POINT('',#2324);
#683=VERTEX_POINT('',#2326);
#684=VERTEX_POINT('',#2333);
#685=VERTEX_POINT('',#2337);
#686=VERTEX_POINT('',#2341);
#687=VERTEX_POINT('',#2349);
#688=VERTEX_POINT('',#2353);
#689=VERTEX_POINT('',#2357);
#690=VERTEX_POINT('',#2361);
#691=VERTEX_POINT('',#2367);
#692=VERTEX_POINT('',#2371);
#693=VERTEX_POINT('',#2375);
#694=EDGE_CURVE('',#572,#572,#494,.T.);
#695=EDGE_CURVE('',#572,#573,#268,.T.);
#696=EDGE_CURVE('',#573,#573,#495,.T.);
#697=EDGE_CURVE('',#574,#574,#496,.T.);
#698=EDGE_CURVE('',#575,#575,#497,.T.);
#699=EDGE_CURVE('',#575,#576,#269,.T.);
#700=EDGE_CURVE('',#576,#576,#498,.T.);
#701=EDGE_CURVE('',#577,#577,#499,.T.);
#702=EDGE_CURVE('',#578,#578,#500,.T.);
#703=EDGE_CURVE('',#578,#579,#270,.T.);
#704=EDGE_CURVE('',#579,#579,#501,.T.);
#705=EDGE_CURVE('',#580,#580,#502,.T.);
#706=EDGE_CURVE('',#581,#581,#503,.T.);
#707=EDGE_CURVE('',#581,#582,#271,.T.);
#708=EDGE_CURVE('',#582,#582,#504,.T.);
#709=EDGE_CURVE('',#583,#583,#505,.T.);
#710=EDGE_CURVE('',#584,#585,#272,.T.);
#711=EDGE_CURVE('',#586,#584,#273,.T.);
#712=EDGE_CURVE('',#587,#586,#274,.T.);
#713=EDGE_CURVE('',#587,#585,#275,.T.);
#714=EDGE_CURVE('',#585,#588,#506,.T.);
#715=EDGE_CURVE('',#589,#587,#507,.T.);
#716=EDGE_CURVE('',#589,#588,#276,.T.);
#717=EDGE_CURVE('',#588,#590,#277,.T.);
#718=EDGE_CURVE('',#591,#589,#278,.T.);
#719=EDGE_CURVE('',#591,#590,#279,.T.);
#720=EDGE_CURVE('',#590,#592,#508,.T.);
#721=EDGE_CURVE('',#593,#591,#509,.T.);
#722=EDGE_CURVE('',#593,#592,#280,.T.);
#723=EDGE_CURVE('',#592,#594,#281,.T.);
#724=EDGE_CURVE('',#595,#593,#282,.T.);
#725=EDGE_CURVE('',#595,#594,#283,.T.);
#726=EDGE_CURVE('',#594,#596,#510,.T.);
#727=EDGE_CURVE('',#597,#595,#511,.T.);
#728=EDGE_CURVE('',#597,#596,#284,.T.);
#729=EDGE_CURVE('',#596,#598,#285,.T.);
#730=EDGE_CURVE('',#599,#597,#286,.T.);
#731=EDGE_CURVE('',#599,#598,#287,.T.);
#732=EDGE_CURVE('',#598,#584,#512,.T.);
#733=EDGE_CURVE('',#586,#599,#513,.T.);
#734=EDGE_CURVE('',#600,#601,#288,.T.);
#735=EDGE_CURVE('',#601,#602,#289,.T.);
#736=EDGE_CURVE('',#602,#603,#290,.T.);
#737=EDGE_CURVE('',#603,#600,#291,.T.);
#738=EDGE_CURVE('',#604,#605,#292,.T.);
#739=EDGE_CURVE('',#605,#601,#514,.T.);
#740=EDGE_CURVE('',#600,#604,#515,.T.);
#741=EDGE_CURVE('',#606,#607,#293,.T.);
#742=EDGE_CURVE('',#607,#605,#294,.T.);
#743=EDGE_CURVE('',#604,#606,#295,.T.);
#744=EDGE_CURVE('',#608,#609,#296,.T.);
#745=EDGE_CURVE('',#609,#607,#516,.T.);
#746=EDGE_CURVE('',#606,#608,#517,.T.);
#747=EDGE_CURVE('',#610,#611,#297,.T.);
#748=EDGE_CURVE('',#611,#609,#298,.T.);
#749=EDGE_CURVE('',#608,#610,#299,.T.);
#750=EDGE_CURVE('',#612,#613,#300,.T.);
#751=EDGE_CURVE('',#613,#611,#518,.T.);
#752=EDGE_CURVE('',#610,#612,#519,.T.);
#753=EDGE_CURVE('',#614,#615,#301,.T.);
#754=EDGE_CURVE('',#615,#613,#302,.T.);
#755=EDGE_CURVE('',#612,#614,#303,.T.);
#756=EDGE_CURVE('',#602,#615,#520,.T.);
#757=EDGE_CURVE('',#614,#603,#521,.T.);
#758=EDGE_CURVE('',#613,#616,#304,.T.);
#759=EDGE_CURVE('',#617,#616,#522,.T.);
#760=EDGE_CURVE('',#611,#617,#305,.T.);
#761=EDGE_CURVE('',#615,#618,#306,.T.);
#762=EDGE_CURVE('',#616,#618,#307,.T.);
#763=EDGE_CURVE('',#602,#619,#308,.T.);
#764=EDGE_CURVE('',#618,#619,#523,.T.);
#765=EDGE_CURVE('',#601,#620,#309,.T.);
#766=EDGE_CURVE('',#619,#620,#310,.T.);
#767=EDGE_CURVE('',#621,#622,#311,.T.);
#768=EDGE_CURVE('',#622,#623,#524,.T.);
#769=EDGE_CURVE('',#623,#624,#312,.T.);
#770=EDGE_CURVE('',#624,#625,#525,.T.);
#771=EDGE_CURVE('',#625,#626,#313,.T.);
#772=EDGE_CURVE('',#626,#627,#526,.T.);
#773=EDGE_CURVE('',#627,#628,#314,.T.);
#774=EDGE_CURVE('',#628,#621,#527,.T.);
#775=EDGE_CURVE('',#629,#629,#528,.T.);
#776=EDGE_CURVE('',#629,#630,#315,.T.);
#777=EDGE_CURVE('',#630,#630,#529,.T.);
#778=EDGE_CURVE('',#577,#631,#316,.T.);
#779=EDGE_CURVE('',#631,#631,#530,.T.);
#780=EDGE_CURVE('',#632,#632,#531,.T.);
#781=EDGE_CURVE('',#583,#633,#317,.T.);
#782=EDGE_CURVE('',#633,#633,#532,.T.);
#783=EDGE_CURVE('',#634,#634,#533,.T.);
#784=EDGE_CURVE('',#574,#635,#318,.T.);
#785=EDGE_CURVE('',#635,#635,#534,.T.);
#786=EDGE_CURVE('',#636,#636,#535,.T.);
#787=EDGE_CURVE('',#580,#637,#319,.T.);
#788=EDGE_CURVE('',#637,#637,#536,.T.);
#789=EDGE_CURVE('',#638,#638,#537,.T.);
#790=EDGE_CURVE('',#639,#640,#320,.T.);
#791=EDGE_CURVE('',#641,#640,#538,.T.);
#792=EDGE_CURVE('',#642,#641,#321,.T.);
#793=EDGE_CURVE('',#639,#642,#539,.T.);
#794=EDGE_CURVE('',#643,#643,#540,.T.);
#795=EDGE_CURVE('',#643,#636,#322,.T.);
#796=EDGE_CURVE('',#641,#640,#541,.T.);
#797=EDGE_CURVE('',#642,#644,#323,.T.);
#798=EDGE_CURVE('',#644,#645,#542,.T.);
#799=EDGE_CURVE('',#645,#646,#324,.T.);
#800=EDGE_CURVE('',#646,#647,#543,.T.);
#801=EDGE_CURVE('',#647,#648,#325,.T.);
#802=EDGE_CURVE('',#648,#649,#544,.T.);
#803=EDGE_CURVE('',#649,#639,#326,.T.);
#804=EDGE_CURVE('',#647,#650,#327,.T.);
#805=EDGE_CURVE('',#646,#651,#328,.T.);
#806=EDGE_CURVE('',#650,#651,#545,.T.);
#807=EDGE_CURVE('',#652,#652,#546,.T.);
#808=EDGE_CURVE('',#652,#634,#329,.T.);
#809=EDGE_CURVE('',#650,#651,#547,.T.);
#810=EDGE_CURVE('',#651,#653,#330,.T.);
#811=EDGE_CURVE('',#654,#653,#548,.T.);
#812=EDGE_CURVE('',#650,#654,#331,.T.);
#813=EDGE_CURVE('',#645,#655,#332,.T.);
#814=EDGE_CURVE('',#644,#656,#333,.T.);
#815=EDGE_CURVE('',#655,#656,#549,.T.);
#816=EDGE_CURVE('',#657,#657,#550,.T.);
#817=EDGE_CURVE('',#657,#632,#334,.T.);
#818=EDGE_CURVE('',#655,#656,#551,.T.);
#819=EDGE_CURVE('',#656,#658,#335,.T.);
#820=EDGE_CURVE('',#659,#658,#552,.T.);
#821=EDGE_CURVE('',#655,#659,#336,.T.);
#822=EDGE_CURVE('',#648,#660,#337,.T.);
#823=EDGE_CURVE('',#661,#660,#553,.T.);
#824=EDGE_CURVE('',#649,#661,#338,.T.);
#825=EDGE_CURVE('',#662,#662,#554,.T.);
#826=EDGE_CURVE('',#662,#638,#339,.T.);
#827=EDGE_CURVE('',#661,#660,#555,.T.);
#828=EDGE_CURVE('',#663,#664,#340,.T.);
#829=EDGE_CURVE('',#665,#663,#341,.T.);
#830=EDGE_CURVE('',#666,#665,#342,.T.);
#831=EDGE_CURVE('',#666,#664,#343,.T.);
#832=EDGE_CURVE('',#667,#668,#344,.T.);
#833=EDGE_CURVE('',#667,#626,#345,.T.);
#834=EDGE_CURVE('',#668,#625,#346,.T.);
#835=EDGE_CURVE('',#669,#663,#556,.T.);
#836=EDGE_CURVE('',#670,#669,#347,.T.);
#837=EDGE_CURVE('',#665,#670,#557,.T.);
#838=EDGE_CURVE('',#668,#671,#558,.T.);
#839=EDGE_CURVE('',#671,#624,#348,.T.);
#840=EDGE_CURVE('',#664,#672,#559,.T.);
#841=EDGE_CURVE('',#673,#666,#560,.T.);
#842=EDGE_CURVE('',#673,#672,#349,.T.);
#843=EDGE_CURVE('',#674,#669,#350,.T.);
#844=EDGE_CURVE('',#675,#674,#351,.T.);
#845=EDGE_CURVE('',#670,#675,#352,.T.);
#846=EDGE_CURVE('',#671,#676,#353,.T.);
#847=EDGE_CURVE('',#676,#623,#354,.T.);
#848=EDGE_CURVE('',#672,#677,#355,.T.);
#849=EDGE_CURVE('',#678,#673,#356,.T.);
#850=EDGE_CURVE('',#678,#677,#357,.T.);
#851=EDGE_CURVE('',#679,#674,#561,.T.);
#852=EDGE_CURVE('',#680,#679,#358,.T.);
#853=EDGE_CURVE('',#675,#680,#562,.T.);
#854=EDGE_CURVE('',#676,#681,#563,.T.);
#855=EDGE_CURVE('',#681,#622,#359,.T.);
#856=EDGE_CURVE('',#677,#682,#564,.T.);
#857=EDGE_CURVE('',#683,#678,#565,.T.);
#858=EDGE_CURVE('',#683,#682,#360,.T.);
#859=EDGE_CURVE('',#682,#679,#361,.T.);
#860=EDGE_CURVE('',#680,#683,#362,.T.);
#861=EDGE_CURVE('',#681,#684,#363,.T.);
#862=EDGE_CURVE('',#684,#621,#364,.T.);
#863=EDGE_CURVE('',#685,#667,#566,.T.);
#864=EDGE_CURVE('',#685,#627,#365,.T.);
#865=EDGE_CURVE('',#686,#685,#366,.T.);
#866=EDGE_CURVE('',#686,#628,#367,.T.);
#867=EDGE_CURVE('',#684,#686,#567,.T.);
#868=EDGE_CURVE('',#653,#659,#368,.T.);
#869=EDGE_CURVE('',#658,#687,#369,.T.);
#870=EDGE_CURVE('',#641,#687,#370,.T.);
#871=EDGE_CURVE('',#640,#688,#371,.T.);
#872=EDGE_CURVE('',#687,#688,#568,.T.);
#873=EDGE_CURVE('',#688,#689,#372,.T.);
#874=EDGE_CURVE('',#661,#689,#373,.T.);
#875=EDGE_CURVE('',#660,#690,#374,.T.);
#876=EDGE_CURVE('',#689,#690,#569,.T.);
#877=EDGE_CURVE('',#690,#654,#375,.T.);
#878=EDGE_CURVE('',#691,#617,#376,.T.);
#879=EDGE_CURVE('',#609,#691,#377,.T.);
#880=EDGE_CURVE('',#692,#691,#570,.T.);
#881=EDGE_CURVE('',#607,#692,#378,.T.);
#882=EDGE_CURVE('',#693,#692,#379,.T.);
#883=EDGE_CURVE('',#605,#693,#380,.T.);
#884=EDGE_CURVE('',#620,#693,#571,.T.);
#885=ORIENTED_EDGE('',*,*,#694,.F.);
#886=ORIENTED_EDGE('',*,*,#695,.T.);
#887=ORIENTED_EDGE('',*,*,#696,.T.);
#888=ORIENTED_EDGE('',*,*,#695,.F.);
#889=ORIENTED_EDGE('',*,*,#696,.F.);
#890=ORIENTED_EDGE('',*,*,#697,.F.);
#891=ORIENTED_EDGE('',*,*,#698,.F.);
#892=ORIENTED_EDGE('',*,*,#699,.T.);
#893=ORIENTED_EDGE('',*,*,#700,.T.);
#894=ORIENTED_EDGE('',*,*,#699,.F.);
#895=ORIENTED_EDGE('',*,*,#700,.F.);
#896=ORIENTED_EDGE('',*,*,#701,.F.);
#897=ORIENTED_EDGE('',*,*,#702,.F.);
#898=ORIENTED_EDGE('',*,*,#703,.T.);
#899=ORIENTED_EDGE('',*,*,#704,.T.);
#900=ORIENTED_EDGE('',*,*,#703,.F.);
#901=ORIENTED_EDGE('',*,*,#704,.F.);
#902=ORIENTED_EDGE('',*,*,#705,.F.);
#903=ORIENTED_EDGE('',*,*,#706,.F.);
#904=ORIENTED_EDGE('',*,*,#707,.T.);
#905=ORIENTED_EDGE('',*,*,#708,.T.);
#906=ORIENTED_EDGE('',*,*,#707,.F.);
#907=ORIENTED_EDGE('',*,*,#708,.F.);
#908=ORIENTED_EDGE('',*,*,#709,.F.);
#909=ORIENTED_EDGE('',*,*,#710,.F.);
#910=ORIENTED_EDGE('',*,*,#711,.F.);
#911=ORIENTED_EDGE('',*,*,#712,.F.);
#912=ORIENTED_EDGE('',*,*,#713,.T.);
#913=ORIENTED_EDGE('',*,*,#714,.F.);
#914=ORIENTED_EDGE('',*,*,#713,.F.);
#915=ORIENTED_EDGE('',*,*,#715,.F.);
#916=ORIENTED_EDGE('',*,*,#716,.T.);
#917=ORIENTED_EDGE('',*,*,#717,.F.);
#918=ORIENTED_EDGE('',*,*,#716,.F.);
#919=ORIENTED_EDGE('',*,*,#718,.F.);
#920=ORIENTED_EDGE('',*,*,#719,.T.);
#921=ORIENTED_EDGE('',*,*,#720,.F.);
#922=ORIENTED_EDGE('',*,*,#719,.F.);
#923=ORIENTED_EDGE('',*,*,#721,.F.);
#924=ORIENTED_EDGE('',*,*,#722,.T.);
#925=ORIENTED_EDGE('',*,*,#723,.F.);
#926=ORIENTED_EDGE('',*,*,#722,.F.);
#927=ORIENTED_EDGE('',*,*,#724,.F.);
#928=ORIENTED_EDGE('',*,*,#725,.T.);
#929=ORIENTED_EDGE('',*,*,#726,.F.);
#930=ORIENTED_EDGE('',*,*,#725,.F.);
#931=ORIENTED_EDGE('',*,*,#727,.F.);
#932=ORIENTED_EDGE('',*,*,#728,.T.);
#933=ORIENTED_EDGE('',*,*,#729,.F.);
#934=ORIENTED_EDGE('',*,*,#728,.F.);
#935=ORIENTED_EDGE('',*,*,#730,.F.);
#936=ORIENTED_EDGE('',*,*,#731,.T.);
#937=ORIENTED_EDGE('',*,*,#732,.F.);
#938=ORIENTED_EDGE('',*,*,#731,.F.);
#939=ORIENTED_EDGE('',*,*,#733,.F.);
#940=ORIENTED_EDGE('',*,*,#711,.T.);
#941=ORIENTED_EDGE('',*,*,#734,.T.);
#942=ORIENTED_EDGE('',*,*,#735,.T.);
#943=ORIENTED_EDGE('',*,*,#736,.T.);
#944=ORIENTED_EDGE('',*,*,#737,.T.);
#945=ORIENTED_EDGE('',*,*,#738,.T.);
#946=ORIENTED_EDGE('',*,*,#739,.T.);
#947=ORIENTED_EDGE('',*,*,#734,.F.);
#948=ORIENTED_EDGE('',*,*,#740,.T.);
#949=ORIENTED_EDGE('',*,*,#741,.T.);
#950=ORIENTED_EDGE('',*,*,#742,.T.);
#951=ORIENTED_EDGE('',*,*,#738,.F.);
#952=ORIENTED_EDGE('',*,*,#743,.T.);
#953=ORIENTED_EDGE('',*,*,#744,.T.);
#954=ORIENTED_EDGE('',*,*,#745,.T.);
#955=ORIENTED_EDGE('',*,*,#741,.F.);
#956=ORIENTED_EDGE('',*,*,#746,.T.);
#957=ORIENTED_EDGE('',*,*,#747,.T.);
#958=ORIENTED_EDGE('',*,*,#748,.T.);
#959=ORIENTED_EDGE('',*,*,#744,.F.);
#960=ORIENTED_EDGE('',*,*,#749,.T.);
#961=ORIENTED_EDGE('',*,*,#750,.T.);
#962=ORIENTED_EDGE('',*,*,#751,.T.);
#963=ORIENTED_EDGE('',*,*,#747,.F.);
#964=ORIENTED_EDGE('',*,*,#752,.T.);
#965=ORIENTED_EDGE('',*,*,#753,.T.);
#966=ORIENTED_EDGE('',*,*,#754,.T.);
#967=ORIENTED_EDGE('',*,*,#750,.F.);
#968=ORIENTED_EDGE('',*,*,#755,.T.);
#969=ORIENTED_EDGE('',*,*,#736,.F.);
#970=ORIENTED_EDGE('',*,*,#756,.T.);
#971=ORIENTED_EDGE('',*,*,#753,.F.);
#972=ORIENTED_EDGE('',*,*,#757,.T.);
#973=ORIENTED_EDGE('',*,*,#751,.F.);
#974=ORIENTED_EDGE('',*,*,#758,.T.);
#975=ORIENTED_EDGE('',*,*,#759,.F.);
#976=ORIENTED_EDGE('',*,*,#760,.F.);
#977=ORIENTED_EDGE('',*,*,#754,.F.);
#978=ORIENTED_EDGE('',*,*,#761,.T.);
#979=ORIENTED_EDGE('',*,*,#762,.F.);
#980=ORIENTED_EDGE('',*,*,#758,.F.);
#981=ORIENTED_EDGE('',*,*,#756,.F.);
#982=ORIENTED_EDGE('',*,*,#763,.T.);
#983=ORIENTED_EDGE('',*,*,#764,.F.);
#984=ORIENTED_EDGE('',*,*,#761,.F.);
#985=ORIENTED_EDGE('',*,*,#735,.F.);
#986=ORIENTED_EDGE('',*,*,#765,.T.);
#987=ORIENTED_EDGE('',*,*,#766,.F.);
#988=ORIENTED_EDGE('',*,*,#763,.F.);
#989=ORIENTED_EDGE('',*,*,#767,.T.);
#990=ORIENTED_EDGE('',*,*,#768,.T.);
#991=ORIENTED_EDGE('',*,*,#769,.T.);
#992=ORIENTED_EDGE('',*,*,#770,.T.);
#993=ORIENTED_EDGE('',*,*,#771,.T.);
#994=ORIENTED_EDGE('',*,*,#772,.T.);
#995=ORIENTED_EDGE('',*,*,#773,.T.);
#996=ORIENTED_EDGE('',*,*,#774,.T.);
#997=ORIENTED_EDGE('',*,*,#737,.F.);
#998=ORIENTED_EDGE('',*,*,#757,.F.);
#999=ORIENTED_EDGE('',*,*,#755,.F.);
#1000=ORIENTED_EDGE('',*,*,#752,.F.);
#1001=ORIENTED_EDGE('',*,*,#749,.F.);
#1002=ORIENTED_EDGE('',*,*,#746,.F.);
#1003=ORIENTED_EDGE('',*,*,#743,.F.);
#1004=ORIENTED_EDGE('',*,*,#740,.F.);
#1005=ORIENTED_EDGE('',*,*,#694,.T.);
#1006=ORIENTED_EDGE('',*,*,#698,.T.);
#1007=ORIENTED_EDGE('',*,*,#702,.T.);
#1008=ORIENTED_EDGE('',*,*,#706,.T.);
#1009=ORIENTED_EDGE('',*,*,#775,.T.);
#1010=ORIENTED_EDGE('',*,*,#775,.F.);
#1011=ORIENTED_EDGE('',*,*,#776,.T.);
#1012=ORIENTED_EDGE('',*,*,#777,.F.);
#1013=ORIENTED_EDGE('',*,*,#776,.F.);
#1014=ORIENTED_EDGE('',*,*,#701,.T.);
#1015=ORIENTED_EDGE('',*,*,#778,.T.);
#1016=ORIENTED_EDGE('',*,*,#779,.T.);
#1017=ORIENTED_EDGE('',*,*,#778,.F.);
#1018=ORIENTED_EDGE('',*,*,#779,.F.);
#1019=ORIENTED_EDGE('',*,*,#780,.F.);
#1020=ORIENTED_EDGE('',*,*,#709,.T.);
#1021=ORIENTED_EDGE('',*,*,#781,.T.);
#1022=ORIENTED_EDGE('',*,*,#782,.T.);
#1023=ORIENTED_EDGE('',*,*,#781,.F.);
#1024=ORIENTED_EDGE('',*,*,#782,.F.);
#1025=ORIENTED_EDGE('',*,*,#783,.F.);
#1026=ORIENTED_EDGE('',*,*,#697,.T.);
#1027=ORIENTED_EDGE('',*,*,#784,.T.);
#1028=ORIENTED_EDGE('',*,*,#785,.T.);
#1029=ORIENTED_EDGE('',*,*,#784,.F.);
#1030=ORIENTED_EDGE('',*,*,#785,.F.);
#1031=ORIENTED_EDGE('',*,*,#786,.F.);
#1032=ORIENTED_EDGE('',*,*,#705,.T.);
#1033=ORIENTED_EDGE('',*,*,#787,.T.);
#1034=ORIENTED_EDGE('',*,*,#788,.T.);
#1035=ORIENTED_EDGE('',*,*,#787,.F.);
#1036=ORIENTED_EDGE('',*,*,#788,.F.);
#1037=ORIENTED_EDGE('',*,*,#789,.F.);
#1038=ORIENTED_EDGE('',*,*,#790,.T.);
#1039=ORIENTED_EDGE('',*,*,#791,.F.);
#1040=ORIENTED_EDGE('',*,*,#792,.F.);
#1041=ORIENTED_EDGE('',*,*,#793,.F.);
#1042=ORIENTED_EDGE('',*,*,#794,.F.);
#1043=ORIENTED_EDGE('',*,*,#795,.T.);
#1044=ORIENTED_EDGE('',*,*,#786,.T.);
#1045=ORIENTED_EDGE('',*,*,#795,.F.);
#1046=ORIENTED_EDGE('',*,*,#796,.F.);
#1047=ORIENTED_EDGE('',*,*,#791,.T.);
#1048=ORIENTED_EDGE('',*,*,#794,.T.);
#1049=ORIENTED_EDGE('',*,*,#793,.T.);
#1050=ORIENTED_EDGE('',*,*,#797,.T.);
#1051=ORIENTED_EDGE('',*,*,#798,.T.);
#1052=ORIENTED_EDGE('',*,*,#799,.T.);
#1053=ORIENTED_EDGE('',*,*,#800,.T.);
#1054=ORIENTED_EDGE('',*,*,#801,.T.);
#1055=ORIENTED_EDGE('',*,*,#802,.T.);
#1056=ORIENTED_EDGE('',*,*,#803,.T.);
#1057=ORIENTED_EDGE('',*,*,#777,.T.);
#1058=ORIENTED_EDGE('',*,*,#804,.F.);
#1059=ORIENTED_EDGE('',*,*,#800,.F.);
#1060=ORIENTED_EDGE('',*,*,#805,.T.);
#1061=ORIENTED_EDGE('',*,*,#806,.F.);
#1062=ORIENTED_EDGE('',*,*,#807,.F.);
#1063=ORIENTED_EDGE('',*,*,#808,.T.);
#1064=ORIENTED_EDGE('',*,*,#783,.T.);
#1065=ORIENTED_EDGE('',*,*,#808,.F.);
#1066=ORIENTED_EDGE('',*,*,#809,.F.);
#1067=ORIENTED_EDGE('',*,*,#806,.T.);
#1068=ORIENTED_EDGE('',*,*,#807,.T.);
#1069=ORIENTED_EDGE('',*,*,#809,.T.);
#1070=ORIENTED_EDGE('',*,*,#810,.T.);
#1071=ORIENTED_EDGE('',*,*,#811,.F.);
#1072=ORIENTED_EDGE('',*,*,#812,.F.);
#1073=ORIENTED_EDGE('',*,*,#813,.F.);
#1074=ORIENTED_EDGE('',*,*,#798,.F.);
#1075=ORIENTED_EDGE('',*,*,#814,.T.);
#1076=ORIENTED_EDGE('',*,*,#815,.F.);
#1077=ORIENTED_EDGE('',*,*,#816,.F.);
#1078=ORIENTED_EDGE('',*,*,#817,.T.);
#1079=ORIENTED_EDGE('',*,*,#780,.T.);
#1080=ORIENTED_EDGE('',*,*,#817,.F.);
#1081=ORIENTED_EDGE('',*,*,#815,.T.);
#1082=ORIENTED_EDGE('',*,*,#818,.F.);
#1083=ORIENTED_EDGE('',*,*,#816,.T.);
#1084=ORIENTED_EDGE('',*,*,#818,.T.);
#1085=ORIENTED_EDGE('',*,*,#819,.T.);
#1086=ORIENTED_EDGE('',*,*,#820,.F.);
#1087=ORIENTED_EDGE('',*,*,#821,.F.);
#1088=ORIENTED_EDGE('',*,*,#822,.T.);
#1089=ORIENTED_EDGE('',*,*,#823,.F.);
#1090=ORIENTED_EDGE('',*,*,#824,.F.);
#1091=ORIENTED_EDGE('',*,*,#802,.F.);
#1092=ORIENTED_EDGE('',*,*,#825,.F.);
#1093=ORIENTED_EDGE('',*,*,#826,.T.);
#1094=ORIENTED_EDGE('',*,*,#789,.T.);
#1095=ORIENTED_EDGE('',*,*,#826,.F.);
#1096=ORIENTED_EDGE('',*,*,#827,.F.);
#1097=ORIENTED_EDGE('',*,*,#823,.T.);
#1098=ORIENTED_EDGE('',*,*,#825,.T.);
#1099=ORIENTED_EDGE('',*,*,#828,.F.);
#1100=ORIENTED_EDGE('',*,*,#829,.F.);
#1101=ORIENTED_EDGE('',*,*,#830,.F.);
#1102=ORIENTED_EDGE('',*,*,#831,.T.);
#1103=ORIENTED_EDGE('',*,*,#832,.F.);
#1104=ORIENTED_EDGE('',*,*,#833,.T.);
#1105=ORIENTED_EDGE('',*,*,#771,.F.);
#1106=ORIENTED_EDGE('',*,*,#834,.F.);
#1107=ORIENTED_EDGE('',*,*,#835,.F.);
#1108=ORIENTED_EDGE('',*,*,#836,.F.);
#1109=ORIENTED_EDGE('',*,*,#837,.F.);
#1110=ORIENTED_EDGE('',*,*,#829,.T.);
#1111=ORIENTED_EDGE('',*,*,#838,.F.);
#1112=ORIENTED_EDGE('',*,*,#834,.T.);
#1113=ORIENTED_EDGE('',*,*,#770,.F.);
#1114=ORIENTED_EDGE('',*,*,#839,.F.);
#1115=ORIENTED_EDGE('',*,*,#840,.F.);
#1116=ORIENTED_EDGE('',*,*,#831,.F.);
#1117=ORIENTED_EDGE('',*,*,#841,.F.);
#1118=ORIENTED_EDGE('',*,*,#842,.T.);
#1119=ORIENTED_EDGE('',*,*,#843,.F.);
#1120=ORIENTED_EDGE('',*,*,#844,.F.);
#1121=ORIENTED_EDGE('',*,*,#845,.F.);
#1122=ORIENTED_EDGE('',*,*,#836,.T.);
#1123=ORIENTED_EDGE('',*,*,#846,.F.);
#1124=ORIENTED_EDGE('',*,*,#839,.T.);
#1125=ORIENTED_EDGE('',*,*,#769,.F.);
#1126=ORIENTED_EDGE('',*,*,#847,.F.);
#1127=ORIENTED_EDGE('',*,*,#848,.F.);
#1128=ORIENTED_EDGE('',*,*,#842,.F.);
#1129=ORIENTED_EDGE('',*,*,#849,.F.);
#1130=ORIENTED_EDGE('',*,*,#850,.T.);
#1131=ORIENTED_EDGE('',*,*,#851,.F.);
#1132=ORIENTED_EDGE('',*,*,#852,.F.);
#1133=ORIENTED_EDGE('',*,*,#853,.F.);
#1134=ORIENTED_EDGE('',*,*,#844,.T.);
#1135=ORIENTED_EDGE('',*,*,#854,.F.);
#1136=ORIENTED_EDGE('',*,*,#847,.T.);
#1137=ORIENTED_EDGE('',*,*,#768,.F.);
#1138=ORIENTED_EDGE('',*,*,#855,.F.);
#1139=ORIENTED_EDGE('',*,*,#856,.F.);
#1140=ORIENTED_EDGE('',*,*,#850,.F.);
#1141=ORIENTED_EDGE('',*,*,#857,.F.);
#1142=ORIENTED_EDGE('',*,*,#858,.T.);
#1143=ORIENTED_EDGE('',*,*,#859,.F.);
#1144=ORIENTED_EDGE('',*,*,#858,.F.);
#1145=ORIENTED_EDGE('',*,*,#860,.F.);
#1146=ORIENTED_EDGE('',*,*,#852,.T.);
#1147=ORIENTED_EDGE('',*,*,#861,.F.);
#1148=ORIENTED_EDGE('',*,*,#855,.T.);
#1149=ORIENTED_EDGE('',*,*,#767,.F.);
#1150=ORIENTED_EDGE('',*,*,#862,.F.);
#1151=ORIENTED_EDGE('',*,*,#863,.F.);
#1152=ORIENTED_EDGE('',*,*,#864,.T.);
#1153=ORIENTED_EDGE('',*,*,#772,.F.);
#1154=ORIENTED_EDGE('',*,*,#833,.F.);
#1155=ORIENTED_EDGE('',*,*,#865,.F.);
#1156=ORIENTED_EDGE('',*,*,#866,.T.);
#1157=ORIENTED_EDGE('',*,*,#773,.F.);
#1158=ORIENTED_EDGE('',*,*,#864,.F.);
#1159=ORIENTED_EDGE('',*,*,#867,.F.);
#1160=ORIENTED_EDGE('',*,*,#862,.T.);
#1161=ORIENTED_EDGE('',*,*,#774,.F.);
#1162=ORIENTED_EDGE('',*,*,#866,.F.);
#1163=ORIENTED_EDGE('',*,*,#868,.F.);
#1164=ORIENTED_EDGE('',*,*,#810,.F.);
#1165=ORIENTED_EDGE('',*,*,#805,.F.);
#1166=ORIENTED_EDGE('',*,*,#799,.F.);
#1167=ORIENTED_EDGE('',*,*,#813,.T.);
#1168=ORIENTED_EDGE('',*,*,#821,.T.);
#1169=ORIENTED_EDGE('',*,*,#723,.T.);
#1170=ORIENTED_EDGE('',*,*,#726,.T.);
#1171=ORIENTED_EDGE('',*,*,#729,.T.);
#1172=ORIENTED_EDGE('',*,*,#732,.T.);
#1173=ORIENTED_EDGE('',*,*,#710,.T.);
#1174=ORIENTED_EDGE('',*,*,#714,.T.);
#1175=ORIENTED_EDGE('',*,*,#717,.T.);
#1176=ORIENTED_EDGE('',*,*,#720,.T.);
#1177=ORIENTED_EDGE('',*,*,#869,.F.);
#1178=ORIENTED_EDGE('',*,*,#819,.F.);
#1179=ORIENTED_EDGE('',*,*,#814,.F.);
#1180=ORIENTED_EDGE('',*,*,#797,.F.);
#1181=ORIENTED_EDGE('',*,*,#792,.T.);
#1182=ORIENTED_EDGE('',*,*,#870,.T.);
#1183=ORIENTED_EDGE('',*,*,#861,.T.);
#1184=ORIENTED_EDGE('',*,*,#867,.T.);
#1185=ORIENTED_EDGE('',*,*,#865,.T.);
#1186=ORIENTED_EDGE('',*,*,#863,.T.);
#1187=ORIENTED_EDGE('',*,*,#832,.T.);
#1188=ORIENTED_EDGE('',*,*,#838,.T.);
#1189=ORIENTED_EDGE('',*,*,#846,.T.);
#1190=ORIENTED_EDGE('',*,*,#854,.T.);
#1191=ORIENTED_EDGE('',*,*,#796,.T.);
#1192=ORIENTED_EDGE('',*,*,#871,.T.);
#1193=ORIENTED_EDGE('',*,*,#872,.F.);
#1194=ORIENTED_EDGE('',*,*,#870,.F.);
#1195=ORIENTED_EDGE('',*,*,#873,.F.);
#1196=ORIENTED_EDGE('',*,*,#871,.F.);
#1197=ORIENTED_EDGE('',*,*,#790,.F.);
#1198=ORIENTED_EDGE('',*,*,#803,.F.);
#1199=ORIENTED_EDGE('',*,*,#824,.T.);
#1200=ORIENTED_EDGE('',*,*,#874,.T.);
#1201=ORIENTED_EDGE('',*,*,#827,.T.);
#1202=ORIENTED_EDGE('',*,*,#875,.T.);
#1203=ORIENTED_EDGE('',*,*,#876,.F.);
#1204=ORIENTED_EDGE('',*,*,#874,.F.);
#1205=ORIENTED_EDGE('',*,*,#877,.F.);
#1206=ORIENTED_EDGE('',*,*,#875,.F.);
#1207=ORIENTED_EDGE('',*,*,#822,.F.);
#1208=ORIENTED_EDGE('',*,*,#801,.F.);
#1209=ORIENTED_EDGE('',*,*,#804,.T.);
#1210=ORIENTED_EDGE('',*,*,#812,.T.);
#1211=ORIENTED_EDGE('',*,*,#859,.T.);
#1212=ORIENTED_EDGE('',*,*,#851,.T.);
#1213=ORIENTED_EDGE('',*,*,#843,.T.);
#1214=ORIENTED_EDGE('',*,*,#835,.T.);
#1215=ORIENTED_EDGE('',*,*,#828,.T.);
#1216=ORIENTED_EDGE('',*,*,#840,.T.);
#1217=ORIENTED_EDGE('',*,*,#848,.T.);
#1218=ORIENTED_EDGE('',*,*,#856,.T.);
#1219=ORIENTED_EDGE('',*,*,#748,.F.);
#1220=ORIENTED_EDGE('',*,*,#760,.T.);
#1221=ORIENTED_EDGE('',*,*,#878,.F.);
#1222=ORIENTED_EDGE('',*,*,#879,.F.);
#1223=ORIENTED_EDGE('',*,*,#860,.T.);
#1224=ORIENTED_EDGE('',*,*,#857,.T.);
#1225=ORIENTED_EDGE('',*,*,#849,.T.);
#1226=ORIENTED_EDGE('',*,*,#841,.T.);
#1227=ORIENTED_EDGE('',*,*,#830,.T.);
#1228=ORIENTED_EDGE('',*,*,#837,.T.);
#1229=ORIENTED_EDGE('',*,*,#845,.T.);
#1230=ORIENTED_EDGE('',*,*,#853,.T.);
#1231=ORIENTED_EDGE('',*,*,#745,.F.);
#1232=ORIENTED_EDGE('',*,*,#879,.T.);
#1233=ORIENTED_EDGE('',*,*,#880,.F.);
#1234=ORIENTED_EDGE('',*,*,#881,.F.);
#1235=ORIENTED_EDGE('',*,*,#742,.F.);
#1236=ORIENTED_EDGE('',*,*,#881,.T.);
#1237=ORIENTED_EDGE('',*,*,#882,.F.);
#1238=ORIENTED_EDGE('',*,*,#883,.F.);
#1239=ORIENTED_EDGE('',*,*,#724,.T.);
#1240=ORIENTED_EDGE('',*,*,#721,.T.);
#1241=ORIENTED_EDGE('',*,*,#718,.T.);
#1242=ORIENTED_EDGE('',*,*,#715,.T.);
#1243=ORIENTED_EDGE('',*,*,#712,.T.);
#1244=ORIENTED_EDGE('',*,*,#733,.T.);
#1245=ORIENTED_EDGE('',*,*,#730,.T.);
#1246=ORIENTED_EDGE('',*,*,#727,.T.);
#1247=ORIENTED_EDGE('',*,*,#739,.F.);
#1248=ORIENTED_EDGE('',*,*,#883,.T.);
#1249=ORIENTED_EDGE('',*,*,#884,.F.);
#1250=ORIENTED_EDGE('',*,*,#765,.F.);
#1251=ORIENTED_EDGE('',*,*,#884,.T.);
#1252=ORIENTED_EDGE('',*,*,#882,.T.);
#1253=ORIENTED_EDGE('',*,*,#880,.T.);
#1254=ORIENTED_EDGE('',*,*,#878,.T.);
#1255=ORIENTED_EDGE('',*,*,#759,.T.);
#1256=ORIENTED_EDGE('',*,*,#762,.T.);
#1257=ORIENTED_EDGE('',*,*,#764,.T.);
#1258=ORIENTED_EDGE('',*,*,#766,.T.);
#1259=ORIENTED_EDGE('',*,*,#873,.T.);
#1260=ORIENTED_EDGE('',*,*,#876,.T.);
#1261=ORIENTED_EDGE('',*,*,#877,.T.);
#1262=ORIENTED_EDGE('',*,*,#811,.T.);
#1263=ORIENTED_EDGE('',*,*,#868,.T.);
#1264=ORIENTED_EDGE('',*,*,#820,.T.);
#1265=ORIENTED_EDGE('',*,*,#869,.T.);
#1266=ORIENTED_EDGE('',*,*,#872,.T.);
#1267=CYLINDRICAL_SURFACE('',#1398,2.3);
#1268=CYLINDRICAL_SURFACE('',#1403,2.3);
#1269=CYLINDRICAL_SURFACE('',#1408,2.3);
#1270=CYLINDRICAL_SURFACE('',#1413,2.3);
#1271=CYLINDRICAL_SURFACE('',#1419,0.800000000000001);
#1272=CYLINDRICAL_SURFACE('',#1423,0.8);
#1273=CYLINDRICAL_SURFACE('',#1427,0.800000000000001);
#1274=CYLINDRICAL_SURFACE('',#1431,0.800000000000001);
#1275=CYLINDRICAL_SURFACE('',#1450,6.);
#1276=CYLINDRICAL_SURFACE('',#1453,5.99999999999999);
#1277=CYLINDRICAL_SURFACE('',#1462,22.5);
#1278=CYLINDRICAL_SURFACE('',#1464,1.65);
#1279=CYLINDRICAL_SURFACE('',#1468,1.65);
#1280=CYLINDRICAL_SURFACE('',#1472,1.65);
#1281=CYLINDRICAL_SURFACE('',#1476,1.65);
#1282=CYLINDRICAL_SURFACE('',#1480,4.);
#1283=CYLINDRICAL_SURFACE('',#1483,1.25);
#1284=CYLINDRICAL_SURFACE('',#1491,4.);
#1285=CYLINDRICAL_SURFACE('',#1493,1.25);
#1286=CYLINDRICAL_SURFACE('',#1497,4.);
#1287=CYLINDRICAL_SURFACE('',#1499,4.);
#1288=CYLINDRICAL_SURFACE('',#1501,1.25);
#1289=CYLINDRICAL_SURFACE('',#1505,4.);
#1290=CYLINDRICAL_SURFACE('',#1507,4.);
#1291=CYLINDRICAL_SURFACE('',#1509,1.25);
#1292=CYLINDRICAL_SURFACE('',#1515,2.00000000000001);
#1293=CYLINDRICAL_SURFACE('',#1518,2.00000000000001);
#1294=CYLINDRICAL_SURFACE('',#1520,2.00000000000001);
#1295=CYLINDRICAL_SURFACE('',#1526,2.00000000000001);
#1296=CYLINDRICAL_SURFACE('',#1529,2.00000000000001);
#1297=CYLINDRICAL_SURFACE('',#1531,2.);
#1298=CYLINDRICAL_SURFACE('',#1536,2.00000000000001);
#1299=CYLINDRICAL_SURFACE('',#1539,2.);
#1300=CYLINDRICAL_SURFACE('',#1543,4.);
#1301=CYLINDRICAL_SURFACE('',#1546,4.);
#1302=CYLINDRICAL_SURFACE('',#1550,5.99999999999999);
#1303=CYLINDRICAL_SURFACE('',#1553,5.99999999999999);
#1304=ADVANCED_FACE('',(#83),#1267,.F.);
#1305=ADVANCED_FACE('',(#84,#19),#44,.F.);
#1306=ADVANCED_FACE('',(#85),#1268,.F.);
#1307=ADVANCED_FACE('',(#86,#20),#45,.F.);
#1308=ADVANCED_FACE('',(#87),#1269,.F.);
#1309=ADVANCED_FACE('',(#88,#21),#46,.F.);
#1310=ADVANCED_FACE('',(#89),#1270,.F.);
#1311=ADVANCED_FACE('',(#90,#22),#47,.F.);
#1312=ADVANCED_FACE('',(#91),#48,.F.);
#1313=ADVANCED_FACE('',(#92),#1271,.F.);
#1314=ADVANCED_FACE('',(#93),#49,.F.);
#1315=ADVANCED_FACE('',(#94),#1272,.F.);
#1316=ADVANCED_FACE('',(#95),#50,.F.);
#1317=ADVANCED_FACE('',(#96),#1273,.F.);
#1318=ADVANCED_FACE('',(#97),#51,.F.);
#1319=ADVANCED_FACE('',(#98),#1274,.F.);
#1320=ADVANCED_FACE('',(#99),#52,.T.);
#1321=ADVANCED_FACE('',(#100),#15,.T.);
#1322=ADVANCED_FACE('',(#101),#53,.T.);
#1323=ADVANCED_FACE('',(#102),#16,.T.);
#1324=ADVANCED_FACE('',(#103),#54,.T.);
#1325=ADVANCED_FACE('',(#104),#17,.T.);
#1326=ADVANCED_FACE('',(#105),#55,.T.);
#1327=ADVANCED_FACE('',(#106),#18,.T.);
#1328=ADVANCED_FACE('',(#107),#1275,.T.);
#1329=ADVANCED_FACE('',(#108),#56,.T.);
#1330=ADVANCED_FACE('',(#109),#1276,.T.);
#1331=ADVANCED_FACE('',(#110,#23),#57,.T.);
#1332=ADVANCED_FACE('',(#111,#24,#25,#26,#27,#28),#58,.F.);
#1333=ADVANCED_FACE('',(#112),#1277,.F.);
#1334=ADVANCED_FACE('',(#113),#1278,.F.);
#1335=ADVANCED_FACE('',(#114,#29),#59,.F.);
#1336=ADVANCED_FACE('',(#115),#1279,.F.);
#1337=ADVANCED_FACE('',(#116,#30),#60,.F.);
#1338=ADVANCED_FACE('',(#117),#1280,.F.);
#1339=ADVANCED_FACE('',(#118,#31),#61,.F.);
#1340=ADVANCED_FACE('',(#119),#1281,.F.);
#1341=ADVANCED_FACE('',(#120,#32),#62,.F.);
#1342=ADVANCED_FACE('',(#121),#1282,.T.);
#1343=ADVANCED_FACE('',(#122),#1283,.F.);
#1344=ADVANCED_FACE('',(#123,#33),#63,.T.);
#1345=ADVANCED_FACE('',(#124,#34),#64,.T.);
#1346=ADVANCED_FACE('',(#125),#1284,.T.);
#1347=ADVANCED_FACE('',(#126),#1285,.F.);
#1348=ADVANCED_FACE('',(#127,#35),#65,.T.);
#1349=ADVANCED_FACE('',(#128),#1286,.F.);
#1350=ADVANCED_FACE('',(#129),#1287,.T.);
#1351=ADVANCED_FACE('',(#130),#1288,.F.);
#1352=ADVANCED_FACE('',(#131,#36),#66,.T.);
#1353=ADVANCED_FACE('',(#132),#1289,.F.);
#1354=ADVANCED_FACE('',(#133),#1290,.T.);
#1355=ADVANCED_FACE('',(#134),#1291,.F.);
#1356=ADVANCED_FACE('',(#135,#37),#67,.T.);
#1357=ADVANCED_FACE('',(#136),#68,.F.);
#1358=ADVANCED_FACE('',(#137),#69,.F.);
#1359=ADVANCED_FACE('',(#138),#1292,.F.);
#1360=ADVANCED_FACE('',(#139),#1293,.F.);
#1361=ADVANCED_FACE('',(#140),#1294,.F.);
#1362=ADVANCED_FACE('',(#141),#70,.F.);
#1363=ADVANCED_FACE('',(#142),#71,.F.);
#1364=ADVANCED_FACE('',(#143),#72,.F.);
#1365=ADVANCED_FACE('',(#144),#1295,.F.);
#1366=ADVANCED_FACE('',(#145),#1296,.F.);
#1367=ADVANCED_FACE('',(#146),#1297,.F.);
#1368=ADVANCED_FACE('',(#147),#73,.F.);
#1369=ADVANCED_FACE('',(#148),#74,.F.);
#1370=ADVANCED_FACE('',(#149),#1298,.F.);
#1371=ADVANCED_FACE('',(#150),#75,.F.);
#1372=ADVANCED_FACE('',(#151),#1299,.F.);
#1373=ADVANCED_FACE('',(#152,#38),#76,.F.);
#1374=ADVANCED_FACE('',(#153,#39),#77,.F.);
#1375=ADVANCED_FACE('',(#154),#1300,.F.);
#1376=ADVANCED_FACE('',(#155),#78,.F.);
#1377=ADVANCED_FACE('',(#156),#1301,.F.);
#1378=ADVANCED_FACE('',(#157,#40),#79,.F.);
#1379=ADVANCED_FACE('',(#158,#41),#80,.T.);
#1380=ADVANCED_FACE('',(#159),#1302,.T.);
#1381=ADVANCED_FACE('',(#160,#42),#81,.T.);
#1382=ADVANCED_FACE('',(#161),#1303,.T.);
#1383=ADVANCED_FACE('',(#162,#43),#82,.T.);
#1384=CLOSED_SHELL('',(#1304,#1305,#1306,#1307,#1308,#1309,#1310,#1311,
#1312,#1313,#1314,#1315,#1316,#1317,#1318,#1319,#1320,#1321,#1322,#1323,
#1324,#1325,#1326,#1327,#1328,#1329,#1330,#1331,#1332,#1333,#1334,#1335,
#1336,#1337,#1338,#1339,#1340,#1341,#1342,#1343,#1344,#1345,#1346,#1347,
#1348,#1349,#1350,#1351,#1352,#1353,#1354,#1355,#1356,#1357,#1358,#1359,
#1360,#1361,#1362,#1363,#1364,#1365,#1366,#1367,#1368,#1369,#1370,#1371,
#1372,#1373,#1374,#1375,#1376,#1377,#1378,#1379,#1380,#1381,#1382,#1383));
#1385=DERIVED_UNIT_ELEMENT(#1387,1.);
#1386=DERIVED_UNIT_ELEMENT(#2386,-3.);
#1387=(
MASS_UNIT()
NAMED_UNIT(*)
SI_UNIT(.KILO.,.GRAM.)
);
#1388=DERIVED_UNIT((#1385,#1386));
#1389=MEASURE_REPRESENTATION_ITEM('density measure',
POSITIVE_RATIO_MEASURE(7850.),#1388);
#1390=PROPERTY_DEFINITION_REPRESENTATION(#1395,#1392);
#1391=PROPERTY_DEFINITION_REPRESENTATION(#1396,#1393);
#1392=REPRESENTATION('material name',(#1394),#2383);
#1393=REPRESENTATION('density',(#1389),#2383);
#1394=DESCRIPTIVE_REPRESENTATION_ITEM('\X2\94A2\X0\','\X2\94A2\X0\');
#1395=PROPERTY_DEFINITION('material property','material name',#2393);
#1396=PROPERTY_DEFINITION('material property','density of part',#2393);
#1397=AXIS2_PLACEMENT_3D('',#1987,#1556,#1557);
#1398=AXIS2_PLACEMENT_3D('',#1988,#1558,#1559);
#1399=AXIS2_PLACEMENT_3D('',#1990,#1560,#1561);
#1400=AXIS2_PLACEMENT_3D('',#1993,#1563,#1564);
#1401=AXIS2_PLACEMENT_3D('',#1994,#1565,#1566);
#1402=AXIS2_PLACEMENT_3D('',#1996,#1567,#1568);
#1403=AXIS2_PLACEMENT_3D('',#1997,#1569,#1570);
#1404=AXIS2_PLACEMENT_3D('',#1999,#1571,#1572);
#1405=AXIS2_PLACEMENT_3D('',#2002,#1574,#1575);
#1406=AXIS2_PLACEMENT_3D('',#2003,#1576,#1577);
#1407=AXIS2_PLACEMENT_3D('',#2005,#1578,#1579);
#1408=AXIS2_PLACEMENT_3D('',#2006,#1580,#1581);
#1409=AXIS2_PLACEMENT_3D('',#2008,#1582,#1583);
#1410=AXIS2_PLACEMENT_3D('',#2011,#1585,#1586);
#1411=AXIS2_PLACEMENT_3D('',#2012,#1587,#1588);
#1412=AXIS2_PLACEMENT_3D('',#2014,#1589,#1590);
#1413=AXIS2_PLACEMENT_3D('',#2015,#1591,#1592);
#1414=AXIS2_PLACEMENT_3D('',#2017,#1593,#1594);
#1415=AXIS2_PLACEMENT_3D('',#2020,#1596,#1597);
#1416=AXIS2_PLACEMENT_3D('',#2021,#1598,#1599);
#1417=AXIS2_PLACEMENT_3D('',#2023,#1600,#1601);
#1418=AXIS2_PLACEMENT_3D('',#2024,#1602,#1603);
#1419=AXIS2_PLACEMENT_3D('',#2033,#1608,#1609);
#1420=AXIS2_PLACEMENT_3D('',#2035,#1610,#1611);
#1421=AXIS2_PLACEMENT_3D('',#2037,#1612,#1613);
#1422=AXIS2_PLACEMENT_3D('',#2039,#1615,#1616);
#1423=AXIS2_PLACEMENT_3D('',#2045,#1620,#1621);
#1424=AXIS2_PLACEMENT_3D('',#2047,#1622,#1623);
#1425=AXIS2_PLACEMENT_3D('',#2049,#1624,#1625);
#1426=AXIS2_PLACEMENT_3D('',#2051,#1627,#1628);
#1427=AXIS2_PLACEMENT_3D('',#2057,#1632,#1633);
#1428=AXIS2_PLACEMENT_3D('',#2059,#1634,#1635);
#1429=AXIS2_PLACEMENT_3D('',#2061,#1636,#1637);
#1430=AXIS2_PLACEMENT_3D('',#2063,#1639,#1640);
#1431=AXIS2_PLACEMENT_3D('',#2069,#1644,#1645);
#1432=AXIS2_PLACEMENT_3D('',#2070,#1646,#1647);
#1433=AXIS2_PLACEMENT_3D('',#2071,#1648,#1649);
#1434=AXIS2_PLACEMENT_3D('',#2072,#1650,#1651);
#1435=AXIS2_PLACEMENT_3D('',#2081,#1656,#1657);
#1436=AXIS2_PLACEMENT_3D('',#2085,#1659,#1660);
#1437=AXIS2_PLACEMENT_3D('',#2086,#1661,#1662);
#1438=AXIS2_PLACEMENT_3D('',#2087,#1663,#1664);
#1439=AXIS2_PLACEMENT_3D('',#2093,#1668,#1669);
#1440=AXIS2_PLACEMENT_3D('',#2097,#1671,#1672);
#1441=AXIS2_PLACEMENT_3D('',#2098,#1673,#1674);
#1442=AXIS2_PLACEMENT_3D('',#2099,#1675,#1676);
#1443=AXIS2_PLACEMENT_3D('',#2105,#1680,#1681);
#1444=AXIS2_PLACEMENT_3D('',#2109,#1683,#1684);
#1445=AXIS2_PLACEMENT_3D('',#2110,#1685,#1686);
#1446=AXIS2_PLACEMENT_3D('',#2111,#1687,#1688);
#1447=AXIS2_PLACEMENT_3D('',#2117,#1692,#1693);
#1448=AXIS2_PLACEMENT_3D('',#2118,#1694,#1695);
#1449=AXIS2_PLACEMENT_3D('',#2119,#1696,#1697);
#1450=AXIS2_PLACEMENT_3D('',#2120,#1698,#1699);
#1451=AXIS2_PLACEMENT_3D('',#2124,#1701,#1702);
#1452=AXIS2_PLACEMENT_3D('',#2126,#1704,#1705);
#1453=AXIS2_PLACEMENT_3D('',#2130,#1708,#1709);
#1454=AXIS2_PLACEMENT_3D('',#2133,#1711,#1712);
#1455=AXIS2_PLACEMENT_3D('',#2134,#1713,#1714);
#1456=AXIS2_PLACEMENT_3D('',#2142,#1718,#1719);
#1457=AXIS2_PLACEMENT_3D('',#2146,#1721,#1722);
#1458=AXIS2_PLACEMENT_3D('',#2150,#1724,#1725);
#1459=AXIS2_PLACEMENT_3D('',#2153,#1727,#1728);
#1460=AXIS2_PLACEMENT_3D('',#2154,#1729,#1730);
#1461=AXIS2_PLACEMENT_3D('',#2156,#1731,#1732);
#1462=AXIS2_PLACEMENT_3D('',#2157,#1733,#1734);
#1463=AXIS2_PLACEMENT_3D('',#2160,#1736,#1737);
#1464=AXIS2_PLACEMENT_3D('',#2161,#1738,#1739);
#1465=AXIS2_PLACEMENT_3D('',#2164,#1741,#1742);
#1466=AXIS2_PLACEMENT_3D('',#2165,#1743,#1744);
#1467=AXIS2_PLACEMENT_3D('',#2167,#1745,#1746);
#1468=AXIS2_PLACEMENT_3D('',#2168,#1747,#1748);
#1469=AXIS2_PLACEMENT_3D('',#2171,#1750,#1751);
#1470=AXIS2_PLACEMENT_3D('',#2172,#1752,#1753);
#1471=AXIS2_PLACEMENT_3D('',#2174,#1754,#1755);
#1472=AXIS2_PLACEMENT_3D('',#2175,#1756,#1757);
#1473=AXIS2_PLACEMENT_3D('',#2178,#1759,#1760);
#1474=AXIS2_PLACEMENT_3D('',#2179,#1761,#1762);
#1475=AXIS2_PLACEMENT_3D('',#2181,#1763,#1764);
#1476=AXIS2_PLACEMENT_3D('',#2182,#1765,#1766);
#1477=AXIS2_PLACEMENT_3D('',#2185,#1768,#1769);
#1478=AXIS2_PLACEMENT_3D('',#2186,#1770,#1771);
#1479=AXIS2_PLACEMENT_3D('',#2188,#1772,#1773);
#1480=AXIS2_PLACEMENT_3D('',#2189,#1774,#1775);
#1481=AXIS2_PLACEMENT_3D('',#2194,#1777,#1778);
#1482=AXIS2_PLACEMENT_3D('',#2197,#1780,#1781);
#1483=AXIS2_PLACEMENT_3D('',#2198,#1782,#1783);
#1484=AXIS2_PLACEMENT_3D('',#2200,#1784,#1785);
#1485=AXIS2_PLACEMENT_3D('',#2202,#1787,#1788);
#1486=AXIS2_PLACEMENT_3D('',#2203,#1789,#1790);
#1487=AXIS2_PLACEMENT_3D('',#2204,#1791,#1792);
#1488=AXIS2_PLACEMENT_3D('',#2208,#1794,#1795);
#1489=AXIS2_PLACEMENT_3D('',#2212,#1797,#1798);
#1490=AXIS2_PLACEMENT_3D('',#2216,#1800,#1801);
#1491=AXIS2_PLACEMENT_3D('',#2218,#1803,#1804);
#1492=AXIS2_PLACEMENT_3D('',#2223,#1807,#1808);
#1493=AXIS2_PLACEMENT_3D('',#2224,#1809,#1810);
#1494=AXIS2_PLACEMENT_3D('',#2226,#1811,#1812);
#1495=AXIS2_PLACEMENT_3D('',#2228,#1814,#1815);
#1496=AXIS2_PLACEMENT_3D('',#2229,#1816,#1817);
#1497=AXIS2_PLACEMENT_3D('',#2230,#1818,#1819);
#1498=AXIS2_PLACEMENT_3D('',#2234,#1821,#1822);
#1499=AXIS2_PLACEMENT_3D('',#2236,#1824,#1825);
#1500=AXIS2_PLACEMENT_3D('',#2241,#1828,#1829);
#1501=AXIS2_PLACEMENT_3D('',#2242,#1830,#1831);
#1502=AXIS2_PLACEMENT_3D('',#2244,#1832,#1833);
#1503=AXIS2_PLACEMENT_3D('',#2246,#1835,#1836);
#1504=AXIS2_PLACEMENT_3D('',#2247,#1837,#1838);
#1505=AXIS2_PLACEMENT_3D('',#2248,#1839,#1840);
#1506=AXIS2_PLACEMENT_3D('',#2252,#1842,#1843);
#1507=AXIS2_PLACEMENT_3D('',#2254,#1845,#1846);
#1508=AXIS2_PLACEMENT_3D('',#2258,#1848,#1849);
#1509=AXIS2_PLACEMENT_3D('',#2260,#1851,#1852);
#1510=AXIS2_PLACEMENT_3D('',#2262,#1853,#1854);
#1511=AXIS2_PLACEMENT_3D('',#2264,#1856,#1857);
#1512=AXIS2_PLACEMENT_3D('',#2265,#1858,#1859);
#1513=AXIS2_PLACEMENT_3D('',#2266,#1860,#1861);
#1514=AXIS2_PLACEMENT_3D('',#2275,#1866,#1867);
#1515=AXIS2_PLACEMENT_3D('',#2281,#1871,#1872);
#1516=AXIS2_PLACEMENT_3D('',#2283,#1873,#1874);
#1517=AXIS2_PLACEMENT_3D('',#2286,#1876,#1877);
#1518=AXIS2_PLACEMENT_3D('',#2287,#1878,#1879);
#1519=AXIS2_PLACEMENT_3D('',#2289,#1880,#1881);
#1520=AXIS2_PLACEMENT_3D('',#2291,#1883,#1884);
#1521=AXIS2_PLACEMENT_3D('',#2293,#1885,#1886);
#1522=AXIS2_PLACEMENT_3D('',#2295,#1887,#1888);
#1523=AXIS2_PLACEMENT_3D('',#2297,#1890,#1891);
#1524=AXIS2_PLACEMENT_3D('',#2303,#1895,#1896);
#1525=AXIS2_PLACEMENT_3D('',#2307,#1899,#1900);
#1526=AXIS2_PLACEMENT_3D('',#2313,#1904,#1905);
#1527=AXIS2_PLACEMENT_3D('',#2315,#1906,#1907);
#1528=AXIS2_PLACEMENT_3D('',#2318,#1909,#1910);
#1529=AXIS2_PLACEMENT_3D('',#2319,#1911,#1912);
#1530=AXIS2_PLACEMENT_3D('',#2321,#1913,#1914);
#1531=AXIS2_PLACEMENT_3D('',#2323,#1916,#1917);
#1532=AXIS2_PLACEMENT_3D('',#2325,#1918,#1919);
#1533=AXIS2_PLACEMENT_3D('',#2327,#1920,#1921);
#1534=AXIS2_PLACEMENT_3D('',#2329,#1923,#1924);
#1535=AXIS2_PLACEMENT_3D('',#2332,#1927,#1928);
#1536=AXIS2_PLACEMENT_3D('',#2336,#1931,#1932);
#1537=AXIS2_PLACEMENT_3D('',#2338,#1933,#1934);
#1538=AXIS2_PLACEMENT_3D('',#2340,#1936,#1937);
#1539=AXIS2_PLACEMENT_3D('',#2344,#1940,#1941);
#1540=AXIS2_PLACEMENT_3D('',#2345,#1942,#1943);
#1541=AXIS2_PLACEMENT_3D('',#2346,#1944,#1945);
#1542=AXIS2_PLACEMENT_3D('',#2348,#1947,#1948);
#1543=AXIS2_PLACEMENT_3D('',#2352,#1951,#1952);
#1544=AXIS2_PLACEMENT_3D('',#2355,#1954,#1955);
#1545=AXIS2_PLACEMENT_3D('',#2356,#1956,#1957);
#1546=AXIS2_PLACEMENT_3D('',#2360,#1960,#1961);
#1547=AXIS2_PLACEMENT_3D('',#2363,#1963,#1964);
#1548=AXIS2_PLACEMENT_3D('',#2364,#1965,#1966);
#1549=AXIS2_PLACEMENT_3D('',#2366,#1968,#1969);
#1550=AXIS2_PLACEMENT_3D('',#2370,#1972,#1973);
#1551=AXIS2_PLACEMENT_3D('',#2372,#1974,#1975);
#1552=AXIS2_PLACEMENT_3D('',#2374,#1977,#1978);
#1553=AXIS2_PLACEMENT_3D('',#2378,#1981,#1982);
#1554=AXIS2_PLACEMENT_3D('',#2379,#1983,#1984);
#1555=AXIS2_PLACEMENT_3D('',#2380,#1985,#1986);
#1556=DIRECTION('axis',(0.,0.,1.));
#1557=DIRECTION('refdir',(1.,0.,0.));
#1558=DIRECTION('center_axis',(0.,1.,0.));
#1559=DIRECTION('ref_axis',(1.,0.,0.));
#1560=DIRECTION('center_axis',(0.,1.,0.));
#1561=DIRECTION('ref_axis',(1.,0.,0.));
#1562=DIRECTION('',(0.,1.,0.));
#1563=DIRECTION('center_axis',(0.,1.,0.));
#1564=DIRECTION('ref_axis',(1.,0.,0.));
#1565=DIRECTION('center_axis',(0.,1.,0.));
#1566=DIRECTION('ref_axis',(1.,0.,0.));
#1567=DIRECTION('center_axis',(0.,-1.,0.));
#1568=DIRECTION('ref_axis',(1.,0.,0.));
#1569=DIRECTION('center_axis',(0.,1.,0.));
#1570=DIRECTION('ref_axis',(1.,0.,0.));
#1571=DIRECTION('center_axis',(0.,1.,0.));
#1572=DIRECTION('ref_axis',(1.,0.,0.));
#1573=DIRECTION('',(0.,1.,0.));
#1574=DIRECTION('center_axis',(0.,1.,0.));
#1575=DIRECTION('ref_axis',(1.,0.,0.));
#1576=DIRECTION('center_axis',(0.,1.,0.));
#1577=DIRECTION('ref_axis',(1.,0.,0.));
#1578=DIRECTION('center_axis',(0.,-1.,0.));
#1579=DIRECTION('ref_axis',(1.,0.,0.));
#1580=DIRECTION('center_axis',(0.,1.,0.));
#1581=DIRECTION('ref_axis',(1.,0.,0.));
#1582=DIRECTION('center_axis',(0.,1.,0.));
#1583=DIRECTION('ref_axis',(1.,0.,0.));
#1584=DIRECTION('',(0.,1.,0.));
#1585=DIRECTION('center_axis',(0.,1.,0.));
#1586=DIRECTION('ref_axis',(1.,0.,0.));
#1587=DIRECTION('center_axis',(0.,1.,0.));
#1588=DIRECTION('ref_axis',(1.,0.,0.));
#1589=DIRECTION('center_axis',(0.,-1.,0.));
#1590=DIRECTION('ref_axis',(1.,0.,0.));
#1591=DIRECTION('center_axis',(0.,1.,0.));
#1592=DIRECTION('ref_axis',(1.,0.,0.));
#1593=DIRECTION('center_axis',(0.,1.,0.));
#1594=DIRECTION('ref_axis',(1.,0.,0.));
#1595=DIRECTION('',(0.,1.,0.));
#1596=DIRECTION('center_axis',(0.,1.,0.));
#1597=DIRECTION('ref_axis',(1.,0.,0.));
#1598=DIRECTION('center_axis',(0.,1.,0.));
#1599=DIRECTION('ref_axis',(1.,0.,0.));
#1600=DIRECTION('center_axis',(0.,-1.,0.));
#1601=DIRECTION('ref_axis',(1.,0.,0.));
#1602=DIRECTION('center_axis',(0.,-1.,0.));
#1603=DIRECTION('ref_axis',(1.,0.,0.));
#1604=DIRECTION('',(-1.,0.,0.));
#1605=DIRECTION('',(0.,0.,1.));
#1606=DIRECTION('',(1.,0.,0.));
#1607=DIRECTION('',(0.,0.,1.));
#1608=DIRECTION('center_axis',(0.,0.,1.));
#1609=DIRECTION('ref_axis',(-2.08166817117217E-15,-1.,0.));
#1610=DIRECTION('center_axis',(0.,0.,-1.));
#1611=DIRECTION('ref_axis',(-2.08166817117217E-15,-1.,0.));
#1612=DIRECTION('center_axis',(0.,0.,1.));
#1613=DIRECTION('ref_axis',(-2.08166817117217E-15,-1.,0.));
#1614=DIRECTION('',(0.,0.,1.));
#1615=DIRECTION('center_axis',(-1.,-3.46944695195362E-16,0.));
#1616=DIRECTION('ref_axis',(3.46944695195362E-16,-1.,0.));
#1617=DIRECTION('',(-3.46944695195362E-16,1.,0.));
#1618=DIRECTION('',(3.46944695195362E-16,-1.,0.));
#1619=DIRECTION('',(0.,0.,1.));
#1620=DIRECTION('center_axis',(0.,0.,1.));
#1621=DIRECTION('ref_axis',(-1.,0.,0.));
#1622=DIRECTION('center_axis',(0.,0.,-1.));
#1623=DIRECTION('ref_axis',(-1.,0.,0.));
#1624=DIRECTION('center_axis',(0.,0.,1.));
#1625=DIRECTION('ref_axis',(-1.,0.,0.));
#1626=DIRECTION('',(0.,0.,1.));
#1627=DIRECTION('center_axis',(0.,1.,0.));
#1628=DIRECTION('ref_axis',(-1.,0.,0.));
#1629=DIRECTION('',(1.,0.,0.));
#1630=DIRECTION('',(-1.,0.,0.));
#1631=DIRECTION('',(0.,0.,1.));
#1632=DIRECTION('center_axis',(0.,0.,1.));
#1633=DIRECTION('ref_axis',(6.93889390390722E-16,1.,0.));
#1634=DIRECTION('center_axis',(0.,0.,-1.));
#1635=DIRECTION('ref_axis',(6.93889390390722E-16,1.,0.));
#1636=DIRECTION('center_axis',(0.,0.,1.));
#1637=DIRECTION('ref_axis',(6.93889390390722E-16,1.,0.));
#1638=DIRECTION('',(0.,0.,1.));
#1639=DIRECTION('center_axis',(1.,-3.46944695195362E-16,0.));
#1640=DIRECTION('ref_axis',(3.46944695195362E-16,1.,0.));
#1641=DIRECTION('',(-3.46944695195362E-16,-1.,0.));
#1642=DIRECTION('',(3.46944695195362E-16,1.,0.));
#1643=DIRECTION('',(0.,0.,1.));
#1644=DIRECTION('center_axis',(0.,0.,1.));
#1645=DIRECTION('ref_axis',(1.,0.,0.));
#1646=DIRECTION('center_axis',(0.,0.,-1.));
#1647=DIRECTION('ref_axis',(1.,0.,0.));
#1648=DIRECTION('center_axis',(0.,0.,1.));
#1649=DIRECTION('ref_axis',(1.,0.,0.));
#1650=DIRECTION('center_axis',(0.707106781186547,-0.707106781186548,0.));
#1651=DIRECTION('ref_axis',(0.,0.,-1.));
#1652=DIRECTION('',(0.707106781186548,0.707106781186547,-1.57009245868377E-15));
#1653=DIRECTION('',(0.,0.,1.));
#1654=DIRECTION('',(-0.707106781186548,-0.707106781186547,0.));
#1655=DIRECTION('',(0.,0.,-1.));
#1656=DIRECTION('center_axis',(0.,1.,0.));
#1657=DIRECTION('ref_axis',(1.,0.,0.));
#1658=DIRECTION('',(0.,0.707106781186547,-0.707106781186548));
#1659=DIRECTION('center_axis',(0.,-1.,0.));
#1660=DIRECTION('ref_axis',(1.,0.,0.));
#1661=DIRECTION('center_axis',(0.,1.,0.));
#1662=DIRECTION('ref_axis',(1.,0.,0.));
#1663=DIRECTION('center_axis',(0.,-0.707106781186548,-0.707106781186547));
#1664=DIRECTION('ref_axis',(-1.,0.,0.));
#1665=DIRECTION('',(-1.57009245868377E-15,0.707106781186547,-0.707106781186548));
#1666=DIRECTION('',(1.,0.,0.));
#1667=DIRECTION('',(-1.,0.,0.));
#1668=DIRECTION('center_axis',(0.,1.,0.));
#1669=DIRECTION('ref_axis',(0.,0.,-1.));
#1670=DIRECTION('',(-0.707106781186548,0.707106781186547,0.));
#1671=DIRECTION('center_axis',(0.,-1.,0.));
#1672=DIRECTION('ref_axis',(0.,0.,-1.));
#1673=DIRECTION('center_axis',(0.,1.,0.));
#1674=DIRECTION('ref_axis',(0.,0.,-1.));
#1675=DIRECTION('center_axis',(-0.707106781186547,-0.707106781186548,0.));
#1676=DIRECTION('ref_axis',(0.,0.,1.));
#1677=DIRECTION('',(-0.707106781186548,0.707106781186547,0.));
#1678=DIRECTION('',(0.,0.,-1.));
#1679=DIRECTION('',(0.,0.,1.));
#1680=DIRECTION('center_axis',(0.,1.,0.));
#1681=DIRECTION('ref_axis',(-1.,0.,0.));
#1682=DIRECTION('',(0.,0.707106781186547,0.707106781186548));
#1683=DIRECTION('center_axis',(0.,-1.,0.));
#1684=DIRECTION('ref_axis',(-1.,0.,0.));
#1685=DIRECTION('center_axis',(0.,1.,0.));
#1686=DIRECTION('ref_axis',(-1.,0.,0.));
#1687=DIRECTION('center_axis',(0.,-0.707106781186548,0.707106781186547));
#1688=DIRECTION('ref_axis',(1.,0.,0.));
#1689=DIRECTION('',(0.,0.707106781186547,0.707106781186548));
#1690=DIRECTION('',(-1.,0.,0.));
#1691=DIRECTION('',(1.,0.,0.));
#1692=DIRECTION('center_axis',(0.,1.,0.));
#1693=DIRECTION('ref_axis',(0.,0.,1.));
#1694=DIRECTION('center_axis',(0.,-1.,0.));
#1695=DIRECTION('ref_axis',(0.,0.,1.));
#1696=DIRECTION('center_axis',(0.,1.,0.));
#1697=DIRECTION('ref_axis',(0.,0.,1.));
#1698=DIRECTION('center_axis',(0.,1.,0.));
#1699=DIRECTION('ref_axis',(-1.,0.,0.));
#1700=DIRECTION('',(0.,1.,0.));
#1701=DIRECTION('center_axis',(0.,1.,0.));
#1702=DIRECTION('ref_axis',(-1.,0.,0.));
#1703=DIRECTION('',(0.,1.,0.));
#1704=DIRECTION('center_axis',(0.,0.,1.));
#1705=DIRECTION('ref_axis',(1.,0.,0.));
#1706=DIRECTION('',(0.,1.,0.));
#1707=DIRECTION('',(1.,0.,0.));
#1708=DIRECTION('center_axis',(0.,1.,0.));
#1709=DIRECTION('ref_axis',(0.,0.,1.));
#1710=DIRECTION('',(0.,1.,0.));
#1711=DIRECTION('center_axis',(0.,1.,0.));
#1712=DIRECTION('ref_axis',(0.,0.,1.));
#1713=DIRECTION('center_axis',(1.,0.,0.));
#1714=DIRECTION('ref_axis',(0.,0.,-1.));
#1715=DIRECTION('',(0.,1.,0.));
#1716=DIRECTION('',(0.,0.,-1.));
#1717=DIRECTION('',(0.,-1.,0.));
#1718=DIRECTION('center_axis',(-1.,0.,0.));
#1719=DIRECTION('ref_axis',(0.,0.,-1.));
#1720=DIRECTION('',(0.,-1.33761810195802E-16,1.));
#1721=DIRECTION('center_axis',(-1.,0.,0.));
#1722=DIRECTION('ref_axis',(0.,-1.,0.));
#1723=DIRECTION('',(0.,1.,0.));
#1724=DIRECTION('center_axis',(-1.,0.,0.));
#1725=DIRECTION('ref_axis',(0.,0.,1.));
#1726=DIRECTION('',(0.,2.67523620391604E-16,-1.));
#1727=DIRECTION('center_axis',(-1.,0.,0.));
#1728=DIRECTION('ref_axis',(0.,1.,0.));
#1729=DIRECTION('center_axis',(0.,1.,0.));
#1730=DIRECTION('ref_axis',(1.,0.,0.));
#1731=DIRECTION('center_axis',(0.,1.,0.));
#1732=DIRECTION('ref_axis',(1.,0.,0.));
#1733=DIRECTION('center_axis',(0.,1.,0.));
#1734=DIRECTION('ref_axis',(1.,0.,0.));
#1735=DIRECTION('',(0.,1.,0.));
#1736=DIRECTION('center_axis',(0.,-1.,0.));
#1737=DIRECTION('ref_axis',(1.,0.,0.));
#1738=DIRECTION('center_axis',(0.,1.,0.));
#1739=DIRECTION('ref_axis',(1.,0.,0.));
#1740=DIRECTION('',(0.,1.,0.));
#1741=DIRECTION('center_axis',(0.,1.,0.));
#1742=DIRECTION('ref_axis',(1.,0.,0.));
#1743=DIRECTION('center_axis',(0.,1.,0.));
#1744=DIRECTION('ref_axis',(1.,0.,0.));
#1745=DIRECTION('center_axis',(0.,-1.,0.));
#1746=DIRECTION('ref_axis',(1.,0.,0.));
#1747=DIRECTION('center_axis',(0.,1.,0.));
#1748=DIRECTION('ref_axis',(1.,0.,0.));
#1749=DIRECTION('',(0.,1.,0.));
#1750=DIRECTION('center_axis',(0.,1.,0.));
#1751=DIRECTION('ref_axis',(1.,0.,0.));
#1752=DIRECTION('center_axis',(0.,1.,0.));
#1753=DIRECTION('ref_axis',(1.,0.,0.));
#1754=DIRECTION('center_axis',(0.,-1.,0.));
#1755=DIRECTION('ref_axis',(1.,0.,0.));
#1756=DIRECTION('center_axis',(0.,1.,0.));
#1757=DIRECTION('ref_axis',(1.,0.,0.));
#1758=DIRECTION('',(0.,1.,0.));
#1759=DIRECTION('center_axis',(0.,1.,0.));
#1760=DIRECTION('ref_axis',(1.,0.,0.));
#1761=DIRECTION('center_axis',(0.,1.,0.));
#1762=DIRECTION('ref_axis',(1.,0.,0.));
#1763=DIRECTION('center_axis',(0.,-1.,0.));
#1764=DIRECTION('ref_axis',(1.,0.,0.));
#1765=DIRECTION('center_axis',(0.,1.,0.));
#1766=DIRECTION('ref_axis',(1.,0.,0.));
#1767=DIRECTION('',(0.,1.,0.));
#1768=DIRECTION('center_axis',(0.,1.,0.));
#1769=DIRECTION('ref_axis',(1.,0.,0.));
#1770=DIRECTION('center_axis',(0.,1.,0.));
#1771=DIRECTION('ref_axis',(1.,0.,0.));
#1772=DIRECTION('center_axis',(0.,-1.,0.));
#1773=DIRECTION('ref_axis',(1.,0.,0.));
#1774=DIRECTION('center_axis',(0.,1.,0.));
#1775=DIRECTION('ref_axis',(-0.707106781186548,0.,-0.707106781186547));
#1776=DIRECTION('',(0.,1.,0.));
#1777=DIRECTION('center_axis',(0.,1.,0.));
#1778=DIRECTION('ref_axis',(1.,0.,0.));
#1779=DIRECTION('',(0.,1.,0.));
#1780=DIRECTION('center_axis',(0.,-1.,0.));
#1781=DIRECTION('ref_axis',(1.,0.,0.));
#1782=DIRECTION('center_axis',(0.,1.,0.));
#1783=DIRECTION('ref_axis',(1.,0.,0.));
#1784=DIRECTION('center_axis',(0.,-1.,0.));
#1785=DIRECTION('ref_axis',(1.,0.,0.));
#1786=DIRECTION('',(0.,-1.,0.));
#1787=DIRECTION('center_axis',(0.,1.,0.));
#1788=DIRECTION('ref_axis',(1.,0.,0.));
#1789=DIRECTION('center_axis',(0.,-1.,0.));
#1790=DIRECTION('ref_axis',(0.,0.,1.));
#1791=DIRECTION('center_axis',(0.,1.,0.));
#1792=DIRECTION('ref_axis',(1.,0.,0.));
#1793=DIRECTION('',(0.,0.,-1.));
#1794=DIRECTION('center_axis',(0.,-1.,0.));
#1795=DIRECTION('ref_axis',(1.,0.,0.));
#1796=DIRECTION('',(-1.,0.,0.));
#1797=DIRECTION('center_axis',(0.,-1.,0.));
#1798=DIRECTION('ref_axis',(1.,0.,0.));
#1799=DIRECTION('',(0.,0.,1.));
#1800=DIRECTION('center_axis',(0.,-1.,0.));
#1801=DIRECTION('ref_axis',(1.,0.,0.));
#1802=DIRECTION('',(1.,0.,0.));
#1803=DIRECTION('center_axis',(0.,1.,0.));
#1804=DIRECTION('ref_axis',(1.,0.,0.));
#1805=DIRECTION('',(0.,1.,0.));
#1806=DIRECTION('',(0.,1.,0.));
#1807=DIRECTION('center_axis',(0.,1.,0.));
#1808=DIRECTION('ref_axis',(1.,0.,0.));
#1809=DIRECTION('center_axis',(0.,1.,0.));
#1810=DIRECTION('ref_axis',(1.,0.,0.));
#1811=DIRECTION('center_axis',(0.,-1.,0.));
#1812=DIRECTION('ref_axis',(1.,0.,0.));
#1813=DIRECTION('',(0.,-1.,0.));
#1814=DIRECTION('center_axis',(0.,1.,0.));
#1815=DIRECTION('ref_axis',(1.,0.,0.));
#1816=DIRECTION('center_axis',(0.,-1.,0.));
#1817=DIRECTION('ref_axis',(0.,0.,-1.));
#1818=DIRECTION('center_axis',(0.,1.,0.));
#1819=DIRECTION('ref_axis',(0.,0.,-1.));
#1820=DIRECTION('',(0.,1.,0.));
#1821=DIRECTION('center_axis',(0.,-1.,0.));
#1822=DIRECTION('ref_axis',(0.,0.,-1.));
#1823=DIRECTION('',(0.,1.,0.));
#1824=DIRECTION('center_axis',(0.,1.,0.));
#1825=DIRECTION('ref_axis',(-0.707106781186548,0.,0.707106781186547));
#1826=DIRECTION('',(0.,1.,0.));
#1827=DIRECTION('',(0.,1.,0.));
#1828=DIRECTION('center_axis',(0.,1.,0.));
#1829=DIRECTION('ref_axis',(1.,0.,0.));
#1830=DIRECTION('center_axis',(0.,1.,0.));
#1831=DIRECTION('ref_axis',(1.,0.,0.));
#1832=DIRECTION('center_axis',(0.,-1.,0.));
#1833=DIRECTION('ref_axis',(1.,0.,0.));
#1834=DIRECTION('',(0.,-1.,0.));
#1835=DIRECTION('center_axis',(0.,1.,0.));
#1836=DIRECTION('ref_axis',(1.,0.,0.));
#1837=DIRECTION('center_axis',(0.,-1.,0.));
#1838=DIRECTION('ref_axis',(1.,0.,0.));
#1839=DIRECTION('center_axis',(0.,1.,0.));
#1840=DIRECTION('ref_axis',(1.,0.,0.));
#1841=DIRECTION('',(0.,1.,0.));
#1842=DIRECTION('center_axis',(0.,-1.,0.));
#1843=DIRECTION('ref_axis',(1.,0.,0.));
#1844=DIRECTION('',(0.,1.,0.));
#1845=DIRECTION('center_axis',(0.,1.,0.));
#1846=DIRECTION('ref_axis',(1.,0.,0.));
#1847=DIRECTION('',(0.,1.,0.));
#1848=DIRECTION('center_axis',(0.,1.,0.));
#1849=DIRECTION('ref_axis',(1.,0.,0.));
#1850=DIRECTION('',(0.,1.,0.));
#1851=DIRECTION('center_axis',(0.,1.,0.));
#1852=DIRECTION('ref_axis',(1.,0.,0.));
#1853=DIRECTION('center_axis',(0.,-1.,0.));
#1854=DIRECTION('ref_axis',(1.,0.,0.));
#1855=DIRECTION('',(0.,-1.,0.));
#1856=DIRECTION('center_axis',(0.,1.,0.));
#1857=DIRECTION('ref_axis',(1.,0.,0.));
#1858=DIRECTION('center_axis',(0.,-1.,0.));
#1859=DIRECTION('ref_axis',(-1.,0.,0.));
#1860=DIRECTION('center_axis',(0.,0.,1.));
#1861=DIRECTION('ref_axis',(0.,-1.,0.));
#1862=DIRECTION('',(0.,1.,0.));
#1863=DIRECTION('',(1.,0.,0.));
#1864=DIRECTION('',(0.,-1.,0.));
#1865=DIRECTION('',(1.,0.,0.));
#1866=DIRECTION('center_axis',(0.,0.,1.));
#1867=DIRECTION('ref_axis',(0.,-1.,0.));
#1868=DIRECTION('',(0.,-1.,0.));
#1869=DIRECTION('',(1.,0.,0.));
#1870=DIRECTION('',(1.,0.,0.));
#1871=DIRECTION('center_axis',(1.,0.,0.));
#1872=DIRECTION('ref_axis',(0.,-1.,0.));
#1873=DIRECTION('center_axis',(-1.,0.,0.));
#1874=DIRECTION('ref_axis',(0.,-1.,0.));
#1875=DIRECTION('',(1.,0.,0.));
#1876=DIRECTION('center_axis',(1.,0.,0.));
#1877=DIRECTION('ref_axis',(0.,-1.,0.));
#1878=DIRECTION('center_axis',(1.,0.,0.));
#1879=DIRECTION('ref_axis',(0.,-1.,0.));
#1880=DIRECTION('center_axis',(1.,0.,0.));
#1881=DIRECTION('ref_axis',(0.,-1.,0.));
#1882=DIRECTION('',(1.,0.,0.));
#1883=DIRECTION('center_axis',(1.,0.,0.));
#1884=DIRECTION('ref_axis',(0.,0.,1.));
#1885=DIRECTION('center_axis',(-1.,0.,0.));
#1886=DIRECTION('ref_axis',(0.,0.,1.));
#1887=DIRECTION('center_axis',(1.,0.,0.));
#1888=DIRECTION('ref_axis',(0.,0.,1.));
#1889=DIRECTION('',(1.,0.,0.));
#1890=DIRECTION('center_axis',(0.,-1.,-1.33761810195802E-16));
#1891=DIRECTION('ref_axis',(0.,1.33761810195802E-16,-1.));
#1892=DIRECTION('',(0.,-1.33761810195802E-16,1.));
#1893=DIRECTION('',(1.,0.,0.));
#1894=DIRECTION('',(0.,1.33761810195802E-16,-1.));
#1895=DIRECTION('center_axis',(0.,-1.,-1.33761810195802E-16));
#1896=DIRECTION('ref_axis',(0.,1.33761810195802E-16,-1.));
#1897=DIRECTION('',(0.,1.33761810195802E-16,-1.));
#1898=DIRECTION('',(1.,0.,0.));
#1899=DIRECTION('center_axis',(0.,1.,2.67523620391604E-16));
#1900=DIRECTION('ref_axis',(0.,-2.67523620391604E-16,1.));
#1901=DIRECTION('',(0.,2.67523620391604E-16,-1.));
#1902=DIRECTION('',(0.,-2.67523620391604E-16,1.));
#1903=DIRECTION('',(1.,0.,0.));
#1904=DIRECTION('center_axis',(1.,0.,0.));
#1905=DIRECTION('ref_axis',(0.,0.,-1.));
#1906=DIRECTION('center_axis',(-1.,0.,0.));
#1907=DIRECTION('ref_axis',(0.,0.,-1.));
#1908=DIRECTION('',(1.,0.,0.));
#1909=DIRECTION('center_axis',(1.,0.,0.));
#1910=DIRECTION('ref_axis',(0.,0.,-1.));
#1911=DIRECTION('center_axis',(1.,0.,0.));
#1912=DIRECTION('ref_axis',(0.,0.,-1.));
#1913=DIRECTION('center_axis',(1.,0.,0.));
#1914=DIRECTION('ref_axis',(0.,0.,-1.));
#1915=DIRECTION('',(1.,0.,0.));
#1916=DIRECTION('center_axis',(1.,0.,0.));
#1917=DIRECTION('ref_axis',(0.,1.,0.));
#1918=DIRECTION('center_axis',(-1.,0.,0.));
#1919=DIRECTION('ref_axis',(0.,1.,0.));
#1920=DIRECTION('center_axis',(1.,0.,0.));
#1921=DIRECTION('ref_axis',(0.,1.,0.));
#1922=DIRECTION('',(1.,0.,0.));
#1923=DIRECTION('center_axis',(0.,0.,-1.));
#1924=DIRECTION('ref_axis',(0.,1.,0.));
#1925=DIRECTION('',(0.,-1.,0.));
#1926=DIRECTION('',(0.,1.,0.));
#1927=DIRECTION('center_axis',(0.,0.,-1.));
#1928=DIRECTION('ref_axis',(0.,1.,0.));
#1929=DIRECTION('',(0.,1.,0.));
#1930=DIRECTION('',(1.,0.,0.));
#1931=DIRECTION('center_axis',(1.,0.,0.));
#1932=DIRECTION('ref_axis',(0.,0.,1.));
#1933=DIRECTION('center_axis',(1.,0.,0.));
#1934=DIRECTION('ref_axis',(0.,0.,1.));
#1935=DIRECTION('',(1.,0.,0.));
#1936=DIRECTION('center_axis',(0.,1.,2.67523620391604E-16));
#1937=DIRECTION('ref_axis',(0.,-2.67523620391604E-16,1.));
#1938=DIRECTION('',(0.,-2.67523620391604E-16,1.));
#1939=DIRECTION('',(1.,0.,0.));
#1940=DIRECTION('center_axis',(1.,0.,0.));
#1941=DIRECTION('ref_axis',(0.,1.,0.));
#1942=DIRECTION('center_axis',(1.,0.,0.));
#1943=DIRECTION('ref_axis',(0.,1.,0.));
#1944=DIRECTION('center_axis',(0.,0.,-1.));
#1945=DIRECTION('ref_axis',(-1.,0.,0.));
#1946=DIRECTION('',(1.,0.,0.));
#1947=DIRECTION('center_axis',(1.,0.,0.));
#1948=DIRECTION('ref_axis',(0.,0.,-1.));
#1949=DIRECTION('',(0.,0.,1.));
#1950=DIRECTION('',(0.,1.,0.));
#1951=DIRECTION('center_axis',(0.,1.,0.));
#1952=DIRECTION('ref_axis',(0.,0.,1.));
#1953=DIRECTION('',(0.,1.,0.));
#1954=DIRECTION('center_axis',(0.,-1.,0.));
#1955=DIRECTION('ref_axis',(0.,0.,1.));
#1956=DIRECTION('center_axis',(0.,0.,1.));
#1957=DIRECTION('ref_axis',(1.,0.,0.));
#1958=DIRECTION('',(-1.,0.,0.));
#1959=DIRECTION('',(0.,1.,0.));
#1960=DIRECTION('center_axis',(0.,1.,0.));
#1961=DIRECTION('ref_axis',(-1.,0.,0.));
#1962=DIRECTION('',(0.,1.,0.));
#1963=DIRECTION('center_axis',(0.,-1.,0.));
#1964=DIRECTION('ref_axis',(-1.,0.,0.));
#1965=DIRECTION('center_axis',(-1.,0.,0.));
#1966=DIRECTION('ref_axis',(0.,0.,1.));
#1967=DIRECTION('',(0.,0.,-1.));
#1968=DIRECTION('center_axis',(-1.,0.,0.));
#1969=DIRECTION('ref_axis',(0.,0.,1.));
#1970=DIRECTION('',(0.,0.,1.));
#1971=DIRECTION('',(0.,1.,0.));
#1972=DIRECTION('center_axis',(0.,1.,0.));
#1973=DIRECTION('ref_axis',(0.,0.,-1.));
#1974=DIRECTION('center_axis',(0.,1.,0.));
#1975=DIRECTION('ref_axis',(0.,0.,-1.));
#1976=DIRECTION('',(0.,1.,0.));
#1977=DIRECTION('center_axis',(0.,0.,-1.));
#1978=DIRECTION('ref_axis',(-1.,0.,0.));
#1979=DIRECTION('',(-1.,0.,0.));
#1980=DIRECTION('',(0.,1.,0.));
#1981=DIRECTION('center_axis',(0.,1.,0.));
#1982=DIRECTION('ref_axis',(1.,0.,0.));
#1983=DIRECTION('center_axis',(0.,1.,0.));
#1984=DIRECTION('ref_axis',(1.,0.,0.));
#1985=DIRECTION('center_axis',(0.,1.,0.));
#1986=DIRECTION('ref_axis',(1.,0.,0.));
#1987=CARTESIAN_POINT('',(0.,0.,0.));
#1988=CARTESIAN_POINT('Origin',(37.,0.,28.5));
#1989=CARTESIAN_POINT('',(34.7,0.,28.5));
#1990=CARTESIAN_POINT('Origin',(37.,0.,28.5));
#1991=CARTESIAN_POINT('',(34.7,2.6,28.5));
#1992=CARTESIAN_POINT('',(34.7,0.,28.5));
#1993=CARTESIAN_POINT('Origin',(37.,2.6,28.5));
#1994=CARTESIAN_POINT('Origin',(37.,2.6,28.5));
#1995=CARTESIAN_POINT('',(35.35,2.6,28.5));
#1996=CARTESIAN_POINT('Origin',(37.,2.6,28.5));
#1997=CARTESIAN_POINT('Origin',(37.,0.,-28.5));
#1998=CARTESIAN_POINT('',(34.7,0.,-28.5));
#1999=CARTESIAN_POINT('Origin',(37.,0.,-28.5));
#2000=CARTESIAN_POINT('',(34.7,2.6,-28.5));
#2001=CARTESIAN_POINT('',(34.7,0.,-28.5));
#2002=CARTESIAN_POINT('Origin',(37.,2.6,-28.5));
#2003=CARTESIAN_POINT('Origin',(37.,2.6,-28.5));
#2004=CARTESIAN_POINT('',(35.35,2.6,-28.5));
#2005=CARTESIAN_POINT('Origin',(37.,2.6,-28.5));
#2006=CARTESIAN_POINT('Origin',(-37.,0.,28.5));
#2007=CARTESIAN_POINT('',(-39.3,0.,28.5));
#2008=CARTESIAN_POINT('Origin',(-37.,0.,28.5));
#2009=CARTESIAN_POINT('',(-39.3,2.6,28.5));
#2010=CARTESIAN_POINT('',(-39.3,0.,28.5));
#2011=CARTESIAN_POINT('Origin',(-37.,2.6,28.5));
#2012=CARTESIAN_POINT('Origin',(-37.,2.6,28.5));
#2013=CARTESIAN_POINT('',(-38.65,2.6,28.5));
#2014=CARTESIAN_POINT('Origin',(-37.,2.6,28.5));
#2015=CARTESIAN_POINT('Origin',(-37.,0.,-28.5));
#2016=CARTESIAN_POINT('',(-39.3,0.,-28.5));
#2017=CARTESIAN_POINT('Origin',(-37.,0.,-28.5));
#2018=CARTESIAN_POINT('',(-39.3,2.6,-28.5));
#2019=CARTESIAN_POINT('',(-39.3,0.,-28.5));
#2020=CARTESIAN_POINT('Origin',(-37.,2.6,-28.5));
#2021=CARTESIAN_POINT('Origin',(-37.,2.6,-28.5));
#2022=CARTESIAN_POINT('',(-38.65,2.6,-28.5));
#2023=CARTESIAN_POINT('Origin',(-37.,2.6,-28.5));
#2024=CARTESIAN_POINT('Origin',(-3.75,7.9,-34.5));
#2025=CARTESIAN_POINT('',(3.75,7.9,-32.5));
#2026=CARTESIAN_POINT('',(-3.75,7.9,-32.5));
#2027=CARTESIAN_POINT('',(16.625,7.9,-32.5));
#2028=CARTESIAN_POINT('',(3.75,7.9,-34.5));
#2029=CARTESIAN_POINT('',(3.75,7.9,-34.5));
#2030=CARTESIAN_POINT('',(-3.75,7.9,-34.5));
#2031=CARTESIAN_POINT('',(16.625,7.9,-34.5));
#2032=CARTESIAN_POINT('',(-3.75,7.9,-34.5));
#2033=CARTESIAN_POINT('Origin',(-3.75,8.7,-34.5));
#2034=CARTESIAN_POINT('',(-4.55,8.7,-32.5));
#2035=CARTESIAN_POINT('Origin',(-3.75,8.7,-32.5));
#2036=CARTESIAN_POINT('',(-4.55,8.7,-34.5));
#2037=CARTESIAN_POINT('Origin',(-3.75,8.7,-34.5));
#2038=CARTESIAN_POINT('',(-4.55,8.7,-34.5));
#2039=CARTESIAN_POINT('Origin',(-4.55,10.3,-34.5));
#2040=CARTESIAN_POINT('',(-4.55,10.3,-32.5));
#2041=CARTESIAN_POINT('',(-4.55,5.15,-32.5));
#2042=CARTESIAN_POINT('',(-4.55,10.3,-34.5));
#2043=CARTESIAN_POINT('',(-4.55,5.15,-34.5));
#2044=CARTESIAN_POINT('',(-4.55,10.3,-34.5));
#2045=CARTESIAN_POINT('Origin',(-3.75,10.3,-34.5));
#2046=CARTESIAN_POINT('',(-3.75,11.1,-32.5));
#2047=CARTESIAN_POINT('Origin',(-3.75,10.3,-32.5));
#2048=CARTESIAN_POINT('',(-3.75,11.1,-34.5));
#2049=CARTESIAN_POINT('Origin',(-3.75,10.3,-34.5));
#2050=CARTESIAN_POINT('',(-3.75,11.1,-34.5));
#2051=CARTESIAN_POINT('Origin',(3.75,11.1,-34.5));
#2052=CARTESIAN_POINT('',(3.75,11.1,-32.5));
#2053=CARTESIAN_POINT('',(20.375,11.1,-32.5));
#2054=CARTESIAN_POINT('',(3.75,11.1,-34.5));
#2055=CARTESIAN_POINT('',(20.375,11.1,-34.5));
#2056=CARTESIAN_POINT('',(3.75,11.1,-34.5));
#2057=CARTESIAN_POINT('Origin',(3.75,10.3,-34.5));
#2058=CARTESIAN_POINT('',(4.55,10.3,-32.5));
#2059=CARTESIAN_POINT('Origin',(3.75,10.3,-32.5));
#2060=CARTESIAN_POINT('',(4.55,10.3,-34.5));
#2061=CARTESIAN_POINT('Origin',(3.75,10.3,-34.5));
#2062=CARTESIAN_POINT('',(4.55,10.3,-34.5));
#2063=CARTESIAN_POINT('Origin',(4.55,8.7,-34.5));
#2064=CARTESIAN_POINT('',(4.55,8.7,-32.5));
#2065=CARTESIAN_POINT('',(4.55,4.35000000000001,-32.5));
#2066=CARTESIAN_POINT('',(4.55,8.7,-34.5));
#2067=CARTESIAN_POINT('',(4.55,4.35000000000001,-34.5));
#2068=CARTESIAN_POINT('',(4.55,8.7,-34.5));
#2069=CARTESIAN_POINT('Origin',(3.75,8.7,-34.5));
#2070=CARTESIAN_POINT('Origin',(3.75,8.7,-32.5));
#2071=CARTESIAN_POINT('Origin',(3.75,8.7,-34.5));
#2072=CARTESIAN_POINT('Origin',(42.,1.,14.25));
#2073=CARTESIAN_POINT('',(41.,0.,-28.5));
#2074=CARTESIAN_POINT('',(43.,2.,-28.5));
#2075=CARTESIAN_POINT('',(41.,0.,-28.5));
#2076=CARTESIAN_POINT('',(43.,2.,28.5));
#2077=CARTESIAN_POINT('',(43.,2.,14.25));
#2078=CARTESIAN_POINT('',(41.,0.,28.5));
#2079=CARTESIAN_POINT('',(43.,2.,28.5));
#2080=CARTESIAN_POINT('',(41.,0.,14.25));
#2081=CARTESIAN_POINT('Origin',(37.,1.,-28.5));
#2082=CARTESIAN_POINT('',(37.,0.,-32.5));
#2083=CARTESIAN_POINT('',(37.,2.,-34.5));
#2084=CARTESIAN_POINT('',(37.,0.,-32.5));
#2085=CARTESIAN_POINT('Origin',(37.,2.,-28.5));
#2086=CARTESIAN_POINT('Origin',(37.,0.,-28.5));
#2087=CARTESIAN_POINT('Origin',(18.5,1.,-33.5));
#2088=CARTESIAN_POINT('',(-37.,0.,-32.5));
#2089=CARTESIAN_POINT('',(-37.,2.,-34.5));
#2090=CARTESIAN_POINT('',(-37.,0.,-32.5));
#2091=CARTESIAN_POINT('',(18.5,2.,-34.5));
#2092=CARTESIAN_POINT('',(18.5,0.,-32.5));
#2093=CARTESIAN_POINT('Origin',(-37.,1.,-28.5));
#2094=CARTESIAN_POINT('',(-41.,0.,-28.5));
#2095=CARTESIAN_POINT('',(-43.,2.,-28.5));
#2096=CARTESIAN_POINT('',(-41.,0.,-28.5));
#2097=CARTESIAN_POINT('Origin',(-37.,2.,-28.5));
#2098=CARTESIAN_POINT('Origin',(-37.,0.,-28.5));
#2099=CARTESIAN_POINT('Origin',(-42.,1.,-14.25));
#2100=CARTESIAN_POINT('',(-41.,0.,28.5));
#2101=CARTESIAN_POINT('',(-43.,2.,28.5));
#2102=CARTESIAN_POINT('',(-41.,0.,28.5));
#2103=CARTESIAN_POINT('',(-43.,2.,-14.25));
#2104=CARTESIAN_POINT('',(-41.,0.,-14.25));
#2105=CARTESIAN_POINT('Origin',(-37.,1.,28.5));
#2106=CARTESIAN_POINT('',(-37.,0.,32.5));
#2107=CARTESIAN_POINT('',(-37.,2.,34.5));
#2108=CARTESIAN_POINT('',(-37.,0.,32.5));
#2109=CARTESIAN_POINT('Origin',(-37.,2.,28.5));
#2110=CARTESIAN_POINT('Origin',(-37.,0.,28.5));
#2111=CARTESIAN_POINT('Origin',(-18.5,1.,33.5));
#2112=CARTESIAN_POINT('',(37.,0.,32.5));
#2113=CARTESIAN_POINT('',(37.,2.,34.5));
#2114=CARTESIAN_POINT('',(37.,0.,32.5));
#2115=CARTESIAN_POINT('',(-18.5,2.,34.5));
#2116=CARTESIAN_POINT('',(-18.5,0.,32.5));
#2117=CARTESIAN_POINT('Origin',(37.,1.,28.5));
#2118=CARTESIAN_POINT('Origin',(37.,2.,28.5));
#2119=CARTESIAN_POINT('Origin',(37.,0.,28.5));
#2120=CARTESIAN_POINT('Origin',(-37.,0.,28.5));
#2121=CARTESIAN_POINT('',(-37.,16.6,34.5));
#2122=CARTESIAN_POINT('',(-37.,0.,34.5));
#2123=CARTESIAN_POINT('',(-43.,16.6,28.5));
#2124=CARTESIAN_POINT('Origin',(-37.,16.6,28.5));
#2125=CARTESIAN_POINT('',(-43.,0.,28.5));
#2126=CARTESIAN_POINT('Origin',(-37.,0.,34.5));
#2127=CARTESIAN_POINT('',(37.,16.6,34.5));
#2128=CARTESIAN_POINT('',(37.,0.,34.5));
#2129=CARTESIAN_POINT('',(-37.,16.6,34.5));
#2130=CARTESIAN_POINT('Origin',(37.,0.,28.5));
#2131=CARTESIAN_POINT('',(43.,16.6,28.5));
#2132=CARTESIAN_POINT('',(43.,0.,28.5));
#2133=CARTESIAN_POINT('Origin',(37.,16.6,28.5));
#2134=CARTESIAN_POINT('Origin',(43.,0.,28.5));
#2135=CARTESIAN_POINT('',(43.,16.6,-28.5));
#2136=CARTESIAN_POINT('',(43.,0.,-28.5));
#2137=CARTESIAN_POINT('',(43.,16.6,28.5));
#2138=CARTESIAN_POINT('',(43.,9.00000000000001,-10.3));
#2139=CARTESIAN_POINT('',(43.,8.80000000000001,-10.3));
#2140=CARTESIAN_POINT('',(43.,4.4,-10.3));
#2141=CARTESIAN_POINT('',(43.,6.8,-8.29999999999999));
#2142=CARTESIAN_POINT('Origin',(43.,8.80000000000001,-8.29999999999999));
#2143=CARTESIAN_POINT('',(43.,6.8,8.29999999999999));
#2144=CARTESIAN_POINT('',(43.,6.8,18.4));
#2145=CARTESIAN_POINT('',(43.,8.8,10.3));
#2146=CARTESIAN_POINT('Origin',(43.,8.80000000000001,8.29999999999999));
#2147=CARTESIAN_POINT('',(43.,8.99999999999999,10.3));
#2148=CARTESIAN_POINT('',(43.,4.49999999999999,10.3));
#2149=CARTESIAN_POINT('',(43.,11.,8.29999999999999));
#2150=CARTESIAN_POINT('Origin',(43.,8.99999999999999,8.29999999999999));
#2151=CARTESIAN_POINT('',(43.,11.,-8.3));
#2152=CARTESIAN_POINT('',(43.,11.,10.1));
#2153=CARTESIAN_POINT('Origin',(43.,9.00000000000001,-8.3));
#2154=CARTESIAN_POINT('Origin',(0.,0.,0.));
#2155=CARTESIAN_POINT('',(-22.5,0.,-2.75545529808154E-15));
#2156=CARTESIAN_POINT('Origin',(0.,0.,0.));
#2157=CARTESIAN_POINT('Origin',(0.,0.,0.));
#2158=CARTESIAN_POINT('',(-22.5,2.5,-2.75545529808154E-15));
#2159=CARTESIAN_POINT('',(-22.5,0.,2.75545529808154E-15));
#2160=CARTESIAN_POINT('Origin',(0.,2.5,0.));
#2161=CARTESIAN_POINT('Origin',(37.,0.,-28.5));
#2162=CARTESIAN_POINT('',(35.35,8.,-28.5));
#2163=CARTESIAN_POINT('',(35.35,0.,-28.5));
#2164=CARTESIAN_POINT('Origin',(37.,8.,-28.5));
#2165=CARTESIAN_POINT('Origin',(37.,8.,-28.5));
#2166=CARTESIAN_POINT('',(35.75,8.,-28.5));
#2167=CARTESIAN_POINT('Origin',(37.,8.,-28.5));
#2168=CARTESIAN_POINT('Origin',(-37.,0.,-28.5));
#2169=CARTESIAN_POINT('',(-38.65,8.,-28.5));
#2170=CARTESIAN_POINT('',(-38.65,0.,-28.5));
#2171=CARTESIAN_POINT('Origin',(-37.,8.,-28.5));
#2172=CARTESIAN_POINT('Origin',(-37.,8.,-28.5));
#2173=CARTESIAN_POINT('',(-38.25,8.,-28.5));
#2174=CARTESIAN_POINT('Origin',(-37.,8.,-28.5));
#2175=CARTESIAN_POINT('Origin',(37.,0.,28.5));
#2176=CARTESIAN_POINT('',(35.35,8.,28.5));
#2177=CARTESIAN_POINT('',(35.35,0.,28.5));
#2178=CARTESIAN_POINT('Origin',(37.,8.,28.5));
#2179=CARTESIAN_POINT('Origin',(37.,8.,28.5));
#2180=CARTESIAN_POINT('',(35.75,8.,28.5));
#2181=CARTESIAN_POINT('Origin',(37.,8.,28.5));
#2182=CARTESIAN_POINT('Origin',(-37.,0.,28.5));
#2183=CARTESIAN_POINT('',(-38.65,8.,28.5));
#2184=CARTESIAN_POINT('',(-38.65,0.,28.5));
#2185=CARTESIAN_POINT('Origin',(-37.,8.,28.5));
#2186=CARTESIAN_POINT('Origin',(-37.,8.,28.5));
#2187=CARTESIAN_POINT('',(-38.25,8.,28.5));
#2188=CARTESIAN_POINT('Origin',(-37.,8.,28.5));
#2189=CARTESIAN_POINT('Origin',(37.,0.,28.5));
#2190=CARTESIAN_POINT('',(37.,2.5,32.5));
#2191=CARTESIAN_POINT('',(37.,11.,32.5));
#2192=CARTESIAN_POINT('',(37.,0.,32.5));
#2193=CARTESIAN_POINT('',(41.,11.,28.5));
#2194=CARTESIAN_POINT('Origin',(37.,11.,28.5));
#2195=CARTESIAN_POINT('',(41.,2.5,28.5));
#2196=CARTESIAN_POINT('',(41.,0.,28.5));
#2197=CARTESIAN_POINT('Origin',(37.,2.5,28.5));
#2198=CARTESIAN_POINT('Origin',(37.,0.,28.5));
#2199=CARTESIAN_POINT('',(35.75,11.,28.5));
#2200=CARTESIAN_POINT('Origin',(37.,11.,28.5));
#2201=CARTESIAN_POINT('',(35.75,0.,28.5));
#2202=CARTESIAN_POINT('Origin',(37.,11.,28.5));
#2203=CARTESIAN_POINT('Origin',(37.,11.,28.5));
#2204=CARTESIAN_POINT('Origin',(0.,2.5,0.));
#2205=CARTESIAN_POINT('',(41.,2.5,-28.5));
#2206=CARTESIAN_POINT('',(41.,2.5,14.25));
#2207=CARTESIAN_POINT('',(37.,2.5,-32.5));
#2208=CARTESIAN_POINT('Origin',(37.,2.5,-28.5));
#2209=CARTESIAN_POINT('',(-37.,2.5,-32.5));
#2210=CARTESIAN_POINT('',(18.5,2.5,-32.5));
#2211=CARTESIAN_POINT('',(-41.,2.5,-28.5));
#2212=CARTESIAN_POINT('Origin',(-37.,2.5,-28.5));
#2213=CARTESIAN_POINT('',(-41.,2.5,28.5));
#2214=CARTESIAN_POINT('',(-41.,2.5,-14.25));
#2215=CARTESIAN_POINT('',(-37.,2.5,32.5));
#2216=CARTESIAN_POINT('Origin',(-37.,2.5,28.5));
#2217=CARTESIAN_POINT('',(-18.5,2.5,32.5));
#2218=CARTESIAN_POINT('Origin',(-37.,0.,-28.5));
#2219=CARTESIAN_POINT('',(-41.,11.,-28.5));
#2220=CARTESIAN_POINT('',(-41.,0.,-28.5));
#2221=CARTESIAN_POINT('',(-37.,11.,-32.5));
#2222=CARTESIAN_POINT('',(-37.,0.,-32.5));
#2223=CARTESIAN_POINT('Origin',(-37.,11.,-28.5));
#2224=CARTESIAN_POINT('Origin',(-37.,0.,-28.5));
#2225=CARTESIAN_POINT('',(-38.25,11.,-28.5));
#2226=CARTESIAN_POINT('Origin',(-37.,11.,-28.5));
#2227=CARTESIAN_POINT('',(-38.25,0.,-28.5));
#2228=CARTESIAN_POINT('Origin',(-37.,11.,-28.5));
#2229=CARTESIAN_POINT('Origin',(-37.,11.,-28.5));
#2230=CARTESIAN_POINT('Origin',(-37.,0.,-28.5));
#2231=CARTESIAN_POINT('',(-37.,16.6,-32.5));
#2232=CARTESIAN_POINT('',(-37.,0.,-32.5));
#2233=CARTESIAN_POINT('',(-41.,16.6,-28.5));
#2234=CARTESIAN_POINT('Origin',(-37.,16.6,-28.5));
#2235=CARTESIAN_POINT('',(-41.,0.,-28.5));
#2236=CARTESIAN_POINT('Origin',(37.,0.,-28.5));
#2237=CARTESIAN_POINT('',(37.,11.,-32.5));
#2238=CARTESIAN_POINT('',(37.,0.,-32.5));
#2239=CARTESIAN_POINT('',(41.,11.,-28.5));
#2240=CARTESIAN_POINT('',(41.,0.,-28.5));
#2241=CARTESIAN_POINT('Origin',(37.,11.,-28.5));
#2242=CARTESIAN_POINT('Origin',(37.,0.,-28.5));
#2243=CARTESIAN_POINT('',(35.75,11.,-28.5));
#2244=CARTESIAN_POINT('Origin',(37.,11.,-28.5));
#2245=CARTESIAN_POINT('',(35.75,0.,-28.5));
#2246=CARTESIAN_POINT('Origin',(37.,11.,-28.5));
#2247=CARTESIAN_POINT('Origin',(37.,11.,-28.5));
#2248=CARTESIAN_POINT('Origin',(37.,0.,-28.5));
#2249=CARTESIAN_POINT('',(41.,16.6,-28.5));
#2250=CARTESIAN_POINT('',(41.,0.,-28.5));
#2251=CARTESIAN_POINT('',(37.,16.6,-32.5));
#2252=CARTESIAN_POINT('Origin',(37.,16.6,-28.5));
#2253=CARTESIAN_POINT('',(37.,0.,-32.5));
#2254=CARTESIAN_POINT('Origin',(-37.,0.,28.5));
#2255=CARTESIAN_POINT('',(-41.,11.,28.5));
#2256=CARTESIAN_POINT('',(-41.,0.,28.5));
#2257=CARTESIAN_POINT('',(-37.,11.,32.5));
#2258=CARTESIAN_POINT('Origin',(-37.,11.,28.5));
#2259=CARTESIAN_POINT('',(-37.,0.,32.5));
#2260=CARTESIAN_POINT('Origin',(-37.,0.,28.5));
#2261=CARTESIAN_POINT('',(-38.25,11.,28.5));
#2262=CARTESIAN_POINT('Origin',(-37.,11.,28.5));
#2263=CARTESIAN_POINT('',(-38.25,0.,28.5));
#2264=CARTESIAN_POINT('Origin',(-37.,11.,28.5));
#2265=CARTESIAN_POINT('Origin',(-37.,11.,28.5));
#2266=CARTESIAN_POINT('Origin',(-43.,8.99999999999999,10.3));
#2267=CARTESIAN_POINT('',(-41.,8.8,10.3));
#2268=CARTESIAN_POINT('',(-41.,8.99999999999999,10.3));
#2269=CARTESIAN_POINT('',(-41.,4.49999999999999,10.3));
#2270=CARTESIAN_POINT('',(-43.,8.8,10.3));
#2271=CARTESIAN_POINT('',(-43.,8.8,10.3));
#2272=CARTESIAN_POINT('',(-43.,8.99999999999999,10.3));
#2273=CARTESIAN_POINT('',(-43.,4.49999999999999,10.3));
#2274=CARTESIAN_POINT('',(-43.,8.99999999999999,10.3));
#2275=CARTESIAN_POINT('Origin',(-43.,8.99999999999999,10.3));
#2276=CARTESIAN_POINT('',(41.,8.99999999999999,10.3));
#2277=CARTESIAN_POINT('',(41.,8.8,10.3));
#2278=CARTESIAN_POINT('',(41.,4.49999999999999,10.3));
#2279=CARTESIAN_POINT('',(-43.,8.99999999999999,10.3));
#2280=CARTESIAN_POINT('',(-43.,8.8,10.3));
#2281=CARTESIAN_POINT('Origin',(-43.,8.80000000000001,8.29999999999999));
#2282=CARTESIAN_POINT('',(-41.,6.8,8.29999999999999));
#2283=CARTESIAN_POINT('Origin',(-41.,8.80000000000001,8.29999999999999));
#2284=CARTESIAN_POINT('',(-43.,6.8,8.29999999999999));
#2285=CARTESIAN_POINT('',(-43.,6.8,8.29999999999999));
#2286=CARTESIAN_POINT('Origin',(-43.,8.80000000000001,8.29999999999999));
#2287=CARTESIAN_POINT('Origin',(-43.,8.80000000000001,8.29999999999999));
#2288=CARTESIAN_POINT('',(41.,6.8,8.29999999999999));
#2289=CARTESIAN_POINT('Origin',(41.,8.80000000000001,8.29999999999999));
#2290=CARTESIAN_POINT('',(-43.,6.8,8.29999999999999));
#2291=CARTESIAN_POINT('Origin',(-43.,8.99999999999999,8.29999999999999));
#2292=CARTESIAN_POINT('',(-41.,11.,8.29999999999999));
#2293=CARTESIAN_POINT('Origin',(-41.,8.99999999999999,8.29999999999999));
#2294=CARTESIAN_POINT('',(-43.,11.,8.29999999999999));
#2295=CARTESIAN_POINT('Origin',(-43.,8.99999999999999,8.29999999999999));
#2296=CARTESIAN_POINT('',(-43.,11.,8.29999999999999));
#2297=CARTESIAN_POINT('Origin',(-43.,6.8,8.29999999999999));
#2298=CARTESIAN_POINT('',(-41.,6.8,-8.29999999999999));
#2299=CARTESIAN_POINT('',(-41.,6.8,-10.1));
#2300=CARTESIAN_POINT('',(-43.,6.8,-8.29999999999999));
#2301=CARTESIAN_POINT('',(-43.,6.8,-8.29999999999999));
#2302=CARTESIAN_POINT('',(-43.,6.8,-10.1));
#2303=CARTESIAN_POINT('Origin',(-43.,6.8,8.29999999999999));
#2304=CARTESIAN_POINT('',(41.,6.8,-8.29999999999999));
#2305=CARTESIAN_POINT('',(41.,6.8,18.4));
#2306=CARTESIAN_POINT('',(-43.,6.8,-8.29999999999999));
#2307=CARTESIAN_POINT('Origin',(-43.,11.,-8.3));
#2308=CARTESIAN_POINT('',(-41.,11.,-8.3));
#2309=CARTESIAN_POINT('',(-41.,11.,-18.4));
#2310=CARTESIAN_POINT('',(-43.,11.,-8.3));
#2311=CARTESIAN_POINT('',(-43.,11.,-18.4));
#2312=CARTESIAN_POINT('',(-43.,11.,-8.3));
#2313=CARTESIAN_POINT('Origin',(-43.,8.80000000000001,-8.29999999999999));
#2314=CARTESIAN_POINT('',(-41.,8.80000000000001,-10.3));
#2315=CARTESIAN_POINT('Origin',(-41.,8.80000000000001,-8.29999999999999));
#2316=CARTESIAN_POINT('',(-43.,8.80000000000001,-10.3));
#2317=CARTESIAN_POINT('',(-43.,8.80000000000001,-10.3));
#2318=CARTESIAN_POINT('Origin',(-43.,8.80000000000001,-8.29999999999999));
#2319=CARTESIAN_POINT('Origin',(-43.,8.80000000000001,-8.29999999999999));
#2320=CARTESIAN_POINT('',(41.,8.80000000000001,-10.3));
#2321=CARTESIAN_POINT('Origin',(41.,8.80000000000001,-8.29999999999999));
#2322=CARTESIAN_POINT('',(-43.,8.80000000000001,-10.3));
#2323=CARTESIAN_POINT('Origin',(-43.,9.00000000000001,-8.3));
#2324=CARTESIAN_POINT('',(-41.,9.00000000000001,-10.3));
#2325=CARTESIAN_POINT('Origin',(-41.,9.00000000000001,-8.3));
#2326=CARTESIAN_POINT('',(-43.,9.00000000000001,-10.3));
#2327=CARTESIAN_POINT('Origin',(-43.,9.00000000000001,-8.3));
#2328=CARTESIAN_POINT('',(-43.,9.00000000000001,-10.3));
#2329=CARTESIAN_POINT('Origin',(-43.,8.80000000000001,-10.3));
#2330=CARTESIAN_POINT('',(-41.,4.4,-10.3));
#2331=CARTESIAN_POINT('',(-43.,4.4,-10.3));
#2332=CARTESIAN_POINT('Origin',(-43.,8.80000000000001,-10.3));
#2333=CARTESIAN_POINT('',(41.,9.00000000000001,-10.3));
#2334=CARTESIAN_POINT('',(41.,4.4,-10.3));
#2335=CARTESIAN_POINT('',(-43.,9.00000000000001,-10.3));
#2336=CARTESIAN_POINT('Origin',(-43.,8.99999999999999,8.29999999999999));
#2337=CARTESIAN_POINT('',(41.,11.,8.29999999999999));
#2338=CARTESIAN_POINT('Origin',(41.,8.99999999999999,8.29999999999999));
#2339=CARTESIAN_POINT('',(-43.,11.,8.29999999999999));
#2340=CARTESIAN_POINT('Origin',(-43.,11.,-8.3));
#2341=CARTESIAN_POINT('',(41.,11.,-8.3));
#2342=CARTESIAN_POINT('',(41.,11.,10.1));
#2343=CARTESIAN_POINT('',(-43.,11.,-8.3));
#2344=CARTESIAN_POINT('Origin',(-43.,9.00000000000001,-8.3));
#2345=CARTESIAN_POINT('Origin',(41.,9.00000000000001,-8.3));
#2346=CARTESIAN_POINT('Origin',(37.,0.,-32.5));
#2347=CARTESIAN_POINT('',(18.5,16.6,-32.5));
#2348=CARTESIAN_POINT('Origin',(41.,0.,28.5));
#2349=CARTESIAN_POINT('',(41.,16.6,28.5));
#2350=CARTESIAN_POINT('',(41.,16.6,14.25));
#2351=CARTESIAN_POINT('',(41.,0.,28.5));
#2352=CARTESIAN_POINT('Origin',(37.,0.,28.5));
#2353=CARTESIAN_POINT('',(37.,16.6,32.5));
#2354=CARTESIAN_POINT('',(37.,0.,32.5));
#2355=CARTESIAN_POINT('Origin',(37.,16.6,28.5));
#2356=CARTESIAN_POINT('Origin',(-37.,0.,32.5));
#2357=CARTESIAN_POINT('',(-37.,16.6,32.5));
#2358=CARTESIAN_POINT('',(-18.5,16.6,32.5));
#2359=CARTESIAN_POINT('',(-37.,0.,32.5));
#2360=CARTESIAN_POINT('Origin',(-37.,0.,28.5));
#2361=CARTESIAN_POINT('',(-41.,16.6,28.5));
#2362=CARTESIAN_POINT('',(-41.,0.,28.5));
#2363=CARTESIAN_POINT('Origin',(-37.,16.6,28.5));
#2364=CARTESIAN_POINT('Origin',(-41.,0.,-28.5));
#2365=CARTESIAN_POINT('',(-41.,16.6,-14.25));
#2366=CARTESIAN_POINT('Origin',(-43.,0.,-28.5));
#2367=CARTESIAN_POINT('',(-43.,16.6,-28.5));
#2368=CARTESIAN_POINT('',(-43.,16.6,-28.5));
#2369=CARTESIAN_POINT('',(-43.,0.,-28.5));
#2370=CARTESIAN_POINT('Origin',(-37.,0.,-28.5));
#2371=CARTESIAN_POINT('',(-37.,16.6,-34.5));
#2372=CARTESIAN_POINT('Origin',(-37.,16.6,-28.5));
#2373=CARTESIAN_POINT('',(-37.,0.,-34.5));
#2374=CARTESIAN_POINT('Origin',(37.,0.,-34.5));
#2375=CARTESIAN_POINT('',(37.,16.6,-34.5));
#2376=CARTESIAN_POINT('',(37.,16.6,-34.5));
#2377=CARTESIAN_POINT('',(37.,0.,-34.5));
#2378=CARTESIAN_POINT('Origin',(37.,0.,-28.5));
#2379=CARTESIAN_POINT('Origin',(37.,16.6,-28.5));
#2380=CARTESIAN_POINT('Origin',(0.,16.6,0.));
#2381=UNCERTAINTY_MEASURE_WITH_UNIT(LENGTH_MEASURE(0.01),#2385,
'DISTANCE_ACCURACY_VALUE',
'Maximum model space distance between geometric entities at asserted c
onnectivities');
#2382=UNCERTAINTY_MEASURE_WITH_UNIT(LENGTH_MEASURE(0.01),#2385,
'DISTANCE_ACCURACY_VALUE',
'Maximum model space distance between geometric entities at asserted c
onnectivities');
#2383=(
GEOMETRIC_REPRESENTATION_CONTEXT(3)
GLOBAL_UNCERTAINTY_ASSIGNED_CONTEXT((#2381))
GLOBAL_UNIT_ASSIGNED_CONTEXT((#2385,#2387,#2388))
REPRESENTATION_CONTEXT('','3D')
);
#2384=(
GEOMETRIC_REPRESENTATION_CONTEXT(3)
GLOBAL_UNCERTAINTY_ASSIGNED_CONTEXT((#2382))
GLOBAL_UNIT_ASSIGNED_CONTEXT((#2385,#2387,#2388))
REPRESENTATION_CONTEXT('','3D')
);
#2385=(
LENGTH_UNIT()
NAMED_UNIT(*)
SI_UNIT(.MILLI.,.METRE.)
);
#2386=(
LENGTH_UNIT()
NAMED_UNIT(*)
SI_UNIT($,.METRE.)
);
#2387=(
NAMED_UNIT(*)
PLANE_ANGLE_UNIT()
SI_UNIT($,.RADIAN.)
);
#2388=(
NAMED_UNIT(*)
SI_UNIT($,.STERADIAN.)
SOLID_ANGLE_UNIT()
);
#2389=SHAPE_DEFINITION_REPRESENTATION(#2390,#2391);
#2390=PRODUCT_DEFINITION_SHAPE('',$,#2393);
#2391=SHAPE_REPRESENTATION('',(#1397),#2383);
#2392=PRODUCT_DEFINITION_CONTEXT('part definition',#2397,'design');
#2393=PRODUCT_DEFINITION('ModB_Top','ModB_Top v21',#2394,#2392);
#2394=PRODUCT_DEFINITION_FORMATION('',$,#2399);
#2395=PRODUCT_RELATED_PRODUCT_CATEGORY('ModB_Top v21','ModB_Top v21',(#2399));
#2396=APPLICATION_PROTOCOL_DEFINITION('international standard',
'automotive_design',2009,#2397);
#2397=APPLICATION_CONTEXT(
'Core Data for Automotive Mechanical Design Process');
#2398=PRODUCT_CONTEXT('part definition',#2397,'mechanical');
#2399=PRODUCT('ModB_Top','ModB_Top v21',$,(#2398));
#2400=PRESENTATION_STYLE_ASSIGNMENT((#2402));
#2401=PRESENTATION_STYLE_ASSIGNMENT((#2403));
#2402=SURFACE_STYLE_USAGE(.BOTH.,#2404);
#2403=SURFACE_STYLE_USAGE(.BOTH.,#2405);
#2404=SURFACE_SIDE_STYLE('',(#2406));
#2405=SURFACE_SIDE_STYLE('',(#2407));
#2406=SURFACE_STYLE_FILL_AREA(#2408);
#2407=SURFACE_STYLE_FILL_AREA(#2409);
#2408=FILL_AREA_STYLE('\X2\94A2\X0\ - \X2\7F0E5149\X0\',(#2410));
#2409=FILL_AREA_STYLE('\X2\73BB7483\X0\(\X2\900F660E\X0\)',(#2411));
#2410=FILL_AREA_STYLE_COLOUR('\X2\94A2\X0\ - \X2\7F0E5149\X0\',#2412);
#2411=FILL_AREA_STYLE_COLOUR('\X2\73BB7483\X0\(\X2\900F660E\X0\)',#2413);
#2412=COLOUR_RGB('\X2\94A2\X0\ - \X2\7F0E5149\X0\',0.627450980392157,0.627450980392157,
0.627450980392157);
#2413=COLOUR_RGB('\X2\73BB7483\X0\(\X2\900F660E\X0\)',0.964705882352941,
0.964705882352941,0.952941176470588);
ENDSEC;
END-ISO-10303-21;
