ISO-10303-21;
HEADER;
/* Generated by software containing ST-Developer
 * from STEP Tools, Inc. (www.steptools.com) 
 */

FILE_DESCRIPTION(
/* description */ (''),
/* implementation_level */ '2;1');

FILE_NAME(
/* name */ 'MotorBase v9.step',
/* time_stamp */ '2025-10-08T18:47:05+08:00',
/* author */ (''),
/* organization */ (''),
/* preprocessor_version */ 'ST-DEVELOPER v20.1',
/* originating_system */ 'Autodesk Translation Framework v14.17.0.0',
/* authorisation */ '');

FILE_SCHEMA (('AUTOMOTIVE_DESIGN { 1 0 10303 214 3 1 1 }'));
ENDSEC;

DATA;
#10=MECHANICAL_DESIGN_GEOMETRIC_PRESENTATION_REPRESENTATION('',(#13),#1311);
#11=SHAPE_REPRESENTATION_RELATIONSHIP('SRR','None',#1318,#12);
#12=ADVANCED_BREP_SHAPE_REPRESENTATION('',(#14),#1310);
#13=STYLED_ITEM('',(#1328),#14);
#14=MANIFOLD_SOLID_BREP('\X2\5B9E4F53\X0\1',#763);
#15=FACE_BOUND('',#89,.T.);
#16=FACE_BOUND('',#90,.T.);
#17=FACE_BOUND('',#91,.T.);
#18=FACE_BOUND('',#92,.T.);
#19=FACE_BOUND('',#93,.T.);
#20=FACE_BOUND('',#126,.T.);
#21=FACE_BOUND('',#128,.T.);
#22=FACE_BOUND('',#129,.T.);
#23=FACE_BOUND('',#130,.T.);
#24=FACE_BOUND('',#131,.T.);
#25=FACE_BOUND('',#132,.T.);
#26=PLANE('',#792);
#27=PLANE('',#796);
#28=PLANE('',#800);
#29=PLANE('',#804);
#30=PLANE('',#808);
#31=PLANE('',#812);
#32=PLANE('',#816);
#33=PLANE('',#820);
#34=PLANE('',#824);
#35=PLANE('',#828);
#36=PLANE('',#832);
#37=PLANE('',#836);
#38=PLANE('',#840);
#39=PLANE('',#844);
#40=PLANE('',#848);
#41=PLANE('',#852);
#42=PLANE('',#856);
#43=PLANE('',#857);
#44=FACE_OUTER_BOUND('',#83,.T.);
#45=FACE_OUTER_BOUND('',#84,.T.);
#46=FACE_OUTER_BOUND('',#85,.T.);
#47=FACE_OUTER_BOUND('',#86,.T.);
#48=FACE_OUTER_BOUND('',#87,.T.);
#49=FACE_OUTER_BOUND('',#88,.T.);
#50=FACE_OUTER_BOUND('',#94,.T.);
#51=FACE_OUTER_BOUND('',#95,.T.);
#52=FACE_OUTER_BOUND('',#96,.T.);
#53=FACE_OUTER_BOUND('',#97,.T.);
#54=FACE_OUTER_BOUND('',#98,.T.);
#55=FACE_OUTER_BOUND('',#99,.T.);
#56=FACE_OUTER_BOUND('',#100,.T.);
#57=FACE_OUTER_BOUND('',#101,.T.);
#58=FACE_OUTER_BOUND('',#102,.T.);
#59=FACE_OUTER_BOUND('',#103,.T.);
#60=FACE_OUTER_BOUND('',#104,.T.);
#61=FACE_OUTER_BOUND('',#105,.T.);
#62=FACE_OUTER_BOUND('',#106,.T.);
#63=FACE_OUTER_BOUND('',#107,.T.);
#64=FACE_OUTER_BOUND('',#108,.T.);
#65=FACE_OUTER_BOUND('',#109,.T.);
#66=FACE_OUTER_BOUND('',#110,.T.);
#67=FACE_OUTER_BOUND('',#111,.T.);
#68=FACE_OUTER_BOUND('',#112,.T.);
#69=FACE_OUTER_BOUND('',#113,.T.);
#70=FACE_OUTER_BOUND('',#114,.T.);
#71=FACE_OUTER_BOUND('',#115,.T.);
#72=FACE_OUTER_BOUND('',#116,.T.);
#73=FACE_OUTER_BOUND('',#117,.T.);
#74=FACE_OUTER_BOUND('',#118,.T.);
#75=FACE_OUTER_BOUND('',#119,.T.);
#76=FACE_OUTER_BOUND('',#120,.T.);
#77=FACE_OUTER_BOUND('',#121,.T.);
#78=FACE_OUTER_BOUND('',#122,.T.);
#79=FACE_OUTER_BOUND('',#123,.T.);
#80=FACE_OUTER_BOUND('',#124,.T.);
#81=FACE_OUTER_BOUND('',#125,.T.);
#82=FACE_OUTER_BOUND('',#127,.T.);
#83=EDGE_LOOP('',(#487,#488,#489,#490));
#84=EDGE_LOOP('',(#491,#492,#493,#494));
#85=EDGE_LOOP('',(#495,#496,#497,#498));
#86=EDGE_LOOP('',(#499,#500,#501,#502));
#87=EDGE_LOOP('',(#503,#504,#505,#506));
#88=EDGE_LOOP('',(#507));
#89=EDGE_LOOP('',(#508));
#90=EDGE_LOOP('',(#509));
#91=EDGE_LOOP('',(#510));
#92=EDGE_LOOP('',(#511));
#93=EDGE_LOOP('',(#512));
#94=EDGE_LOOP('',(#513,#514,#515,#516));
#95=EDGE_LOOP('',(#517,#518,#519,#520));
#96=EDGE_LOOP('',(#521,#522,#523,#524));
#97=EDGE_LOOP('',(#525,#526,#527,#528));
#98=EDGE_LOOP('',(#529,#530,#531,#532));
#99=EDGE_LOOP('',(#533,#534,#535,#536));
#100=EDGE_LOOP('',(#537,#538,#539,#540));
#101=EDGE_LOOP('',(#541,#542,#543,#544));
#102=EDGE_LOOP('',(#545,#546,#547,#548));
#103=EDGE_LOOP('',(#549,#550,#551,#552));
#104=EDGE_LOOP('',(#553,#554,#555,#556));
#105=EDGE_LOOP('',(#557,#558,#559,#560));
#106=EDGE_LOOP('',(#561,#562,#563,#564));
#107=EDGE_LOOP('',(#565,#566,#567,#568));
#108=EDGE_LOOP('',(#569,#570,#571,#572));
#109=EDGE_LOOP('',(#573,#574,#575,#576));
#110=EDGE_LOOP('',(#577,#578,#579,#580));
#111=EDGE_LOOP('',(#581,#582,#583,#584));
#112=EDGE_LOOP('',(#585,#586,#587,#588));
#113=EDGE_LOOP('',(#589,#590,#591,#592));
#114=EDGE_LOOP('',(#593,#594,#595,#596));
#115=EDGE_LOOP('',(#597,#598,#599,#600));
#116=EDGE_LOOP('',(#601,#602,#603,#604));
#117=EDGE_LOOP('',(#605,#606,#607,#608));
#118=EDGE_LOOP('',(#609,#610,#611,#612));
#119=EDGE_LOOP('',(#613,#614,#615,#616));
#120=EDGE_LOOP('',(#617,#618,#619,#620));
#121=EDGE_LOOP('',(#621,#622,#623,#624));
#122=EDGE_LOOP('',(#625,#626,#627,#628));
#123=EDGE_LOOP('',(#629,#630,#631,#632));
#124=EDGE_LOOP('',(#633,#634,#635,#636));
#125=EDGE_LOOP('',(#637,#638,#639,#640,#641,#642,#643,#644,#645,#646,#647,
#648,#649,#650,#651,#652,#653,#654,#655,#656,#657,#658,#659,#660,#661,#662,
#663,#664,#665,#666));
#126=EDGE_LOOP('',(#667));
#127=EDGE_LOOP('',(#668,#669,#670,#671,#672,#673,#674,#675,#676,#677,#678,
#679,#680,#681,#682,#683,#684,#685,#686,#687,#688,#689,#690,#691,#692,#693,
#694,#695,#696,#697));
#128=EDGE_LOOP('',(#698));
#129=EDGE_LOOP('',(#699));
#130=EDGE_LOOP('',(#700));
#131=EDGE_LOOP('',(#701));
#132=EDGE_LOOP('',(#702));
#133=LINE('',#1093,#199);
#134=LINE('',#1099,#200);
#135=LINE('',#1105,#201);
#136=LINE('',#1111,#202);
#137=LINE('',#1117,#203);
#138=LINE('',#1125,#204);
#139=LINE('',#1129,#205);
#140=LINE('',#1131,#206);
#141=LINE('',#1133,#207);
#142=LINE('',#1134,#208);
#143=LINE('',#1140,#209);
#144=LINE('',#1143,#210);
#145=LINE('',#1145,#211);
#146=LINE('',#1146,#212);
#147=LINE('',#1152,#213);
#148=LINE('',#1155,#214);
#149=LINE('',#1157,#215);
#150=LINE('',#1158,#216);
#151=LINE('',#1164,#217);
#152=LINE('',#1167,#218);
#153=LINE('',#1169,#219);
#154=LINE('',#1170,#220);
#155=LINE('',#1176,#221);
#156=LINE('',#1179,#222);
#157=LINE('',#1181,#223);
#158=LINE('',#1182,#224);
#159=LINE('',#1188,#225);
#160=LINE('',#1191,#226);
#161=LINE('',#1193,#227);
#162=LINE('',#1194,#228);
#163=LINE('',#1200,#229);
#164=LINE('',#1203,#230);
#165=LINE('',#1205,#231);
#166=LINE('',#1206,#232);
#167=LINE('',#1212,#233);
#168=LINE('',#1215,#234);
#169=LINE('',#1217,#235);
#170=LINE('',#1218,#236);
#171=LINE('',#1224,#237);
#172=LINE('',#1227,#238);
#173=LINE('',#1229,#239);
#174=LINE('',#1230,#240);
#175=LINE('',#1236,#241);
#176=LINE('',#1239,#242);
#177=LINE('',#1241,#243);
#178=LINE('',#1242,#244);
#179=LINE('',#1248,#245);
#180=LINE('',#1251,#246);
#181=LINE('',#1253,#247);
#182=LINE('',#1254,#248);
#183=LINE('',#1260,#249);
#184=LINE('',#1263,#250);
#185=LINE('',#1265,#251);
#186=LINE('',#1266,#252);
#187=LINE('',#1272,#253);
#188=LINE('',#1275,#254);
#189=LINE('',#1277,#255);
#190=LINE('',#1278,#256);
#191=LINE('',#1284,#257);
#192=LINE('',#1287,#258);
#193=LINE('',#1289,#259);
#194=LINE('',#1290,#260);
#195=LINE('',#1296,#261);
#196=LINE('',#1299,#262);
#197=LINE('',#1301,#263);
#198=LINE('',#1302,#264);
#199=VECTOR('',#864,1.25);
#200=VECTOR('',#871,1.25);
#201=VECTOR('',#878,1.25);
#202=VECTOR('',#885,1.25);
#203=VECTOR('',#892,3.25);
#204=VECTOR('',#903,17.4);
#205=VECTOR('',#906,10.);
#206=VECTOR('',#907,10.);
#207=VECTOR('',#908,10.);
#208=VECTOR('',#909,10.);
#209=VECTOR('',#916,10.);
#210=VECTOR('',#919,10.);
#211=VECTOR('',#920,10.);
#212=VECTOR('',#921,10.);
#213=VECTOR('',#928,10.);
#214=VECTOR('',#931,10.);
#215=VECTOR('',#932,10.);
#216=VECTOR('',#933,10.);
#217=VECTOR('',#940,10.);
#218=VECTOR('',#943,10.);
#219=VECTOR('',#944,10.);
#220=VECTOR('',#945,10.);
#221=VECTOR('',#952,10.);
#222=VECTOR('',#955,10.);
#223=VECTOR('',#956,10.);
#224=VECTOR('',#957,10.);
#225=VECTOR('',#964,10.);
#226=VECTOR('',#967,10.);
#227=VECTOR('',#968,10.);
#228=VECTOR('',#969,10.);
#229=VECTOR('',#976,10.);
#230=VECTOR('',#979,10.);
#231=VECTOR('',#980,10.);
#232=VECTOR('',#981,10.);
#233=VECTOR('',#988,10.);
#234=VECTOR('',#991,10.);
#235=VECTOR('',#992,10.);
#236=VECTOR('',#993,10.);
#237=VECTOR('',#1000,10.);
#238=VECTOR('',#1003,10.);
#239=VECTOR('',#1004,10.);
#240=VECTOR('',#1005,10.);
#241=VECTOR('',#1012,10.);
#242=VECTOR('',#1015,10.);
#243=VECTOR('',#1016,10.);
#244=VECTOR('',#1017,10.);
#245=VECTOR('',#1024,10.);
#246=VECTOR('',#1027,10.);
#247=VECTOR('',#1028,10.);
#248=VECTOR('',#1029,10.);
#249=VECTOR('',#1036,10.);
#250=VECTOR('',#1039,10.);
#251=VECTOR('',#1040,10.);
#252=VECTOR('',#1041,10.);
#253=VECTOR('',#1048,10.);
#254=VECTOR('',#1051,10.);
#255=VECTOR('',#1052,10.);
#256=VECTOR('',#1053,10.);
#257=VECTOR('',#1060,10.);
#258=VECTOR('',#1063,10.);
#259=VECTOR('',#1064,10.);
#260=VECTOR('',#1065,10.);
#261=VECTOR('',#1072,10.);
#262=VECTOR('',#1075,10.);
#263=VECTOR('',#1076,10.);
#264=VECTOR('',#1077,10.);
#265=CIRCLE('',#778,1.25);
#266=CIRCLE('',#779,1.25);
#267=CIRCLE('',#781,1.25);
#268=CIRCLE('',#782,1.25);
#269=CIRCLE('',#784,1.25);
#270=CIRCLE('',#785,1.25);
#271=CIRCLE('',#787,1.25);
#272=CIRCLE('',#788,1.25);
#273=CIRCLE('',#790,3.25);
#274=CIRCLE('',#791,3.25);
#275=CIRCLE('',#793,17.4);
#276=CIRCLE('',#795,17.4);
#277=CIRCLE('',#798,18.65);
#278=CIRCLE('',#799,18.65);
#279=CIRCLE('',#802,0.49999999999999);
#280=CIRCLE('',#803,0.49999999999999);
#281=CIRCLE('',#806,0.499999999999997);
#282=CIRCLE('',#807,0.499999999999997);
#283=CIRCLE('',#810,18.65);
#284=CIRCLE('',#811,18.65);
#285=CIRCLE('',#814,0.499999999999994);
#286=CIRCLE('',#815,0.499999999999994);
#287=CIRCLE('',#818,0.499999999999994);
#288=CIRCLE('',#819,0.499999999999994);
#289=CIRCLE('',#822,18.65);
#290=CIRCLE('',#823,18.65);
#291=CIRCLE('',#826,0.500000000000012);
#292=CIRCLE('',#827,0.500000000000012);
#293=CIRCLE('',#830,0.499999999999998);
#294=CIRCLE('',#831,0.499999999999998);
#295=CIRCLE('',#834,18.65);
#296=CIRCLE('',#835,18.65);
#297=CIRCLE('',#838,0.499999999999998);
#298=CIRCLE('',#839,0.499999999999998);
#299=CIRCLE('',#842,0.499999999999998);
#300=CIRCLE('',#843,0.499999999999998);
#301=CIRCLE('',#846,18.65);
#302=CIRCLE('',#847,18.65);
#303=CIRCLE('',#850,0.499999999999998);
#304=CIRCLE('',#851,0.499999999999998);
#305=CIRCLE('',#854,0.499999999999998);
#306=CIRCLE('',#855,0.499999999999998);
#307=VERTEX_POINT('',#1090);
#308=VERTEX_POINT('',#1092);
#309=VERTEX_POINT('',#1096);
#310=VERTEX_POINT('',#1098);
#311=VERTEX_POINT('',#1102);
#312=VERTEX_POINT('',#1104);
#313=VERTEX_POINT('',#1108);
#314=VERTEX_POINT('',#1110);
#315=VERTEX_POINT('',#1114);
#316=VERTEX_POINT('',#1116);
#317=VERTEX_POINT('',#1120);
#318=VERTEX_POINT('',#1123);
#319=VERTEX_POINT('',#1127);
#320=VERTEX_POINT('',#1128);
#321=VERTEX_POINT('',#1130);
#322=VERTEX_POINT('',#1132);
#323=VERTEX_POINT('',#1136);
#324=VERTEX_POINT('',#1138);
#325=VERTEX_POINT('',#1142);
#326=VERTEX_POINT('',#1144);
#327=VERTEX_POINT('',#1148);
#328=VERTEX_POINT('',#1150);
#329=VERTEX_POINT('',#1154);
#330=VERTEX_POINT('',#1156);
#331=VERTEX_POINT('',#1160);
#332=VERTEX_POINT('',#1162);
#333=VERTEX_POINT('',#1166);
#334=VERTEX_POINT('',#1168);
#335=VERTEX_POINT('',#1172);
#336=VERTEX_POINT('',#1174);
#337=VERTEX_POINT('',#1178);
#338=VERTEX_POINT('',#1180);
#339=VERTEX_POINT('',#1184);
#340=VERTEX_POINT('',#1186);
#341=VERTEX_POINT('',#1190);
#342=VERTEX_POINT('',#1192);
#343=VERTEX_POINT('',#1196);
#344=VERTEX_POINT('',#1198);
#345=VERTEX_POINT('',#1202);
#346=VERTEX_POINT('',#1204);
#347=VERTEX_POINT('',#1208);
#348=VERTEX_POINT('',#1210);
#349=VERTEX_POINT('',#1214);
#350=VERTEX_POINT('',#1216);
#351=VERTEX_POINT('',#1220);
#352=VERTEX_POINT('',#1222);
#353=VERTEX_POINT('',#1226);
#354=VERTEX_POINT('',#1228);
#355=VERTEX_POINT('',#1232);
#356=VERTEX_POINT('',#1234);
#357=VERTEX_POINT('',#1238);
#358=VERTEX_POINT('',#1240);
#359=VERTEX_POINT('',#1244);
#360=VERTEX_POINT('',#1246);
#361=VERTEX_POINT('',#1250);
#362=VERTEX_POINT('',#1252);
#363=VERTEX_POINT('',#1256);
#364=VERTEX_POINT('',#1258);
#365=VERTEX_POINT('',#1262);
#366=VERTEX_POINT('',#1264);
#367=VERTEX_POINT('',#1268);
#368=VERTEX_POINT('',#1270);
#369=VERTEX_POINT('',#1274);
#370=VERTEX_POINT('',#1276);
#371=VERTEX_POINT('',#1280);
#372=VERTEX_POINT('',#1282);
#373=VERTEX_POINT('',#1286);
#374=VERTEX_POINT('',#1288);
#375=VERTEX_POINT('',#1292);
#376=VERTEX_POINT('',#1294);
#377=VERTEX_POINT('',#1298);
#378=VERTEX_POINT('',#1300);
#379=EDGE_CURVE('',#307,#307,#265,.T.);
#380=EDGE_CURVE('',#307,#308,#133,.T.);
#381=EDGE_CURVE('',#308,#308,#266,.T.);
#382=EDGE_CURVE('',#309,#309,#267,.T.);
#383=EDGE_CURVE('',#309,#310,#134,.T.);
#384=EDGE_CURVE('',#310,#310,#268,.T.);
#385=EDGE_CURVE('',#311,#311,#269,.T.);
#386=EDGE_CURVE('',#311,#312,#135,.T.);
#387=EDGE_CURVE('',#312,#312,#270,.T.);
#388=EDGE_CURVE('',#313,#313,#271,.T.);
#389=EDGE_CURVE('',#313,#314,#136,.T.);
#390=EDGE_CURVE('',#314,#314,#272,.T.);
#391=EDGE_CURVE('',#315,#315,#273,.T.);
#392=EDGE_CURVE('',#315,#316,#137,.T.);
#393=EDGE_CURVE('',#316,#316,#274,.T.);
#394=EDGE_CURVE('',#317,#317,#275,.T.);
#395=EDGE_CURVE('',#318,#318,#276,.T.);
#396=EDGE_CURVE('',#318,#317,#138,.T.);
#397=EDGE_CURVE('',#319,#320,#139,.T.);
#398=EDGE_CURVE('',#320,#321,#140,.T.);
#399=EDGE_CURVE('',#322,#321,#141,.T.);
#400=EDGE_CURVE('',#319,#322,#142,.T.);
#401=EDGE_CURVE('',#323,#319,#277,.T.);
#402=EDGE_CURVE('',#324,#322,#278,.T.);
#403=EDGE_CURVE('',#323,#324,#143,.T.);
#404=EDGE_CURVE('',#325,#323,#144,.T.);
#405=EDGE_CURVE('',#326,#324,#145,.T.);
#406=EDGE_CURVE('',#325,#326,#146,.T.);
#407=EDGE_CURVE('',#327,#325,#279,.T.);
#408=EDGE_CURVE('',#328,#326,#280,.T.);
#409=EDGE_CURVE('',#327,#328,#147,.T.);
#410=EDGE_CURVE('',#329,#327,#148,.T.);
#411=EDGE_CURVE('',#330,#328,#149,.T.);
#412=EDGE_CURVE('',#329,#330,#150,.T.);
#413=EDGE_CURVE('',#331,#329,#281,.T.);
#414=EDGE_CURVE('',#332,#330,#282,.T.);
#415=EDGE_CURVE('',#331,#332,#151,.T.);
#416=EDGE_CURVE('',#333,#331,#152,.T.);
#417=EDGE_CURVE('',#334,#332,#153,.T.);
#418=EDGE_CURVE('',#333,#334,#154,.T.);
#419=EDGE_CURVE('',#335,#333,#283,.T.);
#420=EDGE_CURVE('',#336,#334,#284,.T.);
#421=EDGE_CURVE('',#335,#336,#155,.T.);
#422=EDGE_CURVE('',#337,#335,#156,.T.);
#423=EDGE_CURVE('',#338,#336,#157,.T.);
#424=EDGE_CURVE('',#337,#338,#158,.T.);
#425=EDGE_CURVE('',#339,#337,#285,.T.);
#426=EDGE_CURVE('',#340,#338,#286,.T.);
#427=EDGE_CURVE('',#339,#340,#159,.T.);
#428=EDGE_CURVE('',#341,#339,#160,.T.);
#429=EDGE_CURVE('',#342,#340,#161,.T.);
#430=EDGE_CURVE('',#341,#342,#162,.T.);
#431=EDGE_CURVE('',#343,#341,#287,.T.);
#432=EDGE_CURVE('',#344,#342,#288,.T.);
#433=EDGE_CURVE('',#343,#344,#163,.T.);
#434=EDGE_CURVE('',#345,#343,#164,.T.);
#435=EDGE_CURVE('',#346,#344,#165,.T.);
#436=EDGE_CURVE('',#345,#346,#166,.T.);
#437=EDGE_CURVE('',#347,#345,#289,.T.);
#438=EDGE_CURVE('',#348,#346,#290,.T.);
#439=EDGE_CURVE('',#347,#348,#167,.T.);
#440=EDGE_CURVE('',#349,#347,#168,.T.);
#441=EDGE_CURVE('',#350,#348,#169,.T.);
#442=EDGE_CURVE('',#349,#350,#170,.T.);
#443=EDGE_CURVE('',#351,#349,#291,.T.);
#444=EDGE_CURVE('',#352,#350,#292,.T.);
#445=EDGE_CURVE('',#351,#352,#171,.T.);
#446=EDGE_CURVE('',#353,#351,#172,.T.);
#447=EDGE_CURVE('',#354,#352,#173,.T.);
#448=EDGE_CURVE('',#353,#354,#174,.T.);
#449=EDGE_CURVE('',#355,#353,#293,.T.);
#450=EDGE_CURVE('',#356,#354,#294,.T.);
#451=EDGE_CURVE('',#355,#356,#175,.T.);
#452=EDGE_CURVE('',#357,#355,#176,.T.);
#453=EDGE_CURVE('',#358,#356,#177,.T.);
#454=EDGE_CURVE('',#357,#358,#178,.T.);
#455=EDGE_CURVE('',#359,#357,#295,.T.);
#456=EDGE_CURVE('',#360,#358,#296,.T.);
#457=EDGE_CURVE('',#359,#360,#179,.T.);
#458=EDGE_CURVE('',#361,#359,#180,.T.);
#459=EDGE_CURVE('',#362,#360,#181,.T.);
#460=EDGE_CURVE('',#361,#362,#182,.T.);
#461=EDGE_CURVE('',#363,#361,#297,.T.);
#462=EDGE_CURVE('',#364,#362,#298,.T.);
#463=EDGE_CURVE('',#363,#364,#183,.T.);
#464=EDGE_CURVE('',#365,#363,#184,.T.);
#465=EDGE_CURVE('',#366,#364,#185,.T.);
#466=EDGE_CURVE('',#365,#366,#186,.T.);
#467=EDGE_CURVE('',#367,#365,#299,.T.);
#468=EDGE_CURVE('',#368,#366,#300,.T.);
#469=EDGE_CURVE('',#367,#368,#187,.T.);
#470=EDGE_CURVE('',#369,#367,#188,.T.);
#471=EDGE_CURVE('',#370,#368,#189,.T.);
#472=EDGE_CURVE('',#369,#370,#190,.T.);
#473=EDGE_CURVE('',#371,#369,#301,.T.);
#474=EDGE_CURVE('',#372,#370,#302,.T.);
#475=EDGE_CURVE('',#371,#372,#191,.T.);
#476=EDGE_CURVE('',#373,#371,#192,.T.);
#477=EDGE_CURVE('',#374,#372,#193,.T.);
#478=EDGE_CURVE('',#373,#374,#194,.T.);
#479=EDGE_CURVE('',#375,#373,#303,.T.);
#480=EDGE_CURVE('',#376,#374,#304,.T.);
#481=EDGE_CURVE('',#375,#376,#195,.T.);
#482=EDGE_CURVE('',#377,#375,#196,.T.);
#483=EDGE_CURVE('',#378,#376,#197,.T.);
#484=EDGE_CURVE('',#377,#378,#198,.T.);
#485=EDGE_CURVE('',#320,#377,#305,.T.);
#486=EDGE_CURVE('',#321,#378,#306,.T.);
#487=ORIENTED_EDGE('',*,*,#379,.F.);
#488=ORIENTED_EDGE('',*,*,#380,.T.);
#489=ORIENTED_EDGE('',*,*,#381,.T.);
#490=ORIENTED_EDGE('',*,*,#380,.F.);
#491=ORIENTED_EDGE('',*,*,#382,.F.);
#492=ORIENTED_EDGE('',*,*,#383,.T.);
#493=ORIENTED_EDGE('',*,*,#384,.T.);
#494=ORIENTED_EDGE('',*,*,#383,.F.);
#495=ORIENTED_EDGE('',*,*,#385,.F.);
#496=ORIENTED_EDGE('',*,*,#386,.T.);
#497=ORIENTED_EDGE('',*,*,#387,.T.);
#498=ORIENTED_EDGE('',*,*,#386,.F.);
#499=ORIENTED_EDGE('',*,*,#388,.F.);
#500=ORIENTED_EDGE('',*,*,#389,.T.);
#501=ORIENTED_EDGE('',*,*,#390,.T.);
#502=ORIENTED_EDGE('',*,*,#389,.F.);
#503=ORIENTED_EDGE('',*,*,#391,.F.);
#504=ORIENTED_EDGE('',*,*,#392,.T.);
#505=ORIENTED_EDGE('',*,*,#393,.T.);
#506=ORIENTED_EDGE('',*,*,#392,.F.);
#507=ORIENTED_EDGE('',*,*,#394,.F.);
#508=ORIENTED_EDGE('',*,*,#391,.T.);
#509=ORIENTED_EDGE('',*,*,#388,.T.);
#510=ORIENTED_EDGE('',*,*,#385,.T.);
#511=ORIENTED_EDGE('',*,*,#382,.T.);
#512=ORIENTED_EDGE('',*,*,#379,.T.);
#513=ORIENTED_EDGE('',*,*,#395,.F.);
#514=ORIENTED_EDGE('',*,*,#396,.T.);
#515=ORIENTED_EDGE('',*,*,#394,.T.);
#516=ORIENTED_EDGE('',*,*,#396,.F.);
#517=ORIENTED_EDGE('',*,*,#397,.T.);
#518=ORIENTED_EDGE('',*,*,#398,.T.);
#519=ORIENTED_EDGE('',*,*,#399,.F.);
#520=ORIENTED_EDGE('',*,*,#400,.F.);
#521=ORIENTED_EDGE('',*,*,#401,.T.);
#522=ORIENTED_EDGE('',*,*,#400,.T.);
#523=ORIENTED_EDGE('',*,*,#402,.F.);
#524=ORIENTED_EDGE('',*,*,#403,.F.);
#525=ORIENTED_EDGE('',*,*,#404,.T.);
#526=ORIENTED_EDGE('',*,*,#403,.T.);
#527=ORIENTED_EDGE('',*,*,#405,.F.);
#528=ORIENTED_EDGE('',*,*,#406,.F.);
#529=ORIENTED_EDGE('',*,*,#407,.T.);
#530=ORIENTED_EDGE('',*,*,#406,.T.);
#531=ORIENTED_EDGE('',*,*,#408,.F.);
#532=ORIENTED_EDGE('',*,*,#409,.F.);
#533=ORIENTED_EDGE('',*,*,#410,.T.);
#534=ORIENTED_EDGE('',*,*,#409,.T.);
#535=ORIENTED_EDGE('',*,*,#411,.F.);
#536=ORIENTED_EDGE('',*,*,#412,.F.);
#537=ORIENTED_EDGE('',*,*,#413,.T.);
#538=ORIENTED_EDGE('',*,*,#412,.T.);
#539=ORIENTED_EDGE('',*,*,#414,.F.);
#540=ORIENTED_EDGE('',*,*,#415,.F.);
#541=ORIENTED_EDGE('',*,*,#416,.T.);
#542=ORIENTED_EDGE('',*,*,#415,.T.);
#543=ORIENTED_EDGE('',*,*,#417,.F.);
#544=ORIENTED_EDGE('',*,*,#418,.F.);
#545=ORIENTED_EDGE('',*,*,#419,.T.);
#546=ORIENTED_EDGE('',*,*,#418,.T.);
#547=ORIENTED_EDGE('',*,*,#420,.F.);
#548=ORIENTED_EDGE('',*,*,#421,.F.);
#549=ORIENTED_EDGE('',*,*,#422,.T.);
#550=ORIENTED_EDGE('',*,*,#421,.T.);
#551=ORIENTED_EDGE('',*,*,#423,.F.);
#552=ORIENTED_EDGE('',*,*,#424,.F.);
#553=ORIENTED_EDGE('',*,*,#425,.T.);
#554=ORIENTED_EDGE('',*,*,#424,.T.);
#555=ORIENTED_EDGE('',*,*,#426,.F.);
#556=ORIENTED_EDGE('',*,*,#427,.F.);
#557=ORIENTED_EDGE('',*,*,#428,.T.);
#558=ORIENTED_EDGE('',*,*,#427,.T.);
#559=ORIENTED_EDGE('',*,*,#429,.F.);
#560=ORIENTED_EDGE('',*,*,#430,.F.);
#561=ORIENTED_EDGE('',*,*,#431,.T.);
#562=ORIENTED_EDGE('',*,*,#430,.T.);
#563=ORIENTED_EDGE('',*,*,#432,.F.);
#564=ORIENTED_EDGE('',*,*,#433,.F.);
#565=ORIENTED_EDGE('',*,*,#434,.T.);
#566=ORIENTED_EDGE('',*,*,#433,.T.);
#567=ORIENTED_EDGE('',*,*,#435,.F.);
#568=ORIENTED_EDGE('',*,*,#436,.F.);
#569=ORIENTED_EDGE('',*,*,#437,.T.);
#570=ORIENTED_EDGE('',*,*,#436,.T.);
#571=ORIENTED_EDGE('',*,*,#438,.F.);
#572=ORIENTED_EDGE('',*,*,#439,.F.);
#573=ORIENTED_EDGE('',*,*,#440,.T.);
#574=ORIENTED_EDGE('',*,*,#439,.T.);
#575=ORIENTED_EDGE('',*,*,#441,.F.);
#576=ORIENTED_EDGE('',*,*,#442,.F.);
#577=ORIENTED_EDGE('',*,*,#443,.T.);
#578=ORIENTED_EDGE('',*,*,#442,.T.);
#579=ORIENTED_EDGE('',*,*,#444,.F.);
#580=ORIENTED_EDGE('',*,*,#445,.F.);
#581=ORIENTED_EDGE('',*,*,#446,.T.);
#582=ORIENTED_EDGE('',*,*,#445,.T.);
#583=ORIENTED_EDGE('',*,*,#447,.F.);
#584=ORIENTED_EDGE('',*,*,#448,.F.);
#585=ORIENTED_EDGE('',*,*,#449,.T.);
#586=ORIENTED_EDGE('',*,*,#448,.T.);
#587=ORIENTED_EDGE('',*,*,#450,.F.);
#588=ORIENTED_EDGE('',*,*,#451,.F.);
#589=ORIENTED_EDGE('',*,*,#452,.T.);
#590=ORIENTED_EDGE('',*,*,#451,.T.);
#591=ORIENTED_EDGE('',*,*,#453,.F.);
#592=ORIENTED_EDGE('',*,*,#454,.F.);
#593=ORIENTED_EDGE('',*,*,#455,.T.);
#594=ORIENTED_EDGE('',*,*,#454,.T.);
#595=ORIENTED_EDGE('',*,*,#456,.F.);
#596=ORIENTED_EDGE('',*,*,#457,.F.);
#597=ORIENTED_EDGE('',*,*,#458,.T.);
#598=ORIENTED_EDGE('',*,*,#457,.T.);
#599=ORIENTED_EDGE('',*,*,#459,.F.);
#600=ORIENTED_EDGE('',*,*,#460,.F.);
#601=ORIENTED_EDGE('',*,*,#461,.T.);
#602=ORIENTED_EDGE('',*,*,#460,.T.);
#603=ORIENTED_EDGE('',*,*,#462,.F.);
#604=ORIENTED_EDGE('',*,*,#463,.F.);
#605=ORIENTED_EDGE('',*,*,#464,.T.);
#606=ORIENTED_EDGE('',*,*,#463,.T.);
#607=ORIENTED_EDGE('',*,*,#465,.F.);
#608=ORIENTED_EDGE('',*,*,#466,.F.);
#609=ORIENTED_EDGE('',*,*,#467,.T.);
#610=ORIENTED_EDGE('',*,*,#466,.T.);
#611=ORIENTED_EDGE('',*,*,#468,.F.);
#612=ORIENTED_EDGE('',*,*,#469,.F.);
#613=ORIENTED_EDGE('',*,*,#470,.T.);
#614=ORIENTED_EDGE('',*,*,#469,.T.);
#615=ORIENTED_EDGE('',*,*,#471,.F.);
#616=ORIENTED_EDGE('',*,*,#472,.F.);
#617=ORIENTED_EDGE('',*,*,#473,.T.);
#618=ORIENTED_EDGE('',*,*,#472,.T.);
#619=ORIENTED_EDGE('',*,*,#474,.F.);
#620=ORIENTED_EDGE('',*,*,#475,.F.);
#621=ORIENTED_EDGE('',*,*,#476,.T.);
#622=ORIENTED_EDGE('',*,*,#475,.T.);
#623=ORIENTED_EDGE('',*,*,#477,.F.);
#624=ORIENTED_EDGE('',*,*,#478,.F.);
#625=ORIENTED_EDGE('',*,*,#479,.T.);
#626=ORIENTED_EDGE('',*,*,#478,.T.);
#627=ORIENTED_EDGE('',*,*,#480,.F.);
#628=ORIENTED_EDGE('',*,*,#481,.F.);
#629=ORIENTED_EDGE('',*,*,#482,.T.);
#630=ORIENTED_EDGE('',*,*,#481,.T.);
#631=ORIENTED_EDGE('',*,*,#483,.F.);
#632=ORIENTED_EDGE('',*,*,#484,.F.);
#633=ORIENTED_EDGE('',*,*,#485,.T.);
#634=ORIENTED_EDGE('',*,*,#484,.T.);
#635=ORIENTED_EDGE('',*,*,#486,.F.);
#636=ORIENTED_EDGE('',*,*,#398,.F.);
#637=ORIENTED_EDGE('',*,*,#486,.T.);
#638=ORIENTED_EDGE('',*,*,#483,.T.);
#639=ORIENTED_EDGE('',*,*,#480,.T.);
#640=ORIENTED_EDGE('',*,*,#477,.T.);
#641=ORIENTED_EDGE('',*,*,#474,.T.);
#642=ORIENTED_EDGE('',*,*,#471,.T.);
#643=ORIENTED_EDGE('',*,*,#468,.T.);
#644=ORIENTED_EDGE('',*,*,#465,.T.);
#645=ORIENTED_EDGE('',*,*,#462,.T.);
#646=ORIENTED_EDGE('',*,*,#459,.T.);
#647=ORIENTED_EDGE('',*,*,#456,.T.);
#648=ORIENTED_EDGE('',*,*,#453,.T.);
#649=ORIENTED_EDGE('',*,*,#450,.T.);
#650=ORIENTED_EDGE('',*,*,#447,.T.);
#651=ORIENTED_EDGE('',*,*,#444,.T.);
#652=ORIENTED_EDGE('',*,*,#441,.T.);
#653=ORIENTED_EDGE('',*,*,#438,.T.);
#654=ORIENTED_EDGE('',*,*,#435,.T.);
#655=ORIENTED_EDGE('',*,*,#432,.T.);
#656=ORIENTED_EDGE('',*,*,#429,.T.);
#657=ORIENTED_EDGE('',*,*,#426,.T.);
#658=ORIENTED_EDGE('',*,*,#423,.T.);
#659=ORIENTED_EDGE('',*,*,#420,.T.);
#660=ORIENTED_EDGE('',*,*,#417,.T.);
#661=ORIENTED_EDGE('',*,*,#414,.T.);
#662=ORIENTED_EDGE('',*,*,#411,.T.);
#663=ORIENTED_EDGE('',*,*,#408,.T.);
#664=ORIENTED_EDGE('',*,*,#405,.T.);
#665=ORIENTED_EDGE('',*,*,#402,.T.);
#666=ORIENTED_EDGE('',*,*,#399,.T.);
#667=ORIENTED_EDGE('',*,*,#395,.T.);
#668=ORIENTED_EDGE('',*,*,#485,.F.);
#669=ORIENTED_EDGE('',*,*,#397,.F.);
#670=ORIENTED_EDGE('',*,*,#401,.F.);
#671=ORIENTED_EDGE('',*,*,#404,.F.);
#672=ORIENTED_EDGE('',*,*,#407,.F.);
#673=ORIENTED_EDGE('',*,*,#410,.F.);
#674=ORIENTED_EDGE('',*,*,#413,.F.);
#675=ORIENTED_EDGE('',*,*,#416,.F.);
#676=ORIENTED_EDGE('',*,*,#419,.F.);
#677=ORIENTED_EDGE('',*,*,#422,.F.);
#678=ORIENTED_EDGE('',*,*,#425,.F.);
#679=ORIENTED_EDGE('',*,*,#428,.F.);
#680=ORIENTED_EDGE('',*,*,#431,.F.);
#681=ORIENTED_EDGE('',*,*,#434,.F.);
#682=ORIENTED_EDGE('',*,*,#437,.F.);
#683=ORIENTED_EDGE('',*,*,#440,.F.);
#684=ORIENTED_EDGE('',*,*,#443,.F.);
#685=ORIENTED_EDGE('',*,*,#446,.F.);
#686=ORIENTED_EDGE('',*,*,#449,.F.);
#687=ORIENTED_EDGE('',*,*,#452,.F.);
#688=ORIENTED_EDGE('',*,*,#455,.F.);
#689=ORIENTED_EDGE('',*,*,#458,.F.);
#690=ORIENTED_EDGE('',*,*,#461,.F.);
#691=ORIENTED_EDGE('',*,*,#464,.F.);
#692=ORIENTED_EDGE('',*,*,#467,.F.);
#693=ORIENTED_EDGE('',*,*,#470,.F.);
#694=ORIENTED_EDGE('',*,*,#473,.F.);
#695=ORIENTED_EDGE('',*,*,#476,.F.);
#696=ORIENTED_EDGE('',*,*,#479,.F.);
#697=ORIENTED_EDGE('',*,*,#482,.F.);
#698=ORIENTED_EDGE('',*,*,#381,.F.);
#699=ORIENTED_EDGE('',*,*,#384,.F.);
#700=ORIENTED_EDGE('',*,*,#387,.F.);
#701=ORIENTED_EDGE('',*,*,#390,.F.);
#702=ORIENTED_EDGE('',*,*,#393,.F.);
#703=CYLINDRICAL_SURFACE('',#777,1.25);
#704=CYLINDRICAL_SURFACE('',#780,1.25);
#705=CYLINDRICAL_SURFACE('',#783,1.25);
#706=CYLINDRICAL_SURFACE('',#786,1.25);
#707=CYLINDRICAL_SURFACE('',#789,3.25);
#708=CYLINDRICAL_SURFACE('',#794,17.4);
#709=CYLINDRICAL_SURFACE('',#797,18.65);
#710=CYLINDRICAL_SURFACE('',#801,0.49999999999999);
#711=CYLINDRICAL_SURFACE('',#805,0.499999999999997);
#712=CYLINDRICAL_SURFACE('',#809,18.65);
#713=CYLINDRICAL_SURFACE('',#813,0.499999999999994);
#714=CYLINDRICAL_SURFACE('',#817,0.499999999999994);
#715=CYLINDRICAL_SURFACE('',#821,18.65);
#716=CYLINDRICAL_SURFACE('',#825,0.500000000000012);
#717=CYLINDRICAL_SURFACE('',#829,0.499999999999998);
#718=CYLINDRICAL_SURFACE('',#833,18.65);
#719=CYLINDRICAL_SURFACE('',#837,0.499999999999998);
#720=CYLINDRICAL_SURFACE('',#841,0.499999999999998);
#721=CYLINDRICAL_SURFACE('',#845,18.65);
#722=CYLINDRICAL_SURFACE('',#849,0.499999999999998);
#723=CYLINDRICAL_SURFACE('',#853,0.499999999999998);
#724=ADVANCED_FACE('',(#44),#703,.F.);
#725=ADVANCED_FACE('',(#45),#704,.F.);
#726=ADVANCED_FACE('',(#46),#705,.F.);
#727=ADVANCED_FACE('',(#47),#706,.F.);
#728=ADVANCED_FACE('',(#48),#707,.F.);
#729=ADVANCED_FACE('',(#49,#15,#16,#17,#18,#19),#26,.T.);
#730=ADVANCED_FACE('',(#50),#708,.F.);
#731=ADVANCED_FACE('',(#51),#27,.T.);
#732=ADVANCED_FACE('',(#52),#709,.T.);
#733=ADVANCED_FACE('',(#53),#28,.T.);
#734=ADVANCED_FACE('',(#54),#710,.T.);
#735=ADVANCED_FACE('',(#55),#29,.T.);
#736=ADVANCED_FACE('',(#56),#711,.T.);
#737=ADVANCED_FACE('',(#57),#30,.T.);
#738=ADVANCED_FACE('',(#58),#712,.T.);
#739=ADVANCED_FACE('',(#59),#31,.T.);
#740=ADVANCED_FACE('',(#60),#713,.T.);
#741=ADVANCED_FACE('',(#61),#32,.T.);
#742=ADVANCED_FACE('',(#62),#714,.T.);
#743=ADVANCED_FACE('',(#63),#33,.T.);
#744=ADVANCED_FACE('',(#64),#715,.T.);
#745=ADVANCED_FACE('',(#65),#34,.T.);
#746=ADVANCED_FACE('',(#66),#716,.T.);
#747=ADVANCED_FACE('',(#67),#35,.T.);
#748=ADVANCED_FACE('',(#68),#717,.T.);
#749=ADVANCED_FACE('',(#69),#36,.T.);
#750=ADVANCED_FACE('',(#70),#718,.T.);
#751=ADVANCED_FACE('',(#71),#37,.T.);
#752=ADVANCED_FACE('',(#72),#719,.T.);
#753=ADVANCED_FACE('',(#73),#38,.T.);
#754=ADVANCED_FACE('',(#74),#720,.T.);
#755=ADVANCED_FACE('',(#75),#39,.T.);
#756=ADVANCED_FACE('',(#76),#721,.T.);
#757=ADVANCED_FACE('',(#77),#40,.T.);
#758=ADVANCED_FACE('',(#78),#722,.T.);
#759=ADVANCED_FACE('',(#79),#41,.T.);
#760=ADVANCED_FACE('',(#80),#723,.T.);
#761=ADVANCED_FACE('',(#81,#20),#42,.T.);
#762=ADVANCED_FACE('',(#82,#21,#22,#23,#24,#25),#43,.F.);
#763=CLOSED_SHELL('',(#724,#725,#726,#727,#728,#729,#730,#731,#732,#733,
#734,#735,#736,#737,#738,#739,#740,#741,#742,#743,#744,#745,#746,#747,#748,
#749,#750,#751,#752,#753,#754,#755,#756,#757,#758,#759,#760,#761,#762));
#764=DERIVED_UNIT_ELEMENT(#766,1.);
#765=DERIVED_UNIT_ELEMENT(#1313,-3.);
#766=(
MASS_UNIT()
NAMED_UNIT(*)
SI_UNIT(.KILO.,.GRAM.)
);
#767=DERIVED_UNIT((#764,#765));
#768=MEASURE_REPRESENTATION_ITEM('density measure',
POSITIVE_RATIO_MEASURE(7850.),#767);
#769=PROPERTY_DEFINITION_REPRESENTATION(#774,#771);
#770=PROPERTY_DEFINITION_REPRESENTATION(#775,#772);
#771=REPRESENTATION('material name',(#773),#1310);
#772=REPRESENTATION('density',(#768),#1310);
#773=DESCRIPTIVE_REPRESENTATION_ITEM('\X2\94A2\X0\','\X2\94A2\X0\');
#774=PROPERTY_DEFINITION('material property','material name',#1320);
#775=PROPERTY_DEFINITION('material property','density of part',#1320);
#776=AXIS2_PLACEMENT_3D('',#1088,#858,#859);
#777=AXIS2_PLACEMENT_3D('',#1089,#860,#861);
#778=AXIS2_PLACEMENT_3D('',#1091,#862,#863);
#779=AXIS2_PLACEMENT_3D('',#1094,#865,#866);
#780=AXIS2_PLACEMENT_3D('',#1095,#867,#868);
#781=AXIS2_PLACEMENT_3D('',#1097,#869,#870);
#782=AXIS2_PLACEMENT_3D('',#1100,#872,#873);
#783=AXIS2_PLACEMENT_3D('',#1101,#874,#875);
#784=AXIS2_PLACEMENT_3D('',#1103,#876,#877);
#785=AXIS2_PLACEMENT_3D('',#1106,#879,#880);
#786=AXIS2_PLACEMENT_3D('',#1107,#881,#882);
#787=AXIS2_PLACEMENT_3D('',#1109,#883,#884);
#788=AXIS2_PLACEMENT_3D('',#1112,#886,#887);
#789=AXIS2_PLACEMENT_3D('',#1113,#888,#889);
#790=AXIS2_PLACEMENT_3D('',#1115,#890,#891);
#791=AXIS2_PLACEMENT_3D('',#1118,#893,#894);
#792=AXIS2_PLACEMENT_3D('',#1119,#895,#896);
#793=AXIS2_PLACEMENT_3D('',#1121,#897,#898);
#794=AXIS2_PLACEMENT_3D('',#1122,#899,#900);
#795=AXIS2_PLACEMENT_3D('',#1124,#901,#902);
#796=AXIS2_PLACEMENT_3D('',#1126,#904,#905);
#797=AXIS2_PLACEMENT_3D('',#1135,#910,#911);
#798=AXIS2_PLACEMENT_3D('',#1137,#912,#913);
#799=AXIS2_PLACEMENT_3D('',#1139,#914,#915);
#800=AXIS2_PLACEMENT_3D('',#1141,#917,#918);
#801=AXIS2_PLACEMENT_3D('',#1147,#922,#923);
#802=AXIS2_PLACEMENT_3D('',#1149,#924,#925);
#803=AXIS2_PLACEMENT_3D('',#1151,#926,#927);
#804=AXIS2_PLACEMENT_3D('',#1153,#929,#930);
#805=AXIS2_PLACEMENT_3D('',#1159,#934,#935);
#806=AXIS2_PLACEMENT_3D('',#1161,#936,#937);
#807=AXIS2_PLACEMENT_3D('',#1163,#938,#939);
#808=AXIS2_PLACEMENT_3D('',#1165,#941,#942);
#809=AXIS2_PLACEMENT_3D('',#1171,#946,#947);
#810=AXIS2_PLACEMENT_3D('',#1173,#948,#949);
#811=AXIS2_PLACEMENT_3D('',#1175,#950,#951);
#812=AXIS2_PLACEMENT_3D('',#1177,#953,#954);
#813=AXIS2_PLACEMENT_3D('',#1183,#958,#959);
#814=AXIS2_PLACEMENT_3D('',#1185,#960,#961);
#815=AXIS2_PLACEMENT_3D('',#1187,#962,#963);
#816=AXIS2_PLACEMENT_3D('',#1189,#965,#966);
#817=AXIS2_PLACEMENT_3D('',#1195,#970,#971);
#818=AXIS2_PLACEMENT_3D('',#1197,#972,#973);
#819=AXIS2_PLACEMENT_3D('',#1199,#974,#975);
#820=AXIS2_PLACEMENT_3D('',#1201,#977,#978);
#821=AXIS2_PLACEMENT_3D('',#1207,#982,#983);
#822=AXIS2_PLACEMENT_3D('',#1209,#984,#985);
#823=AXIS2_PLACEMENT_3D('',#1211,#986,#987);
#824=AXIS2_PLACEMENT_3D('',#1213,#989,#990);
#825=AXIS2_PLACEMENT_3D('',#1219,#994,#995);
#826=AXIS2_PLACEMENT_3D('',#1221,#996,#997);
#827=AXIS2_PLACEMENT_3D('',#1223,#998,#999);
#828=AXIS2_PLACEMENT_3D('',#1225,#1001,#1002);
#829=AXIS2_PLACEMENT_3D('',#1231,#1006,#1007);
#830=AXIS2_PLACEMENT_3D('',#1233,#1008,#1009);
#831=AXIS2_PLACEMENT_3D('',#1235,#1010,#1011);
#832=AXIS2_PLACEMENT_3D('',#1237,#1013,#1014);
#833=AXIS2_PLACEMENT_3D('',#1243,#1018,#1019);
#834=AXIS2_PLACEMENT_3D('',#1245,#1020,#1021);
#835=AXIS2_PLACEMENT_3D('',#1247,#1022,#1023);
#836=AXIS2_PLACEMENT_3D('',#1249,#1025,#1026);
#837=AXIS2_PLACEMENT_3D('',#1255,#1030,#1031);
#838=AXIS2_PLACEMENT_3D('',#1257,#1032,#1033);
#839=AXIS2_PLACEMENT_3D('',#1259,#1034,#1035);
#840=AXIS2_PLACEMENT_3D('',#1261,#1037,#1038);
#841=AXIS2_PLACEMENT_3D('',#1267,#1042,#1043);
#842=AXIS2_PLACEMENT_3D('',#1269,#1044,#1045);
#843=AXIS2_PLACEMENT_3D('',#1271,#1046,#1047);
#844=AXIS2_PLACEMENT_3D('',#1273,#1049,#1050);
#845=AXIS2_PLACEMENT_3D('',#1279,#1054,#1055);
#846=AXIS2_PLACEMENT_3D('',#1281,#1056,#1057);
#847=AXIS2_PLACEMENT_3D('',#1283,#1058,#1059);
#848=AXIS2_PLACEMENT_3D('',#1285,#1061,#1062);
#849=AXIS2_PLACEMENT_3D('',#1291,#1066,#1067);
#850=AXIS2_PLACEMENT_3D('',#1293,#1068,#1069);
#851=AXIS2_PLACEMENT_3D('',#1295,#1070,#1071);
#852=AXIS2_PLACEMENT_3D('',#1297,#1073,#1074);
#853=AXIS2_PLACEMENT_3D('',#1303,#1078,#1079);
#854=AXIS2_PLACEMENT_3D('',#1304,#1080,#1081);
#855=AXIS2_PLACEMENT_3D('',#1305,#1082,#1083);
#856=AXIS2_PLACEMENT_3D('',#1306,#1084,#1085);
#857=AXIS2_PLACEMENT_3D('',#1307,#1086,#1087);
#858=DIRECTION('axis',(0.,0.,1.));
#859=DIRECTION('refdir',(1.,0.,0.));
#860=DIRECTION('center_axis',(0.,1.,0.));
#861=DIRECTION('ref_axis',(1.,0.,0.));
#862=DIRECTION('center_axis',(0.,-1.,0.));
#863=DIRECTION('ref_axis',(1.,0.,0.));
#864=DIRECTION('',(0.,-1.,0.));
#865=DIRECTION('center_axis',(0.,-1.,0.));
#866=DIRECTION('ref_axis',(1.,0.,0.));
#867=DIRECTION('center_axis',(0.,1.,0.));
#868=DIRECTION('ref_axis',(1.,0.,0.));
#869=DIRECTION('center_axis',(0.,-1.,0.));
#870=DIRECTION('ref_axis',(1.,0.,0.));
#871=DIRECTION('',(0.,-1.,0.));
#872=DIRECTION('center_axis',(0.,-1.,0.));
#873=DIRECTION('ref_axis',(1.,0.,0.));
#874=DIRECTION('center_axis',(0.,1.,0.));
#875=DIRECTION('ref_axis',(1.,0.,0.));
#876=DIRECTION('center_axis',(0.,-1.,0.));
#877=DIRECTION('ref_axis',(1.,0.,0.));
#878=DIRECTION('',(0.,-1.,0.));
#879=DIRECTION('center_axis',(0.,-1.,0.));
#880=DIRECTION('ref_axis',(1.,0.,0.));
#881=DIRECTION('center_axis',(0.,1.,0.));
#882=DIRECTION('ref_axis',(1.,0.,0.));
#883=DIRECTION('center_axis',(0.,-1.,0.));
#884=DIRECTION('ref_axis',(1.,0.,0.));
#885=DIRECTION('',(0.,-1.,0.));
#886=DIRECTION('center_axis',(0.,-1.,0.));
#887=DIRECTION('ref_axis',(1.,0.,0.));
#888=DIRECTION('center_axis',(0.,1.,0.));
#889=DIRECTION('ref_axis',(1.,0.,0.));
#890=DIRECTION('center_axis',(0.,-1.,0.));
#891=DIRECTION('ref_axis',(1.,0.,0.));
#892=DIRECTION('',(0.,-1.,0.));
#893=DIRECTION('center_axis',(0.,-1.,0.));
#894=DIRECTION('ref_axis',(1.,0.,0.));
#895=DIRECTION('center_axis',(0.,1.,0.));
#896=DIRECTION('ref_axis',(1.,0.,0.));
#897=DIRECTION('center_axis',(0.,-1.,0.));
#898=DIRECTION('ref_axis',(1.,0.,0.));
#899=DIRECTION('center_axis',(0.,1.,0.));
#900=DIRECTION('ref_axis',(1.,0.,0.));
#901=DIRECTION('center_axis',(0.,-1.,0.));
#902=DIRECTION('ref_axis',(1.,0.,0.));
#903=DIRECTION('',(0.,-1.,0.));
#904=DIRECTION('center_axis',(-0.309016994374947,0.,-0.951056516295154));
#905=DIRECTION('ref_axis',(-0.951056516295154,0.,0.309016994374947));
#906=DIRECTION('',(-0.951056516295154,0.,0.309016994374947));
#907=DIRECTION('',(0.,1.,0.));
#908=DIRECTION('',(-0.951056516295154,0.,0.309016994374947));
#909=DIRECTION('',(0.,1.,0.));
#910=DIRECTION('center_axis',(0.,1.,0.));
#911=DIRECTION('ref_axis',(-0.951056516295154,0.,-0.309016994374948));
#912=DIRECTION('center_axis',(0.,1.,0.));
#913=DIRECTION('ref_axis',(1.,0.,0.));
#914=DIRECTION('center_axis',(0.,1.,0.));
#915=DIRECTION('ref_axis',(1.,0.,0.));
#916=DIRECTION('',(0.,1.,0.));
#917=DIRECTION('center_axis',(-0.809016994374949,0.,0.587785252292471));
#918=DIRECTION('ref_axis',(0.587785252292471,0.,0.809016994374949));
#919=DIRECTION('',(0.587785252292471,0.,0.809016994374949));
#920=DIRECTION('',(0.587785252292471,0.,0.809016994374949));
#921=DIRECTION('',(0.,1.,0.));
#922=DIRECTION('center_axis',(0.,1.,0.));
#923=DIRECTION('ref_axis',(-0.587785252292468,0.,-0.809016994374951));
#924=DIRECTION('center_axis',(0.,1.,0.));
#925=DIRECTION('ref_axis',(-0.587785252292468,0.,-0.809016994374951));
#926=DIRECTION('center_axis',(0.,1.,0.));
#927=DIRECTION('ref_axis',(-0.587785252292468,0.,-0.809016994374951));
#928=DIRECTION('',(0.,1.,0.));
#929=DIRECTION('center_axis',(-0.587785252292473,0.,-0.809016994374948));
#930=DIRECTION('ref_axis',(-0.809016994374948,0.,0.587785252292472));
#931=DIRECTION('',(-0.809016994374948,0.,0.587785252292472));
#932=DIRECTION('',(-0.809016994374948,0.,0.587785252292472));
#933=DIRECTION('',(0.,1.,0.));
#934=DIRECTION('center_axis',(0.,1.,0.));
#935=DIRECTION('ref_axis',(0.80901699437495,0.,-0.587785252292469));
#936=DIRECTION('center_axis',(0.,1.,0.));
#937=DIRECTION('ref_axis',(0.80901699437495,0.,-0.587785252292469));
#938=DIRECTION('center_axis',(0.,1.,0.));
#939=DIRECTION('ref_axis',(0.80901699437495,0.,-0.587785252292469));
#940=DIRECTION('',(0.,1.,0.));
#941=DIRECTION('center_axis',(0.809016994374949,0.,-0.58778525229247));
#942=DIRECTION('ref_axis',(-0.58778525229247,0.,-0.809016994374949));
#943=DIRECTION('',(-0.58778525229247,0.,-0.809016994374949));
#944=DIRECTION('',(-0.58778525229247,0.,-0.809016994374949));
#945=DIRECTION('',(0.,1.,0.));
#946=DIRECTION('center_axis',(0.,1.,0.));
#947=DIRECTION('ref_axis',(1.,0.,0.));
#948=DIRECTION('center_axis',(0.,1.,0.));
#949=DIRECTION('ref_axis',(1.,0.,0.));
#950=DIRECTION('center_axis',(0.,1.,0.));
#951=DIRECTION('ref_axis',(1.,0.,0.));
#952=DIRECTION('',(0.,1.,0.));
#953=DIRECTION('center_axis',(-0.80901699437495,0.,-0.58778525229247));
#954=DIRECTION('ref_axis',(-0.58778525229247,0.,0.80901699437495));
#955=DIRECTION('',(-0.58778525229247,0.,0.80901699437495));
#956=DIRECTION('',(-0.58778525229247,0.,0.80901699437495));
#957=DIRECTION('',(0.,1.,0.));
#958=DIRECTION('center_axis',(0.,1.,0.));
#959=DIRECTION('ref_axis',(0.587785252292481,0.,-0.809016994374941));
#960=DIRECTION('center_axis',(0.,1.,0.));
#961=DIRECTION('ref_axis',(0.587785252292481,0.,-0.809016994374941));
#962=DIRECTION('center_axis',(0.,1.,0.));
#963=DIRECTION('ref_axis',(0.587785252292481,0.,-0.809016994374941));
#964=DIRECTION('',(0.,1.,0.));
#965=DIRECTION('center_axis',(0.587785252292471,0.,-0.809016994374949));
#966=DIRECTION('ref_axis',(-0.809016994374949,0.,-0.587785252292471));
#967=DIRECTION('',(-0.809016994374949,0.,-0.587785252292471));
#968=DIRECTION('',(-0.809016994374949,0.,-0.587785252292471));
#969=DIRECTION('',(0.,1.,0.));
#970=DIRECTION('center_axis',(0.,1.,0.));
#971=DIRECTION('ref_axis',(0.809016994374945,0.,0.587785252292476));
#972=DIRECTION('center_axis',(0.,1.,0.));
#973=DIRECTION('ref_axis',(0.809016994374945,0.,0.587785252292476));
#974=DIRECTION('center_axis',(0.,1.,0.));
#975=DIRECTION('ref_axis',(0.809016994374945,0.,0.587785252292476));
#976=DIRECTION('',(0.,1.,0.));
#977=DIRECTION('center_axis',(0.809016994374947,0.,0.587785252292474));
#978=DIRECTION('ref_axis',(0.587785252292474,0.,-0.809016994374947));
#979=DIRECTION('',(0.587785252292474,0.,-0.809016994374947));
#980=DIRECTION('',(0.587785252292474,0.,-0.809016994374947));
#981=DIRECTION('',(0.,1.,0.));
#982=DIRECTION('center_axis',(0.,1.,0.));
#983=DIRECTION('ref_axis',(1.,0.,0.));
#984=DIRECTION('center_axis',(0.,1.,0.));
#985=DIRECTION('ref_axis',(1.,0.,0.));
#986=DIRECTION('center_axis',(0.,1.,0.));
#987=DIRECTION('ref_axis',(1.,0.,0.));
#988=DIRECTION('',(0.,1.,0.));
#989=DIRECTION('center_axis',(0.309016994374947,0.,-0.951056516295154));
#990=DIRECTION('ref_axis',(-0.951056516295154,0.,-0.309016994374947));
#991=DIRECTION('',(-0.951056516295154,0.,-0.309016994374947));
#992=DIRECTION('',(-0.951056516295154,0.,-0.309016994374947));
#993=DIRECTION('',(0.,1.,0.));
#994=DIRECTION('center_axis',(0.,1.,0.));
#995=DIRECTION('ref_axis',(0.951056516295163,0.,0.309016994374917));
#996=DIRECTION('center_axis',(0.,1.,0.));
#997=DIRECTION('ref_axis',(0.951056516295163,0.,0.309016994374917));
#998=DIRECTION('center_axis',(0.,1.,0.));
#999=DIRECTION('ref_axis',(0.951056516295163,0.,0.309016994374917));
#1000=DIRECTION('',(0.,1.,0.));
#1001=DIRECTION('center_axis',(0.951056516295154,0.,0.309016994374946));
#1002=DIRECTION('ref_axis',(0.309016994374946,0.,-0.951056516295154));
#1003=DIRECTION('',(0.309016994374946,0.,-0.951056516295154));
#1004=DIRECTION('',(0.309016994374946,0.,-0.951056516295154));
#1005=DIRECTION('',(0.,1.,0.));
#1006=DIRECTION('center_axis',(0.,1.,0.));
#1007=DIRECTION('ref_axis',(-0.309016994374948,0.,0.951056516295154));
#1008=DIRECTION('center_axis',(0.,1.,0.));
#1009=DIRECTION('ref_axis',(-0.309016994374948,0.,0.951056516295154));
#1010=DIRECTION('center_axis',(0.,1.,0.));
#1011=DIRECTION('ref_axis',(-0.309016994374948,0.,0.951056516295154));
#1012=DIRECTION('',(0.,1.,0.));
#1013=DIRECTION('center_axis',(-0.309016994374947,0.,0.951056516295154));
#1014=DIRECTION('ref_axis',(0.951056516295154,0.,0.309016994374947));
#1015=DIRECTION('',(0.951056516295154,0.,0.309016994374947));
#1016=DIRECTION('',(0.951056516295154,0.,0.309016994374947));
#1017=DIRECTION('',(0.,1.,0.));
#1018=DIRECTION('center_axis',(0.,1.,0.));
#1019=DIRECTION('ref_axis',(1.,0.,0.));
#1020=DIRECTION('center_axis',(0.,1.,0.));
#1021=DIRECTION('ref_axis',(1.,0.,0.));
#1022=DIRECTION('center_axis',(0.,1.,0.));
#1023=DIRECTION('ref_axis',(1.,0.,0.));
#1024=DIRECTION('',(0.,1.,0.));
#1025=DIRECTION('center_axis',(1.,0.,-7.93731778929372E-16));
#1026=DIRECTION('ref_axis',(-7.93731778929372E-16,0.,-1.));
#1027=DIRECTION('',(-7.93731778929372E-16,0.,-1.));
#1028=DIRECTION('',(-7.93731778929372E-16,0.,-1.));
#1029=DIRECTION('',(0.,1.,0.));
#1030=DIRECTION('center_axis',(0.,1.,0.));
#1031=DIRECTION('ref_axis',(1.38777878078145E-16,0.,1.));
#1032=DIRECTION('center_axis',(0.,1.,0.));
#1033=DIRECTION('ref_axis',(1.38777878078145E-16,0.,1.));
#1034=DIRECTION('center_axis',(0.,1.,0.));
#1035=DIRECTION('ref_axis',(1.38777878078145E-16,0.,1.));
#1036=DIRECTION('',(0.,1.,0.));
#1037=DIRECTION('center_axis',(0.,0.,1.));
#1038=DIRECTION('ref_axis',(1.,0.,0.));
#1039=DIRECTION('',(1.,0.,0.));
#1040=DIRECTION('',(1.,0.,0.));
#1041=DIRECTION('',(0.,1.,0.));
#1042=DIRECTION('center_axis',(0.,1.,0.));
#1043=DIRECTION('ref_axis',(-1.,0.,0.));
#1044=DIRECTION('center_axis',(0.,1.,0.));
#1045=DIRECTION('ref_axis',(-1.,0.,0.));
#1046=DIRECTION('center_axis',(0.,1.,0.));
#1047=DIRECTION('ref_axis',(-1.,0.,0.));
#1048=DIRECTION('',(0.,1.,0.));
#1049=DIRECTION('center_axis',(-1.,0.,1.58746355785874E-16));
#1050=DIRECTION('ref_axis',(1.58746355785874E-16,0.,1.));
#1051=DIRECTION('',(1.58746355785874E-16,0.,1.));
#1052=DIRECTION('',(1.58746355785874E-16,0.,1.));
#1053=DIRECTION('',(0.,1.,0.));
#1054=DIRECTION('center_axis',(0.,1.,0.));
#1055=DIRECTION('ref_axis',(1.,0.,0.));
#1056=DIRECTION('center_axis',(0.,1.,0.));
#1057=DIRECTION('ref_axis',(1.,0.,0.));
#1058=DIRECTION('center_axis',(0.,1.,0.));
#1059=DIRECTION('ref_axis',(1.,0.,0.));
#1060=DIRECTION('',(0.,1.,0.));
#1061=DIRECTION('center_axis',(0.309016994374947,0.,0.951056516295154));
#1062=DIRECTION('ref_axis',(0.951056516295154,0.,-0.309016994374947));
#1063=DIRECTION('',(0.951056516295154,0.,-0.309016994374947));
#1064=DIRECTION('',(0.951056516295154,0.,-0.309016994374947));
#1065=DIRECTION('',(0.,1.,0.));
#1066=DIRECTION('center_axis',(0.,1.,0.));
#1067=DIRECTION('ref_axis',(-0.951056516295154,0.,0.309016994374946));
#1068=DIRECTION('center_axis',(0.,1.,0.));
#1069=DIRECTION('ref_axis',(-0.951056516295154,0.,0.309016994374946));
#1070=DIRECTION('center_axis',(0.,1.,0.));
#1071=DIRECTION('ref_axis',(-0.951056516295154,0.,0.309016994374946));
#1072=DIRECTION('',(0.,1.,0.));
#1073=DIRECTION('center_axis',(-0.951056516295154,0.,0.309016994374947));
#1074=DIRECTION('ref_axis',(0.309016994374947,0.,0.951056516295154));
#1075=DIRECTION('',(0.309016994374947,0.,0.951056516295154));
#1076=DIRECTION('',(0.309016994374947,0.,0.951056516295154));
#1077=DIRECTION('',(0.,1.,0.));
#1078=DIRECTION('center_axis',(0.,1.,0.));
#1079=DIRECTION('ref_axis',(-0.309016994374948,0.,-0.951056516295154));
#1080=DIRECTION('center_axis',(0.,1.,0.));
#1081=DIRECTION('ref_axis',(-0.309016994374948,0.,-0.951056516295154));
#1082=DIRECTION('center_axis',(0.,1.,0.));
#1083=DIRECTION('ref_axis',(-0.309016994374948,0.,-0.951056516295154));
#1084=DIRECTION('center_axis',(0.,1.,0.));
#1085=DIRECTION('ref_axis',(1.,0.,0.));
#1086=DIRECTION('center_axis',(0.,1.,0.));
#1087=DIRECTION('ref_axis',(1.,0.,0.));
#1088=CARTESIAN_POINT('',(0.,0.,0.));
#1089=CARTESIAN_POINT('Origin',(8.00000011920929,0.,0.));
#1090=CARTESIAN_POINT('',(6.75000011920929,2.5,1.53080849893419E-16));
#1091=CARTESIAN_POINT('Origin',(8.00000011920929,2.5,0.));
#1092=CARTESIAN_POINT('',(6.75000011920929,0.,1.53080849893419E-16));
#1093=CARTESIAN_POINT('',(6.75000011920929,0.,1.53080849893419E-16));
#1094=CARTESIAN_POINT('Origin',(8.00000011920929,0.,0.));
#1095=CARTESIAN_POINT('Origin',(0.,0.,-8.00000011920929));
#1096=CARTESIAN_POINT('',(-1.25,2.5,-8.00000011920929));
#1097=CARTESIAN_POINT('Origin',(0.,2.5,-8.00000011920929));
#1098=CARTESIAN_POINT('',(-1.25,0.,-8.00000011920929));
#1099=CARTESIAN_POINT('',(-1.25,0.,-8.00000011920929));
#1100=CARTESIAN_POINT('Origin',(0.,0.,-8.00000011920929));
#1101=CARTESIAN_POINT('Origin',(-8.00000011920929,0.,0.));
#1102=CARTESIAN_POINT('',(-9.25000011920929,2.5,1.53080849893419E-16));
#1103=CARTESIAN_POINT('Origin',(-8.00000011920929,2.5,0.));
#1104=CARTESIAN_POINT('',(-9.25000011920929,0.,1.53080849893419E-16));
#1105=CARTESIAN_POINT('',(-9.25000011920929,0.,1.53080849893419E-16));
#1106=CARTESIAN_POINT('Origin',(-8.00000011920929,0.,0.));
#1107=CARTESIAN_POINT('Origin',(0.,0.,8.00000011920929));
#1108=CARTESIAN_POINT('',(-1.25,2.5,8.00000011920929));
#1109=CARTESIAN_POINT('Origin',(0.,2.5,8.00000011920929));
#1110=CARTESIAN_POINT('',(-1.25,0.,8.00000011920929));
#1111=CARTESIAN_POINT('',(-1.25,0.,8.00000011920929));
#1112=CARTESIAN_POINT('Origin',(0.,0.,8.00000011920929));
#1113=CARTESIAN_POINT('Origin',(0.,0.,0.));
#1114=CARTESIAN_POINT('',(-3.25,2.5,3.9801020972289E-16));
#1115=CARTESIAN_POINT('Origin',(0.,2.5,0.));
#1116=CARTESIAN_POINT('',(-3.25,0.,3.9801020972289E-16));
#1117=CARTESIAN_POINT('',(-3.25,0.,3.9801020972289E-16));
#1118=CARTESIAN_POINT('Origin',(0.,0.,0.));
#1119=CARTESIAN_POINT('Origin',(0.,2.5,0.));
#1120=CARTESIAN_POINT('',(-17.4,2.5,2.13088543051639E-15));
#1121=CARTESIAN_POINT('Origin',(0.,2.5,0.));
#1122=CARTESIAN_POINT('Origin',(0.,0.,0.));
#1123=CARTESIAN_POINT('',(-17.4,13.,2.13088543051639E-15));
#1124=CARTESIAN_POINT('Origin',(0.,13.,0.));
#1125=CARTESIAN_POINT('',(-17.4,0.,2.13088543051639E-15));
#1126=CARTESIAN_POINT('Origin',(-18.0077437390092,0.,4.85218151249254));
#1127=CARTESIAN_POINT('',(-18.0077437390092,0.,4.85218151249254));
#1128=CARTESIAN_POINT('',(-18.8391682124117,0.,5.12232769983108));
#1129=CARTESIAN_POINT('',(-18.0077437390092,0.,4.85218151249254));
#1130=CARTESIAN_POINT('',(-18.8391682124117,13.,5.12232769983108));
#1131=CARTESIAN_POINT('',(-18.8391682124117,0.,5.12232769983108));
#1132=CARTESIAN_POINT('',(-18.0077437390092,13.,4.85218151249254));
#1133=CARTESIAN_POINT('',(-18.0077437390092,13.,4.85218151249254));
#1134=CARTESIAN_POINT('',(-18.0077437390092,0.,4.85218151249254));
#1135=CARTESIAN_POINT('Origin',(0.,0.,0.));
#1136=CARTESIAN_POINT('',(-11.7165299807182,0.,-14.5101835002501));
#1137=CARTESIAN_POINT('Origin',(0.,0.,0.));
#1138=CARTESIAN_POINT('',(-11.7165299807182,13.,-14.5101835002501));
#1139=CARTESIAN_POINT('Origin',(0.,13.,0.));
#1140=CARTESIAN_POINT('',(-11.7165299807182,0.,-14.5101835002501));
#1141=CARTESIAN_POINT('Origin',(-12.2303785643594,0.,-15.2174354006336));
#1142=CARTESIAN_POINT('',(-12.2303785643594,0.,-15.2174354006336));
#1143=CARTESIAN_POINT('',(-12.2303785643594,0.,-15.2174354006336));
#1144=CARTESIAN_POINT('',(-12.2303785643594,13.,-15.2174354006336));
#1145=CARTESIAN_POINT('',(-12.2303785643594,13.,-15.2174354006336));
#1146=CARTESIAN_POINT('',(-12.2303785643594,0.,-15.2174354006336));
#1147=CARTESIAN_POINT('Origin',(-11.825870067172,0.,-15.5113280267799));
#1148=CARTESIAN_POINT('',(-12.1197626933182,0.,-15.9158365239673));
#1149=CARTESIAN_POINT('Origin',(-11.825870067172,0.,-15.5113280267799));
#1150=CARTESIAN_POINT('',(-12.1197626933182,13.,-15.9158365239673));
#1151=CARTESIAN_POINT('Origin',(-11.825870067172,13.,-15.5113280267799));
#1152=CARTESIAN_POINT('',(-12.1197626933182,0.,-15.9158365239673));
#1153=CARTESIAN_POINT('Origin',(-11.3916473983807,0.,-16.4448432510306));
#1154=CARTESIAN_POINT('',(-11.3916473983807,0.,-16.4448432510306));
#1155=CARTESIAN_POINT('',(-11.3916473983807,0.,-16.4448432510306));
#1156=CARTESIAN_POINT('',(-11.3916473983807,13.,-16.4448432510306));
#1157=CARTESIAN_POINT('',(-11.3916473983807,13.,-16.4448432510306));
#1158=CARTESIAN_POINT('',(-11.3916473983807,0.,-16.4448432510306));
#1159=CARTESIAN_POINT('Origin',(-11.0977547722345,0.,-16.0403347538431));
#1160=CARTESIAN_POINT('',(-10.693246275047,0.,-16.3342273799893));
#1161=CARTESIAN_POINT('Origin',(-11.0977547722345,0.,-16.0403347538431));
#1162=CARTESIAN_POINT('',(-10.693246275047,13.,-16.3342273799893));
#1163=CARTESIAN_POINT('Origin',(-11.0977547722345,13.,-16.0403347538431));
#1164=CARTESIAN_POINT('',(-10.693246275047,0.,-16.3342273799893));
#1165=CARTESIAN_POINT('Origin',(-10.1793976914058,0.,-15.6269754796058));
#1166=CARTESIAN_POINT('',(-10.1793976914058,0.,-15.6269754796058));
#1167=CARTESIAN_POINT('',(-10.1793976914058,0.,-15.6269754796058));
#1168=CARTESIAN_POINT('',(-10.1793976914058,13.,-15.6269754796058));
#1169=CARTESIAN_POINT('',(-10.1793976914058,13.,-15.6269754796058));
#1170=CARTESIAN_POINT('',(-10.1793976914058,0.,-15.6269754796058));
#1171=CARTESIAN_POINT('Origin',(0.,0.,0.));
#1172=CARTESIAN_POINT('',(10.1793976914058,0.,-15.6269754796058));
#1173=CARTESIAN_POINT('Origin',(0.,0.,0.));
#1174=CARTESIAN_POINT('',(10.1793976914058,13.,-15.6269754796058));
#1175=CARTESIAN_POINT('Origin',(0.,13.,0.));
#1176=CARTESIAN_POINT('',(10.1793976914058,0.,-15.6269754796058));
#1177=CARTESIAN_POINT('Origin',(10.693246275047,0.,-16.3342273799893));
#1178=CARTESIAN_POINT('',(10.693246275047,0.,-16.3342273799893));
#1179=CARTESIAN_POINT('',(10.693246275047,0.,-16.3342273799893));
#1180=CARTESIAN_POINT('',(10.693246275047,13.,-16.3342273799893));
#1181=CARTESIAN_POINT('',(10.693246275047,13.,-16.3342273799893));
#1182=CARTESIAN_POINT('',(10.693246275047,0.,-16.3342273799893));
#1183=CARTESIAN_POINT('Origin',(11.0977547722345,0.,-16.0403347538431));
#1184=CARTESIAN_POINT('',(11.3916473983807,0.,-16.4448432510306));
#1185=CARTESIAN_POINT('Origin',(11.0977547722345,0.,-16.0403347538431));
#1186=CARTESIAN_POINT('',(11.3916473983807,13.,-16.4448432510306));
#1187=CARTESIAN_POINT('Origin',(11.0977547722345,13.,-16.0403347538431));
#1188=CARTESIAN_POINT('',(11.3916473983807,0.,-16.4448432510306));
#1189=CARTESIAN_POINT('Origin',(12.1197626933182,0.,-15.9158365239673));
#1190=CARTESIAN_POINT('',(12.1197626933182,0.,-15.9158365239673));
#1191=CARTESIAN_POINT('',(12.1197626933182,0.,-15.9158365239673));
#1192=CARTESIAN_POINT('',(12.1197626933182,13.,-15.9158365239673));
#1193=CARTESIAN_POINT('',(12.1197626933182,13.,-15.9158365239673));
#1194=CARTESIAN_POINT('',(12.1197626933182,0.,-15.9158365239673));
#1195=CARTESIAN_POINT('Origin',(11.825870067172,0.,-15.5113280267799));
#1196=CARTESIAN_POINT('',(12.2303785643594,0.,-15.2174354006336));
#1197=CARTESIAN_POINT('Origin',(11.825870067172,0.,-15.5113280267799));
#1198=CARTESIAN_POINT('',(12.2303785643594,13.,-15.2174354006336));
#1199=CARTESIAN_POINT('Origin',(11.825870067172,13.,-15.5113280267799));
#1200=CARTESIAN_POINT('',(12.2303785643594,0.,-15.2174354006336));
#1201=CARTESIAN_POINT('Origin',(11.7165299807182,0.,-14.5101835002501));
#1202=CARTESIAN_POINT('',(11.7165299807182,0.,-14.5101835002501));
#1203=CARTESIAN_POINT('',(11.7165299807182,0.,-14.5101835002501));
#1204=CARTESIAN_POINT('',(11.7165299807182,13.,-14.5101835002501));
#1205=CARTESIAN_POINT('',(11.7165299807182,13.,-14.5101835002501));
#1206=CARTESIAN_POINT('',(11.7165299807182,0.,-14.5101835002501));
#1207=CARTESIAN_POINT('Origin',(0.,0.,0.));
#1208=CARTESIAN_POINT('',(18.0077437390092,0.,4.85218151249254));
#1209=CARTESIAN_POINT('Origin',(0.,0.,0.));
#1210=CARTESIAN_POINT('',(18.0077437390092,13.,4.85218151249254));
#1211=CARTESIAN_POINT('Origin',(0.,13.,0.));
#1212=CARTESIAN_POINT('',(18.0077437390092,0.,4.85218151249254));
#1213=CARTESIAN_POINT('Origin',(18.8391682124117,0.,5.12232769983108));
#1214=CARTESIAN_POINT('',(18.8391682124117,0.,5.12232769983108));
#1215=CARTESIAN_POINT('',(18.8391682124117,0.,5.12232769983108));
#1216=CARTESIAN_POINT('',(18.8391682124117,13.,5.12232769983108));
#1217=CARTESIAN_POINT('',(18.8391682124117,13.,5.12232769983108));
#1218=CARTESIAN_POINT('',(18.8391682124117,0.,5.12232769983108));
#1219=CARTESIAN_POINT('Origin',(18.6846597152242,0.,5.59785595797867));
#1220=CARTESIAN_POINT('',(19.1601879733718,0.,5.75236445516613));
#1221=CARTESIAN_POINT('Origin',(18.6846597152242,0.,5.59785595797867));
#1222=CARTESIAN_POINT('',(19.1601879733718,13.,5.75236445516613));
#1223=CARTESIAN_POINT('Origin',(18.6846597152242,13.,5.59785595797867));
#1224=CARTESIAN_POINT('',(19.1601879733718,0.,5.75236445516613));
#1225=CARTESIAN_POINT('Origin',(18.8820726784343,0.,6.60831531983177));
#1226=CARTESIAN_POINT('',(18.8820726784343,0.,6.60831531983177));
#1227=CARTESIAN_POINT('',(18.8820726784343,0.,6.60831531983177));
#1228=CARTESIAN_POINT('',(18.8820726784343,13.,6.60831531983177));
#1229=CARTESIAN_POINT('',(18.8820726784343,13.,6.60831531983177));
#1230=CARTESIAN_POINT('',(18.8820726784343,0.,6.60831531983177));
#1231=CARTESIAN_POINT('Origin',(18.4065444202868,0.,6.4538068226443));
#1232=CARTESIAN_POINT('',(18.2520359230993,0.,6.92933508079187));
#1233=CARTESIAN_POINT('Origin',(18.4065444202868,0.,6.4538068226443));
#1234=CARTESIAN_POINT('',(18.2520359230993,13.,6.92933508079187));
#1235=CARTESIAN_POINT('Origin',(18.4065444202868,13.,6.4538068226443));
#1236=CARTESIAN_POINT('',(18.2520359230993,0.,6.92933508079187));
#1237=CARTESIAN_POINT('Origin',(17.4206114496968,0.,6.65918889345333));
#1238=CARTESIAN_POINT('',(17.4206114496968,0.,6.65918889345333));
#1239=CARTESIAN_POINT('',(17.4206114496968,0.,6.65918889345333));
#1240=CARTESIAN_POINT('',(17.4206114496968,13.,6.65918889345333));
#1241=CARTESIAN_POINT('',(17.4206114496968,13.,6.65918889345333));
#1242=CARTESIAN_POINT('',(17.4206114496968,0.,6.65918889345333));
#1243=CARTESIAN_POINT('Origin',(0.,0.,0.));
#1244=CARTESIAN_POINT('',(0.949999999999999,0.,18.6257885739101));
#1245=CARTESIAN_POINT('Origin',(0.,0.,0.));
#1246=CARTESIAN_POINT('',(0.95,13.,18.6257885739101));
#1247=CARTESIAN_POINT('Origin',(0.,13.,0.));
#1248=CARTESIAN_POINT('',(0.949999999999999,0.,18.6257885739101));
#1249=CARTESIAN_POINT('Origin',(0.95,0.,19.5));
#1250=CARTESIAN_POINT('',(0.95,0.,19.5));
#1251=CARTESIAN_POINT('',(0.95,0.,19.5));
#1252=CARTESIAN_POINT('',(0.95,13.,19.5));
#1253=CARTESIAN_POINT('',(0.95,13.,19.5));
#1254=CARTESIAN_POINT('',(0.95,0.,19.5));
#1255=CARTESIAN_POINT('Origin',(0.450000000000002,0.,19.5));
#1256=CARTESIAN_POINT('',(0.450000000000002,0.,20.));
#1257=CARTESIAN_POINT('Origin',(0.450000000000002,0.,19.5));
#1258=CARTESIAN_POINT('',(0.450000000000002,13.,20.));
#1259=CARTESIAN_POINT('Origin',(0.450000000000002,13.,19.5));
#1260=CARTESIAN_POINT('',(0.450000000000002,0.,20.));
#1261=CARTESIAN_POINT('Origin',(-0.450000000000002,0.,20.));
#1262=CARTESIAN_POINT('',(-0.450000000000002,0.,20.));
#1263=CARTESIAN_POINT('',(-0.450000000000002,0.,20.));
#1264=CARTESIAN_POINT('',(-0.450000000000002,13.,20.));
#1265=CARTESIAN_POINT('',(-0.450000000000002,13.,20.));
#1266=CARTESIAN_POINT('',(-0.450000000000002,0.,20.));
#1267=CARTESIAN_POINT('Origin',(-0.450000000000002,0.,19.5));
#1268=CARTESIAN_POINT('',(-0.95,0.,19.5));
#1269=CARTESIAN_POINT('Origin',(-0.450000000000002,0.,19.5));
#1270=CARTESIAN_POINT('',(-0.95,13.,19.5));
#1271=CARTESIAN_POINT('Origin',(-0.450000000000002,13.,19.5));
#1272=CARTESIAN_POINT('',(-0.95,0.,19.5));
#1273=CARTESIAN_POINT('Origin',(-0.95,0.,18.6257885739101));
#1274=CARTESIAN_POINT('',(-0.95,0.,18.6257885739101));
#1275=CARTESIAN_POINT('',(-0.95,0.,18.6257885739101));
#1276=CARTESIAN_POINT('',(-0.95,13.,18.6257885739101));
#1277=CARTESIAN_POINT('',(-0.95,13.,18.6257885739101));
#1278=CARTESIAN_POINT('',(-0.95,0.,18.6257885739101));
#1279=CARTESIAN_POINT('Origin',(0.,0.,0.));
#1280=CARTESIAN_POINT('',(-17.4206114496968,0.,6.65918889345333));
#1281=CARTESIAN_POINT('Origin',(0.,0.,0.));
#1282=CARTESIAN_POINT('',(-17.4206114496968,13.,6.65918889345333));
#1283=CARTESIAN_POINT('Origin',(0.,13.,0.));
#1284=CARTESIAN_POINT('',(-17.4206114496968,0.,6.65918889345333));
#1285=CARTESIAN_POINT('Origin',(-18.2520359230993,0.,6.92933508079187));
#1286=CARTESIAN_POINT('',(-18.2520359230993,0.,6.92933508079187));
#1287=CARTESIAN_POINT('',(-18.2520359230993,0.,6.92933508079187));
#1288=CARTESIAN_POINT('',(-18.2520359230993,13.,6.92933508079187));
#1289=CARTESIAN_POINT('',(-18.2520359230993,13.,6.92933508079187));
#1290=CARTESIAN_POINT('',(-18.2520359230993,0.,6.92933508079187));
#1291=CARTESIAN_POINT('Origin',(-18.4065444202868,0.,6.45380682264429));
#1292=CARTESIAN_POINT('',(-18.8820726784343,0.,6.60831531983177));
#1293=CARTESIAN_POINT('Origin',(-18.4065444202868,0.,6.45380682264429));
#1294=CARTESIAN_POINT('',(-18.8820726784343,13.,6.60831531983177));
#1295=CARTESIAN_POINT('Origin',(-18.4065444202868,13.,6.45380682264429));
#1296=CARTESIAN_POINT('',(-18.8820726784343,0.,6.60831531983177));
#1297=CARTESIAN_POINT('Origin',(-19.1601879733718,0.,5.75236445516612));
#1298=CARTESIAN_POINT('',(-19.1601879733718,0.,5.75236445516612));
#1299=CARTESIAN_POINT('',(-19.1601879733718,0.,5.75236445516612));
#1300=CARTESIAN_POINT('',(-19.1601879733718,13.,5.75236445516612));
#1301=CARTESIAN_POINT('',(-19.1601879733718,13.,5.75236445516612));
#1302=CARTESIAN_POINT('',(-19.1601879733718,0.,5.75236445516612));
#1303=CARTESIAN_POINT('Origin',(-18.6846597152242,0.,5.59785595797865));
#1304=CARTESIAN_POINT('Origin',(-18.6846597152242,0.,5.59785595797865));
#1305=CARTESIAN_POINT('Origin',(-18.6846597152242,13.,5.59785595797865));
#1306=CARTESIAN_POINT('Origin',(-4.44089209850063E-15,13.,0.674999999999999));
#1307=CARTESIAN_POINT('Origin',(-4.44089209850063E-15,0.,0.674999999999999));
#1308=UNCERTAINTY_MEASURE_WITH_UNIT(LENGTH_MEASURE(0.01),#1312,
'DISTANCE_ACCURACY_VALUE',
'Maximum model space distance between geometric entities at asserted c
onnectivities');
#1309=UNCERTAINTY_MEASURE_WITH_UNIT(LENGTH_MEASURE(0.01),#1312,
'DISTANCE_ACCURACY_VALUE',
'Maximum model space distance between geometric entities at asserted c
onnectivities');
#1310=(
GEOMETRIC_REPRESENTATION_CONTEXT(3)
GLOBAL_UNCERTAINTY_ASSIGNED_CONTEXT((#1308))
GLOBAL_UNIT_ASSIGNED_CONTEXT((#1312,#1314,#1315))
REPRESENTATION_CONTEXT('','3D')
);
#1311=(
GEOMETRIC_REPRESENTATION_CONTEXT(3)
GLOBAL_UNCERTAINTY_ASSIGNED_CONTEXT((#1309))
GLOBAL_UNIT_ASSIGNED_CONTEXT((#1312,#1314,#1315))
REPRESENTATION_CONTEXT('','3D')
);
#1312=(
LENGTH_UNIT()
NAMED_UNIT(*)
SI_UNIT(.MILLI.,.METRE.)
);
#1313=(
LENGTH_UNIT()
NAMED_UNIT(*)
SI_UNIT($,.METRE.)
);
#1314=(
NAMED_UNIT(*)
PLANE_ANGLE_UNIT()
SI_UNIT($,.RADIAN.)
);
#1315=(
NAMED_UNIT(*)
SI_UNIT($,.STERADIAN.)
SOLID_ANGLE_UNIT()
);
#1316=SHAPE_DEFINITION_REPRESENTATION(#1317,#1318);
#1317=PRODUCT_DEFINITION_SHAPE('',$,#1320);
#1318=SHAPE_REPRESENTATION('',(#776),#1310);
#1319=PRODUCT_DEFINITION_CONTEXT('part definition',#1324,'design');
#1320=PRODUCT_DEFINITION('MotorBase','MotorBase v8',#1321,#1319);
#1321=PRODUCT_DEFINITION_FORMATION('',$,#1326);
#1322=PRODUCT_RELATED_PRODUCT_CATEGORY('MotorBase v8','MotorBase v8',(#1326));
#1323=APPLICATION_PROTOCOL_DEFINITION('international standard',
'automotive_design',2009,#1324);
#1324=APPLICATION_CONTEXT(
'Core Data for Automotive Mechanical Design Process');
#1325=PRODUCT_CONTEXT('part definition',#1324,'mechanical');
#1326=PRODUCT('MotorBase','MotorBase v8',$,(#1325));
#1327=PRESENTATION_STYLE_ASSIGNMENT((#1329));
#1328=PRESENTATION_STYLE_ASSIGNMENT((#1330));
#1329=SURFACE_STYLE_USAGE(.BOTH.,#1331);
#1330=SURFACE_STYLE_USAGE(.BOTH.,#1332);
#1331=SURFACE_SIDE_STYLE('',(#1333));
#1332=SURFACE_SIDE_STYLE('',(#1334));
#1333=SURFACE_STYLE_FILL_AREA(#1335);
#1334=SURFACE_STYLE_FILL_AREA(#1336);
#1335=FILL_AREA_STYLE('\X2\94A2\X0\ - \X2\7F0E5149\X0\',(#1337));
#1336=FILL_AREA_STYLE('ABS(\X2\767D8272\X0\)',(#1338));
#1337=FILL_AREA_STYLE_COLOUR('\X2\94A2\X0\ - \X2\7F0E5149\X0\',#1339);
#1338=FILL_AREA_STYLE_COLOUR('ABS(\X2\767D8272\X0\)',#1340);
#1339=COLOUR_RGB('\X2\94A2\X0\ - \X2\7F0E5149\X0\',0.627450980392157,0.627450980392157,
0.627450980392157);
#1340=COLOUR_RGB('ABS(\X2\767D8272\X0\)',0.964705882352941,0.964705882352941,
0.952941176470588);
ENDSEC;
END-ISO-10303-21;
