ISO-10303-21;
HEADER;
/* Generated by software containing ST-Developer
 * from STEP Tools, Inc. (www.steptools.com) 
 */

FILE_DESCRIPTION(
/* description */ (''),
/* implementation_level */ '2;1');

FILE_NAME(
/* name */ 'MountBase_mod v17.step',
/* time_stamp */ '2024-11-09T16:54:52+08:00',
/* author */ (''),
/* organization */ (''),
/* preprocessor_version */ 'ST-DEVELOPER v20',
/* originating_system */ 'Autodesk Translation Framework v13.20.0.188',

/* authorisation */ '');

FILE_SCHEMA (('AUTOMOTIVE_DESIGN { 1 0 10303 214 3 1 1 }'));
ENDSEC;

DATA;
#10=MECHANICAL_DESIGN_GEOMETRIC_PRESENTATION_REPRESENTATION('',(#13,#14),
#1775);
#11=SHAPE_REPRESENTATION_RELATIONSHIP('SRR','None',#1782,#12);
#12=ADVANCED_BREP_SHAPE_REPRESENTATION('',(#15,#16),#1774);
#13=STYLED_ITEM('',(#1791),#15);
#14=STYLED_ITEM('',(#1791),#16);
#15=MANIFOLD_SOLID_BREP('\X2\5B9E4F53\X0\1',#930);
#16=MANIFOLD_SOLID_BREP('\X2\5B9E4F53\X0\4',#931);
#17=B_SPLINE_SURFACE_WITH_KNOTS('',3,3,((#1418,#1419,#1420,#1421,#1422,
#1423,#1424,#1425),(#1426,#1427,#1428,#1429,#1430,#1431,#1432,#1433),(#1434,
#1435,#1436,#1437,#1438,#1439,#1440,#1441),(#1442,#1443,#1444,#1445,#1446,
#1447,#1448,#1449)),.UNSPECIFIED.,.F.,.F.,.F.,(4,4),(4,1,1,1,1,4),(0.060625967912099,
1.),(-0.225862086670559,-0.220027285744802,-0.214192484819045,-0.202522882967531,
-0.190853281116017,-0.144174873709961),.UNSPECIFIED.);
#18=B_SPLINE_SURFACE_WITH_KNOTS('',3,3,((#1480,#1481,#1482,#1483,#1484,
#1485,#1486,#1487,#1488),(#1489,#1490,#1491,#1492,#1493,#1494,#1495,#1496,
#1497),(#1498,#1499,#1500,#1501,#1502,#1503,#1504,#1505,#1506),(#1507,#1508,
#1509,#1510,#1511,#1512,#1513,#1514,#1515)),.UNSPECIFIED.,.F.,.F.,.F.,(4,
4),(4,1,1,1,1,1,4),(0.0606259679148732,1.),(-0.146798961524073,-0.111761660682728,
-0.0884034601218302,-0.0767243598413816,-0.0708848097011573,-0.0679650346310451,
-0.0650452595609329),.UNSPECIFIED.);
#19=B_SPLINE_SURFACE_WITH_KNOTS('',3,3,((#1522,#1523,#1524,#1525,#1526,
#1527,#1528,#1529,#1530),(#1531,#1532,#1533,#1534,#1535,#1536,#1537,#1538,
#1539),(#1540,#1541,#1542,#1543,#1544,#1545,#1546,#1547,#1548),(#1549,#1550,
#1551,#1552,#1553,#1554,#1555,#1556,#1557)),.UNSPECIFIED.,.F.,.F.,.F.,(4,
4),(4,1,1,1,1,1,4),(0.0606259679148679,1.),(-0.146798982424118,-0.111761670133751,
-0.0884034619401725,-0.0767243578433835,-0.0708848057949889,-0.0679650297707917,
-0.0650452537465944),.UNSPECIFIED.);
#20=B_SPLINE_SURFACE_WITH_KNOTS('',3,3,((#1568,#1569,#1570,#1571,#1572,
#1573,#1574,#1575,#1576),(#1577,#1578,#1579,#1580,#1581,#1582,#1583,#1584,
#1585),(#1586,#1587,#1588,#1589,#1590,#1591,#1592,#1593,#1594),(#1595,#1596,
#1597,#1598,#1599,#1600,#1601,#1602,#1603)),.UNSPECIFIED.,.F.,.F.,.F.,(4,
4),(4,1,1,1,1,1,4),(0.0606259679122273,1.),(-0.225862073401565,-0.220027274958655,
-0.214192476515745,-0.208357678072836,-0.202522879629926,-0.190853282744107,
-0.14417489520083),.UNSPECIFIED.);
#21=TOROIDAL_SURFACE('',#961,3.2,0.65);
#22=TOROIDAL_SURFACE('',#970,3.2,0.65);
#23=CYLINDRICAL_SURFACE('',#958,2.75);
#24=CYLINDRICAL_SURFACE('',#968,2.55);
#25=CYLINDRICAL_SURFACE('',#973,2.55);
#26=CYLINDRICAL_SURFACE('',#977,1.5);
#27=CYLINDRICAL_SURFACE('',#980,6.25);
#28=CYLINDRICAL_SURFACE('',#983,21.5);
#29=CYLINDRICAL_SURFACE('',#997,15.);
#30=CYLINDRICAL_SURFACE('',#999,13.);
#31=CYLINDRICAL_SURFACE('',#1004,0.900000000000001);
#32=CYLINDRICAL_SURFACE('',#1006,0.9);
#33=CYLINDRICAL_SURFACE('',#1008,0.9);
#34=CYLINDRICAL_SURFACE('',#1010,1.5);
#35=CYLINDRICAL_SURFACE('',#1013,1.25);
#36=CYLINDRICAL_SURFACE('',#1017,1.25);
#37=CYLINDRICAL_SURFACE('',#1019,1.25);
#38=CYLINDRICAL_SURFACE('',#1021,1.25);
#39=CYLINDRICAL_SURFACE('',#1029,1.5);
#40=CYLINDRICAL_SURFACE('',#1038,1.5);
#41=CYLINDRICAL_SURFACE('',#1040,2.75);
#42=B_SPLINE_CURVE_WITH_KNOTS('',3,(#1342,#1343,#1344,#1345,#1346,#1347),
 .UNSPECIFIED.,.F.,.F.,(4,2,4),(0.115282170734577,0.131390678147112,0.144679029047449),
 .UNSPECIFIED.);
#43=B_SPLINE_CURVE_WITH_KNOTS('',3,(#1353,#1354,#1355,#1356,#1357,#1358),
 .UNSPECIFIED.,.F.,.F.,(4,2,4),(0.,0.0244518166305529,0.0413539408247783),
 .UNSPECIFIED.);
#44=B_SPLINE_CURVE_WITH_KNOTS('',3,(#1369,#1370,#1371,#1372,#1373,#1374,
#1375,#1376),.UNSPECIFIED.,.F.,.F.,(4,2,2,4),(-0.0253251761119737,-0.0191171280382457,
-0.00930554760883571,0.),.UNSPECIFIED.);
#45=B_SPLINE_CURVE_WITH_KNOTS('',3,(#1381,#1382,#1383,#1384,#1385,#1386,
#1387,#1388,#1389,#1390),.UNSPECIFIED.,.F.,.F.,(4,2,2,2,4),(-0.0816972591077798,
-0.0750315738782227,-0.0673498280848637,-0.0502951724059274,-0.0412300460969502),
 .UNSPECIFIED.);
#46=B_SPLINE_CURVE_WITH_KNOTS('',3,(#1393,#1394,#1395,#1396,#1397,#1398,
#1399,#1400),.UNSPECIFIED.,.F.,.F.,(4,2,2,4),(-0.0253251764641075,-0.0191171353228386,
-0.00930554781796399,0.),.UNSPECIFIED.);
#47=B_SPLINE_CURVE_WITH_KNOTS('',3,(#1402,#1403,#1404,#1405,#1406,#1407,
#1408,#1409,#1410,#1411),.UNSPECIFIED.,.F.,.F.,(4,2,2,2,4),(-0.0816972562216446,
-0.0750315706695453,-0.0673498106618647,-0.0502951638283344,-0.0412300460284792),
 .UNSPECIFIED.);
#48=B_SPLINE_CURVE_WITH_KNOTS('',3,(#1451,#1452,#1453,#1454,#1455,#1456),
 .UNSPECIFIED.,.F.,.F.,(4,2,4),(0.115282111378754,0.131390251829283,0.144679010589951),
 .UNSPECIFIED.);
#49=B_SPLINE_CURVE_WITH_KNOTS('',3,(#1457,#1458,#1459,#1460),
 .UNSPECIFIED.,.F.,.F.,(4,4),(-0.17601723580956,-0.144174873709961),
 .UNSPECIFIED.);
#50=B_SPLINE_CURVE_WITH_KNOTS('',3,(#1469,#1470,#1471,#1472,#1473,#1474),
 .UNSPECIFIED.,.F.,.F.,(4,2,4),(0.,0.024451816678241,0.0413539406410484),
 .UNSPECIFIED.);
#51=B_SPLINE_CURVE_WITH_KNOTS('',3,(#1518,#1519,#1520,#1521),
 .UNSPECIFIED.,.F.,.F.,(4,4),(-0.146798961524073,-0.114947927785892),
 .UNSPECIFIED.);
#52=B_SPLINE_CURVE_WITH_KNOTS('',3,(#1558,#1559,#1560,#1561),
 .UNSPECIFIED.,.F.,.F.,(4,4),(-0.146798982424118,-0.114947935473686),
 .UNSPECIFIED.);
#53=B_SPLINE_CURVE_WITH_KNOTS('',3,(#1604,#1605,#1606,#1607),
 .UNSPECIFIED.,.F.,.F.,(4,4),(-0.176006463256261,-0.14417489520083),
 .UNSPECIFIED.);
#54=LINE('',#1315,#119);
#55=LINE('',#1321,#120);
#56=LINE('',#1326,#121);
#57=LINE('',#1332,#122);
#58=LINE('',#1336,#123);
#59=LINE('',#1338,#124);
#60=LINE('',#1340,#125);
#61=LINE('',#1348,#126);
#62=LINE('',#1351,#127);
#63=LINE('',#1360,#128);
#64=LINE('',#1362,#129);
#65=LINE('',#1363,#130);
#66=LINE('',#1377,#131);
#67=LINE('',#1379,#132);
#68=LINE('',#1401,#133);
#69=LINE('',#1463,#134);
#70=LINE('',#1465,#135);
#71=LINE('',#1466,#136);
#72=LINE('',#1476,#137);
#73=LINE('',#1478,#138);
#74=LINE('',#1479,#139);
#75=LINE('',#1613,#140);
#76=LINE('',#1620,#141);
#77=LINE('',#1626,#142);
#78=LINE('',#1645,#143);
#79=LINE('',#1647,#144);
#80=LINE('',#1649,#145);
#81=LINE('',#1657,#146);
#82=LINE('',#1660,#147);
#83=LINE('',#1663,#148);
#84=LINE('',#1666,#149);
#85=LINE('',#1667,#150);
#86=LINE('',#1670,#151);
#87=LINE('',#1671,#152);
#88=LINE('',#1673,#153);
#89=LINE('',#1677,#154);
#90=LINE('',#1681,#155);
#91=LINE('',#1685,#156);
#92=LINE('',#1689,#157);
#93=LINE('',#1693,#158);
#94=LINE('',#1700,#159);
#95=LINE('',#1704,#160);
#96=LINE('',#1708,#161);
#97=LINE('',#1712,#162);
#98=LINE('',#1717,#163);
#99=LINE('',#1719,#164);
#100=LINE('',#1721,#165);
#101=LINE('',#1722,#166);
#102=LINE('',#1725,#167);
#103=LINE('',#1727,#168);
#104=LINE('',#1728,#169);
#105=LINE('',#1731,#170);
#106=LINE('',#1733,#171);
#107=LINE('',#1734,#172);
#108=LINE('',#1737,#173);
#109=LINE('',#1739,#174);
#110=LINE('',#1741,#175);
#111=LINE('',#1746,#176);
#112=LINE('',#1749,#177);
#113=LINE('',#1750,#178);
#114=LINE('',#1753,#179);
#115=LINE('',#1754,#180);
#116=LINE('',#1756,#181);
#117=LINE('',#1765,#182);
#118=LINE('',#1770,#183);
#119=VECTOR('',#1053,10.);
#120=VECTOR('',#1058,10.);
#121=VECTOR('',#1063,10.);
#122=VECTOR('',#1068,10.);
#123=VECTOR('',#1073,10.);
#124=VECTOR('',#1074,10.);
#125=VECTOR('',#1075,10.);
#126=VECTOR('',#1076,10.);
#127=VECTOR('',#1079,10.);
#128=VECTOR('',#1080,10.);
#129=VECTOR('',#1081,10.);
#130=VECTOR('',#1082,10.);
#131=VECTOR('',#1087,10.);
#132=VECTOR('',#1088,10.);
#133=VECTOR('',#1091,2.75);
#134=VECTOR('',#1102,10.);
#135=VECTOR('',#1103,10.);
#136=VECTOR('',#1104,10.);
#137=VECTOR('',#1107,10.);
#138=VECTOR('',#1108,10.);
#139=VECTOR('',#1109,10.);
#140=VECTOR('',#1132,1.5);
#141=VECTOR('',#1141,6.25);
#142=VECTOR('',#1148,21.5);
#143=VECTOR('',#1167,10.);
#144=VECTOR('',#1168,10.);
#145=VECTOR('',#1169,10.);
#146=VECTOR('',#1180,15.);
#147=VECTOR('',#1183,10.);
#148=VECTOR('',#1186,10.);
#149=VECTOR('',#1189,10.);
#150=VECTOR('',#1190,10.);
#151=VECTOR('',#1193,10.);
#152=VECTOR('',#1194,10.);
#153=VECTOR('',#1197,10.);
#154=VECTOR('',#1202,0.900000000000001);
#155=VECTOR('',#1207,0.9);
#156=VECTOR('',#1212,0.9);
#157=VECTOR('',#1215,10.);
#158=VECTOR('',#1218,10.);
#159=VECTOR('',#1229,1.25);
#160=VECTOR('',#1234,1.25);
#161=VECTOR('',#1239,1.25);
#162=VECTOR('',#1244,1.25);
#163=VECTOR('',#1249,10.);
#164=VECTOR('',#1250,10.);
#165=VECTOR('',#1251,10.);
#166=VECTOR('',#1252,10.);
#167=VECTOR('',#1255,10.);
#168=VECTOR('',#1256,10.);
#169=VECTOR('',#1257,10.);
#170=VECTOR('',#1260,10.);
#171=VECTOR('',#1261,10.);
#172=VECTOR('',#1262,10.);
#173=VECTOR('',#1265,10.);
#174=VECTOR('',#1266,10.);
#175=VECTOR('',#1267,10.);
#176=VECTOR('',#1274,10.);
#177=VECTOR('',#1277,10.);
#178=VECTOR('',#1278,10.);
#179=VECTOR('',#1281,10.);
#180=VECTOR('',#1282,10.);
#181=VECTOR('',#1285,10.);
#182=VECTOR('',#1296,1.5);
#183=VECTOR('',#1303,2.75);
#184=FACE_BOUND('',#258,.T.);
#185=FACE_BOUND('',#280,.T.);
#186=FACE_BOUND('',#281,.T.);
#187=FACE_BOUND('',#282,.T.);
#188=FACE_BOUND('',#283,.T.);
#189=FACE_BOUND('',#284,.T.);
#190=FACE_BOUND('',#285,.T.);
#191=FACE_BOUND('',#286,.T.);
#192=FACE_BOUND('',#287,.T.);
#193=FACE_BOUND('',#288,.T.);
#194=FACE_BOUND('',#290,.T.);
#195=FACE_BOUND('',#309,.T.);
#196=FACE_BOUND('',#310,.T.);
#197=FACE_BOUND('',#311,.T.);
#198=FACE_BOUND('',#312,.T.);
#199=FACE_BOUND('',#313,.T.);
#200=FACE_BOUND('',#314,.T.);
#201=FACE_BOUND('',#315,.T.);
#202=FACE_BOUND('',#316,.T.);
#203=FACE_BOUND('',#322,.T.);
#204=FACE_BOUND('',#323,.T.);
#205=FACE_BOUND('',#325,.T.);
#206=FACE_BOUND('',#329,.T.);
#207=FACE_OUTER_BOUND('',#257,.T.);
#208=FACE_OUTER_BOUND('',#259,.T.);
#209=FACE_OUTER_BOUND('',#260,.T.);
#210=FACE_OUTER_BOUND('',#261,.T.);
#211=FACE_OUTER_BOUND('',#262,.T.);
#212=FACE_OUTER_BOUND('',#263,.T.);
#213=FACE_OUTER_BOUND('',#264,.T.);
#214=FACE_OUTER_BOUND('',#265,.T.);
#215=FACE_OUTER_BOUND('',#266,.T.);
#216=FACE_OUTER_BOUND('',#267,.T.);
#217=FACE_OUTER_BOUND('',#268,.T.);
#218=FACE_OUTER_BOUND('',#269,.T.);
#219=FACE_OUTER_BOUND('',#270,.T.);
#220=FACE_OUTER_BOUND('',#271,.T.);
#221=FACE_OUTER_BOUND('',#272,.T.);
#222=FACE_OUTER_BOUND('',#273,.T.);
#223=FACE_OUTER_BOUND('',#274,.T.);
#224=FACE_OUTER_BOUND('',#275,.T.);
#225=FACE_OUTER_BOUND('',#276,.T.);
#226=FACE_OUTER_BOUND('',#277,.T.);
#227=FACE_OUTER_BOUND('',#278,.T.);
#228=FACE_OUTER_BOUND('',#279,.T.);
#229=FACE_OUTER_BOUND('',#289,.T.);
#230=FACE_OUTER_BOUND('',#291,.T.);
#231=FACE_OUTER_BOUND('',#292,.T.);
#232=FACE_OUTER_BOUND('',#293,.T.);
#233=FACE_OUTER_BOUND('',#294,.T.);
#234=FACE_OUTER_BOUND('',#295,.T.);
#235=FACE_OUTER_BOUND('',#296,.T.);
#236=FACE_OUTER_BOUND('',#297,.T.);
#237=FACE_OUTER_BOUND('',#298,.T.);
#238=FACE_OUTER_BOUND('',#299,.T.);
#239=FACE_OUTER_BOUND('',#300,.T.);
#240=FACE_OUTER_BOUND('',#301,.T.);
#241=FACE_OUTER_BOUND('',#302,.T.);
#242=FACE_OUTER_BOUND('',#303,.T.);
#243=FACE_OUTER_BOUND('',#304,.T.);
#244=FACE_OUTER_BOUND('',#305,.T.);
#245=FACE_OUTER_BOUND('',#306,.T.);
#246=FACE_OUTER_BOUND('',#307,.T.);
#247=FACE_OUTER_BOUND('',#308,.T.);
#248=FACE_OUTER_BOUND('',#317,.T.);
#249=FACE_OUTER_BOUND('',#318,.T.);
#250=FACE_OUTER_BOUND('',#319,.T.);
#251=FACE_OUTER_BOUND('',#320,.T.);
#252=FACE_OUTER_BOUND('',#321,.T.);
#253=FACE_OUTER_BOUND('',#324,.T.);
#254=FACE_OUTER_BOUND('',#326,.T.);
#255=FACE_OUTER_BOUND('',#327,.T.);
#256=FACE_OUTER_BOUND('',#328,.T.);
#257=EDGE_LOOP('',(#597));
#258=EDGE_LOOP('',(#598));
#259=EDGE_LOOP('',(#599,#600,#601,#602,#603));
#260=EDGE_LOOP('',(#604,#605,#606,#607,#608));
#261=EDGE_LOOP('',(#609,#610,#611,#612,#613,#614));
#262=EDGE_LOOP('',(#615,#616,#617,#618,#619,#620));
#263=EDGE_LOOP('',(#621,#622,#623,#624,#625,#626,#627,#628,#629,#630,#631,
#632,#633,#634,#635,#636));
#264=EDGE_LOOP('',(#637,#638,#639,#640));
#265=EDGE_LOOP('',(#641,#642,#643,#644));
#266=EDGE_LOOP('',(#645,#646,#647,#648,#649,#650));
#267=EDGE_LOOP('',(#651,#652,#653,#654,#655,#656));
#268=EDGE_LOOP('',(#657,#658,#659,#660));
#269=EDGE_LOOP('',(#661,#662,#663,#664));
#270=EDGE_LOOP('',(#665,#666,#667,#668,#669,#670));
#271=EDGE_LOOP('',(#671,#672,#673,#674));
#272=EDGE_LOOP('',(#675,#676,#677,#678));
#273=EDGE_LOOP('',(#679,#680,#681,#682,#683,#684));
#274=EDGE_LOOP('',(#685,#686,#687,#688));
#275=EDGE_LOOP('',(#689,#690,#691,#692,#693,#694,#695,#696,#697,#698,#699,
#700));
#276=EDGE_LOOP('',(#701,#702,#703,#704));
#277=EDGE_LOOP('',(#705,#706,#707,#708));
#278=EDGE_LOOP('',(#709,#710,#711,#712));
#279=EDGE_LOOP('',(#713));
#280=EDGE_LOOP('',(#714));
#281=EDGE_LOOP('',(#715));
#282=EDGE_LOOP('',(#716));
#283=EDGE_LOOP('',(#717));
#284=EDGE_LOOP('',(#718));
#285=EDGE_LOOP('',(#719));
#286=EDGE_LOOP('',(#720));
#287=EDGE_LOOP('',(#721,#722,#723,#724));
#288=EDGE_LOOP('',(#725));
#289=EDGE_LOOP('',(#726));
#290=EDGE_LOOP('',(#727));
#291=EDGE_LOOP('',(#728,#729,#730,#731));
#292=EDGE_LOOP('',(#732,#733,#734,#735));
#293=EDGE_LOOP('',(#736,#737,#738,#739));
#294=EDGE_LOOP('',(#740,#741,#742,#743));
#295=EDGE_LOOP('',(#744,#745,#746,#747));
#296=EDGE_LOOP('',(#748,#749,#750,#751));
#297=EDGE_LOOP('',(#752,#753,#754,#755));
#298=EDGE_LOOP('',(#756,#757,#758,#759));
#299=EDGE_LOOP('',(#760,#761,#762,#763));
#300=EDGE_LOOP('',(#764,#765,#766,#767,#768,#769,#770,#771));
#301=EDGE_LOOP('',(#772,#773,#774,#775));
#302=EDGE_LOOP('',(#776,#777,#778,#779));
#303=EDGE_LOOP('',(#780,#781,#782,#783));
#304=EDGE_LOOP('',(#784,#785,#786));
#305=EDGE_LOOP('',(#787,#788,#789,#790));
#306=EDGE_LOOP('',(#791,#792,#793,#794));
#307=EDGE_LOOP('',(#795,#796,#797,#798));
#308=EDGE_LOOP('',(#799));
#309=EDGE_LOOP('',(#800));
#310=EDGE_LOOP('',(#801));
#311=EDGE_LOOP('',(#802));
#312=EDGE_LOOP('',(#803,#804,#805,#806));
#313=EDGE_LOOP('',(#807,#808,#809,#810,#811,#812,#813));
#314=EDGE_LOOP('',(#814));
#315=EDGE_LOOP('',(#815));
#316=EDGE_LOOP('',(#816));
#317=EDGE_LOOP('',(#817,#818,#819,#820));
#318=EDGE_LOOP('',(#821,#822,#823,#824));
#319=EDGE_LOOP('',(#825,#826,#827,#828));
#320=EDGE_LOOP('',(#829,#830,#831,#832));
#321=EDGE_LOOP('',(#833,#834,#835,#836,#837,#838,#839));
#322=EDGE_LOOP('',(#840));
#323=EDGE_LOOP('',(#841,#842));
#324=EDGE_LOOP('',(#843));
#325=EDGE_LOOP('',(#844));
#326=EDGE_LOOP('',(#845,#846,#847,#848));
#327=EDGE_LOOP('',(#849,#850,#851,#852));
#328=EDGE_LOOP('',(#853));
#329=EDGE_LOOP('',(#854));
#330=CIRCLE('',#946,2.75);
#331=CIRCLE('',#947,1.5);
#332=CIRCLE('',#949,1.5);
#333=CIRCLE('',#950,1.5);
#334=CIRCLE('',#951,2.75);
#335=CIRCLE('',#953,2.75);
#336=CIRCLE('',#954,2.75);
#337=CIRCLE('',#955,1.5);
#338=CIRCLE('',#959,2.75);
#339=CIRCLE('',#960,2.75);
#340=CIRCLE('',#962,0.649999999999443);
#341=CIRCLE('',#963,2.55);
#342=CIRCLE('',#964,0.65);
#343=CIRCLE('',#967,0.65);
#344=CIRCLE('',#969,2.55);
#345=CIRCLE('',#971,0.649999999999441);
#346=CIRCLE('',#972,2.55);
#347=CIRCLE('',#974,2.55);
#348=CIRCLE('',#976,1.5);
#349=CIRCLE('',#978,1.5);
#350=CIRCLE('',#981,6.25);
#351=CIRCLE('',#982,6.25);
#352=CIRCLE('',#984,21.5);
#353=CIRCLE('',#985,21.5);
#354=CIRCLE('',#987,1.25);
#355=CIRCLE('',#988,1.25);
#356=CIRCLE('',#989,1.25);
#357=CIRCLE('',#990,1.25);
#358=CIRCLE('',#991,0.9);
#359=CIRCLE('',#992,0.9);
#360=CIRCLE('',#993,0.900000000000001);
#361=CIRCLE('',#994,13.);
#362=CIRCLE('',#996,15.);
#363=CIRCLE('',#998,15.);
#364=CIRCLE('',#1000,13.);
#365=CIRCLE('',#1005,0.900000000000001);
#366=CIRCLE('',#1007,0.9);
#367=CIRCLE('',#1009,0.9);
#368=CIRCLE('',#1011,1.5);
#369=CIRCLE('',#1012,1.5);
#370=CIRCLE('',#1014,1.25);
#371=CIRCLE('',#1015,1.25);
#372=CIRCLE('',#1016,1.25);
#373=CIRCLE('',#1018,1.25);
#374=CIRCLE('',#1020,1.25);
#375=CIRCLE('',#1022,1.25);
#376=CIRCLE('',#1028,1.5);
#377=CIRCLE('',#1030,1.5);
#378=CIRCLE('',#1035,1.5);
#379=CIRCLE('',#1037,2.75);
#380=CIRCLE('',#1039,1.5);
#381=CIRCLE('',#1041,2.75);
#382=VERTEX_POINT('',#1308);
#383=VERTEX_POINT('',#1310);
#384=VERTEX_POINT('',#1313);
#385=VERTEX_POINT('',#1314);
#386=VERTEX_POINT('',#1316);
#387=VERTEX_POINT('',#1318);
#388=VERTEX_POINT('',#1320);
#389=VERTEX_POINT('',#1324);
#390=VERTEX_POINT('',#1325);
#391=VERTEX_POINT('',#1327);
#392=VERTEX_POINT('',#1329);
#393=VERTEX_POINT('',#1331);
#394=VERTEX_POINT('',#1335);
#395=VERTEX_POINT('',#1337);
#396=VERTEX_POINT('',#1339);
#397=VERTEX_POINT('',#1341);
#398=VERTEX_POINT('',#1350);
#399=VERTEX_POINT('',#1352);
#400=VERTEX_POINT('',#1359);
#401=VERTEX_POINT('',#1361);
#402=VERTEX_POINT('',#1365);
#403=VERTEX_POINT('',#1366);
#404=VERTEX_POINT('',#1368);
#405=VERTEX_POINT('',#1378);
#406=VERTEX_POINT('',#1380);
#407=VERTEX_POINT('',#1391);
#408=VERTEX_POINT('',#1413);
#409=VERTEX_POINT('',#1415);
#410=VERTEX_POINT('',#1450);
#411=VERTEX_POINT('',#1462);
#412=VERTEX_POINT('',#1464);
#413=VERTEX_POINT('',#1468);
#414=VERTEX_POINT('',#1475);
#415=VERTEX_POINT('',#1477);
#416=VERTEX_POINT('',#1516);
#417=VERTEX_POINT('',#1565);
#418=VERTEX_POINT('',#1617);
#419=VERTEX_POINT('',#1619);
#420=VERTEX_POINT('',#1623);
#421=VERTEX_POINT('',#1625);
#422=VERTEX_POINT('',#1629);
#423=VERTEX_POINT('',#1631);
#424=VERTEX_POINT('',#1633);
#425=VERTEX_POINT('',#1635);
#426=VERTEX_POINT('',#1637);
#427=VERTEX_POINT('',#1639);
#428=VERTEX_POINT('',#1641);
#429=VERTEX_POINT('',#1643);
#430=VERTEX_POINT('',#1644);
#431=VERTEX_POINT('',#1646);
#432=VERTEX_POINT('',#1648);
#433=VERTEX_POINT('',#1652);
#434=VERTEX_POINT('',#1655);
#435=VERTEX_POINT('',#1659);
#436=VERTEX_POINT('',#1661);
#437=VERTEX_POINT('',#1665);
#438=VERTEX_POINT('',#1669);
#439=VERTEX_POINT('',#1675);
#440=VERTEX_POINT('',#1679);
#441=VERTEX_POINT('',#1683);
#442=VERTEX_POINT('',#1687);
#443=VERTEX_POINT('',#1688);
#444=VERTEX_POINT('',#1690);
#445=VERTEX_POINT('',#1692);
#446=VERTEX_POINT('',#1696);
#447=VERTEX_POINT('',#1702);
#448=VERTEX_POINT('',#1706);
#449=VERTEX_POINT('',#1710);
#450=VERTEX_POINT('',#1715);
#451=VERTEX_POINT('',#1716);
#452=VERTEX_POINT('',#1718);
#453=VERTEX_POINT('',#1720);
#454=VERTEX_POINT('',#1724);
#455=VERTEX_POINT('',#1726);
#456=VERTEX_POINT('',#1730);
#457=VERTEX_POINT('',#1732);
#458=VERTEX_POINT('',#1736);
#459=VERTEX_POINT('',#1738);
#460=VERTEX_POINT('',#1740);
#461=VERTEX_POINT('',#1744);
#462=VERTEX_POINT('',#1748);
#463=VERTEX_POINT('',#1752);
#464=VERTEX_POINT('',#1758);
#465=VERTEX_POINT('',#1761);
#466=VERTEX_POINT('',#1764);
#467=VERTEX_POINT('',#1768);
#468=EDGE_CURVE('',#382,#382,#330,.T.);
#469=EDGE_CURVE('',#383,#383,#331,.T.);
#470=EDGE_CURVE('',#384,#385,#54,.T.);
#471=EDGE_CURVE('',#384,#386,#332,.T.);
#472=EDGE_CURVE('',#386,#387,#333,.T.);
#473=EDGE_CURVE('',#388,#387,#55,.T.);
#474=EDGE_CURVE('',#388,#385,#334,.T.);
#475=EDGE_CURVE('',#389,#390,#56,.T.);
#476=EDGE_CURVE('',#389,#391,#335,.T.);
#477=EDGE_CURVE('',#391,#392,#336,.T.);
#478=EDGE_CURVE('',#393,#392,#57,.T.);
#479=EDGE_CURVE('',#393,#390,#337,.T.);
#480=EDGE_CURVE('',#394,#390,#58,.T.);
#481=EDGE_CURVE('',#395,#394,#59,.T.);
#482=EDGE_CURVE('',#396,#395,#60,.T.);
#483=EDGE_CURVE('',#396,#397,#42,.F.);
#484=EDGE_CURVE('',#397,#389,#61,.T.);
#485=EDGE_CURVE('',#392,#398,#62,.T.);
#486=EDGE_CURVE('',#399,#398,#43,.T.);
#487=EDGE_CURVE('',#400,#399,#63,.T.);
#488=EDGE_CURVE('',#401,#400,#64,.T.);
#489=EDGE_CURVE('',#393,#401,#65,.T.);
#490=EDGE_CURVE('',#402,#403,#338,.T.);
#491=EDGE_CURVE('',#404,#402,#44,.T.);
#492=EDGE_CURVE('',#385,#404,#66,.T.);
#493=EDGE_CURVE('',#405,#388,#67,.T.);
#494=EDGE_CURVE('',#406,#405,#45,.T.);
#495=EDGE_CURVE('',#407,#406,#339,.T.);
#496=EDGE_CURVE('',#398,#407,#46,.T.);
#497=EDGE_CURVE('',#391,#382,#68,.T.);
#498=EDGE_CURVE('',#403,#397,#47,.T.);
#499=EDGE_CURVE('',#406,#408,#340,.T.);
#500=EDGE_CURVE('',#408,#409,#341,.T.);
#501=EDGE_CURVE('',#409,#407,#342,.T.);
#502=EDGE_CURVE('',#410,#405,#48,.F.);
#503=EDGE_CURVE('',#410,#408,#49,.T.);
#504=EDGE_CURVE('',#411,#387,#69,.T.);
#505=EDGE_CURVE('',#412,#411,#70,.T.);
#506=EDGE_CURVE('',#410,#412,#71,.T.);
#507=EDGE_CURVE('',#413,#404,#50,.T.);
#508=EDGE_CURVE('',#414,#413,#72,.T.);
#509=EDGE_CURVE('',#415,#414,#73,.T.);
#510=EDGE_CURVE('',#384,#415,#74,.T.);
#511=EDGE_CURVE('',#416,#402,#343,.T.);
#512=EDGE_CURVE('',#416,#413,#51,.T.);
#513=EDGE_CURVE('',#409,#399,#52,.T.);
#514=EDGE_CURVE('',#400,#412,#344,.T.);
#515=EDGE_CURVE('',#403,#417,#345,.T.);
#516=EDGE_CURVE('',#417,#416,#346,.T.);
#517=EDGE_CURVE('',#396,#417,#53,.T.);
#518=EDGE_CURVE('',#414,#395,#347,.T.);
#519=EDGE_CURVE('',#411,#401,#348,.T.);
#520=EDGE_CURVE('',#383,#386,#75,.T.);
#521=EDGE_CURVE('',#394,#415,#349,.T.);
#522=EDGE_CURVE('',#418,#418,#350,.T.);
#523=EDGE_CURVE('',#418,#419,#76,.T.);
#524=EDGE_CURVE('',#419,#419,#351,.T.);
#525=EDGE_CURVE('',#420,#420,#352,.T.);
#526=EDGE_CURVE('',#420,#421,#77,.T.);
#527=EDGE_CURVE('',#421,#421,#353,.T.);
#528=EDGE_CURVE('',#422,#422,#354,.T.);
#529=EDGE_CURVE('',#423,#423,#355,.T.);
#530=EDGE_CURVE('',#424,#424,#356,.T.);
#531=EDGE_CURVE('',#425,#425,#357,.T.);
#532=EDGE_CURVE('',#426,#426,#358,.T.);
#533=EDGE_CURVE('',#427,#427,#359,.T.);
#534=EDGE_CURVE('',#428,#428,#360,.T.);
#535=EDGE_CURVE('',#429,#430,#78,.T.);
#536=EDGE_CURVE('',#430,#431,#79,.T.);
#537=EDGE_CURVE('',#431,#432,#80,.T.);
#538=EDGE_CURVE('',#432,#429,#361,.T.);
#539=EDGE_CURVE('',#433,#433,#362,.T.);
#540=EDGE_CURVE('',#434,#434,#363,.T.);
#541=EDGE_CURVE('',#434,#433,#81,.T.);
#542=EDGE_CURVE('',#435,#432,#82,.T.);
#543=EDGE_CURVE('',#436,#435,#364,.T.);
#544=EDGE_CURVE('',#429,#436,#83,.T.);
#545=EDGE_CURVE('',#437,#431,#84,.T.);
#546=EDGE_CURVE('',#435,#437,#85,.T.);
#547=EDGE_CURVE('',#438,#430,#86,.T.);
#548=EDGE_CURVE('',#437,#438,#87,.T.);
#549=EDGE_CURVE('',#438,#436,#88,.T.);
#550=EDGE_CURVE('',#439,#439,#365,.T.);
#551=EDGE_CURVE('',#439,#428,#89,.T.);
#552=EDGE_CURVE('',#440,#440,#366,.T.);
#553=EDGE_CURVE('',#440,#426,#90,.T.);
#554=EDGE_CURVE('',#441,#441,#367,.T.);
#555=EDGE_CURVE('',#441,#427,#91,.T.);
#556=EDGE_CURVE('',#442,#443,#92,.T.);
#557=EDGE_CURVE('',#444,#443,#368,.T.);
#558=EDGE_CURVE('',#444,#445,#93,.T.);
#559=EDGE_CURVE('',#445,#442,#369,.T.);
#560=EDGE_CURVE('',#445,#446,#370,.T.);
#561=EDGE_CURVE('',#443,#444,#371,.T.);
#562=EDGE_CURVE('',#446,#442,#372,.T.);
#563=EDGE_CURVE('',#446,#425,#94,.T.);
#564=EDGE_CURVE('',#447,#447,#373,.T.);
#565=EDGE_CURVE('',#447,#424,#95,.T.);
#566=EDGE_CURVE('',#448,#448,#374,.T.);
#567=EDGE_CURVE('',#448,#423,#96,.T.);
#568=EDGE_CURVE('',#449,#449,#375,.T.);
#569=EDGE_CURVE('',#449,#422,#97,.T.);
#570=EDGE_CURVE('',#450,#451,#98,.T.);
#571=EDGE_CURVE('',#451,#452,#99,.T.);
#572=EDGE_CURVE('',#453,#452,#100,.T.);
#573=EDGE_CURVE('',#450,#453,#101,.T.);
#574=EDGE_CURVE('',#451,#454,#102,.T.);
#575=EDGE_CURVE('',#455,#454,#103,.T.);
#576=EDGE_CURVE('',#452,#455,#104,.T.);
#577=EDGE_CURVE('',#454,#456,#105,.T.);
#578=EDGE_CURVE('',#457,#456,#106,.T.);
#579=EDGE_CURVE('',#455,#457,#107,.T.);
#580=EDGE_CURVE('',#457,#458,#108,.T.);
#581=EDGE_CURVE('',#458,#459,#109,.T.);
#582=EDGE_CURVE('',#459,#460,#110,.T.);
#583=EDGE_CURVE('',#460,#453,#376,.T.);
#584=EDGE_CURVE('',#461,#450,#377,.T.);
#585=EDGE_CURVE('',#461,#460,#111,.T.);
#586=EDGE_CURVE('',#462,#461,#112,.T.);
#587=EDGE_CURVE('',#459,#462,#113,.T.);
#588=EDGE_CURVE('',#463,#462,#114,.T.);
#589=EDGE_CURVE('',#458,#463,#115,.T.);
#590=EDGE_CURVE('',#456,#463,#116,.T.);
#591=EDGE_CURVE('',#464,#464,#378,.T.);
#592=EDGE_CURVE('',#465,#465,#379,.T.);
#593=EDGE_CURVE('',#464,#466,#117,.T.);
#594=EDGE_CURVE('',#466,#466,#380,.T.);
#595=EDGE_CURVE('',#467,#467,#381,.T.);
#596=EDGE_CURVE('',#467,#465,#118,.T.);
#597=ORIENTED_EDGE('',*,*,#468,.F.);
#598=ORIENTED_EDGE('',*,*,#469,.F.);
#599=ORIENTED_EDGE('',*,*,#470,.F.);
#600=ORIENTED_EDGE('',*,*,#471,.T.);
#601=ORIENTED_EDGE('',*,*,#472,.T.);
#602=ORIENTED_EDGE('',*,*,#473,.F.);
#603=ORIENTED_EDGE('',*,*,#474,.T.);
#604=ORIENTED_EDGE('',*,*,#475,.F.);
#605=ORIENTED_EDGE('',*,*,#476,.T.);
#606=ORIENTED_EDGE('',*,*,#477,.T.);
#607=ORIENTED_EDGE('',*,*,#478,.F.);
#608=ORIENTED_EDGE('',*,*,#479,.T.);
#609=ORIENTED_EDGE('',*,*,#475,.T.);
#610=ORIENTED_EDGE('',*,*,#480,.F.);
#611=ORIENTED_EDGE('',*,*,#481,.F.);
#612=ORIENTED_EDGE('',*,*,#482,.F.);
#613=ORIENTED_EDGE('',*,*,#483,.T.);
#614=ORIENTED_EDGE('',*,*,#484,.T.);
#615=ORIENTED_EDGE('',*,*,#478,.T.);
#616=ORIENTED_EDGE('',*,*,#485,.T.);
#617=ORIENTED_EDGE('',*,*,#486,.F.);
#618=ORIENTED_EDGE('',*,*,#487,.F.);
#619=ORIENTED_EDGE('',*,*,#488,.F.);
#620=ORIENTED_EDGE('',*,*,#489,.F.);
#621=ORIENTED_EDGE('',*,*,#490,.F.);
#622=ORIENTED_EDGE('',*,*,#491,.F.);
#623=ORIENTED_EDGE('',*,*,#492,.F.);
#624=ORIENTED_EDGE('',*,*,#474,.F.);
#625=ORIENTED_EDGE('',*,*,#493,.F.);
#626=ORIENTED_EDGE('',*,*,#494,.F.);
#627=ORIENTED_EDGE('',*,*,#495,.F.);
#628=ORIENTED_EDGE('',*,*,#496,.F.);
#629=ORIENTED_EDGE('',*,*,#485,.F.);
#630=ORIENTED_EDGE('',*,*,#477,.F.);
#631=ORIENTED_EDGE('',*,*,#497,.T.);
#632=ORIENTED_EDGE('',*,*,#468,.T.);
#633=ORIENTED_EDGE('',*,*,#497,.F.);
#634=ORIENTED_EDGE('',*,*,#476,.F.);
#635=ORIENTED_EDGE('',*,*,#484,.F.);
#636=ORIENTED_EDGE('',*,*,#498,.F.);
#637=ORIENTED_EDGE('',*,*,#495,.T.);
#638=ORIENTED_EDGE('',*,*,#499,.T.);
#639=ORIENTED_EDGE('',*,*,#500,.T.);
#640=ORIENTED_EDGE('',*,*,#501,.T.);
#641=ORIENTED_EDGE('',*,*,#494,.T.);
#642=ORIENTED_EDGE('',*,*,#502,.F.);
#643=ORIENTED_EDGE('',*,*,#503,.T.);
#644=ORIENTED_EDGE('',*,*,#499,.F.);
#645=ORIENTED_EDGE('',*,*,#473,.T.);
#646=ORIENTED_EDGE('',*,*,#504,.F.);
#647=ORIENTED_EDGE('',*,*,#505,.F.);
#648=ORIENTED_EDGE('',*,*,#506,.F.);
#649=ORIENTED_EDGE('',*,*,#502,.T.);
#650=ORIENTED_EDGE('',*,*,#493,.T.);
#651=ORIENTED_EDGE('',*,*,#470,.T.);
#652=ORIENTED_EDGE('',*,*,#492,.T.);
#653=ORIENTED_EDGE('',*,*,#507,.F.);
#654=ORIENTED_EDGE('',*,*,#508,.F.);
#655=ORIENTED_EDGE('',*,*,#509,.F.);
#656=ORIENTED_EDGE('',*,*,#510,.F.);
#657=ORIENTED_EDGE('',*,*,#491,.T.);
#658=ORIENTED_EDGE('',*,*,#511,.F.);
#659=ORIENTED_EDGE('',*,*,#512,.T.);
#660=ORIENTED_EDGE('',*,*,#507,.T.);
#661=ORIENTED_EDGE('',*,*,#496,.T.);
#662=ORIENTED_EDGE('',*,*,#501,.F.);
#663=ORIENTED_EDGE('',*,*,#513,.T.);
#664=ORIENTED_EDGE('',*,*,#486,.T.);
#665=ORIENTED_EDGE('',*,*,#513,.F.);
#666=ORIENTED_EDGE('',*,*,#500,.F.);
#667=ORIENTED_EDGE('',*,*,#503,.F.);
#668=ORIENTED_EDGE('',*,*,#506,.T.);
#669=ORIENTED_EDGE('',*,*,#514,.F.);
#670=ORIENTED_EDGE('',*,*,#487,.T.);
#671=ORIENTED_EDGE('',*,*,#490,.T.);
#672=ORIENTED_EDGE('',*,*,#515,.T.);
#673=ORIENTED_EDGE('',*,*,#516,.T.);
#674=ORIENTED_EDGE('',*,*,#511,.T.);
#675=ORIENTED_EDGE('',*,*,#498,.T.);
#676=ORIENTED_EDGE('',*,*,#483,.F.);
#677=ORIENTED_EDGE('',*,*,#517,.T.);
#678=ORIENTED_EDGE('',*,*,#515,.F.);
#679=ORIENTED_EDGE('',*,*,#512,.F.);
#680=ORIENTED_EDGE('',*,*,#516,.F.);
#681=ORIENTED_EDGE('',*,*,#517,.F.);
#682=ORIENTED_EDGE('',*,*,#482,.T.);
#683=ORIENTED_EDGE('',*,*,#518,.F.);
#684=ORIENTED_EDGE('',*,*,#508,.T.);
#685=ORIENTED_EDGE('',*,*,#505,.T.);
#686=ORIENTED_EDGE('',*,*,#519,.T.);
#687=ORIENTED_EDGE('',*,*,#488,.T.);
#688=ORIENTED_EDGE('',*,*,#514,.T.);
#689=ORIENTED_EDGE('',*,*,#469,.T.);
#690=ORIENTED_EDGE('',*,*,#520,.T.);
#691=ORIENTED_EDGE('',*,*,#471,.F.);
#692=ORIENTED_EDGE('',*,*,#510,.T.);
#693=ORIENTED_EDGE('',*,*,#521,.F.);
#694=ORIENTED_EDGE('',*,*,#480,.T.);
#695=ORIENTED_EDGE('',*,*,#479,.F.);
#696=ORIENTED_EDGE('',*,*,#489,.T.);
#697=ORIENTED_EDGE('',*,*,#519,.F.);
#698=ORIENTED_EDGE('',*,*,#504,.T.);
#699=ORIENTED_EDGE('',*,*,#472,.F.);
#700=ORIENTED_EDGE('',*,*,#520,.F.);
#701=ORIENTED_EDGE('',*,*,#509,.T.);
#702=ORIENTED_EDGE('',*,*,#518,.T.);
#703=ORIENTED_EDGE('',*,*,#481,.T.);
#704=ORIENTED_EDGE('',*,*,#521,.T.);
#705=ORIENTED_EDGE('',*,*,#522,.T.);
#706=ORIENTED_EDGE('',*,*,#523,.T.);
#707=ORIENTED_EDGE('',*,*,#524,.F.);
#708=ORIENTED_EDGE('',*,*,#523,.F.);
#709=ORIENTED_EDGE('',*,*,#525,.F.);
#710=ORIENTED_EDGE('',*,*,#526,.T.);
#711=ORIENTED_EDGE('',*,*,#527,.T.);
#712=ORIENTED_EDGE('',*,*,#526,.F.);
#713=ORIENTED_EDGE('',*,*,#525,.T.);
#714=ORIENTED_EDGE('',*,*,#528,.T.);
#715=ORIENTED_EDGE('',*,*,#529,.T.);
#716=ORIENTED_EDGE('',*,*,#530,.T.);
#717=ORIENTED_EDGE('',*,*,#531,.T.);
#718=ORIENTED_EDGE('',*,*,#532,.T.);
#719=ORIENTED_EDGE('',*,*,#533,.T.);
#720=ORIENTED_EDGE('',*,*,#534,.T.);
#721=ORIENTED_EDGE('',*,*,#535,.T.);
#722=ORIENTED_EDGE('',*,*,#536,.T.);
#723=ORIENTED_EDGE('',*,*,#537,.T.);
#724=ORIENTED_EDGE('',*,*,#538,.T.);
#725=ORIENTED_EDGE('',*,*,#524,.T.);
#726=ORIENTED_EDGE('',*,*,#527,.F.);
#727=ORIENTED_EDGE('',*,*,#539,.T.);
#728=ORIENTED_EDGE('',*,*,#540,.F.);
#729=ORIENTED_EDGE('',*,*,#541,.T.);
#730=ORIENTED_EDGE('',*,*,#539,.F.);
#731=ORIENTED_EDGE('',*,*,#541,.F.);
#732=ORIENTED_EDGE('',*,*,#542,.F.);
#733=ORIENTED_EDGE('',*,*,#543,.F.);
#734=ORIENTED_EDGE('',*,*,#544,.F.);
#735=ORIENTED_EDGE('',*,*,#538,.F.);
#736=ORIENTED_EDGE('',*,*,#545,.F.);
#737=ORIENTED_EDGE('',*,*,#546,.F.);
#738=ORIENTED_EDGE('',*,*,#542,.T.);
#739=ORIENTED_EDGE('',*,*,#537,.F.);
#740=ORIENTED_EDGE('',*,*,#547,.F.);
#741=ORIENTED_EDGE('',*,*,#548,.F.);
#742=ORIENTED_EDGE('',*,*,#545,.T.);
#743=ORIENTED_EDGE('',*,*,#536,.F.);
#744=ORIENTED_EDGE('',*,*,#544,.T.);
#745=ORIENTED_EDGE('',*,*,#549,.F.);
#746=ORIENTED_EDGE('',*,*,#547,.T.);
#747=ORIENTED_EDGE('',*,*,#535,.F.);
#748=ORIENTED_EDGE('',*,*,#550,.F.);
#749=ORIENTED_EDGE('',*,*,#551,.T.);
#750=ORIENTED_EDGE('',*,*,#534,.F.);
#751=ORIENTED_EDGE('',*,*,#551,.F.);
#752=ORIENTED_EDGE('',*,*,#552,.F.);
#753=ORIENTED_EDGE('',*,*,#553,.T.);
#754=ORIENTED_EDGE('',*,*,#532,.F.);
#755=ORIENTED_EDGE('',*,*,#553,.F.);
#756=ORIENTED_EDGE('',*,*,#554,.F.);
#757=ORIENTED_EDGE('',*,*,#555,.T.);
#758=ORIENTED_EDGE('',*,*,#533,.F.);
#759=ORIENTED_EDGE('',*,*,#555,.F.);
#760=ORIENTED_EDGE('',*,*,#556,.T.);
#761=ORIENTED_EDGE('',*,*,#557,.F.);
#762=ORIENTED_EDGE('',*,*,#558,.T.);
#763=ORIENTED_EDGE('',*,*,#559,.T.);
#764=ORIENTED_EDGE('',*,*,#560,.F.);
#765=ORIENTED_EDGE('',*,*,#558,.F.);
#766=ORIENTED_EDGE('',*,*,#561,.F.);
#767=ORIENTED_EDGE('',*,*,#556,.F.);
#768=ORIENTED_EDGE('',*,*,#562,.F.);
#769=ORIENTED_EDGE('',*,*,#563,.T.);
#770=ORIENTED_EDGE('',*,*,#531,.F.);
#771=ORIENTED_EDGE('',*,*,#563,.F.);
#772=ORIENTED_EDGE('',*,*,#564,.F.);
#773=ORIENTED_EDGE('',*,*,#565,.T.);
#774=ORIENTED_EDGE('',*,*,#530,.F.);
#775=ORIENTED_EDGE('',*,*,#565,.F.);
#776=ORIENTED_EDGE('',*,*,#566,.F.);
#777=ORIENTED_EDGE('',*,*,#567,.T.);
#778=ORIENTED_EDGE('',*,*,#529,.F.);
#779=ORIENTED_EDGE('',*,*,#567,.F.);
#780=ORIENTED_EDGE('',*,*,#568,.F.);
#781=ORIENTED_EDGE('',*,*,#569,.T.);
#782=ORIENTED_EDGE('',*,*,#528,.F.);
#783=ORIENTED_EDGE('',*,*,#569,.F.);
#784=ORIENTED_EDGE('',*,*,#560,.T.);
#785=ORIENTED_EDGE('',*,*,#562,.T.);
#786=ORIENTED_EDGE('',*,*,#559,.F.);
#787=ORIENTED_EDGE('',*,*,#570,.T.);
#788=ORIENTED_EDGE('',*,*,#571,.T.);
#789=ORIENTED_EDGE('',*,*,#572,.F.);
#790=ORIENTED_EDGE('',*,*,#573,.F.);
#791=ORIENTED_EDGE('',*,*,#574,.T.);
#792=ORIENTED_EDGE('',*,*,#575,.F.);
#793=ORIENTED_EDGE('',*,*,#576,.F.);
#794=ORIENTED_EDGE('',*,*,#571,.F.);
#795=ORIENTED_EDGE('',*,*,#577,.T.);
#796=ORIENTED_EDGE('',*,*,#578,.F.);
#797=ORIENTED_EDGE('',*,*,#579,.F.);
#798=ORIENTED_EDGE('',*,*,#575,.T.);
#799=ORIENTED_EDGE('',*,*,#540,.T.);
#800=ORIENTED_EDGE('',*,*,#554,.T.);
#801=ORIENTED_EDGE('',*,*,#552,.T.);
#802=ORIENTED_EDGE('',*,*,#550,.T.);
#803=ORIENTED_EDGE('',*,*,#543,.T.);
#804=ORIENTED_EDGE('',*,*,#546,.T.);
#805=ORIENTED_EDGE('',*,*,#548,.T.);
#806=ORIENTED_EDGE('',*,*,#549,.T.);
#807=ORIENTED_EDGE('',*,*,#576,.T.);
#808=ORIENTED_EDGE('',*,*,#579,.T.);
#809=ORIENTED_EDGE('',*,*,#580,.T.);
#810=ORIENTED_EDGE('',*,*,#581,.T.);
#811=ORIENTED_EDGE('',*,*,#582,.T.);
#812=ORIENTED_EDGE('',*,*,#583,.T.);
#813=ORIENTED_EDGE('',*,*,#572,.T.);
#814=ORIENTED_EDGE('',*,*,#564,.T.);
#815=ORIENTED_EDGE('',*,*,#566,.T.);
#816=ORIENTED_EDGE('',*,*,#568,.T.);
#817=ORIENTED_EDGE('',*,*,#584,.T.);
#818=ORIENTED_EDGE('',*,*,#573,.T.);
#819=ORIENTED_EDGE('',*,*,#583,.F.);
#820=ORIENTED_EDGE('',*,*,#585,.F.);
#821=ORIENTED_EDGE('',*,*,#586,.T.);
#822=ORIENTED_EDGE('',*,*,#585,.T.);
#823=ORIENTED_EDGE('',*,*,#582,.F.);
#824=ORIENTED_EDGE('',*,*,#587,.T.);
#825=ORIENTED_EDGE('',*,*,#588,.T.);
#826=ORIENTED_EDGE('',*,*,#587,.F.);
#827=ORIENTED_EDGE('',*,*,#581,.F.);
#828=ORIENTED_EDGE('',*,*,#589,.T.);
#829=ORIENTED_EDGE('',*,*,#590,.T.);
#830=ORIENTED_EDGE('',*,*,#589,.F.);
#831=ORIENTED_EDGE('',*,*,#580,.F.);
#832=ORIENTED_EDGE('',*,*,#578,.T.);
#833=ORIENTED_EDGE('',*,*,#570,.F.);
#834=ORIENTED_EDGE('',*,*,#584,.F.);
#835=ORIENTED_EDGE('',*,*,#586,.F.);
#836=ORIENTED_EDGE('',*,*,#588,.F.);
#837=ORIENTED_EDGE('',*,*,#590,.F.);
#838=ORIENTED_EDGE('',*,*,#577,.F.);
#839=ORIENTED_EDGE('',*,*,#574,.F.);
#840=ORIENTED_EDGE('',*,*,#591,.T.);
#841=ORIENTED_EDGE('',*,*,#561,.T.);
#842=ORIENTED_EDGE('',*,*,#557,.T.);
#843=ORIENTED_EDGE('',*,*,#522,.F.);
#844=ORIENTED_EDGE('',*,*,#592,.F.);
#845=ORIENTED_EDGE('',*,*,#591,.F.);
#846=ORIENTED_EDGE('',*,*,#593,.T.);
#847=ORIENTED_EDGE('',*,*,#594,.T.);
#848=ORIENTED_EDGE('',*,*,#593,.F.);
#849=ORIENTED_EDGE('',*,*,#595,.T.);
#850=ORIENTED_EDGE('',*,*,#596,.T.);
#851=ORIENTED_EDGE('',*,*,#592,.T.);
#852=ORIENTED_EDGE('',*,*,#596,.F.);
#853=ORIENTED_EDGE('',*,*,#595,.F.);
#854=ORIENTED_EDGE('',*,*,#594,.F.);
#855=PLANE('',#945);
#856=PLANE('',#948);
#857=PLANE('',#952);
#858=PLANE('',#956);
#859=PLANE('',#957);
#860=PLANE('',#965);
#861=PLANE('',#966);
#862=PLANE('',#975);
#863=PLANE('',#979);
#864=PLANE('',#986);
#865=PLANE('',#995);
#866=PLANE('',#1001);
#867=PLANE('',#1002);
#868=PLANE('',#1003);
#869=PLANE('',#1023);
#870=PLANE('',#1024);
#871=PLANE('',#1025);
#872=PLANE('',#1026);
#873=PLANE('',#1027);
#874=PLANE('',#1031);
#875=PLANE('',#1032);
#876=PLANE('',#1033);
#877=PLANE('',#1034);
#878=PLANE('',#1036);
#879=PLANE('',#1042);
#880=ADVANCED_FACE('',(#207,#184),#855,.F.);
#881=ADVANCED_FACE('',(#208),#856,.T.);
#882=ADVANCED_FACE('',(#209),#857,.T.);
#883=ADVANCED_FACE('',(#210),#858,.F.);
#884=ADVANCED_FACE('',(#211),#859,.F.);
#885=ADVANCED_FACE('',(#212),#23,.T.);
#886=ADVANCED_FACE('',(#213),#21,.F.);
#887=ADVANCED_FACE('',(#214),#17,.T.);
#888=ADVANCED_FACE('',(#215),#860,.F.);
#889=ADVANCED_FACE('',(#216),#861,.F.);
#890=ADVANCED_FACE('',(#217),#18,.T.);
#891=ADVANCED_FACE('',(#218),#19,.T.);
#892=ADVANCED_FACE('',(#219),#24,.T.);
#893=ADVANCED_FACE('',(#220),#22,.F.);
#894=ADVANCED_FACE('',(#221),#20,.T.);
#895=ADVANCED_FACE('',(#222),#25,.T.);
#896=ADVANCED_FACE('',(#223),#862,.T.);
#897=ADVANCED_FACE('',(#224),#26,.F.);
#898=ADVANCED_FACE('',(#225),#863,.T.);
#899=ADVANCED_FACE('',(#226),#27,.F.);
#900=ADVANCED_FACE('',(#227),#28,.T.);
#901=ADVANCED_FACE('',(#228,#185,#186,#187,#188,#189,#190,#191,#192,#193),
#864,.T.);
#902=ADVANCED_FACE('',(#229,#194),#865,.F.);
#903=ADVANCED_FACE('',(#230),#29,.T.);
#904=ADVANCED_FACE('',(#231),#30,.F.);
#905=ADVANCED_FACE('',(#232),#866,.T.);
#906=ADVANCED_FACE('',(#233),#867,.T.);
#907=ADVANCED_FACE('',(#234),#868,.T.);
#908=ADVANCED_FACE('',(#235),#31,.F.);
#909=ADVANCED_FACE('',(#236),#32,.F.);
#910=ADVANCED_FACE('',(#237),#33,.F.);
#911=ADVANCED_FACE('',(#238),#34,.F.);
#912=ADVANCED_FACE('',(#239),#35,.F.);
#913=ADVANCED_FACE('',(#240),#36,.F.);
#914=ADVANCED_FACE('',(#241),#37,.F.);
#915=ADVANCED_FACE('',(#242),#38,.F.);
#916=ADVANCED_FACE('',(#243),#869,.T.);
#917=ADVANCED_FACE('',(#244),#870,.T.);
#918=ADVANCED_FACE('',(#245),#871,.F.);
#919=ADVANCED_FACE('',(#246),#872,.F.);
#920=ADVANCED_FACE('',(#247,#195,#196,#197,#198,#199,#200,#201,#202),#873,
 .F.);
#921=ADVANCED_FACE('',(#248),#39,.F.);
#922=ADVANCED_FACE('',(#249),#874,.T.);
#923=ADVANCED_FACE('',(#250),#875,.F.);
#924=ADVANCED_FACE('',(#251),#876,.F.);
#925=ADVANCED_FACE('',(#252,#203,#204),#877,.T.);
#926=ADVANCED_FACE('',(#253,#205),#878,.T.);
#927=ADVANCED_FACE('',(#254),#40,.F.);
#928=ADVANCED_FACE('',(#255),#41,.T.);
#929=ADVANCED_FACE('',(#256,#206),#879,.T.);
#930=CLOSED_SHELL('',(#880,#881,#882,#883,#884,#885,#886,#887,#888,#889,
#890,#891,#892,#893,#894,#895,#896,#897,#898));
#931=CLOSED_SHELL('',(#899,#900,#901,#902,#903,#904,#905,#906,#907,#908,
#909,#910,#911,#912,#913,#914,#915,#916,#917,#918,#919,#920,#921,#922,#923,
#924,#925,#926,#927,#928,#929));
#932=DERIVED_UNIT_ELEMENT(#934,1.);
#933=DERIVED_UNIT_ELEMENT(#1777,-3.);
#934=(
MASS_UNIT()
NAMED_UNIT(*)
SI_UNIT(.KILO.,.GRAM.)
);
#935=DERIVED_UNIT((#932,#933));
#936=MEASURE_REPRESENTATION_ITEM('density measure',
POSITIVE_RATIO_MEASURE(7850.),#935);
#937=PROPERTY_DEFINITION_REPRESENTATION(#942,#939);
#938=PROPERTY_DEFINITION_REPRESENTATION(#943,#940);
#939=REPRESENTATION('material name',(#941),#1774);
#940=REPRESENTATION('density',(#936),#1774);
#941=DESCRIPTIVE_REPRESENTATION_ITEM('\X2\94A2\X0\','\X2\94A2\X0\');
#942=PROPERTY_DEFINITION('material property','material name',#1784);
#943=PROPERTY_DEFINITION('material property','density of part',#1784);
#944=AXIS2_PLACEMENT_3D('',#1306,#1043,#1044);
#945=AXIS2_PLACEMENT_3D('',#1307,#1045,#1046);
#946=AXIS2_PLACEMENT_3D('',#1309,#1047,#1048);
#947=AXIS2_PLACEMENT_3D('',#1311,#1049,#1050);
#948=AXIS2_PLACEMENT_3D('',#1312,#1051,#1052);
#949=AXIS2_PLACEMENT_3D('',#1317,#1054,#1055);
#950=AXIS2_PLACEMENT_3D('',#1319,#1056,#1057);
#951=AXIS2_PLACEMENT_3D('',#1322,#1059,#1060);
#952=AXIS2_PLACEMENT_3D('',#1323,#1061,#1062);
#953=AXIS2_PLACEMENT_3D('',#1328,#1064,#1065);
#954=AXIS2_PLACEMENT_3D('',#1330,#1066,#1067);
#955=AXIS2_PLACEMENT_3D('',#1333,#1069,#1070);
#956=AXIS2_PLACEMENT_3D('',#1334,#1071,#1072);
#957=AXIS2_PLACEMENT_3D('',#1349,#1077,#1078);
#958=AXIS2_PLACEMENT_3D('',#1364,#1083,#1084);
#959=AXIS2_PLACEMENT_3D('',#1367,#1085,#1086);
#960=AXIS2_PLACEMENT_3D('',#1392,#1089,#1090);
#961=AXIS2_PLACEMENT_3D('',#1412,#1092,#1093);
#962=AXIS2_PLACEMENT_3D('',#1414,#1094,#1095);
#963=AXIS2_PLACEMENT_3D('',#1416,#1096,#1097);
#964=AXIS2_PLACEMENT_3D('',#1417,#1098,#1099);
#965=AXIS2_PLACEMENT_3D('',#1461,#1100,#1101);
#966=AXIS2_PLACEMENT_3D('',#1467,#1105,#1106);
#967=AXIS2_PLACEMENT_3D('',#1517,#1110,#1111);
#968=AXIS2_PLACEMENT_3D('',#1562,#1112,#1113);
#969=AXIS2_PLACEMENT_3D('',#1563,#1114,#1115);
#970=AXIS2_PLACEMENT_3D('',#1564,#1116,#1117);
#971=AXIS2_PLACEMENT_3D('',#1566,#1118,#1119);
#972=AXIS2_PLACEMENT_3D('',#1567,#1120,#1121);
#973=AXIS2_PLACEMENT_3D('',#1608,#1122,#1123);
#974=AXIS2_PLACEMENT_3D('',#1609,#1124,#1125);
#975=AXIS2_PLACEMENT_3D('',#1610,#1126,#1127);
#976=AXIS2_PLACEMENT_3D('',#1611,#1128,#1129);
#977=AXIS2_PLACEMENT_3D('',#1612,#1130,#1131);
#978=AXIS2_PLACEMENT_3D('',#1614,#1133,#1134);
#979=AXIS2_PLACEMENT_3D('',#1615,#1135,#1136);
#980=AXIS2_PLACEMENT_3D('',#1616,#1137,#1138);
#981=AXIS2_PLACEMENT_3D('',#1618,#1139,#1140);
#982=AXIS2_PLACEMENT_3D('',#1621,#1142,#1143);
#983=AXIS2_PLACEMENT_3D('',#1622,#1144,#1145);
#984=AXIS2_PLACEMENT_3D('',#1624,#1146,#1147);
#985=AXIS2_PLACEMENT_3D('',#1627,#1149,#1150);
#986=AXIS2_PLACEMENT_3D('',#1628,#1151,#1152);
#987=AXIS2_PLACEMENT_3D('',#1630,#1153,#1154);
#988=AXIS2_PLACEMENT_3D('',#1632,#1155,#1156);
#989=AXIS2_PLACEMENT_3D('',#1634,#1157,#1158);
#990=AXIS2_PLACEMENT_3D('',#1636,#1159,#1160);
#991=AXIS2_PLACEMENT_3D('',#1638,#1161,#1162);
#992=AXIS2_PLACEMENT_3D('',#1640,#1163,#1164);
#993=AXIS2_PLACEMENT_3D('',#1642,#1165,#1166);
#994=AXIS2_PLACEMENT_3D('',#1650,#1170,#1171);
#995=AXIS2_PLACEMENT_3D('',#1651,#1172,#1173);
#996=AXIS2_PLACEMENT_3D('',#1653,#1174,#1175);
#997=AXIS2_PLACEMENT_3D('',#1654,#1176,#1177);
#998=AXIS2_PLACEMENT_3D('',#1656,#1178,#1179);
#999=AXIS2_PLACEMENT_3D('',#1658,#1181,#1182);
#1000=AXIS2_PLACEMENT_3D('',#1662,#1184,#1185);
#1001=AXIS2_PLACEMENT_3D('',#1664,#1187,#1188);
#1002=AXIS2_PLACEMENT_3D('',#1668,#1191,#1192);
#1003=AXIS2_PLACEMENT_3D('',#1672,#1195,#1196);
#1004=AXIS2_PLACEMENT_3D('',#1674,#1198,#1199);
#1005=AXIS2_PLACEMENT_3D('',#1676,#1200,#1201);
#1006=AXIS2_PLACEMENT_3D('',#1678,#1203,#1204);
#1007=AXIS2_PLACEMENT_3D('',#1680,#1205,#1206);
#1008=AXIS2_PLACEMENT_3D('',#1682,#1208,#1209);
#1009=AXIS2_PLACEMENT_3D('',#1684,#1210,#1211);
#1010=AXIS2_PLACEMENT_3D('',#1686,#1213,#1214);
#1011=AXIS2_PLACEMENT_3D('',#1691,#1216,#1217);
#1012=AXIS2_PLACEMENT_3D('',#1694,#1219,#1220);
#1013=AXIS2_PLACEMENT_3D('',#1695,#1221,#1222);
#1014=AXIS2_PLACEMENT_3D('',#1697,#1223,#1224);
#1015=AXIS2_PLACEMENT_3D('',#1698,#1225,#1226);
#1016=AXIS2_PLACEMENT_3D('',#1699,#1227,#1228);
#1017=AXIS2_PLACEMENT_3D('',#1701,#1230,#1231);
#1018=AXIS2_PLACEMENT_3D('',#1703,#1232,#1233);
#1019=AXIS2_PLACEMENT_3D('',#1705,#1235,#1236);
#1020=AXIS2_PLACEMENT_3D('',#1707,#1237,#1238);
#1021=AXIS2_PLACEMENT_3D('',#1709,#1240,#1241);
#1022=AXIS2_PLACEMENT_3D('',#1711,#1242,#1243);
#1023=AXIS2_PLACEMENT_3D('',#1713,#1245,#1246);
#1024=AXIS2_PLACEMENT_3D('',#1714,#1247,#1248);
#1025=AXIS2_PLACEMENT_3D('',#1723,#1253,#1254);
#1026=AXIS2_PLACEMENT_3D('',#1729,#1258,#1259);
#1027=AXIS2_PLACEMENT_3D('',#1735,#1263,#1264);
#1028=AXIS2_PLACEMENT_3D('',#1742,#1268,#1269);
#1029=AXIS2_PLACEMENT_3D('',#1743,#1270,#1271);
#1030=AXIS2_PLACEMENT_3D('',#1745,#1272,#1273);
#1031=AXIS2_PLACEMENT_3D('',#1747,#1275,#1276);
#1032=AXIS2_PLACEMENT_3D('',#1751,#1279,#1280);
#1033=AXIS2_PLACEMENT_3D('',#1755,#1283,#1284);
#1034=AXIS2_PLACEMENT_3D('',#1757,#1286,#1287);
#1035=AXIS2_PLACEMENT_3D('',#1759,#1288,#1289);
#1036=AXIS2_PLACEMENT_3D('',#1760,#1290,#1291);
#1037=AXIS2_PLACEMENT_3D('',#1762,#1292,#1293);
#1038=AXIS2_PLACEMENT_3D('',#1763,#1294,#1295);
#1039=AXIS2_PLACEMENT_3D('',#1766,#1297,#1298);
#1040=AXIS2_PLACEMENT_3D('',#1767,#1299,#1300);
#1041=AXIS2_PLACEMENT_3D('',#1769,#1301,#1302);
#1042=AXIS2_PLACEMENT_3D('',#1771,#1304,#1305);
#1043=DIRECTION('axis',(0.,0.,1.));
#1044=DIRECTION('refdir',(1.,0.,0.));
#1045=DIRECTION('center_axis',(0.,0.,1.));
#1046=DIRECTION('ref_axis',(1.,0.,0.));
#1047=DIRECTION('center_axis',(0.,0.,1.));
#1048=DIRECTION('ref_axis',(-1.,0.,0.));
#1049=DIRECTION('center_axis',(0.,0.,-1.));
#1050=DIRECTION('ref_axis',(1.,0.,0.));
#1051=DIRECTION('center_axis',(0.,0.,1.));
#1052=DIRECTION('ref_axis',(-1.,0.,0.));
#1053=DIRECTION('',(-0.924713126668189,-0.380664725667539,0.));
#1054=DIRECTION('center_axis',(0.,0.,-1.));
#1055=DIRECTION('ref_axis',(1.,0.,0.));
#1056=DIRECTION('center_axis',(0.,0.,-1.));
#1057=DIRECTION('ref_axis',(1.,0.,0.));
#1058=DIRECTION('',(0.924713126668188,-0.38066472566754,0.));
#1059=DIRECTION('center_axis',(0.,0.,1.));
#1060=DIRECTION('ref_axis',(-1.,0.,0.));
#1061=DIRECTION('center_axis',(0.,0.,1.));
#1062=DIRECTION('ref_axis',(-1.,0.,0.));
#1063=DIRECTION('',(-0.924713126668209,0.380664725667488,0.));
#1064=DIRECTION('center_axis',(0.,0.,1.));
#1065=DIRECTION('ref_axis',(-1.,0.,0.));
#1066=DIRECTION('center_axis',(0.,0.,1.));
#1067=DIRECTION('ref_axis',(-1.,0.,0.));
#1068=DIRECTION('',(0.924713126668181,0.380664725667558,0.));
#1069=DIRECTION('center_axis',(0.,0.,-1.));
#1070=DIRECTION('ref_axis',(1.,0.,0.));
#1071=DIRECTION('center_axis',(-0.380664725667488,-0.924713126668209,0.));
#1072=DIRECTION('ref_axis',(-0.924713126668209,0.380664725667488,0.));
#1073=DIRECTION('',(0.,0.,-1.));
#1074=DIRECTION('',(-0.924713126668209,0.380664725667488,0.));
#1075=DIRECTION('',(0.,0.,1.));
#1076=DIRECTION('',(0.,0.,-1.));
#1077=DIRECTION('center_axis',(-0.380664725667558,0.924713126668181,0.));
#1078=DIRECTION('ref_axis',(0.924713126668181,0.380664725667558,0.));
#1079=DIRECTION('',(0.,0.,1.));
#1080=DIRECTION('',(0.,0.,-1.));
#1081=DIRECTION('',(0.924713126668181,0.380664725667558,0.));
#1082=DIRECTION('',(0.,0.,1.));
#1083=DIRECTION('center_axis',(0.,0.,-1.));
#1084=DIRECTION('ref_axis',(-1.,0.,0.));
#1085=DIRECTION('center_axis',(0.,0.,1.));
#1086=DIRECTION('ref_axis',(-1.,0.,0.));
#1087=DIRECTION('',(0.,0.,1.));
#1088=DIRECTION('',(0.,0.,-1.));
#1089=DIRECTION('center_axis',(0.,0.,1.));
#1090=DIRECTION('ref_axis',(-1.,0.,0.));
#1091=DIRECTION('',(0.,0.,-1.));
#1092=DIRECTION('center_axis',(0.,0.,1.));
#1093=DIRECTION('ref_axis',(1.,0.,0.));
#1094=DIRECTION('center_axis',(-0.442603096210586,-0.896717625133355,-7.46146500027252E-16));
#1095=DIRECTION('ref_axis',(0.586315370281181,-0.289394332138519,-0.756627522033228));
#1096=DIRECTION('center_axis',(0.,0.,-1.));
#1097=DIRECTION('ref_axis',(-3.8359906236829E-15,1.,0.));
#1098=DIRECTION('center_axis',(0.442603096209867,-0.896717625133709,2.03494500006785E-16));
#1099=DIRECTION('ref_axis',(-0.896717625133709,-0.442603096209867,0.));
#1100=DIRECTION('center_axis',(0.38066472566754,0.924713126668188,0.));
#1101=DIRECTION('ref_axis',(0.924713126668188,-0.38066472566754,0.));
#1102=DIRECTION('',(0.,0.,-1.));
#1103=DIRECTION('',(0.924713126668188,-0.38066472566754,0.));
#1104=DIRECTION('',(0.,0.,1.));
#1105=DIRECTION('center_axis',(0.380664725667539,-0.924713126668189,0.));
#1106=DIRECTION('ref_axis',(-0.924713126668189,-0.380664725667539,0.));
#1107=DIRECTION('',(0.,0.,-1.));
#1108=DIRECTION('',(-0.924713126668189,-0.380664725667539,0.));
#1109=DIRECTION('',(0.,0.,1.));
#1110=DIRECTION('center_axis',(-0.442603096209858,0.896717625133714,4.0698900001357E-16));
#1111=DIRECTION('ref_axis',(0.896717625133714,0.442603096209858,0.));
#1112=DIRECTION('center_axis',(0.,0.,-1.));
#1113=DIRECTION('ref_axis',(-1.,0.,0.));
#1114=DIRECTION('center_axis',(0.,0.,1.));
#1115=DIRECTION('ref_axis',(-1.,0.,0.));
#1116=DIRECTION('center_axis',(0.,0.,1.));
#1117=DIRECTION('ref_axis',(1.,0.,0.));
#1118=DIRECTION('center_axis',(0.442603096210563,0.896717625133366,0.));
#1119=DIRECTION('ref_axis',(-0.586315370281186,0.289394332138504,-0.756627522033229));
#1120=DIRECTION('center_axis',(0.,0.,-1.));
#1121=DIRECTION('ref_axis',(1.05969086964441E-14,-1.,0.));
#1122=DIRECTION('center_axis',(0.,0.,-1.));
#1123=DIRECTION('ref_axis',(-1.,0.,0.));
#1124=DIRECTION('center_axis',(0.,0.,1.));
#1125=DIRECTION('ref_axis',(-1.,0.,0.));
#1126=DIRECTION('center_axis',(0.,0.,1.));
#1127=DIRECTION('ref_axis',(1.,0.,0.));
#1128=DIRECTION('center_axis',(0.,0.,-1.));
#1129=DIRECTION('ref_axis',(1.,0.,0.));
#1130=DIRECTION('center_axis',(0.,0.,1.));
#1131=DIRECTION('ref_axis',(1.,0.,0.));
#1132=DIRECTION('',(0.,0.,1.));
#1133=DIRECTION('center_axis',(0.,0.,-1.));
#1134=DIRECTION('ref_axis',(1.,0.,0.));
#1135=DIRECTION('center_axis',(0.,0.,1.));
#1136=DIRECTION('ref_axis',(1.,0.,0.));
#1137=DIRECTION('center_axis',(0.,0.,1.));
#1138=DIRECTION('ref_axis',(1.,0.,0.));
#1139=DIRECTION('center_axis',(0.,0.,-1.));
#1140=DIRECTION('ref_axis',(1.,0.,0.));
#1141=DIRECTION('',(0.,0.,1.));
#1142=DIRECTION('center_axis',(0.,0.,-1.));
#1143=DIRECTION('ref_axis',(1.,0.,0.));
#1144=DIRECTION('center_axis',(0.,0.,1.));
#1145=DIRECTION('ref_axis',(1.,0.,0.));
#1146=DIRECTION('center_axis',(0.,0.,1.));
#1147=DIRECTION('ref_axis',(1.,0.,0.));
#1148=DIRECTION('',(0.,0.,-1.));
#1149=DIRECTION('center_axis',(0.,0.,1.));
#1150=DIRECTION('ref_axis',(1.,0.,0.));
#1151=DIRECTION('center_axis',(0.,0.,1.));
#1152=DIRECTION('ref_axis',(1.,0.,0.));
#1153=DIRECTION('center_axis',(0.,0.,-1.));
#1154=DIRECTION('ref_axis',(1.,0.,0.));
#1155=DIRECTION('center_axis',(0.,0.,-1.));
#1156=DIRECTION('ref_axis',(1.,0.,0.));
#1157=DIRECTION('center_axis',(0.,0.,-1.));
#1158=DIRECTION('ref_axis',(1.,0.,0.));
#1159=DIRECTION('center_axis',(0.,0.,-1.));
#1160=DIRECTION('ref_axis',(1.,0.,0.));
#1161=DIRECTION('center_axis',(0.,0.,-1.));
#1162=DIRECTION('ref_axis',(1.,0.,0.));
#1163=DIRECTION('center_axis',(0.,0.,-1.));
#1164=DIRECTION('ref_axis',(1.,0.,0.));
#1165=DIRECTION('center_axis',(0.,0.,-1.));
#1166=DIRECTION('ref_axis',(1.,0.,0.));
#1167=DIRECTION('',(1.,0.,0.));
#1168=DIRECTION('',(1.7874590696465E-13,-1.,0.));
#1169=DIRECTION('',(-1.,0.,0.));
#1170=DIRECTION('center_axis',(0.,0.,-1.));
#1171=DIRECTION('ref_axis',(1.,0.,0.));
#1172=DIRECTION('center_axis',(0.,0.,1.));
#1173=DIRECTION('ref_axis',(1.,0.,0.));
#1174=DIRECTION('center_axis',(0.,0.,1.));
#1175=DIRECTION('ref_axis',(1.,0.,0.));
#1176=DIRECTION('center_axis',(0.,0.,-1.));
#1177=DIRECTION('ref_axis',(1.,0.,0.));
#1178=DIRECTION('center_axis',(0.,0.,-1.));
#1179=DIRECTION('ref_axis',(1.,0.,0.));
#1180=DIRECTION('',(0.,0.,1.));
#1181=DIRECTION('center_axis',(0.,0.,-1.));
#1182=DIRECTION('ref_axis',(-1.,-1.22464679914735E-16,0.));
#1183=DIRECTION('',(0.,0.,1.));
#1184=DIRECTION('center_axis',(0.,0.,1.));
#1185=DIRECTION('ref_axis',(1.,0.,0.));
#1186=DIRECTION('',(0.,0.,-1.));
#1187=DIRECTION('center_axis',(0.,1.,0.));
#1188=DIRECTION('ref_axis',(1.,0.,0.));
#1189=DIRECTION('',(0.,0.,1.));
#1190=DIRECTION('',(1.,0.,0.));
#1191=DIRECTION('center_axis',(-1.,-1.7874590696465E-13,0.));
#1192=DIRECTION('ref_axis',(-1.7874590696465E-13,1.,0.));
#1193=DIRECTION('',(0.,0.,1.));
#1194=DIRECTION('',(-1.7874590696465E-13,1.,0.));
#1195=DIRECTION('center_axis',(0.,-1.,0.));
#1196=DIRECTION('ref_axis',(-1.,0.,0.));
#1197=DIRECTION('',(-1.,0.,0.));
#1198=DIRECTION('center_axis',(0.,0.,-1.));
#1199=DIRECTION('ref_axis',(1.,0.,0.));
#1200=DIRECTION('center_axis',(0.,0.,1.));
#1201=DIRECTION('ref_axis',(1.,0.,0.));
#1202=DIRECTION('',(0.,0.,1.));
#1203=DIRECTION('center_axis',(0.,0.,-1.));
#1204=DIRECTION('ref_axis',(1.,0.,0.));
#1205=DIRECTION('center_axis',(0.,0.,1.));
#1206=DIRECTION('ref_axis',(1.,0.,0.));
#1207=DIRECTION('',(0.,0.,1.));
#1208=DIRECTION('center_axis',(0.,0.,-1.));
#1209=DIRECTION('ref_axis',(1.,0.,0.));
#1210=DIRECTION('center_axis',(0.,0.,1.));
#1211=DIRECTION('ref_axis',(1.,0.,0.));
#1212=DIRECTION('',(0.,0.,1.));
#1213=DIRECTION('center_axis',(0.,0.,-1.));
#1214=DIRECTION('ref_axis',(-0.707106781186548,-0.707106781186547,0.));
#1215=DIRECTION('',(0.,0.,-1.));
#1216=DIRECTION('center_axis',(0.,0.,1.));
#1217=DIRECTION('ref_axis',(1.,0.,0.));
#1218=DIRECTION('',(0.,0.,1.));
#1219=DIRECTION('center_axis',(0.,0.,1.));
#1220=DIRECTION('ref_axis',(1.,0.,0.));
#1221=DIRECTION('center_axis',(0.,0.,1.));
#1222=DIRECTION('ref_axis',(1.,0.,0.));
#1223=DIRECTION('center_axis',(0.,0.,1.));
#1224=DIRECTION('ref_axis',(1.,0.,0.));
#1225=DIRECTION('center_axis',(0.,0.,1.));
#1226=DIRECTION('ref_axis',(1.,0.,0.));
#1227=DIRECTION('center_axis',(0.,0.,1.));
#1228=DIRECTION('ref_axis',(1.,0.,0.));
#1229=DIRECTION('',(0.,0.,1.));
#1230=DIRECTION('center_axis',(0.,0.,1.));
#1231=DIRECTION('ref_axis',(1.,0.,0.));
#1232=DIRECTION('center_axis',(0.,0.,1.));
#1233=DIRECTION('ref_axis',(1.,0.,0.));
#1234=DIRECTION('',(0.,0.,1.));
#1235=DIRECTION('center_axis',(0.,0.,1.));
#1236=DIRECTION('ref_axis',(1.,0.,0.));
#1237=DIRECTION('center_axis',(0.,0.,1.));
#1238=DIRECTION('ref_axis',(1.,0.,0.));
#1239=DIRECTION('',(0.,0.,1.));
#1240=DIRECTION('center_axis',(0.,0.,1.));
#1241=DIRECTION('ref_axis',(1.,0.,0.));
#1242=DIRECTION('center_axis',(0.,0.,1.));
#1243=DIRECTION('ref_axis',(1.,0.,0.));
#1244=DIRECTION('',(0.,0.,1.));
#1245=DIRECTION('center_axis',(0.,0.,1.));
#1246=DIRECTION('ref_axis',(1.,0.,0.));
#1247=DIRECTION('center_axis',(0.707106781186547,-0.707106781186548,0.));
#1248=DIRECTION('ref_axis',(-0.707106781186548,-0.707106781186547,0.));
#1249=DIRECTION('',(-0.707106781186548,-0.707106781186547,0.));
#1250=DIRECTION('',(0.,0.,-1.));
#1251=DIRECTION('',(-0.707106781186548,-0.707106781186547,0.));
#1252=DIRECTION('',(0.,0.,-1.));
#1253=DIRECTION('center_axis',(0.,1.,0.));
#1254=DIRECTION('ref_axis',(-1.,0.,0.));
#1255=DIRECTION('',(-1.,0.,0.));
#1256=DIRECTION('',(0.,0.,1.));
#1257=DIRECTION('',(-1.,0.,0.));
#1258=DIRECTION('center_axis',(-1.,-1.30614473485313E-16,0.));
#1259=DIRECTION('ref_axis',(1.30614473485313E-16,-1.,0.));
#1260=DIRECTION('',(1.30614473485313E-16,-1.,0.));
#1261=DIRECTION('',(0.,0.,1.));
#1262=DIRECTION('',(1.30614473485313E-16,-1.,0.));
#1263=DIRECTION('center_axis',(0.,0.,1.));
#1264=DIRECTION('ref_axis',(1.,0.,0.));
#1265=DIRECTION('',(1.,0.,0.));
#1266=DIRECTION('',(0.,1.,0.));
#1267=DIRECTION('',(0.707106781186542,0.707106781186553,0.));
#1268=DIRECTION('center_axis',(0.,0.,1.));
#1269=DIRECTION('ref_axis',(1.,0.,0.));
#1270=DIRECTION('center_axis',(0.,0.,-1.));
#1271=DIRECTION('ref_axis',(1.,0.,0.));
#1272=DIRECTION('center_axis',(0.,0.,1.));
#1273=DIRECTION('ref_axis',(1.,0.,0.));
#1274=DIRECTION('',(0.,0.,-1.));
#1275=DIRECTION('center_axis',(-0.707106781186547,0.707106781186548,0.));
#1276=DIRECTION('ref_axis',(0.707106781186548,0.707106781186547,0.));
#1277=DIRECTION('',(0.707106781186548,0.707106781186547,0.));
#1278=DIRECTION('',(0.,0.,1.));
#1279=DIRECTION('center_axis',(1.,0.,0.));
#1280=DIRECTION('ref_axis',(0.,1.,0.));
#1281=DIRECTION('',(0.,1.,0.));
#1282=DIRECTION('',(0.,0.,1.));
#1283=DIRECTION('center_axis',(0.,-1.,0.));
#1284=DIRECTION('ref_axis',(1.,0.,0.));
#1285=DIRECTION('',(1.,0.,0.));
#1286=DIRECTION('center_axis',(0.,0.,-1.));
#1287=DIRECTION('ref_axis',(1.,0.,0.));
#1288=DIRECTION('center_axis',(0.,0.,1.));
#1289=DIRECTION('ref_axis',(1.,0.,0.));
#1290=DIRECTION('center_axis',(0.,0.,1.));
#1291=DIRECTION('ref_axis',(1.,0.,0.));
#1292=DIRECTION('center_axis',(0.,0.,1.));
#1293=DIRECTION('ref_axis',(-1.,0.,0.));
#1294=DIRECTION('center_axis',(0.,0.,1.));
#1295=DIRECTION('ref_axis',(1.,0.,0.));
#1296=DIRECTION('',(0.,0.,1.));
#1297=DIRECTION('center_axis',(0.,0.,1.));
#1298=DIRECTION('ref_axis',(1.,0.,0.));
#1299=DIRECTION('center_axis',(0.,0.,-1.));
#1300=DIRECTION('ref_axis',(-1.,0.,0.));
#1301=DIRECTION('center_axis',(0.,0.,-1.));
#1302=DIRECTION('ref_axis',(-1.,0.,0.));
#1303=DIRECTION('',(0.,0.,-1.));
#1304=DIRECTION('center_axis',(0.,0.,1.));
#1305=DIRECTION('ref_axis',(1.,0.,0.));
#1306=CARTESIAN_POINT('',(0.,0.,0.));
#1307=CARTESIAN_POINT('Origin',(0.,0.,11.));
#1308=CARTESIAN_POINT('',(2.75,-1.97999991687378E-16,11.));
#1309=CARTESIAN_POINT('Origin',(0.,1.38777878078145E-16,11.));
#1310=CARTESIAN_POINT('',(-1.5,1.83697019872103E-16,11.));
#1311=CARTESIAN_POINT('Origin',(0.,0.,11.));
#1312=CARTESIAN_POINT('Origin',(-1.98210678118655,6.93889390390723E-16,
17.));
#1313=CARTESIAN_POINT('',(-1.4142135623731,-0.499999999999999,17.));
#1314=CARTESIAN_POINT('',(-2.57091486583467,-0.976164306164847,17.));
#1315=CARTESIAN_POINT('',(-1.56901329133009,-0.563724407772973,17.));
#1316=CARTESIAN_POINT('',(-1.5,-1.83697019872103E-16,17.));
#1317=CARTESIAN_POINT('Origin',(0.,0.,17.));
#1318=CARTESIAN_POINT('',(-1.4142135623731,0.500000000000001,17.));
#1319=CARTESIAN_POINT('Origin',(0.,0.,17.));
#1320=CARTESIAN_POINT('',(-2.57091486583467,0.976164306164849,17.));
#1321=CARTESIAN_POINT('',(-2.05485453918756,0.763724407772975,17.));
#1322=CARTESIAN_POINT('Origin',(0.,1.38777878078145E-16,17.));
#1323=CARTESIAN_POINT('Origin',(-1.98210678118655,6.93889390390723E-16,
17.));
#1324=CARTESIAN_POINT('',(2.57091486583469,-0.976164306164784,17.));
#1325=CARTESIAN_POINT('',(1.4142135623731,-0.5,17.));
#1326=CARTESIAN_POINT('',(0.35996619653092,-0.0660115848577356,17.));
#1327=CARTESIAN_POINT('',(2.75,-1.97999991687378E-16,17.));
#1328=CARTESIAN_POINT('Origin',(0.,1.38777878078145E-16,17.));
#1329=CARTESIAN_POINT('',(2.57091486583466,0.976164306164873,17.));
#1330=CARTESIAN_POINT('Origin',(0.,1.38777878078145E-16,17.));
#1331=CARTESIAN_POINT('',(1.4142135623731,0.5,17.));
#1332=CARTESIAN_POINT('',(-0.125875051326494,-0.133988415142347,17.));
#1333=CARTESIAN_POINT('Origin',(0.,0.,17.));
#1334=CARTESIAN_POINT('Origin',(2.38589605808808,-0.899999999999957,19.));
#1335=CARTESIAN_POINT('',(1.4142135623731,-0.5,19.));
#1336=CARTESIAN_POINT('',(1.4142135623731,-0.5,-2.));
#1337=CARTESIAN_POINT('',(2.38589605808808,-0.899999999999957,19.));
#1338=CARTESIAN_POINT('',(1.20741036785926,-0.414867996315343,19.));
#1339=CARTESIAN_POINT('',(2.38589605808646,-0.900000000004172,18.3076130259201));
#1340=CARTESIAN_POINT('',(2.38589605808805,-0.899999999999946,19.));
#1341=CARTESIAN_POINT('',(2.57091486583525,-0.976164306165031,17.7361322339208));
#1342=CARTESIAN_POINT('Ctrl Pts',(2.57091486583582,-0.976164306165247,17.7361322339208));
#1343=CARTESIAN_POINT('Ctrl Pts',(2.51812724023958,-0.954433905204432,17.8206463429311));
#1344=CARTESIAN_POINT('Ctrl Pts',(2.46675705057688,-0.933287001803481,17.9179741476769));
#1345=CARTESIAN_POINT('Ctrl Pts',(2.40232092236562,-0.906761412016525,18.1184041028431));
#1346=CARTESIAN_POINT('Ctrl Pts',(2.38589605808805,-0.899999999999946,18.2121290143204));
#1347=CARTESIAN_POINT('Ctrl Pts',(2.38589605808805,-0.899999999999946,18.3076130259158));
#1348=CARTESIAN_POINT('',(2.57091486583469,-0.976164306164784,19.));
#1349=CARTESIAN_POINT('Origin',(1.4142135623731,0.5,19.));
#1350=CARTESIAN_POINT('',(2.57091486584997,0.976164306171675,17.7361322338731));
#1351=CARTESIAN_POINT('',(2.57091486583466,0.976164306164873,19.));
#1352=CARTESIAN_POINT('',(2.38589605808802,0.900000000000023,18.3076130259158));
#1353=CARTESIAN_POINT('Ctrl Pts',(2.38589605808802,0.900000000000021,18.3076130259158));
#1354=CARTESIAN_POINT('Ctrl Pts',(2.38589605808802,0.900000000000021,18.2261069704806));
#1355=CARTESIAN_POINT('Ctrl Pts',(2.39738033072517,0.904727582389451,18.1171698771831));
#1356=CARTESIAN_POINT('Ctrl Pts',(2.48035097495942,0.938883037324639,17.892660311355));
#1357=CARTESIAN_POINT('Ctrl Pts',(2.52493578207389,0.957236689803133,17.8097457229364));
#1358=CARTESIAN_POINT('Ctrl Pts',(2.57091486586561,0.976164306177612,17.7361322338731));
#1359=CARTESIAN_POINT('',(2.38589605808808,0.900000000000043,19.));
#1360=CARTESIAN_POINT('',(2.38589605808802,0.90000000000002,19.));
#1361=CARTESIAN_POINT('',(1.4142135623731,0.5,19.));
#1362=CARTESIAN_POINT('',(0.721569120001796,0.214867996315313,19.));
#1363=CARTESIAN_POINT('',(1.41421356237309,0.5,-2.));
#1364=CARTESIAN_POINT('Origin',(0.,1.38777878078145E-16,19.));
#1365=CARTESIAN_POINT('',(-2.46597346911771,-1.21715851457711,17.8961083588203));
#1366=CARTESIAN_POINT('',(2.46597346911676,-1.21715851457905,17.8961083588211));
#1367=CARTESIAN_POINT('Origin',(0.,0.,17.8961083588203));
#1368=CARTESIAN_POINT('',(-2.57091486584998,-0.97616430617165,17.7361322338731));
#1369=CARTESIAN_POINT('Ctrl Pts',(-2.57091486584277,-0.976164306143511,
17.7361322338894));
#1370=CARTESIAN_POINT('Ctrl Pts',(-2.5649802547513,-0.991794236250609,17.7604828906244));
#1371=CARTESIAN_POINT('Ctrl Pts',(-2.55814280077475,-1.00938146662161,17.7832990085967));
#1372=CARTESIAN_POINT('Ctrl Pts',(-2.53776290175241,-1.05989260591128,17.8361977816197));
#1373=CARTESIAN_POINT('Ctrl Pts',(-2.52370004159903,-1.09306694053534,17.8599549541281));
#1374=CARTESIAN_POINT('Ctrl Pts',(-2.49429126728641,-1.15854733245378,17.8898271372518));
#1375=CARTESIAN_POINT('Ctrl Pts',(-2.47970234972967,-1.1893436860693,17.8961083588203));
#1376=CARTESIAN_POINT('Ctrl Pts',(-2.46597346911768,-1.21715851457718,17.8961083588203));
#1377=CARTESIAN_POINT('',(-2.57091486583467,-0.976164306164847,19.));
#1378=CARTESIAN_POINT('',(-2.57091486583523,0.976164306165097,17.7361322339208));
#1379=CARTESIAN_POINT('',(-2.57091486583467,0.976164306164849,19.));
#1380=CARTESIAN_POINT('',(-2.46597346911676,1.21715851457913,17.896108358821));
#1381=CARTESIAN_POINT('Ctrl Pts',(-2.46597346911732,1.21715851457791,17.8961083588203));
#1382=CARTESIAN_POINT('Ctrl Pts',(-2.47316617878578,1.2025860238127,17.8961083588204));
#1383=CARTESIAN_POINT('Ctrl Pts',(-2.48022671202839,1.18795198714459,17.8943869471636));
#1384=CARTESIAN_POINT('Ctrl Pts',(-2.49487897552486,1.15689967346702,17.8874606113679));
#1385=CARTESIAN_POINT('Ctrl Pts',(-2.50236702259861,1.14059535918797,17.8817773305408));
#1386=CARTESIAN_POINT('Ctrl Pts',(-2.52512297823524,1.08982807024946,17.858138837667));
#1387=CARTESIAN_POINT('Ctrl Pts',(-2.53965074020174,1.05539171382836,17.8327186125819));
#1388=CARTESIAN_POINT('Ctrl Pts',(-2.55921166772604,1.00661230440348,17.7795683922999));
#1389=CARTESIAN_POINT('Ctrl Pts',(-2.56537502566596,0.990754531759206,17.7588630825343));
#1390=CARTESIAN_POINT('Ctrl Pts',(-2.57091486583497,0.976164306164072,17.7361322339214));
#1391=CARTESIAN_POINT('',(2.4659734691177,1.21715851457713,17.8961083588203));
#1392=CARTESIAN_POINT('Origin',(0.,0.,17.8961083588203));
#1393=CARTESIAN_POINT('Ctrl Pts',(2.57091486584276,0.976164306143534,17.7361322338894));
#1394=CARTESIAN_POINT('Ctrl Pts',(2.56498026332099,0.991794213680691,17.7604828554615));
#1395=CARTESIAN_POINT('Ctrl Pts',(2.55814281753001,1.0093814236,17.7832989534004));
#1396=CARTESIAN_POINT('Ctrl Pts',(2.53776292265259,1.05989255647194,17.836197745871));
#1397=CARTESIAN_POINT('Ctrl Pts',(2.52370005340246,1.09306691417895,17.8599549417438));
#1398=CARTESIAN_POINT('Ctrl Pts',(2.49429126793295,1.15854733108571,17.8898271369696));
#1399=CARTESIAN_POINT('Ctrl Pts',(2.4797023500382,1.18934368544423,17.8961083588203));
#1400=CARTESIAN_POINT('Ctrl Pts',(2.46597346911766,1.21715851457721,17.8961083588203));
#1401=CARTESIAN_POINT('',(2.75,-1.97999991687378E-16,19.));
#1402=CARTESIAN_POINT('Ctrl Pts',(2.46597346911735,-1.21715851457785,17.8961083588203));
#1403=CARTESIAN_POINT('Ctrl Pts',(2.47316618036614,-1.20258602061088,17.8961083588204));
#1404=CARTESIAN_POINT('Ctrl Pts',(2.48022671512691,-1.1879519807209,17.8943869464089));
#1405=CARTESIAN_POINT('Ctrl Pts',(2.49487899575021,-1.15689963043902,17.8874606009888));
#1406=CARTESIAN_POINT('Ctrl Pts',(2.50236705703854,-1.1405952841136,17.8817773040204));
#1407=CARTESIAN_POINT('Ctrl Pts',(2.52512301546451,-1.08982798328728,17.8581387784459));
#1408=CARTESIAN_POINT('Ctrl Pts',(2.53965076756422,-1.05539164728858,17.8327185519916));
#1409=CARTESIAN_POINT('Ctrl Pts',(2.55921167914132,-1.00661227503632,17.7795683539699));
#1410=CARTESIAN_POINT('Ctrl Pts',(2.56537503080577,-0.990754518222536,17.758863061445));
#1411=CARTESIAN_POINT('Ctrl Pts',(2.57091486583499,-0.976164306164009,17.7361322339214));
#1412=CARTESIAN_POINT('Origin',(0.,0.,18.3651499348027));
#1413=CARTESIAN_POINT('',(-2.28662994409005,1.12863789533699,18.3651499348027));
#1414=CARTESIAN_POINT('Origin',(-2.86949640042673,1.41632990787387,18.3651499348027));
#1415=CARTESIAN_POINT('',(2.28662994409096,1.12863789533516,18.3651499348027));
#1416=CARTESIAN_POINT('Origin',(0.,0.,18.3651499348027));
#1417=CARTESIAN_POINT('Origin',(2.86949640042787,1.41632990787157,18.3651499348027));
#1418=CARTESIAN_POINT('Ctrl Pts',(-2.68633639009633,1.09373679464259,17.6663249578119));
#1419=CARTESIAN_POINT('Ctrl Pts',(-2.68229444007142,1.09599175984336,17.6734976540579));
#1420=CARTESIAN_POINT('Ctrl Pts',(-2.67398710648028,1.10061755886848,17.6875790408607));
#1421=CARTESIAN_POINT('Ctrl Pts',(-2.65668916376893,1.11022505132702,17.714489926339));
#1422=CARTESIAN_POINT('Ctrl Pts',(-2.63365475760237,1.12300274589696,17.7462807128557));
#1423=CARTESIAN_POINT('Ctrl Pts',(-2.57419718230392,1.1560182425423,17.8168654778316));
#1424=CARTESIAN_POINT('Ctrl Pts',(-2.51691660993128,1.188176125221,17.8645882049595));
#1425=CARTESIAN_POINT('Ctrl Pts',(-2.46597346911782,1.21715851457816,17.8961083588198));
#1426=CARTESIAN_POINT('Ctrl Pts',(-2.52011273453636,0.961755605170201,17.7378497723371));
#1427=CARTESIAN_POINT('Ctrl Pts',(-2.51721748380361,0.964769942123151,17.7469761816852));
#1428=CARTESIAN_POINT('Ctrl Pts',(-2.51120879184541,0.97107355428638,17.7649215739684));
#1429=CARTESIAN_POINT('Ctrl Pts',(-2.4986507034754,0.98451118651158,17.7993172269417));
#1430=CARTESIAN_POINT('Ctrl Pts',(-2.48171380352983,1.00321628443448,17.8400063772054));
#1431=CARTESIAN_POINT('Ctrl Pts',(-2.4377541289332,1.05373076461945,17.9297546459994));
#1432=CARTESIAN_POINT('Ctrl Pts',(-2.39323533902642,1.10958886140818,17.9870285469588));
#1433=CARTESIAN_POINT('Ctrl Pts',(-2.35295684366176,1.1613756159847,18.0170254811596));
#1434=CARTESIAN_POINT('Ctrl Pts',(-2.43867501991509,0.765496305520026,17.8751237996822));
#1435=CARTESIAN_POINT('Ctrl Pts',(-2.43655371626741,0.771548736749317,17.8873311009833));
#1436=CARTESIAN_POINT('Ctrl Pts',(-2.43206247730564,0.78415076249763,17.9112256309073));
#1437=CARTESIAN_POINT('Ctrl Pts',(-2.42238171265002,0.810934546328697,17.9565264483156));
#1438=CARTESIAN_POINT('Ctrl Pts',(-2.40862998374897,0.847780227333591,18.0088517353785));
#1439=CARTESIAN_POINT('Ctrl Pts',(-2.37089664416304,0.945655061444962,18.1193809371575));
#1440=CARTESIAN_POINT('Ctrl Pts',(-2.3272016847899,1.04585995732986,18.1751996628086));
#1441=CARTESIAN_POINT('Ctrl Pts',(-2.28662994409027,1.12863789533655,18.1904918692004));
#1442=CARTESIAN_POINT('Ctrl Pts',(-2.47952900599255,0.595345201073797,18.014926126603));
#1443=CARTESIAN_POINT('Ctrl Pts',(-2.47725209390031,0.604828219609314,18.0302447149055));
#1444=CARTESIAN_POINT('Ctrl Pts',(-2.47240074506407,0.624508231223661,18.0601443196295));
#1445=CARTESIAN_POINT('Ctrl Pts',(-2.46161161269928,0.666199451629937,18.1164152889434));
#1446=CARTESIAN_POINT('Ctrl Pts',(-2.44564929626348,0.72304175422893,18.1803831879179));
#1447=CARTESIAN_POINT('Ctrl Pts',(-2.39940641789909,0.87231639539255,18.3114166853838));
#1448=CARTESIAN_POINT('Ctrl Pts',(-2.34150808939471,1.01745430771496,18.3651499348031));
#1449=CARTESIAN_POINT('Ctrl Pts',(-2.28662994409005,1.128637895337,18.3651499348027));
#1450=CARTESIAN_POINT('',(-2.38589605808644,0.900000000004225,18.3076130259201));
#1451=CARTESIAN_POINT('Ctrl Pts',(-2.5709148658358,0.976164306165313,17.7361322339208));
#1452=CARTESIAN_POINT('Ctrl Pts',(-2.51812830483937,0.954434343454566,17.8206446384843));
#1453=CARTESIAN_POINT('Ctrl Pts',(-2.46675929127336,0.933287924202189,17.9179699619443));
#1454=CARTESIAN_POINT('Ctrl Pts',(-2.40232181133975,0.906761777969123,18.1183990411167));
#1455=CARTESIAN_POINT('Ctrl Pts',(-2.38589605808803,0.900000000000001,18.2121264078501));
#1456=CARTESIAN_POINT('Ctrl Pts',(-2.38589605808803,0.900000000000002,18.3076130259158));
#1457=CARTESIAN_POINT('Ctrl Pts',(-2.38577168292806,0.900001458679549,18.3075167484199));
#1458=CARTESIAN_POINT('Ctrl Pts',(-2.35751866794282,0.974654203415012,18.345146177145));
#1459=CARTESIAN_POINT('Ctrl Pts',(-2.32406587798866,1.05279237589166,18.365149934803));
#1460=CARTESIAN_POINT('Ctrl Pts',(-2.28662994409005,1.128637895337,18.3651499348027));
#1461=CARTESIAN_POINT('Origin',(-2.38589605808803,0.900000000000001,19.));
#1462=CARTESIAN_POINT('',(-1.4142135623731,0.500000000000001,19.));
#1463=CARTESIAN_POINT('',(-1.41421356237309,0.5,-2.));
#1464=CARTESIAN_POINT('',(-2.38589605808803,0.900000000000001,19.));
#1465=CARTESIAN_POINT('',(-1.20741036785926,0.414867996315328,19.));
#1466=CARTESIAN_POINT('',(-2.38589605808803,0.900000000000001,19.));
#1467=CARTESIAN_POINT('Origin',(-1.4142135623731,-0.499999999999999,19.));
#1468=CARTESIAN_POINT('',(-2.38589605808803,-0.900000000000002,18.3076130259158));
#1469=CARTESIAN_POINT('Ctrl Pts',(-2.38589605808803,-0.899999999999999,
18.3076130259158));
#1470=CARTESIAN_POINT('Ctrl Pts',(-2.38589605808803,-0.899999999999999,
18.2261069703217));
#1471=CARTESIAN_POINT('Ctrl Pts',(-2.39738033075289,-0.904727582400837,
18.1171698762227));
#1472=CARTESIAN_POINT('Ctrl Pts',(-2.48035097580696,-0.938883037673508,
17.8926603096737));
#1473=CARTESIAN_POINT('Ctrl Pts',(-2.52493578277002,-0.957236690089671,
17.8097457218219));
#1474=CARTESIAN_POINT('Ctrl Pts',(-2.57091486586562,-0.976164306177587,
17.7361322338731));
#1475=CARTESIAN_POINT('',(-2.38589605808803,-0.899999999999999,19.));
#1476=CARTESIAN_POINT('',(-2.38589605808803,-0.899999999999999,19.));
#1477=CARTESIAN_POINT('',(-1.4142135623731,-0.499999999999999,19.));
#1478=CARTESIAN_POINT('',(-0.72156912000179,-0.214867996315327,19.));
#1479=CARTESIAN_POINT('',(-1.4142135623731,-0.499999999999999,-2.));
#1480=CARTESIAN_POINT('Ctrl Pts',(-2.46597346911768,-1.21715851457718,17.8961083588203));
#1481=CARTESIAN_POINT('Ctrl Pts',(-2.50421192346224,-1.1954040299784,17.8724490016413));
#1482=CARTESIAN_POINT('Ctrl Pts',(-2.56312884513715,-1.16219414799521,17.8265782615653));
#1483=CARTESIAN_POINT('Ctrl Pts',(-2.62425800553076,-1.12821054495526,17.7591982080911));
#1484=CARTESIAN_POINT('Ctrl Pts',(-2.65662752477159,-1.11025955997532,17.7145992959203));
#1485=CARTESIAN_POINT('Ctrl Pts',(-2.67186807087706,-1.101794174194,17.6908769868352));
#1486=CARTESIAN_POINT('Ctrl Pts',(-2.68024647901669,-1.09713203465384,17.6769697882122));
#1487=CARTESIAN_POINT('Ctrl Pts',(-2.68432604420644,-1.09485834735534,17.6698924438824));
#1488=CARTESIAN_POINT('Ctrl Pts',(-2.68633639011133,-1.09373679463223,17.6663249577833));
#1489=CARTESIAN_POINT('Ctrl Pts',(-2.35295684366203,-1.16137561598364,18.0170254811601));
#1490=CARTESIAN_POINT('Ctrl Pts',(-2.3831903035838,-1.12250393632432,17.9945094685899));
#1491=CARTESIAN_POINT('Ctrl Pts',(-2.42920080687997,-1.06423015660422,17.9418405806447));
#1492=CARTESIAN_POINT('Ctrl Pts',(-2.47476876428067,-1.01082486977525,17.856523730256));
#1493=CARTESIAN_POINT('Ctrl Pts',(-2.49863719632204,-0.984539960082066,
17.7994676340834));
#1494=CARTESIAN_POINT('Ctrl Pts',(-2.50968670742035,-0.972705375682967,
17.7691414620574));
#1495=CARTESIAN_POINT('Ctrl Pts',(-2.51573578926361,-0.966322840409593,
17.7514008137935));
#1496=CARTESIAN_POINT('Ctrl Pts',(-2.51867272281618,-0.963254846837471,
17.7423889772756));
#1497=CARTESIAN_POINT('Ctrl Pts',(-2.52011273454772,-0.961755605156643,
17.7378497723006));
#1498=CARTESIAN_POINT('Ctrl Pts',(-2.28662994409096,-1.12863789533517,18.1904918692007));
#1499=CARTESIAN_POINT('Ctrl Pts',(-2.31708351702848,-1.06650390923457,18.1790133791309));
#1500=CARTESIAN_POINT('Ctrl Pts',(-2.36268530777801,-0.965194833317906,
18.1321805304636));
#1501=CARTESIAN_POINT('Ctrl Pts',(-2.40302024537375,-0.862756124721288,
18.0301743695183));
#1502=CARTESIAN_POINT('Ctrl Pts',(-2.42237887227284,-0.811022075219671,
17.9567182258769));
#1503=CARTESIAN_POINT('Ctrl Pts',(-2.43089710577851,-0.787419370200782,
17.9167878427025));
#1504=CARTESIAN_POINT('Ctrl Pts',(-2.43544706189477,-0.774654139085805,
17.8932248108645));
#1505=CARTESIAN_POINT('Ctrl Pts',(-2.43761994648796,-0.768506605043527,
17.8811953487694));
#1506=CARTESIAN_POINT('Ctrl Pts',(-2.43867501992396,-0.76549630549476,17.8751237996329));
#1507=CARTESIAN_POINT('Ctrl Pts',(-2.28662994409097,-1.12863789533514,18.3651499348026));
#1508=CARTESIAN_POINT('Ctrl Pts',(-2.32782205396577,-1.04518233151853,18.3651499348026));
#1509=CARTESIAN_POINT('Ctrl Pts',(-2.38875424655958,-0.901269411218442,
18.3248172849855));
#1510=CARTESIAN_POINT('Ctrl Pts',(-2.43923802715401,-0.746148478862514,
18.2065223939594));
#1511=CARTESIAN_POINT('Ctrl Pts',(-2.4615699573214,-0.666359797112822,18.1166438575215));
#1512=CARTESIAN_POINT('Ctrl Pts',(-2.47108775223166,-0.629610399261853,
18.0670546578033));
#1513=CARTESIAN_POINT('Ctrl Pts',(-2.47605879010785,-0.609678807737813,
18.0376214489221));
#1514=CARTESIAN_POINT('Ctrl Pts',(-2.4783965375468,-0.600061772828707,18.0225451374331));
#1515=CARTESIAN_POINT('Ctrl Pts',(-2.47952900600183,-0.595345201035154,
18.0149261265405));
#1516=CARTESIAN_POINT('',(-2.28662994409097,-1.12863789533514,18.3651499348027));
#1517=CARTESIAN_POINT('Origin',(-2.86949640042788,-1.41632990787155,18.3651499348027));
#1518=CARTESIAN_POINT('Ctrl Pts',(-2.28662994409097,-1.12863789533514,18.3651499348026));
#1519=CARTESIAN_POINT('Ctrl Pts',(-2.32407607292692,-1.05277172086016,18.3651499348026));
#1520=CARTESIAN_POINT('Ctrl Pts',(-2.35769370046019,-0.974515466844465,
18.3451516022522));
#1521=CARTESIAN_POINT('Ctrl Pts',(-2.38586190569127,-0.900002676832996,
18.3075821006346));
#1522=CARTESIAN_POINT('Ctrl Pts',(2.46597346911766,1.21715851457721,17.8961083588203));
#1523=CARTESIAN_POINT('Ctrl Pts',(2.50421193595728,1.19540402286979,17.8724489939103));
#1524=CARTESIAN_POINT('Ctrl Pts',(2.56312887403368,1.1621941321533,17.8265782130325));
#1525=CARTESIAN_POINT('Ctrl Pts',(2.62425788237584,1.12821061340051,17.7591983555528));
#1526=CARTESIAN_POINT('Ctrl Pts',(2.65662755592882,1.11025954267665,17.7145992580821));
#1527=CARTESIAN_POINT('Ctrl Pts',(2.67186808131548,1.10179416839543,17.690876967762));
#1528=CARTESIAN_POINT('Ctrl Pts',(2.68024648834366,1.09713202946029,17.6769697729141));
#1529=CARTESIAN_POINT('Ctrl Pts',(2.68432604722749,1.09485834566995,17.6698924385213));
#1530=CARTESIAN_POINT('Ctrl Pts',(2.68633639011133,1.09373679463226,17.6663249577833));
#1531=CARTESIAN_POINT('Ctrl Pts',(2.35295684366202,1.16137561598366,18.0170254811601));
#1532=CARTESIAN_POINT('Ctrl Pts',(2.38319031346307,1.12250392362238,17.9945094612324));
#1533=CARTESIAN_POINT('Ctrl Pts',(2.42920082730605,1.06423013596252,17.9418405162932));
#1534=CARTESIAN_POINT('Ctrl Pts',(2.47476867333781,1.01082497462745,17.8565239175673));
#1535=CARTESIAN_POINT('Ctrl Pts',(2.49863721928537,0.984539933765598,17.7994675858477));
#1536=CARTESIAN_POINT('Ctrl Pts',(2.50968671484711,0.97270536816939,17.769141437603));
#1537=CARTESIAN_POINT('Ctrl Pts',(2.51573579598636,0.966322833257507,17.7514007942973));
#1538=CARTESIAN_POINT('Ctrl Pts',(2.51867272498016,0.963254844584507,17.7423889704543));
#1539=CARTESIAN_POINT('Ctrl Pts',(2.52011273454771,0.961755605156668,17.7378497723006));
#1540=CARTESIAN_POINT('Ctrl Pts',(2.28662994409094,1.12863789533519,18.1904918692007));
#1541=CARTESIAN_POINT('Ctrl Pts',(2.31708352697968,1.06650388893128,18.1790133753801));
#1542=CARTESIAN_POINT('Ctrl Pts',(2.36268532223724,0.965194788143611,18.1321804419353));
#1543=CARTESIAN_POINT('Ctrl Pts',(2.4030201671695,0.862756327323351,18.03017459971));
#1544=CARTESIAN_POINT('Ctrl Pts',(2.42237889185937,0.811022024051002,17.9567181661063));
#1545=CARTESIAN_POINT('Ctrl Pts',(2.43089711099277,0.787419354793034,17.9167878094981));
#1546=CARTESIAN_POINT('Ctrl Pts',(2.43544706699877,0.774654124811025,17.8932247850816));
#1547=CARTESIAN_POINT('Ctrl Pts',(2.43761994807347,0.768506600519811,17.8811953396454));
#1548=CARTESIAN_POINT('Ctrl Pts',(2.43867501992396,0.765496305494778,17.8751237996329));
#1549=CARTESIAN_POINT('Ctrl Pts',(2.28662994409096,1.12863789533516,18.3651499348027));
#1550=CARTESIAN_POINT('Ctrl Pts',(2.32782206742596,1.04518230424806,18.3651499348026));
#1551=CARTESIAN_POINT('Ctrl Pts',(2.38875426137553,0.901269337543042,18.3248171721342));
#1552=CARTESIAN_POINT('Ctrl Pts',(2.43923793084424,0.746148787347731,18.2065226664471));
#1553=CARTESIAN_POINT('Ctrl Pts',(2.46156998127647,0.666359718912552,18.1166437863512));
#1554=CARTESIAN_POINT('Ctrl Pts',(2.47108775755493,0.629610374823753,18.0670546157528));
#1555=CARTESIAN_POINT('Ctrl Pts',(2.47605879577198,0.6096787854832,18.037621416808));
#1556=CARTESIAN_POINT('Ctrl Pts',(2.47839653924861,0.600061765740882,18.0225451259836));
#1557=CARTESIAN_POINT('Ctrl Pts',(2.47952900600182,0.595345201035167,18.0149261265405));
#1558=CARTESIAN_POINT('Ctrl Pts',(2.28662994409096,1.12863789533516,18.3651499348027));
#1559=CARTESIAN_POINT('Ctrl Pts',(2.32407608846008,1.05277168938984,18.3651499348026));
#1560=CARTESIAN_POINT('Ctrl Pts',(2.35769372040118,0.974515403009849,18.345151542775));
#1561=CARTESIAN_POINT('Ctrl Pts',(2.38586190257604,0.900002680468671,18.307582091076));
#1562=CARTESIAN_POINT('Origin',(0.,0.,19.));
#1563=CARTESIAN_POINT('Origin',(0.,0.,19.));
#1564=CARTESIAN_POINT('Origin',(0.,0.,18.3651499348027));
#1565=CARTESIAN_POINT('',(2.28662994409008,-1.12863789533693,18.3651499348027));
#1566=CARTESIAN_POINT('Origin',(2.86949640042677,-1.4163299078738,18.3651499348027));
#1567=CARTESIAN_POINT('Origin',(0.,0.,18.3651499348027));
#1568=CARTESIAN_POINT('Ctrl Pts',(2.68633639009629,-1.09373679464247,17.6663249578119));
#1569=CARTESIAN_POINT('Ctrl Pts',(2.68229444759171,-1.09599175564772,17.6734976407126));
#1570=CARTESIAN_POINT('Ctrl Pts',(2.67399843078337,-1.10061089417567,17.6875605902619));
#1571=CARTESIAN_POINT('Ctrl Pts',(2.66099428237845,-1.10783455326565,17.70779339844));
#1572=CARTESIAN_POINT('Ctrl Pts',(2.64751889648494,-1.11531071490758,17.7271373960121));
#1573=CARTESIAN_POINT('Ctrl Pts',(2.62870703135258,-1.12575001663088,17.7521536305532));
#1574=CARTESIAN_POINT('Ctrl Pts',(2.57424494020453,-1.15599027625651,17.8167890127398));
#1575=CARTESIAN_POINT('Ctrl Pts',(2.51691658825355,-1.1881761375537,17.8645882183723));
#1576=CARTESIAN_POINT('Ctrl Pts',(2.46597346911781,-1.21715851457808,17.8961083588198));
#1577=CARTESIAN_POINT('Ctrl Pts',(2.52011273453635,-0.961755605170086,17.7378497723371));
#1578=CARTESIAN_POINT('Ctrl Pts',(2.51721748919043,-0.964769936514649,17.7469761647049));
#1579=CARTESIAN_POINT('Ctrl Pts',(2.51121858721099,-0.971058901636769,17.7648974729912));
#1580=CARTESIAN_POINT('Ctrl Pts',(2.50176681117149,-0.981181082185534,17.7907571869363));
#1581=CARTESIAN_POINT('Ctrl Pts',(2.49194608117724,-0.991918363192863,17.8155132070873));
#1582=CARTESIAN_POINT('Ctrl Pts',(2.47810062755483,-1.00739036980236,17.8474872441766));
#1583=CARTESIAN_POINT('Ctrl Pts',(2.43781379410812,-1.05365901708974,17.9296606818612));
#1584=CARTESIAN_POINT('Ctrl Pts',(2.39323532188686,-1.10958888344471,17.9870285597233));
#1585=CARTESIAN_POINT('Ctrl Pts',(2.35295684366177,-1.16137561598463,18.0170254811597));
#1586=CARTESIAN_POINT('Ctrl Pts',(2.43867501991511,-0.76549630551995,17.8751237996823));
#1587=CARTESIAN_POINT('Ctrl Pts',(2.43655372021427,-0.771548725488263,17.8873310782708));
#1588=CARTESIAN_POINT('Ctrl Pts',(2.43207410029849,-0.784126575470588,17.9112015216172));
#1589=CARTESIAN_POINT('Ctrl Pts',(2.42477513794319,-0.80428276065525,17.945240775353));
#1590=CARTESIAN_POINT('Ctrl Pts',(2.41695855052025,-0.825568395424552,17.9773721489086));
#1591=CARTESIAN_POINT('Ctrl Pts',(2.4055383148928,-0.855904367442554,18.0180599709941));
#1592=CARTESIAN_POINT('Ctrl Pts',(2.37096388839453,-0.945547158862286,18.1192836397966));
#1593=CARTESIAN_POINT('Ctrl Pts',(2.32720166752564,-1.04585999255389,18.1751996693159));
#1594=CARTESIAN_POINT('Ctrl Pts',(2.2866299440903,-1.12863789533649,18.1904918692004));
#1595=CARTESIAN_POINT('Ctrl Pts',(2.47952900599256,-0.595345201073752,18.014926126603));
#1596=CARTESIAN_POINT('Ctrl Pts',(2.47725209813667,-0.604828201965438,18.0302446864043));
#1597=CARTESIAN_POINT('Ctrl Pts',(2.47241773642044,-0.624475919423807,18.0601202051061));
#1598=CARTESIAN_POINT('Ctrl Pts',(2.4642803310252,-0.655831554649045,18.1023886655158));
#1599=CARTESIAN_POINT('Ctrl Pts',(2.45528768683844,-0.688814869085392,18.1419082480102));
#1600=CARTESIAN_POINT('Ctrl Pts',(2.44180336529561,-0.735463481031142,18.191288878142));
#1601=CARTESIAN_POINT('Ctrl Pts',(2.39947473809639,-0.872182013822919,18.3113131668473));
#1602=CARTESIAN_POINT('Ctrl Pts',(2.34150806604274,-1.01745435502623,18.3651499348031));
#1603=CARTESIAN_POINT('Ctrl Pts',(2.28662994409008,-1.12863789533694,18.3651499348027));
#1604=CARTESIAN_POINT('Ctrl Pts',(2.38577683455331,-0.90001018811286,18.3075032585983));
#1605=CARTESIAN_POINT('Ctrl Pts',(2.35752142069071,-0.974657143184034,18.3451212080504));
#1606=CARTESIAN_POINT('Ctrl Pts',(2.3240531878144,-1.05281808629228,18.365149934803));
#1607=CARTESIAN_POINT('Ctrl Pts',(2.28662994409008,-1.12863789533694,18.3651499348027));
#1608=CARTESIAN_POINT('Origin',(0.,0.,19.));
#1609=CARTESIAN_POINT('Origin',(0.,0.,19.));
#1610=CARTESIAN_POINT('Origin',(0.,0.,19.));
#1611=CARTESIAN_POINT('Origin',(0.,0.,19.));
#1612=CARTESIAN_POINT('Origin',(0.,0.,-2.));
#1613=CARTESIAN_POINT('',(-1.5,-1.83697019872103E-16,-2.));
#1614=CARTESIAN_POINT('Origin',(0.,0.,19.));
#1615=CARTESIAN_POINT('Origin',(0.,0.,19.));
#1616=CARTESIAN_POINT('Origin',(0.,7.35466273653754E-17,0.));
#1617=CARTESIAN_POINT('',(-6.25,-6.9185762210172E-16,-3.));
#1618=CARTESIAN_POINT('Origin',(0.,7.35466273653754E-17,-3.));
#1619=CARTESIAN_POINT('',(-6.25,8.38950876832471E-16,1.5));
#1620=CARTESIAN_POINT('',(-6.25,-6.9185762210172E-16,0.));
#1621=CARTESIAN_POINT('Origin',(0.,7.35466273653754E-17,1.5));
#1622=CARTESIAN_POINT('Origin',(0.,0.,0.));
#1623=CARTESIAN_POINT('',(-21.5,-2.63299061816681E-15,1.5));
#1624=CARTESIAN_POINT('Origin',(0.,0.,1.5));
#1625=CARTESIAN_POINT('',(-21.5,-2.63299061816681E-15,0.));
#1626=CARTESIAN_POINT('',(-21.5,-2.63299061816681E-15,0.));
#1627=CARTESIAN_POINT('Origin',(0.,0.,0.));
#1628=CARTESIAN_POINT('Origin',(0.,0.,1.5));
#1629=CARTESIAN_POINT('',(5.4675144212722,-6.7175144212722,1.5));
#1630=CARTESIAN_POINT('Origin',(6.7175144212722,-6.7175144212722,1.5));
#1631=CARTESIAN_POINT('',(-7.9675144212722,6.7175144212722,1.5));
#1632=CARTESIAN_POINT('Origin',(-6.7175144212722,6.7175144212722,1.5));
#1633=CARTESIAN_POINT('',(-7.9675144212722,-6.7175144212722,1.5));
#1634=CARTESIAN_POINT('Origin',(-6.7175144212722,-6.7175144212722,1.5));
#1635=CARTESIAN_POINT('',(5.4675144212722,6.7175144212722,1.5));
#1636=CARTESIAN_POINT('Origin',(6.7175144212722,6.7175144212722,1.5));
#1637=CARTESIAN_POINT('',(-6.02542701473092,-8.8775,1.5));
#1638=CARTESIAN_POINT('Origin',(-5.12542701473091,-8.8775,1.5));
#1639=CARTESIAN_POINT('',(-6.02542701473091,8.8775,1.5));
#1640=CARTESIAN_POINT('Origin',(-5.12542701473091,8.8775,1.5));
#1641=CARTESIAN_POINT('',(9.35085402945935,-4.23970169447868E-12,1.5));
#1642=CARTESIAN_POINT('Origin',(10.2508540294594,-4.2398119126906E-12,1.5));
#1643=CARTESIAN_POINT('',(-12.369316876853,4.,1.5));
#1644=CARTESIAN_POINT('',(-9.00000000000071,4.,1.5));
#1645=CARTESIAN_POINT('',(-4.50000000000036,4.,1.5));
#1646=CARTESIAN_POINT('',(-8.99999999999928,-4.,1.5));
#1647=CARTESIAN_POINT('',(-8.99999999999964,-2.0000000000008,1.5));
#1648=CARTESIAN_POINT('',(-12.369316876853,-4.,1.5));
#1649=CARTESIAN_POINT('',(-6.18465843842649,-4.,1.5));
#1650=CARTESIAN_POINT('Origin',(0.,7.35466273653754E-17,1.5));
#1651=CARTESIAN_POINT('Origin',(0.,0.,0.));
#1652=CARTESIAN_POINT('',(-15.,-1.83697019872103E-15,0.));
#1653=CARTESIAN_POINT('Origin',(0.,0.,0.));
#1654=CARTESIAN_POINT('Origin',(0.,0.,0.));
#1655=CARTESIAN_POINT('',(-15.,-2.22044604925031E-15,-5.));
#1656=CARTESIAN_POINT('Origin',(0.,0.,-5.));
#1657=CARTESIAN_POINT('',(-15.,1.83697019872103E-15,0.));
#1658=CARTESIAN_POINT('Origin',(0.,7.35466273653754E-17,0.));
#1659=CARTESIAN_POINT('',(-12.369316876853,-4.,-5.));
#1660=CARTESIAN_POINT('',(-12.369316876853,-4.,0.));
#1661=CARTESIAN_POINT('',(-12.369316876853,4.,-5.));
#1662=CARTESIAN_POINT('Origin',(0.,7.35466273653754E-17,-5.));
#1663=CARTESIAN_POINT('',(-12.369316876853,4.,0.));
#1664=CARTESIAN_POINT('Origin',(-12.369316876853,-4.,0.));
#1665=CARTESIAN_POINT('',(-8.99999999999928,-4.,-5.));
#1666=CARTESIAN_POINT('',(-8.99999999999928,-4.,0.));
#1667=CARTESIAN_POINT('',(-8.99999999999928,-4.,-5.));
#1668=CARTESIAN_POINT('Origin',(-8.99999999999928,-4.,0.));
#1669=CARTESIAN_POINT('',(-9.00000000000071,4.,-5.));
#1670=CARTESIAN_POINT('',(-9.00000000000071,4.,0.));
#1671=CARTESIAN_POINT('',(-9.00000000000071,4.,-5.));
#1672=CARTESIAN_POINT('Origin',(-9.00000000000071,4.,0.));
#1673=CARTESIAN_POINT('',(-18.6455305960568,4.,-5.));
#1674=CARTESIAN_POINT('Origin',(10.2508540294594,-4.2398119126906E-12,0.));
#1675=CARTESIAN_POINT('',(9.35085402945935,-4.23994173104347E-12,-5.));
#1676=CARTESIAN_POINT('Origin',(10.2508540294594,-4.2398119126906E-12,-5.));
#1677=CARTESIAN_POINT('',(9.35085402945935,-4.23970169447868E-12,0.));
#1678=CARTESIAN_POINT('Origin',(-5.12542701473091,-8.8775,0.));
#1679=CARTESIAN_POINT('',(-6.02542701473092,-8.8775,-5.));
#1680=CARTESIAN_POINT('Origin',(-5.12542701473091,-8.8775,-5.));
#1681=CARTESIAN_POINT('',(-6.02542701473092,-8.8775,0.));
#1682=CARTESIAN_POINT('Origin',(-5.12542701473091,8.8775,0.));
#1683=CARTESIAN_POINT('',(-6.02542701473091,8.8775,-5.));
#1684=CARTESIAN_POINT('Origin',(-5.12542701473091,8.8775,-5.));
#1685=CARTESIAN_POINT('',(-6.02542701473091,8.8775,0.));
#1686=CARTESIAN_POINT('Origin',(7.07106781187384,7.07106781187384,0.));
#1687=CARTESIAN_POINT('',(7.23613278574286,5.58017762329467,0.));
#1688=CARTESIAN_POINT('',(7.23613278574286,5.58017762329467,-4.));
#1689=CARTESIAN_POINT('',(7.23613278574286,5.58017762329467,0.));
#1690=CARTESIAN_POINT('',(5.58017762329467,7.23613278574287,-4.));
#1691=CARTESIAN_POINT('Origin',(7.07106781187384,7.07106781187384,-4.));
#1692=CARTESIAN_POINT('',(5.58017762329467,7.23613278574287,0.));
#1693=CARTESIAN_POINT('',(5.58017762329467,7.23613278574287,0.));
#1694=CARTESIAN_POINT('Origin',(7.07106781187384,7.07106781187384,0.));
#1695=CARTESIAN_POINT('Origin',(6.7175144212722,6.7175144212722,-2.));
#1696=CARTESIAN_POINT('',(5.4675144212722,6.7175144212722,0.));
#1697=CARTESIAN_POINT('Origin',(6.7175144212722,6.7175144212722,0.));
#1698=CARTESIAN_POINT('Origin',(6.7175144212722,6.7175144212722,-4.));
#1699=CARTESIAN_POINT('Origin',(6.7175144212722,6.7175144212722,0.));
#1700=CARTESIAN_POINT('',(5.4675144212722,6.7175144212722,-2.));
#1701=CARTESIAN_POINT('Origin',(-6.7175144212722,-6.7175144212722,-2.));
#1702=CARTESIAN_POINT('',(-7.9675144212722,-6.7175144212722,-5.));
#1703=CARTESIAN_POINT('Origin',(-6.7175144212722,-6.7175144212722,-5.));
#1704=CARTESIAN_POINT('',(-7.9675144212722,-6.7175144212722,-2.));
#1705=CARTESIAN_POINT('Origin',(-6.7175144212722,6.7175144212722,-2.));
#1706=CARTESIAN_POINT('',(-7.9675144212722,6.7175144212722,-5.));
#1707=CARTESIAN_POINT('Origin',(-6.7175144212722,6.7175144212722,-5.));
#1708=CARTESIAN_POINT('',(-7.9675144212722,6.7175144212722,-2.));
#1709=CARTESIAN_POINT('Origin',(6.7175144212722,-6.7175144212722,-2.));
#1710=CARTESIAN_POINT('',(5.4675144212722,-6.7175144212722,-5.));
#1711=CARTESIAN_POINT('Origin',(6.7175144212722,-6.7175144212722,-5.));
#1712=CARTESIAN_POINT('',(5.4675144212722,-6.7175144212722,-2.));
#1713=CARTESIAN_POINT('Origin',(4.35043420658725,4.35043420658725,0.));
#1714=CARTESIAN_POINT('Origin',(6.01040764009402,8.13172798365366,0.));
#1715=CARTESIAN_POINT('',(6.01040764009402,8.13172798365366,-4.));
#1716=CARTESIAN_POINT('',(2.12867965644071,4.25000000000031,-4.));
#1717=CARTESIAN_POINT('',(3.54743637801527,5.66875672157491,-4.));
#1718=CARTESIAN_POINT('',(2.12867965644071,4.25000000000031,-5.));
#1719=CARTESIAN_POINT('',(2.12867965644067,4.25000000000031,-2.));
#1720=CARTESIAN_POINT('',(6.01040764009402,8.13172798365366,-5.));
#1721=CARTESIAN_POINT('',(-1.06066017177982,1.06066017177982,-5.));
#1722=CARTESIAN_POINT('',(6.01040764009402,8.13172798365366,0.));
#1723=CARTESIAN_POINT('Origin',(2.12867965644071,4.25000000000031,-4.));
#1724=CARTESIAN_POINT('',(-3.49999999999956,4.25000000000031,-4.));
#1725=CARTESIAN_POINT('',(2.13690247207853,4.25000000000031,-4.));
#1726=CARTESIAN_POINT('',(-3.49999999999956,4.25000000000031,-5.));
#1727=CARTESIAN_POINT('',(-3.49999999999956,4.25000000000031,-4.));
#1728=CARTESIAN_POINT('',(1.06433982822035,4.25000000000031,-5.));
#1729=CARTESIAN_POINT('Origin',(-3.49999999999956,4.25000000000031,-4.));
#1730=CARTESIAN_POINT('',(-3.49999999999956,-4.24999999999969,-4.));
#1731=CARTESIAN_POINT('',(-3.49999999999956,3.19756264385832,-4.));
#1732=CARTESIAN_POINT('',(-3.49999999999956,-4.24999999999969,-5.));
#1733=CARTESIAN_POINT('',(-3.49999999999956,-4.24999999999969,-4.));
#1734=CARTESIAN_POINT('',(-3.49999999999956,2.12500000000016,-5.));
#1735=CARTESIAN_POINT('Origin',(0.,0.,-5.));
#1736=CARTESIAN_POINT('',(3.50000000000044,-4.24999999999969,-5.));
#1737=CARTESIAN_POINT('',(-1.74999999999978,-4.24999999999969,-5.));
#1738=CARTESIAN_POINT('',(3.50000000000044,1.37867965644079,-5.));
#1739=CARTESIAN_POINT('',(3.50000000000044,-2.12499999999984,-5.));
#1740=CARTESIAN_POINT('',(8.13172798365366,6.01040764009402,-5.));
#1741=CARTESIAN_POINT('',(1.06066017177988,-1.06066017177983,-5.));
#1742=CARTESIAN_POINT('Origin',(7.07106781187384,7.07106781187384,-5.));
#1743=CARTESIAN_POINT('Origin',(7.07106781187384,7.07106781187384,0.));
#1744=CARTESIAN_POINT('',(8.13172798365366,6.01040764009402,-4.));
#1745=CARTESIAN_POINT('Origin',(7.07106781187384,7.07106781187384,-4.));
#1746=CARTESIAN_POINT('',(8.13172798365366,6.01040764009402,0.));
#1747=CARTESIAN_POINT('Origin',(5.35091074721245,3.22959040365281,0.));
#1748=CARTESIAN_POINT('',(3.50000000000044,1.37867965644079,-4.));
#1749=CARTESIAN_POINT('',(4.2783481033543,2.15702775979466,-4.));
#1750=CARTESIAN_POINT('',(3.50000000000044,1.37867965644079,-2.));
#1751=CARTESIAN_POINT('Origin',(3.50000000000044,-4.24999999999969,-4.));
#1752=CARTESIAN_POINT('',(3.50000000000044,-4.24999999999969,-4.));
#1753=CARTESIAN_POINT('',(3.50000000000044,-1.05243735614168,-4.));
#1754=CARTESIAN_POINT('',(3.50000000000044,-4.24999999999969,-4.));
#1755=CARTESIAN_POINT('Origin',(-3.49999999999956,-4.24999999999969,-4.));
#1756=CARTESIAN_POINT('',(-0.677437356141609,-4.24999999999969,-4.));
#1757=CARTESIAN_POINT('Origin',(2.14512528771635,2.14512528771632,-4.));
#1758=CARTESIAN_POINT('',(-1.5,-1.83697019872103E-16,-4.));
#1759=CARTESIAN_POINT('Origin',(0.,0.,-4.));
#1760=CARTESIAN_POINT('Origin',(0.,0.,-3.));
#1761=CARTESIAN_POINT('',(2.75,-1.97999991687378E-16,-3.));
#1762=CARTESIAN_POINT('Origin',(0.,1.38777878078145E-16,-3.));
#1763=CARTESIAN_POINT('Origin',(0.,0.,0.));
#1764=CARTESIAN_POINT('',(-1.5,-1.83697019872103E-16,11.));
#1765=CARTESIAN_POINT('',(-1.5,-1.83697019872103E-16,0.));
#1766=CARTESIAN_POINT('Origin',(0.,0.,11.));
#1767=CARTESIAN_POINT('Origin',(0.,1.38777878078145E-16,21.));
#1768=CARTESIAN_POINT('',(2.75,-1.97999991687378E-16,11.));
#1769=CARTESIAN_POINT('Origin',(0.,1.38777878078145E-16,11.));
#1770=CARTESIAN_POINT('',(2.75,-1.97999991687378E-16,21.));
#1771=CARTESIAN_POINT('Origin',(0.,0.,11.));
#1772=UNCERTAINTY_MEASURE_WITH_UNIT(LENGTH_MEASURE(0.01),#1776,
'DISTANCE_ACCURACY_VALUE',
'Maximum model space distance between geometric entities at asserted c
onnectivities');
#1773=UNCERTAINTY_MEASURE_WITH_UNIT(LENGTH_MEASURE(0.01),#1776,
'DISTANCE_ACCURACY_VALUE',
'Maximum model space distance between geometric entities at asserted c
onnectivities');
#1774=(
GEOMETRIC_REPRESENTATION_CONTEXT(3)
GLOBAL_UNCERTAINTY_ASSIGNED_CONTEXT((#1772))
GLOBAL_UNIT_ASSIGNED_CONTEXT((#1776,#1778,#1779))
REPRESENTATION_CONTEXT('','3D')
);
#1775=(
GEOMETRIC_REPRESENTATION_CONTEXT(3)
GLOBAL_UNCERTAINTY_ASSIGNED_CONTEXT((#1773))
GLOBAL_UNIT_ASSIGNED_CONTEXT((#1776,#1778,#1779))
REPRESENTATION_CONTEXT('','3D')
);
#1776=(
LENGTH_UNIT()
NAMED_UNIT(*)
SI_UNIT(.MILLI.,.METRE.)
);
#1777=(
LENGTH_UNIT()
NAMED_UNIT(*)
SI_UNIT($,.METRE.)
);
#1778=(
NAMED_UNIT(*)
PLANE_ANGLE_UNIT()
SI_UNIT($,.RADIAN.)
);
#1779=(
NAMED_UNIT(*)
SI_UNIT($,.STERADIAN.)
SOLID_ANGLE_UNIT()
);
#1780=SHAPE_DEFINITION_REPRESENTATION(#1781,#1782);
#1781=PRODUCT_DEFINITION_SHAPE('',$,#1784);
#1782=SHAPE_REPRESENTATION('',(#944),#1774);
#1783=PRODUCT_DEFINITION_CONTEXT('part definition',#1788,'design');
#1784=PRODUCT_DEFINITION('MountBase_mod','MountBase_mod v17',#1785,#1783);
#1785=PRODUCT_DEFINITION_FORMATION('',$,#1790);
#1786=PRODUCT_RELATED_PRODUCT_CATEGORY('MountBase_mod v17',
'MountBase_mod v17',(#1790));
#1787=APPLICATION_PROTOCOL_DEFINITION('international standard',
'automotive_design',2009,#1788);
#1788=APPLICATION_CONTEXT(
'Core Data for Automotive Mechanical Design Process');
#1789=PRODUCT_CONTEXT('part definition',#1788,'mechanical');
#1790=PRODUCT('MountBase_mod','MountBase_mod v17',$,(#1789));
#1791=PRESENTATION_STYLE_ASSIGNMENT((#1792));
#1792=SURFACE_STYLE_USAGE(.BOTH.,#1793);
#1793=SURFACE_SIDE_STYLE('',(#1794));
#1794=SURFACE_STYLE_FILL_AREA(#1795);
#1795=FILL_AREA_STYLE('\X2\94A2\X0\ - \X2\7F0E5149\X0\',(#1796));
#1796=FILL_AREA_STYLE_COLOUR('\X2\94A2\X0\ - \X2\7F0E5149\X0\',#1797);
#1797=COLOUR_RGB('\X2\94A2\X0\ - \X2\7F0E5149\X0\',0.627450980392157,0.627450980392157,
0.627450980392157);
ENDSEC;
END-ISO-10303-21;
