ISO-10303-21;
HEADER;
/* Generated by software containing ST-Developer
 * from STEP Tools, Inc. (www.steptools.com) 
 */

FILE_DESCRIPTION(
/* description */ (''),
/* implementation_level */ '2;1');

FILE_NAME(
/* name */ 'ModA_Bottom v25.step',
/* time_stamp */ '2025-10-19T17:58:32+08:00',
/* author */ (''),
/* organization */ (''),
/* preprocessor_version */ 'ST-DEVELOPER v20.1',
/* originating_system */ 'Autodesk Translation Framework v14.17.0.0',
/* authorisation */ '');

FILE_SCHEMA (('AUTOMOTIVE_DESIGN { 1 0 10303 214 3 1 1 }'));
ENDSEC;

DATA;
#10=MECHANICAL_DESIGN_GEOMETRIC_PRESENTATION_REPRESENTATION('',(#13),#1717);
#11=SHAPE_REPRESENTATION_RELATIONSHIP('SRR','None',#1724,#12);
#12=ADVANCED_BREP_SHAPE_REPRESENTATION('',(#14),#1716);
#13=STYLED_ITEM('',(#1734),#14);
#14=MANIFOLD_SOLID_BREP('\X2\5B9E4F53\X0\1',#901);
#15=FACE_BOUND('',#179,.T.);
#16=FACE_BOUND('',#182,.T.);
#17=FACE_BOUND('',#185,.T.);
#18=FACE_BOUND('',#188,.T.);
#19=FACE_BOUND('',#197,.T.);
#20=FACE_BOUND('',#205,.T.);
#21=FACE_BOUND('',#211,.T.);
#22=FACE_BOUND('',#217,.T.);
#23=FACE_BOUND('',#221,.T.);
#24=CIRCLE('',#921,5.99999999999999);
#25=CIRCLE('',#924,5.99999999999999);
#26=CIRCLE('',#928,1.65);
#27=CIRCLE('',#929,1.65);
#28=CIRCLE('',#931,1.25);
#29=CIRCLE('',#933,1.65);
#30=CIRCLE('',#934,1.65);
#31=CIRCLE('',#936,1.25);
#32=CIRCLE('',#938,1.65);
#33=CIRCLE('',#939,1.65);
#34=CIRCLE('',#941,1.25);
#35=CIRCLE('',#943,1.65);
#36=CIRCLE('',#944,1.65);
#37=CIRCLE('',#946,1.25);
#38=CIRCLE('',#948,1.25);
#39=CIRCLE('',#950,1.25);
#40=CIRCLE('',#952,1.25);
#41=CIRCLE('',#954,1.25);
#42=CIRCLE('',#957,5.99999999999999);
#43=CIRCLE('',#959,6.);
#44=CIRCLE('',#961,3.99999999999999);
#45=CIRCLE('',#962,4.);
#46=CIRCLE('',#963,4.);
#47=CIRCLE('',#964,4.);
#48=CIRCLE('',#966,4.);
#49=CIRCLE('',#969,3.99999999999999);
#50=CIRCLE('',#973,4.);
#51=CIRCLE('',#974,4.);
#52=CIRCLE('',#978,4.);
#53=CIRCLE('',#979,4.);
#54=CIRCLE('',#980,4.);
#55=CIRCLE('',#982,4.);
#56=CIRCLE('',#985,4.);
#57=CIRCLE('',#989,4.);
#58=CIRCLE('',#994,4.);
#59=CIRCLE('',#996,4.);
#60=CYLINDRICAL_SURFACE('',#920,5.99999999999999);
#61=CYLINDRICAL_SURFACE('',#923,5.99999999999999);
#62=CYLINDRICAL_SURFACE('',#927,1.65);
#63=CYLINDRICAL_SURFACE('',#932,1.65);
#64=CYLINDRICAL_SURFACE('',#937,1.65);
#65=CYLINDRICAL_SURFACE('',#942,1.65);
#66=CYLINDRICAL_SURFACE('',#956,5.99999999999999);
#67=CYLINDRICAL_SURFACE('',#958,6.);
#68=CYLINDRICAL_SURFACE('',#965,4.);
#69=CYLINDRICAL_SURFACE('',#968,3.99999999999999);
#70=CYLINDRICAL_SURFACE('',#971,1.25);
#71=CYLINDRICAL_SURFACE('',#972,4.);
#72=CYLINDRICAL_SURFACE('',#981,4.);
#73=CYLINDRICAL_SURFACE('',#983,1.25);
#74=CYLINDRICAL_SURFACE('',#987,4.);
#75=CYLINDRICAL_SURFACE('',#988,4.);
#76=CYLINDRICAL_SURFACE('',#990,1.25);
#77=CYLINDRICAL_SURFACE('',#992,1.25);
#78=CYLINDRICAL_SURFACE('',#993,4.);
#79=CYLINDRICAL_SURFACE('',#997,4.);
#80=B_SPLINE_CURVE_WITH_KNOTS('',3,(#1275,#1276,#1277,#1278,#1279,#1280),
 .UNSPECIFIED.,.F.,.F.,(4,1,1,4),(-1.5707963267949,-1.12199737628207,-0.673198425769242,
1.02600064890512E-31),.UNSPECIFIED.);
#81=B_SPLINE_CURVE_WITH_KNOTS('',3,(#1281,#1282,#1283,#1284,#1285,#1286),
 .UNSPECIFIED.,.F.,.F.,(4,1,1,4),(-1.02600064890512E-31,0.673198425769242,
1.12199737628207,1.5707963267949),.UNSPECIFIED.);
#82=B_SPLINE_CURVE_WITH_KNOTS('',3,(#1312,#1313,#1314,#1315,#1316,#1317),
 .UNSPECIFIED.,.F.,.F.,(4,1,1,4),(-3.14159265358979,-2.69279370307697,-2.24399475256414,
-1.5707963267949),.UNSPECIFIED.);
#83=B_SPLINE_CURVE_WITH_KNOTS('',3,(#1320,#1321,#1322,#1323,#1324,#1325),
 .UNSPECIFIED.,.F.,.F.,(4,1,1,4),(1.5707963267949,2.24399475256414,2.69279370307697,
3.14159265358979),.UNSPECIFIED.);
#84=B_SPLINE_CURVE_WITH_KNOTS('',3,(#1351,#1352,#1353,#1354),
 .UNSPECIFIED.,.F.,.F.,(4,4),(2.57275799808062,2.57975067927498),
 .UNSPECIFIED.);
#85=B_SPLINE_CURVE_WITH_KNOTS('',3,(#1355,#1356,#1357,#1358),
 .UNSPECIFIED.,.F.,.F.,(4,4),(-2.57975067927498,-2.57275799808062),
 .UNSPECIFIED.);
#86=B_SPLINE_CURVE_WITH_KNOTS('',3,(#1387,#1388,#1389,#1390,#1391,#1392),
 .UNSPECIFIED.,.F.,.F.,(4,1,1,4),(1.58242188471226,2.0278992472487,2.47337660978514,
3.14159265358979),.UNSPECIFIED.);
#87=B_SPLINE_CURVE_WITH_KNOTS('',3,(#1395,#1396,#1397,#1398,#1399,#1400),
 .UNSPECIFIED.,.F.,.F.,(4,1,1,4),(-3.14159265358979,-2.47337660978514,-2.0278992472487,
-1.58242188471226),.UNSPECIFIED.);
#88=B_SPLINE_CURVE_WITH_KNOTS('',3,(#1434,#1435,#1436,#1437,#1438,#1439),
 .UNSPECIFIED.,.F.,.F.,(4,1,1,4),(-1.55917076887753,-1.11369340634109,-0.668216043804657,
7.09882693824935E-33),.UNSPECIFIED.);
#89=B_SPLINE_CURVE_WITH_KNOTS('',3,(#1440,#1441,#1442,#1443,#1444,#1445),
 .UNSPECIFIED.,.F.,.F.,(4,1,1,4),(-7.09882693824935E-33,0.668216043804657,
1.11369340634109,1.55917076887753),.UNSPECIFIED.);
#90=B_SPLINE_CURVE_WITH_KNOTS('',3,(#1462,#1463,#1464,#1465),
 .UNSPECIFIED.,.F.,.F.,(4,4),(-1.58242188471226,-1.5707963267949),
 .UNSPECIFIED.);
#91=B_SPLINE_CURVE_WITH_KNOTS('',3,(#1466,#1467,#1468,#1469),
 .UNSPECIFIED.,.F.,.F.,(4,4),(1.5707963267949,1.58242188471226),
 .UNSPECIFIED.);
#92=B_SPLINE_CURVE_WITH_KNOTS('',3,(#1495,#1496,#1497,#1498),
 .UNSPECIFIED.,.F.,.F.,(4,4),(-1.5707963267949,-1.55917076887753),
 .UNSPECIFIED.);
#93=B_SPLINE_CURVE_WITH_KNOTS('',3,(#1499,#1500,#1501,#1502),
 .UNSPECIFIED.,.F.,.F.,(4,4),(1.55917076887753,1.5707963267949),
 .UNSPECIFIED.);
#94=B_SPLINE_CURVE_WITH_KNOTS('',3,(#1519,#1520,#1521,#1522),
 .UNSPECIFIED.,.F.,.F.,(4,4),(0.263306863965526,0.270299545159877),
 .UNSPECIFIED.);
#95=B_SPLINE_CURVE_WITH_KNOTS('',3,(#1523,#1524,#1525,#1526),
 .UNSPECIFIED.,.F.,.F.,(4,4),(-0.270299545159877,-0.263306863965526),
 .UNSPECIFIED.);
#96=B_SPLINE_SURFACE_WITH_KNOTS('',3,3,((#1248,#1249,#1250,#1251,#1252,
#1253),(#1254,#1255,#1256,#1257,#1258,#1259),(#1260,#1261,#1262,#1263,#1264,
#1265),(#1266,#1267,#1268,#1269,#1270,#1271)),.UNSPECIFIED.,.F.,.F.,.F.,
(4,4),(4,1,1,4),(0.,1.),(-1.02600064890512E-31,0.673198425769242,1.12199737628207,
1.5707963267949),.UNSPECIFIED.);
#97=B_SPLINE_SURFACE_WITH_KNOTS('',3,3,((#1287,#1288,#1289,#1290,#1291,
#1292),(#1293,#1294,#1295,#1296,#1297,#1298),(#1299,#1300,#1301,#1302,#1303,
#1304),(#1305,#1306,#1307,#1308,#1309,#1310)),.UNSPECIFIED.,.F.,.F.,.F.,
(4,4),(4,1,1,4),(0.,1.),(1.5707963267949,2.24399475256414,2.69279370307697,
3.14159265358979),.UNSPECIFIED.);
#98=B_SPLINE_SURFACE_WITH_KNOTS('',3,3,((#1335,#1336,#1337,#1338),(#1339,
#1340,#1341,#1342),(#1343,#1344,#1345,#1346),(#1347,#1348,#1349,#1350)),
 .UNSPECIFIED.,.F.,.F.,.F.,(4,4),(4,4),(0.,1.),(-2.57975067927498,-2.57275799808062),
 .UNSPECIFIED.);
#99=B_SPLINE_SURFACE_WITH_KNOTS('',3,3,((#1359,#1360,#1361,#1362,#1363,
#1364),(#1365,#1366,#1367,#1368,#1369,#1370),(#1371,#1372,#1373,#1374,#1375,
#1376),(#1377,#1378,#1379,#1380,#1381,#1382)),.UNSPECIFIED.,.F.,.F.,.F.,
(4,4),(4,1,1,4),(0.,1.),(1.58242188471226,2.0278992472487,2.47337660978514,
3.14159265358979),.UNSPECIFIED.);
#100=B_SPLINE_SURFACE_WITH_KNOTS('',3,3,((#1407,#1408,#1409,#1410,#1411,
#1412),(#1413,#1414,#1415,#1416,#1417,#1418),(#1419,#1420,#1421,#1422,#1423,
#1424),(#1425,#1426,#1427,#1428,#1429,#1430)),.UNSPECIFIED.,.F.,.F.,.F.,
(4,4),(4,1,1,4),(0.,1.),(-7.09882693824935E-33,0.668216043804657,1.11369340634109,
1.55917076887753),.UNSPECIFIED.);
#101=B_SPLINE_SURFACE_WITH_KNOTS('',3,3,((#1446,#1447,#1448,#1449),(#1450,
#1451,#1452,#1453),(#1454,#1455,#1456,#1457),(#1458,#1459,#1460,#1461)),
 .UNSPECIFIED.,.F.,.F.,.F.,(4,4),(4,4),(0.,1.),(1.5707963267949,1.58242188471226),
 .UNSPECIFIED.);
#102=B_SPLINE_SURFACE_WITH_KNOTS('',3,3,((#1479,#1480,#1481,#1482),(#1483,
#1484,#1485,#1486),(#1487,#1488,#1489,#1490),(#1491,#1492,#1493,#1494)),
 .UNSPECIFIED.,.F.,.F.,.F.,(4,4),(4,4),(0.,1.),(1.55917076887753,1.5707963267949),
 .UNSPECIFIED.);
#103=B_SPLINE_SURFACE_WITH_KNOTS('',3,3,((#1503,#1504,#1505,#1506),(#1507,
#1508,#1509,#1510),(#1511,#1512,#1513,#1514),(#1515,#1516,#1517,#1518)),
 .UNSPECIFIED.,.F.,.F.,.F.,(4,4),(4,4),(0.,1.),(-0.270299545159877,-0.263306863965526),
 .UNSPECIFIED.);
#104=FACE_OUTER_BOUND('',#159,.T.);
#105=FACE_OUTER_BOUND('',#160,.T.);
#106=FACE_OUTER_BOUND('',#161,.T.);
#107=FACE_OUTER_BOUND('',#162,.T.);
#108=FACE_OUTER_BOUND('',#163,.T.);
#109=FACE_OUTER_BOUND('',#164,.T.);
#110=FACE_OUTER_BOUND('',#165,.T.);
#111=FACE_OUTER_BOUND('',#166,.T.);
#112=FACE_OUTER_BOUND('',#167,.T.);
#113=FACE_OUTER_BOUND('',#168,.T.);
#114=FACE_OUTER_BOUND('',#169,.T.);
#115=FACE_OUTER_BOUND('',#170,.T.);
#116=FACE_OUTER_BOUND('',#171,.T.);
#117=FACE_OUTER_BOUND('',#172,.T.);
#118=FACE_OUTER_BOUND('',#173,.T.);
#119=FACE_OUTER_BOUND('',#174,.T.);
#120=FACE_OUTER_BOUND('',#175,.T.);
#121=FACE_OUTER_BOUND('',#176,.T.);
#122=FACE_OUTER_BOUND('',#177,.T.);
#123=FACE_OUTER_BOUND('',#178,.T.);
#124=FACE_OUTER_BOUND('',#180,.T.);
#125=FACE_OUTER_BOUND('',#181,.T.);
#126=FACE_OUTER_BOUND('',#183,.T.);
#127=FACE_OUTER_BOUND('',#184,.T.);
#128=FACE_OUTER_BOUND('',#186,.T.);
#129=FACE_OUTER_BOUND('',#187,.T.);
#130=FACE_OUTER_BOUND('',#189,.T.);
#131=FACE_OUTER_BOUND('',#190,.T.);
#132=FACE_OUTER_BOUND('',#191,.T.);
#133=FACE_OUTER_BOUND('',#192,.T.);
#134=FACE_OUTER_BOUND('',#193,.T.);
#135=FACE_OUTER_BOUND('',#194,.T.);
#136=FACE_OUTER_BOUND('',#195,.T.);
#137=FACE_OUTER_BOUND('',#196,.T.);
#138=FACE_OUTER_BOUND('',#198,.T.);
#139=FACE_OUTER_BOUND('',#199,.T.);
#140=FACE_OUTER_BOUND('',#200,.T.);
#141=FACE_OUTER_BOUND('',#201,.T.);
#142=FACE_OUTER_BOUND('',#202,.T.);
#143=FACE_OUTER_BOUND('',#203,.T.);
#144=FACE_OUTER_BOUND('',#204,.T.);
#145=FACE_OUTER_BOUND('',#206,.T.);
#146=FACE_OUTER_BOUND('',#207,.T.);
#147=FACE_OUTER_BOUND('',#208,.T.);
#148=FACE_OUTER_BOUND('',#209,.T.);
#149=FACE_OUTER_BOUND('',#210,.T.);
#150=FACE_OUTER_BOUND('',#212,.T.);
#151=FACE_OUTER_BOUND('',#213,.T.);
#152=FACE_OUTER_BOUND('',#214,.T.);
#153=FACE_OUTER_BOUND('',#215,.T.);
#154=FACE_OUTER_BOUND('',#216,.T.);
#155=FACE_OUTER_BOUND('',#218,.T.);
#156=FACE_OUTER_BOUND('',#219,.T.);
#157=FACE_OUTER_BOUND('',#220,.T.);
#158=FACE_OUTER_BOUND('',#222,.T.);
#159=EDGE_LOOP('',(#571,#572,#573,#574));
#160=EDGE_LOOP('',(#575,#576,#577,#578));
#161=EDGE_LOOP('',(#579,#580,#581,#582));
#162=EDGE_LOOP('',(#583,#584,#585,#586));
#163=EDGE_LOOP('',(#587,#588,#589,#590));
#164=EDGE_LOOP('',(#591,#592,#593,#594));
#165=EDGE_LOOP('',(#595,#596,#597,#598));
#166=EDGE_LOOP('',(#599,#600,#601,#602));
#167=EDGE_LOOP('',(#603,#604,#605,#606));
#168=EDGE_LOOP('',(#607,#608,#609,#610));
#169=EDGE_LOOP('',(#611,#612,#613,#614));
#170=EDGE_LOOP('',(#615,#616,#617,#618));
#171=EDGE_LOOP('',(#619,#620,#621,#622,#623));
#172=EDGE_LOOP('',(#624,#625,#626,#627));
#173=EDGE_LOOP('',(#628,#629,#630,#631));
#174=EDGE_LOOP('',(#632,#633,#634,#635));
#175=EDGE_LOOP('',(#636,#637,#638,#639,#640));
#176=EDGE_LOOP('',(#641,#642,#643,#644,#645,#646,#647,#648,#649,#650,#651,
#652));
#177=EDGE_LOOP('',(#653,#654,#655,#656));
#178=EDGE_LOOP('',(#657));
#179=EDGE_LOOP('',(#658));
#180=EDGE_LOOP('',(#659,#660,#661,#662));
#181=EDGE_LOOP('',(#663));
#182=EDGE_LOOP('',(#664));
#183=EDGE_LOOP('',(#665,#666,#667,#668));
#184=EDGE_LOOP('',(#669));
#185=EDGE_LOOP('',(#670));
#186=EDGE_LOOP('',(#671,#672,#673,#674));
#187=EDGE_LOOP('',(#675));
#188=EDGE_LOOP('',(#676));
#189=EDGE_LOOP('',(#677));
#190=EDGE_LOOP('',(#678));
#191=EDGE_LOOP('',(#679));
#192=EDGE_LOOP('',(#680));
#193=EDGE_LOOP('',(#681,#682,#683,#684));
#194=EDGE_LOOP('',(#685,#686,#687,#688,#689));
#195=EDGE_LOOP('',(#690,#691,#692,#693,#694));
#196=EDGE_LOOP('',(#695,#696,#697,#698,#699,#700,#701,#702));
#197=EDGE_LOOP('',(#703,#704,#705,#706,#707,#708,#709,#710));
#198=EDGE_LOOP('',(#711,#712,#713,#714));
#199=EDGE_LOOP('',(#715,#716,#717,#718,#719,#720,#721,#722));
#200=EDGE_LOOP('',(#723,#724,#725,#726));
#201=EDGE_LOOP('',(#727,#728,#729,#730,#731,#732,#733,#734));
#202=EDGE_LOOP('',(#735,#736,#737,#738));
#203=EDGE_LOOP('',(#739,#740,#741,#742));
#204=EDGE_LOOP('',(#743,#744,#745,#746));
#205=EDGE_LOOP('',(#747));
#206=EDGE_LOOP('',(#748,#749,#750,#751,#752,#753,#754,#755));
#207=EDGE_LOOP('',(#756,#757,#758,#759,#760,#761,#762,#763));
#208=EDGE_LOOP('',(#764,#765,#766,#767));
#209=EDGE_LOOP('',(#768,#769,#770,#771));
#210=EDGE_LOOP('',(#772,#773,#774,#775));
#211=EDGE_LOOP('',(#776));
#212=EDGE_LOOP('',(#777,#778,#779,#780,#781,#782,#783,#784));
#213=EDGE_LOOP('',(#785,#786,#787,#788));
#214=EDGE_LOOP('',(#789,#790,#791,#792));
#215=EDGE_LOOP('',(#793,#794,#795,#796));
#216=EDGE_LOOP('',(#797,#798,#799,#800));
#217=EDGE_LOOP('',(#801));
#218=EDGE_LOOP('',(#802,#803,#804,#805));
#219=EDGE_LOOP('',(#806,#807,#808,#809));
#220=EDGE_LOOP('',(#810,#811,#812,#813));
#221=EDGE_LOOP('',(#814));
#222=EDGE_LOOP('',(#815,#816,#817,#818));
#223=LINE('',#1242,#295);
#224=LINE('',#1244,#296);
#225=LINE('',#1246,#297);
#226=LINE('',#1247,#298);
#227=LINE('',#1274,#299);
#228=LINE('',#1319,#300);
#229=LINE('',#1329,#301);
#230=LINE('',#1331,#302);
#231=LINE('',#1333,#303);
#232=LINE('',#1334,#304);
#233=LINE('',#1385,#305);
#234=LINE('',#1394,#306);
#235=LINE('',#1404,#307);
#236=LINE('',#1405,#308);
#237=LINE('',#1406,#309);
#238=LINE('',#1433,#310);
#239=LINE('',#1473,#311);
#240=LINE('',#1475,#312);
#241=LINE('',#1477,#313);
#242=LINE('',#1478,#314);
#243=LINE('',#1529,#315);
#244=LINE('',#1531,#316);
#245=LINE('',#1532,#317);
#246=LINE('',#1535,#318);
#247=LINE('',#1539,#319);
#248=LINE('',#1540,#320);
#249=LINE('',#1543,#321);
#250=LINE('',#1547,#322);
#251=LINE('',#1548,#323);
#252=LINE('',#1554,#324);
#253=LINE('',#1563,#325);
#254=LINE('',#1572,#326);
#255=LINE('',#1581,#327);
#256=LINE('',#1600,#328);
#257=LINE('',#1602,#329);
#258=LINE('',#1603,#330);
#259=LINE('',#1611,#331);
#260=LINE('',#1615,#332);
#261=LINE('',#1619,#333);
#262=LINE('',#1623,#334);
#263=LINE('',#1627,#335);
#264=LINE('',#1630,#336);
#265=LINE('',#1633,#337);
#266=LINE('',#1635,#338);
#267=LINE('',#1637,#339);
#268=LINE('',#1639,#340);
#269=LINE('',#1641,#341);
#270=LINE('',#1642,#342);
#271=LINE('',#1645,#343);
#272=LINE('',#1649,#344);
#273=LINE('',#1651,#345);
#274=LINE('',#1653,#346);
#275=LINE('',#1655,#347);
#276=LINE('',#1657,#348);
#277=LINE('',#1658,#349);
#278=LINE('',#1660,#350);
#279=LINE('',#1665,#351);
#280=LINE('',#1668,#352);
#281=LINE('',#1671,#353);
#282=LINE('',#1673,#354);
#283=LINE('',#1675,#355);
#284=LINE('',#1676,#356);
#285=LINE('',#1682,#357);
#286=LINE('',#1687,#358);
#287=LINE('',#1689,#359);
#288=LINE('',#1693,#360);
#289=LINE('',#1696,#361);
#290=LINE('',#1698,#362);
#291=LINE('',#1699,#363);
#292=LINE('',#1700,#364);
#293=LINE('',#1705,#365);
#294=LINE('',#1708,#366);
#295=VECTOR('',#1002,10.);
#296=VECTOR('',#1003,10.);
#297=VECTOR('',#1004,10.);
#298=VECTOR('',#1005,10.);
#299=VECTOR('',#1006,10.);
#300=VECTOR('',#1007,10.);
#301=VECTOR('',#1010,10.);
#302=VECTOR('',#1011,10.);
#303=VECTOR('',#1012,10.);
#304=VECTOR('',#1013,10.);
#305=VECTOR('',#1014,10.);
#306=VECTOR('',#1015,10.);
#307=VECTOR('',#1018,10.);
#308=VECTOR('',#1019,10.);
#309=VECTOR('',#1020,10.);
#310=VECTOR('',#1021,10.);
#311=VECTOR('',#1024,10.);
#312=VECTOR('',#1025,10.);
#313=VECTOR('',#1026,10.);
#314=VECTOR('',#1027,10.);
#315=VECTOR('',#1030,10.);
#316=VECTOR('',#1031,10.);
#317=VECTOR('',#1032,10.);
#318=VECTOR('',#1035,10.);
#319=VECTOR('',#1040,10.);
#320=VECTOR('',#1041,10.);
#321=VECTOR('',#1044,10.);
#322=VECTOR('',#1049,10.);
#323=VECTOR('',#1050,10.);
#324=VECTOR('',#1057,1.65);
#325=VECTOR('',#1068,1.65);
#326=VECTOR('',#1079,1.65);
#327=VECTOR('',#1090,1.65);
#328=VECTOR('',#1115,10.);
#329=VECTOR('',#1116,10.);
#330=VECTOR('',#1117,10.);
#331=VECTOR('',#1128,10.);
#332=VECTOR('',#1131,10.);
#333=VECTOR('',#1134,10.);
#334=VECTOR('',#1137,10.);
#335=VECTOR('',#1142,10.);
#336=VECTOR('',#1145,10.);
#337=VECTOR('',#1148,10.);
#338=VECTOR('',#1149,10.);
#339=VECTOR('',#1150,10.);
#340=VECTOR('',#1151,10.);
#341=VECTOR('',#1152,10.);
#342=VECTOR('',#1153,10.);
#343=VECTOR('',#1156,10.);
#344=VECTOR('',#1161,10.);
#345=VECTOR('',#1162,10.);
#346=VECTOR('',#1163,10.);
#347=VECTOR('',#1164,10.);
#348=VECTOR('',#1165,10.);
#349=VECTOR('',#1166,10.);
#350=VECTOR('',#1169,1.25);
#351=VECTOR('',#1174,10.);
#352=VECTOR('',#1179,10.);
#353=VECTOR('',#1182,10.);
#354=VECTOR('',#1183,10.);
#355=VECTOR('',#1184,10.);
#356=VECTOR('',#1185,10.);
#357=VECTOR('',#1192,10.);
#358=VECTOR('',#1199,10.);
#359=VECTOR('',#1202,1.25);
#360=VECTOR('',#1207,10.);
#361=VECTOR('',#1210,10.);
#362=VECTOR('',#1211,10.);
#363=VECTOR('',#1212,10.);
#364=VECTOR('',#1213,10.);
#365=VECTOR('',#1222,1.25);
#366=VECTOR('',#1227,1.25);
#367=VERTEX_POINT('',#1240);
#368=VERTEX_POINT('',#1241);
#369=VERTEX_POINT('',#1243);
#370=VERTEX_POINT('',#1245);
#371=VERTEX_POINT('',#1272);
#372=VERTEX_POINT('',#1273);
#373=VERTEX_POINT('',#1311);
#374=VERTEX_POINT('',#1318);
#375=VERTEX_POINT('',#1327);
#376=VERTEX_POINT('',#1328);
#377=VERTEX_POINT('',#1330);
#378=VERTEX_POINT('',#1332);
#379=VERTEX_POINT('',#1383);
#380=VERTEX_POINT('',#1384);
#381=VERTEX_POINT('',#1386);
#382=VERTEX_POINT('',#1393);
#383=VERTEX_POINT('',#1402);
#384=VERTEX_POINT('',#1403);
#385=VERTEX_POINT('',#1431);
#386=VERTEX_POINT('',#1432);
#387=VERTEX_POINT('',#1471);
#388=VERTEX_POINT('',#1472);
#389=VERTEX_POINT('',#1474);
#390=VERTEX_POINT('',#1476);
#391=VERTEX_POINT('',#1528);
#392=VERTEX_POINT('',#1530);
#393=VERTEX_POINT('',#1534);
#394=VERTEX_POINT('',#1538);
#395=VERTEX_POINT('',#1542);
#396=VERTEX_POINT('',#1546);
#397=VERTEX_POINT('',#1551);
#398=VERTEX_POINT('',#1553);
#399=VERTEX_POINT('',#1557);
#400=VERTEX_POINT('',#1560);
#401=VERTEX_POINT('',#1562);
#402=VERTEX_POINT('',#1566);
#403=VERTEX_POINT('',#1569);
#404=VERTEX_POINT('',#1571);
#405=VERTEX_POINT('',#1575);
#406=VERTEX_POINT('',#1578);
#407=VERTEX_POINT('',#1580);
#408=VERTEX_POINT('',#1584);
#409=VERTEX_POINT('',#1587);
#410=VERTEX_POINT('',#1590);
#411=VERTEX_POINT('',#1593);
#412=VERTEX_POINT('',#1596);
#413=VERTEX_POINT('',#1599);
#414=VERTEX_POINT('',#1601);
#415=VERTEX_POINT('',#1609);
#416=VERTEX_POINT('',#1610);
#417=VERTEX_POINT('',#1612);
#418=VERTEX_POINT('',#1614);
#419=VERTEX_POINT('',#1616);
#420=VERTEX_POINT('',#1618);
#421=VERTEX_POINT('',#1620);
#422=VERTEX_POINT('',#1622);
#423=VERTEX_POINT('',#1626);
#424=VERTEX_POINT('',#1628);
#425=VERTEX_POINT('',#1632);
#426=VERTEX_POINT('',#1634);
#427=VERTEX_POINT('',#1636);
#428=VERTEX_POINT('',#1638);
#429=VERTEX_POINT('',#1640);
#430=VERTEX_POINT('',#1644);
#431=VERTEX_POINT('',#1648);
#432=VERTEX_POINT('',#1650);
#433=VERTEX_POINT('',#1652);
#434=VERTEX_POINT('',#1654);
#435=VERTEX_POINT('',#1656);
#436=VERTEX_POINT('',#1662);
#437=VERTEX_POINT('',#1664);
#438=VERTEX_POINT('',#1670);
#439=VERTEX_POINT('',#1672);
#440=VERTEX_POINT('',#1674);
#441=VERTEX_POINT('',#1679);
#442=VERTEX_POINT('',#1681);
#443=VERTEX_POINT('',#1685);
#444=VERTEX_POINT('',#1691);
#445=VERTEX_POINT('',#1695);
#446=VERTEX_POINT('',#1697);
#447=EDGE_CURVE('',#367,#368,#223,.T.);
#448=EDGE_CURVE('',#368,#369,#224,.T.);
#449=EDGE_CURVE('',#369,#370,#225,.T.);
#450=EDGE_CURVE('',#370,#367,#226,.T.);
#451=EDGE_CURVE('',#371,#372,#227,.T.);
#452=EDGE_CURVE('',#372,#368,#80,.T.);
#453=EDGE_CURVE('',#367,#371,#81,.T.);
#454=EDGE_CURVE('',#369,#373,#82,.T.);
#455=EDGE_CURVE('',#373,#374,#228,.T.);
#456=EDGE_CURVE('',#374,#370,#83,.T.);
#457=EDGE_CURVE('',#375,#376,#229,.T.);
#458=EDGE_CURVE('',#376,#377,#230,.T.);
#459=EDGE_CURVE('',#377,#378,#231,.T.);
#460=EDGE_CURVE('',#378,#375,#232,.T.);
#461=EDGE_CURVE('',#375,#372,#84,.T.);
#462=EDGE_CURVE('',#371,#376,#85,.T.);
#463=EDGE_CURVE('',#379,#380,#233,.T.);
#464=EDGE_CURVE('',#380,#381,#86,.T.);
#465=EDGE_CURVE('',#381,#382,#234,.T.);
#466=EDGE_CURVE('',#382,#379,#87,.T.);
#467=EDGE_CURVE('',#383,#384,#235,.T.);
#468=EDGE_CURVE('',#384,#382,#236,.T.);
#469=EDGE_CURVE('',#381,#383,#237,.T.);
#470=EDGE_CURVE('',#385,#386,#238,.T.);
#471=EDGE_CURVE('',#386,#384,#88,.T.);
#472=EDGE_CURVE('',#383,#385,#89,.T.);
#473=EDGE_CURVE('',#379,#378,#90,.T.);
#474=EDGE_CURVE('',#377,#380,#91,.T.);
#475=EDGE_CURVE('',#387,#388,#239,.T.);
#476=EDGE_CURVE('',#388,#389,#240,.T.);
#477=EDGE_CURVE('',#389,#390,#241,.T.);
#478=EDGE_CURVE('',#390,#387,#242,.T.);
#479=EDGE_CURVE('',#389,#386,#92,.T.);
#480=EDGE_CURVE('',#385,#390,#93,.T.);
#481=EDGE_CURVE('',#373,#388,#94,.T.);
#482=EDGE_CURVE('',#387,#374,#95,.T.);
#483=EDGE_CURVE('',#391,#379,#243,.T.);
#484=EDGE_CURVE('',#392,#391,#244,.T.);
#485=EDGE_CURVE('',#392,#375,#245,.T.);
#486=EDGE_CURVE('',#393,#382,#246,.T.);
#487=EDGE_CURVE('',#391,#393,#24,.T.);
#488=EDGE_CURVE('',#394,#384,#247,.T.);
#489=EDGE_CURVE('',#393,#394,#248,.T.);
#490=EDGE_CURVE('',#395,#386,#249,.T.);
#491=EDGE_CURVE('',#394,#395,#25,.T.);
#492=EDGE_CURVE('',#396,#388,#250,.T.);
#493=EDGE_CURVE('',#395,#396,#251,.T.);
#494=EDGE_CURVE('',#397,#397,#26,.T.);
#495=EDGE_CURVE('',#397,#398,#252,.T.);
#496=EDGE_CURVE('',#398,#398,#27,.T.);
#497=EDGE_CURVE('',#399,#399,#28,.T.);
#498=EDGE_CURVE('',#400,#400,#29,.T.);
#499=EDGE_CURVE('',#400,#401,#253,.T.);
#500=EDGE_CURVE('',#401,#401,#30,.T.);
#501=EDGE_CURVE('',#402,#402,#31,.T.);
#502=EDGE_CURVE('',#403,#403,#32,.T.);
#503=EDGE_CURVE('',#403,#404,#254,.T.);
#504=EDGE_CURVE('',#404,#404,#33,.T.);
#505=EDGE_CURVE('',#405,#405,#34,.T.);
#506=EDGE_CURVE('',#406,#406,#35,.T.);
#507=EDGE_CURVE('',#406,#407,#255,.T.);
#508=EDGE_CURVE('',#407,#407,#36,.T.);
#509=EDGE_CURVE('',#408,#408,#37,.T.);
#510=EDGE_CURVE('',#409,#409,#38,.T.);
#511=EDGE_CURVE('',#410,#410,#39,.T.);
#512=EDGE_CURVE('',#411,#411,#40,.T.);
#513=EDGE_CURVE('',#412,#412,#41,.T.);
#514=EDGE_CURVE('',#413,#368,#256,.T.);
#515=EDGE_CURVE('',#414,#413,#257,.T.);
#516=EDGE_CURVE('',#414,#369,#258,.T.);
#517=EDGE_CURVE('',#413,#392,#42,.T.);
#518=EDGE_CURVE('',#396,#414,#43,.T.);
#519=EDGE_CURVE('',#415,#416,#259,.T.);
#520=EDGE_CURVE('',#417,#415,#44,.T.);
#521=EDGE_CURVE('',#418,#417,#260,.T.);
#522=EDGE_CURVE('',#419,#418,#45,.T.);
#523=EDGE_CURVE('',#420,#419,#261,.T.);
#524=EDGE_CURVE('',#421,#420,#46,.T.);
#525=EDGE_CURVE('',#422,#421,#262,.T.);
#526=EDGE_CURVE('',#416,#422,#47,.T.);
#527=EDGE_CURVE('',#418,#423,#263,.T.);
#528=EDGE_CURVE('',#424,#423,#48,.T.);
#529=EDGE_CURVE('',#419,#424,#264,.T.);
#530=EDGE_CURVE('',#417,#425,#265,.T.);
#531=EDGE_CURVE('',#426,#425,#266,.T.);
#532=EDGE_CURVE('',#427,#426,#267,.T.);
#533=EDGE_CURVE('',#428,#427,#268,.T.);
#534=EDGE_CURVE('',#428,#429,#269,.T.);
#535=EDGE_CURVE('',#423,#429,#270,.T.);
#536=EDGE_CURVE('',#430,#415,#271,.T.);
#537=EDGE_CURVE('',#425,#430,#49,.T.);
#538=EDGE_CURVE('',#416,#431,#272,.T.);
#539=EDGE_CURVE('',#432,#431,#273,.T.);
#540=EDGE_CURVE('',#433,#432,#274,.T.);
#541=EDGE_CURVE('',#434,#433,#275,.T.);
#542=EDGE_CURVE('',#434,#435,#276,.T.);
#543=EDGE_CURVE('',#430,#435,#277,.T.);
#544=EDGE_CURVE('',#405,#410,#278,.T.);
#545=EDGE_CURVE('',#436,#428,#50,.T.);
#546=EDGE_CURVE('',#436,#437,#279,.T.);
#547=EDGE_CURVE('',#429,#437,#51,.T.);
#548=EDGE_CURVE('',#437,#424,#280,.T.);
#549=EDGE_CURVE('',#438,#436,#281,.T.);
#550=EDGE_CURVE('',#438,#439,#282,.T.);
#551=EDGE_CURVE('',#440,#439,#283,.T.);
#552=EDGE_CURVE('',#420,#440,#284,.T.);
#553=EDGE_CURVE('',#427,#434,#52,.T.);
#554=EDGE_CURVE('',#433,#441,#53,.T.);
#555=EDGE_CURVE('',#441,#442,#285,.T.);
#556=EDGE_CURVE('',#442,#438,#54,.T.);
#557=EDGE_CURVE('',#443,#432,#55,.T.);
#558=EDGE_CURVE('',#441,#443,#286,.T.);
#559=EDGE_CURVE('',#402,#409,#287,.T.);
#560=EDGE_CURVE('',#431,#444,#56,.T.);
#561=EDGE_CURVE('',#444,#443,#288,.T.);
#562=EDGE_CURVE('',#421,#445,#289,.T.);
#563=EDGE_CURVE('',#446,#445,#290,.T.);
#564=EDGE_CURVE('',#442,#446,#291,.T.);
#565=EDGE_CURVE('',#422,#444,#292,.T.);
#566=EDGE_CURVE('',#435,#426,#57,.T.);
#567=EDGE_CURVE('',#408,#411,#293,.T.);
#568=EDGE_CURVE('',#399,#412,#294,.T.);
#569=EDGE_CURVE('',#439,#446,#58,.T.);
#570=EDGE_CURVE('',#445,#440,#59,.T.);
#571=ORIENTED_EDGE('',*,*,#447,.T.);
#572=ORIENTED_EDGE('',*,*,#448,.T.);
#573=ORIENTED_EDGE('',*,*,#449,.T.);
#574=ORIENTED_EDGE('',*,*,#450,.T.);
#575=ORIENTED_EDGE('',*,*,#451,.T.);
#576=ORIENTED_EDGE('',*,*,#452,.T.);
#577=ORIENTED_EDGE('',*,*,#447,.F.);
#578=ORIENTED_EDGE('',*,*,#453,.T.);
#579=ORIENTED_EDGE('',*,*,#449,.F.);
#580=ORIENTED_EDGE('',*,*,#454,.T.);
#581=ORIENTED_EDGE('',*,*,#455,.T.);
#582=ORIENTED_EDGE('',*,*,#456,.T.);
#583=ORIENTED_EDGE('',*,*,#457,.T.);
#584=ORIENTED_EDGE('',*,*,#458,.T.);
#585=ORIENTED_EDGE('',*,*,#459,.T.);
#586=ORIENTED_EDGE('',*,*,#460,.T.);
#587=ORIENTED_EDGE('',*,*,#457,.F.);
#588=ORIENTED_EDGE('',*,*,#461,.T.);
#589=ORIENTED_EDGE('',*,*,#451,.F.);
#590=ORIENTED_EDGE('',*,*,#462,.T.);
#591=ORIENTED_EDGE('',*,*,#463,.T.);
#592=ORIENTED_EDGE('',*,*,#464,.T.);
#593=ORIENTED_EDGE('',*,*,#465,.T.);
#594=ORIENTED_EDGE('',*,*,#466,.T.);
#595=ORIENTED_EDGE('',*,*,#467,.T.);
#596=ORIENTED_EDGE('',*,*,#468,.T.);
#597=ORIENTED_EDGE('',*,*,#465,.F.);
#598=ORIENTED_EDGE('',*,*,#469,.T.);
#599=ORIENTED_EDGE('',*,*,#470,.T.);
#600=ORIENTED_EDGE('',*,*,#471,.T.);
#601=ORIENTED_EDGE('',*,*,#467,.F.);
#602=ORIENTED_EDGE('',*,*,#472,.T.);
#603=ORIENTED_EDGE('',*,*,#463,.F.);
#604=ORIENTED_EDGE('',*,*,#473,.T.);
#605=ORIENTED_EDGE('',*,*,#459,.F.);
#606=ORIENTED_EDGE('',*,*,#474,.T.);
#607=ORIENTED_EDGE('',*,*,#475,.T.);
#608=ORIENTED_EDGE('',*,*,#476,.T.);
#609=ORIENTED_EDGE('',*,*,#477,.T.);
#610=ORIENTED_EDGE('',*,*,#478,.T.);
#611=ORIENTED_EDGE('',*,*,#477,.F.);
#612=ORIENTED_EDGE('',*,*,#479,.T.);
#613=ORIENTED_EDGE('',*,*,#470,.F.);
#614=ORIENTED_EDGE('',*,*,#480,.T.);
#615=ORIENTED_EDGE('',*,*,#455,.F.);
#616=ORIENTED_EDGE('',*,*,#481,.T.);
#617=ORIENTED_EDGE('',*,*,#475,.F.);
#618=ORIENTED_EDGE('',*,*,#482,.T.);
#619=ORIENTED_EDGE('',*,*,#460,.F.);
#620=ORIENTED_EDGE('',*,*,#473,.F.);
#621=ORIENTED_EDGE('',*,*,#483,.F.);
#622=ORIENTED_EDGE('',*,*,#484,.F.);
#623=ORIENTED_EDGE('',*,*,#485,.T.);
#624=ORIENTED_EDGE('',*,*,#466,.F.);
#625=ORIENTED_EDGE('',*,*,#486,.F.);
#626=ORIENTED_EDGE('',*,*,#487,.F.);
#627=ORIENTED_EDGE('',*,*,#483,.T.);
#628=ORIENTED_EDGE('',*,*,#468,.F.);
#629=ORIENTED_EDGE('',*,*,#488,.F.);
#630=ORIENTED_EDGE('',*,*,#489,.F.);
#631=ORIENTED_EDGE('',*,*,#486,.T.);
#632=ORIENTED_EDGE('',*,*,#471,.F.);
#633=ORIENTED_EDGE('',*,*,#490,.F.);
#634=ORIENTED_EDGE('',*,*,#491,.F.);
#635=ORIENTED_EDGE('',*,*,#488,.T.);
#636=ORIENTED_EDGE('',*,*,#479,.F.);
#637=ORIENTED_EDGE('',*,*,#476,.F.);
#638=ORIENTED_EDGE('',*,*,#492,.F.);
#639=ORIENTED_EDGE('',*,*,#493,.F.);
#640=ORIENTED_EDGE('',*,*,#490,.T.);
#641=ORIENTED_EDGE('',*,*,#478,.F.);
#642=ORIENTED_EDGE('',*,*,#480,.F.);
#643=ORIENTED_EDGE('',*,*,#472,.F.);
#644=ORIENTED_EDGE('',*,*,#469,.F.);
#645=ORIENTED_EDGE('',*,*,#464,.F.);
#646=ORIENTED_EDGE('',*,*,#474,.F.);
#647=ORIENTED_EDGE('',*,*,#458,.F.);
#648=ORIENTED_EDGE('',*,*,#462,.F.);
#649=ORIENTED_EDGE('',*,*,#453,.F.);
#650=ORIENTED_EDGE('',*,*,#450,.F.);
#651=ORIENTED_EDGE('',*,*,#456,.F.);
#652=ORIENTED_EDGE('',*,*,#482,.F.);
#653=ORIENTED_EDGE('',*,*,#494,.F.);
#654=ORIENTED_EDGE('',*,*,#495,.T.);
#655=ORIENTED_EDGE('',*,*,#496,.F.);
#656=ORIENTED_EDGE('',*,*,#495,.F.);
#657=ORIENTED_EDGE('',*,*,#494,.T.);
#658=ORIENTED_EDGE('',*,*,#497,.F.);
#659=ORIENTED_EDGE('',*,*,#498,.F.);
#660=ORIENTED_EDGE('',*,*,#499,.T.);
#661=ORIENTED_EDGE('',*,*,#500,.F.);
#662=ORIENTED_EDGE('',*,*,#499,.F.);
#663=ORIENTED_EDGE('',*,*,#498,.T.);
#664=ORIENTED_EDGE('',*,*,#501,.F.);
#665=ORIENTED_EDGE('',*,*,#502,.F.);
#666=ORIENTED_EDGE('',*,*,#503,.T.);
#667=ORIENTED_EDGE('',*,*,#504,.F.);
#668=ORIENTED_EDGE('',*,*,#503,.F.);
#669=ORIENTED_EDGE('',*,*,#502,.T.);
#670=ORIENTED_EDGE('',*,*,#505,.F.);
#671=ORIENTED_EDGE('',*,*,#506,.F.);
#672=ORIENTED_EDGE('',*,*,#507,.T.);
#673=ORIENTED_EDGE('',*,*,#508,.F.);
#674=ORIENTED_EDGE('',*,*,#507,.F.);
#675=ORIENTED_EDGE('',*,*,#506,.T.);
#676=ORIENTED_EDGE('',*,*,#509,.F.);
#677=ORIENTED_EDGE('',*,*,#510,.F.);
#678=ORIENTED_EDGE('',*,*,#511,.F.);
#679=ORIENTED_EDGE('',*,*,#512,.F.);
#680=ORIENTED_EDGE('',*,*,#513,.F.);
#681=ORIENTED_EDGE('',*,*,#448,.F.);
#682=ORIENTED_EDGE('',*,*,#514,.F.);
#683=ORIENTED_EDGE('',*,*,#515,.F.);
#684=ORIENTED_EDGE('',*,*,#516,.T.);
#685=ORIENTED_EDGE('',*,*,#461,.F.);
#686=ORIENTED_EDGE('',*,*,#485,.F.);
#687=ORIENTED_EDGE('',*,*,#517,.F.);
#688=ORIENTED_EDGE('',*,*,#514,.T.);
#689=ORIENTED_EDGE('',*,*,#452,.F.);
#690=ORIENTED_EDGE('',*,*,#454,.F.);
#691=ORIENTED_EDGE('',*,*,#516,.F.);
#692=ORIENTED_EDGE('',*,*,#518,.F.);
#693=ORIENTED_EDGE('',*,*,#492,.T.);
#694=ORIENTED_EDGE('',*,*,#481,.F.);
#695=ORIENTED_EDGE('',*,*,#487,.T.);
#696=ORIENTED_EDGE('',*,*,#489,.T.);
#697=ORIENTED_EDGE('',*,*,#491,.T.);
#698=ORIENTED_EDGE('',*,*,#493,.T.);
#699=ORIENTED_EDGE('',*,*,#518,.T.);
#700=ORIENTED_EDGE('',*,*,#515,.T.);
#701=ORIENTED_EDGE('',*,*,#517,.T.);
#702=ORIENTED_EDGE('',*,*,#484,.T.);
#703=ORIENTED_EDGE('',*,*,#519,.F.);
#704=ORIENTED_EDGE('',*,*,#520,.F.);
#705=ORIENTED_EDGE('',*,*,#521,.F.);
#706=ORIENTED_EDGE('',*,*,#522,.F.);
#707=ORIENTED_EDGE('',*,*,#523,.F.);
#708=ORIENTED_EDGE('',*,*,#524,.F.);
#709=ORIENTED_EDGE('',*,*,#525,.F.);
#710=ORIENTED_EDGE('',*,*,#526,.F.);
#711=ORIENTED_EDGE('',*,*,#522,.T.);
#712=ORIENTED_EDGE('',*,*,#527,.T.);
#713=ORIENTED_EDGE('',*,*,#528,.F.);
#714=ORIENTED_EDGE('',*,*,#529,.F.);
#715=ORIENTED_EDGE('',*,*,#521,.T.);
#716=ORIENTED_EDGE('',*,*,#530,.T.);
#717=ORIENTED_EDGE('',*,*,#531,.F.);
#718=ORIENTED_EDGE('',*,*,#532,.F.);
#719=ORIENTED_EDGE('',*,*,#533,.F.);
#720=ORIENTED_EDGE('',*,*,#534,.T.);
#721=ORIENTED_EDGE('',*,*,#535,.F.);
#722=ORIENTED_EDGE('',*,*,#527,.F.);
#723=ORIENTED_EDGE('',*,*,#520,.T.);
#724=ORIENTED_EDGE('',*,*,#536,.F.);
#725=ORIENTED_EDGE('',*,*,#537,.F.);
#726=ORIENTED_EDGE('',*,*,#530,.F.);
#727=ORIENTED_EDGE('',*,*,#519,.T.);
#728=ORIENTED_EDGE('',*,*,#538,.T.);
#729=ORIENTED_EDGE('',*,*,#539,.F.);
#730=ORIENTED_EDGE('',*,*,#540,.F.);
#731=ORIENTED_EDGE('',*,*,#541,.F.);
#732=ORIENTED_EDGE('',*,*,#542,.T.);
#733=ORIENTED_EDGE('',*,*,#543,.F.);
#734=ORIENTED_EDGE('',*,*,#536,.T.);
#735=ORIENTED_EDGE('',*,*,#505,.T.);
#736=ORIENTED_EDGE('',*,*,#544,.T.);
#737=ORIENTED_EDGE('',*,*,#511,.T.);
#738=ORIENTED_EDGE('',*,*,#544,.F.);
#739=ORIENTED_EDGE('',*,*,#545,.F.);
#740=ORIENTED_EDGE('',*,*,#546,.T.);
#741=ORIENTED_EDGE('',*,*,#547,.F.);
#742=ORIENTED_EDGE('',*,*,#534,.F.);
#743=ORIENTED_EDGE('',*,*,#528,.T.);
#744=ORIENTED_EDGE('',*,*,#535,.T.);
#745=ORIENTED_EDGE('',*,*,#547,.T.);
#746=ORIENTED_EDGE('',*,*,#548,.T.);
#747=ORIENTED_EDGE('',*,*,#504,.T.);
#748=ORIENTED_EDGE('',*,*,#523,.T.);
#749=ORIENTED_EDGE('',*,*,#529,.T.);
#750=ORIENTED_EDGE('',*,*,#548,.F.);
#751=ORIENTED_EDGE('',*,*,#546,.F.);
#752=ORIENTED_EDGE('',*,*,#549,.F.);
#753=ORIENTED_EDGE('',*,*,#550,.T.);
#754=ORIENTED_EDGE('',*,*,#551,.F.);
#755=ORIENTED_EDGE('',*,*,#552,.F.);
#756=ORIENTED_EDGE('',*,*,#545,.T.);
#757=ORIENTED_EDGE('',*,*,#533,.T.);
#758=ORIENTED_EDGE('',*,*,#553,.T.);
#759=ORIENTED_EDGE('',*,*,#541,.T.);
#760=ORIENTED_EDGE('',*,*,#554,.T.);
#761=ORIENTED_EDGE('',*,*,#555,.T.);
#762=ORIENTED_EDGE('',*,*,#556,.T.);
#763=ORIENTED_EDGE('',*,*,#549,.T.);
#764=ORIENTED_EDGE('',*,*,#554,.F.);
#765=ORIENTED_EDGE('',*,*,#540,.T.);
#766=ORIENTED_EDGE('',*,*,#557,.F.);
#767=ORIENTED_EDGE('',*,*,#558,.F.);
#768=ORIENTED_EDGE('',*,*,#501,.T.);
#769=ORIENTED_EDGE('',*,*,#559,.T.);
#770=ORIENTED_EDGE('',*,*,#510,.T.);
#771=ORIENTED_EDGE('',*,*,#559,.F.);
#772=ORIENTED_EDGE('',*,*,#557,.T.);
#773=ORIENTED_EDGE('',*,*,#539,.T.);
#774=ORIENTED_EDGE('',*,*,#560,.T.);
#775=ORIENTED_EDGE('',*,*,#561,.T.);
#776=ORIENTED_EDGE('',*,*,#500,.T.);
#777=ORIENTED_EDGE('',*,*,#525,.T.);
#778=ORIENTED_EDGE('',*,*,#562,.T.);
#779=ORIENTED_EDGE('',*,*,#563,.F.);
#780=ORIENTED_EDGE('',*,*,#564,.F.);
#781=ORIENTED_EDGE('',*,*,#555,.F.);
#782=ORIENTED_EDGE('',*,*,#558,.T.);
#783=ORIENTED_EDGE('',*,*,#561,.F.);
#784=ORIENTED_EDGE('',*,*,#565,.F.);
#785=ORIENTED_EDGE('',*,*,#526,.T.);
#786=ORIENTED_EDGE('',*,*,#565,.T.);
#787=ORIENTED_EDGE('',*,*,#560,.F.);
#788=ORIENTED_EDGE('',*,*,#538,.F.);
#789=ORIENTED_EDGE('',*,*,#553,.F.);
#790=ORIENTED_EDGE('',*,*,#532,.T.);
#791=ORIENTED_EDGE('',*,*,#566,.F.);
#792=ORIENTED_EDGE('',*,*,#542,.F.);
#793=ORIENTED_EDGE('',*,*,#509,.T.);
#794=ORIENTED_EDGE('',*,*,#567,.T.);
#795=ORIENTED_EDGE('',*,*,#512,.T.);
#796=ORIENTED_EDGE('',*,*,#567,.F.);
#797=ORIENTED_EDGE('',*,*,#543,.T.);
#798=ORIENTED_EDGE('',*,*,#566,.T.);
#799=ORIENTED_EDGE('',*,*,#531,.T.);
#800=ORIENTED_EDGE('',*,*,#537,.T.);
#801=ORIENTED_EDGE('',*,*,#508,.T.);
#802=ORIENTED_EDGE('',*,*,#497,.T.);
#803=ORIENTED_EDGE('',*,*,#568,.T.);
#804=ORIENTED_EDGE('',*,*,#513,.T.);
#805=ORIENTED_EDGE('',*,*,#568,.F.);
#806=ORIENTED_EDGE('',*,*,#556,.F.);
#807=ORIENTED_EDGE('',*,*,#564,.T.);
#808=ORIENTED_EDGE('',*,*,#569,.F.);
#809=ORIENTED_EDGE('',*,*,#550,.F.);
#810=ORIENTED_EDGE('',*,*,#570,.T.);
#811=ORIENTED_EDGE('',*,*,#551,.T.);
#812=ORIENTED_EDGE('',*,*,#569,.T.);
#813=ORIENTED_EDGE('',*,*,#563,.T.);
#814=ORIENTED_EDGE('',*,*,#496,.T.);
#815=ORIENTED_EDGE('',*,*,#524,.T.);
#816=ORIENTED_EDGE('',*,*,#552,.T.);
#817=ORIENTED_EDGE('',*,*,#570,.F.);
#818=ORIENTED_EDGE('',*,*,#562,.F.);
#819=PLANE('',#915);
#820=PLANE('',#916);
#821=PLANE('',#917);
#822=PLANE('',#918);
#823=PLANE('',#919);
#824=PLANE('',#922);
#825=PLANE('',#925);
#826=PLANE('',#926);
#827=PLANE('',#930);
#828=PLANE('',#935);
#829=PLANE('',#940);
#830=PLANE('',#945);
#831=PLANE('',#947);
#832=PLANE('',#949);
#833=PLANE('',#951);
#834=PLANE('',#953);
#835=PLANE('',#955);
#836=PLANE('',#960);
#837=PLANE('',#967);
#838=PLANE('',#970);
#839=PLANE('',#975);
#840=PLANE('',#976);
#841=PLANE('',#977);
#842=PLANE('',#984);
#843=PLANE('',#986);
#844=PLANE('',#991);
#845=PLANE('',#995);
#846=ADVANCED_FACE('',(#104),#819,.T.);
#847=ADVANCED_FACE('',(#105),#96,.T.);
#848=ADVANCED_FACE('',(#106),#97,.T.);
#849=ADVANCED_FACE('',(#107),#820,.T.);
#850=ADVANCED_FACE('',(#108),#98,.T.);
#851=ADVANCED_FACE('',(#109),#99,.T.);
#852=ADVANCED_FACE('',(#110),#821,.T.);
#853=ADVANCED_FACE('',(#111),#100,.T.);
#854=ADVANCED_FACE('',(#112),#101,.T.);
#855=ADVANCED_FACE('',(#113),#822,.T.);
#856=ADVANCED_FACE('',(#114),#102,.T.);
#857=ADVANCED_FACE('',(#115),#103,.T.);
#858=ADVANCED_FACE('',(#116),#823,.T.);
#859=ADVANCED_FACE('',(#117),#60,.T.);
#860=ADVANCED_FACE('',(#118),#824,.T.);
#861=ADVANCED_FACE('',(#119),#61,.T.);
#862=ADVANCED_FACE('',(#120),#825,.T.);
#863=ADVANCED_FACE('',(#121),#826,.F.);
#864=ADVANCED_FACE('',(#122),#62,.F.);
#865=ADVANCED_FACE('',(#123,#15),#827,.T.);
#866=ADVANCED_FACE('',(#124),#63,.F.);
#867=ADVANCED_FACE('',(#125,#16),#828,.T.);
#868=ADVANCED_FACE('',(#126),#64,.F.);
#869=ADVANCED_FACE('',(#127,#17),#829,.T.);
#870=ADVANCED_FACE('',(#128),#65,.F.);
#871=ADVANCED_FACE('',(#129,#18),#830,.T.);
#872=ADVANCED_FACE('',(#130),#831,.T.);
#873=ADVANCED_FACE('',(#131),#832,.T.);
#874=ADVANCED_FACE('',(#132),#833,.T.);
#875=ADVANCED_FACE('',(#133),#834,.T.);
#876=ADVANCED_FACE('',(#134),#835,.T.);
#877=ADVANCED_FACE('',(#135),#66,.T.);
#878=ADVANCED_FACE('',(#136),#67,.T.);
#879=ADVANCED_FACE('',(#137,#19),#836,.T.);
#880=ADVANCED_FACE('',(#138),#68,.T.);
#881=ADVANCED_FACE('',(#139),#837,.T.);
#882=ADVANCED_FACE('',(#140),#69,.T.);
#883=ADVANCED_FACE('',(#141),#838,.T.);
#884=ADVANCED_FACE('',(#142),#70,.F.);
#885=ADVANCED_FACE('',(#143),#71,.T.);
#886=ADVANCED_FACE('',(#144,#20),#839,.T.);
#887=ADVANCED_FACE('',(#145),#840,.T.);
#888=ADVANCED_FACE('',(#146),#841,.T.);
#889=ADVANCED_FACE('',(#147),#72,.T.);
#890=ADVANCED_FACE('',(#148),#73,.F.);
#891=ADVANCED_FACE('',(#149,#21),#842,.T.);
#892=ADVANCED_FACE('',(#150),#843,.T.);
#893=ADVANCED_FACE('',(#151),#74,.T.);
#894=ADVANCED_FACE('',(#152),#75,.T.);
#895=ADVANCED_FACE('',(#153),#76,.F.);
#896=ADVANCED_FACE('',(#154,#22),#844,.T.);
#897=ADVANCED_FACE('',(#155),#77,.F.);
#898=ADVANCED_FACE('',(#156),#78,.T.);
#899=ADVANCED_FACE('',(#157,#23),#845,.T.);
#900=ADVANCED_FACE('',(#158),#79,.T.);
#901=CLOSED_SHELL('',(#846,#847,#848,#849,#850,#851,#852,#853,#854,#855,
#856,#857,#858,#859,#860,#861,#862,#863,#864,#865,#866,#867,#868,#869,#870,
#871,#872,#873,#874,#875,#876,#877,#878,#879,#880,#881,#882,#883,#884,#885,
#886,#887,#888,#889,#890,#891,#892,#893,#894,#895,#896,#897,#898,#899,#900));
#902=DERIVED_UNIT_ELEMENT(#904,1.);
#903=DERIVED_UNIT_ELEMENT(#1719,-3.);
#904=(
MASS_UNIT()
NAMED_UNIT(*)
SI_UNIT(.KILO.,.GRAM.)
);
#905=DERIVED_UNIT((#902,#903));
#906=MEASURE_REPRESENTATION_ITEM('density measure',
POSITIVE_RATIO_MEASURE(7850.),#905);
#907=PROPERTY_DEFINITION_REPRESENTATION(#912,#909);
#908=PROPERTY_DEFINITION_REPRESENTATION(#913,#910);
#909=REPRESENTATION('material name',(#911),#1716);
#910=REPRESENTATION('density',(#906),#1716);
#911=DESCRIPTIVE_REPRESENTATION_ITEM('\X2\94A2\X0\','\X2\94A2\X0\');
#912=PROPERTY_DEFINITION('material property','material name',#1726);
#913=PROPERTY_DEFINITION('material property','density of part',#1726);
#914=AXIS2_PLACEMENT_3D('',#1238,#998,#999);
#915=AXIS2_PLACEMENT_3D('',#1239,#1000,#1001);
#916=AXIS2_PLACEMENT_3D('',#1326,#1008,#1009);
#917=AXIS2_PLACEMENT_3D('',#1401,#1016,#1017);
#918=AXIS2_PLACEMENT_3D('',#1470,#1022,#1023);
#919=AXIS2_PLACEMENT_3D('',#1527,#1028,#1029);
#920=AXIS2_PLACEMENT_3D('',#1533,#1033,#1034);
#921=AXIS2_PLACEMENT_3D('',#1536,#1036,#1037);
#922=AXIS2_PLACEMENT_3D('',#1537,#1038,#1039);
#923=AXIS2_PLACEMENT_3D('',#1541,#1042,#1043);
#924=AXIS2_PLACEMENT_3D('',#1544,#1045,#1046);
#925=AXIS2_PLACEMENT_3D('',#1545,#1047,#1048);
#926=AXIS2_PLACEMENT_3D('',#1549,#1051,#1052);
#927=AXIS2_PLACEMENT_3D('',#1550,#1053,#1054);
#928=AXIS2_PLACEMENT_3D('',#1552,#1055,#1056);
#929=AXIS2_PLACEMENT_3D('',#1555,#1058,#1059);
#930=AXIS2_PLACEMENT_3D('',#1556,#1060,#1061);
#931=AXIS2_PLACEMENT_3D('',#1558,#1062,#1063);
#932=AXIS2_PLACEMENT_3D('',#1559,#1064,#1065);
#933=AXIS2_PLACEMENT_3D('',#1561,#1066,#1067);
#934=AXIS2_PLACEMENT_3D('',#1564,#1069,#1070);
#935=AXIS2_PLACEMENT_3D('',#1565,#1071,#1072);
#936=AXIS2_PLACEMENT_3D('',#1567,#1073,#1074);
#937=AXIS2_PLACEMENT_3D('',#1568,#1075,#1076);
#938=AXIS2_PLACEMENT_3D('',#1570,#1077,#1078);
#939=AXIS2_PLACEMENT_3D('',#1573,#1080,#1081);
#940=AXIS2_PLACEMENT_3D('',#1574,#1082,#1083);
#941=AXIS2_PLACEMENT_3D('',#1576,#1084,#1085);
#942=AXIS2_PLACEMENT_3D('',#1577,#1086,#1087);
#943=AXIS2_PLACEMENT_3D('',#1579,#1088,#1089);
#944=AXIS2_PLACEMENT_3D('',#1582,#1091,#1092);
#945=AXIS2_PLACEMENT_3D('',#1583,#1093,#1094);
#946=AXIS2_PLACEMENT_3D('',#1585,#1095,#1096);
#947=AXIS2_PLACEMENT_3D('',#1586,#1097,#1098);
#948=AXIS2_PLACEMENT_3D('',#1588,#1099,#1100);
#949=AXIS2_PLACEMENT_3D('',#1589,#1101,#1102);
#950=AXIS2_PLACEMENT_3D('',#1591,#1103,#1104);
#951=AXIS2_PLACEMENT_3D('',#1592,#1105,#1106);
#952=AXIS2_PLACEMENT_3D('',#1594,#1107,#1108);
#953=AXIS2_PLACEMENT_3D('',#1595,#1109,#1110);
#954=AXIS2_PLACEMENT_3D('',#1597,#1111,#1112);
#955=AXIS2_PLACEMENT_3D('',#1598,#1113,#1114);
#956=AXIS2_PLACEMENT_3D('',#1604,#1118,#1119);
#957=AXIS2_PLACEMENT_3D('',#1605,#1120,#1121);
#958=AXIS2_PLACEMENT_3D('',#1606,#1122,#1123);
#959=AXIS2_PLACEMENT_3D('',#1607,#1124,#1125);
#960=AXIS2_PLACEMENT_3D('',#1608,#1126,#1127);
#961=AXIS2_PLACEMENT_3D('',#1613,#1129,#1130);
#962=AXIS2_PLACEMENT_3D('',#1617,#1132,#1133);
#963=AXIS2_PLACEMENT_3D('',#1621,#1135,#1136);
#964=AXIS2_PLACEMENT_3D('',#1624,#1138,#1139);
#965=AXIS2_PLACEMENT_3D('',#1625,#1140,#1141);
#966=AXIS2_PLACEMENT_3D('',#1629,#1143,#1144);
#967=AXIS2_PLACEMENT_3D('',#1631,#1146,#1147);
#968=AXIS2_PLACEMENT_3D('',#1643,#1154,#1155);
#969=AXIS2_PLACEMENT_3D('',#1646,#1157,#1158);
#970=AXIS2_PLACEMENT_3D('',#1647,#1159,#1160);
#971=AXIS2_PLACEMENT_3D('',#1659,#1167,#1168);
#972=AXIS2_PLACEMENT_3D('',#1661,#1170,#1171);
#973=AXIS2_PLACEMENT_3D('',#1663,#1172,#1173);
#974=AXIS2_PLACEMENT_3D('',#1666,#1175,#1176);
#975=AXIS2_PLACEMENT_3D('',#1667,#1177,#1178);
#976=AXIS2_PLACEMENT_3D('',#1669,#1180,#1181);
#977=AXIS2_PLACEMENT_3D('',#1677,#1186,#1187);
#978=AXIS2_PLACEMENT_3D('',#1678,#1188,#1189);
#979=AXIS2_PLACEMENT_3D('',#1680,#1190,#1191);
#980=AXIS2_PLACEMENT_3D('',#1683,#1193,#1194);
#981=AXIS2_PLACEMENT_3D('',#1684,#1195,#1196);
#982=AXIS2_PLACEMENT_3D('',#1686,#1197,#1198);
#983=AXIS2_PLACEMENT_3D('',#1688,#1200,#1201);
#984=AXIS2_PLACEMENT_3D('',#1690,#1203,#1204);
#985=AXIS2_PLACEMENT_3D('',#1692,#1205,#1206);
#986=AXIS2_PLACEMENT_3D('',#1694,#1208,#1209);
#987=AXIS2_PLACEMENT_3D('',#1701,#1214,#1215);
#988=AXIS2_PLACEMENT_3D('',#1702,#1216,#1217);
#989=AXIS2_PLACEMENT_3D('',#1703,#1218,#1219);
#990=AXIS2_PLACEMENT_3D('',#1704,#1220,#1221);
#991=AXIS2_PLACEMENT_3D('',#1706,#1223,#1224);
#992=AXIS2_PLACEMENT_3D('',#1707,#1225,#1226);
#993=AXIS2_PLACEMENT_3D('',#1709,#1228,#1229);
#994=AXIS2_PLACEMENT_3D('',#1710,#1230,#1231);
#995=AXIS2_PLACEMENT_3D('',#1711,#1232,#1233);
#996=AXIS2_PLACEMENT_3D('',#1712,#1234,#1235);
#997=AXIS2_PLACEMENT_3D('',#1713,#1236,#1237);
#998=DIRECTION('axis',(0.,0.,1.));
#999=DIRECTION('refdir',(1.,0.,0.));
#1000=DIRECTION('center_axis',(0.,-0.731353701619168,0.681998360062501));
#1001=DIRECTION('ref_axis',(1.,0.,0.));
#1002=DIRECTION('',(0.,0.681998360062501,0.731353701619168));
#1003=DIRECTION('',(-1.,0.,0.));
#1004=DIRECTION('',(0.,-0.681998360062501,-0.731353701619168));
#1005=DIRECTION('',(1.,0.,0.));
#1006=DIRECTION('',(0.706963396940627,0.705527310577572,0.0493352755677691));
#1007=DIRECTION('',(0.706963396940627,-0.705527310577572,-0.0493352755677691));
#1008=DIRECTION('center_axis',(0.707106781186544,-0.705384304606643,-0.0493252756161326));
#1009=DIRECTION('ref_axis',(-0.0695873743166654,0.,-0.997575860441557));
#1010=DIRECTION('',(-0.70710678118655,-0.705384304606637,-0.0493252756161319));
#1011=DIRECTION('',(0.,0.0697564737441254,-0.997564050259824));
#1012=DIRECTION('',(0.707106781186551,0.705384304606636,0.0493252756161351));
#1013=DIRECTION('',(0.,-0.0697564737441254,0.997564050259824));
#1014=DIRECTION('',(-0.707202566115383,-0.705813419498131,-0.0411332874467083));
#1015=DIRECTION('',(0.,0.731353701619169,-0.6819983600625));
#1016=DIRECTION('center_axis',(0.,-0.681998360062497,-0.731353701619172));
#1017=DIRECTION('ref_axis',(-1.,0.,0.));
#1018=DIRECTION('',(0.,0.731353701619172,-0.681998360062497));
#1019=DIRECTION('',(1.,0.,0.));
#1020=DIRECTION('',(-1.,0.,0.));
#1021=DIRECTION('',(-0.707202566115383,0.705813419498131,0.0411332874467083));
#1022=DIRECTION('center_axis',(-0.707106781186551,-0.705384304606636,-0.0493252756161322));
#1023=DIRECTION('ref_axis',(-0.069587374316664,0.,0.997575860441557));
#1024=DIRECTION('',(-0.707106781186543,0.705384304606644,0.0493252756161323));
#1025=DIRECTION('',(0.,0.0697564737441254,-0.997564050259824));
#1026=DIRECTION('',(0.707106781186544,-0.705384304606643,-0.0493252756161323));
#1027=DIRECTION('',(0.,-0.0697564737441254,0.997564050259824));
#1028=DIRECTION('center_axis',(1.,0.,0.));
#1029=DIRECTION('ref_axis',(0.,0.,1.));
#1030=DIRECTION('',(0.,-1.,0.));
#1031=DIRECTION('',(0.,0.,-1.));
#1032=DIRECTION('',(0.,-1.,0.));
#1033=DIRECTION('center_axis',(0.,-1.,0.));
#1034=DIRECTION('ref_axis',(1.,0.,0.));
#1035=DIRECTION('',(0.,-1.,0.));
#1036=DIRECTION('center_axis',(0.,1.,0.));
#1037=DIRECTION('ref_axis',(1.,0.,0.));
#1038=DIRECTION('center_axis',(0.,0.,-1.));
#1039=DIRECTION('ref_axis',(1.,0.,0.));
#1040=DIRECTION('',(0.,-1.,0.));
#1041=DIRECTION('',(-1.,0.,0.));
#1042=DIRECTION('center_axis',(0.,-1.,0.));
#1043=DIRECTION('ref_axis',(0.,0.,-1.));
#1044=DIRECTION('',(0.,-1.,0.));
#1045=DIRECTION('center_axis',(0.,1.,0.));
#1046=DIRECTION('ref_axis',(0.,0.,-1.));
#1047=DIRECTION('center_axis',(-1.,0.,0.));
#1048=DIRECTION('ref_axis',(0.,0.,-1.));
#1049=DIRECTION('',(0.,-1.,0.));
#1050=DIRECTION('',(0.,0.,1.));
#1051=DIRECTION('center_axis',(0.,0.997564050259824,0.0697564737441254));
#1052=DIRECTION('ref_axis',(0.,0.0697564737441254,-0.997564050259824));
#1053=DIRECTION('center_axis',(0.,1.,0.));
#1054=DIRECTION('ref_axis',(1.,0.,0.));
#1055=DIRECTION('center_axis',(0.,1.,0.));
#1056=DIRECTION('ref_axis',(1.,0.,0.));
#1057=DIRECTION('',(0.,1.,0.));
#1058=DIRECTION('center_axis',(0.,-1.,0.));
#1059=DIRECTION('ref_axis',(1.,0.,0.));
#1060=DIRECTION('center_axis',(0.,1.,0.));
#1061=DIRECTION('ref_axis',(1.,0.,0.));
#1062=DIRECTION('center_axis',(0.,1.,0.));
#1063=DIRECTION('ref_axis',(1.,0.,0.));
#1064=DIRECTION('center_axis',(0.,1.,0.));
#1065=DIRECTION('ref_axis',(1.,0.,0.));
#1066=DIRECTION('center_axis',(0.,1.,0.));
#1067=DIRECTION('ref_axis',(1.,0.,0.));
#1068=DIRECTION('',(0.,1.,0.));
#1069=DIRECTION('center_axis',(0.,-1.,0.));
#1070=DIRECTION('ref_axis',(1.,0.,0.));
#1071=DIRECTION('center_axis',(0.,1.,0.));
#1072=DIRECTION('ref_axis',(1.,0.,0.));
#1073=DIRECTION('center_axis',(0.,1.,0.));
#1074=DIRECTION('ref_axis',(1.,0.,0.));
#1075=DIRECTION('center_axis',(0.,1.,0.));
#1076=DIRECTION('ref_axis',(1.,0.,0.));
#1077=DIRECTION('center_axis',(0.,1.,0.));
#1078=DIRECTION('ref_axis',(1.,0.,0.));
#1079=DIRECTION('',(0.,1.,0.));
#1080=DIRECTION('center_axis',(0.,-1.,0.));
#1081=DIRECTION('ref_axis',(1.,0.,0.));
#1082=DIRECTION('center_axis',(0.,1.,0.));
#1083=DIRECTION('ref_axis',(1.,0.,0.));
#1084=DIRECTION('center_axis',(0.,1.,0.));
#1085=DIRECTION('ref_axis',(1.,0.,0.));
#1086=DIRECTION('center_axis',(0.,1.,0.));
#1087=DIRECTION('ref_axis',(1.,0.,0.));
#1088=DIRECTION('center_axis',(0.,1.,0.));
#1089=DIRECTION('ref_axis',(1.,0.,0.));
#1090=DIRECTION('',(0.,1.,0.));
#1091=DIRECTION('center_axis',(0.,-1.,0.));
#1092=DIRECTION('ref_axis',(1.,0.,0.));
#1093=DIRECTION('center_axis',(0.,1.,0.));
#1094=DIRECTION('ref_axis',(1.,0.,0.));
#1095=DIRECTION('center_axis',(0.,1.,0.));
#1096=DIRECTION('ref_axis',(1.,0.,0.));
#1097=DIRECTION('center_axis',(0.,1.,0.));
#1098=DIRECTION('ref_axis',(1.,0.,0.));
#1099=DIRECTION('center_axis',(0.,-1.,0.));
#1100=DIRECTION('ref_axis',(1.,0.,0.));
#1101=DIRECTION('center_axis',(0.,1.,0.));
#1102=DIRECTION('ref_axis',(1.,0.,0.));
#1103=DIRECTION('center_axis',(0.,-1.,0.));
#1104=DIRECTION('ref_axis',(1.,0.,0.));
#1105=DIRECTION('center_axis',(0.,1.,0.));
#1106=DIRECTION('ref_axis',(1.,0.,0.));
#1107=DIRECTION('center_axis',(0.,-1.,0.));
#1108=DIRECTION('ref_axis',(1.,0.,0.));
#1109=DIRECTION('center_axis',(0.,1.,0.));
#1110=DIRECTION('ref_axis',(1.,0.,0.));
#1111=DIRECTION('center_axis',(0.,-1.,0.));
#1112=DIRECTION('ref_axis',(1.,0.,0.));
#1113=DIRECTION('center_axis',(0.,0.,1.));
#1114=DIRECTION('ref_axis',(-1.,0.,0.));
#1115=DIRECTION('',(0.,-1.,0.));
#1116=DIRECTION('',(1.,0.,0.));
#1117=DIRECTION('',(0.,-1.,0.));
#1118=DIRECTION('center_axis',(0.,-1.,0.));
#1119=DIRECTION('ref_axis',(0.,0.,1.));
#1120=DIRECTION('center_axis',(0.,1.,0.));
#1121=DIRECTION('ref_axis',(0.,0.,1.));
#1122=DIRECTION('center_axis',(0.,-1.,0.));
#1123=DIRECTION('ref_axis',(-1.,0.,0.));
#1124=DIRECTION('center_axis',(0.,1.,0.));
#1125=DIRECTION('ref_axis',(-1.,0.,0.));
#1126=DIRECTION('center_axis',(0.,1.,0.));
#1127=DIRECTION('ref_axis',(1.,0.,0.));
#1128=DIRECTION('',(0.,0.,1.));
#1129=DIRECTION('center_axis',(0.,1.,0.));
#1130=DIRECTION('ref_axis',(0.,0.,-1.));
#1131=DIRECTION('',(-1.,0.,-6.03382078600628E-17));
#1132=DIRECTION('center_axis',(0.,1.,0.));
#1133=DIRECTION('ref_axis',(1.,0.,0.));
#1134=DIRECTION('',(0.,0.,-1.));
#1135=DIRECTION('center_axis',(0.,1.,0.));
#1136=DIRECTION('ref_axis',(0.,0.,1.));
#1137=DIRECTION('',(1.,0.,0.));
#1138=DIRECTION('center_axis',(0.,1.,0.));
#1139=DIRECTION('ref_axis',(-1.,0.,0.));
#1140=DIRECTION('center_axis',(0.,1.,0.));
#1141=DIRECTION('ref_axis',(1.,0.,0.));
#1142=DIRECTION('',(0.,1.,0.));
#1143=DIRECTION('center_axis',(0.,1.,0.));
#1144=DIRECTION('ref_axis',(1.,0.,0.));
#1145=DIRECTION('',(0.,1.,0.));
#1146=DIRECTION('center_axis',(6.03382078600628E-17,0.,-1.));
#1147=DIRECTION('ref_axis',(-1.,0.,-6.03382078600628E-17));
#1148=DIRECTION('',(0.,1.,0.));
#1149=DIRECTION('',(-1.,0.,-6.03382078600628E-17));
#1150=DIRECTION('',(0.,1.,0.));
#1151=DIRECTION('',(-1.,0.,-6.03382078600628E-17));
#1152=DIRECTION('',(0.,1.,0.));
#1153=DIRECTION('',(-1.,0.,-6.03382078600628E-17));
#1154=DIRECTION('center_axis',(0.,1.,0.));
#1155=DIRECTION('ref_axis',(0.,0.,-1.));
#1156=DIRECTION('',(0.,-1.,0.));
#1157=DIRECTION('center_axis',(0.,1.,0.));
#1158=DIRECTION('ref_axis',(0.,0.,-1.));
#1159=DIRECTION('center_axis',(-1.,0.,0.));
#1160=DIRECTION('ref_axis',(0.,0.,1.));
#1161=DIRECTION('',(0.,1.,0.));
#1162=DIRECTION('',(0.,0.,1.));
#1163=DIRECTION('',(0.,1.,0.));
#1164=DIRECTION('',(0.,0.,1.));
#1165=DIRECTION('',(0.,1.,0.));
#1166=DIRECTION('',(0.,0.,1.));
#1167=DIRECTION('center_axis',(0.,1.,0.));
#1168=DIRECTION('ref_axis',(1.,0.,0.));
#1169=DIRECTION('',(0.,-1.,0.));
#1170=DIRECTION('center_axis',(0.,1.,0.));
#1171=DIRECTION('ref_axis',(-0.707106781186546,0.,0.707106781186549));
#1172=DIRECTION('center_axis',(0.,-1.,0.));
#1173=DIRECTION('ref_axis',(1.,0.,0.));
#1174=DIRECTION('',(0.,1.,0.));
#1175=DIRECTION('center_axis',(0.,1.,0.));
#1176=DIRECTION('ref_axis',(1.,0.,0.));
#1177=DIRECTION('center_axis',(0.,1.,0.));
#1178=DIRECTION('ref_axis',(1.,0.,0.));
#1179=DIRECTION('',(0.,0.,-1.));
#1180=DIRECTION('center_axis',(1.,0.,0.));
#1181=DIRECTION('ref_axis',(0.,0.,-1.));
#1182=DIRECTION('',(0.,0.,-1.));
#1183=DIRECTION('',(0.,1.,0.));
#1184=DIRECTION('',(0.,0.,-1.));
#1185=DIRECTION('',(0.,1.,0.));
#1186=DIRECTION('center_axis',(0.,1.,0.));
#1187=DIRECTION('ref_axis',(1.,0.,0.));
#1188=DIRECTION('center_axis',(0.,-1.,0.));
#1189=DIRECTION('ref_axis',(1.,0.,0.));
#1190=DIRECTION('center_axis',(0.,-1.,0.));
#1191=DIRECTION('ref_axis',(1.,0.,0.));
#1192=DIRECTION('',(1.,0.,0.));
#1193=DIRECTION('center_axis',(0.,-1.,0.));
#1194=DIRECTION('ref_axis',(1.,0.,0.));
#1195=DIRECTION('center_axis',(0.,1.,0.));
#1196=DIRECTION('ref_axis',(1.,0.,0.));
#1197=DIRECTION('center_axis',(0.,1.,0.));
#1198=DIRECTION('ref_axis',(1.,0.,0.));
#1199=DIRECTION('',(0.,1.,0.));
#1200=DIRECTION('center_axis',(0.,1.,0.));
#1201=DIRECTION('ref_axis',(1.,0.,0.));
#1202=DIRECTION('',(0.,-1.,0.));
#1203=DIRECTION('center_axis',(0.,1.,0.));
#1204=DIRECTION('ref_axis',(1.,0.,0.));
#1205=DIRECTION('center_axis',(0.,1.,0.));
#1206=DIRECTION('ref_axis',(-1.,0.,0.));
#1207=DIRECTION('',(1.,0.,0.));
#1208=DIRECTION('center_axis',(0.,0.,1.));
#1209=DIRECTION('ref_axis',(1.,0.,0.));
#1210=DIRECTION('',(0.,1.,0.));
#1211=DIRECTION('',(1.,0.,0.));
#1212=DIRECTION('',(0.,1.,0.));
#1213=DIRECTION('',(0.,1.,0.));
#1214=DIRECTION('center_axis',(0.,1.,0.));
#1215=DIRECTION('ref_axis',(-1.,0.,0.));
#1216=DIRECTION('center_axis',(0.,1.,0.));
#1217=DIRECTION('ref_axis',(1.,0.,0.));
#1218=DIRECTION('center_axis',(0.,1.,0.));
#1219=DIRECTION('ref_axis',(1.,0.,0.));
#1220=DIRECTION('center_axis',(0.,1.,0.));
#1221=DIRECTION('ref_axis',(1.,0.,0.));
#1222=DIRECTION('',(0.,-1.,0.));
#1223=DIRECTION('center_axis',(0.,1.,0.));
#1224=DIRECTION('ref_axis',(1.,0.,0.));
#1225=DIRECTION('center_axis',(0.,1.,0.));
#1226=DIRECTION('ref_axis',(1.,0.,0.));
#1227=DIRECTION('',(0.,-1.,0.));
#1228=DIRECTION('center_axis',(0.,1.,0.));
#1229=DIRECTION('ref_axis',(-0.707106781186546,0.,-0.707106781186549));
#1230=DIRECTION('center_axis',(0.,1.,0.));
#1231=DIRECTION('ref_axis',(1.,0.,0.));
#1232=DIRECTION('center_axis',(0.,1.,0.));
#1233=DIRECTION('ref_axis',(1.,0.,0.));
#1234=DIRECTION('center_axis',(0.,1.,0.));
#1235=DIRECTION('ref_axis',(0.,0.,1.));
#1236=DIRECTION('center_axis',(0.,1.,0.));
#1237=DIRECTION('ref_axis',(0.,0.,1.));
#1238=CARTESIAN_POINT('',(0.,0.,0.));
#1239=CARTESIAN_POINT('Origin',(-1.9,-10.6150717872302,33.0012179748701));
#1240=CARTESIAN_POINT('',(37.,-11.0801935503581,32.5024359497402));
#1241=CARTESIAN_POINT('',(37.,-10.1499500241022,33.5));
#1242=CARTESIAN_POINT('',(37.,-11.0801935503581,32.5024359497402));
#1243=CARTESIAN_POINT('',(-37.,-10.1499500241022,33.5));
#1244=CARTESIAN_POINT('',(-1.9,-10.1499500241022,33.5));
#1245=CARTESIAN_POINT('',(-37.,-11.0801935503581,32.5024359497402));
#1246=CARTESIAN_POINT('',(-37.,-10.1499500241022,33.5));
#1247=CARTESIAN_POINT('',(-1.9,-11.0801935503581,32.5024359497402));
#1248=CARTESIAN_POINT('Ctrl Pts',(37.,-10.1499500241022,33.5));
#1249=CARTESIAN_POINT('Ctrl Pts',(38.330705311632,-10.1499500241022,33.5));
#1250=CARTESIAN_POINT('Ctrl Pts',(40.5418247737675,-10.095646808242,32.7334110391445));
#1251=CARTESIAN_POINT('Ctrl Pts',(42.5580723285762,-9.92056136207603,30.2494183043834));
#1252=CARTESIAN_POINT('Ctrl Pts',(42.9891589460164,-9.79559134382647,28.4672937047648));
#1253=CARTESIAN_POINT('Ctrl Pts',(42.9995944892277,-9.73282518420055,27.5697564680088));
#1254=CARTESIAN_POINT('Ctrl Pts',(37.,-10.4600311995208,33.1674786499134));
#1255=CARTESIAN_POINT('Ctrl Pts',(38.2609533462993,-10.4600311995208,33.1674786499134));
#1256=CARTESIAN_POINT('Ctrl Pts',(40.3558560038467,-10.4085595020284,32.4380545529601));
#1257=CARTESIAN_POINT('Ctrl Pts',(42.2578841404033,-10.2427985661824,30.0807932625359));
#1258=CARTESIAN_POINT('Ctrl Pts',(42.6594392973443,-10.1246426253705,28.3944378690467));
#1259=CARTESIAN_POINT('Ctrl Pts',(42.6663963261518,-10.0653465069474,27.5465043120059));
#1260=CARTESIAN_POINT('Ctrl Pts',(37.,-10.7701123749395,32.8349572998268));
#1261=CARTESIAN_POINT('Ctrl Pts',(38.1912013809667,-10.7701123749395,32.8349572998268));
#1262=CARTESIAN_POINT('Ctrl Pts',(40.1698872339259,-10.7214721958149,32.1426980667757));
#1263=CARTESIAN_POINT('Ctrl Pts',(41.9576959522304,-10.5650357702888,29.9121682206885));
#1264=CARTESIAN_POINT('Ctrl Pts',(42.3297196486721,-10.4536939069146,28.3215820333287));
#1265=CARTESIAN_POINT('Ctrl Pts',(42.3331981630759,-10.3978678296943,27.5232521560029));
#1266=CARTESIAN_POINT('Ctrl Pts',(37.,-11.0801935503581,32.5024359497402));
#1267=CARTESIAN_POINT('Ctrl Pts',(38.121449415634,-11.0801935503581,32.5024359497402));
#1268=CARTESIAN_POINT('Ctrl Pts',(39.9839184640051,-11.0343848896014,31.8473415805913));
#1269=CARTESIAN_POINT('Ctrl Pts',(41.6575077640575,-10.8872729743951,29.743543178841));
#1270=CARTESIAN_POINT('Ctrl Pts',(42.,-10.7827451884587,28.2487261976106));
#1271=CARTESIAN_POINT('Ctrl Pts',(42.,-10.7303891524412,27.5));
#1272=CARTESIAN_POINT('',(42.,-10.7303891524412,27.5));
#1273=CARTESIAN_POINT('',(42.9995944892277,-9.73282518420055,27.5697564680088));
#1274=CARTESIAN_POINT('',(42.,-10.7303891524412,27.5));
#1275=CARTESIAN_POINT('Ctrl Pts',(42.9995944892277,-9.73282518420055,27.5697564680088));
#1276=CARTESIAN_POINT('Ctrl Pts',(42.9891589460164,-9.79559134382647,28.4672937047648));
#1277=CARTESIAN_POINT('Ctrl Pts',(42.5580723285762,-9.92056136207603,30.2494183043834));
#1278=CARTESIAN_POINT('Ctrl Pts',(40.5418247737675,-10.095646808242,32.7334110391445));
#1279=CARTESIAN_POINT('Ctrl Pts',(38.330705311632,-10.1499500241022,33.5));
#1280=CARTESIAN_POINT('Ctrl Pts',(37.,-10.1499500241022,33.5));
#1281=CARTESIAN_POINT('Ctrl Pts',(37.,-11.0801935503581,32.5024359497402));
#1282=CARTESIAN_POINT('Ctrl Pts',(38.121449415634,-11.0801935503581,32.5024359497402));
#1283=CARTESIAN_POINT('Ctrl Pts',(39.9839184640051,-11.0343848896014,31.8473415805913));
#1284=CARTESIAN_POINT('Ctrl Pts',(41.6575077640575,-10.8872729743951,29.743543178841));
#1285=CARTESIAN_POINT('Ctrl Pts',(42.,-10.7827451884587,28.2487261976106));
#1286=CARTESIAN_POINT('Ctrl Pts',(42.,-10.7303891524412,27.5));
#1287=CARTESIAN_POINT('Ctrl Pts',(-42.9995944892277,-9.73282518420055,27.5697564680088));
#1288=CARTESIAN_POINT('Ctrl Pts',(-42.9839411744107,-9.82697442363942,28.9160623231427));
#1289=CARTESIAN_POINT('Ctrl Pts',(-42.17275954055,-9.98261756683555,31.1316535634701));
#1290=CARTESIAN_POINT('Ctrl Pts',(-39.6584921389491,-10.1215866336531,33.0992470971716));
#1291=CARTESIAN_POINT('Ctrl Pts',(-37.8871368744213,-10.1499500241022,33.5));
#1292=CARTESIAN_POINT('Ctrl Pts',(-37.,-10.1499500241022,33.5));
#1293=CARTESIAN_POINT('Ctrl Pts',(-42.6663963261518,-10.0653465069474,27.5465043120059));
#1294=CARTESIAN_POINT('Ctrl Pts',(-42.6559607829405,-10.1542906845821,28.8184046475671));
#1295=CARTESIAN_POINT('Ctrl Pts',(-41.8963799748904,-10.3015200557849,30.9170764778807));
#1296=CARTESIAN_POINT('Ctrl Pts',(-39.5190841266478,-10.4331526526819,32.7863391740333));
#1297=CARTESIAN_POINT('Ctrl Pts',(-37.8406355641996,-10.4600311995208,33.1674786499134));
#1298=CARTESIAN_POINT('Ctrl Pts',(-37.,-10.4600311995208,33.1674786499134));
#1299=CARTESIAN_POINT('Ctrl Pts',(-42.3331981630759,-10.3978678296943,27.5232521560029));
#1300=CARTESIAN_POINT('Ctrl Pts',(-42.3279803914702,-10.4816069455247,28.7207469719915));
#1301=CARTESIAN_POINT('Ctrl Pts',(-41.6200004092308,-10.6204225447343,30.7024993922912));
#1302=CARTESIAN_POINT('Ctrl Pts',(-39.3796761143465,-10.7447186717107,32.473431250895));
#1303=CARTESIAN_POINT('Ctrl Pts',(-37.7941342539778,-10.7701123749395,32.8349572998268));
#1304=CARTESIAN_POINT('Ctrl Pts',(-37.,-10.7701123749395,32.8349572998268));
#1305=CARTESIAN_POINT('Ctrl Pts',(-42.,-10.7303891524412,27.5));
#1306=CARTESIAN_POINT('Ctrl Pts',(-42.,-10.8089232064674,28.6230892964159));
#1307=CARTESIAN_POINT('Ctrl Pts',(-41.3436208435713,-10.9393250336837,30.4879223067018));
#1308=CARTESIAN_POINT('Ctrl Pts',(-39.2402681020452,-11.0562846907396,32.1605233277567));
#1309=CARTESIAN_POINT('Ctrl Pts',(-37.747632943756,-11.0801935503581,32.5024359497402));
#1310=CARTESIAN_POINT('Ctrl Pts',(-37.,-11.0801935503581,32.5024359497402));
#1311=CARTESIAN_POINT('',(-42.9995944892277,-9.73282518420055,27.5697564680088));
#1312=CARTESIAN_POINT('Ctrl Pts',(-37.,-10.1499500241022,33.5));
#1313=CARTESIAN_POINT('Ctrl Pts',(-37.8871368744213,-10.1499500241022,33.5));
#1314=CARTESIAN_POINT('Ctrl Pts',(-39.6584921389491,-10.1215866336531,33.0992470971716));
#1315=CARTESIAN_POINT('Ctrl Pts',(-42.17275954055,-9.98261756683555,31.1316535634701));
#1316=CARTESIAN_POINT('Ctrl Pts',(-42.9839411744107,-9.82697442363942,28.9160623231427));
#1317=CARTESIAN_POINT('Ctrl Pts',(-42.9995944892277,-9.73282518420055,27.5697564680088));
#1318=CARTESIAN_POINT('',(-42.,-10.7303891524412,27.5));
#1319=CARTESIAN_POINT('',(-42.9995944892277,-9.73282518420055,27.5697564680088));
#1320=CARTESIAN_POINT('Ctrl Pts',(-42.,-10.7303891524412,27.5));
#1321=CARTESIAN_POINT('Ctrl Pts',(-42.,-10.8089232064674,28.6230892964159));
#1322=CARTESIAN_POINT('Ctrl Pts',(-41.3436208435713,-10.9393250336837,30.4879223067018));
#1323=CARTESIAN_POINT('Ctrl Pts',(-39.2402681020452,-11.0562846907396,32.1605233277567));
#1324=CARTESIAN_POINT('Ctrl Pts',(-37.747632943756,-11.0801935503581,32.5024359497402));
#1325=CARTESIAN_POINT('Ctrl Pts',(-37.,-11.0801935503581,32.5024359497402));
#1326=CARTESIAN_POINT('Origin',(42.5,-8.43206402205891,1.80021287409131));
#1327=CARTESIAN_POINT('',(43.,-9.72794725435999,27.5));
#1328=CARTESIAN_POINT('',(42.,-10.7255113046198,27.4302435262559));
#1329=CARTESIAN_POINT('',(43.,-9.72794725435999,27.5));
#1330=CARTESIAN_POINT('',(42.,-6.74456087166106,-29.5));
#1331=CARTESIAN_POINT('',(42.,-8.93084604718882,1.76533463721925));
#1332=CARTESIAN_POINT('',(43.,-5.74699682140124,-29.4302435262559));
#1333=CARTESIAN_POINT('',(42.,-6.74456087166106,-29.5));
#1334=CARTESIAN_POINT('',(43.,-7.933281996929,1.83509111096338));
#1335=CARTESIAN_POINT('Ctrl Pts',(42.9995944892277,-9.73282518420055,27.5697564680088));
#1336=CARTESIAN_POINT('Ctrl Pts',(42.999864838812,-9.73119912556415,27.5465043177415));
#1337=CARTESIAN_POINT('Ctrl Pts',(43.,-9.72957320363377,27.5232521579147));
#1338=CARTESIAN_POINT('Ctrl Pts',(43.,-9.72794725435999,27.5));
#1339=CARTESIAN_POINT('Ctrl Pts',(42.6663963261518,-10.0653465069474,27.5465043120059));
#1340=CARTESIAN_POINT('Ctrl Pts',(42.666576559208,-10.0637204847652,27.5232521591894));
#1341=CARTESIAN_POINT('Ctrl Pts',(42.6666666666667,-10.0620945537204,27.5));
#1342=CARTESIAN_POINT('Ctrl Pts',(42.6666666666667,-10.0604686044466,27.4767478420853));
#1343=CARTESIAN_POINT('Ctrl Pts',(42.3331981630759,-10.3978678296943,27.523252156003));
#1344=CARTESIAN_POINT('Ctrl Pts',(42.333288279604,-10.3962418439663,27.5000000006374));
#1345=CARTESIAN_POINT('Ctrl Pts',(42.3333333333333,-10.394615903807,27.4767478420853));
#1346=CARTESIAN_POINT('Ctrl Pts',(42.3333333333333,-10.3929899545332,27.4534956841706));
#1347=CARTESIAN_POINT('Ctrl Pts',(42.,-10.7303891524412,27.5));
#1348=CARTESIAN_POINT('Ctrl Pts',(42.,-10.7287632031674,27.4767478420853));
#1349=CARTESIAN_POINT('Ctrl Pts',(42.,-10.7271372538936,27.4534956841706));
#1350=CARTESIAN_POINT('Ctrl Pts',(42.,-10.7255113046198,27.4302435262559));
#1351=CARTESIAN_POINT('Ctrl Pts',(43.,-9.72794725435999,27.5));
#1352=CARTESIAN_POINT('Ctrl Pts',(43.,-9.72957320363377,27.5232521579147));
#1353=CARTESIAN_POINT('Ctrl Pts',(42.999864838812,-9.73119912556415,27.5465043177415));
#1354=CARTESIAN_POINT('Ctrl Pts',(42.9995944892277,-9.73282518420055,27.5697564680088));
#1355=CARTESIAN_POINT('Ctrl Pts',(42.,-10.7303891524412,27.5));
#1356=CARTESIAN_POINT('Ctrl Pts',(42.,-10.7287632031674,27.4767478420853));
#1357=CARTESIAN_POINT('Ctrl Pts',(42.,-10.7271372538936,27.4534956841706));
#1358=CARTESIAN_POINT('Ctrl Pts',(42.,-10.7255113046198,27.4302435262559));
#1359=CARTESIAN_POINT('Ctrl Pts',(43.,-5.74211905604509,-29.499999999199));
#1360=CARTESIAN_POINT('Ctrl Pts',(43.000000000119,-5.67981326312428,-30.3910745649073));
#1361=CARTESIAN_POINT('Ctrl Pts',(42.5952942497187,-5.55540783880271,-32.1751083585786));
#1362=CARTESIAN_POINT('Ctrl Pts',(40.5960525860248,-5.37986440847186,-34.7053192037611));
#1363=CARTESIAN_POINT('Ctrl Pts',(38.3520074934869,-5.325,-35.5));
#1364=CARTESIAN_POINT('Ctrl Pts',(37.,-5.325,-35.5));
#1365=CARTESIAN_POINT('Ctrl Pts',(42.6665539303413,-6.07491014297495,-29.5193943477058));
#1366=CARTESIAN_POINT('Ctrl Pts',(42.6636740164298,-6.01605127308404,-30.3611555457883));
#1367=CARTESIAN_POINT('Ctrl Pts',(42.275673345307,-5.89862200298007,-32.0437745729304));
#1368=CARTESIAN_POINT('Ctrl Pts',(40.3847110448046,-5.73319743877285,-34.4226712792949));
#1369=CARTESIAN_POINT('Ctrl Pts',(38.2723881627188,-5.68158549124804,-35.1674786499134));
#1370=CARTESIAN_POINT('Ctrl Pts',(37.,-5.68158549124804,-35.1674786499134));
#1371=CARTESIAN_POINT('Ctrl Pts',(42.3331078606825,-6.40770122990481,-29.5387886962126));
#1372=CARTESIAN_POINT('Ctrl Pts',(42.3273480327407,-6.3522892830438,-30.3312365266693));
#1373=CARTESIAN_POINT('Ctrl Pts',(41.9560524408954,-6.24183616715743,-31.9124407872821));
#1374=CARTESIAN_POINT('Ctrl Pts',(40.1733695035845,-6.08653046907383,-34.1400233548288));
#1375=CARTESIAN_POINT('Ctrl Pts',(38.1927688319508,-6.03817098249608,-34.8349572998268));
#1376=CARTESIAN_POINT('Ctrl Pts',(37.,-6.03817098249608,-34.8349572998268));
#1377=CARTESIAN_POINT('Ctrl Pts',(41.9996617910238,-6.74049231683467,-29.5581830447194));
#1378=CARTESIAN_POINT('Ctrl Pts',(41.9910220490515,-6.68852729300355,-30.3013175075503));
#1379=CARTESIAN_POINT('Ctrl Pts',(41.6364315364838,-6.58505033133479,-31.7811070016339));
#1380=CARTESIAN_POINT('Ctrl Pts',(39.9620279623643,-6.43986349937482,-33.8573754303626));
#1381=CARTESIAN_POINT('Ctrl Pts',(38.1131495011827,-6.39475647374413,-34.5024359497402));
#1382=CARTESIAN_POINT('Ctrl Pts',(37.,-6.39475647374413,-34.5024359497402));
#1383=CARTESIAN_POINT('',(43.,-5.74211905610056,-29.4999999992028));
#1384=CARTESIAN_POINT('',(41.9996617910238,-6.74049231683467,-29.5581830447194));
#1385=CARTESIAN_POINT('',(43.,-5.74211905610056,-29.4999999992028));
#1386=CARTESIAN_POINT('',(37.,-6.39475647374413,-34.5024359497402));
#1387=CARTESIAN_POINT('Ctrl Pts',(41.9996617910238,-6.74049231683467,-29.5581830447194));
#1388=CARTESIAN_POINT('Ctrl Pts',(41.9910220490515,-6.68852729300355,-30.3013175075503));
#1389=CARTESIAN_POINT('Ctrl Pts',(41.6364315364838,-6.58505033133479,-31.7811070016339));
#1390=CARTESIAN_POINT('Ctrl Pts',(39.9620279623643,-6.43986349937482,-33.8573754303626));
#1391=CARTESIAN_POINT('Ctrl Pts',(38.1131495011827,-6.39475647374413,-34.5024359497402));
#1392=CARTESIAN_POINT('Ctrl Pts',(37.,-6.39475647374413,-34.5024359497402));
#1393=CARTESIAN_POINT('',(37.,-5.325,-35.5));
#1394=CARTESIAN_POINT('',(37.,-6.39475647374413,-34.5024359497402));
#1395=CARTESIAN_POINT('Ctrl Pts',(37.,-5.325,-35.5));
#1396=CARTESIAN_POINT('Ctrl Pts',(38.3520074934869,-5.325,-35.5));
#1397=CARTESIAN_POINT('Ctrl Pts',(40.5960525860248,-5.37986440847186,-34.7053192037611));
#1398=CARTESIAN_POINT('Ctrl Pts',(42.5952942497187,-5.55540783880271,-32.1751083585786));
#1399=CARTESIAN_POINT('Ctrl Pts',(43.000000000119,-5.67981326312428,-30.3910745649073));
#1400=CARTESIAN_POINT('Ctrl Pts',(43.,-5.74211905604509,-29.499999999199));
#1401=CARTESIAN_POINT('Origin',(-38.9,-5.85987823687206,-35.0012179748701));
#1402=CARTESIAN_POINT('',(-37.,-6.39475647374413,-34.5024359497402));
#1403=CARTESIAN_POINT('',(-37.,-5.325,-35.5));
#1404=CARTESIAN_POINT('',(-37.,-6.39475647374413,-34.5024359497402));
#1405=CARTESIAN_POINT('',(-38.9,-5.325,-35.5));
#1406=CARTESIAN_POINT('',(-38.9,-6.39475647374413,-34.5024359497402));
#1407=CARTESIAN_POINT('Ctrl Pts',(-37.,-5.325,-35.5));
#1408=CARTESIAN_POINT('Ctrl Pts',(-38.3520074934869,-5.325,-35.5));
#1409=CARTESIAN_POINT('Ctrl Pts',(-40.5960525860248,-5.37986440847186,-34.7053192037611));
#1410=CARTESIAN_POINT('Ctrl Pts',(-42.5952942497186,-5.55540783880271,-32.1751083585786));
#1411=CARTESIAN_POINT('Ctrl Pts',(-43.000000000119,-5.67981326312428,-30.3910745649073));
#1412=CARTESIAN_POINT('Ctrl Pts',(-43.,-5.74211905604509,-29.499999999199));
#1413=CARTESIAN_POINT('Ctrl Pts',(-37.,-5.68158549124804,-35.1674786499134));
#1414=CARTESIAN_POINT('Ctrl Pts',(-38.2723881627188,-5.68158549124804,-35.1674786499134));
#1415=CARTESIAN_POINT('Ctrl Pts',(-40.3847110448046,-5.73319743877284,-34.4226712792949));
#1416=CARTESIAN_POINT('Ctrl Pts',(-42.275673345307,-5.89862200298007,-32.0437745729304));
#1417=CARTESIAN_POINT('Ctrl Pts',(-42.6636740164298,-6.01605127308404,-30.3611555457883));
#1418=CARTESIAN_POINT('Ctrl Pts',(-42.6665539303413,-6.07491014297495,-29.5193943477058));
#1419=CARTESIAN_POINT('Ctrl Pts',(-37.,-6.03817098249608,-34.8349572998268));
#1420=CARTESIAN_POINT('Ctrl Pts',(-38.1927688319508,-6.03817098249608,-34.8349572998268));
#1421=CARTESIAN_POINT('Ctrl Pts',(-40.1733695035845,-6.08653046907383,-34.1400233548288));
#1422=CARTESIAN_POINT('Ctrl Pts',(-41.9560524408954,-6.24183616715742,-31.9124407872821));
#1423=CARTESIAN_POINT('Ctrl Pts',(-42.3273480327407,-6.3522892830438,-30.3312365266693));
#1424=CARTESIAN_POINT('Ctrl Pts',(-42.3331078606825,-6.40770122990481,-29.5387886962126));
#1425=CARTESIAN_POINT('Ctrl Pts',(-37.,-6.39475647374413,-34.5024359497402));
#1426=CARTESIAN_POINT('Ctrl Pts',(-38.1131495011827,-6.39475647374413,-34.5024359497402));
#1427=CARTESIAN_POINT('Ctrl Pts',(-39.9620279623643,-6.43986349937482,-33.8573754303626));
#1428=CARTESIAN_POINT('Ctrl Pts',(-41.6364315364838,-6.58505033133478,-31.7811070016339));
#1429=CARTESIAN_POINT('Ctrl Pts',(-41.9910220490515,-6.68852729300355,-30.3013175075503));
#1430=CARTESIAN_POINT('Ctrl Pts',(-41.9996617910238,-6.74049231683467,-29.5581830447194));
#1431=CARTESIAN_POINT('',(-41.9996617910238,-6.74049231683467,-29.5581830447194));
#1432=CARTESIAN_POINT('',(-43.,-5.74211905610056,-29.4999999992028));
#1433=CARTESIAN_POINT('',(-41.9996617910238,-6.74049231683467,-29.5581830447194));
#1434=CARTESIAN_POINT('Ctrl Pts',(-43.,-5.74211905604509,-29.499999999199));
#1435=CARTESIAN_POINT('Ctrl Pts',(-43.000000000119,-5.67981326312428,-30.3910745649073));
#1436=CARTESIAN_POINT('Ctrl Pts',(-42.5952942497186,-5.55540783880271,-32.1751083585786));
#1437=CARTESIAN_POINT('Ctrl Pts',(-40.5960525860248,-5.37986440847186,-34.7053192037611));
#1438=CARTESIAN_POINT('Ctrl Pts',(-38.3520074934869,-5.325,-35.5));
#1439=CARTESIAN_POINT('Ctrl Pts',(-37.,-5.325,-35.5));
#1440=CARTESIAN_POINT('Ctrl Pts',(-37.,-6.39475647374413,-34.5024359497402));
#1441=CARTESIAN_POINT('Ctrl Pts',(-38.1131495011827,-6.39475647374413,-34.5024359497402));
#1442=CARTESIAN_POINT('Ctrl Pts',(-39.9620279623643,-6.43986349937482,-33.8573754303626));
#1443=CARTESIAN_POINT('Ctrl Pts',(-41.6364315364838,-6.58505033133478,-31.7811070016339));
#1444=CARTESIAN_POINT('Ctrl Pts',(-41.9910220490515,-6.68852729300355,-30.3013175075503));
#1445=CARTESIAN_POINT('Ctrl Pts',(-41.9996617910238,-6.74049231683467,-29.5581830447194));
#1446=CARTESIAN_POINT('Ctrl Pts',(43.,-5.74699682140124,-29.4302435262559));
#1447=CARTESIAN_POINT('Ctrl Pts',(43.,-5.74537094499679,-29.4534946420906));
#1448=CARTESIAN_POINT('Ctrl Pts',(43.,-5.74374504125803,-29.4767457559006));
#1449=CARTESIAN_POINT('Ctrl Pts',(43.,-5.74211905604509,-29.4999999991989));
#1450=CARTESIAN_POINT('Ctrl Pts',(42.6666666666667,-6.07951817148785,-29.4534956841706));
#1451=CARTESIAN_POINT('Ctrl Pts',(42.6666666666667,-6.07798218202483,-29.4754613568551));
#1452=CARTESIAN_POINT('Ctrl Pts',(42.6666290870377,-6.07644617433908,-29.4974270281877));
#1453=CARTESIAN_POINT('Ctrl Pts',(42.6665539303413,-6.07491014297495,-29.5193943477058));
#1454=CARTESIAN_POINT('Ctrl Pts',(42.3333333333333,-6.41203952157445,-29.4767478420853));
#1455=CARTESIAN_POINT('Ctrl Pts',(42.3333333333333,-6.41059341905286,-29.4974280716196));
#1456=CARTESIAN_POINT('Ctrl Pts',(42.3332581740754,-6.40914730742012,-29.5181083004749));
#1457=CARTESIAN_POINT('Ctrl Pts',(42.3331078606825,-6.40770122990481,-29.5387886962126));
#1458=CARTESIAN_POINT('Ctrl Pts',(42.,-6.74456087166106,-29.5));
#1459=CARTESIAN_POINT('Ctrl Pts',(42.,-6.7432046560809,-29.519394786384));
#1460=CARTESIAN_POINT('Ctrl Pts',(41.999887261113,-6.74184844050117,-29.538789572762));
#1461=CARTESIAN_POINT('Ctrl Pts',(41.9996617910238,-6.74049231683467,-29.5581830447194));
#1462=CARTESIAN_POINT('Ctrl Pts',(43.,-5.74211905604509,-29.4999999991989));
#1463=CARTESIAN_POINT('Ctrl Pts',(43.,-5.74374504125803,-29.4767457559006));
#1464=CARTESIAN_POINT('Ctrl Pts',(43.,-5.74537094499679,-29.4534946420906));
#1465=CARTESIAN_POINT('Ctrl Pts',(43.,-5.74699682140124,-29.4302435262559));
#1466=CARTESIAN_POINT('Ctrl Pts',(42.,-6.74456087166106,-29.5));
#1467=CARTESIAN_POINT('Ctrl Pts',(42.,-6.7432046560809,-29.519394786384));
#1468=CARTESIAN_POINT('Ctrl Pts',(41.999887261113,-6.74184844050117,-29.538789572762));
#1469=CARTESIAN_POINT('Ctrl Pts',(41.9996617910238,-6.74049231683467,-29.5581830447194));
#1470=CARTESIAN_POINT('Origin',(-42.5,-10.4152807107398,30.1615328536587));
#1471=CARTESIAN_POINT('',(-42.,-10.7255113046198,27.4302435262559));
#1472=CARTESIAN_POINT('',(-43.,-9.72794725435999,27.5));
#1473=CARTESIAN_POINT('',(-42.,-10.7255113046198,27.4302435262559));
#1474=CARTESIAN_POINT('',(-43.,-5.74699682140124,-29.4302435262559));
#1475=CARTESIAN_POINT('',(-43.,-9.91649868560993,30.1964110905308));
#1476=CARTESIAN_POINT('',(-42.,-6.74456087166106,-29.5));
#1477=CARTESIAN_POINT('',(-43.,-5.74699682140124,-29.4302435262559));
#1478=CARTESIAN_POINT('',(-42.,-10.9140627358698,30.1266546167866));
#1479=CARTESIAN_POINT('Ctrl Pts',(-43.,-5.74211905604509,-29.4999999991989));
#1480=CARTESIAN_POINT('Ctrl Pts',(-43.,-5.74374504125803,-29.4767457559006));
#1481=CARTESIAN_POINT('Ctrl Pts',(-43.,-5.74537094499679,-29.4534946420906));
#1482=CARTESIAN_POINT('Ctrl Pts',(-43.,-5.74699682140124,-29.4302435262559));
#1483=CARTESIAN_POINT('Ctrl Pts',(-42.6665539303413,-6.07491014297495,-29.5193943477058));
#1484=CARTESIAN_POINT('Ctrl Pts',(-42.6666290870377,-6.07644617433908,-29.4974270281877));
#1485=CARTESIAN_POINT('Ctrl Pts',(-42.6666666666667,-6.07798218202483,-29.4754613568551));
#1486=CARTESIAN_POINT('Ctrl Pts',(-42.6666666666667,-6.07951817148785,-29.4534956841706));
#1487=CARTESIAN_POINT('Ctrl Pts',(-42.3331078606825,-6.40770122990481,-29.5387886962126));
#1488=CARTESIAN_POINT('Ctrl Pts',(-42.3332581740754,-6.40914730742012,-29.5181083004749));
#1489=CARTESIAN_POINT('Ctrl Pts',(-42.3333333333333,-6.41059341905286,-29.4974280716196));
#1490=CARTESIAN_POINT('Ctrl Pts',(-42.3333333333333,-6.41203952157445,-29.4767478420853));
#1491=CARTESIAN_POINT('Ctrl Pts',(-41.9996617910238,-6.74049231683467,-29.5581830447194));
#1492=CARTESIAN_POINT('Ctrl Pts',(-41.999887261113,-6.74184844050117,-29.538789572762));
#1493=CARTESIAN_POINT('Ctrl Pts',(-42.,-6.7432046560809,-29.519394786384));
#1494=CARTESIAN_POINT('Ctrl Pts',(-42.,-6.74456087166106,-29.5));
#1495=CARTESIAN_POINT('Ctrl Pts',(-43.,-5.74699682140124,-29.4302435262559));
#1496=CARTESIAN_POINT('Ctrl Pts',(-43.,-5.74537094499679,-29.4534946420906));
#1497=CARTESIAN_POINT('Ctrl Pts',(-43.,-5.74374504125803,-29.4767457559006));
#1498=CARTESIAN_POINT('Ctrl Pts',(-43.,-5.74211905604509,-29.4999999991989));
#1499=CARTESIAN_POINT('Ctrl Pts',(-41.9996617910238,-6.74049231683467,-29.5581830447194));
#1500=CARTESIAN_POINT('Ctrl Pts',(-41.999887261113,-6.74184844050117,-29.538789572762));
#1501=CARTESIAN_POINT('Ctrl Pts',(-42.,-6.7432046560809,-29.519394786384));
#1502=CARTESIAN_POINT('Ctrl Pts',(-42.,-6.74456087166106,-29.5));
#1503=CARTESIAN_POINT('Ctrl Pts',(-43.,-9.72794725435999,27.5));
#1504=CARTESIAN_POINT('Ctrl Pts',(-43.,-9.72957320363377,27.5232521579147));
#1505=CARTESIAN_POINT('Ctrl Pts',(-42.999864838812,-9.73119912556414,27.5465043177415));
#1506=CARTESIAN_POINT('Ctrl Pts',(-42.9995944892277,-9.73282518420055,27.5697564680088));
#1507=CARTESIAN_POINT('Ctrl Pts',(-42.6666666666667,-10.0604686044466,27.4767478420853));
#1508=CARTESIAN_POINT('Ctrl Pts',(-42.6666666666667,-10.0620945537204,27.5));
#1509=CARTESIAN_POINT('Ctrl Pts',(-42.666576559208,-10.0637204847652,27.5232521591894));
#1510=CARTESIAN_POINT('Ctrl Pts',(-42.6663963261518,-10.0653465069474,27.5465043120059));
#1511=CARTESIAN_POINT('Ctrl Pts',(-42.3333333333333,-10.3929899545332,27.4534956841706));
#1512=CARTESIAN_POINT('Ctrl Pts',(-42.3333333333333,-10.394615903807,27.4767478420853));
#1513=CARTESIAN_POINT('Ctrl Pts',(-42.333288279604,-10.3962418439663,27.5000000006373));
#1514=CARTESIAN_POINT('Ctrl Pts',(-42.3331981630759,-10.3978678296943,27.5232521560029));
#1515=CARTESIAN_POINT('Ctrl Pts',(-42.,-10.7255113046198,27.4302435262559));
#1516=CARTESIAN_POINT('Ctrl Pts',(-42.,-10.7271372538936,27.4534956841706));
#1517=CARTESIAN_POINT('Ctrl Pts',(-42.,-10.7287632031674,27.4767478420853));
#1518=CARTESIAN_POINT('Ctrl Pts',(-42.,-10.7303891524412,27.5));
#1519=CARTESIAN_POINT('Ctrl Pts',(-42.9995944892277,-9.73282518420055,27.5697564680088));
#1520=CARTESIAN_POINT('Ctrl Pts',(-42.999864838812,-9.73119912556414,27.5465043177415));
#1521=CARTESIAN_POINT('Ctrl Pts',(-43.,-9.72957320363377,27.5232521579147));
#1522=CARTESIAN_POINT('Ctrl Pts',(-43.,-9.72794725435999,27.5));
#1523=CARTESIAN_POINT('Ctrl Pts',(-42.,-10.7255113046198,27.4302435262559));
#1524=CARTESIAN_POINT('Ctrl Pts',(-42.,-10.7271372538936,27.4534956841706));
#1525=CARTESIAN_POINT('Ctrl Pts',(-42.,-10.7287632031674,27.4767478420853));
#1526=CARTESIAN_POINT('Ctrl Pts',(-42.,-10.7303891524412,27.5));
#1527=CARTESIAN_POINT('Origin',(43.,0.,-29.5));
#1528=CARTESIAN_POINT('',(43.,0.,-29.5));
#1529=CARTESIAN_POINT('',(43.,0.,-29.5));
#1530=CARTESIAN_POINT('',(43.,0.,27.5));
#1531=CARTESIAN_POINT('',(43.,0.,27.5));
#1532=CARTESIAN_POINT('',(43.,0.,27.5));
#1533=CARTESIAN_POINT('Origin',(37.,0.,-29.5));
#1534=CARTESIAN_POINT('',(37.,0.,-35.5));
#1535=CARTESIAN_POINT('',(37.,0.,-35.5));
#1536=CARTESIAN_POINT('Origin',(37.,0.,-29.5));
#1537=CARTESIAN_POINT('Origin',(-37.,0.,-35.5));
#1538=CARTESIAN_POINT('',(-37.,0.,-35.5));
#1539=CARTESIAN_POINT('',(-37.,0.,-35.5));
#1540=CARTESIAN_POINT('',(37.,0.,-35.5));
#1541=CARTESIAN_POINT('Origin',(-37.,0.,-29.5));
#1542=CARTESIAN_POINT('',(-43.,0.,-29.5));
#1543=CARTESIAN_POINT('',(-43.,0.,-29.5));
#1544=CARTESIAN_POINT('Origin',(-37.,0.,-29.5));
#1545=CARTESIAN_POINT('Origin',(-43.,0.,27.5));
#1546=CARTESIAN_POINT('',(-43.,0.,27.5));
#1547=CARTESIAN_POINT('',(-43.,0.,27.5));
#1548=CARTESIAN_POINT('',(-43.,0.,-29.5));
#1549=CARTESIAN_POINT('Origin',(-40.8,-11.1499500241022,33.5));
#1550=CARTESIAN_POINT('Origin',(37.,0.,27.5));
#1551=CARTESIAN_POINT('',(35.35,0.,27.5));
#1552=CARTESIAN_POINT('Origin',(37.,0.,27.5));
#1553=CARTESIAN_POINT('',(35.35,4.,27.5));
#1554=CARTESIAN_POINT('',(35.35,0.,27.5));
#1555=CARTESIAN_POINT('Origin',(37.,4.,27.5));
#1556=CARTESIAN_POINT('Origin',(37.,0.,27.5));
#1557=CARTESIAN_POINT('',(35.75,0.,27.5));
#1558=CARTESIAN_POINT('Origin',(37.,0.,27.5));
#1559=CARTESIAN_POINT('Origin',(-37.,0.,27.5));
#1560=CARTESIAN_POINT('',(-38.65,0.,27.5));
#1561=CARTESIAN_POINT('Origin',(-37.,0.,27.5));
#1562=CARTESIAN_POINT('',(-38.65,4.,27.5));
#1563=CARTESIAN_POINT('',(-38.65,0.,27.5));
#1564=CARTESIAN_POINT('Origin',(-37.,4.,27.5));
#1565=CARTESIAN_POINT('Origin',(-37.,0.,27.5));
#1566=CARTESIAN_POINT('',(-38.25,0.,27.5));
#1567=CARTESIAN_POINT('Origin',(-37.,0.,27.5));
#1568=CARTESIAN_POINT('Origin',(37.,0.,-29.5));
#1569=CARTESIAN_POINT('',(35.35,0.,-29.5));
#1570=CARTESIAN_POINT('Origin',(37.,0.,-29.5));
#1571=CARTESIAN_POINT('',(35.35,4.,-29.5));
#1572=CARTESIAN_POINT('',(35.35,0.,-29.5));
#1573=CARTESIAN_POINT('Origin',(37.,4.,-29.5));
#1574=CARTESIAN_POINT('Origin',(37.,0.,-29.5));
#1575=CARTESIAN_POINT('',(35.75,0.,-29.5));
#1576=CARTESIAN_POINT('Origin',(37.,0.,-29.5));
#1577=CARTESIAN_POINT('Origin',(-37.,0.,-29.5));
#1578=CARTESIAN_POINT('',(-38.65,0.,-29.5));
#1579=CARTESIAN_POINT('Origin',(-37.,0.,-29.5));
#1580=CARTESIAN_POINT('',(-38.65,4.,-29.5));
#1581=CARTESIAN_POINT('',(-38.65,0.,-29.5));
#1582=CARTESIAN_POINT('Origin',(-37.,4.,-29.5));
#1583=CARTESIAN_POINT('Origin',(-37.,0.,-29.5));
#1584=CARTESIAN_POINT('',(-38.25,0.,-29.5));
#1585=CARTESIAN_POINT('Origin',(-37.,0.,-29.5));
#1586=CARTESIAN_POINT('Origin',(-37.,-5.,27.5));
#1587=CARTESIAN_POINT('',(-38.25,-5.,27.5));
#1588=CARTESIAN_POINT('Origin',(-37.,-5.,27.5));
#1589=CARTESIAN_POINT('Origin',(37.,-5.,-29.5));
#1590=CARTESIAN_POINT('',(35.75,-5.,-29.5));
#1591=CARTESIAN_POINT('Origin',(37.,-5.,-29.5));
#1592=CARTESIAN_POINT('Origin',(-37.,-5.,-29.5));
#1593=CARTESIAN_POINT('',(-38.25,-5.,-29.5));
#1594=CARTESIAN_POINT('Origin',(-37.,-5.,-29.5));
#1595=CARTESIAN_POINT('Origin',(37.,-5.,27.5));
#1596=CARTESIAN_POINT('',(35.75,-5.,27.5));
#1597=CARTESIAN_POINT('Origin',(37.,-5.,27.5));
#1598=CARTESIAN_POINT('Origin',(37.,0.,33.5));
#1599=CARTESIAN_POINT('',(37.,0.,33.5));
#1600=CARTESIAN_POINT('',(37.,0.,33.5));
#1601=CARTESIAN_POINT('',(-37.,0.,33.5));
#1602=CARTESIAN_POINT('',(-37.,0.,33.5));
#1603=CARTESIAN_POINT('',(-37.,0.,33.5));
#1604=CARTESIAN_POINT('Origin',(37.,0.,27.5));
#1605=CARTESIAN_POINT('Origin',(37.,0.,27.5));
#1606=CARTESIAN_POINT('Origin',(-37.,0.,27.5));
#1607=CARTESIAN_POINT('Origin',(-37.,0.,27.5));
#1608=CARTESIAN_POINT('Origin',(0.,0.,-0.999999999999996));
#1609=CARTESIAN_POINT('',(-40.8,0.,-29.3));
#1610=CARTESIAN_POINT('',(-40.8,0.,27.3));
#1611=CARTESIAN_POINT('',(-40.8,0.,-15.15));
#1612=CARTESIAN_POINT('',(-36.8,0.,-33.3));
#1613=CARTESIAN_POINT('Origin',(-36.8,0.,-29.3));
#1614=CARTESIAN_POINT('',(36.8,0.,-33.3));
#1615=CARTESIAN_POINT('',(18.4,0.,-33.3));
#1616=CARTESIAN_POINT('',(40.8,0.,-29.3));
#1617=CARTESIAN_POINT('Origin',(36.8,0.,-29.3));
#1618=CARTESIAN_POINT('',(40.8,0.,27.3));
#1619=CARTESIAN_POINT('',(40.8,0.,13.15));
#1620=CARTESIAN_POINT('',(36.8,0.,31.3));
#1621=CARTESIAN_POINT('Origin',(36.8,0.,27.3));
#1622=CARTESIAN_POINT('',(-36.8,0.,31.3));
#1623=CARTESIAN_POINT('',(-18.4,0.,31.3));
#1624=CARTESIAN_POINT('Origin',(-36.8,0.,27.3));
#1625=CARTESIAN_POINT('Origin',(36.8,0.,-29.3));
#1626=CARTESIAN_POINT('',(36.8,4.,-33.3));
#1627=CARTESIAN_POINT('',(36.8,0.,-33.3));
#1628=CARTESIAN_POINT('',(40.8,4.,-29.3));
#1629=CARTESIAN_POINT('Origin',(36.8,4.,-29.3));
#1630=CARTESIAN_POINT('',(40.8,0.,-29.3));
#1631=CARTESIAN_POINT('Origin',(36.8,0.,-33.3));
#1632=CARTESIAN_POINT('',(-36.8,4.,-33.3));
#1633=CARTESIAN_POINT('',(-36.8,0.,-33.3));
#1634=CARTESIAN_POINT('',(-35.7510004003203,4.,-33.3));
#1635=CARTESIAN_POINT('',(36.8,4.,-33.3));
#1636=CARTESIAN_POINT('',(-35.7510004003203,0.5,-33.3));
#1637=CARTESIAN_POINT('',(-35.7510004003203,0.,-33.3));
#1638=CARTESIAN_POINT('',(35.7510004003203,0.5,-33.3));
#1639=CARTESIAN_POINT('',(36.8,0.5,-33.3));
#1640=CARTESIAN_POINT('',(35.7510004003203,4.,-33.3));
#1641=CARTESIAN_POINT('',(35.7510004003203,0.,-33.3));
#1642=CARTESIAN_POINT('',(36.8,4.,-33.3));
#1643=CARTESIAN_POINT('Origin',(-36.8,0.,-29.3));
#1644=CARTESIAN_POINT('',(-40.8,4.,-29.3));
#1645=CARTESIAN_POINT('',(-40.8,0.,-29.3));
#1646=CARTESIAN_POINT('Origin',(-36.8,4.,-29.3));
#1647=CARTESIAN_POINT('Origin',(-40.8,0.,-29.3));
#1648=CARTESIAN_POINT('',(-40.8,4.,27.3));
#1649=CARTESIAN_POINT('',(-40.8,0.,27.3));
#1650=CARTESIAN_POINT('',(-40.8,4.,26.2510004003203));
#1651=CARTESIAN_POINT('',(-40.8,4.,-29.3));
#1652=CARTESIAN_POINT('',(-40.8,0.5,26.2510004003203));
#1653=CARTESIAN_POINT('',(-40.8,0.,26.2510004003203));
#1654=CARTESIAN_POINT('',(-40.8,0.5,-28.2510004003203));
#1655=CARTESIAN_POINT('',(-40.8,0.5,-29.3));
#1656=CARTESIAN_POINT('',(-40.8,4.,-28.2510004003203));
#1657=CARTESIAN_POINT('',(-40.8,0.,-28.2510004003203));
#1658=CARTESIAN_POINT('',(-40.8,4.,-29.3));
#1659=CARTESIAN_POINT('Origin',(37.,0.,-29.5));
#1660=CARTESIAN_POINT('',(35.75,0.,-29.5));
#1661=CARTESIAN_POINT('Origin',(37.,0.,-29.5));
#1662=CARTESIAN_POINT('',(40.8,0.5,-28.2510004003203));
#1663=CARTESIAN_POINT('Origin',(37.,0.5,-29.5));
#1664=CARTESIAN_POINT('',(40.8,4.,-28.2510004003203));
#1665=CARTESIAN_POINT('',(40.8,0.,-28.2510004003203));
#1666=CARTESIAN_POINT('Origin',(37.,4.,-29.5));
#1667=CARTESIAN_POINT('Origin',(36.9,4.,-29.4));
#1668=CARTESIAN_POINT('',(40.8,4.,27.3));
#1669=CARTESIAN_POINT('Origin',(40.8,0.,27.3));
#1670=CARTESIAN_POINT('',(40.8,0.5,26.2510004003203));
#1671=CARTESIAN_POINT('',(40.8,0.5,27.3));
#1672=CARTESIAN_POINT('',(40.8,4.,26.2510004003203));
#1673=CARTESIAN_POINT('',(40.8,0.,26.2510004003203));
#1674=CARTESIAN_POINT('',(40.8,4.,27.3));
#1675=CARTESIAN_POINT('',(40.8,4.,27.3));
#1676=CARTESIAN_POINT('',(40.8,0.,27.3));
#1677=CARTESIAN_POINT('Origin',(0.,0.5,-0.999999999999996));
#1678=CARTESIAN_POINT('Origin',(-37.,0.5,-29.5));
#1679=CARTESIAN_POINT('',(-35.7510004003203,0.5,31.3));
#1680=CARTESIAN_POINT('Origin',(-37.,0.5,27.5));
#1681=CARTESIAN_POINT('',(35.7510004003203,0.5,31.3));
#1682=CARTESIAN_POINT('',(-36.8,0.5,31.3));
#1683=CARTESIAN_POINT('Origin',(37.,0.5,27.5));
#1684=CARTESIAN_POINT('Origin',(-37.,0.,27.5));
#1685=CARTESIAN_POINT('',(-35.7510004003203,4.,31.3));
#1686=CARTESIAN_POINT('Origin',(-37.,4.,27.5));
#1687=CARTESIAN_POINT('',(-35.7510004003203,0.,31.3));
#1688=CARTESIAN_POINT('Origin',(-37.,0.,27.5));
#1689=CARTESIAN_POINT('',(-38.25,0.,27.5));
#1690=CARTESIAN_POINT('Origin',(-36.9,4.,27.4));
#1691=CARTESIAN_POINT('',(-36.8,4.,31.3));
#1692=CARTESIAN_POINT('Origin',(-36.8,4.,27.3));
#1693=CARTESIAN_POINT('',(-36.8,4.,31.3));
#1694=CARTESIAN_POINT('Origin',(-36.8,0.,31.3));
#1695=CARTESIAN_POINT('',(36.8,4.,31.3));
#1696=CARTESIAN_POINT('',(36.8,0.,31.3));
#1697=CARTESIAN_POINT('',(35.7510004003203,4.,31.3));
#1698=CARTESIAN_POINT('',(-36.8,4.,31.3));
#1699=CARTESIAN_POINT('',(35.7510004003203,0.,31.3));
#1700=CARTESIAN_POINT('',(-36.8,0.,31.3));
#1701=CARTESIAN_POINT('Origin',(-36.8,0.,27.3));
#1702=CARTESIAN_POINT('Origin',(-37.,0.,-29.5));
#1703=CARTESIAN_POINT('Origin',(-37.,4.,-29.5));
#1704=CARTESIAN_POINT('Origin',(-37.,0.,-29.5));
#1705=CARTESIAN_POINT('',(-38.25,0.,-29.5));
#1706=CARTESIAN_POINT('Origin',(-36.9,4.,-29.4));
#1707=CARTESIAN_POINT('Origin',(37.,0.,27.5));
#1708=CARTESIAN_POINT('',(35.75,0.,27.5));
#1709=CARTESIAN_POINT('Origin',(37.,0.,27.5));
#1710=CARTESIAN_POINT('Origin',(37.,4.,27.5));
#1711=CARTESIAN_POINT('Origin',(36.9,4.,27.4));
#1712=CARTESIAN_POINT('Origin',(36.8,4.,27.3));
#1713=CARTESIAN_POINT('Origin',(36.8,0.,27.3));
#1714=UNCERTAINTY_MEASURE_WITH_UNIT(LENGTH_MEASURE(0.01),#1718,
'DISTANCE_ACCURACY_VALUE',
'Maximum model space distance between geometric entities at asserted c
onnectivities');
#1715=UNCERTAINTY_MEASURE_WITH_UNIT(LENGTH_MEASURE(0.01),#1718,
'DISTANCE_ACCURACY_VALUE',
'Maximum model space distance between geometric entities at asserted c
onnectivities');
#1716=(
GEOMETRIC_REPRESENTATION_CONTEXT(3)
GLOBAL_UNCERTAINTY_ASSIGNED_CONTEXT((#1714))
GLOBAL_UNIT_ASSIGNED_CONTEXT((#1718,#1720,#1721))
REPRESENTATION_CONTEXT('','3D')
);
#1717=(
GEOMETRIC_REPRESENTATION_CONTEXT(3)
GLOBAL_UNCERTAINTY_ASSIGNED_CONTEXT((#1715))
GLOBAL_UNIT_ASSIGNED_CONTEXT((#1718,#1720,#1721))
REPRESENTATION_CONTEXT('','3D')
);
#1718=(
LENGTH_UNIT()
NAMED_UNIT(*)
SI_UNIT(.MILLI.,.METRE.)
);
#1719=(
LENGTH_UNIT()
NAMED_UNIT(*)
SI_UNIT($,.METRE.)
);
#1720=(
NAMED_UNIT(*)
PLANE_ANGLE_UNIT()
SI_UNIT($,.RADIAN.)
);
#1721=(
NAMED_UNIT(*)
SI_UNIT($,.STERADIAN.)
SOLID_ANGLE_UNIT()
);
#1722=SHAPE_DEFINITION_REPRESENTATION(#1723,#1724);
#1723=PRODUCT_DEFINITION_SHAPE('',$,#1726);
#1724=SHAPE_REPRESENTATION('',(#914),#1716);
#1725=PRODUCT_DEFINITION_CONTEXT('part definition',#1730,'design');
#1726=PRODUCT_DEFINITION('ModA_Bottom','ModA_Bottom v25',#1727,#1725);
#1727=PRODUCT_DEFINITION_FORMATION('',$,#1732);
#1728=PRODUCT_RELATED_PRODUCT_CATEGORY('ModA_Bottom v25',
'ModA_Bottom v25',(#1732));
#1729=APPLICATION_PROTOCOL_DEFINITION('international standard',
'automotive_design',2009,#1730);
#1730=APPLICATION_CONTEXT(
'Core Data for Automotive Mechanical Design Process');
#1731=PRODUCT_CONTEXT('part definition',#1730,'mechanical');
#1732=PRODUCT('ModA_Bottom','ModA_Bottom v25',$,(#1731));
#1733=PRESENTATION_STYLE_ASSIGNMENT((#1735));
#1734=PRESENTATION_STYLE_ASSIGNMENT((#1736));
#1735=SURFACE_STYLE_USAGE(.BOTH.,#1737);
#1736=SURFACE_STYLE_USAGE(.BOTH.,#1738);
#1737=SURFACE_SIDE_STYLE('',(#1739));
#1738=SURFACE_SIDE_STYLE('',(#1740));
#1739=SURFACE_STYLE_FILL_AREA(#1741);
#1740=SURFACE_STYLE_FILL_AREA(#1742);
#1741=FILL_AREA_STYLE('\X2\94A2\X0\ - \X2\7F0E5149\X0\',(#1743));
#1742=FILL_AREA_STYLE('ABS(\X2\767D8272\X0\)',(#1744));
#1743=FILL_AREA_STYLE_COLOUR('\X2\94A2\X0\ - \X2\7F0E5149\X0\',#1745);
#1744=FILL_AREA_STYLE_COLOUR('ABS(\X2\767D8272\X0\)',#1746);
#1745=COLOUR_RGB('\X2\94A2\X0\ - \X2\7F0E5149\X0\',0.627450980392157,0.627450980392157,
0.627450980392157);
#1746=COLOUR_RGB('ABS(\X2\767D8272\X0\)',0.964705882352941,0.964705882352941,
0.952941176470588);
ENDSEC;
END-ISO-10303-21;
