ISO-10303-21;
HEADER;
/* Generated by software containing ST-Developer
 * from STEP Tools, Inc. (www.steptools.com) 
 */

FILE_DESCRIPTION(
/* description */ (''),
/* implementation_level */ '2;1');

FILE_NAME(
/* name */ 'Slider_Hat.step',
/* time_stamp */ '2026-05-31T13:27:01+08:00',
/* author */ (''),
/* organization */ (''),
/* preprocessor_version */ 'ST-DEVELOPER v20.1',
/* originating_system */ 'Autodesk Translation Framework v15.8.0.0',
/* authorisation */ '');

FILE_SCHEMA (('AUTOMOTIVE_DESIGN { 1 0 10303 214 3 1 1 }'));
ENDSEC;

DATA;
#10=MECHANICAL_DESIGN_GEOMETRIC_PRESENTATION_REPRESENTATION('',(#13),#465);
#11=SHAPE_REPRESENTATION_RELATIONSHIP('SRR','None',#472,#12);
#12=ADVANCED_BREP_SHAPE_REPRESENTATION('',(#14),#464);
#13=STYLED_ITEM('',(#482),#14);
#14=MANIFOLD_SOLID_BREP('\X2\5B9E4F53\X0\1',#273);
#15=FACE_BOUND('',#58,.T.);
#16=CIRCLE('',#294,0.6);
#17=CIRCLE('',#295,0.6);
#18=CIRCLE('',#298,0.6);
#19=CIRCLE('',#299,0.6);
#20=CIRCLE('',#302,0.6);
#21=CIRCLE('',#303,0.6);
#22=CIRCLE('',#306,0.6);
#23=CIRCLE('',#307,0.6);
#24=CYLINDRICAL_SURFACE('',#293,0.6);
#25=CYLINDRICAL_SURFACE('',#297,0.6);
#26=CYLINDRICAL_SURFACE('',#301,0.6);
#27=CYLINDRICAL_SURFACE('',#305,0.6);
#28=FACE_OUTER_BOUND('',#43,.T.);
#29=FACE_OUTER_BOUND('',#44,.T.);
#30=FACE_OUTER_BOUND('',#45,.T.);
#31=FACE_OUTER_BOUND('',#46,.T.);
#32=FACE_OUTER_BOUND('',#47,.T.);
#33=FACE_OUTER_BOUND('',#48,.T.);
#34=FACE_OUTER_BOUND('',#49,.T.);
#35=FACE_OUTER_BOUND('',#50,.T.);
#36=FACE_OUTER_BOUND('',#51,.T.);
#37=FACE_OUTER_BOUND('',#52,.T.);
#38=FACE_OUTER_BOUND('',#53,.T.);
#39=FACE_OUTER_BOUND('',#54,.T.);
#40=FACE_OUTER_BOUND('',#55,.T.);
#41=FACE_OUTER_BOUND('',#56,.T.);
#42=FACE_OUTER_BOUND('',#57,.T.);
#43=EDGE_LOOP('',(#175,#176,#177,#178));
#44=EDGE_LOOP('',(#179,#180,#181,#182));
#45=EDGE_LOOP('',(#183,#184,#185,#186));
#46=EDGE_LOOP('',(#187,#188,#189,#190));
#47=EDGE_LOOP('',(#191,#192,#193,#194));
#48=EDGE_LOOP('',(#195,#196,#197,#198));
#49=EDGE_LOOP('',(#199,#200,#201,#202));
#50=EDGE_LOOP('',(#203,#204,#205,#206));
#51=EDGE_LOOP('',(#207,#208,#209,#210));
#52=EDGE_LOOP('',(#211,#212,#213,#214));
#53=EDGE_LOOP('',(#215,#216,#217,#218));
#54=EDGE_LOOP('',(#219,#220,#221,#222));
#55=EDGE_LOOP('',(#223,#224,#225,#226));
#56=EDGE_LOOP('',(#227,#228,#229,#230,#231,#232,#233,#234));
#57=EDGE_LOOP('',(#235,#236,#237,#238,#239,#240,#241,#242));
#58=EDGE_LOOP('',(#243,#244,#245,#246));
#59=LINE('',#390,#87);
#60=LINE('',#392,#88);
#61=LINE('',#394,#89);
#62=LINE('',#395,#90);
#63=LINE('',#398,#91);
#64=LINE('',#400,#92);
#65=LINE('',#401,#93);
#66=LINE('',#404,#94);
#67=LINE('',#406,#95);
#68=LINE('',#407,#96);
#69=LINE('',#409,#97);
#70=LINE('',#410,#98);
#71=LINE('',#415,#99);
#72=LINE('',#417,#100);
#73=LINE('',#419,#101);
#74=LINE('',#420,#102);
#75=LINE('',#426,#103);
#76=LINE('',#429,#104);
#77=LINE('',#431,#105);
#78=LINE('',#432,#106);
#79=LINE('',#438,#107);
#80=LINE('',#441,#108);
#81=LINE('',#443,#109);
#82=LINE('',#444,#110);
#83=LINE('',#450,#111);
#84=LINE('',#453,#112);
#85=LINE('',#455,#113);
#86=LINE('',#456,#114);
#87=VECTOR('',#314,10.);
#88=VECTOR('',#315,10.);
#89=VECTOR('',#316,10.);
#90=VECTOR('',#317,10.);
#91=VECTOR('',#320,10.);
#92=VECTOR('',#321,10.);
#93=VECTOR('',#322,10.);
#94=VECTOR('',#325,10.);
#95=VECTOR('',#326,10.);
#96=VECTOR('',#327,10.);
#97=VECTOR('',#330,10.);
#98=VECTOR('',#331,10.);
#99=VECTOR('',#336,10.);
#100=VECTOR('',#337,10.);
#101=VECTOR('',#338,10.);
#102=VECTOR('',#339,10.);
#103=VECTOR('',#346,10.);
#104=VECTOR('',#349,10.);
#105=VECTOR('',#350,10.);
#106=VECTOR('',#351,10.);
#107=VECTOR('',#358,10.);
#108=VECTOR('',#361,10.);
#109=VECTOR('',#362,10.);
#110=VECTOR('',#363,10.);
#111=VECTOR('',#370,10.);
#112=VECTOR('',#373,10.);
#113=VECTOR('',#374,10.);
#114=VECTOR('',#375,10.);
#115=VERTEX_POINT('',#388);
#116=VERTEX_POINT('',#389);
#117=VERTEX_POINT('',#391);
#118=VERTEX_POINT('',#393);
#119=VERTEX_POINT('',#397);
#120=VERTEX_POINT('',#399);
#121=VERTEX_POINT('',#403);
#122=VERTEX_POINT('',#405);
#123=VERTEX_POINT('',#413);
#124=VERTEX_POINT('',#414);
#125=VERTEX_POINT('',#416);
#126=VERTEX_POINT('',#418);
#127=VERTEX_POINT('',#422);
#128=VERTEX_POINT('',#424);
#129=VERTEX_POINT('',#428);
#130=VERTEX_POINT('',#430);
#131=VERTEX_POINT('',#434);
#132=VERTEX_POINT('',#436);
#133=VERTEX_POINT('',#440);
#134=VERTEX_POINT('',#442);
#135=VERTEX_POINT('',#446);
#136=VERTEX_POINT('',#448);
#137=VERTEX_POINT('',#452);
#138=VERTEX_POINT('',#454);
#139=EDGE_CURVE('',#115,#116,#59,.T.);
#140=EDGE_CURVE('',#115,#117,#60,.T.);
#141=EDGE_CURVE('',#117,#118,#61,.T.);
#142=EDGE_CURVE('',#116,#118,#62,.T.);
#143=EDGE_CURVE('',#119,#115,#63,.T.);
#144=EDGE_CURVE('',#119,#120,#64,.T.);
#145=EDGE_CURVE('',#120,#117,#65,.T.);
#146=EDGE_CURVE('',#121,#119,#66,.T.);
#147=EDGE_CURVE('',#121,#122,#67,.T.);
#148=EDGE_CURVE('',#122,#120,#68,.T.);
#149=EDGE_CURVE('',#116,#121,#69,.T.);
#150=EDGE_CURVE('',#118,#122,#70,.T.);
#151=EDGE_CURVE('',#123,#124,#71,.T.);
#152=EDGE_CURVE('',#124,#125,#72,.T.);
#153=EDGE_CURVE('',#126,#125,#73,.T.);
#154=EDGE_CURVE('',#123,#126,#74,.T.);
#155=EDGE_CURVE('',#127,#123,#16,.T.);
#156=EDGE_CURVE('',#128,#126,#17,.T.);
#157=EDGE_CURVE('',#127,#128,#75,.T.);
#158=EDGE_CURVE('',#129,#127,#76,.T.);
#159=EDGE_CURVE('',#130,#128,#77,.T.);
#160=EDGE_CURVE('',#129,#130,#78,.T.);
#161=EDGE_CURVE('',#131,#129,#18,.T.);
#162=EDGE_CURVE('',#132,#130,#19,.T.);
#163=EDGE_CURVE('',#131,#132,#79,.T.);
#164=EDGE_CURVE('',#133,#131,#80,.T.);
#165=EDGE_CURVE('',#134,#132,#81,.T.);
#166=EDGE_CURVE('',#133,#134,#82,.T.);
#167=EDGE_CURVE('',#135,#133,#20,.T.);
#168=EDGE_CURVE('',#136,#134,#21,.T.);
#169=EDGE_CURVE('',#135,#136,#83,.T.);
#170=EDGE_CURVE('',#137,#135,#84,.T.);
#171=EDGE_CURVE('',#138,#136,#85,.T.);
#172=EDGE_CURVE('',#137,#138,#86,.T.);
#173=EDGE_CURVE('',#124,#137,#22,.T.);
#174=EDGE_CURVE('',#125,#138,#23,.T.);
#175=ORIENTED_EDGE('',*,*,#139,.F.);
#176=ORIENTED_EDGE('',*,*,#140,.T.);
#177=ORIENTED_EDGE('',*,*,#141,.T.);
#178=ORIENTED_EDGE('',*,*,#142,.F.);
#179=ORIENTED_EDGE('',*,*,#143,.F.);
#180=ORIENTED_EDGE('',*,*,#144,.T.);
#181=ORIENTED_EDGE('',*,*,#145,.T.);
#182=ORIENTED_EDGE('',*,*,#140,.F.);
#183=ORIENTED_EDGE('',*,*,#146,.F.);
#184=ORIENTED_EDGE('',*,*,#147,.T.);
#185=ORIENTED_EDGE('',*,*,#148,.T.);
#186=ORIENTED_EDGE('',*,*,#144,.F.);
#187=ORIENTED_EDGE('',*,*,#149,.F.);
#188=ORIENTED_EDGE('',*,*,#142,.T.);
#189=ORIENTED_EDGE('',*,*,#150,.T.);
#190=ORIENTED_EDGE('',*,*,#147,.F.);
#191=ORIENTED_EDGE('',*,*,#150,.F.);
#192=ORIENTED_EDGE('',*,*,#141,.F.);
#193=ORIENTED_EDGE('',*,*,#145,.F.);
#194=ORIENTED_EDGE('',*,*,#148,.F.);
#195=ORIENTED_EDGE('',*,*,#151,.T.);
#196=ORIENTED_EDGE('',*,*,#152,.T.);
#197=ORIENTED_EDGE('',*,*,#153,.F.);
#198=ORIENTED_EDGE('',*,*,#154,.F.);
#199=ORIENTED_EDGE('',*,*,#155,.T.);
#200=ORIENTED_EDGE('',*,*,#154,.T.);
#201=ORIENTED_EDGE('',*,*,#156,.F.);
#202=ORIENTED_EDGE('',*,*,#157,.F.);
#203=ORIENTED_EDGE('',*,*,#158,.T.);
#204=ORIENTED_EDGE('',*,*,#157,.T.);
#205=ORIENTED_EDGE('',*,*,#159,.F.);
#206=ORIENTED_EDGE('',*,*,#160,.F.);
#207=ORIENTED_EDGE('',*,*,#161,.T.);
#208=ORIENTED_EDGE('',*,*,#160,.T.);
#209=ORIENTED_EDGE('',*,*,#162,.F.);
#210=ORIENTED_EDGE('',*,*,#163,.F.);
#211=ORIENTED_EDGE('',*,*,#164,.T.);
#212=ORIENTED_EDGE('',*,*,#163,.T.);
#213=ORIENTED_EDGE('',*,*,#165,.F.);
#214=ORIENTED_EDGE('',*,*,#166,.F.);
#215=ORIENTED_EDGE('',*,*,#167,.T.);
#216=ORIENTED_EDGE('',*,*,#166,.T.);
#217=ORIENTED_EDGE('',*,*,#168,.F.);
#218=ORIENTED_EDGE('',*,*,#169,.F.);
#219=ORIENTED_EDGE('',*,*,#170,.T.);
#220=ORIENTED_EDGE('',*,*,#169,.T.);
#221=ORIENTED_EDGE('',*,*,#171,.F.);
#222=ORIENTED_EDGE('',*,*,#172,.F.);
#223=ORIENTED_EDGE('',*,*,#173,.T.);
#224=ORIENTED_EDGE('',*,*,#172,.T.);
#225=ORIENTED_EDGE('',*,*,#174,.F.);
#226=ORIENTED_EDGE('',*,*,#152,.F.);
#227=ORIENTED_EDGE('',*,*,#174,.T.);
#228=ORIENTED_EDGE('',*,*,#171,.T.);
#229=ORIENTED_EDGE('',*,*,#168,.T.);
#230=ORIENTED_EDGE('',*,*,#165,.T.);
#231=ORIENTED_EDGE('',*,*,#162,.T.);
#232=ORIENTED_EDGE('',*,*,#159,.T.);
#233=ORIENTED_EDGE('',*,*,#156,.T.);
#234=ORIENTED_EDGE('',*,*,#153,.T.);
#235=ORIENTED_EDGE('',*,*,#173,.F.);
#236=ORIENTED_EDGE('',*,*,#151,.F.);
#237=ORIENTED_EDGE('',*,*,#155,.F.);
#238=ORIENTED_EDGE('',*,*,#158,.F.);
#239=ORIENTED_EDGE('',*,*,#161,.F.);
#240=ORIENTED_EDGE('',*,*,#164,.F.);
#241=ORIENTED_EDGE('',*,*,#167,.F.);
#242=ORIENTED_EDGE('',*,*,#170,.F.);
#243=ORIENTED_EDGE('',*,*,#139,.T.);
#244=ORIENTED_EDGE('',*,*,#149,.T.);
#245=ORIENTED_EDGE('',*,*,#146,.T.);
#246=ORIENTED_EDGE('',*,*,#143,.T.);
#247=PLANE('',#287);
#248=PLANE('',#288);
#249=PLANE('',#289);
#250=PLANE('',#290);
#251=PLANE('',#291);
#252=PLANE('',#292);
#253=PLANE('',#296);
#254=PLANE('',#300);
#255=PLANE('',#304);
#256=PLANE('',#308);
#257=PLANE('',#309);
#258=ADVANCED_FACE('',(#28),#247,.F.);
#259=ADVANCED_FACE('',(#29),#248,.F.);
#260=ADVANCED_FACE('',(#30),#249,.F.);
#261=ADVANCED_FACE('',(#31),#250,.F.);
#262=ADVANCED_FACE('',(#32),#251,.F.);
#263=ADVANCED_FACE('',(#33),#252,.T.);
#264=ADVANCED_FACE('',(#34),#24,.T.);
#265=ADVANCED_FACE('',(#35),#253,.T.);
#266=ADVANCED_FACE('',(#36),#25,.T.);
#267=ADVANCED_FACE('',(#37),#254,.T.);
#268=ADVANCED_FACE('',(#38),#26,.T.);
#269=ADVANCED_FACE('',(#39),#255,.T.);
#270=ADVANCED_FACE('',(#40),#27,.T.);
#271=ADVANCED_FACE('',(#41),#256,.T.);
#272=ADVANCED_FACE('',(#42,#15),#257,.F.);
#273=CLOSED_SHELL('',(#258,#259,#260,#261,#262,#263,#264,#265,#266,#267,
#268,#269,#270,#271,#272));
#274=DERIVED_UNIT_ELEMENT(#276,1.);
#275=DERIVED_UNIT_ELEMENT(#467,-3.);
#276=(
MASS_UNIT()
NAMED_UNIT(*)
SI_UNIT(.KILO.,.GRAM.)
);
#277=DERIVED_UNIT((#274,#275));
#278=MEASURE_REPRESENTATION_ITEM('density measure',
POSITIVE_RATIO_MEASURE(7850.),#277);
#279=PROPERTY_DEFINITION_REPRESENTATION(#284,#281);
#280=PROPERTY_DEFINITION_REPRESENTATION(#285,#282);
#281=REPRESENTATION('material name',(#283),#464);
#282=REPRESENTATION('density',(#278),#464);
#283=DESCRIPTIVE_REPRESENTATION_ITEM('\X2\94A2\X0\','\X2\94A2\X0\');
#284=PROPERTY_DEFINITION('material property','material name',#474);
#285=PROPERTY_DEFINITION('material property','density of part',#474);
#286=AXIS2_PLACEMENT_3D('',#386,#310,#311);
#287=AXIS2_PLACEMENT_3D('',#387,#312,#313);
#288=AXIS2_PLACEMENT_3D('',#396,#318,#319);
#289=AXIS2_PLACEMENT_3D('',#402,#323,#324);
#290=AXIS2_PLACEMENT_3D('',#408,#328,#329);
#291=AXIS2_PLACEMENT_3D('',#411,#332,#333);
#292=AXIS2_PLACEMENT_3D('',#412,#334,#335);
#293=AXIS2_PLACEMENT_3D('',#421,#340,#341);
#294=AXIS2_PLACEMENT_3D('',#423,#342,#343);
#295=AXIS2_PLACEMENT_3D('',#425,#344,#345);
#296=AXIS2_PLACEMENT_3D('',#427,#347,#348);
#297=AXIS2_PLACEMENT_3D('',#433,#352,#353);
#298=AXIS2_PLACEMENT_3D('',#435,#354,#355);
#299=AXIS2_PLACEMENT_3D('',#437,#356,#357);
#300=AXIS2_PLACEMENT_3D('',#439,#359,#360);
#301=AXIS2_PLACEMENT_3D('',#445,#364,#365);
#302=AXIS2_PLACEMENT_3D('',#447,#366,#367);
#303=AXIS2_PLACEMENT_3D('',#449,#368,#369);
#304=AXIS2_PLACEMENT_3D('',#451,#371,#372);
#305=AXIS2_PLACEMENT_3D('',#457,#376,#377);
#306=AXIS2_PLACEMENT_3D('',#458,#378,#379);
#307=AXIS2_PLACEMENT_3D('',#459,#380,#381);
#308=AXIS2_PLACEMENT_3D('',#460,#382,#383);
#309=AXIS2_PLACEMENT_3D('',#461,#384,#385);
#310=DIRECTION('axis',(0.,0.,1.));
#311=DIRECTION('refdir',(1.,0.,0.));
#312=DIRECTION('center_axis',(-1.38777878078145E-16,0.,-1.));
#313=DIRECTION('ref_axis',(-1.,0.,1.38777878078145E-16));
#314=DIRECTION('',(-1.,0.,1.38777878078145E-16));
#315=DIRECTION('',(0.,1.,0.));
#316=DIRECTION('',(-1.,0.,1.38777878078145E-16));
#317=DIRECTION('',(0.,1.,0.));
#318=DIRECTION('center_axis',(1.,0.,0.));
#319=DIRECTION('ref_axis',(0.,0.,-1.));
#320=DIRECTION('',(0.,0.,-1.));
#321=DIRECTION('',(0.,1.,0.));
#322=DIRECTION('',(0.,0.,-1.));
#323=DIRECTION('center_axis',(0.,0.,1.));
#324=DIRECTION('ref_axis',(1.,0.,0.));
#325=DIRECTION('',(1.,0.,0.));
#326=DIRECTION('',(0.,1.,0.));
#327=DIRECTION('',(1.,0.,0.));
#328=DIRECTION('center_axis',(-1.,0.,0.));
#329=DIRECTION('ref_axis',(0.,0.,1.));
#330=DIRECTION('',(0.,0.,1.));
#331=DIRECTION('',(0.,0.,1.));
#332=DIRECTION('center_axis',(0.,1.,0.));
#333=DIRECTION('ref_axis',(0.,0.,1.));
#334=DIRECTION('center_axis',(-1.,0.,0.));
#335=DIRECTION('ref_axis',(0.,0.,1.));
#336=DIRECTION('',(0.,0.,1.));
#337=DIRECTION('',(0.,1.,0.));
#338=DIRECTION('',(0.,0.,1.));
#339=DIRECTION('',(0.,1.,0.));
#340=DIRECTION('center_axis',(0.,1.,0.));
#341=DIRECTION('ref_axis',(0.,0.,-1.));
#342=DIRECTION('center_axis',(0.,1.,0.));
#343=DIRECTION('ref_axis',(0.,0.,-1.));
#344=DIRECTION('center_axis',(0.,1.,0.));
#345=DIRECTION('ref_axis',(0.,0.,-1.));
#346=DIRECTION('',(0.,1.,0.));
#347=DIRECTION('center_axis',(0.,0.,-1.));
#348=DIRECTION('ref_axis',(-1.,0.,0.));
#349=DIRECTION('',(-1.,0.,0.));
#350=DIRECTION('',(-1.,0.,0.));
#351=DIRECTION('',(0.,1.,0.));
#352=DIRECTION('center_axis',(0.,1.,0.));
#353=DIRECTION('ref_axis',(1.,0.,0.));
#354=DIRECTION('center_axis',(0.,1.,0.));
#355=DIRECTION('ref_axis',(1.,0.,0.));
#356=DIRECTION('center_axis',(0.,1.,0.));
#357=DIRECTION('ref_axis',(1.,0.,0.));
#358=DIRECTION('',(0.,1.,0.));
#359=DIRECTION('center_axis',(1.,0.,0.));
#360=DIRECTION('ref_axis',(0.,0.,-1.));
#361=DIRECTION('',(0.,0.,-1.));
#362=DIRECTION('',(0.,0.,-1.));
#363=DIRECTION('',(0.,1.,0.));
#364=DIRECTION('center_axis',(0.,1.,0.));
#365=DIRECTION('ref_axis',(0.,0.,1.));
#366=DIRECTION('center_axis',(0.,1.,0.));
#367=DIRECTION('ref_axis',(0.,0.,1.));
#368=DIRECTION('center_axis',(0.,1.,0.));
#369=DIRECTION('ref_axis',(0.,0.,1.));
#370=DIRECTION('',(0.,1.,0.));
#371=DIRECTION('center_axis',(0.,0.,1.));
#372=DIRECTION('ref_axis',(1.,0.,0.));
#373=DIRECTION('',(1.,0.,0.));
#374=DIRECTION('',(1.,0.,0.));
#375=DIRECTION('',(0.,1.,0.));
#376=DIRECTION('center_axis',(0.,1.,0.));
#377=DIRECTION('ref_axis',(-1.,0.,0.));
#378=DIRECTION('center_axis',(0.,1.,0.));
#379=DIRECTION('ref_axis',(-1.,0.,0.));
#380=DIRECTION('center_axis',(0.,1.,0.));
#381=DIRECTION('ref_axis',(-1.,0.,0.));
#382=DIRECTION('center_axis',(0.,1.,0.));
#383=DIRECTION('ref_axis',(1.,0.,0.));
#384=DIRECTION('center_axis',(0.,1.,0.));
#385=DIRECTION('ref_axis',(1.,0.,0.));
#386=CARTESIAN_POINT('',(0.,0.,0.));
#387=CARTESIAN_POINT('Origin',(2.,0.,-0.6));
#388=CARTESIAN_POINT('',(2.,0.,-0.6));
#389=CARTESIAN_POINT('',(-2.,0.,-0.599999999999999));
#390=CARTESIAN_POINT('',(1.,0.,-0.6));
#391=CARTESIAN_POINT('',(2.,6.5,-0.6));
#392=CARTESIAN_POINT('',(2.,0.,-0.6));
#393=CARTESIAN_POINT('',(-2.,6.5,-0.599999999999999));
#394=CARTESIAN_POINT('',(2.,6.5,-0.6));
#395=CARTESIAN_POINT('',(-2.,0.,-0.599999999999999));
#396=CARTESIAN_POINT('Origin',(2.,0.,0.6));
#397=CARTESIAN_POINT('',(2.,0.,0.6));
#398=CARTESIAN_POINT('',(2.,0.,0.3));
#399=CARTESIAN_POINT('',(2.,6.5,0.6));
#400=CARTESIAN_POINT('',(2.,0.,0.6));
#401=CARTESIAN_POINT('',(2.,6.5,0.6));
#402=CARTESIAN_POINT('Origin',(-2.,0.,0.6));
#403=CARTESIAN_POINT('',(-2.,0.,0.6));
#404=CARTESIAN_POINT('',(-1.,0.,0.6));
#405=CARTESIAN_POINT('',(-2.,6.5,0.6));
#406=CARTESIAN_POINT('',(-2.,0.,0.6));
#407=CARTESIAN_POINT('',(-2.,6.5,0.6));
#408=CARTESIAN_POINT('Origin',(-2.,0.,-0.599999999999999));
#409=CARTESIAN_POINT('',(-2.,0.,-0.3));
#410=CARTESIAN_POINT('',(-2.,6.5,-0.599999999999999));
#411=CARTESIAN_POINT('Origin',(0.,6.5,0.));
#412=CARTESIAN_POINT('Origin',(-5.,0.,-2.4));
#413=CARTESIAN_POINT('',(-5.,0.,-2.4));
#414=CARTESIAN_POINT('',(-5.,0.,2.4));
#415=CARTESIAN_POINT('',(-5.,0.,-2.4));
#416=CARTESIAN_POINT('',(-5.,8.,2.4));
#417=CARTESIAN_POINT('',(-5.,0.,2.4));
#418=CARTESIAN_POINT('',(-5.,8.,-2.4));
#419=CARTESIAN_POINT('',(-5.,8.,-2.4));
#420=CARTESIAN_POINT('',(-5.,0.,-2.4));
#421=CARTESIAN_POINT('Origin',(-4.4,0.,-2.4));
#422=CARTESIAN_POINT('',(-4.4,0.,-3.));
#423=CARTESIAN_POINT('Origin',(-4.4,0.,-2.4));
#424=CARTESIAN_POINT('',(-4.4,8.,-3.));
#425=CARTESIAN_POINT('Origin',(-4.4,8.,-2.4));
#426=CARTESIAN_POINT('',(-4.4,0.,-3.));
#427=CARTESIAN_POINT('Origin',(4.4,0.,-3.));
#428=CARTESIAN_POINT('',(4.4,0.,-3.));
#429=CARTESIAN_POINT('',(4.4,0.,-3.));
#430=CARTESIAN_POINT('',(4.4,8.,-3.));
#431=CARTESIAN_POINT('',(4.4,8.,-3.));
#432=CARTESIAN_POINT('',(4.4,0.,-3.));
#433=CARTESIAN_POINT('Origin',(4.4,0.,-2.4));
#434=CARTESIAN_POINT('',(5.,0.,-2.4));
#435=CARTESIAN_POINT('Origin',(4.4,0.,-2.4));
#436=CARTESIAN_POINT('',(5.,8.,-2.4));
#437=CARTESIAN_POINT('Origin',(4.4,8.,-2.4));
#438=CARTESIAN_POINT('',(5.,0.,-2.4));
#439=CARTESIAN_POINT('Origin',(5.,0.,2.4));
#440=CARTESIAN_POINT('',(5.,0.,2.4));
#441=CARTESIAN_POINT('',(5.,0.,2.4));
#442=CARTESIAN_POINT('',(5.,8.,2.4));
#443=CARTESIAN_POINT('',(5.,8.,2.4));
#444=CARTESIAN_POINT('',(5.,0.,2.4));
#445=CARTESIAN_POINT('Origin',(4.4,0.,2.4));
#446=CARTESIAN_POINT('',(4.4,0.,3.));
#447=CARTESIAN_POINT('Origin',(4.4,0.,2.4));
#448=CARTESIAN_POINT('',(4.4,8.,3.));
#449=CARTESIAN_POINT('Origin',(4.4,8.,2.4));
#450=CARTESIAN_POINT('',(4.4,0.,3.));
#451=CARTESIAN_POINT('Origin',(-4.4,0.,3.));
#452=CARTESIAN_POINT('',(-4.4,0.,3.));
#453=CARTESIAN_POINT('',(-4.4,0.,3.));
#454=CARTESIAN_POINT('',(-4.4,8.,3.));
#455=CARTESIAN_POINT('',(-4.4,8.,3.));
#456=CARTESIAN_POINT('',(-4.4,0.,3.));
#457=CARTESIAN_POINT('Origin',(-4.4,0.,2.4));
#458=CARTESIAN_POINT('Origin',(-4.4,0.,2.4));
#459=CARTESIAN_POINT('Origin',(-4.4,8.,2.4));
#460=CARTESIAN_POINT('Origin',(0.,8.,0.));
#461=CARTESIAN_POINT('Origin',(0.,0.,0.));
#462=UNCERTAINTY_MEASURE_WITH_UNIT(LENGTH_MEASURE(0.01),#466,
'DISTANCE_ACCURACY_VALUE',
'Maximum model space distance between geometric entities at asserted c
onnectivities');
#463=UNCERTAINTY_MEASURE_WITH_UNIT(LENGTH_MEASURE(0.01),#466,
'DISTANCE_ACCURACY_VALUE',
'Maximum model space distance between geometric entities at asserted c
onnectivities');
#464=(
GEOMETRIC_REPRESENTATION_CONTEXT(3)
GLOBAL_UNCERTAINTY_ASSIGNED_CONTEXT((#462))
GLOBAL_UNIT_ASSIGNED_CONTEXT((#466,#468,#469))
REPRESENTATION_CONTEXT('','3D')
);
#465=(
GEOMETRIC_REPRESENTATION_CONTEXT(3)
GLOBAL_UNCERTAINTY_ASSIGNED_CONTEXT((#463))
GLOBAL_UNIT_ASSIGNED_CONTEXT((#466,#468,#469))
REPRESENTATION_CONTEXT('','3D')
);
#466=(
LENGTH_UNIT()
NAMED_UNIT(*)
SI_UNIT(.MILLI.,.METRE.)
);
#467=(
LENGTH_UNIT()
NAMED_UNIT(*)
SI_UNIT($,.METRE.)
);
#468=(
NAMED_UNIT(*)
PLANE_ANGLE_UNIT()
SI_UNIT($,.RADIAN.)
);
#469=(
NAMED_UNIT(*)
SI_UNIT($,.STERADIAN.)
SOLID_ANGLE_UNIT()
);
#470=SHAPE_DEFINITION_REPRESENTATION(#471,#472);
#471=PRODUCT_DEFINITION_SHAPE('',$,#474);
#472=SHAPE_REPRESENTATION('',(#286),#464);
#473=PRODUCT_DEFINITION_CONTEXT('part definition',#478,'design');
#474=PRODUCT_DEFINITION('Slider_Hat','Slider_Hat v6',#475,#473);
#475=PRODUCT_DEFINITION_FORMATION('',$,#480);
#476=PRODUCT_RELATED_PRODUCT_CATEGORY('Slider_Hat v6','Slider_Hat v6',(#480));
#477=APPLICATION_PROTOCOL_DEFINITION('international standard',
'automotive_design',2009,#478);
#478=APPLICATION_CONTEXT(
'Core Data for Automotive Mechanical Design Process');
#479=PRODUCT_CONTEXT('part definition',#478,'mechanical');
#480=PRODUCT('Slider_Hat','Slider_Hat v6',$,(#479));
#481=PRESENTATION_STYLE_ASSIGNMENT((#483));
#482=PRESENTATION_STYLE_ASSIGNMENT((#484));
#483=SURFACE_STYLE_USAGE(.BOTH.,#485);
#484=SURFACE_STYLE_USAGE(.BOTH.,#486);
#485=SURFACE_SIDE_STYLE('',(#487));
#486=SURFACE_SIDE_STYLE('',(#488));
#487=SURFACE_STYLE_FILL_AREA(#489);
#488=SURFACE_STYLE_FILL_AREA(#490);
#489=FILL_AREA_STYLE('\X2\94A2\X0\ - \X2\7F0E5149\X0\',(#491));
#490=FILL_AREA_STYLE('\X2\58516599\X0\ - \X2\670951496CFD\X0\(\X2\9ED18272\X0\)',
(#492));
#491=FILL_AREA_STYLE_COLOUR('\X2\94A2\X0\ - \X2\7F0E5149\X0\',#493);
#492=FILL_AREA_STYLE_COLOUR('\X2\58516599\X0\ - \X2\670951496CFD\X0\(\X2\9ED18272\X0\)',
#494);
#493=COLOUR_RGB('\X2\94A2\X0\ - \X2\7F0E5149\X0\',0.627450980392157,0.627450980392157,
0.627450980392157);
#494=COLOUR_RGB('\X2\58516599\X0\ - \X2\670951496CFD\X0\(\X2\9ED18272\X0\)',
0.0980392156862745,0.0980392156862745,0.0980392156862745);
ENDSEC;
END-ISO-10303-21;
