ISO-10303-21;
HEADER;
/* Generated by software containing ST-Developer
 * from STEP Tools, Inc. (www.steptools.com) 
 */

FILE_DESCRIPTION(
/* description */ (''),
/* implementation_level */ '2;1');

FILE_NAME(
/* name */ 'Keycap2 v8.step',
/* time_stamp */ '2025-09-05T22:09:21+08:00',
/* author */ (''),
/* organization */ (''),
/* preprocessor_version */ 'ST-DEVELOPER v20.1',
/* originating_system */ 'Autodesk Translation Framework v14.10.0.0',
/* authorisation */ '');

FILE_SCHEMA (('AUTOMOTIVE_DESIGN { 1 0 10303 214 3 1 1 }'));
ENDSEC;

DATA;
#10=MECHANICAL_DESIGN_GEOMETRIC_PRESENTATION_REPRESENTATION('',(#13),#2074);
#11=SHAPE_REPRESENTATION_RELATIONSHIP('SRR','None',#2081,#12);
#12=ADVANCED_BREP_SHAPE_REPRESENTATION('',(#14),#2073);
#13=STYLED_ITEM('',(#2091),#14);
#14=MANIFOLD_SOLID_BREP('\X2\5B9E4F53\X0\1',#1282);
#15=FACE_BOUND('',#141,.T.);
#16=FACE_BOUND('',#142,.T.);
#17=FACE_BOUND('',#154,.T.);
#18=FACE_BOUND('',#165,.T.);
#19=FACE_BOUND('',#176,.T.);
#20=FACE_BOUND('',#178,.T.);
#21=CIRCLE('',#1302,2.6);
#22=CIRCLE('',#1303,2.6);
#23=CIRCLE('',#1305,2.6);
#24=CIRCLE('',#1306,2.6);
#25=CIRCLE('',#1310,2.6);
#26=CIRCLE('',#1311,2.6);
#27=CIRCLE('',#1333,2.6);
#28=CIRCLE('',#1334,2.6);
#29=CIRCLE('',#1335,2.6);
#30=CIRCLE('',#1336,2.6);
#31=CIRCLE('',#1337,2.6);
#32=CIRCLE('',#1347,2.6);
#33=CIRCLE('',#1357,2.6);
#34=CIRCLE('',#1360,2.6);
#35=CIRCLE('',#1369,2.6);
#36=CYLINDRICAL_SURFACE('',#1301,2.6);
#37=CYLINDRICAL_SURFACE('',#1304,2.6);
#38=CYLINDRICAL_SURFACE('',#1309,2.6);
#39=CYLINDRICAL_SURFACE('',#1346,2.6);
#40=CYLINDRICAL_SURFACE('',#1356,2.6);
#41=CYLINDRICAL_SURFACE('',#1359,2.6);
#42=CYLINDRICAL_SURFACE('',#1368,2.6);
#43=ELLIPSE('',#1300,8.47751169379497,2.6);
#44=FACE_OUTER_BOUND('',#111,.T.);
#45=FACE_OUTER_BOUND('',#112,.T.);
#46=FACE_OUTER_BOUND('',#113,.T.);
#47=FACE_OUTER_BOUND('',#114,.T.);
#48=FACE_OUTER_BOUND('',#115,.T.);
#49=FACE_OUTER_BOUND('',#116,.T.);
#50=FACE_OUTER_BOUND('',#117,.T.);
#51=FACE_OUTER_BOUND('',#118,.T.);
#52=FACE_OUTER_BOUND('',#119,.T.);
#53=FACE_OUTER_BOUND('',#120,.T.);
#54=FACE_OUTER_BOUND('',#121,.T.);
#55=FACE_OUTER_BOUND('',#122,.T.);
#56=FACE_OUTER_BOUND('',#123,.T.);
#57=FACE_OUTER_BOUND('',#124,.T.);
#58=FACE_OUTER_BOUND('',#125,.T.);
#59=FACE_OUTER_BOUND('',#126,.T.);
#60=FACE_OUTER_BOUND('',#127,.T.);
#61=FACE_OUTER_BOUND('',#128,.T.);
#62=FACE_OUTER_BOUND('',#129,.T.);
#63=FACE_OUTER_BOUND('',#130,.T.);
#64=FACE_OUTER_BOUND('',#131,.T.);
#65=FACE_OUTER_BOUND('',#132,.T.);
#66=FACE_OUTER_BOUND('',#133,.T.);
#67=FACE_OUTER_BOUND('',#134,.T.);
#68=FACE_OUTER_BOUND('',#135,.T.);
#69=FACE_OUTER_BOUND('',#136,.T.);
#70=FACE_OUTER_BOUND('',#137,.T.);
#71=FACE_OUTER_BOUND('',#138,.T.);
#72=FACE_OUTER_BOUND('',#139,.T.);
#73=FACE_OUTER_BOUND('',#140,.T.);
#74=FACE_OUTER_BOUND('',#143,.T.);
#75=FACE_OUTER_BOUND('',#144,.T.);
#76=FACE_OUTER_BOUND('',#145,.T.);
#77=FACE_OUTER_BOUND('',#146,.T.);
#78=FACE_OUTER_BOUND('',#147,.T.);
#79=FACE_OUTER_BOUND('',#148,.T.);
#80=FACE_OUTER_BOUND('',#149,.T.);
#81=FACE_OUTER_BOUND('',#150,.T.);
#82=FACE_OUTER_BOUND('',#151,.T.);
#83=FACE_OUTER_BOUND('',#152,.T.);
#84=FACE_OUTER_BOUND('',#153,.T.);
#85=FACE_OUTER_BOUND('',#155,.T.);
#86=FACE_OUTER_BOUND('',#156,.T.);
#87=FACE_OUTER_BOUND('',#157,.T.);
#88=FACE_OUTER_BOUND('',#158,.T.);
#89=FACE_OUTER_BOUND('',#159,.T.);
#90=FACE_OUTER_BOUND('',#160,.T.);
#91=FACE_OUTER_BOUND('',#161,.T.);
#92=FACE_OUTER_BOUND('',#162,.T.);
#93=FACE_OUTER_BOUND('',#163,.T.);
#94=FACE_OUTER_BOUND('',#164,.T.);
#95=FACE_OUTER_BOUND('',#166,.T.);
#96=FACE_OUTER_BOUND('',#167,.T.);
#97=FACE_OUTER_BOUND('',#168,.T.);
#98=FACE_OUTER_BOUND('',#169,.T.);
#99=FACE_OUTER_BOUND('',#170,.T.);
#100=FACE_OUTER_BOUND('',#171,.T.);
#101=FACE_OUTER_BOUND('',#172,.T.);
#102=FACE_OUTER_BOUND('',#173,.T.);
#103=FACE_OUTER_BOUND('',#174,.T.);
#104=FACE_OUTER_BOUND('',#175,.T.);
#105=FACE_OUTER_BOUND('',#177,.T.);
#106=FACE_OUTER_BOUND('',#179,.T.);
#107=FACE_OUTER_BOUND('',#180,.T.);
#108=FACE_OUTER_BOUND('',#181,.T.);
#109=FACE_OUTER_BOUND('',#182,.T.);
#110=FACE_OUTER_BOUND('',#183,.T.);
#111=EDGE_LOOP('',(#801,#802,#803,#804,#805,#806,#807,#808,#809,#810,#811,
#812));
#112=EDGE_LOOP('',(#813,#814,#815,#816,#817,#818,#819,#820,#821,#822,#823,
#824));
#113=EDGE_LOOP('',(#825,#826,#827,#828,#829,#830,#831,#832,#833,#834,#835,
#836));
#114=EDGE_LOOP('',(#837,#838,#839,#840,#841,#842));
#115=EDGE_LOOP('',(#843,#844,#845,#846));
#116=EDGE_LOOP('',(#847,#848,#849,#850));
#117=EDGE_LOOP('',(#851,#852,#853,#854));
#118=EDGE_LOOP('',(#855,#856,#857,#858));
#119=EDGE_LOOP('',(#859,#860,#861,#862));
#120=EDGE_LOOP('',(#863,#864,#865,#866));
#121=EDGE_LOOP('',(#867,#868,#869,#870));
#122=EDGE_LOOP('',(#871,#872,#873,#874));
#123=EDGE_LOOP('',(#875,#876,#877,#878));
#124=EDGE_LOOP('',(#879,#880,#881,#882));
#125=EDGE_LOOP('',(#883,#884,#885,#886));
#126=EDGE_LOOP('',(#887,#888,#889,#890));
#127=EDGE_LOOP('',(#891,#892,#893,#894));
#128=EDGE_LOOP('',(#895,#896,#897,#898));
#129=EDGE_LOOP('',(#899,#900,#901,#902));
#130=EDGE_LOOP('',(#903,#904,#905,#906));
#131=EDGE_LOOP('',(#907,#908,#909,#910));
#132=EDGE_LOOP('',(#911,#912,#913,#914));
#133=EDGE_LOOP('',(#915,#916,#917,#918));
#134=EDGE_LOOP('',(#919,#920,#921,#922));
#135=EDGE_LOOP('',(#923,#924,#925,#926));
#136=EDGE_LOOP('',(#927,#928,#929,#930));
#137=EDGE_LOOP('',(#931,#932,#933,#934));
#138=EDGE_LOOP('',(#935,#936,#937,#938));
#139=EDGE_LOOP('',(#939,#940,#941,#942));
#140=EDGE_LOOP('',(#943,#944,#945,#946,#947,#948,#949,#950,#951,#952));
#141=EDGE_LOOP('',(#953,#954,#955,#956));
#142=EDGE_LOOP('',(#957,#958,#959,#960,#961,#962));
#143=EDGE_LOOP('',(#963,#964,#965,#966));
#144=EDGE_LOOP('',(#967,#968,#969,#970));
#145=EDGE_LOOP('',(#971,#972,#973,#974));
#146=EDGE_LOOP('',(#975,#976,#977,#978));
#147=EDGE_LOOP('',(#979,#980,#981,#982));
#148=EDGE_LOOP('',(#983,#984,#985,#986));
#149=EDGE_LOOP('',(#987,#988,#989,#990));
#150=EDGE_LOOP('',(#991,#992,#993,#994));
#151=EDGE_LOOP('',(#995,#996,#997,#998));
#152=EDGE_LOOP('',(#999,#1000,#1001,#1002));
#153=EDGE_LOOP('',(#1003,#1004,#1005,#1006));
#154=EDGE_LOOP('',(#1007,#1008,#1009,#1010,#1011,#1012,#1013,#1014,#1015,
#1016,#1017,#1018));
#155=EDGE_LOOP('',(#1019,#1020,#1021,#1022));
#156=EDGE_LOOP('',(#1023,#1024,#1025,#1026));
#157=EDGE_LOOP('',(#1027,#1028,#1029,#1030));
#158=EDGE_LOOP('',(#1031,#1032,#1033,#1034));
#159=EDGE_LOOP('',(#1035,#1036,#1037,#1038));
#160=EDGE_LOOP('',(#1039,#1040,#1041,#1042));
#161=EDGE_LOOP('',(#1043,#1044,#1045,#1046));
#162=EDGE_LOOP('',(#1047,#1048,#1049,#1050));
#163=EDGE_LOOP('',(#1051,#1052,#1053,#1054));
#164=EDGE_LOOP('',(#1055,#1056,#1057,#1058,#1059,#1060));
#165=EDGE_LOOP('',(#1061,#1062,#1063,#1064,#1065,#1066,#1067,#1068,#1069,
#1070,#1071,#1072));
#166=EDGE_LOOP('',(#1073,#1074,#1075,#1076));
#167=EDGE_LOOP('',(#1077,#1078,#1079,#1080));
#168=EDGE_LOOP('',(#1081,#1082,#1083,#1084));
#169=EDGE_LOOP('',(#1085,#1086,#1087,#1088));
#170=EDGE_LOOP('',(#1089,#1090,#1091,#1092));
#171=EDGE_LOOP('',(#1093,#1094,#1095,#1096));
#172=EDGE_LOOP('',(#1097,#1098,#1099,#1100,#1101,#1102));
#173=EDGE_LOOP('',(#1103,#1104,#1105,#1106));
#174=EDGE_LOOP('',(#1107,#1108,#1109,#1110));
#175=EDGE_LOOP('',(#1111,#1112,#1113,#1114));
#176=EDGE_LOOP('',(#1115,#1116,#1117,#1118,#1119,#1120,#1121,#1122,#1123,
#1124,#1125,#1126));
#177=EDGE_LOOP('',(#1127,#1128,#1129,#1130));
#178=EDGE_LOOP('',(#1131,#1132,#1133,#1134));
#179=EDGE_LOOP('',(#1135,#1136,#1137,#1138));
#180=EDGE_LOOP('',(#1139,#1140,#1141,#1142));
#181=EDGE_LOOP('',(#1143,#1144,#1145,#1146));
#182=EDGE_LOOP('',(#1147,#1148,#1149,#1150));
#183=EDGE_LOOP('',(#1151,#1152,#1153,#1154));
#184=LINE('',#1712,#345);
#185=LINE('',#1714,#346);
#186=LINE('',#1716,#347);
#187=LINE('',#1718,#348);
#188=LINE('',#1720,#349);
#189=LINE('',#1722,#350);
#190=LINE('',#1724,#351);
#191=LINE('',#1726,#352);
#192=LINE('',#1728,#353);
#193=LINE('',#1730,#354);
#194=LINE('',#1732,#355);
#195=LINE('',#1733,#356);
#196=LINE('',#1737,#357);
#197=LINE('',#1739,#358);
#198=LINE('',#1741,#359);
#199=LINE('',#1743,#360);
#200=LINE('',#1745,#361);
#201=LINE('',#1747,#362);
#202=LINE('',#1749,#363);
#203=LINE('',#1751,#364);
#204=LINE('',#1753,#365);
#205=LINE('',#1755,#366);
#206=LINE('',#1757,#367);
#207=LINE('',#1758,#368);
#208=LINE('',#1762,#369);
#209=LINE('',#1764,#370);
#210=LINE('',#1766,#371);
#211=LINE('',#1768,#372);
#212=LINE('',#1770,#373);
#213=LINE('',#1772,#374);
#214=LINE('',#1774,#375);
#215=LINE('',#1776,#376);
#216=LINE('',#1778,#377);
#217=LINE('',#1780,#378);
#218=LINE('',#1782,#379);
#219=LINE('',#1783,#380);
#220=LINE('',#1787,#381);
#221=LINE('',#1789,#382);
#222=LINE('',#1791,#383);
#223=LINE('',#1793,#384);
#224=LINE('',#1795,#385);
#225=LINE('',#1802,#386);
#226=LINE('',#1805,#387);
#227=LINE('',#1811,#388);
#228=LINE('',#1814,#389);
#229=LINE('',#1817,#390);
#230=LINE('',#1819,#391);
#231=LINE('',#1820,#392);
#232=LINE('',#1823,#393);
#233=LINE('',#1825,#394);
#234=LINE('',#1826,#395);
#235=LINE('',#1832,#396);
#236=LINE('',#1835,#397);
#237=LINE('',#1838,#398);
#238=LINE('',#1840,#399);
#239=LINE('',#1841,#400);
#240=LINE('',#1844,#401);
#241=LINE('',#1845,#402);
#242=LINE('',#1848,#403);
#243=LINE('',#1849,#404);
#244=LINE('',#1852,#405);
#245=LINE('',#1853,#406);
#246=LINE('',#1856,#407);
#247=LINE('',#1857,#408);
#248=LINE('',#1860,#409);
#249=LINE('',#1861,#410);
#250=LINE('',#1864,#411);
#251=LINE('',#1866,#412);
#252=LINE('',#1867,#413);
#253=LINE('',#1870,#414);
#254=LINE('',#1871,#415);
#255=LINE('',#1874,#416);
#256=LINE('',#1875,#417);
#257=LINE('',#1878,#418);
#258=LINE('',#1879,#419);
#259=LINE('',#1882,#420);
#260=LINE('',#1883,#421);
#261=LINE('',#1886,#422);
#262=LINE('',#1887,#423);
#263=LINE('',#1890,#424);
#264=LINE('',#1892,#425);
#265=LINE('',#1893,#426);
#266=LINE('',#1896,#427);
#267=LINE('',#1897,#428);
#268=LINE('',#1900,#429);
#269=LINE('',#1901,#430);
#270=LINE('',#1904,#431);
#271=LINE('',#1905,#432);
#272=LINE('',#1908,#433);
#273=LINE('',#1909,#434);
#274=LINE('',#1912,#435);
#275=LINE('',#1913,#436);
#276=LINE('',#1916,#437);
#277=LINE('',#1918,#438);
#278=LINE('',#1919,#439);
#279=LINE('',#1922,#440);
#280=LINE('',#1924,#441);
#281=LINE('',#1925,#442);
#282=LINE('',#1929,#443);
#283=LINE('',#1931,#444);
#284=LINE('',#1933,#445);
#285=LINE('',#1936,#446);
#286=LINE('',#1941,#447);
#287=LINE('',#1943,#448);
#288=LINE('',#1945,#449);
#289=LINE('',#1948,#450);
#290=LINE('',#1949,#451);
#291=LINE('',#1952,#452);
#292=LINE('',#1953,#453);
#293=LINE('',#1956,#454);
#294=LINE('',#1957,#455);
#295=LINE('',#1960,#456);
#296=LINE('',#1961,#457);
#297=LINE('',#1964,#458);
#298=LINE('',#1965,#459);
#299=LINE('',#1968,#460);
#300=LINE('',#1969,#461);
#301=LINE('',#1971,#462);
#302=LINE('',#1975,#463);
#303=LINE('',#1977,#464);
#304=LINE('',#1981,#465);
#305=LINE('',#1982,#466);
#306=LINE('',#1985,#467);
#307=LINE('',#1986,#468);
#308=LINE('',#1989,#469);
#309=LINE('',#1990,#470);
#310=LINE('',#1993,#471);
#311=LINE('',#1994,#472);
#312=LINE('',#1997,#473);
#313=LINE('',#1998,#474);
#314=LINE('',#2000,#475);
#315=LINE('',#2003,#476);
#316=LINE('',#2007,#477);
#317=LINE('',#2008,#478);
#318=LINE('',#2014,#479);
#319=LINE('',#2015,#480);
#320=LINE('',#2018,#481);
#321=LINE('',#2019,#482);
#322=LINE('',#2022,#483);
#323=LINE('',#2023,#484);
#324=LINE('',#2026,#485);
#325=LINE('',#2027,#486);
#326=LINE('',#2030,#487);
#327=LINE('',#2031,#488);
#328=LINE('',#2033,#489);
#329=LINE('',#2036,#490);
#330=LINE('',#2039,#491);
#331=LINE('',#2041,#492);
#332=LINE('',#2043,#493);
#333=LINE('',#2048,#494);
#334=LINE('',#2050,#495);
#335=LINE('',#2052,#496);
#336=LINE('',#2053,#497);
#337=LINE('',#2057,#498);
#338=LINE('',#2059,#499);
#339=LINE('',#2061,#500);
#340=LINE('',#2062,#501);
#341=LINE('',#2064,#502);
#342=LINE('',#2065,#503);
#343=LINE('',#2067,#504);
#344=LINE('',#2069,#505);
#345=VECTOR('',#1383,10.);
#346=VECTOR('',#1384,10.);
#347=VECTOR('',#1385,10.);
#348=VECTOR('',#1386,10.);
#349=VECTOR('',#1387,10.);
#350=VECTOR('',#1388,10.);
#351=VECTOR('',#1389,10.);
#352=VECTOR('',#1390,10.);
#353=VECTOR('',#1391,10.);
#354=VECTOR('',#1392,10.);
#355=VECTOR('',#1393,10.);
#356=VECTOR('',#1394,10.);
#357=VECTOR('',#1397,10.);
#358=VECTOR('',#1398,10.);
#359=VECTOR('',#1399,10.);
#360=VECTOR('',#1400,10.);
#361=VECTOR('',#1401,10.);
#362=VECTOR('',#1402,10.);
#363=VECTOR('',#1403,10.);
#364=VECTOR('',#1404,10.);
#365=VECTOR('',#1405,10.);
#366=VECTOR('',#1406,10.);
#367=VECTOR('',#1407,10.);
#368=VECTOR('',#1408,10.);
#369=VECTOR('',#1411,10.);
#370=VECTOR('',#1412,10.);
#371=VECTOR('',#1413,10.);
#372=VECTOR('',#1414,10.);
#373=VECTOR('',#1415,10.);
#374=VECTOR('',#1416,10.);
#375=VECTOR('',#1417,10.);
#376=VECTOR('',#1418,10.);
#377=VECTOR('',#1419,10.);
#378=VECTOR('',#1420,10.);
#379=VECTOR('',#1421,10.);
#380=VECTOR('',#1422,10.);
#381=VECTOR('',#1425,10.);
#382=VECTOR('',#1426,10.);
#383=VECTOR('',#1427,10.);
#384=VECTOR('',#1428,10.);
#385=VECTOR('',#1429,10.);
#386=VECTOR('',#1436,10.);
#387=VECTOR('',#1439,10.);
#388=VECTOR('',#1444,10.);
#389=VECTOR('',#1447,10.);
#390=VECTOR('',#1450,10.);
#391=VECTOR('',#1451,10.);
#392=VECTOR('',#1452,10.);
#393=VECTOR('',#1455,10.);
#394=VECTOR('',#1456,10.);
#395=VECTOR('',#1457,10.);
#396=VECTOR('',#1462,10.);
#397=VECTOR('',#1465,10.);
#398=VECTOR('',#1468,10.);
#399=VECTOR('',#1469,10.);
#400=VECTOR('',#1470,10.);
#401=VECTOR('',#1473,10.);
#402=VECTOR('',#1474,10.);
#403=VECTOR('',#1477,10.);
#404=VECTOR('',#1478,10.);
#405=VECTOR('',#1481,10.);
#406=VECTOR('',#1482,10.);
#407=VECTOR('',#1485,10.);
#408=VECTOR('',#1486,10.);
#409=VECTOR('',#1489,10.);
#410=VECTOR('',#1490,10.);
#411=VECTOR('',#1493,10.);
#412=VECTOR('',#1494,10.);
#413=VECTOR('',#1495,10.);
#414=VECTOR('',#1498,10.);
#415=VECTOR('',#1499,10.);
#416=VECTOR('',#1502,10.);
#417=VECTOR('',#1503,10.);
#418=VECTOR('',#1506,10.);
#419=VECTOR('',#1507,10.);
#420=VECTOR('',#1510,10.);
#421=VECTOR('',#1511,10.);
#422=VECTOR('',#1514,10.);
#423=VECTOR('',#1515,10.);
#424=VECTOR('',#1518,10.);
#425=VECTOR('',#1519,10.);
#426=VECTOR('',#1520,10.);
#427=VECTOR('',#1523,10.);
#428=VECTOR('',#1524,10.);
#429=VECTOR('',#1527,10.);
#430=VECTOR('',#1528,10.);
#431=VECTOR('',#1531,10.);
#432=VECTOR('',#1532,10.);
#433=VECTOR('',#1535,10.);
#434=VECTOR('',#1536,10.);
#435=VECTOR('',#1539,10.);
#436=VECTOR('',#1540,10.);
#437=VECTOR('',#1543,10.);
#438=VECTOR('',#1544,10.);
#439=VECTOR('',#1545,10.);
#440=VECTOR('',#1548,10.);
#441=VECTOR('',#1549,10.);
#442=VECTOR('',#1550,10.);
#443=VECTOR('',#1555,10.);
#444=VECTOR('',#1556,10.);
#445=VECTOR('',#1559,10.);
#446=VECTOR('',#1562,10.);
#447=VECTOR('',#1565,10.);
#448=VECTOR('',#1568,10.);
#449=VECTOR('',#1571,10.);
#450=VECTOR('',#1574,10.);
#451=VECTOR('',#1575,10.);
#452=VECTOR('',#1578,10.);
#453=VECTOR('',#1579,10.);
#454=VECTOR('',#1582,10.);
#455=VECTOR('',#1583,10.);
#456=VECTOR('',#1586,10.);
#457=VECTOR('',#1587,10.);
#458=VECTOR('',#1590,10.);
#459=VECTOR('',#1591,10.);
#460=VECTOR('',#1594,10.);
#461=VECTOR('',#1595,10.);
#462=VECTOR('',#1598,10.);
#463=VECTOR('',#1603,10.);
#464=VECTOR('',#1606,10.);
#465=VECTOR('',#1611,10.);
#466=VECTOR('',#1612,10.);
#467=VECTOR('',#1615,10.);
#468=VECTOR('',#1616,10.);
#469=VECTOR('',#1619,10.);
#470=VECTOR('',#1620,10.);
#471=VECTOR('',#1623,10.);
#472=VECTOR('',#1624,10.);
#473=VECTOR('',#1627,10.);
#474=VECTOR('',#1628,10.);
#475=VECTOR('',#1631,10.);
#476=VECTOR('',#1634,10.);
#477=VECTOR('',#1639,10.);
#478=VECTOR('',#1640,10.);
#479=VECTOR('',#1649,10.);
#480=VECTOR('',#1650,10.);
#481=VECTOR('',#1653,10.);
#482=VECTOR('',#1654,10.);
#483=VECTOR('',#1657,10.);
#484=VECTOR('',#1658,10.);
#485=VECTOR('',#1661,10.);
#486=VECTOR('',#1662,10.);
#487=VECTOR('',#1665,10.);
#488=VECTOR('',#1666,10.);
#489=VECTOR('',#1669,10.);
#490=VECTOR('',#1672,10.);
#491=VECTOR('',#1675,10.);
#492=VECTOR('',#1678,10.);
#493=VECTOR('',#1681,10.);
#494=VECTOR('',#1686,10.);
#495=VECTOR('',#1687,10.);
#496=VECTOR('',#1688,10.);
#497=VECTOR('',#1689,10.);
#498=VECTOR('',#1692,10.);
#499=VECTOR('',#1693,10.);
#500=VECTOR('',#1694,10.);
#501=VECTOR('',#1695,10.);
#502=VECTOR('',#1698,10.);
#503=VECTOR('',#1699,10.);
#504=VECTOR('',#1702,10.);
#505=VECTOR('',#1705,10.);
#506=VERTEX_POINT('',#1710);
#507=VERTEX_POINT('',#1711);
#508=VERTEX_POINT('',#1713);
#509=VERTEX_POINT('',#1715);
#510=VERTEX_POINT('',#1717);
#511=VERTEX_POINT('',#1719);
#512=VERTEX_POINT('',#1721);
#513=VERTEX_POINT('',#1723);
#514=VERTEX_POINT('',#1725);
#515=VERTEX_POINT('',#1727);
#516=VERTEX_POINT('',#1729);
#517=VERTEX_POINT('',#1731);
#518=VERTEX_POINT('',#1735);
#519=VERTEX_POINT('',#1736);
#520=VERTEX_POINT('',#1738);
#521=VERTEX_POINT('',#1740);
#522=VERTEX_POINT('',#1742);
#523=VERTEX_POINT('',#1744);
#524=VERTEX_POINT('',#1746);
#525=VERTEX_POINT('',#1748);
#526=VERTEX_POINT('',#1750);
#527=VERTEX_POINT('',#1752);
#528=VERTEX_POINT('',#1754);
#529=VERTEX_POINT('',#1756);
#530=VERTEX_POINT('',#1760);
#531=VERTEX_POINT('',#1761);
#532=VERTEX_POINT('',#1763);
#533=VERTEX_POINT('',#1765);
#534=VERTEX_POINT('',#1767);
#535=VERTEX_POINT('',#1769);
#536=VERTEX_POINT('',#1771);
#537=VERTEX_POINT('',#1773);
#538=VERTEX_POINT('',#1775);
#539=VERTEX_POINT('',#1777);
#540=VERTEX_POINT('',#1779);
#541=VERTEX_POINT('',#1781);
#542=VERTEX_POINT('',#1785);
#543=VERTEX_POINT('',#1786);
#544=VERTEX_POINT('',#1788);
#545=VERTEX_POINT('',#1790);
#546=VERTEX_POINT('',#1792);
#547=VERTEX_POINT('',#1794);
#548=VERTEX_POINT('',#1798);
#549=VERTEX_POINT('',#1799);
#550=VERTEX_POINT('',#1801);
#551=VERTEX_POINT('',#1803);
#552=VERTEX_POINT('',#1807);
#553=VERTEX_POINT('',#1808);
#554=VERTEX_POINT('',#1810);
#555=VERTEX_POINT('',#1812);
#556=VERTEX_POINT('',#1816);
#557=VERTEX_POINT('',#1818);
#558=VERTEX_POINT('',#1822);
#559=VERTEX_POINT('',#1824);
#560=VERTEX_POINT('',#1828);
#561=VERTEX_POINT('',#1829);
#562=VERTEX_POINT('',#1831);
#563=VERTEX_POINT('',#1833);
#564=VERTEX_POINT('',#1837);
#565=VERTEX_POINT('',#1839);
#566=VERTEX_POINT('',#1843);
#567=VERTEX_POINT('',#1847);
#568=VERTEX_POINT('',#1851);
#569=VERTEX_POINT('',#1855);
#570=VERTEX_POINT('',#1859);
#571=VERTEX_POINT('',#1863);
#572=VERTEX_POINT('',#1865);
#573=VERTEX_POINT('',#1869);
#574=VERTEX_POINT('',#1873);
#575=VERTEX_POINT('',#1877);
#576=VERTEX_POINT('',#1881);
#577=VERTEX_POINT('',#1885);
#578=VERTEX_POINT('',#1889);
#579=VERTEX_POINT('',#1891);
#580=VERTEX_POINT('',#1895);
#581=VERTEX_POINT('',#1899);
#582=VERTEX_POINT('',#1903);
#583=VERTEX_POINT('',#1907);
#584=VERTEX_POINT('',#1911);
#585=VERTEX_POINT('',#1915);
#586=VERTEX_POINT('',#1917);
#587=VERTEX_POINT('',#1921);
#588=VERTEX_POINT('',#1923);
#589=VERTEX_POINT('',#1927);
#590=VERTEX_POINT('',#1930);
#591=VERTEX_POINT('',#1934);
#592=VERTEX_POINT('',#1937);
#593=VERTEX_POINT('',#1938);
#594=VERTEX_POINT('',#1940);
#595=VERTEX_POINT('',#1947);
#596=VERTEX_POINT('',#1951);
#597=VERTEX_POINT('',#1955);
#598=VERTEX_POINT('',#1959);
#599=VERTEX_POINT('',#1963);
#600=VERTEX_POINT('',#1967);
#601=VERTEX_POINT('',#1973);
#602=VERTEX_POINT('',#1980);
#603=VERTEX_POINT('',#1984);
#604=VERTEX_POINT('',#1988);
#605=VERTEX_POINT('',#1992);
#606=VERTEX_POINT('',#1996);
#607=VERTEX_POINT('',#2002);
#608=VERTEX_POINT('',#2006);
#609=VERTEX_POINT('',#2013);
#610=VERTEX_POINT('',#2017);
#611=VERTEX_POINT('',#2021);
#612=VERTEX_POINT('',#2025);
#613=VERTEX_POINT('',#2029);
#614=VERTEX_POINT('',#2035);
#615=VERTEX_POINT('',#2037);
#616=VERTEX_POINT('',#2046);
#617=VERTEX_POINT('',#2047);
#618=VERTEX_POINT('',#2049);
#619=VERTEX_POINT('',#2051);
#620=VERTEX_POINT('',#2055);
#621=VERTEX_POINT('',#2056);
#622=VERTEX_POINT('',#2058);
#623=VERTEX_POINT('',#2060);
#624=EDGE_CURVE('',#506,#507,#184,.T.);
#625=EDGE_CURVE('',#508,#506,#185,.T.);
#626=EDGE_CURVE('',#509,#508,#186,.T.);
#627=EDGE_CURVE('',#510,#509,#187,.T.);
#628=EDGE_CURVE('',#511,#510,#188,.T.);
#629=EDGE_CURVE('',#512,#511,#189,.T.);
#630=EDGE_CURVE('',#513,#512,#190,.T.);
#631=EDGE_CURVE('',#514,#513,#191,.T.);
#632=EDGE_CURVE('',#515,#514,#192,.T.);
#633=EDGE_CURVE('',#516,#515,#193,.T.);
#634=EDGE_CURVE('',#517,#516,#194,.T.);
#635=EDGE_CURVE('',#507,#517,#195,.T.);
#636=EDGE_CURVE('',#518,#519,#196,.T.);
#637=EDGE_CURVE('',#520,#518,#197,.T.);
#638=EDGE_CURVE('',#521,#520,#198,.T.);
#639=EDGE_CURVE('',#522,#521,#199,.T.);
#640=EDGE_CURVE('',#523,#522,#200,.T.);
#641=EDGE_CURVE('',#524,#523,#201,.T.);
#642=EDGE_CURVE('',#525,#524,#202,.T.);
#643=EDGE_CURVE('',#526,#525,#203,.T.);
#644=EDGE_CURVE('',#527,#526,#204,.T.);
#645=EDGE_CURVE('',#528,#527,#205,.T.);
#646=EDGE_CURVE('',#529,#528,#206,.T.);
#647=EDGE_CURVE('',#519,#529,#207,.T.);
#648=EDGE_CURVE('',#530,#531,#208,.T.);
#649=EDGE_CURVE('',#532,#530,#209,.T.);
#650=EDGE_CURVE('',#533,#532,#210,.T.);
#651=EDGE_CURVE('',#534,#533,#211,.T.);
#652=EDGE_CURVE('',#535,#534,#212,.T.);
#653=EDGE_CURVE('',#536,#535,#213,.T.);
#654=EDGE_CURVE('',#537,#536,#214,.T.);
#655=EDGE_CURVE('',#538,#537,#215,.T.);
#656=EDGE_CURVE('',#539,#538,#216,.T.);
#657=EDGE_CURVE('',#540,#539,#217,.T.);
#658=EDGE_CURVE('',#541,#540,#218,.T.);
#659=EDGE_CURVE('',#531,#541,#219,.T.);
#660=EDGE_CURVE('',#542,#543,#220,.T.);
#661=EDGE_CURVE('',#544,#543,#221,.T.);
#662=EDGE_CURVE('',#545,#544,#222,.T.);
#663=EDGE_CURVE('',#545,#546,#223,.T.);
#664=EDGE_CURVE('',#546,#547,#224,.T.);
#665=EDGE_CURVE('',#547,#542,#43,.T.);
#666=EDGE_CURVE('',#548,#549,#21,.T.);
#667=EDGE_CURVE('',#549,#550,#225,.T.);
#668=EDGE_CURVE('',#551,#550,#22,.T.);
#669=EDGE_CURVE('',#548,#551,#226,.T.);
#670=EDGE_CURVE('',#552,#553,#23,.T.);
#671=EDGE_CURVE('',#553,#554,#227,.T.);
#672=EDGE_CURVE('',#555,#554,#24,.T.);
#673=EDGE_CURVE('',#552,#555,#228,.T.);
#674=EDGE_CURVE('',#543,#556,#229,.T.);
#675=EDGE_CURVE('',#557,#556,#230,.T.);
#676=EDGE_CURVE('',#544,#557,#231,.T.);
#677=EDGE_CURVE('',#556,#558,#232,.T.);
#678=EDGE_CURVE('',#559,#558,#233,.T.);
#679=EDGE_CURVE('',#557,#559,#234,.T.);
#680=EDGE_CURVE('',#560,#561,#25,.T.);
#681=EDGE_CURVE('',#561,#562,#235,.T.);
#682=EDGE_CURVE('',#563,#562,#26,.T.);
#683=EDGE_CURVE('',#560,#563,#236,.T.);
#684=EDGE_CURVE('',#536,#564,#237,.T.);
#685=EDGE_CURVE('',#565,#564,#238,.T.);
#686=EDGE_CURVE('',#537,#565,#239,.T.);
#687=EDGE_CURVE('',#535,#566,#240,.T.);
#688=EDGE_CURVE('',#564,#566,#241,.T.);
#689=EDGE_CURVE('',#534,#567,#242,.T.);
#690=EDGE_CURVE('',#566,#567,#243,.T.);
#691=EDGE_CURVE('',#533,#568,#244,.T.);
#692=EDGE_CURVE('',#567,#568,#245,.T.);
#693=EDGE_CURVE('',#532,#569,#246,.T.);
#694=EDGE_CURVE('',#568,#569,#247,.T.);
#695=EDGE_CURVE('',#530,#570,#248,.T.);
#696=EDGE_CURVE('',#569,#570,#249,.T.);
#697=EDGE_CURVE('',#524,#571,#250,.T.);
#698=EDGE_CURVE('',#572,#571,#251,.T.);
#699=EDGE_CURVE('',#525,#572,#252,.T.);
#700=EDGE_CURVE('',#523,#573,#253,.T.);
#701=EDGE_CURVE('',#571,#573,#254,.T.);
#702=EDGE_CURVE('',#522,#574,#255,.T.);
#703=EDGE_CURVE('',#573,#574,#256,.T.);
#704=EDGE_CURVE('',#521,#575,#257,.T.);
#705=EDGE_CURVE('',#574,#575,#258,.T.);
#706=EDGE_CURVE('',#520,#576,#259,.T.);
#707=EDGE_CURVE('',#575,#576,#260,.T.);
#708=EDGE_CURVE('',#518,#577,#261,.T.);
#709=EDGE_CURVE('',#576,#577,#262,.T.);
#710=EDGE_CURVE('',#512,#578,#263,.T.);
#711=EDGE_CURVE('',#579,#578,#264,.T.);
#712=EDGE_CURVE('',#513,#579,#265,.T.);
#713=EDGE_CURVE('',#511,#580,#266,.T.);
#714=EDGE_CURVE('',#578,#580,#267,.T.);
#715=EDGE_CURVE('',#510,#581,#268,.T.);
#716=EDGE_CURVE('',#580,#581,#269,.T.);
#717=EDGE_CURVE('',#509,#582,#270,.T.);
#718=EDGE_CURVE('',#581,#582,#271,.T.);
#719=EDGE_CURVE('',#508,#583,#272,.T.);
#720=EDGE_CURVE('',#582,#583,#273,.T.);
#721=EDGE_CURVE('',#506,#584,#274,.T.);
#722=EDGE_CURVE('',#583,#584,#275,.T.);
#723=EDGE_CURVE('',#585,#560,#276,.T.);
#724=EDGE_CURVE('',#586,#563,#277,.T.);
#725=EDGE_CURVE('',#585,#586,#278,.T.);
#726=EDGE_CURVE('',#553,#587,#279,.T.);
#727=EDGE_CURVE('',#587,#588,#280,.T.);
#728=EDGE_CURVE('',#554,#588,#281,.T.);
#729=EDGE_CURVE('',#589,#542,#27,.T.);
#730=EDGE_CURVE('',#549,#589,#282,.T.);
#731=EDGE_CURVE('',#590,#548,#283,.T.);
#732=EDGE_CURVE('',#547,#590,#28,.T.);
#733=EDGE_CURVE('',#558,#546,#284,.T.);
#734=EDGE_CURVE('',#591,#585,#29,.T.);
#735=EDGE_CURVE('',#561,#591,#285,.T.);
#736=EDGE_CURVE('',#592,#593,#30,.T.);
#737=EDGE_CURVE('',#594,#592,#286,.T.);
#738=EDGE_CURVE('',#587,#594,#31,.T.);
#739=EDGE_CURVE('',#593,#552,#287,.T.);
#740=EDGE_CURVE('',#559,#545,#288,.T.);
#741=EDGE_CURVE('',#595,#555,#289,.T.);
#742=EDGE_CURVE('',#593,#595,#290,.T.);
#743=EDGE_CURVE('',#531,#596,#291,.T.);
#744=EDGE_CURVE('',#570,#596,#292,.T.);
#745=EDGE_CURVE('',#541,#597,#293,.T.);
#746=EDGE_CURVE('',#596,#597,#294,.T.);
#747=EDGE_CURVE('',#540,#598,#295,.T.);
#748=EDGE_CURVE('',#597,#598,#296,.T.);
#749=EDGE_CURVE('',#539,#599,#297,.T.);
#750=EDGE_CURVE('',#598,#599,#298,.T.);
#751=EDGE_CURVE('',#538,#600,#299,.T.);
#752=EDGE_CURVE('',#599,#600,#300,.T.);
#753=EDGE_CURVE('',#600,#565,#301,.T.);
#754=EDGE_CURVE('',#601,#586,#32,.T.);
#755=EDGE_CURVE('',#591,#601,#302,.T.);
#756=EDGE_CURVE('',#562,#601,#303,.T.);
#757=EDGE_CURVE('',#519,#602,#304,.T.);
#758=EDGE_CURVE('',#577,#602,#305,.T.);
#759=EDGE_CURVE('',#529,#603,#306,.T.);
#760=EDGE_CURVE('',#602,#603,#307,.T.);
#761=EDGE_CURVE('',#528,#604,#308,.T.);
#762=EDGE_CURVE('',#603,#604,#309,.T.);
#763=EDGE_CURVE('',#527,#605,#310,.T.);
#764=EDGE_CURVE('',#604,#605,#311,.T.);
#765=EDGE_CURVE('',#526,#606,#312,.T.);
#766=EDGE_CURVE('',#605,#606,#313,.T.);
#767=EDGE_CURVE('',#606,#572,#314,.T.);
#768=EDGE_CURVE('',#594,#607,#315,.T.);
#769=EDGE_CURVE('',#588,#607,#33,.T.);
#770=EDGE_CURVE('',#592,#608,#316,.T.);
#771=EDGE_CURVE('',#607,#608,#317,.T.);
#772=EDGE_CURVE('',#608,#595,#34,.T.);
#773=EDGE_CURVE('',#507,#609,#318,.T.);
#774=EDGE_CURVE('',#584,#609,#319,.T.);
#775=EDGE_CURVE('',#517,#610,#320,.T.);
#776=EDGE_CURVE('',#609,#610,#321,.T.);
#777=EDGE_CURVE('',#516,#611,#322,.T.);
#778=EDGE_CURVE('',#610,#611,#323,.T.);
#779=EDGE_CURVE('',#515,#612,#324,.T.);
#780=EDGE_CURVE('',#611,#612,#325,.T.);
#781=EDGE_CURVE('',#514,#613,#326,.T.);
#782=EDGE_CURVE('',#612,#613,#327,.T.);
#783=EDGE_CURVE('',#613,#579,#328,.T.);
#784=EDGE_CURVE('',#590,#614,#329,.T.);
#785=EDGE_CURVE('',#615,#614,#35,.T.);
#786=EDGE_CURVE('',#589,#615,#330,.T.);
#787=EDGE_CURVE('',#550,#615,#331,.T.);
#788=EDGE_CURVE('',#614,#551,#332,.T.);
#789=EDGE_CURVE('',#616,#617,#333,.T.);
#790=EDGE_CURVE('',#617,#618,#334,.T.);
#791=EDGE_CURVE('',#618,#619,#335,.T.);
#792=EDGE_CURVE('',#619,#616,#336,.T.);
#793=EDGE_CURVE('',#620,#621,#337,.T.);
#794=EDGE_CURVE('',#622,#620,#338,.T.);
#795=EDGE_CURVE('',#623,#622,#339,.T.);
#796=EDGE_CURVE('',#621,#623,#340,.T.);
#797=EDGE_CURVE('',#621,#617,#341,.T.);
#798=EDGE_CURVE('',#620,#616,#342,.T.);
#799=EDGE_CURVE('',#623,#618,#343,.T.);
#800=EDGE_CURVE('',#622,#619,#344,.T.);
#801=ORIENTED_EDGE('',*,*,#624,.F.);
#802=ORIENTED_EDGE('',*,*,#625,.F.);
#803=ORIENTED_EDGE('',*,*,#626,.F.);
#804=ORIENTED_EDGE('',*,*,#627,.F.);
#805=ORIENTED_EDGE('',*,*,#628,.F.);
#806=ORIENTED_EDGE('',*,*,#629,.F.);
#807=ORIENTED_EDGE('',*,*,#630,.F.);
#808=ORIENTED_EDGE('',*,*,#631,.F.);
#809=ORIENTED_EDGE('',*,*,#632,.F.);
#810=ORIENTED_EDGE('',*,*,#633,.F.);
#811=ORIENTED_EDGE('',*,*,#634,.F.);
#812=ORIENTED_EDGE('',*,*,#635,.F.);
#813=ORIENTED_EDGE('',*,*,#636,.F.);
#814=ORIENTED_EDGE('',*,*,#637,.F.);
#815=ORIENTED_EDGE('',*,*,#638,.F.);
#816=ORIENTED_EDGE('',*,*,#639,.F.);
#817=ORIENTED_EDGE('',*,*,#640,.F.);
#818=ORIENTED_EDGE('',*,*,#641,.F.);
#819=ORIENTED_EDGE('',*,*,#642,.F.);
#820=ORIENTED_EDGE('',*,*,#643,.F.);
#821=ORIENTED_EDGE('',*,*,#644,.F.);
#822=ORIENTED_EDGE('',*,*,#645,.F.);
#823=ORIENTED_EDGE('',*,*,#646,.F.);
#824=ORIENTED_EDGE('',*,*,#647,.F.);
#825=ORIENTED_EDGE('',*,*,#648,.F.);
#826=ORIENTED_EDGE('',*,*,#649,.F.);
#827=ORIENTED_EDGE('',*,*,#650,.F.);
#828=ORIENTED_EDGE('',*,*,#651,.F.);
#829=ORIENTED_EDGE('',*,*,#652,.F.);
#830=ORIENTED_EDGE('',*,*,#653,.F.);
#831=ORIENTED_EDGE('',*,*,#654,.F.);
#832=ORIENTED_EDGE('',*,*,#655,.F.);
#833=ORIENTED_EDGE('',*,*,#656,.F.);
#834=ORIENTED_EDGE('',*,*,#657,.F.);
#835=ORIENTED_EDGE('',*,*,#658,.F.);
#836=ORIENTED_EDGE('',*,*,#659,.F.);
#837=ORIENTED_EDGE('',*,*,#660,.T.);
#838=ORIENTED_EDGE('',*,*,#661,.F.);
#839=ORIENTED_EDGE('',*,*,#662,.F.);
#840=ORIENTED_EDGE('',*,*,#663,.T.);
#841=ORIENTED_EDGE('',*,*,#664,.T.);
#842=ORIENTED_EDGE('',*,*,#665,.T.);
#843=ORIENTED_EDGE('',*,*,#666,.T.);
#844=ORIENTED_EDGE('',*,*,#667,.T.);
#845=ORIENTED_EDGE('',*,*,#668,.F.);
#846=ORIENTED_EDGE('',*,*,#669,.F.);
#847=ORIENTED_EDGE('',*,*,#670,.T.);
#848=ORIENTED_EDGE('',*,*,#671,.T.);
#849=ORIENTED_EDGE('',*,*,#672,.F.);
#850=ORIENTED_EDGE('',*,*,#673,.F.);
#851=ORIENTED_EDGE('',*,*,#674,.T.);
#852=ORIENTED_EDGE('',*,*,#675,.F.);
#853=ORIENTED_EDGE('',*,*,#676,.F.);
#854=ORIENTED_EDGE('',*,*,#661,.T.);
#855=ORIENTED_EDGE('',*,*,#677,.T.);
#856=ORIENTED_EDGE('',*,*,#678,.F.);
#857=ORIENTED_EDGE('',*,*,#679,.F.);
#858=ORIENTED_EDGE('',*,*,#675,.T.);
#859=ORIENTED_EDGE('',*,*,#680,.T.);
#860=ORIENTED_EDGE('',*,*,#681,.T.);
#861=ORIENTED_EDGE('',*,*,#682,.F.);
#862=ORIENTED_EDGE('',*,*,#683,.F.);
#863=ORIENTED_EDGE('',*,*,#654,.T.);
#864=ORIENTED_EDGE('',*,*,#684,.T.);
#865=ORIENTED_EDGE('',*,*,#685,.F.);
#866=ORIENTED_EDGE('',*,*,#686,.F.);
#867=ORIENTED_EDGE('',*,*,#653,.T.);
#868=ORIENTED_EDGE('',*,*,#687,.T.);
#869=ORIENTED_EDGE('',*,*,#688,.F.);
#870=ORIENTED_EDGE('',*,*,#684,.F.);
#871=ORIENTED_EDGE('',*,*,#652,.T.);
#872=ORIENTED_EDGE('',*,*,#689,.T.);
#873=ORIENTED_EDGE('',*,*,#690,.F.);
#874=ORIENTED_EDGE('',*,*,#687,.F.);
#875=ORIENTED_EDGE('',*,*,#651,.T.);
#876=ORIENTED_EDGE('',*,*,#691,.T.);
#877=ORIENTED_EDGE('',*,*,#692,.F.);
#878=ORIENTED_EDGE('',*,*,#689,.F.);
#879=ORIENTED_EDGE('',*,*,#650,.T.);
#880=ORIENTED_EDGE('',*,*,#693,.T.);
#881=ORIENTED_EDGE('',*,*,#694,.F.);
#882=ORIENTED_EDGE('',*,*,#691,.F.);
#883=ORIENTED_EDGE('',*,*,#649,.T.);
#884=ORIENTED_EDGE('',*,*,#695,.T.);
#885=ORIENTED_EDGE('',*,*,#696,.F.);
#886=ORIENTED_EDGE('',*,*,#693,.F.);
#887=ORIENTED_EDGE('',*,*,#642,.T.);
#888=ORIENTED_EDGE('',*,*,#697,.T.);
#889=ORIENTED_EDGE('',*,*,#698,.F.);
#890=ORIENTED_EDGE('',*,*,#699,.F.);
#891=ORIENTED_EDGE('',*,*,#641,.T.);
#892=ORIENTED_EDGE('',*,*,#700,.T.);
#893=ORIENTED_EDGE('',*,*,#701,.F.);
#894=ORIENTED_EDGE('',*,*,#697,.F.);
#895=ORIENTED_EDGE('',*,*,#640,.T.);
#896=ORIENTED_EDGE('',*,*,#702,.T.);
#897=ORIENTED_EDGE('',*,*,#703,.F.);
#898=ORIENTED_EDGE('',*,*,#700,.F.);
#899=ORIENTED_EDGE('',*,*,#639,.T.);
#900=ORIENTED_EDGE('',*,*,#704,.T.);
#901=ORIENTED_EDGE('',*,*,#705,.F.);
#902=ORIENTED_EDGE('',*,*,#702,.F.);
#903=ORIENTED_EDGE('',*,*,#638,.T.);
#904=ORIENTED_EDGE('',*,*,#706,.T.);
#905=ORIENTED_EDGE('',*,*,#707,.F.);
#906=ORIENTED_EDGE('',*,*,#704,.F.);
#907=ORIENTED_EDGE('',*,*,#637,.T.);
#908=ORIENTED_EDGE('',*,*,#708,.T.);
#909=ORIENTED_EDGE('',*,*,#709,.F.);
#910=ORIENTED_EDGE('',*,*,#706,.F.);
#911=ORIENTED_EDGE('',*,*,#630,.T.);
#912=ORIENTED_EDGE('',*,*,#710,.T.);
#913=ORIENTED_EDGE('',*,*,#711,.F.);
#914=ORIENTED_EDGE('',*,*,#712,.F.);
#915=ORIENTED_EDGE('',*,*,#629,.T.);
#916=ORIENTED_EDGE('',*,*,#713,.T.);
#917=ORIENTED_EDGE('',*,*,#714,.F.);
#918=ORIENTED_EDGE('',*,*,#710,.F.);
#919=ORIENTED_EDGE('',*,*,#628,.T.);
#920=ORIENTED_EDGE('',*,*,#715,.T.);
#921=ORIENTED_EDGE('',*,*,#716,.F.);
#922=ORIENTED_EDGE('',*,*,#713,.F.);
#923=ORIENTED_EDGE('',*,*,#627,.T.);
#924=ORIENTED_EDGE('',*,*,#717,.T.);
#925=ORIENTED_EDGE('',*,*,#718,.F.);
#926=ORIENTED_EDGE('',*,*,#715,.F.);
#927=ORIENTED_EDGE('',*,*,#626,.T.);
#928=ORIENTED_EDGE('',*,*,#719,.T.);
#929=ORIENTED_EDGE('',*,*,#720,.F.);
#930=ORIENTED_EDGE('',*,*,#717,.F.);
#931=ORIENTED_EDGE('',*,*,#625,.T.);
#932=ORIENTED_EDGE('',*,*,#721,.T.);
#933=ORIENTED_EDGE('',*,*,#722,.F.);
#934=ORIENTED_EDGE('',*,*,#719,.F.);
#935=ORIENTED_EDGE('',*,*,#723,.T.);
#936=ORIENTED_EDGE('',*,*,#683,.T.);
#937=ORIENTED_EDGE('',*,*,#724,.F.);
#938=ORIENTED_EDGE('',*,*,#725,.F.);
#939=ORIENTED_EDGE('',*,*,#726,.T.);
#940=ORIENTED_EDGE('',*,*,#727,.T.);
#941=ORIENTED_EDGE('',*,*,#728,.F.);
#942=ORIENTED_EDGE('',*,*,#671,.F.);
#943=ORIENTED_EDGE('',*,*,#660,.F.);
#944=ORIENTED_EDGE('',*,*,#729,.F.);
#945=ORIENTED_EDGE('',*,*,#730,.F.);
#946=ORIENTED_EDGE('',*,*,#666,.F.);
#947=ORIENTED_EDGE('',*,*,#731,.F.);
#948=ORIENTED_EDGE('',*,*,#732,.F.);
#949=ORIENTED_EDGE('',*,*,#664,.F.);
#950=ORIENTED_EDGE('',*,*,#733,.F.);
#951=ORIENTED_EDGE('',*,*,#677,.F.);
#952=ORIENTED_EDGE('',*,*,#674,.F.);
#953=ORIENTED_EDGE('',*,*,#734,.F.);
#954=ORIENTED_EDGE('',*,*,#735,.F.);
#955=ORIENTED_EDGE('',*,*,#680,.F.);
#956=ORIENTED_EDGE('',*,*,#723,.F.);
#957=ORIENTED_EDGE('',*,*,#736,.F.);
#958=ORIENTED_EDGE('',*,*,#737,.F.);
#959=ORIENTED_EDGE('',*,*,#738,.F.);
#960=ORIENTED_EDGE('',*,*,#726,.F.);
#961=ORIENTED_EDGE('',*,*,#670,.F.);
#962=ORIENTED_EDGE('',*,*,#739,.F.);
#963=ORIENTED_EDGE('',*,*,#733,.T.);
#964=ORIENTED_EDGE('',*,*,#663,.F.);
#965=ORIENTED_EDGE('',*,*,#740,.F.);
#966=ORIENTED_EDGE('',*,*,#678,.T.);
#967=ORIENTED_EDGE('',*,*,#739,.T.);
#968=ORIENTED_EDGE('',*,*,#673,.T.);
#969=ORIENTED_EDGE('',*,*,#741,.F.);
#970=ORIENTED_EDGE('',*,*,#742,.F.);
#971=ORIENTED_EDGE('',*,*,#648,.T.);
#972=ORIENTED_EDGE('',*,*,#743,.T.);
#973=ORIENTED_EDGE('',*,*,#744,.F.);
#974=ORIENTED_EDGE('',*,*,#695,.F.);
#975=ORIENTED_EDGE('',*,*,#659,.T.);
#976=ORIENTED_EDGE('',*,*,#745,.T.);
#977=ORIENTED_EDGE('',*,*,#746,.F.);
#978=ORIENTED_EDGE('',*,*,#743,.F.);
#979=ORIENTED_EDGE('',*,*,#658,.T.);
#980=ORIENTED_EDGE('',*,*,#747,.T.);
#981=ORIENTED_EDGE('',*,*,#748,.F.);
#982=ORIENTED_EDGE('',*,*,#745,.F.);
#983=ORIENTED_EDGE('',*,*,#657,.T.);
#984=ORIENTED_EDGE('',*,*,#749,.T.);
#985=ORIENTED_EDGE('',*,*,#750,.F.);
#986=ORIENTED_EDGE('',*,*,#747,.F.);
#987=ORIENTED_EDGE('',*,*,#656,.T.);
#988=ORIENTED_EDGE('',*,*,#751,.T.);
#989=ORIENTED_EDGE('',*,*,#752,.F.);
#990=ORIENTED_EDGE('',*,*,#749,.F.);
#991=ORIENTED_EDGE('',*,*,#655,.T.);
#992=ORIENTED_EDGE('',*,*,#686,.T.);
#993=ORIENTED_EDGE('',*,*,#753,.F.);
#994=ORIENTED_EDGE('',*,*,#751,.F.);
#995=ORIENTED_EDGE('',*,*,#734,.T.);
#996=ORIENTED_EDGE('',*,*,#725,.T.);
#997=ORIENTED_EDGE('',*,*,#754,.F.);
#998=ORIENTED_EDGE('',*,*,#755,.F.);
#999=ORIENTED_EDGE('',*,*,#735,.T.);
#1000=ORIENTED_EDGE('',*,*,#755,.T.);
#1001=ORIENTED_EDGE('',*,*,#756,.F.);
#1002=ORIENTED_EDGE('',*,*,#681,.F.);
#1003=ORIENTED_EDGE('',*,*,#724,.T.);
#1004=ORIENTED_EDGE('',*,*,#682,.T.);
#1005=ORIENTED_EDGE('',*,*,#756,.T.);
#1006=ORIENTED_EDGE('',*,*,#754,.T.);
#1007=ORIENTED_EDGE('',*,*,#685,.T.);
#1008=ORIENTED_EDGE('',*,*,#688,.T.);
#1009=ORIENTED_EDGE('',*,*,#690,.T.);
#1010=ORIENTED_EDGE('',*,*,#692,.T.);
#1011=ORIENTED_EDGE('',*,*,#694,.T.);
#1012=ORIENTED_EDGE('',*,*,#696,.T.);
#1013=ORIENTED_EDGE('',*,*,#744,.T.);
#1014=ORIENTED_EDGE('',*,*,#746,.T.);
#1015=ORIENTED_EDGE('',*,*,#748,.T.);
#1016=ORIENTED_EDGE('',*,*,#750,.T.);
#1017=ORIENTED_EDGE('',*,*,#752,.T.);
#1018=ORIENTED_EDGE('',*,*,#753,.T.);
#1019=ORIENTED_EDGE('',*,*,#636,.T.);
#1020=ORIENTED_EDGE('',*,*,#757,.T.);
#1021=ORIENTED_EDGE('',*,*,#758,.F.);
#1022=ORIENTED_EDGE('',*,*,#708,.F.);
#1023=ORIENTED_EDGE('',*,*,#647,.T.);
#1024=ORIENTED_EDGE('',*,*,#759,.T.);
#1025=ORIENTED_EDGE('',*,*,#760,.F.);
#1026=ORIENTED_EDGE('',*,*,#757,.F.);
#1027=ORIENTED_EDGE('',*,*,#646,.T.);
#1028=ORIENTED_EDGE('',*,*,#761,.T.);
#1029=ORIENTED_EDGE('',*,*,#762,.F.);
#1030=ORIENTED_EDGE('',*,*,#759,.F.);
#1031=ORIENTED_EDGE('',*,*,#645,.T.);
#1032=ORIENTED_EDGE('',*,*,#763,.T.);
#1033=ORIENTED_EDGE('',*,*,#764,.F.);
#1034=ORIENTED_EDGE('',*,*,#761,.F.);
#1035=ORIENTED_EDGE('',*,*,#644,.T.);
#1036=ORIENTED_EDGE('',*,*,#765,.T.);
#1037=ORIENTED_EDGE('',*,*,#766,.F.);
#1038=ORIENTED_EDGE('',*,*,#763,.F.);
#1039=ORIENTED_EDGE('',*,*,#643,.T.);
#1040=ORIENTED_EDGE('',*,*,#699,.T.);
#1041=ORIENTED_EDGE('',*,*,#767,.F.);
#1042=ORIENTED_EDGE('',*,*,#765,.F.);
#1043=ORIENTED_EDGE('',*,*,#738,.T.);
#1044=ORIENTED_EDGE('',*,*,#768,.T.);
#1045=ORIENTED_EDGE('',*,*,#769,.F.);
#1046=ORIENTED_EDGE('',*,*,#727,.F.);
#1047=ORIENTED_EDGE('',*,*,#737,.T.);
#1048=ORIENTED_EDGE('',*,*,#770,.T.);
#1049=ORIENTED_EDGE('',*,*,#771,.F.);
#1050=ORIENTED_EDGE('',*,*,#768,.F.);
#1051=ORIENTED_EDGE('',*,*,#736,.T.);
#1052=ORIENTED_EDGE('',*,*,#742,.T.);
#1053=ORIENTED_EDGE('',*,*,#772,.F.);
#1054=ORIENTED_EDGE('',*,*,#770,.F.);
#1055=ORIENTED_EDGE('',*,*,#741,.T.);
#1056=ORIENTED_EDGE('',*,*,#672,.T.);
#1057=ORIENTED_EDGE('',*,*,#728,.T.);
#1058=ORIENTED_EDGE('',*,*,#769,.T.);
#1059=ORIENTED_EDGE('',*,*,#771,.T.);
#1060=ORIENTED_EDGE('',*,*,#772,.T.);
#1061=ORIENTED_EDGE('',*,*,#698,.T.);
#1062=ORIENTED_EDGE('',*,*,#701,.T.);
#1063=ORIENTED_EDGE('',*,*,#703,.T.);
#1064=ORIENTED_EDGE('',*,*,#705,.T.);
#1065=ORIENTED_EDGE('',*,*,#707,.T.);
#1066=ORIENTED_EDGE('',*,*,#709,.T.);
#1067=ORIENTED_EDGE('',*,*,#758,.T.);
#1068=ORIENTED_EDGE('',*,*,#760,.T.);
#1069=ORIENTED_EDGE('',*,*,#762,.T.);
#1070=ORIENTED_EDGE('',*,*,#764,.T.);
#1071=ORIENTED_EDGE('',*,*,#766,.T.);
#1072=ORIENTED_EDGE('',*,*,#767,.T.);
#1073=ORIENTED_EDGE('',*,*,#624,.T.);
#1074=ORIENTED_EDGE('',*,*,#773,.T.);
#1075=ORIENTED_EDGE('',*,*,#774,.F.);
#1076=ORIENTED_EDGE('',*,*,#721,.F.);
#1077=ORIENTED_EDGE('',*,*,#635,.T.);
#1078=ORIENTED_EDGE('',*,*,#775,.T.);
#1079=ORIENTED_EDGE('',*,*,#776,.F.);
#1080=ORIENTED_EDGE('',*,*,#773,.F.);
#1081=ORIENTED_EDGE('',*,*,#634,.T.);
#1082=ORIENTED_EDGE('',*,*,#777,.T.);
#1083=ORIENTED_EDGE('',*,*,#778,.F.);
#1084=ORIENTED_EDGE('',*,*,#775,.F.);
#1085=ORIENTED_EDGE('',*,*,#633,.T.);
#1086=ORIENTED_EDGE('',*,*,#779,.T.);
#1087=ORIENTED_EDGE('',*,*,#780,.F.);
#1088=ORIENTED_EDGE('',*,*,#777,.F.);
#1089=ORIENTED_EDGE('',*,*,#632,.T.);
#1090=ORIENTED_EDGE('',*,*,#781,.T.);
#1091=ORIENTED_EDGE('',*,*,#782,.F.);
#1092=ORIENTED_EDGE('',*,*,#779,.F.);
#1093=ORIENTED_EDGE('',*,*,#631,.T.);
#1094=ORIENTED_EDGE('',*,*,#712,.T.);
#1095=ORIENTED_EDGE('',*,*,#783,.F.);
#1096=ORIENTED_EDGE('',*,*,#781,.F.);
#1097=ORIENTED_EDGE('',*,*,#729,.T.);
#1098=ORIENTED_EDGE('',*,*,#665,.F.);
#1099=ORIENTED_EDGE('',*,*,#732,.T.);
#1100=ORIENTED_EDGE('',*,*,#784,.T.);
#1101=ORIENTED_EDGE('',*,*,#785,.F.);
#1102=ORIENTED_EDGE('',*,*,#786,.F.);
#1103=ORIENTED_EDGE('',*,*,#730,.T.);
#1104=ORIENTED_EDGE('',*,*,#786,.T.);
#1105=ORIENTED_EDGE('',*,*,#787,.F.);
#1106=ORIENTED_EDGE('',*,*,#667,.F.);
#1107=ORIENTED_EDGE('',*,*,#731,.T.);
#1108=ORIENTED_EDGE('',*,*,#669,.T.);
#1109=ORIENTED_EDGE('',*,*,#788,.F.);
#1110=ORIENTED_EDGE('',*,*,#784,.F.);
#1111=ORIENTED_EDGE('',*,*,#788,.T.);
#1112=ORIENTED_EDGE('',*,*,#668,.T.);
#1113=ORIENTED_EDGE('',*,*,#787,.T.);
#1114=ORIENTED_EDGE('',*,*,#785,.T.);
#1115=ORIENTED_EDGE('',*,*,#782,.T.);
#1116=ORIENTED_EDGE('',*,*,#783,.T.);
#1117=ORIENTED_EDGE('',*,*,#711,.T.);
#1118=ORIENTED_EDGE('',*,*,#714,.T.);
#1119=ORIENTED_EDGE('',*,*,#716,.T.);
#1120=ORIENTED_EDGE('',*,*,#718,.T.);
#1121=ORIENTED_EDGE('',*,*,#720,.T.);
#1122=ORIENTED_EDGE('',*,*,#722,.T.);
#1123=ORIENTED_EDGE('',*,*,#774,.T.);
#1124=ORIENTED_EDGE('',*,*,#776,.T.);
#1125=ORIENTED_EDGE('',*,*,#778,.T.);
#1126=ORIENTED_EDGE('',*,*,#780,.T.);
#1127=ORIENTED_EDGE('',*,*,#789,.T.);
#1128=ORIENTED_EDGE('',*,*,#790,.T.);
#1129=ORIENTED_EDGE('',*,*,#791,.T.);
#1130=ORIENTED_EDGE('',*,*,#792,.T.);
#1131=ORIENTED_EDGE('',*,*,#676,.T.);
#1132=ORIENTED_EDGE('',*,*,#679,.T.);
#1133=ORIENTED_EDGE('',*,*,#740,.T.);
#1134=ORIENTED_EDGE('',*,*,#662,.T.);
#1135=ORIENTED_EDGE('',*,*,#793,.F.);
#1136=ORIENTED_EDGE('',*,*,#794,.F.);
#1137=ORIENTED_EDGE('',*,*,#795,.F.);
#1138=ORIENTED_EDGE('',*,*,#796,.F.);
#1139=ORIENTED_EDGE('',*,*,#793,.T.);
#1140=ORIENTED_EDGE('',*,*,#797,.T.);
#1141=ORIENTED_EDGE('',*,*,#789,.F.);
#1142=ORIENTED_EDGE('',*,*,#798,.F.);
#1143=ORIENTED_EDGE('',*,*,#796,.T.);
#1144=ORIENTED_EDGE('',*,*,#799,.T.);
#1145=ORIENTED_EDGE('',*,*,#790,.F.);
#1146=ORIENTED_EDGE('',*,*,#797,.F.);
#1147=ORIENTED_EDGE('',*,*,#795,.T.);
#1148=ORIENTED_EDGE('',*,*,#800,.T.);
#1149=ORIENTED_EDGE('',*,*,#791,.F.);
#1150=ORIENTED_EDGE('',*,*,#799,.F.);
#1151=ORIENTED_EDGE('',*,*,#794,.T.);
#1152=ORIENTED_EDGE('',*,*,#798,.T.);
#1153=ORIENTED_EDGE('',*,*,#792,.F.);
#1154=ORIENTED_EDGE('',*,*,#800,.F.);
#1155=PLANE('',#1296);
#1156=PLANE('',#1297);
#1157=PLANE('',#1298);
#1158=PLANE('',#1299);
#1159=PLANE('',#1307);
#1160=PLANE('',#1308);
#1161=PLANE('',#1312);
#1162=PLANE('',#1313);
#1163=PLANE('',#1314);
#1164=PLANE('',#1315);
#1165=PLANE('',#1316);
#1166=PLANE('',#1317);
#1167=PLANE('',#1318);
#1168=PLANE('',#1319);
#1169=PLANE('',#1320);
#1170=PLANE('',#1321);
#1171=PLANE('',#1322);
#1172=PLANE('',#1323);
#1173=PLANE('',#1324);
#1174=PLANE('',#1325);
#1175=PLANE('',#1326);
#1176=PLANE('',#1327);
#1177=PLANE('',#1328);
#1178=PLANE('',#1329);
#1179=PLANE('',#1330);
#1180=PLANE('',#1331);
#1181=PLANE('',#1332);
#1182=PLANE('',#1338);
#1183=PLANE('',#1339);
#1184=PLANE('',#1340);
#1185=PLANE('',#1341);
#1186=PLANE('',#1342);
#1187=PLANE('',#1343);
#1188=PLANE('',#1344);
#1189=PLANE('',#1345);
#1190=PLANE('',#1348);
#1191=PLANE('',#1349);
#1192=PLANE('',#1350);
#1193=PLANE('',#1351);
#1194=PLANE('',#1352);
#1195=PLANE('',#1353);
#1196=PLANE('',#1354);
#1197=PLANE('',#1355);
#1198=PLANE('',#1358);
#1199=PLANE('',#1361);
#1200=PLANE('',#1362);
#1201=PLANE('',#1363);
#1202=PLANE('',#1364);
#1203=PLANE('',#1365);
#1204=PLANE('',#1366);
#1205=PLANE('',#1367);
#1206=PLANE('',#1370);
#1207=PLANE('',#1371);
#1208=PLANE('',#1372);
#1209=PLANE('',#1373);
#1210=PLANE('',#1374);
#1211=PLANE('',#1375);
#1212=PLANE('',#1376);
#1213=PLANE('',#1377);
#1214=PLANE('',#1378);
#1215=ADVANCED_FACE('',(#44),#1155,.T.);
#1216=ADVANCED_FACE('',(#45),#1156,.T.);
#1217=ADVANCED_FACE('',(#46),#1157,.T.);
#1218=ADVANCED_FACE('',(#47),#1158,.F.);
#1219=ADVANCED_FACE('',(#48),#36,.T.);
#1220=ADVANCED_FACE('',(#49),#37,.T.);
#1221=ADVANCED_FACE('',(#50),#1159,.F.);
#1222=ADVANCED_FACE('',(#51),#1160,.F.);
#1223=ADVANCED_FACE('',(#52),#38,.T.);
#1224=ADVANCED_FACE('',(#53),#1161,.T.);
#1225=ADVANCED_FACE('',(#54),#1162,.T.);
#1226=ADVANCED_FACE('',(#55),#1163,.T.);
#1227=ADVANCED_FACE('',(#56),#1164,.T.);
#1228=ADVANCED_FACE('',(#57),#1165,.T.);
#1229=ADVANCED_FACE('',(#58),#1166,.T.);
#1230=ADVANCED_FACE('',(#59),#1167,.T.);
#1231=ADVANCED_FACE('',(#60),#1168,.T.);
#1232=ADVANCED_FACE('',(#61),#1169,.T.);
#1233=ADVANCED_FACE('',(#62),#1170,.T.);
#1234=ADVANCED_FACE('',(#63),#1171,.T.);
#1235=ADVANCED_FACE('',(#64),#1172,.T.);
#1236=ADVANCED_FACE('',(#65),#1173,.T.);
#1237=ADVANCED_FACE('',(#66),#1174,.T.);
#1238=ADVANCED_FACE('',(#67),#1175,.T.);
#1239=ADVANCED_FACE('',(#68),#1176,.T.);
#1240=ADVANCED_FACE('',(#69),#1177,.T.);
#1241=ADVANCED_FACE('',(#70),#1178,.T.);
#1242=ADVANCED_FACE('',(#71),#1179,.T.);
#1243=ADVANCED_FACE('',(#72),#1180,.T.);
#1244=ADVANCED_FACE('',(#73,#15,#16),#1181,.T.);
#1245=ADVANCED_FACE('',(#74),#1182,.F.);
#1246=ADVANCED_FACE('',(#75),#1183,.T.);
#1247=ADVANCED_FACE('',(#76),#1184,.T.);
#1248=ADVANCED_FACE('',(#77),#1185,.T.);
#1249=ADVANCED_FACE('',(#78),#1186,.T.);
#1250=ADVANCED_FACE('',(#79),#1187,.T.);
#1251=ADVANCED_FACE('',(#80),#1188,.T.);
#1252=ADVANCED_FACE('',(#81),#1189,.T.);
#1253=ADVANCED_FACE('',(#82),#39,.T.);
#1254=ADVANCED_FACE('',(#83),#1190,.T.);
#1255=ADVANCED_FACE('',(#84,#17),#1191,.T.);
#1256=ADVANCED_FACE('',(#85),#1192,.T.);
#1257=ADVANCED_FACE('',(#86),#1193,.T.);
#1258=ADVANCED_FACE('',(#87),#1194,.T.);
#1259=ADVANCED_FACE('',(#88),#1195,.T.);
#1260=ADVANCED_FACE('',(#89),#1196,.T.);
#1261=ADVANCED_FACE('',(#90),#1197,.T.);
#1262=ADVANCED_FACE('',(#91),#40,.T.);
#1263=ADVANCED_FACE('',(#92),#1198,.T.);
#1264=ADVANCED_FACE('',(#93),#41,.T.);
#1265=ADVANCED_FACE('',(#94,#18),#1199,.T.);
#1266=ADVANCED_FACE('',(#95),#1200,.T.);
#1267=ADVANCED_FACE('',(#96),#1201,.T.);
#1268=ADVANCED_FACE('',(#97),#1202,.T.);
#1269=ADVANCED_FACE('',(#98),#1203,.T.);
#1270=ADVANCED_FACE('',(#99),#1204,.T.);
#1271=ADVANCED_FACE('',(#100),#1205,.T.);
#1272=ADVANCED_FACE('',(#101),#42,.T.);
#1273=ADVANCED_FACE('',(#102),#1206,.T.);
#1274=ADVANCED_FACE('',(#103),#1207,.T.);
#1275=ADVANCED_FACE('',(#104,#19),#1208,.T.);
#1276=ADVANCED_FACE('',(#105,#20),#1209,.T.);
#1277=ADVANCED_FACE('',(#106),#1210,.F.);
#1278=ADVANCED_FACE('',(#107),#1211,.T.);
#1279=ADVANCED_FACE('',(#108),#1212,.T.);
#1280=ADVANCED_FACE('',(#109),#1213,.T.);
#1281=ADVANCED_FACE('',(#110),#1214,.T.);
#1282=CLOSED_SHELL('',(#1215,#1216,#1217,#1218,#1219,#1220,#1221,#1222,
#1223,#1224,#1225,#1226,#1227,#1228,#1229,#1230,#1231,#1232,#1233,#1234,
#1235,#1236,#1237,#1238,#1239,#1240,#1241,#1242,#1243,#1244,#1245,#1246,
#1247,#1248,#1249,#1250,#1251,#1252,#1253,#1254,#1255,#1256,#1257,#1258,
#1259,#1260,#1261,#1262,#1263,#1264,#1265,#1266,#1267,#1268,#1269,#1270,
#1271,#1272,#1273,#1274,#1275,#1276,#1277,#1278,#1279,#1280,#1281));
#1283=DERIVED_UNIT_ELEMENT(#1285,1.);
#1284=DERIVED_UNIT_ELEMENT(#2076,-3.);
#1285=(
MASS_UNIT()
NAMED_UNIT(*)
SI_UNIT(.KILO.,.GRAM.)
);
#1286=DERIVED_UNIT((#1283,#1284));
#1287=MEASURE_REPRESENTATION_ITEM('density measure',
POSITIVE_RATIO_MEASURE(1750.),#1286);
#1288=PROPERTY_DEFINITION_REPRESENTATION(#1293,#1290);
#1289=PROPERTY_DEFINITION_REPRESENTATION(#1294,#1291);
#1290=REPRESENTATION('material name',(#1292),#2073);
#1291=REPRESENTATION('density',(#1287),#2073);
#1292=DESCRIPTIVE_REPRESENTATION_ITEM('GFRP','GFRP');
#1293=PROPERTY_DEFINITION('material property','material name',#2083);
#1294=PROPERTY_DEFINITION('material property','density of part',#2083);
#1295=AXIS2_PLACEMENT_3D('',#1708,#1379,#1380);
#1296=AXIS2_PLACEMENT_3D('',#1709,#1381,#1382);
#1297=AXIS2_PLACEMENT_3D('',#1734,#1395,#1396);
#1298=AXIS2_PLACEMENT_3D('',#1759,#1409,#1410);
#1299=AXIS2_PLACEMENT_3D('',#1784,#1423,#1424);
#1300=AXIS2_PLACEMENT_3D('',#1796,#1430,#1431);
#1301=AXIS2_PLACEMENT_3D('',#1797,#1432,#1433);
#1302=AXIS2_PLACEMENT_3D('',#1800,#1434,#1435);
#1303=AXIS2_PLACEMENT_3D('',#1804,#1437,#1438);
#1304=AXIS2_PLACEMENT_3D('',#1806,#1440,#1441);
#1305=AXIS2_PLACEMENT_3D('',#1809,#1442,#1443);
#1306=AXIS2_PLACEMENT_3D('',#1813,#1445,#1446);
#1307=AXIS2_PLACEMENT_3D('',#1815,#1448,#1449);
#1308=AXIS2_PLACEMENT_3D('',#1821,#1453,#1454);
#1309=AXIS2_PLACEMENT_3D('',#1827,#1458,#1459);
#1310=AXIS2_PLACEMENT_3D('',#1830,#1460,#1461);
#1311=AXIS2_PLACEMENT_3D('',#1834,#1463,#1464);
#1312=AXIS2_PLACEMENT_3D('',#1836,#1466,#1467);
#1313=AXIS2_PLACEMENT_3D('',#1842,#1471,#1472);
#1314=AXIS2_PLACEMENT_3D('',#1846,#1475,#1476);
#1315=AXIS2_PLACEMENT_3D('',#1850,#1479,#1480);
#1316=AXIS2_PLACEMENT_3D('',#1854,#1483,#1484);
#1317=AXIS2_PLACEMENT_3D('',#1858,#1487,#1488);
#1318=AXIS2_PLACEMENT_3D('',#1862,#1491,#1492);
#1319=AXIS2_PLACEMENT_3D('',#1868,#1496,#1497);
#1320=AXIS2_PLACEMENT_3D('',#1872,#1500,#1501);
#1321=AXIS2_PLACEMENT_3D('',#1876,#1504,#1505);
#1322=AXIS2_PLACEMENT_3D('',#1880,#1508,#1509);
#1323=AXIS2_PLACEMENT_3D('',#1884,#1512,#1513);
#1324=AXIS2_PLACEMENT_3D('',#1888,#1516,#1517);
#1325=AXIS2_PLACEMENT_3D('',#1894,#1521,#1522);
#1326=AXIS2_PLACEMENT_3D('',#1898,#1525,#1526);
#1327=AXIS2_PLACEMENT_3D('',#1902,#1529,#1530);
#1328=AXIS2_PLACEMENT_3D('',#1906,#1533,#1534);
#1329=AXIS2_PLACEMENT_3D('',#1910,#1537,#1538);
#1330=AXIS2_PLACEMENT_3D('',#1914,#1541,#1542);
#1331=AXIS2_PLACEMENT_3D('',#1920,#1546,#1547);
#1332=AXIS2_PLACEMENT_3D('',#1926,#1551,#1552);
#1333=AXIS2_PLACEMENT_3D('',#1928,#1553,#1554);
#1334=AXIS2_PLACEMENT_3D('',#1932,#1557,#1558);
#1335=AXIS2_PLACEMENT_3D('',#1935,#1560,#1561);
#1336=AXIS2_PLACEMENT_3D('',#1939,#1563,#1564);
#1337=AXIS2_PLACEMENT_3D('',#1942,#1566,#1567);
#1338=AXIS2_PLACEMENT_3D('',#1944,#1569,#1570);
#1339=AXIS2_PLACEMENT_3D('',#1946,#1572,#1573);
#1340=AXIS2_PLACEMENT_3D('',#1950,#1576,#1577);
#1341=AXIS2_PLACEMENT_3D('',#1954,#1580,#1581);
#1342=AXIS2_PLACEMENT_3D('',#1958,#1584,#1585);
#1343=AXIS2_PLACEMENT_3D('',#1962,#1588,#1589);
#1344=AXIS2_PLACEMENT_3D('',#1966,#1592,#1593);
#1345=AXIS2_PLACEMENT_3D('',#1970,#1596,#1597);
#1346=AXIS2_PLACEMENT_3D('',#1972,#1599,#1600);
#1347=AXIS2_PLACEMENT_3D('',#1974,#1601,#1602);
#1348=AXIS2_PLACEMENT_3D('',#1976,#1604,#1605);
#1349=AXIS2_PLACEMENT_3D('',#1978,#1607,#1608);
#1350=AXIS2_PLACEMENT_3D('',#1979,#1609,#1610);
#1351=AXIS2_PLACEMENT_3D('',#1983,#1613,#1614);
#1352=AXIS2_PLACEMENT_3D('',#1987,#1617,#1618);
#1353=AXIS2_PLACEMENT_3D('',#1991,#1621,#1622);
#1354=AXIS2_PLACEMENT_3D('',#1995,#1625,#1626);
#1355=AXIS2_PLACEMENT_3D('',#1999,#1629,#1630);
#1356=AXIS2_PLACEMENT_3D('',#2001,#1632,#1633);
#1357=AXIS2_PLACEMENT_3D('',#2004,#1635,#1636);
#1358=AXIS2_PLACEMENT_3D('',#2005,#1637,#1638);
#1359=AXIS2_PLACEMENT_3D('',#2009,#1641,#1642);
#1360=AXIS2_PLACEMENT_3D('',#2010,#1643,#1644);
#1361=AXIS2_PLACEMENT_3D('',#2011,#1645,#1646);
#1362=AXIS2_PLACEMENT_3D('',#2012,#1647,#1648);
#1363=AXIS2_PLACEMENT_3D('',#2016,#1651,#1652);
#1364=AXIS2_PLACEMENT_3D('',#2020,#1655,#1656);
#1365=AXIS2_PLACEMENT_3D('',#2024,#1659,#1660);
#1366=AXIS2_PLACEMENT_3D('',#2028,#1663,#1664);
#1367=AXIS2_PLACEMENT_3D('',#2032,#1667,#1668);
#1368=AXIS2_PLACEMENT_3D('',#2034,#1670,#1671);
#1369=AXIS2_PLACEMENT_3D('',#2038,#1673,#1674);
#1370=AXIS2_PLACEMENT_3D('',#2040,#1676,#1677);
#1371=AXIS2_PLACEMENT_3D('',#2042,#1679,#1680);
#1372=AXIS2_PLACEMENT_3D('',#2044,#1682,#1683);
#1373=AXIS2_PLACEMENT_3D('',#2045,#1684,#1685);
#1374=AXIS2_PLACEMENT_3D('',#2054,#1690,#1691);
#1375=AXIS2_PLACEMENT_3D('',#2063,#1696,#1697);
#1376=AXIS2_PLACEMENT_3D('',#2066,#1700,#1701);
#1377=AXIS2_PLACEMENT_3D('',#2068,#1703,#1704);
#1378=AXIS2_PLACEMENT_3D('',#2070,#1706,#1707);
#1379=DIRECTION('axis',(0.,0.,1.));
#1380=DIRECTION('refdir',(1.,0.,0.));
#1381=DIRECTION('center_axis',(0.,1.,0.));
#1382=DIRECTION('ref_axis',(0.,0.,1.));
#1383=DIRECTION('',(1.,0.,0.));
#1384=DIRECTION('',(0.,0.,1.));
#1385=DIRECTION('',(1.,0.,0.));
#1386=DIRECTION('',(0.,0.,-1.));
#1387=DIRECTION('',(1.,0.,0.));
#1388=DIRECTION('',(0.,0.,-1.));
#1389=DIRECTION('',(-1.,0.,0.));
#1390=DIRECTION('',(0.,0.,-1.));
#1391=DIRECTION('',(-1.,0.,0.));
#1392=DIRECTION('',(0.,0.,1.));
#1393=DIRECTION('',(-1.,0.,0.));
#1394=DIRECTION('',(0.,0.,1.));
#1395=DIRECTION('center_axis',(0.,1.,0.));
#1396=DIRECTION('ref_axis',(0.,0.,1.));
#1397=DIRECTION('',(1.,0.,0.));
#1398=DIRECTION('',(0.,0.,-1.));
#1399=DIRECTION('',(1.,0.,0.));
#1400=DIRECTION('',(0.,0.,-1.));
#1401=DIRECTION('',(-1.,0.,0.));
#1402=DIRECTION('',(0.,0.,-1.));
#1403=DIRECTION('',(-1.,0.,0.));
#1404=DIRECTION('',(0.,0.,1.));
#1405=DIRECTION('',(-1.,0.,0.));
#1406=DIRECTION('',(0.,0.,1.));
#1407=DIRECTION('',(1.,0.,0.));
#1408=DIRECTION('',(0.,0.,1.));
#1409=DIRECTION('center_axis',(0.,1.,0.));
#1410=DIRECTION('ref_axis',(0.,0.,1.));
#1411=DIRECTION('',(1.,0.,0.));
#1412=DIRECTION('',(0.,0.,-1.));
#1413=DIRECTION('',(1.,0.,0.));
#1414=DIRECTION('',(0.,0.,-1.));
#1415=DIRECTION('',(-1.,0.,0.));
#1416=DIRECTION('',(0.,0.,-1.));
#1417=DIRECTION('',(-1.,0.,0.));
#1418=DIRECTION('',(0.,0.,1.));
#1419=DIRECTION('',(-1.,0.,0.));
#1420=DIRECTION('',(0.,0.,1.));
#1421=DIRECTION('',(1.,0.,0.));
#1422=DIRECTION('',(0.,0.,1.));
#1423=DIRECTION('center_axis',(-0.951808243820811,-0.306693767453373,0.));
#1424=DIRECTION('ref_axis',(0.,0.,1.));
#1425=DIRECTION('',(0.,0.,-1.));
#1426=DIRECTION('',(0.293213639514017,-0.909973364009018,0.293213639514017));
#1427=DIRECTION('',(0.,0.,-1.));
#1428=DIRECTION('',(0.293213639514017,-0.909973364009018,-0.293213639514017));
#1429=DIRECTION('',(0.,0.,-1.));
#1430=DIRECTION('center_axis',(-0.951808243820811,-0.306693767453373,0.));
#1431=DIRECTION('ref_axis',(0.306693767453373,-0.951808243820811,0.));
#1432=DIRECTION('center_axis',(0.,1.,0.));
#1433=DIRECTION('ref_axis',(1.,0.,0.));
#1434=DIRECTION('center_axis',(0.,1.,0.));
#1435=DIRECTION('ref_axis',(1.,0.,0.));
#1436=DIRECTION('',(0.,1.,0.));
#1437=DIRECTION('center_axis',(0.,1.,0.));
#1438=DIRECTION('ref_axis',(1.,0.,0.));
#1439=DIRECTION('',(0.,1.,0.));
#1440=DIRECTION('center_axis',(0.,1.,0.));
#1441=DIRECTION('ref_axis',(1.,0.,0.));
#1442=DIRECTION('center_axis',(0.,1.,0.));
#1443=DIRECTION('ref_axis',(1.,0.,0.));
#1444=DIRECTION('',(0.,1.,0.));
#1445=DIRECTION('center_axis',(0.,1.,0.));
#1446=DIRECTION('ref_axis',(1.,0.,0.));
#1447=DIRECTION('',(0.,1.,0.));
#1448=DIRECTION('center_axis',(0.,-0.306693767453373,-0.951808243820811));
#1449=DIRECTION('ref_axis',(-1.,0.,0.));
#1450=DIRECTION('',(1.,0.,0.));
#1451=DIRECTION('',(-0.293213639514016,-0.909973364009018,0.293213639514017));
#1452=DIRECTION('',(1.,0.,0.));
#1453=DIRECTION('center_axis',(0.951808243820811,-0.306693767453372,0.));
#1454=DIRECTION('ref_axis',(0.,0.,-1.));
#1455=DIRECTION('',(0.,0.,1.));
#1456=DIRECTION('',(-0.293213639514016,-0.909973364009018,-0.293213639514017));
#1457=DIRECTION('',(0.,0.,1.));
#1458=DIRECTION('center_axis',(0.,1.,0.));
#1459=DIRECTION('ref_axis',(1.,0.,0.));
#1460=DIRECTION('center_axis',(0.,1.,0.));
#1461=DIRECTION('ref_axis',(1.,0.,0.));
#1462=DIRECTION('',(0.,1.,0.));
#1463=DIRECTION('center_axis',(0.,1.,0.));
#1464=DIRECTION('ref_axis',(1.,0.,0.));
#1465=DIRECTION('',(0.,1.,0.));
#1466=DIRECTION('center_axis',(0.,0.,-1.));
#1467=DIRECTION('ref_axis',(-1.,0.,0.));
#1468=DIRECTION('',(0.,1.,0.));
#1469=DIRECTION('',(-1.,0.,0.));
#1470=DIRECTION('',(0.,1.,0.));
#1471=DIRECTION('center_axis',(1.,0.,0.));
#1472=DIRECTION('ref_axis',(0.,0.,-1.));
#1473=DIRECTION('',(0.,1.,0.));
#1474=DIRECTION('',(0.,0.,-1.));
#1475=DIRECTION('center_axis',(0.,0.,-1.));
#1476=DIRECTION('ref_axis',(-1.,0.,0.));
#1477=DIRECTION('',(0.,1.,0.));
#1478=DIRECTION('',(-1.,0.,0.));
#1479=DIRECTION('center_axis',(1.,0.,0.));
#1480=DIRECTION('ref_axis',(0.,0.,-1.));
#1481=DIRECTION('',(0.,1.,0.));
#1482=DIRECTION('',(0.,0.,-1.));
#1483=DIRECTION('center_axis',(0.,0.,1.));
#1484=DIRECTION('ref_axis',(1.,0.,0.));
#1485=DIRECTION('',(0.,1.,0.));
#1486=DIRECTION('',(1.,0.,0.));
#1487=DIRECTION('center_axis',(1.,0.,0.));
#1488=DIRECTION('ref_axis',(0.,0.,-1.));
#1489=DIRECTION('',(0.,1.,0.));
#1490=DIRECTION('',(0.,0.,-1.));
#1491=DIRECTION('center_axis',(0.,0.,-1.));
#1492=DIRECTION('ref_axis',(-1.,0.,0.));
#1493=DIRECTION('',(0.,1.,0.));
#1494=DIRECTION('',(-1.,0.,0.));
#1495=DIRECTION('',(0.,1.,0.));
#1496=DIRECTION('center_axis',(1.,0.,0.));
#1497=DIRECTION('ref_axis',(0.,0.,-1.));
#1498=DIRECTION('',(0.,1.,0.));
#1499=DIRECTION('',(0.,0.,-1.));
#1500=DIRECTION('center_axis',(0.,0.,-1.));
#1501=DIRECTION('ref_axis',(-1.,0.,0.));
#1502=DIRECTION('',(0.,1.,0.));
#1503=DIRECTION('',(-1.,0.,0.));
#1504=DIRECTION('center_axis',(1.,0.,0.));
#1505=DIRECTION('ref_axis',(0.,0.,-1.));
#1506=DIRECTION('',(0.,1.,0.));
#1507=DIRECTION('',(0.,0.,-1.));
#1508=DIRECTION('center_axis',(0.,0.,1.));
#1509=DIRECTION('ref_axis',(1.,0.,0.));
#1510=DIRECTION('',(0.,1.,0.));
#1511=DIRECTION('',(1.,0.,0.));
#1512=DIRECTION('center_axis',(1.,0.,0.));
#1513=DIRECTION('ref_axis',(0.,0.,-1.));
#1514=DIRECTION('',(0.,1.,0.));
#1515=DIRECTION('',(0.,0.,-1.));
#1516=DIRECTION('center_axis',(0.,0.,-1.));
#1517=DIRECTION('ref_axis',(-1.,0.,0.));
#1518=DIRECTION('',(0.,1.,0.));
#1519=DIRECTION('',(-1.,0.,0.));
#1520=DIRECTION('',(0.,1.,0.));
#1521=DIRECTION('center_axis',(1.,0.,0.));
#1522=DIRECTION('ref_axis',(0.,0.,-1.));
#1523=DIRECTION('',(0.,1.,0.));
#1524=DIRECTION('',(0.,0.,-1.));
#1525=DIRECTION('center_axis',(0.,0.,1.));
#1526=DIRECTION('ref_axis',(1.,0.,0.));
#1527=DIRECTION('',(0.,1.,0.));
#1528=DIRECTION('',(1.,0.,0.));
#1529=DIRECTION('center_axis',(1.,0.,0.));
#1530=DIRECTION('ref_axis',(0.,0.,-1.));
#1531=DIRECTION('',(0.,1.,0.));
#1532=DIRECTION('',(0.,0.,-1.));
#1533=DIRECTION('center_axis',(0.,0.,1.));
#1534=DIRECTION('ref_axis',(1.,0.,0.));
#1535=DIRECTION('',(0.,1.,0.));
#1536=DIRECTION('',(1.,0.,0.));
#1537=DIRECTION('center_axis',(-1.,0.,0.));
#1538=DIRECTION('ref_axis',(0.,0.,1.));
#1539=DIRECTION('',(0.,1.,0.));
#1540=DIRECTION('',(0.,0.,1.));
#1541=DIRECTION('center_axis',(-1.,0.,0.));
#1542=DIRECTION('ref_axis',(0.,0.,1.));
#1543=DIRECTION('',(0.,0.,1.));
#1544=DIRECTION('',(0.,0.,1.));
#1545=DIRECTION('',(0.,1.,0.));
#1546=DIRECTION('center_axis',(1.,0.,0.));
#1547=DIRECTION('ref_axis',(0.,0.,-1.));
#1548=DIRECTION('',(0.,0.,-1.));
#1549=DIRECTION('',(0.,1.,0.));
#1550=DIRECTION('',(0.,0.,-1.));
#1551=DIRECTION('center_axis',(0.,1.,0.));
#1552=DIRECTION('ref_axis',(0.,0.,1.));
#1553=DIRECTION('center_axis',(0.,1.,0.));
#1554=DIRECTION('ref_axis',(1.,0.,0.));
#1555=DIRECTION('',(-1.,0.,0.));
#1556=DIRECTION('',(0.,0.,-1.));
#1557=DIRECTION('center_axis',(0.,1.,0.));
#1558=DIRECTION('ref_axis',(1.,0.,0.));
#1559=DIRECTION('',(-1.,0.,0.));
#1560=DIRECTION('center_axis',(0.,1.,0.));
#1561=DIRECTION('ref_axis',(1.,0.,0.));
#1562=DIRECTION('',(-1.,0.,0.));
#1563=DIRECTION('center_axis',(0.,1.,0.));
#1564=DIRECTION('ref_axis',(1.,0.,0.));
#1565=DIRECTION('',(-1.,0.,0.));
#1566=DIRECTION('center_axis',(0.,1.,0.));
#1567=DIRECTION('ref_axis',(1.,0.,0.));
#1568=DIRECTION('',(0.,0.,1.));
#1569=DIRECTION('center_axis',(0.,-0.306693767453373,0.951808243820811));
#1570=DIRECTION('ref_axis',(1.,0.,0.));
#1571=DIRECTION('',(-1.,0.,0.));
#1572=DIRECTION('center_axis',(-1.,0.,0.));
#1573=DIRECTION('ref_axis',(0.,0.,1.));
#1574=DIRECTION('',(0.,0.,1.));
#1575=DIRECTION('',(0.,1.,0.));
#1576=DIRECTION('center_axis',(0.,0.,1.));
#1577=DIRECTION('ref_axis',(1.,0.,0.));
#1578=DIRECTION('',(0.,1.,0.));
#1579=DIRECTION('',(1.,0.,0.));
#1580=DIRECTION('center_axis',(-1.,0.,0.));
#1581=DIRECTION('ref_axis',(0.,0.,1.));
#1582=DIRECTION('',(0.,1.,0.));
#1583=DIRECTION('',(0.,0.,1.));
#1584=DIRECTION('center_axis',(0.,0.,1.));
#1585=DIRECTION('ref_axis',(1.,0.,0.));
#1586=DIRECTION('',(0.,1.,0.));
#1587=DIRECTION('',(1.,0.,0.));
#1588=DIRECTION('center_axis',(-1.,0.,0.));
#1589=DIRECTION('ref_axis',(0.,0.,1.));
#1590=DIRECTION('',(0.,1.,0.));
#1591=DIRECTION('',(0.,0.,1.));
#1592=DIRECTION('center_axis',(0.,0.,-1.));
#1593=DIRECTION('ref_axis',(-1.,0.,0.));
#1594=DIRECTION('',(0.,1.,0.));
#1595=DIRECTION('',(-1.,0.,0.));
#1596=DIRECTION('center_axis',(-1.,0.,0.));
#1597=DIRECTION('ref_axis',(0.,0.,1.));
#1598=DIRECTION('',(0.,0.,1.));
#1599=DIRECTION('center_axis',(0.,1.,0.));
#1600=DIRECTION('ref_axis',(1.,0.,0.));
#1601=DIRECTION('center_axis',(0.,1.,0.));
#1602=DIRECTION('ref_axis',(1.,0.,0.));
#1603=DIRECTION('',(0.,1.,0.));
#1604=DIRECTION('center_axis',(0.,0.,-1.));
#1605=DIRECTION('ref_axis',(-1.,0.,0.));
#1606=DIRECTION('',(-1.,0.,0.));
#1607=DIRECTION('center_axis',(0.,1.,0.));
#1608=DIRECTION('ref_axis',(1.,0.,0.));
#1609=DIRECTION('center_axis',(0.,0.,1.));
#1610=DIRECTION('ref_axis',(1.,0.,0.));
#1611=DIRECTION('',(0.,1.,0.));
#1612=DIRECTION('',(1.,0.,0.));
#1613=DIRECTION('center_axis',(-1.,0.,0.));
#1614=DIRECTION('ref_axis',(0.,0.,1.));
#1615=DIRECTION('',(0.,1.,0.));
#1616=DIRECTION('',(0.,0.,1.));
#1617=DIRECTION('center_axis',(0.,0.,1.));
#1618=DIRECTION('ref_axis',(1.,0.,0.));
#1619=DIRECTION('',(0.,1.,0.));
#1620=DIRECTION('',(1.,0.,0.));
#1621=DIRECTION('center_axis',(-1.,0.,0.));
#1622=DIRECTION('ref_axis',(0.,0.,1.));
#1623=DIRECTION('',(0.,1.,0.));
#1624=DIRECTION('',(0.,0.,1.));
#1625=DIRECTION('center_axis',(0.,0.,-1.));
#1626=DIRECTION('ref_axis',(-1.,0.,0.));
#1627=DIRECTION('',(0.,1.,0.));
#1628=DIRECTION('',(-1.,0.,0.));
#1629=DIRECTION('center_axis',(-1.,0.,0.));
#1630=DIRECTION('ref_axis',(0.,0.,1.));
#1631=DIRECTION('',(0.,0.,1.));
#1632=DIRECTION('center_axis',(0.,1.,0.));
#1633=DIRECTION('ref_axis',(1.,0.,0.));
#1634=DIRECTION('',(0.,1.,0.));
#1635=DIRECTION('center_axis',(0.,1.,0.));
#1636=DIRECTION('ref_axis',(1.,0.,0.));
#1637=DIRECTION('center_axis',(0.,0.,-1.));
#1638=DIRECTION('ref_axis',(-1.,0.,0.));
#1639=DIRECTION('',(0.,1.,0.));
#1640=DIRECTION('',(-1.,0.,0.));
#1641=DIRECTION('center_axis',(0.,1.,0.));
#1642=DIRECTION('ref_axis',(1.,0.,0.));
#1643=DIRECTION('center_axis',(0.,1.,0.));
#1644=DIRECTION('ref_axis',(1.,0.,0.));
#1645=DIRECTION('center_axis',(0.,1.,0.));
#1646=DIRECTION('ref_axis',(1.,0.,0.));
#1647=DIRECTION('center_axis',(0.,0.,1.));
#1648=DIRECTION('ref_axis',(1.,0.,0.));
#1649=DIRECTION('',(0.,1.,0.));
#1650=DIRECTION('',(1.,0.,0.));
#1651=DIRECTION('center_axis',(-1.,0.,0.));
#1652=DIRECTION('ref_axis',(0.,0.,1.));
#1653=DIRECTION('',(0.,1.,0.));
#1654=DIRECTION('',(0.,0.,1.));
#1655=DIRECTION('center_axis',(0.,0.,-1.));
#1656=DIRECTION('ref_axis',(-1.,0.,0.));
#1657=DIRECTION('',(0.,1.,0.));
#1658=DIRECTION('',(-1.,0.,0.));
#1659=DIRECTION('center_axis',(-1.,0.,0.));
#1660=DIRECTION('ref_axis',(0.,0.,1.));
#1661=DIRECTION('',(0.,1.,0.));
#1662=DIRECTION('',(0.,0.,1.));
#1663=DIRECTION('center_axis',(0.,0.,-1.));
#1664=DIRECTION('ref_axis',(-1.,0.,0.));
#1665=DIRECTION('',(0.,1.,0.));
#1666=DIRECTION('',(-1.,0.,0.));
#1667=DIRECTION('center_axis',(1.,0.,0.));
#1668=DIRECTION('ref_axis',(0.,0.,-1.));
#1669=DIRECTION('',(0.,0.,-1.));
#1670=DIRECTION('center_axis',(0.,1.,0.));
#1671=DIRECTION('ref_axis',(-0.707106781186548,0.,0.707106781186547));
#1672=DIRECTION('',(0.,1.,0.));
#1673=DIRECTION('center_axis',(0.,1.,0.));
#1674=DIRECTION('ref_axis',(1.,0.,0.));
#1675=DIRECTION('',(0.,1.,0.));
#1676=DIRECTION('center_axis',(0.,0.,-1.));
#1677=DIRECTION('ref_axis',(-1.,0.,0.));
#1678=DIRECTION('',(-1.,0.,0.));
#1679=DIRECTION('center_axis',(1.,0.,0.));
#1680=DIRECTION('ref_axis',(0.,0.,-1.));
#1681=DIRECTION('',(0.,0.,-1.));
#1682=DIRECTION('center_axis',(0.,1.,0.));
#1683=DIRECTION('ref_axis',(1.,0.,0.));
#1684=DIRECTION('center_axis',(0.,1.,0.));
#1685=DIRECTION('ref_axis',(0.,0.,1.));
#1686=DIRECTION('',(-1.,0.,0.));
#1687=DIRECTION('',(0.,0.,1.));
#1688=DIRECTION('',(1.,0.,0.));
#1689=DIRECTION('',(0.,0.,-1.));
#1690=DIRECTION('center_axis',(-1.89718472133668E-31,1.,5.2251671722667E-32));
#1691=DIRECTION('ref_axis',(0.,-5.2251671722667E-32,1.));
#1692=DIRECTION('',(-1.,0.,0.));
#1693=DIRECTION('',(0.,0.,-1.));
#1694=DIRECTION('',(1.,0.,0.));
#1695=DIRECTION('',(0.,0.,1.));
#1696=DIRECTION('center_axis',(2.77619949870538E-17,-0.257662650560332,
-0.966234939601246));
#1697=DIRECTION('ref_axis',(-1.,0.,-2.87321373397146E-17));
#1698=DIRECTION('',(-0.249513144620722,0.935674292327708,-0.249513144620722));
#1699=DIRECTION('',(0.249513144620721,0.935674292327708,-0.249513144620722));
#1700=DIRECTION('center_axis',(-0.966234939601246,-0.257662650560332,0.));
#1701=DIRECTION('ref_axis',(0.,0.,1.));
#1702=DIRECTION('',(-0.249513144620722,0.935674292327708,0.249513144620722));
#1703=DIRECTION('center_axis',(2.77619949870538E-17,-0.257662650560332,
0.966234939601246));
#1704=DIRECTION('ref_axis',(1.,0.,-2.87321373397146E-17));
#1705=DIRECTION('',(0.249513144620721,0.935674292327708,0.249513144620722));
#1706=DIRECTION('center_axis',(0.966234939601247,-0.257662650560331,-2.91113060754927E-17));
#1707=DIRECTION('ref_axis',(-3.01286000768163E-17,0.,-1.));
#1708=CARTESIAN_POINT('',(0.,0.,0.));
#1709=CARTESIAN_POINT('Origin',(9.5,-6.,0.));
#1710=CARTESIAN_POINT('',(-1.62416381321187,-6.,-0.75));
#1711=CARTESIAN_POINT('',(-0.374163813211865,-6.,-0.75));
#1712=CARTESIAN_POINT('',(3.93791809339407,-6.,-0.75));
#1713=CARTESIAN_POINT('',(-1.62416381321187,-6.,-2.));
#1714=CARTESIAN_POINT('',(-1.62416381321187,-6.,-1.));
#1715=CARTESIAN_POINT('',(-3.12416381321187,-6.,-2.));
#1716=CARTESIAN_POINT('',(3.18791809339407,-6.,-2.));
#1717=CARTESIAN_POINT('',(-3.12416381321187,-6.,-0.75));
#1718=CARTESIAN_POINT('',(-3.12416381321187,-6.,-0.375));
#1719=CARTESIAN_POINT('',(-4.37416381321187,-6.,-0.75));
#1720=CARTESIAN_POINT('',(2.56291809339407,-6.,-0.75));
#1721=CARTESIAN_POINT('',(-4.37416381321187,-6.,0.75));
#1722=CARTESIAN_POINT('',(-4.37416381321187,-6.,0.375));
#1723=CARTESIAN_POINT('',(-3.12416381321187,-6.,0.75));
#1724=CARTESIAN_POINT('',(3.18791809339407,-6.,0.75));
#1725=CARTESIAN_POINT('',(-3.12416381321187,-6.,2.));
#1726=CARTESIAN_POINT('',(-3.12416381321187,-6.,1.));
#1727=CARTESIAN_POINT('',(-1.62416381321187,-6.,2.));
#1728=CARTESIAN_POINT('',(3.93791809339407,-6.,2.));
#1729=CARTESIAN_POINT('',(-1.62416381321187,-6.,0.75));
#1730=CARTESIAN_POINT('',(-1.62416381321187,-6.,0.375));
#1731=CARTESIAN_POINT('',(-0.374163813211865,-6.,0.75));
#1732=CARTESIAN_POINT('',(4.56291809339407,-6.,0.75));
#1733=CARTESIAN_POINT('',(-0.374163813211865,-6.,-0.375));
#1734=CARTESIAN_POINT('Origin',(9.5,-6.,0.));
#1735=CARTESIAN_POINT('',(8.76564943120185,-6.,-2.));
#1736=CARTESIAN_POINT('',(10.2656494312018,-6.,-2.));
#1737=CARTESIAN_POINT('',(9.13282471560093,-6.,-2.));
#1738=CARTESIAN_POINT('',(8.76564943120185,-6.,-0.749999999999998));
#1739=CARTESIAN_POINT('',(8.76564943120185,-6.,-0.374999999999999));
#1740=CARTESIAN_POINT('',(7.51564943120185,-6.,-0.749999999999998));
#1741=CARTESIAN_POINT('',(8.50782471560093,-6.,-0.749999999999998));
#1742=CARTESIAN_POINT('',(7.51564943120185,-6.,0.750000000000002));
#1743=CARTESIAN_POINT('',(7.51564943120185,-6.,0.375000000000001));
#1744=CARTESIAN_POINT('',(8.76564943120185,-6.,0.750000000000002));
#1745=CARTESIAN_POINT('',(9.13282471560093,-6.,0.750000000000002));
#1746=CARTESIAN_POINT('',(8.76564943120185,-6.,2.));
#1747=CARTESIAN_POINT('',(8.76564943120185,-6.,1.));
#1748=CARTESIAN_POINT('',(10.2656494312018,-6.,2.));
#1749=CARTESIAN_POINT('',(9.88282471560092,-6.,2.));
#1750=CARTESIAN_POINT('',(10.2656494312018,-6.,0.750000000000002));
#1751=CARTESIAN_POINT('',(10.2656494312018,-6.,0.375000000000001));
#1752=CARTESIAN_POINT('',(11.5156494312018,-6.,0.750000000000002));
#1753=CARTESIAN_POINT('',(10.5078247156009,-6.,0.750000000000002));
#1754=CARTESIAN_POINT('',(11.5156494312018,-6.,-0.749999999999998));
#1755=CARTESIAN_POINT('',(11.5156494312018,-6.,-0.374999999999999));
#1756=CARTESIAN_POINT('',(10.2656494312018,-6.,-0.749999999999998));
#1757=CARTESIAN_POINT('',(9.88282471560092,-6.,-0.749999999999998));
#1758=CARTESIAN_POINT('',(10.2656494312018,-6.,-0.999999999999999));
#1759=CARTESIAN_POINT('Origin',(9.5,-6.,0.));
#1760=CARTESIAN_POINT('',(20.5245057293778,-6.,-2.));
#1761=CARTESIAN_POINT('',(22.0245057293778,-6.,-2.));
#1762=CARTESIAN_POINT('',(15.0122528646889,-6.,-2.));
#1763=CARTESIAN_POINT('',(20.5245057293778,-6.,-0.750000000000002));
#1764=CARTESIAN_POINT('',(20.5245057293778,-6.,-0.375000000000001));
#1765=CARTESIAN_POINT('',(19.2745057293778,-6.,-0.750000000000002));
#1766=CARTESIAN_POINT('',(14.3872528646889,-6.,-0.750000000000002));
#1767=CARTESIAN_POINT('',(19.2745057293778,-6.,0.749999999999998));
#1768=CARTESIAN_POINT('',(19.2745057293778,-6.,0.374999999999999));
#1769=CARTESIAN_POINT('',(20.5245057293778,-6.,0.749999999999998));
#1770=CARTESIAN_POINT('',(15.0122528646889,-6.,0.749999999999998));
#1771=CARTESIAN_POINT('',(20.5245057293778,-6.,2.));
#1772=CARTESIAN_POINT('',(20.5245057293778,-6.,0.999999999999999));
#1773=CARTESIAN_POINT('',(22.0245057293778,-6.,2.));
#1774=CARTESIAN_POINT('',(15.7622528646889,-6.,2.));
#1775=CARTESIAN_POINT('',(22.0245057293778,-6.,0.749999999999998));
#1776=CARTESIAN_POINT('',(22.0245057293778,-6.,0.374999999999999));
#1777=CARTESIAN_POINT('',(23.2745057293778,-6.,0.749999999999998));
#1778=CARTESIAN_POINT('',(16.3872528646889,-6.,0.749999999999998));
#1779=CARTESIAN_POINT('',(23.2745057293778,-6.,-0.750000000000002));
#1780=CARTESIAN_POINT('',(23.2745057293778,-6.,-0.375000000000001));
#1781=CARTESIAN_POINT('',(22.0245057293778,-6.,-0.750000000000002));
#1782=CARTESIAN_POINT('',(15.7622528646889,-6.,-0.750000000000002));
#1783=CARTESIAN_POINT('',(22.0245057293778,-6.,-1.));
#1784=CARTESIAN_POINT('Origin',(-6.9,0.,6.9));
#1785=CARTESIAN_POINT('',(-4.96666666666667,-6.,-0.197304218983533));
#1786=CARTESIAN_POINT('',(-4.96666666666667,-6.,-4.96666666666667));
#1787=CARTESIAN_POINT('',(-4.96666666666667,-6.,3.45));
#1788=CARTESIAN_POINT('',(-6.9,0.,-6.9));
#1789=CARTESIAN_POINT('',(-6.9,0.,-6.9));
#1790=CARTESIAN_POINT('',(-6.9,0.,6.9));
#1791=CARTESIAN_POINT('',(-6.9,2.77555756156289E-16,3.45));
#1792=CARTESIAN_POINT('',(-4.96666666666667,-6.,4.96666666666667));
#1793=CARTESIAN_POINT('',(-6.9,0.,6.9));
#1794=CARTESIAN_POINT('',(-4.96666666666667,-6.,0.197304218983533));
#1795=CARTESIAN_POINT('',(-4.96666666666667,-6.,3.45));
#1796=CARTESIAN_POINT('Origin',(-2.37416381321187,-14.0456985107218,0.));
#1797=CARTESIAN_POINT('Origin',(-2.37416381321187,-9.,0.));
#1798=CARTESIAN_POINT('',(0.177306351222749,-6.,-0.5));
#1799=CARTESIAN_POINT('',(-1.87416381321187,-6.,-2.55147016443461));
#1800=CARTESIAN_POINT('Origin',(-2.37416381321187,-6.,0.));
#1801=CARTESIAN_POINT('',(-1.87416381321187,-1.,-2.55147016443461));
#1802=CARTESIAN_POINT('',(-1.87416381321187,-9.,-2.55147016443461));
#1803=CARTESIAN_POINT('',(0.177306351222749,-1.,-0.5));
#1804=CARTESIAN_POINT('Origin',(-2.37416381321187,-1.,0.));
#1805=CARTESIAN_POINT('',(0.177306351222749,-9.,-0.5));
#1806=CARTESIAN_POINT('Origin',(9.51564943120185,-9.,2.22044604925031E-15));
#1807=CARTESIAN_POINT('',(6.96417926676724,-6.,0.500000000000002));
#1808=CARTESIAN_POINT('',(12.0671195956365,-6.,0.499999999999998));
#1809=CARTESIAN_POINT('Origin',(9.51564943120185,-6.,2.22044604925031E-15));
#1810=CARTESIAN_POINT('',(12.0671195956365,-1.,0.499999999999998));
#1811=CARTESIAN_POINT('',(12.0671195956365,-9.,0.499999999999998));
#1812=CARTESIAN_POINT('',(6.96417926676724,-1.,0.500000000000002));
#1813=CARTESIAN_POINT('Origin',(9.51564943120185,-1.,2.22044604925031E-15));
#1814=CARTESIAN_POINT('',(6.96417926676724,-9.,0.500000000000002));
#1815=CARTESIAN_POINT('Origin',(-6.9,0.,-6.9));
#1816=CARTESIAN_POINT('',(23.9666666666667,-6.,-4.96666666666667));
#1817=CARTESIAN_POINT('',(1.3,-6.,-4.96666666666667));
#1818=CARTESIAN_POINT('',(25.9,0.,-6.9));
#1819=CARTESIAN_POINT('',(25.9,0.,-6.9));
#1820=CARTESIAN_POINT('',(1.3,0.,-6.9));
#1821=CARTESIAN_POINT('Origin',(25.9,0.,-6.9));
#1822=CARTESIAN_POINT('',(23.9666666666667,-6.,4.96666666666667));
#1823=CARTESIAN_POINT('',(23.9666666666667,-6.,-3.45));
#1824=CARTESIAN_POINT('',(25.9,0.,6.9));
#1825=CARTESIAN_POINT('',(25.9,0.,6.9));
#1826=CARTESIAN_POINT('',(25.9,0.,-3.45));
#1827=CARTESIAN_POINT('Origin',(21.2745057293778,-9.,-2.22044604925031E-15));
#1828=CARTESIAN_POINT('',(18.7230355649432,-6.,0.499999999999998));
#1829=CARTESIAN_POINT('',(21.7745057293778,-6.,-2.55147016443462));
#1830=CARTESIAN_POINT('Origin',(21.2745057293778,-6.,-2.22044604925031E-15));
#1831=CARTESIAN_POINT('',(21.7745057293778,-1.,-2.55147016443462));
#1832=CARTESIAN_POINT('',(21.7745057293778,-9.,-2.55147016443462));
#1833=CARTESIAN_POINT('',(18.7230355649432,-1.,0.499999999999998));
#1834=CARTESIAN_POINT('Origin',(21.2745057293778,-1.,-2.22044604925031E-15));
#1835=CARTESIAN_POINT('',(18.7230355649432,-9.,0.499999999999998));
#1836=CARTESIAN_POINT('Origin',(22.0245057293778,-9.,2.));
#1837=CARTESIAN_POINT('',(20.5245057293778,-1.,2.));
#1838=CARTESIAN_POINT('',(20.5245057293778,-9.,2.));
#1839=CARTESIAN_POINT('',(22.0245057293778,-1.,2.));
#1840=CARTESIAN_POINT('',(22.0245057293778,-1.,2.));
#1841=CARTESIAN_POINT('',(22.0245057293778,-9.,2.));
#1842=CARTESIAN_POINT('Origin',(20.5245057293778,-9.,2.));
#1843=CARTESIAN_POINT('',(20.5245057293778,-1.,0.749999999999998));
#1844=CARTESIAN_POINT('',(20.5245057293778,-9.,0.749999999999998));
#1845=CARTESIAN_POINT('',(20.5245057293778,-1.,2.));
#1846=CARTESIAN_POINT('Origin',(20.5245057293778,-9.,0.749999999999998));
#1847=CARTESIAN_POINT('',(19.2745057293778,-1.,0.749999999999998));
#1848=CARTESIAN_POINT('',(19.2745057293778,-9.,0.749999999999998));
#1849=CARTESIAN_POINT('',(23.2745057293778,-1.,0.749999999999998));
#1850=CARTESIAN_POINT('Origin',(19.2745057293778,-9.,0.749999999999998));
#1851=CARTESIAN_POINT('',(19.2745057293778,-1.,-0.750000000000002));
#1852=CARTESIAN_POINT('',(19.2745057293778,-9.,-0.750000000000002));
#1853=CARTESIAN_POINT('',(19.2745057293778,-1.,0.749999999999998));
#1854=CARTESIAN_POINT('Origin',(19.2745057293778,-9.,-0.750000000000002));
#1855=CARTESIAN_POINT('',(20.5245057293778,-1.,-0.750000000000002));
#1856=CARTESIAN_POINT('',(20.5245057293778,-9.,-0.750000000000002));
#1857=CARTESIAN_POINT('',(19.2745057293778,-1.,-0.750000000000002));
#1858=CARTESIAN_POINT('Origin',(20.5245057293778,-9.,-0.750000000000002));
#1859=CARTESIAN_POINT('',(20.5245057293778,-1.,-2.));
#1860=CARTESIAN_POINT('',(20.5245057293778,-9.,-2.));
#1861=CARTESIAN_POINT('',(20.5245057293778,-1.,2.));
#1862=CARTESIAN_POINT('Origin',(10.2656494312018,-9.,2.));
#1863=CARTESIAN_POINT('',(8.76564943120185,-1.,2.));
#1864=CARTESIAN_POINT('',(8.76564943120185,-9.,2.));
#1865=CARTESIAN_POINT('',(10.2656494312018,-1.,2.));
#1866=CARTESIAN_POINT('',(10.2656494312018,-1.,2.));
#1867=CARTESIAN_POINT('',(10.2656494312018,-9.,2.));
#1868=CARTESIAN_POINT('Origin',(8.76564943120185,-9.,2.));
#1869=CARTESIAN_POINT('',(8.76564943120185,-1.,0.750000000000002));
#1870=CARTESIAN_POINT('',(8.76564943120185,-9.,0.750000000000002));
#1871=CARTESIAN_POINT('',(8.76564943120185,-1.,2.));
#1872=CARTESIAN_POINT('Origin',(8.76564943120185,-9.,0.750000000000002));
#1873=CARTESIAN_POINT('',(7.51564943120185,-1.,0.750000000000002));
#1874=CARTESIAN_POINT('',(7.51564943120185,-9.,0.750000000000002));
#1875=CARTESIAN_POINT('',(11.5156494312018,-1.,0.750000000000002));
#1876=CARTESIAN_POINT('Origin',(7.51564943120185,-9.,0.750000000000002));
#1877=CARTESIAN_POINT('',(7.51564943120185,-1.,-0.749999999999998));
#1878=CARTESIAN_POINT('',(7.51564943120185,-9.,-0.749999999999998));
#1879=CARTESIAN_POINT('',(7.51564943120185,-1.,0.750000000000002));
#1880=CARTESIAN_POINT('Origin',(7.51564943120185,-9.,-0.749999999999998));
#1881=CARTESIAN_POINT('',(8.76564943120185,-1.,-0.749999999999998));
#1882=CARTESIAN_POINT('',(8.76564943120185,-9.,-0.749999999999998));
#1883=CARTESIAN_POINT('',(7.51564943120185,-1.,-0.749999999999998));
#1884=CARTESIAN_POINT('Origin',(8.76564943120185,-9.,-0.749999999999998));
#1885=CARTESIAN_POINT('',(8.76564943120185,-1.,-2.));
#1886=CARTESIAN_POINT('',(8.76564943120185,-9.,-2.));
#1887=CARTESIAN_POINT('',(8.76564943120185,-1.,2.));
#1888=CARTESIAN_POINT('Origin',(-3.12416381321187,-9.,0.75));
#1889=CARTESIAN_POINT('',(-4.37416381321187,-1.,0.75));
#1890=CARTESIAN_POINT('',(-4.37416381321187,-9.,0.75));
#1891=CARTESIAN_POINT('',(-3.12416381321187,-1.,0.75));
#1892=CARTESIAN_POINT('',(-0.374163813211865,-1.,0.75));
#1893=CARTESIAN_POINT('',(-3.12416381321187,-9.,0.75));
#1894=CARTESIAN_POINT('Origin',(-4.37416381321187,-9.,0.75));
#1895=CARTESIAN_POINT('',(-4.37416381321187,-1.,-0.75));
#1896=CARTESIAN_POINT('',(-4.37416381321187,-9.,-0.75));
#1897=CARTESIAN_POINT('',(-4.37416381321187,-1.,0.75));
#1898=CARTESIAN_POINT('Origin',(-4.37416381321187,-9.,-0.75));
#1899=CARTESIAN_POINT('',(-3.12416381321187,-1.,-0.75));
#1900=CARTESIAN_POINT('',(-3.12416381321187,-9.,-0.75));
#1901=CARTESIAN_POINT('',(-4.37416381321187,-1.,-0.75));
#1902=CARTESIAN_POINT('Origin',(-3.12416381321187,-9.,-0.75));
#1903=CARTESIAN_POINT('',(-3.12416381321187,-1.,-2.));
#1904=CARTESIAN_POINT('',(-3.12416381321187,-9.,-2.));
#1905=CARTESIAN_POINT('',(-3.12416381321187,-1.,2.));
#1906=CARTESIAN_POINT('Origin',(-3.12416381321187,-9.,-2.));
#1907=CARTESIAN_POINT('',(-1.62416381321187,-1.,-2.));
#1908=CARTESIAN_POINT('',(-1.62416381321187,-9.,-2.));
#1909=CARTESIAN_POINT('',(-3.12416381321187,-1.,-2.));
#1910=CARTESIAN_POINT('Origin',(-1.62416381321187,-9.,-2.));
#1911=CARTESIAN_POINT('',(-1.62416381321187,-1.,-0.75));
#1912=CARTESIAN_POINT('',(-1.62416381321187,-9.,-0.75));
#1913=CARTESIAN_POINT('',(-1.62416381321187,-1.,-2.));
#1914=CARTESIAN_POINT('Origin',(18.7230355649432,-9.,-0.499999999999998));
#1915=CARTESIAN_POINT('',(18.7230355649432,-6.,-0.499999999999998));
#1916=CARTESIAN_POINT('',(18.7230355649432,-6.,-0.249999999999999));
#1917=CARTESIAN_POINT('',(18.7230355649432,-1.,-0.499999999999998));
#1918=CARTESIAN_POINT('',(18.7230355649432,-1.,-0.499999999999998));
#1919=CARTESIAN_POINT('',(18.7230355649432,-9.,-0.499999999999998));
#1920=CARTESIAN_POINT('Origin',(12.0671195956365,-9.,0.499999999999998));
#1921=CARTESIAN_POINT('',(12.0671195956365,-6.,-0.499999999999998));
#1922=CARTESIAN_POINT('',(12.0671195956365,-6.,0.249999999999999));
#1923=CARTESIAN_POINT('',(12.0671195956365,-1.,-0.499999999999998));
#1924=CARTESIAN_POINT('',(12.0671195956365,-9.,-0.499999999999998));
#1925=CARTESIAN_POINT('',(12.0671195956365,-1.,0.499999999999998));
#1926=CARTESIAN_POINT('Origin',(-5.57257780171151,-6.,-0.0755020171634967));
#1927=CARTESIAN_POINT('',(-2.87416381321187,-6.,-2.55147016443461));
#1928=CARTESIAN_POINT('Origin',(-2.37416381321187,-6.,0.));
#1929=CARTESIAN_POINT('',(3.81291809339407,-6.,-2.55147016443461));
#1930=CARTESIAN_POINT('',(0.177306351222749,-6.,0.500000000000002));
#1931=CARTESIAN_POINT('',(0.177306351222749,-6.,0.250000000000002));
#1932=CARTESIAN_POINT('Origin',(-2.37416381321187,-6.,0.));
#1933=CARTESIAN_POINT('',(17.7,-6.,4.96666666666667));
#1934=CARTESIAN_POINT('',(20.7745057293778,-6.,-2.55147016443462));
#1935=CARTESIAN_POINT('Origin',(21.2745057293778,-6.,-2.22044604925031E-15));
#1936=CARTESIAN_POINT('',(21.5245057293778,-6.,-2.55147016443462));
#1937=CARTESIAN_POINT('',(9.01564943120185,-6.,-2.55147016443461));
#1938=CARTESIAN_POINT('',(6.96417926676724,-6.,-0.5));
#1939=CARTESIAN_POINT('Origin',(9.51564943120185,-6.,2.22044604925031E-15));
#1940=CARTESIAN_POINT('',(10.0156494312018,-6.,-2.55147016443461));
#1941=CARTESIAN_POINT('',(9.76564943120185,-6.,-2.55147016443461));
#1942=CARTESIAN_POINT('Origin',(9.51564943120185,-6.,2.22044604925031E-15));
#1943=CARTESIAN_POINT('',(6.96417926676724,-6.,-0.249999999999999));
#1944=CARTESIAN_POINT('Origin',(25.9,0.,6.9));
#1945=CARTESIAN_POINT('',(17.7,1.38777878078145E-16,6.9));
#1946=CARTESIAN_POINT('Origin',(6.96417926676724,-9.,-0.5));
#1947=CARTESIAN_POINT('',(6.96417926676724,-1.,-0.5));
#1948=CARTESIAN_POINT('',(6.96417926676724,-1.,-0.5));
#1949=CARTESIAN_POINT('',(6.96417926676724,-9.,-0.5));
#1950=CARTESIAN_POINT('Origin',(20.5245057293778,-9.,-2.));
#1951=CARTESIAN_POINT('',(22.0245057293778,-1.,-2.));
#1952=CARTESIAN_POINT('',(22.0245057293778,-9.,-2.));
#1953=CARTESIAN_POINT('',(20.5245057293778,-1.,-2.));
#1954=CARTESIAN_POINT('Origin',(22.0245057293778,-9.,-2.));
#1955=CARTESIAN_POINT('',(22.0245057293778,-1.,-0.750000000000002));
#1956=CARTESIAN_POINT('',(22.0245057293778,-9.,-0.750000000000002));
#1957=CARTESIAN_POINT('',(22.0245057293778,-1.,-2.));
#1958=CARTESIAN_POINT('Origin',(22.0245057293778,-9.,-0.750000000000002));
#1959=CARTESIAN_POINT('',(23.2745057293778,-1.,-0.750000000000002));
#1960=CARTESIAN_POINT('',(23.2745057293778,-9.,-0.750000000000002));
#1961=CARTESIAN_POINT('',(19.2745057293778,-1.,-0.750000000000002));
#1962=CARTESIAN_POINT('Origin',(23.2745057293778,-9.,-0.750000000000002));
#1963=CARTESIAN_POINT('',(23.2745057293778,-1.,0.749999999999998));
#1964=CARTESIAN_POINT('',(23.2745057293778,-9.,0.749999999999998));
#1965=CARTESIAN_POINT('',(23.2745057293778,-1.,-0.750000000000002));
#1966=CARTESIAN_POINT('Origin',(23.2745057293778,-9.,0.749999999999998));
#1967=CARTESIAN_POINT('',(22.0245057293778,-1.,0.749999999999998));
#1968=CARTESIAN_POINT('',(22.0245057293778,-9.,0.749999999999998));
#1969=CARTESIAN_POINT('',(23.2745057293778,-1.,0.749999999999998));
#1970=CARTESIAN_POINT('Origin',(22.0245057293778,-9.,0.749999999999998));
#1971=CARTESIAN_POINT('',(22.0245057293778,-1.,-2.));
#1972=CARTESIAN_POINT('Origin',(21.2745057293778,-9.,-2.22044604925031E-15));
#1973=CARTESIAN_POINT('',(20.7745057293778,-1.,-2.55147016443462));
#1974=CARTESIAN_POINT('Origin',(21.2745057293778,-1.,-2.22044604925031E-15));
#1975=CARTESIAN_POINT('',(20.7745057293778,-9.,-2.55147016443462));
#1976=CARTESIAN_POINT('Origin',(21.7745057293778,-9.,-2.55147016443462));
#1977=CARTESIAN_POINT('',(20.7745057293778,-1.,-2.55147016443462));
#1978=CARTESIAN_POINT('Origin',(21.2987706471605,-1.,0.0242649177826904));
#1979=CARTESIAN_POINT('Origin',(8.76564943120185,-9.,-2.));
#1980=CARTESIAN_POINT('',(10.2656494312018,-1.,-2.));
#1981=CARTESIAN_POINT('',(10.2656494312018,-9.,-2.));
#1982=CARTESIAN_POINT('',(8.76564943120185,-1.,-2.));
#1983=CARTESIAN_POINT('Origin',(10.2656494312018,-9.,-2.));
#1984=CARTESIAN_POINT('',(10.2656494312018,-1.,-0.749999999999998));
#1985=CARTESIAN_POINT('',(10.2656494312018,-9.,-0.749999999999998));
#1986=CARTESIAN_POINT('',(10.2656494312018,-1.,-2.));
#1987=CARTESIAN_POINT('Origin',(10.2656494312018,-9.,-0.749999999999998));
#1988=CARTESIAN_POINT('',(11.5156494312018,-1.,-0.749999999999998));
#1989=CARTESIAN_POINT('',(11.5156494312018,-9.,-0.749999999999998));
#1990=CARTESIAN_POINT('',(7.51564943120185,-1.,-0.749999999999998));
#1991=CARTESIAN_POINT('Origin',(11.5156494312018,-9.,-0.749999999999998));
#1992=CARTESIAN_POINT('',(11.5156494312018,-1.,0.750000000000002));
#1993=CARTESIAN_POINT('',(11.5156494312018,-9.,0.750000000000002));
#1994=CARTESIAN_POINT('',(11.5156494312018,-1.,-0.749999999999998));
#1995=CARTESIAN_POINT('Origin',(11.5156494312018,-9.,0.750000000000002));
#1996=CARTESIAN_POINT('',(10.2656494312018,-1.,0.750000000000002));
#1997=CARTESIAN_POINT('',(10.2656494312018,-9.,0.750000000000002));
#1998=CARTESIAN_POINT('',(11.5156494312018,-1.,0.750000000000002));
#1999=CARTESIAN_POINT('Origin',(10.2656494312018,-9.,0.750000000000002));
#2000=CARTESIAN_POINT('',(10.2656494312018,-1.,-2.));
#2001=CARTESIAN_POINT('Origin',(9.51564943120185,-9.,2.22044604925031E-15));
#2002=CARTESIAN_POINT('',(10.0156494312018,-1.,-2.55147016443461));
#2003=CARTESIAN_POINT('',(10.0156494312018,-9.,-2.55147016443461));
#2004=CARTESIAN_POINT('Origin',(9.51564943120185,-1.,2.22044604925031E-15));
#2005=CARTESIAN_POINT('Origin',(10.0156494312018,-9.,-2.55147016443461));
#2006=CARTESIAN_POINT('',(9.01564943120185,-1.,-2.55147016443461));
#2007=CARTESIAN_POINT('',(9.01564943120185,-9.,-2.55147016443461));
#2008=CARTESIAN_POINT('',(9.01564943120185,-1.,-2.55147016443461));
#2009=CARTESIAN_POINT('Origin',(9.51564943120185,-9.,2.22044604925031E-15));
#2010=CARTESIAN_POINT('Origin',(9.51564943120185,-1.,2.22044604925031E-15));
#2011=CARTESIAN_POINT('Origin',(9.51564943120185,-1.,0.0242649177826948));
#2012=CARTESIAN_POINT('Origin',(-1.62416381321187,-9.,-0.75));
#2013=CARTESIAN_POINT('',(-0.374163813211865,-1.,-0.75));
#2014=CARTESIAN_POINT('',(-0.374163813211865,-9.,-0.75));
#2015=CARTESIAN_POINT('',(-4.37416381321187,-1.,-0.75));
#2016=CARTESIAN_POINT('Origin',(-0.374163813211865,-9.,-0.75));
#2017=CARTESIAN_POINT('',(-0.374163813211865,-1.,0.75));
#2018=CARTESIAN_POINT('',(-0.374163813211865,-9.,0.75));
#2019=CARTESIAN_POINT('',(-0.374163813211865,-1.,-0.75));
#2020=CARTESIAN_POINT('Origin',(-0.374163813211865,-9.,0.75));
#2021=CARTESIAN_POINT('',(-1.62416381321187,-1.,0.75));
#2022=CARTESIAN_POINT('',(-1.62416381321187,-9.,0.75));
#2023=CARTESIAN_POINT('',(-0.374163813211865,-1.,0.75));
#2024=CARTESIAN_POINT('Origin',(-1.62416381321187,-9.,0.75));
#2025=CARTESIAN_POINT('',(-1.62416381321187,-1.,2.));
#2026=CARTESIAN_POINT('',(-1.62416381321187,-9.,2.));
#2027=CARTESIAN_POINT('',(-1.62416381321187,-1.,-2.));
#2028=CARTESIAN_POINT('Origin',(-1.62416381321187,-9.,2.));
#2029=CARTESIAN_POINT('',(-3.12416381321187,-1.,2.));
#2030=CARTESIAN_POINT('',(-3.12416381321187,-9.,2.));
#2031=CARTESIAN_POINT('',(-1.62416381321187,-1.,2.));
#2032=CARTESIAN_POINT('Origin',(-3.12416381321187,-9.,2.));
#2033=CARTESIAN_POINT('',(-3.12416381321187,-1.,2.));
#2034=CARTESIAN_POINT('Origin',(-2.37416381321187,-9.,0.));
#2035=CARTESIAN_POINT('',(0.177306351222749,-1.,0.500000000000002));
#2036=CARTESIAN_POINT('',(0.177306351222749,-9.,0.500000000000002));
#2037=CARTESIAN_POINT('',(-2.87416381321187,-1.,-2.55147016443461));
#2038=CARTESIAN_POINT('Origin',(-2.37416381321187,-1.,0.));
#2039=CARTESIAN_POINT('',(-2.87416381321187,-9.,-2.55147016443461));
#2040=CARTESIAN_POINT('Origin',(-1.87416381321187,-9.,-2.55147016443461));
#2041=CARTESIAN_POINT('',(-2.87416381321187,-1.,-2.55147016443461));
#2042=CARTESIAN_POINT('Origin',(0.177306351222749,-9.,0.500000000000002));
#2043=CARTESIAN_POINT('',(0.177306351222749,-1.,0.500000000000002));
#2044=CARTESIAN_POINT('Origin',(-2.39842873099456,-1.,0.0242649177826926));
#2045=CARTESIAN_POINT('Origin',(9.49999999999999,0.,0.));
#2046=CARTESIAN_POINT('',(27.9,0.,-8.9));
#2047=CARTESIAN_POINT('',(-8.9,0.,-8.9));
#2048=CARTESIAN_POINT('',(27.9,0.,-8.9));
#2049=CARTESIAN_POINT('',(-8.9,0.,8.9));
#2050=CARTESIAN_POINT('',(-8.9,0.,-8.9));
#2051=CARTESIAN_POINT('',(27.9,0.,8.9));
#2052=CARTESIAN_POINT('',(-8.9,0.,8.9));
#2053=CARTESIAN_POINT('',(27.9,0.,8.9));
#2054=CARTESIAN_POINT('Origin',(9.5,-9.,-5.8314744727786E-17));
#2055=CARTESIAN_POINT('',(25.5,-9.,-6.5));
#2056=CARTESIAN_POINT('',(-6.5,-9.,-6.5));
#2057=CARTESIAN_POINT('',(25.5,-9.,-6.5));
#2058=CARTESIAN_POINT('',(25.5,-9.,6.5));
#2059=CARTESIAN_POINT('',(25.5,-9.,6.5));
#2060=CARTESIAN_POINT('',(-6.5,-9.,6.5));
#2061=CARTESIAN_POINT('',(-6.5,-9.,6.5));
#2062=CARTESIAN_POINT('',(-6.5,-9.,-6.5));
#2063=CARTESIAN_POINT('Origin',(25.5,-9.,-6.5));
#2064=CARTESIAN_POINT('',(-6.5,-9.,-6.5));
#2065=CARTESIAN_POINT('',(25.5,-9.,-6.5));
#2066=CARTESIAN_POINT('Origin',(-6.5,-9.,-6.5));
#2067=CARTESIAN_POINT('',(-6.5,-9.,6.5));
#2068=CARTESIAN_POINT('Origin',(-6.5,-9.,6.5));
#2069=CARTESIAN_POINT('',(25.5,-9.,6.5));
#2070=CARTESIAN_POINT('Origin',(25.5,-9.,6.5));
#2071=UNCERTAINTY_MEASURE_WITH_UNIT(LENGTH_MEASURE(0.01),#2075,
'DISTANCE_ACCURACY_VALUE',
'Maximum model space distance between geometric entities at asserted c
onnectivities');
#2072=UNCERTAINTY_MEASURE_WITH_UNIT(LENGTH_MEASURE(0.01),#2075,
'DISTANCE_ACCURACY_VALUE',
'Maximum model space distance between geometric entities at asserted c
onnectivities');
#2073=(
GEOMETRIC_REPRESENTATION_CONTEXT(3)
GLOBAL_UNCERTAINTY_ASSIGNED_CONTEXT((#2071))
GLOBAL_UNIT_ASSIGNED_CONTEXT((#2075,#2077,#2078))
REPRESENTATION_CONTEXT('','3D')
);
#2074=(
GEOMETRIC_REPRESENTATION_CONTEXT(3)
GLOBAL_UNCERTAINTY_ASSIGNED_CONTEXT((#2072))
GLOBAL_UNIT_ASSIGNED_CONTEXT((#2075,#2077,#2078))
REPRESENTATION_CONTEXT('','3D')
);
#2075=(
LENGTH_UNIT()
NAMED_UNIT(*)
SI_UNIT(.MILLI.,.METRE.)
);
#2076=(
LENGTH_UNIT()
NAMED_UNIT(*)
SI_UNIT($,.METRE.)
);
#2077=(
NAMED_UNIT(*)
PLANE_ANGLE_UNIT()
SI_UNIT($,.RADIAN.)
);
#2078=(
NAMED_UNIT(*)
SI_UNIT($,.STERADIAN.)
SOLID_ANGLE_UNIT()
);
#2079=SHAPE_DEFINITION_REPRESENTATION(#2080,#2081);
#2080=PRODUCT_DEFINITION_SHAPE('',$,#2083);
#2081=SHAPE_REPRESENTATION('',(#1295),#2073);
#2082=PRODUCT_DEFINITION_CONTEXT('part definition',#2087,'design');
#2083=PRODUCT_DEFINITION('Keycap2','Keycap2 v8',#2084,#2082);
#2084=PRODUCT_DEFINITION_FORMATION('',$,#2089);
#2085=PRODUCT_RELATED_PRODUCT_CATEGORY('Keycap2 v8','Keycap2 v8',(#2089));
#2086=APPLICATION_PROTOCOL_DEFINITION('international standard',
'automotive_design',2009,#2087);
#2087=APPLICATION_CONTEXT(
'Core Data for Automotive Mechanical Design Process');
#2088=PRODUCT_CONTEXT('part definition',#2087,'mechanical');
#2089=PRODUCT('Keycap2','Keycap2 v8',$,(#2088));
#2090=PRESENTATION_STYLE_ASSIGNMENT((#2092));
#2091=PRESENTATION_STYLE_ASSIGNMENT((#2093));
#2092=SURFACE_STYLE_USAGE(.BOTH.,#2094);
#2093=SURFACE_STYLE_USAGE(.BOTH.,#2095);
#2094=SURFACE_SIDE_STYLE('',(#2096));
#2095=SURFACE_SIDE_STYLE('',(#2097));
#2096=SURFACE_STYLE_FILL_AREA(#2098);
#2097=SURFACE_STYLE_FILL_AREA(#2099);
#2098=FILL_AREA_STYLE('\X2\58516599\X0\ - \X2\7C979762\X0\(\X2\70708272\X0\)',
(#2100));
#2099=FILL_AREA_STYLE(
'PEKK - \X2\78B37EA47EF4589E5F3A578B805A919A916E\X0\ - HT-23 (\X2\5E266709\X0\ 
EOS P 810 3D \X2\62535370673A\X0\)',(#2101));
#2100=FILL_AREA_STYLE_COLOUR('\X2\58516599\X0\ - \X2\7C979762\X0\(\X2\70708272\X0\)',
#2102);
#2101=FILL_AREA_STYLE_COLOUR(
'PEKK - \X2\78B37EA47EF4589E5F3A578B805A919A916E\X0\ - HT-23 (\X2\5E266709\X0\ 
EOS P 810 3D \X2\62535370673A\X0\)',#2103);
#2102=COLOUR_RGB('\X2\58516599\X0\ - \X2\7C979762\X0\(\X2\70708272\X0\)',
0.701960784313725,0.701960784313725,0.701960784313725);
#2103=COLOUR_RGB(
'PEKK - \X2\78B37EA47EF4589E5F3A578B805A919A916E\X0\ - HT-23 (\X2\5E266709\X0\ 
EOS P 810 3D \X2\62535370673A\X0\)',0.352941176470588,0.352941176470588,
0.352941176470588);
ENDSEC;
END-ISO-10303-21;
