ISO-10303-21;
HEADER;
/* Generated by software containing ST-Developer
 * from STEP Tools, Inc. (www.steptools.com) 
 */

FILE_DESCRIPTION(
/* description */ (''),
/* implementation_level */ '2;1');

FILE_NAME(
/* name */ 'Keycap v5.step',
/* time_stamp */ '2025-09-05T22:10:25+08:00',
/* author */ (''),
/* organization */ (''),
/* preprocessor_version */ 'ST-DEVELOPER v20.1',
/* originating_system */ 'Autodesk Translation Framework v14.10.0.0',
/* authorisation */ '');

FILE_SCHEMA (('AUTOMOTIVE_DESIGN { 1 0 10303 214 3 1 1 }'));
ENDSEC;

DATA;
#10=MECHANICAL_DESIGN_GEOMETRIC_PRESENTATION_REPRESENTATION('',(#13),#776);
#11=SHAPE_REPRESENTATION_RELATIONSHIP('SRR','None',#783,#12);
#12=ADVANCED_BREP_SHAPE_REPRESENTATION('',(#14),#775);
#13=STYLED_ITEM('',(#793),#14);
#14=MANIFOLD_SOLID_BREP('\X2\5B9E4F53\X0\1',#480);
#15=CYLINDRICAL_SURFACE('',#502,2.6);
#16=FACE_BOUND('',#48,.T.);
#17=FACE_BOUND('',#63,.T.);
#18=FACE_BOUND('',#70,.T.);
#19=CIRCLE('',#495,2.6);
#20=CIRCLE('',#503,2.6);
#21=FACE_OUTER_BOUND('',#47,.T.);
#22=FACE_OUTER_BOUND('',#49,.T.);
#23=FACE_OUTER_BOUND('',#50,.T.);
#24=FACE_OUTER_BOUND('',#51,.T.);
#25=FACE_OUTER_BOUND('',#52,.T.);
#26=FACE_OUTER_BOUND('',#53,.T.);
#27=FACE_OUTER_BOUND('',#54,.T.);
#28=FACE_OUTER_BOUND('',#55,.T.);
#29=FACE_OUTER_BOUND('',#56,.T.);
#30=FACE_OUTER_BOUND('',#57,.T.);
#31=FACE_OUTER_BOUND('',#58,.T.);
#32=FACE_OUTER_BOUND('',#59,.T.);
#33=FACE_OUTER_BOUND('',#60,.T.);
#34=FACE_OUTER_BOUND('',#61,.T.);
#35=FACE_OUTER_BOUND('',#62,.T.);
#36=FACE_OUTER_BOUND('',#64,.T.);
#37=FACE_OUTER_BOUND('',#65,.T.);
#38=FACE_OUTER_BOUND('',#66,.T.);
#39=FACE_OUTER_BOUND('',#67,.T.);
#40=FACE_OUTER_BOUND('',#68,.T.);
#41=FACE_OUTER_BOUND('',#69,.T.);
#42=FACE_OUTER_BOUND('',#71,.T.);
#43=FACE_OUTER_BOUND('',#72,.T.);
#44=FACE_OUTER_BOUND('',#73,.T.);
#45=FACE_OUTER_BOUND('',#74,.T.);
#46=FACE_OUTER_BOUND('',#75,.T.);
#47=EDGE_LOOP('',(#303,#304,#305,#306));
#48=EDGE_LOOP('',(#307));
#49=EDGE_LOOP('',(#308,#309,#310,#311));
#50=EDGE_LOOP('',(#312,#313,#314,#315));
#51=EDGE_LOOP('',(#316,#317,#318,#319));
#52=EDGE_LOOP('',(#320,#321,#322,#323));
#53=EDGE_LOOP('',(#324,#325,#326,#327));
#54=EDGE_LOOP('',(#328,#329,#330,#331));
#55=EDGE_LOOP('',(#332,#333,#334,#335));
#56=EDGE_LOOP('',(#336,#337,#338,#339));
#57=EDGE_LOOP('',(#340,#341,#342,#343));
#58=EDGE_LOOP('',(#344,#345,#346,#347));
#59=EDGE_LOOP('',(#348,#349,#350,#351));
#60=EDGE_LOOP('',(#352,#353,#354,#355));
#61=EDGE_LOOP('',(#356,#357,#358,#359));
#62=EDGE_LOOP('',(#360));
#63=EDGE_LOOP('',(#361,#362,#363,#364,#365,#366,#367,#368,#369,#370,#371,
#372));
#64=EDGE_LOOP('',(#373,#374,#375,#376,#377,#378,#379,#380,#381,#382,#383,
#384));
#65=EDGE_LOOP('',(#385,#386,#387,#388));
#66=EDGE_LOOP('',(#389,#390,#391,#392));
#67=EDGE_LOOP('',(#393,#394,#395,#396));
#68=EDGE_LOOP('',(#397,#398,#399,#400));
#69=EDGE_LOOP('',(#401,#402,#403,#404));
#70=EDGE_LOOP('',(#405,#406,#407,#408));
#71=EDGE_LOOP('',(#409,#410,#411,#412));
#72=EDGE_LOOP('',(#413,#414,#415,#416));
#73=EDGE_LOOP('',(#417,#418,#419,#420));
#74=EDGE_LOOP('',(#421,#422,#423,#424));
#75=EDGE_LOOP('',(#425,#426,#427,#428));
#76=LINE('',#645,#137);
#77=LINE('',#647,#138);
#78=LINE('',#649,#139);
#79=LINE('',#650,#140);
#80=LINE('',#656,#141);
#81=LINE('',#658,#142);
#82=LINE('',#660,#143);
#83=LINE('',#661,#144);
#84=LINE('',#664,#145);
#85=LINE('',#666,#146);
#86=LINE('',#667,#147);
#87=LINE('',#670,#148);
#88=LINE('',#672,#149);
#89=LINE('',#673,#150);
#90=LINE('',#676,#151);
#91=LINE('',#678,#152);
#92=LINE('',#679,#153);
#93=LINE('',#682,#154);
#94=LINE('',#684,#155);
#95=LINE('',#685,#156);
#96=LINE('',#688,#157);
#97=LINE('',#690,#158);
#98=LINE('',#691,#159);
#99=LINE('',#695,#160);
#100=LINE('',#698,#161);
#101=LINE('',#700,#162);
#102=LINE('',#701,#163);
#103=LINE('',#704,#164);
#104=LINE('',#706,#165);
#105=LINE('',#707,#166);
#106=LINE('',#710,#167);
#107=LINE('',#712,#168);
#108=LINE('',#713,#169);
#109=LINE('',#716,#170);
#110=LINE('',#718,#171);
#111=LINE('',#719,#172);
#112=LINE('',#722,#173);
#113=LINE('',#724,#174);
#114=LINE('',#725,#175);
#115=LINE('',#727,#176);
#116=LINE('',#728,#177);
#117=LINE('',#733,#178);
#118=LINE('',#735,#179);
#119=LINE('',#736,#180);
#120=LINE('',#739,#181);
#121=LINE('',#740,#182);
#122=LINE('',#743,#183);
#123=LINE('',#744,#184);
#124=LINE('',#746,#185);
#125=LINE('',#750,#186);
#126=LINE('',#752,#187);
#127=LINE('',#754,#188);
#128=LINE('',#755,#189);
#129=LINE('',#759,#190);
#130=LINE('',#761,#191);
#131=LINE('',#763,#192);
#132=LINE('',#764,#193);
#133=LINE('',#766,#194);
#134=LINE('',#767,#195);
#135=LINE('',#769,#196);
#136=LINE('',#771,#197);
#137=VECTOR('',#526,10.);
#138=VECTOR('',#527,10.);
#139=VECTOR('',#528,10.);
#140=VECTOR('',#529,10.);
#141=VECTOR('',#534,10.);
#142=VECTOR('',#535,10.);
#143=VECTOR('',#536,10.);
#144=VECTOR('',#537,10.);
#145=VECTOR('',#540,10.);
#146=VECTOR('',#541,10.);
#147=VECTOR('',#542,10.);
#148=VECTOR('',#545,10.);
#149=VECTOR('',#546,10.);
#150=VECTOR('',#547,10.);
#151=VECTOR('',#550,10.);
#152=VECTOR('',#551,10.);
#153=VECTOR('',#552,10.);
#154=VECTOR('',#555,10.);
#155=VECTOR('',#556,10.);
#156=VECTOR('',#557,10.);
#157=VECTOR('',#560,10.);
#158=VECTOR('',#561,10.);
#159=VECTOR('',#562,10.);
#160=VECTOR('',#567,2.6);
#161=VECTOR('',#570,10.);
#162=VECTOR('',#571,10.);
#163=VECTOR('',#572,10.);
#164=VECTOR('',#575,10.);
#165=VECTOR('',#576,10.);
#166=VECTOR('',#577,10.);
#167=VECTOR('',#580,10.);
#168=VECTOR('',#581,10.);
#169=VECTOR('',#582,10.);
#170=VECTOR('',#585,10.);
#171=VECTOR('',#586,10.);
#172=VECTOR('',#587,10.);
#173=VECTOR('',#590,10.);
#174=VECTOR('',#591,10.);
#175=VECTOR('',#592,10.);
#176=VECTOR('',#595,10.);
#177=VECTOR('',#596,10.);
#178=VECTOR('',#603,10.);
#179=VECTOR('',#604,10.);
#180=VECTOR('',#605,10.);
#181=VECTOR('',#608,10.);
#182=VECTOR('',#609,10.);
#183=VECTOR('',#612,10.);
#184=VECTOR('',#613,10.);
#185=VECTOR('',#616,10.);
#186=VECTOR('',#619,10.);
#187=VECTOR('',#620,10.);
#188=VECTOR('',#621,10.);
#189=VECTOR('',#622,10.);
#190=VECTOR('',#625,10.);
#191=VECTOR('',#626,10.);
#192=VECTOR('',#627,10.);
#193=VECTOR('',#628,10.);
#194=VECTOR('',#631,10.);
#195=VECTOR('',#632,10.);
#196=VECTOR('',#635,10.);
#197=VECTOR('',#638,10.);
#198=VERTEX_POINT('',#643);
#199=VERTEX_POINT('',#644);
#200=VERTEX_POINT('',#646);
#201=VERTEX_POINT('',#648);
#202=VERTEX_POINT('',#651);
#203=VERTEX_POINT('',#654);
#204=VERTEX_POINT('',#655);
#205=VERTEX_POINT('',#657);
#206=VERTEX_POINT('',#659);
#207=VERTEX_POINT('',#663);
#208=VERTEX_POINT('',#665);
#209=VERTEX_POINT('',#669);
#210=VERTEX_POINT('',#671);
#211=VERTEX_POINT('',#675);
#212=VERTEX_POINT('',#677);
#213=VERTEX_POINT('',#681);
#214=VERTEX_POINT('',#683);
#215=VERTEX_POINT('',#687);
#216=VERTEX_POINT('',#689);
#217=VERTEX_POINT('',#693);
#218=VERTEX_POINT('',#697);
#219=VERTEX_POINT('',#699);
#220=VERTEX_POINT('',#703);
#221=VERTEX_POINT('',#705);
#222=VERTEX_POINT('',#709);
#223=VERTEX_POINT('',#711);
#224=VERTEX_POINT('',#715);
#225=VERTEX_POINT('',#717);
#226=VERTEX_POINT('',#721);
#227=VERTEX_POINT('',#723);
#228=VERTEX_POINT('',#732);
#229=VERTEX_POINT('',#734);
#230=VERTEX_POINT('',#738);
#231=VERTEX_POINT('',#742);
#232=VERTEX_POINT('',#748);
#233=VERTEX_POINT('',#749);
#234=VERTEX_POINT('',#751);
#235=VERTEX_POINT('',#753);
#236=VERTEX_POINT('',#757);
#237=VERTEX_POINT('',#758);
#238=VERTEX_POINT('',#760);
#239=VERTEX_POINT('',#762);
#240=EDGE_CURVE('',#198,#199,#76,.T.);
#241=EDGE_CURVE('',#200,#198,#77,.T.);
#242=EDGE_CURVE('',#201,#200,#78,.T.);
#243=EDGE_CURVE('',#199,#201,#79,.T.);
#244=EDGE_CURVE('',#202,#202,#19,.T.);
#245=EDGE_CURVE('',#203,#204,#80,.T.);
#246=EDGE_CURVE('',#203,#205,#81,.T.);
#247=EDGE_CURVE('',#206,#205,#82,.T.);
#248=EDGE_CURVE('',#204,#206,#83,.T.);
#249=EDGE_CURVE('',#207,#203,#84,.T.);
#250=EDGE_CURVE('',#207,#208,#85,.T.);
#251=EDGE_CURVE('',#205,#208,#86,.T.);
#252=EDGE_CURVE('',#209,#207,#87,.T.);
#253=EDGE_CURVE('',#209,#210,#88,.T.);
#254=EDGE_CURVE('',#208,#210,#89,.T.);
#255=EDGE_CURVE('',#211,#209,#90,.T.);
#256=EDGE_CURVE('',#211,#212,#91,.T.);
#257=EDGE_CURVE('',#210,#212,#92,.T.);
#258=EDGE_CURVE('',#213,#211,#93,.T.);
#259=EDGE_CURVE('',#213,#214,#94,.T.);
#260=EDGE_CURVE('',#212,#214,#95,.T.);
#261=EDGE_CURVE('',#215,#213,#96,.T.);
#262=EDGE_CURVE('',#215,#216,#97,.T.);
#263=EDGE_CURVE('',#214,#216,#98,.T.);
#264=EDGE_CURVE('',#217,#217,#20,.T.);
#265=EDGE_CURVE('',#217,#202,#99,.T.);
#266=EDGE_CURVE('',#204,#218,#100,.T.);
#267=EDGE_CURVE('',#219,#206,#101,.T.);
#268=EDGE_CURVE('',#218,#219,#102,.T.);
#269=EDGE_CURVE('',#218,#220,#103,.T.);
#270=EDGE_CURVE('',#221,#219,#104,.T.);
#271=EDGE_CURVE('',#220,#221,#105,.T.);
#272=EDGE_CURVE('',#220,#222,#106,.T.);
#273=EDGE_CURVE('',#223,#221,#107,.T.);
#274=EDGE_CURVE('',#222,#223,#108,.T.);
#275=EDGE_CURVE('',#222,#224,#109,.T.);
#276=EDGE_CURVE('',#225,#223,#110,.T.);
#277=EDGE_CURVE('',#224,#225,#111,.T.);
#278=EDGE_CURVE('',#224,#226,#112,.T.);
#279=EDGE_CURVE('',#227,#225,#113,.T.);
#280=EDGE_CURVE('',#226,#227,#114,.T.);
#281=EDGE_CURVE('',#226,#215,#115,.T.);
#282=EDGE_CURVE('',#216,#227,#116,.T.);
#283=EDGE_CURVE('',#228,#200,#117,.T.);
#284=EDGE_CURVE('',#229,#228,#118,.T.);
#285=EDGE_CURVE('',#229,#201,#119,.T.);
#286=EDGE_CURVE('',#230,#198,#120,.T.);
#287=EDGE_CURVE('',#228,#230,#121,.T.);
#288=EDGE_CURVE('',#231,#199,#122,.T.);
#289=EDGE_CURVE('',#230,#231,#123,.T.);
#290=EDGE_CURVE('',#231,#229,#124,.T.);
#291=EDGE_CURVE('',#232,#233,#125,.T.);
#292=EDGE_CURVE('',#233,#234,#126,.T.);
#293=EDGE_CURVE('',#234,#235,#127,.T.);
#294=EDGE_CURVE('',#235,#232,#128,.T.);
#295=EDGE_CURVE('',#236,#237,#129,.T.);
#296=EDGE_CURVE('',#238,#236,#130,.T.);
#297=EDGE_CURVE('',#239,#238,#131,.T.);
#298=EDGE_CURVE('',#237,#239,#132,.T.);
#299=EDGE_CURVE('',#236,#233,#133,.T.);
#300=EDGE_CURVE('',#238,#232,#134,.T.);
#301=EDGE_CURVE('',#237,#234,#135,.T.);
#302=EDGE_CURVE('',#239,#235,#136,.T.);
#303=ORIENTED_EDGE('',*,*,#240,.F.);
#304=ORIENTED_EDGE('',*,*,#241,.F.);
#305=ORIENTED_EDGE('',*,*,#242,.F.);
#306=ORIENTED_EDGE('',*,*,#243,.F.);
#307=ORIENTED_EDGE('',*,*,#244,.T.);
#308=ORIENTED_EDGE('',*,*,#245,.F.);
#309=ORIENTED_EDGE('',*,*,#246,.T.);
#310=ORIENTED_EDGE('',*,*,#247,.F.);
#311=ORIENTED_EDGE('',*,*,#248,.F.);
#312=ORIENTED_EDGE('',*,*,#249,.F.);
#313=ORIENTED_EDGE('',*,*,#250,.T.);
#314=ORIENTED_EDGE('',*,*,#251,.F.);
#315=ORIENTED_EDGE('',*,*,#246,.F.);
#316=ORIENTED_EDGE('',*,*,#252,.F.);
#317=ORIENTED_EDGE('',*,*,#253,.T.);
#318=ORIENTED_EDGE('',*,*,#254,.F.);
#319=ORIENTED_EDGE('',*,*,#250,.F.);
#320=ORIENTED_EDGE('',*,*,#255,.F.);
#321=ORIENTED_EDGE('',*,*,#256,.T.);
#322=ORIENTED_EDGE('',*,*,#257,.F.);
#323=ORIENTED_EDGE('',*,*,#253,.F.);
#324=ORIENTED_EDGE('',*,*,#258,.F.);
#325=ORIENTED_EDGE('',*,*,#259,.T.);
#326=ORIENTED_EDGE('',*,*,#260,.F.);
#327=ORIENTED_EDGE('',*,*,#256,.F.);
#328=ORIENTED_EDGE('',*,*,#261,.F.);
#329=ORIENTED_EDGE('',*,*,#262,.T.);
#330=ORIENTED_EDGE('',*,*,#263,.F.);
#331=ORIENTED_EDGE('',*,*,#259,.F.);
#332=ORIENTED_EDGE('',*,*,#264,.F.);
#333=ORIENTED_EDGE('',*,*,#265,.T.);
#334=ORIENTED_EDGE('',*,*,#244,.F.);
#335=ORIENTED_EDGE('',*,*,#265,.F.);
#336=ORIENTED_EDGE('',*,*,#266,.F.);
#337=ORIENTED_EDGE('',*,*,#248,.T.);
#338=ORIENTED_EDGE('',*,*,#267,.F.);
#339=ORIENTED_EDGE('',*,*,#268,.F.);
#340=ORIENTED_EDGE('',*,*,#269,.F.);
#341=ORIENTED_EDGE('',*,*,#268,.T.);
#342=ORIENTED_EDGE('',*,*,#270,.F.);
#343=ORIENTED_EDGE('',*,*,#271,.F.);
#344=ORIENTED_EDGE('',*,*,#272,.F.);
#345=ORIENTED_EDGE('',*,*,#271,.T.);
#346=ORIENTED_EDGE('',*,*,#273,.F.);
#347=ORIENTED_EDGE('',*,*,#274,.F.);
#348=ORIENTED_EDGE('',*,*,#275,.F.);
#349=ORIENTED_EDGE('',*,*,#274,.T.);
#350=ORIENTED_EDGE('',*,*,#276,.F.);
#351=ORIENTED_EDGE('',*,*,#277,.F.);
#352=ORIENTED_EDGE('',*,*,#278,.F.);
#353=ORIENTED_EDGE('',*,*,#277,.T.);
#354=ORIENTED_EDGE('',*,*,#279,.F.);
#355=ORIENTED_EDGE('',*,*,#280,.F.);
#356=ORIENTED_EDGE('',*,*,#281,.F.);
#357=ORIENTED_EDGE('',*,*,#280,.T.);
#358=ORIENTED_EDGE('',*,*,#282,.F.);
#359=ORIENTED_EDGE('',*,*,#262,.F.);
#360=ORIENTED_EDGE('',*,*,#264,.T.);
#361=ORIENTED_EDGE('',*,*,#282,.T.);
#362=ORIENTED_EDGE('',*,*,#279,.T.);
#363=ORIENTED_EDGE('',*,*,#276,.T.);
#364=ORIENTED_EDGE('',*,*,#273,.T.);
#365=ORIENTED_EDGE('',*,*,#270,.T.);
#366=ORIENTED_EDGE('',*,*,#267,.T.);
#367=ORIENTED_EDGE('',*,*,#247,.T.);
#368=ORIENTED_EDGE('',*,*,#251,.T.);
#369=ORIENTED_EDGE('',*,*,#254,.T.);
#370=ORIENTED_EDGE('',*,*,#257,.T.);
#371=ORIENTED_EDGE('',*,*,#260,.T.);
#372=ORIENTED_EDGE('',*,*,#263,.T.);
#373=ORIENTED_EDGE('',*,*,#261,.T.);
#374=ORIENTED_EDGE('',*,*,#258,.T.);
#375=ORIENTED_EDGE('',*,*,#255,.T.);
#376=ORIENTED_EDGE('',*,*,#252,.T.);
#377=ORIENTED_EDGE('',*,*,#249,.T.);
#378=ORIENTED_EDGE('',*,*,#245,.T.);
#379=ORIENTED_EDGE('',*,*,#266,.T.);
#380=ORIENTED_EDGE('',*,*,#269,.T.);
#381=ORIENTED_EDGE('',*,*,#272,.T.);
#382=ORIENTED_EDGE('',*,*,#275,.T.);
#383=ORIENTED_EDGE('',*,*,#278,.T.);
#384=ORIENTED_EDGE('',*,*,#281,.T.);
#385=ORIENTED_EDGE('',*,*,#242,.T.);
#386=ORIENTED_EDGE('',*,*,#283,.F.);
#387=ORIENTED_EDGE('',*,*,#284,.F.);
#388=ORIENTED_EDGE('',*,*,#285,.T.);
#389=ORIENTED_EDGE('',*,*,#241,.T.);
#390=ORIENTED_EDGE('',*,*,#286,.F.);
#391=ORIENTED_EDGE('',*,*,#287,.F.);
#392=ORIENTED_EDGE('',*,*,#283,.T.);
#393=ORIENTED_EDGE('',*,*,#240,.T.);
#394=ORIENTED_EDGE('',*,*,#288,.F.);
#395=ORIENTED_EDGE('',*,*,#289,.F.);
#396=ORIENTED_EDGE('',*,*,#286,.T.);
#397=ORIENTED_EDGE('',*,*,#243,.T.);
#398=ORIENTED_EDGE('',*,*,#285,.F.);
#399=ORIENTED_EDGE('',*,*,#290,.F.);
#400=ORIENTED_EDGE('',*,*,#288,.T.);
#401=ORIENTED_EDGE('',*,*,#291,.T.);
#402=ORIENTED_EDGE('',*,*,#292,.T.);
#403=ORIENTED_EDGE('',*,*,#293,.T.);
#404=ORIENTED_EDGE('',*,*,#294,.T.);
#405=ORIENTED_EDGE('',*,*,#289,.T.);
#406=ORIENTED_EDGE('',*,*,#290,.T.);
#407=ORIENTED_EDGE('',*,*,#284,.T.);
#408=ORIENTED_EDGE('',*,*,#287,.T.);
#409=ORIENTED_EDGE('',*,*,#295,.F.);
#410=ORIENTED_EDGE('',*,*,#296,.F.);
#411=ORIENTED_EDGE('',*,*,#297,.F.);
#412=ORIENTED_EDGE('',*,*,#298,.F.);
#413=ORIENTED_EDGE('',*,*,#296,.T.);
#414=ORIENTED_EDGE('',*,*,#299,.T.);
#415=ORIENTED_EDGE('',*,*,#291,.F.);
#416=ORIENTED_EDGE('',*,*,#300,.F.);
#417=ORIENTED_EDGE('',*,*,#295,.T.);
#418=ORIENTED_EDGE('',*,*,#301,.T.);
#419=ORIENTED_EDGE('',*,*,#292,.F.);
#420=ORIENTED_EDGE('',*,*,#299,.F.);
#421=ORIENTED_EDGE('',*,*,#298,.T.);
#422=ORIENTED_EDGE('',*,*,#302,.T.);
#423=ORIENTED_EDGE('',*,*,#293,.F.);
#424=ORIENTED_EDGE('',*,*,#301,.F.);
#425=ORIENTED_EDGE('',*,*,#297,.T.);
#426=ORIENTED_EDGE('',*,*,#300,.T.);
#427=ORIENTED_EDGE('',*,*,#294,.F.);
#428=ORIENTED_EDGE('',*,*,#302,.F.);
#429=PLANE('',#494);
#430=PLANE('',#496);
#431=PLANE('',#497);
#432=PLANE('',#498);
#433=PLANE('',#499);
#434=PLANE('',#500);
#435=PLANE('',#501);
#436=PLANE('',#504);
#437=PLANE('',#505);
#438=PLANE('',#506);
#439=PLANE('',#507);
#440=PLANE('',#508);
#441=PLANE('',#509);
#442=PLANE('',#510);
#443=PLANE('',#511);
#444=PLANE('',#512);
#445=PLANE('',#513);
#446=PLANE('',#514);
#447=PLANE('',#515);
#448=PLANE('',#516);
#449=PLANE('',#517);
#450=PLANE('',#518);
#451=PLANE('',#519);
#452=PLANE('',#520);
#453=PLANE('',#521);
#454=ADVANCED_FACE('',(#21,#16),#429,.T.);
#455=ADVANCED_FACE('',(#22),#430,.T.);
#456=ADVANCED_FACE('',(#23),#431,.T.);
#457=ADVANCED_FACE('',(#24),#432,.T.);
#458=ADVANCED_FACE('',(#25),#433,.T.);
#459=ADVANCED_FACE('',(#26),#434,.T.);
#460=ADVANCED_FACE('',(#27),#435,.T.);
#461=ADVANCED_FACE('',(#28),#15,.T.);
#462=ADVANCED_FACE('',(#29),#436,.T.);
#463=ADVANCED_FACE('',(#30),#437,.T.);
#464=ADVANCED_FACE('',(#31),#438,.T.);
#465=ADVANCED_FACE('',(#32),#439,.T.);
#466=ADVANCED_FACE('',(#33),#440,.T.);
#467=ADVANCED_FACE('',(#34),#441,.T.);
#468=ADVANCED_FACE('',(#35,#17),#442,.T.);
#469=ADVANCED_FACE('',(#36),#443,.T.);
#470=ADVANCED_FACE('',(#37),#444,.F.);
#471=ADVANCED_FACE('',(#38),#445,.F.);
#472=ADVANCED_FACE('',(#39),#446,.F.);
#473=ADVANCED_FACE('',(#40),#447,.F.);
#474=ADVANCED_FACE('',(#41,#18),#448,.T.);
#475=ADVANCED_FACE('',(#42),#449,.F.);
#476=ADVANCED_FACE('',(#43),#450,.T.);
#477=ADVANCED_FACE('',(#44),#451,.T.);
#478=ADVANCED_FACE('',(#45),#452,.T.);
#479=ADVANCED_FACE('',(#46),#453,.T.);
#480=CLOSED_SHELL('',(#454,#455,#456,#457,#458,#459,#460,#461,#462,#463,
#464,#465,#466,#467,#468,#469,#470,#471,#472,#473,#474,#475,#476,#477,#478,
#479));
#481=DERIVED_UNIT_ELEMENT(#483,1.);
#482=DERIVED_UNIT_ELEMENT(#778,-3.);
#483=(
MASS_UNIT()
NAMED_UNIT(*)
SI_UNIT(.KILO.,.GRAM.)
);
#484=DERIVED_UNIT((#481,#482));
#485=MEASURE_REPRESENTATION_ITEM('density measure',
POSITIVE_RATIO_MEASURE(7850.),#484);
#486=PROPERTY_DEFINITION_REPRESENTATION(#491,#488);
#487=PROPERTY_DEFINITION_REPRESENTATION(#492,#489);
#488=REPRESENTATION('material name',(#490),#775);
#489=REPRESENTATION('density',(#485),#775);
#490=DESCRIPTIVE_REPRESENTATION_ITEM('\X2\94A2\X0\','\X2\94A2\X0\');
#491=PROPERTY_DEFINITION('material property','material name',#785);
#492=PROPERTY_DEFINITION('material property','density of part',#785);
#493=AXIS2_PLACEMENT_3D('',#641,#522,#523);
#494=AXIS2_PLACEMENT_3D('',#642,#524,#525);
#495=AXIS2_PLACEMENT_3D('',#652,#530,#531);
#496=AXIS2_PLACEMENT_3D('',#653,#532,#533);
#497=AXIS2_PLACEMENT_3D('',#662,#538,#539);
#498=AXIS2_PLACEMENT_3D('',#668,#543,#544);
#499=AXIS2_PLACEMENT_3D('',#674,#548,#549);
#500=AXIS2_PLACEMENT_3D('',#680,#553,#554);
#501=AXIS2_PLACEMENT_3D('',#686,#558,#559);
#502=AXIS2_PLACEMENT_3D('',#692,#563,#564);
#503=AXIS2_PLACEMENT_3D('',#694,#565,#566);
#504=AXIS2_PLACEMENT_3D('',#696,#568,#569);
#505=AXIS2_PLACEMENT_3D('',#702,#573,#574);
#506=AXIS2_PLACEMENT_3D('',#708,#578,#579);
#507=AXIS2_PLACEMENT_3D('',#714,#583,#584);
#508=AXIS2_PLACEMENT_3D('',#720,#588,#589);
#509=AXIS2_PLACEMENT_3D('',#726,#593,#594);
#510=AXIS2_PLACEMENT_3D('',#729,#597,#598);
#511=AXIS2_PLACEMENT_3D('',#730,#599,#600);
#512=AXIS2_PLACEMENT_3D('',#731,#601,#602);
#513=AXIS2_PLACEMENT_3D('',#737,#606,#607);
#514=AXIS2_PLACEMENT_3D('',#741,#610,#611);
#515=AXIS2_PLACEMENT_3D('',#745,#614,#615);
#516=AXIS2_PLACEMENT_3D('',#747,#617,#618);
#517=AXIS2_PLACEMENT_3D('',#756,#623,#624);
#518=AXIS2_PLACEMENT_3D('',#765,#629,#630);
#519=AXIS2_PLACEMENT_3D('',#768,#633,#634);
#520=AXIS2_PLACEMENT_3D('',#770,#636,#637);
#521=AXIS2_PLACEMENT_3D('',#772,#639,#640);
#522=DIRECTION('axis',(0.,0.,1.));
#523=DIRECTION('refdir',(1.,0.,0.));
#524=DIRECTION('center_axis',(0.,1.,0.));
#525=DIRECTION('ref_axis',(0.,0.,1.));
#526=DIRECTION('',(-1.,0.,0.));
#527=DIRECTION('',(0.,0.,1.));
#528=DIRECTION('',(1.,0.,0.));
#529=DIRECTION('',(0.,0.,-1.));
#530=DIRECTION('center_axis',(0.,-1.,0.));
#531=DIRECTION('ref_axis',(1.,0.,0.));
#532=DIRECTION('center_axis',(0.,0.,1.));
#533=DIRECTION('ref_axis',(1.,0.,0.));
#534=DIRECTION('',(-1.,0.,0.));
#535=DIRECTION('',(0.,1.,0.));
#536=DIRECTION('',(1.,0.,0.));
#537=DIRECTION('',(0.,1.,0.));
#538=DIRECTION('center_axis',(-1.,0.,0.));
#539=DIRECTION('ref_axis',(0.,0.,1.));
#540=DIRECTION('',(0.,0.,-1.));
#541=DIRECTION('',(0.,1.,0.));
#542=DIRECTION('',(0.,0.,1.));
#543=DIRECTION('center_axis',(0.,0.,-1.));
#544=DIRECTION('ref_axis',(-1.,0.,0.));
#545=DIRECTION('',(1.,0.,0.));
#546=DIRECTION('',(0.,1.,0.));
#547=DIRECTION('',(-1.,0.,0.));
#548=DIRECTION('center_axis',(-1.,0.,0.));
#549=DIRECTION('ref_axis',(0.,0.,1.));
#550=DIRECTION('',(0.,0.,-1.));
#551=DIRECTION('',(0.,1.,0.));
#552=DIRECTION('',(0.,0.,1.));
#553=DIRECTION('center_axis',(0.,0.,-1.));
#554=DIRECTION('ref_axis',(-1.,0.,0.));
#555=DIRECTION('',(1.,0.,0.));
#556=DIRECTION('',(0.,1.,0.));
#557=DIRECTION('',(-1.,0.,0.));
#558=DIRECTION('center_axis',(1.,0.,0.));
#559=DIRECTION('ref_axis',(0.,0.,-1.));
#560=DIRECTION('',(0.,0.,1.));
#561=DIRECTION('',(0.,1.,0.));
#562=DIRECTION('',(0.,0.,-1.));
#563=DIRECTION('center_axis',(0.,1.,0.));
#564=DIRECTION('ref_axis',(1.,0.,0.));
#565=DIRECTION('center_axis',(0.,1.,0.));
#566=DIRECTION('ref_axis',(1.,0.,0.));
#567=DIRECTION('',(0.,-1.,0.));
#568=DIRECTION('center_axis',(-1.,0.,0.));
#569=DIRECTION('ref_axis',(0.,0.,1.));
#570=DIRECTION('',(0.,0.,-1.));
#571=DIRECTION('',(0.,0.,1.));
#572=DIRECTION('',(0.,1.,0.));
#573=DIRECTION('center_axis',(0.,0.,1.));
#574=DIRECTION('ref_axis',(1.,0.,0.));
#575=DIRECTION('',(-1.,0.,0.));
#576=DIRECTION('',(1.,0.,0.));
#577=DIRECTION('',(0.,1.,0.));
#578=DIRECTION('center_axis',(1.,0.,0.));
#579=DIRECTION('ref_axis',(0.,0.,-1.));
#580=DIRECTION('',(0.,0.,1.));
#581=DIRECTION('',(0.,0.,-1.));
#582=DIRECTION('',(0.,1.,0.));
#583=DIRECTION('center_axis',(0.,0.,1.));
#584=DIRECTION('ref_axis',(1.,0.,0.));
#585=DIRECTION('',(-1.,0.,0.));
#586=DIRECTION('',(1.,0.,0.));
#587=DIRECTION('',(0.,1.,0.));
#588=DIRECTION('center_axis',(1.,0.,0.));
#589=DIRECTION('ref_axis',(0.,0.,-1.));
#590=DIRECTION('',(0.,0.,1.));
#591=DIRECTION('',(0.,0.,-1.));
#592=DIRECTION('',(0.,1.,0.));
#593=DIRECTION('center_axis',(0.,0.,-1.));
#594=DIRECTION('ref_axis',(-1.,0.,0.));
#595=DIRECTION('',(1.,0.,0.));
#596=DIRECTION('',(-1.,0.,0.));
#597=DIRECTION('center_axis',(0.,1.,0.));
#598=DIRECTION('ref_axis',(1.,0.,0.));
#599=DIRECTION('center_axis',(0.,1.,0.));
#600=DIRECTION('ref_axis',(0.,0.,1.));
#601=DIRECTION('center_axis',(0.,-0.099503719020999,-0.995037190209989));
#602=DIRECTION('ref_axis',(-1.,0.,0.));
#603=DIRECTION('',(-0.0990147542976675,-0.990147542976674,0.0990147542976675));
#604=DIRECTION('',(1.,0.,0.));
#605=DIRECTION('',(0.0990147542976675,-0.990147542976674,0.0990147542976675));
#606=DIRECTION('center_axis',(0.995037190209989,-0.099503719020999,0.));
#607=DIRECTION('ref_axis',(0.,0.,-1.));
#608=DIRECTION('',(-0.0990147542976675,-0.990147542976674,-0.0990147542976675));
#609=DIRECTION('',(0.,0.,1.));
#610=DIRECTION('center_axis',(0.,-0.099503719020999,0.995037190209989));
#611=DIRECTION('ref_axis',(1.,0.,0.));
#612=DIRECTION('',(0.0990147542976675,-0.990147542976674,-0.0990147542976675));
#613=DIRECTION('',(-1.,0.,0.));
#614=DIRECTION('center_axis',(-0.995037190209989,-0.099503719020999,0.));
#615=DIRECTION('ref_axis',(0.,0.,1.));
#616=DIRECTION('',(0.,0.,-1.));
#617=DIRECTION('center_axis',(0.,1.,0.));
#618=DIRECTION('ref_axis',(0.,0.,1.));
#619=DIRECTION('',(0.,0.,1.));
#620=DIRECTION('',(1.,0.,0.));
#621=DIRECTION('',(0.,0.,-1.));
#622=DIRECTION('',(-1.,0.,0.));
#623=DIRECTION('center_axis',(5.2251671722667E-32,1.,-1.74172239075557E-32));
#624=DIRECTION('ref_axis',(0.,1.74172239075557E-32,1.));
#625=DIRECTION('',(1.,0.,0.));
#626=DIRECTION('',(0.,0.,1.));
#627=DIRECTION('',(-1.,0.,0.));
#628=DIRECTION('',(0.,0.,-1.));
#629=DIRECTION('center_axis',(-0.966234939601246,-0.257662650560332,0.));
#630=DIRECTION('ref_axis',(0.,0.,1.));
#631=DIRECTION('',(-0.249513144620722,0.935674292327708,0.249513144620722));
#632=DIRECTION('',(-0.249513144620722,0.935674292327708,-0.249513144620722));
#633=DIRECTION('center_axis',(0.,-0.257662650560332,0.966234939601246));
#634=DIRECTION('ref_axis',(1.,0.,0.));
#635=DIRECTION('',(0.249513144620722,0.935674292327708,0.249513144620722));
#636=DIRECTION('center_axis',(0.966234939601246,-0.257662650560332,0.));
#637=DIRECTION('ref_axis',(0.,0.,-1.));
#638=DIRECTION('',(0.249513144620722,0.935674292327708,-0.249513144620722));
#639=DIRECTION('center_axis',(0.,-0.257662650560332,-0.966234939601246));
#640=DIRECTION('ref_axis',(-1.,0.,0.));
#641=CARTESIAN_POINT('',(0.,0.,0.));
#642=CARTESIAN_POINT('Origin',(0.,-6.,0.));
#643=CARTESIAN_POINT('',(5.8,-6.,5.8));
#644=CARTESIAN_POINT('',(-5.8,-6.,5.8));
#645=CARTESIAN_POINT('',(3.2,-6.,5.8));
#646=CARTESIAN_POINT('',(5.8,-6.,-5.8));
#647=CARTESIAN_POINT('',(5.8,-6.,-3.2));
#648=CARTESIAN_POINT('',(-5.8,-6.,-5.8));
#649=CARTESIAN_POINT('',(-3.2,-6.,-5.8));
#650=CARTESIAN_POINT('',(-5.8,-6.,3.2));
#651=CARTESIAN_POINT('',(-2.6,-6.,-3.18408167778312E-16));
#652=CARTESIAN_POINT('Origin',(0.,-6.,0.));
#653=CARTESIAN_POINT('Origin',(0.75,-9.,-0.75));
#654=CARTESIAN_POINT('',(2.,-6.,-0.75));
#655=CARTESIAN_POINT('',(0.75,-6.,-0.75));
#656=CARTESIAN_POINT('',(0.375,-6.,-0.75));
#657=CARTESIAN_POINT('',(2.,-1.,-0.75));
#658=CARTESIAN_POINT('',(2.,-9.,-0.75));
#659=CARTESIAN_POINT('',(0.75,-1.,-0.75));
#660=CARTESIAN_POINT('',(-2.,-1.,-0.75));
#661=CARTESIAN_POINT('',(0.75,-9.,-0.75));
#662=CARTESIAN_POINT('Origin',(2.,-9.,-0.75));
#663=CARTESIAN_POINT('',(2.,-6.,0.75));
#664=CARTESIAN_POINT('',(2.,-6.,-0.375));
#665=CARTESIAN_POINT('',(2.,-1.,0.75));
#666=CARTESIAN_POINT('',(2.,-9.,0.75));
#667=CARTESIAN_POINT('',(2.,-1.,-0.75));
#668=CARTESIAN_POINT('Origin',(2.,-9.,0.75));
#669=CARTESIAN_POINT('',(0.75,-6.,0.75));
#670=CARTESIAN_POINT('',(1.,-6.,0.75));
#671=CARTESIAN_POINT('',(0.75,-1.,0.75));
#672=CARTESIAN_POINT('',(0.75,-9.,0.75));
#673=CARTESIAN_POINT('',(2.,-1.,0.75));
#674=CARTESIAN_POINT('Origin',(0.75,-9.,0.75));
#675=CARTESIAN_POINT('',(0.75,-6.,2.));
#676=CARTESIAN_POINT('',(0.75,-6.,0.375));
#677=CARTESIAN_POINT('',(0.75,-1.,2.));
#678=CARTESIAN_POINT('',(0.75,-9.,2.));
#679=CARTESIAN_POINT('',(0.75,-1.,-2.));
#680=CARTESIAN_POINT('Origin',(0.75,-9.,2.));
#681=CARTESIAN_POINT('',(-0.75,-6.,2.));
#682=CARTESIAN_POINT('',(0.375,-6.,2.));
#683=CARTESIAN_POINT('',(-0.75,-1.,2.));
#684=CARTESIAN_POINT('',(-0.75,-9.,2.));
#685=CARTESIAN_POINT('',(0.75,-1.,2.));
#686=CARTESIAN_POINT('Origin',(-0.75,-9.,2.));
#687=CARTESIAN_POINT('',(-0.75,-6.,0.75));
#688=CARTESIAN_POINT('',(-0.75,-6.,1.));
#689=CARTESIAN_POINT('',(-0.75,-1.,0.75));
#690=CARTESIAN_POINT('',(-0.75,-9.,0.75));
#691=CARTESIAN_POINT('',(-0.75,-1.,2.));
#692=CARTESIAN_POINT('Origin',(0.,-9.,0.));
#693=CARTESIAN_POINT('',(-2.6,-1.,2.77555756156289E-16));
#694=CARTESIAN_POINT('Origin',(0.,-1.,0.));
#695=CARTESIAN_POINT('',(-2.6,-9.,3.18408167778312E-16));
#696=CARTESIAN_POINT('Origin',(0.75,-9.,-2.));
#697=CARTESIAN_POINT('',(0.75,-6.,-2.));
#698=CARTESIAN_POINT('',(0.75,-6.,-1.));
#699=CARTESIAN_POINT('',(0.75,-1.,-2.));
#700=CARTESIAN_POINT('',(0.75,-1.,-2.));
#701=CARTESIAN_POINT('',(0.75,-9.,-2.));
#702=CARTESIAN_POINT('Origin',(-0.75,-9.,-2.));
#703=CARTESIAN_POINT('',(-0.75,-6.,-2.));
#704=CARTESIAN_POINT('',(-0.375,-6.,-2.));
#705=CARTESIAN_POINT('',(-0.75,-1.,-2.));
#706=CARTESIAN_POINT('',(-0.75,-1.,-2.));
#707=CARTESIAN_POINT('',(-0.75,-9.,-2.));
#708=CARTESIAN_POINT('Origin',(-0.75,-9.,-0.75));
#709=CARTESIAN_POINT('',(-0.75,-6.,-0.75));
#710=CARTESIAN_POINT('',(-0.75,-6.,-0.375));
#711=CARTESIAN_POINT('',(-0.75,-1.,-0.75));
#712=CARTESIAN_POINT('',(-0.75,-1.,2.));
#713=CARTESIAN_POINT('',(-0.75,-9.,-0.75));
#714=CARTESIAN_POINT('Origin',(-2.,-9.,-0.75));
#715=CARTESIAN_POINT('',(-2.,-6.,-0.75));
#716=CARTESIAN_POINT('',(-1.,-6.,-0.75));
#717=CARTESIAN_POINT('',(-2.,-1.,-0.75));
#718=CARTESIAN_POINT('',(-2.,-1.,-0.75));
#719=CARTESIAN_POINT('',(-2.,-9.,-0.75));
#720=CARTESIAN_POINT('Origin',(-2.,-9.,0.75));
#721=CARTESIAN_POINT('',(-2.,-6.,0.75));
#722=CARTESIAN_POINT('',(-2.,-6.,0.375));
#723=CARTESIAN_POINT('',(-2.,-1.,0.75));
#724=CARTESIAN_POINT('',(-2.,-1.,0.75));
#725=CARTESIAN_POINT('',(-2.,-9.,0.75));
#726=CARTESIAN_POINT('Origin',(-0.75,-9.,0.75));
#727=CARTESIAN_POINT('',(-0.375,-6.,0.75));
#728=CARTESIAN_POINT('',(2.,-1.,0.75));
#729=CARTESIAN_POINT('Origin',(0.,-1.,0.));
#730=CARTESIAN_POINT('Origin',(0.,-6.,0.));
#731=CARTESIAN_POINT('Origin',(-6.4,0.,-6.4));
#732=CARTESIAN_POINT('',(6.4,0.,-6.4));
#733=CARTESIAN_POINT('',(6.4,0.,-6.4));
#734=CARTESIAN_POINT('',(-6.4,0.,-6.4));
#735=CARTESIAN_POINT('',(-3.2,0.,-6.4));
#736=CARTESIAN_POINT('',(-6.4,0.,-6.4));
#737=CARTESIAN_POINT('Origin',(6.4,0.,-6.4));
#738=CARTESIAN_POINT('',(6.4,0.,6.4));
#739=CARTESIAN_POINT('',(6.4,0.,6.4));
#740=CARTESIAN_POINT('',(6.4,0.,-3.2));
#741=CARTESIAN_POINT('Origin',(6.4,0.,6.4));
#742=CARTESIAN_POINT('',(-6.4,0.,6.4));
#743=CARTESIAN_POINT('',(-6.4,0.,6.4));
#744=CARTESIAN_POINT('',(3.2,0.,6.4));
#745=CARTESIAN_POINT('Origin',(-6.4,0.,6.4));
#746=CARTESIAN_POINT('',(-6.4,0.,3.2));
#747=CARTESIAN_POINT('Origin',(0.,0.,0.));
#748=CARTESIAN_POINT('',(-8.9,0.,-8.9));
#749=CARTESIAN_POINT('',(-8.9,0.,8.9));
#750=CARTESIAN_POINT('',(-8.9,0.,-8.9));
#751=CARTESIAN_POINT('',(8.9,0.,8.9));
#752=CARTESIAN_POINT('',(-8.9,0.,8.9));
#753=CARTESIAN_POINT('',(8.9,0.,-8.9));
#754=CARTESIAN_POINT('',(8.9,0.,8.9));
#755=CARTESIAN_POINT('',(8.9,0.,-8.9));
#756=CARTESIAN_POINT('Origin',(-1.00929365875014E-16,-9.,0.));
#757=CARTESIAN_POINT('',(-6.5,-9.,6.5));
#758=CARTESIAN_POINT('',(6.5,-9.,6.5));
#759=CARTESIAN_POINT('',(-6.5,-9.,6.5));
#760=CARTESIAN_POINT('',(-6.5,-9.,-6.5));
#761=CARTESIAN_POINT('',(-6.5,-9.,-6.5));
#762=CARTESIAN_POINT('',(6.5,-9.,-6.5));
#763=CARTESIAN_POINT('',(6.5,-9.,-6.5));
#764=CARTESIAN_POINT('',(6.5,-9.,6.5));
#765=CARTESIAN_POINT('Origin',(-6.5,-9.,-6.5));
#766=CARTESIAN_POINT('',(-6.5,-9.,6.5));
#767=CARTESIAN_POINT('',(-6.5,-9.,-6.5));
#768=CARTESIAN_POINT('Origin',(-6.5,-9.,6.5));
#769=CARTESIAN_POINT('',(6.5,-9.,6.5));
#770=CARTESIAN_POINT('Origin',(6.5,-9.,6.5));
#771=CARTESIAN_POINT('',(6.5,-9.,-6.5));
#772=CARTESIAN_POINT('Origin',(6.5,-9.,-6.5));
#773=UNCERTAINTY_MEASURE_WITH_UNIT(LENGTH_MEASURE(0.01),#777,
'DISTANCE_ACCURACY_VALUE',
'Maximum model space distance between geometric entities at asserted c
onnectivities');
#774=UNCERTAINTY_MEASURE_WITH_UNIT(LENGTH_MEASURE(0.01),#777,
'DISTANCE_ACCURACY_VALUE',
'Maximum model space distance between geometric entities at asserted c
onnectivities');
#775=(
GEOMETRIC_REPRESENTATION_CONTEXT(3)
GLOBAL_UNCERTAINTY_ASSIGNED_CONTEXT((#773))
GLOBAL_UNIT_ASSIGNED_CONTEXT((#777,#779,#780))
REPRESENTATION_CONTEXT('','3D')
);
#776=(
GEOMETRIC_REPRESENTATION_CONTEXT(3)
GLOBAL_UNCERTAINTY_ASSIGNED_CONTEXT((#774))
GLOBAL_UNIT_ASSIGNED_CONTEXT((#777,#779,#780))
REPRESENTATION_CONTEXT('','3D')
);
#777=(
LENGTH_UNIT()
NAMED_UNIT(*)
SI_UNIT(.MILLI.,.METRE.)
);
#778=(
LENGTH_UNIT()
NAMED_UNIT(*)
SI_UNIT($,.METRE.)
);
#779=(
NAMED_UNIT(*)
PLANE_ANGLE_UNIT()
SI_UNIT($,.RADIAN.)
);
#780=(
NAMED_UNIT(*)
SI_UNIT($,.STERADIAN.)
SOLID_ANGLE_UNIT()
);
#781=SHAPE_DEFINITION_REPRESENTATION(#782,#783);
#782=PRODUCT_DEFINITION_SHAPE('',$,#785);
#783=SHAPE_REPRESENTATION('',(#493),#775);
#784=PRODUCT_DEFINITION_CONTEXT('part definition',#789,'design');
#785=PRODUCT_DEFINITION('Keycap-4','Keycap-4 v3',#786,#784);
#786=PRODUCT_DEFINITION_FORMATION('',$,#791);
#787=PRODUCT_RELATED_PRODUCT_CATEGORY('Keycap-4 v3','Keycap-4 v3',(#791));
#788=APPLICATION_PROTOCOL_DEFINITION('international standard',
'automotive_design',2009,#789);
#789=APPLICATION_CONTEXT(
'Core Data for Automotive Mechanical Design Process');
#790=PRODUCT_CONTEXT('part definition',#789,'mechanical');
#791=PRODUCT('Keycap-4','Keycap-4 v3',$,(#790));
#792=PRESENTATION_STYLE_ASSIGNMENT((#794));
#793=PRESENTATION_STYLE_ASSIGNMENT((#795));
#794=SURFACE_STYLE_USAGE(.BOTH.,#796);
#795=SURFACE_STYLE_USAGE(.BOTH.,#797);
#796=SURFACE_SIDE_STYLE('',(#798));
#797=SURFACE_SIDE_STYLE('',(#799));
#798=SURFACE_STYLE_FILL_AREA(#800);
#799=SURFACE_STYLE_FILL_AREA(#801);
#800=FILL_AREA_STYLE('\X2\94A2\X0\ - \X2\7F0E5149\X0\',(#802));
#801=FILL_AREA_STYLE('ABS(\X2\767D8272\X0\)',(#803));
#802=FILL_AREA_STYLE_COLOUR('\X2\94A2\X0\ - \X2\7F0E5149\X0\',#804);
#803=FILL_AREA_STYLE_COLOUR('ABS(\X2\767D8272\X0\)',#805);
#804=COLOUR_RGB('\X2\94A2\X0\ - \X2\7F0E5149\X0\',0.627450980392157,0.627450980392157,
0.627450980392157);
#805=COLOUR_RGB('ABS(\X2\767D8272\X0\)',0.964705882352941,0.964705882352941,
0.952941176470588);
ENDSEC;
END-ISO-10303-21;
